<svg width="168" height="49" viewBox="0 0 168 49" fill="none" xmlns="http://www.w3.org/2000/svg">
<path fill-rule="evenodd" clip-rule="evenodd" d="M44.6462 10.3607L30.4001 38.1944H17.0191L22.981 26.6589H22.7136C17.795 33.0402 10.4564 37.241 0 38.1944V26.8186C0 26.8186 6.6892 26.4237 10.6216 22.2916H0V10.3609H11.9375V20.1738L12.2055 20.1727L17.0836 10.3609H26.1116V20.1115L26.3796 20.1111L31.4406 10.3607H44.6462Z" fill="white"/>
<path d="M122.331 35.1221H126.175V13.0667H122.331V35.1221Z" fill="white"/>
<path fill-rule="evenodd" clip-rule="evenodd" d="M101.136 34.8969C101.972 35.2441 102.821 35.4176 103.685 35.4176C105.112 35.4176 106.389 35.0705 107.516 34.3761C108.642 33.6818 109.515 32.7246 110.135 31.5049C110.755 30.2756 111.064 28.8823 111.064 27.3246C111.064 25.7669 110.745 24.3735 110.107 23.1443C109.468 21.9151 108.581 20.9627 107.445 20.2871C106.309 19.6022 105.018 19.2644 103.572 19.2737C102.652 19.2737 101.77 19.452 100.925 19.8086C100.08 20.1651 99.3757 20.6718 98.8123 21.3287C98.7688 21.3787 98.7266 21.4292 98.6856 21.4802V13.0808H94.8269V35.1221H98.6575L98.6497 33.063C98.7489 33.1844 98.8547 33.303 98.9673 33.419C99.5776 34.0477 100.3 34.5403 101.136 34.8969ZM105.079 31.3359C104.45 31.7206 103.732 31.9131 102.925 31.9131C102.127 31.9131 101.394 31.7159 100.728 31.3218C100.061 30.9183 99.5306 30.3695 99.1362 29.6751C98.7514 28.9808 98.5589 28.1926 98.5589 27.3105C98.5495 26.4285 98.7373 25.6403 99.1222 24.9459C99.5165 24.2422 100.047 23.698 100.714 23.3132C101.38 22.9191 102.117 22.7268 102.925 22.7362C103.732 22.7268 104.45 22.9144 105.079 23.2992C105.718 23.6745 106.206 24.214 106.544 24.9178C106.891 25.6121 107.065 26.4098 107.065 27.3105C107.065 28.2113 106.891 29.0089 106.544 29.7032C106.206 30.3976 105.718 30.9418 105.079 31.3359Z" fill="white"/>
<path d="M50.2161 14.4038H54.6099L58.5404 28.7499L62.7217 14.4038H66.3832L70.918 28.462L74.6921 14.4038H78.7198L72.7768 35.1221H68.9884L64.3774 21.3883L60.1445 35.1221H56.3139L50.2161 14.4038Z" fill="white"/>
<path fill-rule="evenodd" clip-rule="evenodd" d="M85.2083 35.4881C83.6779 35.4974 82.2979 35.1595 81.0679 34.4746C79.8475 33.7803 78.8851 32.8185 78.181 31.5893C77.4862 30.36 77.1388 28.9573 77.1388 27.3809C77.1388 25.8515 77.4956 24.4674 78.2091 23.2288C78.9226 21.9902 79.8897 21.0237 81.1101 20.3294C82.3307 19.635 83.692 19.2878 85.1943 19.2878C86.8842 19.2878 88.3629 19.6631 89.6303 20.4138C90.9072 21.1645 91.8601 22.2295 92.4891 23.6088C93.1275 24.9788 93.3576 26.5505 93.1792 28.3238H81.1162C81.1499 29.0304 81.3262 29.6733 81.6454 30.2521C82.0021 30.8902 82.4998 31.3875 83.138 31.7441C83.7765 32.1006 84.4901 32.2789 85.2787 32.2789C85.8796 32.2696 86.4382 32.1663 86.9545 31.9693C87.4709 31.7629 87.9075 31.486 88.2644 31.1389C88.6304 30.7917 88.8886 30.3976 89.0388 29.9566H93.0666C92.8225 31.0357 92.3343 31.9975 91.6019 32.842C90.8696 33.677 89.9495 34.3291 88.8417 34.7984C87.7337 35.2675 86.5226 35.4974 85.2083 35.4881ZM81.6594 24.4533C81.4344 24.8454 81.2786 25.2677 81.1918 25.7201H89.188C89.13 25.1485 88.9535 24.6278 88.6585 24.1577C88.3207 23.6041 87.8606 23.1772 87.2785 22.8769C86.6964 22.5673 86.0392 22.4124 85.3069 22.4124C84.5277 22.4124 83.8189 22.5907 83.1804 22.9473C82.542 23.3039 82.0349 23.8059 81.6594 24.4533Z" fill="white"/>
<path d="M113.895 19.6115C113.895 18.3542 114.182 17.2376 114.754 16.2617C115.327 15.2765 116.13 14.5117 117.162 13.9675C118.204 13.4139 119.42 13.1277 120.81 13.1089V16.5291C120.162 16.5385 119.608 16.6746 119.148 16.9373C118.697 17.1906 118.35 17.5613 118.106 18.0492C117.881 18.4984 117.76 19.0192 117.742 19.6115H120.725V22.8628H117.74V35.1221H113.895V22.8628H111.416V19.6115H113.895Z" fill="white"/>
<path fill-rule="evenodd" clip-rule="evenodd" d="M135.949 35.4599C134.381 35.4599 132.977 35.1173 131.738 34.4324C130.508 33.7381 129.541 32.7809 128.837 31.5612C128.142 30.3319 127.795 28.9385 127.795 27.3809C127.795 25.8139 128.142 24.4158 128.837 23.1866C129.541 21.948 130.508 20.9862 131.738 20.3012C132.977 19.6162 134.381 19.2737 135.949 19.2737C137.526 19.2737 138.934 19.6162 140.174 20.3012C141.422 20.9862 142.394 21.9433 143.089 23.1725C143.783 24.4017 144.136 25.8045 144.145 27.3809C144.136 28.9385 143.783 30.3319 143.089 31.5612C142.403 32.7809 141.436 33.7381 140.188 34.4324C138.939 35.1173 137.526 35.4599 135.949 35.4599ZM135.949 31.9271C136.775 31.9271 137.507 31.7394 138.146 31.364C138.784 30.9794 139.277 30.4444 139.624 29.7595C139.972 29.0652 140.145 28.2723 140.145 27.3809C140.145 26.4801 139.972 25.6825 139.624 24.9881C139.277 24.2938 138.784 23.7589 138.146 23.3836C137.507 22.9989 136.775 22.8065 135.949 22.8065C135.132 22.8065 134.404 22.9989 133.766 23.3836C133.137 23.7589 132.649 24.2938 132.301 24.9881C131.954 25.6825 131.785 26.4801 131.794 27.3809C131.794 28.2723 131.968 29.0652 132.315 29.7595C132.672 30.4444 133.16 30.9794 133.78 31.364C134.409 31.7394 135.132 31.9271 135.949 31.9271Z" fill="white"/>
<path d="M148.299 19.6115H144.018L148.651 35.1221H152.398L155.445 25.2155L158.735 35.1221H162.425L167.072 19.6115H163.2L160.564 29.2659L157.651 19.6115H153.904L151.005 29.4786L148.299 19.6115Z" fill="white"/>
</svg>
