<svg width="164" height="49" viewBox="0 0 164 49" fill="none" xmlns="http://www.w3.org/2000/svg">
<path d="M39.6255 32.8143L40.64 32.6056C41.5352 32.367 41.7739 32.2477 41.7739 30.4584V16.4123C41.7739 14.623 41.5053 14.4739 40.64 14.2651L39.6255 14.0564V13.2214H55.7981L56.0965 19.1559H55.1715C54.4255 17.5157 53.9481 16.6509 53.5005 15.9948C52.5456 14.623 51.919 14.5037 49.8602 14.5037C48.3384 14.5037 47.5924 14.6826 47.1448 14.8019V22.4065H47.9505C50.0392 22.4065 50.5166 22.1679 50.8747 21.5118C51.2924 20.7663 51.5311 20.1997 51.7997 19.2454H52.6948V26.9394H51.7997C51.5311 26.0149 51.2924 25.4185 50.8747 24.5537C50.5166 23.8081 50.1287 23.659 47.9505 23.659H47.1448V29.3848C47.1448 32.0389 47.2344 32.3372 50.1287 32.3372C52.5158 32.3372 52.9932 32.0389 53.9779 30.5777C54.515 29.7725 55.0819 28.52 55.8577 26.6412H56.8126L56.3948 33.6493H39.6553L39.6255 32.8143ZM59.319 21.6311C58.6327 19.9611 58.3045 19.5436 57.5585 19.305L56.9916 19.1261V18.3507H65.8537V19.1261L65.0481 19.3348C64.4215 19.5138 64.1231 19.812 64.1231 20.5277C64.1231 20.9452 64.2723 21.4522 64.511 22.1083L66.9876 28.9076H67.1368L69.5239 22.1083C69.7924 21.3926 69.9118 20.8856 69.9118 20.4681C69.9118 19.812 69.6134 19.484 68.9868 19.3348L68.1811 19.1261V18.3507H73.6416V19.1261L73.0747 19.305C72.2989 19.5734 71.9706 20.0207 71.2545 21.9592L66.6892 33.6493H64.1827L59.319 21.6311ZM72.9553 25.9255C72.9553 20.7961 76.7448 17.963 80.6537 17.963C84.7118 17.963 87.2481 19.9909 87.3376 25.329H77.5803C77.6698 30.1602 79.49 31.4723 82.5335 31.4723C84.3537 31.4723 85.7561 30.9355 86.8602 30.3689V31.353C85.8158 32.4863 83.5779 34.037 80.6239 34.037C75.4916 33.9774 72.9553 30.9355 72.9553 25.9255ZM77.5803 24.1958L82.6231 23.9274C82.6231 20.3786 82.1456 19.0665 80.3852 19.0665C78.8932 19.0665 77.6997 20.4979 77.5803 24.1958ZM95.0956 20.2295C95.9311 19.3348 97.6319 17.8736 99.6013 17.8736C100.855 17.8736 101.899 18.8875 101.899 20.1699C101.899 21.4522 100.884 22.4661 99.6013 22.4661C98.6763 22.4661 97.8408 21.8995 97.5126 21.0943C97.3335 20.7663 96.9456 20.6768 96.6771 20.6768C96.14 20.6768 95.5134 21.0645 95.1255 21.4224V30.9654C95.1255 32.3372 95.2448 32.4863 96.14 32.6354L97.1247 32.8441V33.6493H88.6206V32.8441L89.3965 32.6354C90.3811 32.367 90.5005 32.2179 90.5005 30.9654V21.8101C90.5005 20.5575 90.3513 20.4681 89.5158 19.9015L88.5311 19.2454V18.6489L94.7376 17.9332L95.0658 18.1718L95.0061 20.1997L95.0956 20.2295ZM102.794 32.8441L103.57 32.6354C104.555 32.367 104.674 32.2179 104.674 30.9654V21.8101C104.674 20.5575 104.525 20.4681 103.689 19.9015L102.705 19.2454V18.6489L108.911 17.9332L109.239 18.142L109.18 20.0207H109.299C110.85 18.9173 112.79 17.9332 114.938 17.9332C117.445 17.9332 118.788 19.2156 118.788 21.8697V30.9355C118.788 32.2179 118.907 32.367 119.862 32.6056L120.638 32.8143V33.6195H112.432V32.8143L113.148 32.6354C114.043 32.3968 114.133 32.3073 114.133 30.9355V23.0328C114.133 21.2434 113.476 20.6768 112.104 20.6768C111.059 20.6768 110.015 20.9154 109.359 21.0645V30.9654C109.359 32.367 109.448 32.4266 110.343 32.6652L111.059 32.8441V33.6493H102.854V32.8441H102.794ZM121.205 26.0149C121.205 20.3786 125.203 17.963 129.171 17.963C133.438 17.963 137.168 20.5277 137.168 25.8658C137.168 31.5021 133.23 33.9774 129.171 33.9774C124.905 33.9774 121.205 31.4127 121.205 26.0149ZM132.215 26.164C132.215 20.2295 131.081 19.0963 129.052 19.0963C127.202 19.0963 126.098 20.4383 126.098 25.508C126.098 31.532 127.083 32.8441 129.231 32.8441C130.992 32.8441 132.215 31.8004 132.215 26.164ZM139.705 29.9216V20.0804H137.855V19.3647C140.152 18.47 141.913 16.7702 142.748 14.4142H144.419V18.3507H148.328L147.94 20.0804H144.419V29.6234C144.419 31.0846 144.867 31.6811 146.329 31.6811C147.045 31.6811 147.91 31.532 148.447 31.4127V32.2477C147.731 32.9038 146.269 33.9774 143.792 33.9774C141.137 33.9774 139.705 32.8143 139.705 29.9216ZM149.044 25.9255C149.044 20.7961 152.834 17.963 156.742 17.963C160.8 17.963 163.337 19.9909 163.426 25.329H153.699C153.788 30.1602 155.609 31.4723 158.652 31.4723C160.472 31.4723 161.875 30.9355 162.979 30.3689V31.353C161.934 32.4863 159.696 34.037 156.742 34.037C151.58 33.9774 149.044 30.9355 149.044 25.9255ZM153.669 24.1958L158.712 23.9274C158.712 20.3786 158.234 19.0665 156.474 19.0665C154.982 19.0665 153.788 20.4979 153.669 24.1958Z" fill="white"/>
<path d="M9.72774 15.5173C9.72774 15.8751 9.69791 16.4716 9.33984 16.8592C8.95194 17.2171 8.35516 17.2469 7.9971 17.2469H4.17775C3.07371 17.2469 2.41726 17.2469 1.96968 17.3066C1.73097 17.3364 1.43259 17.4557 1.28339 17.5153C1.22371 17.5451 1.22371 17.5153 1.25355 17.4855L9.96645 8.62842C9.99629 8.5986 10.0261 8.5986 9.99629 8.65824C9.93662 8.80735 9.81726 9.10557 9.78742 9.34414C9.72775 9.79147 9.72774 10.4476 9.72774 11.551V15.5173ZM17.8439 42.2973C16.8294 41.6412 16.2923 40.7763 16.0834 40.2395C15.8745 39.7326 15.7552 39.166 15.7552 38.5993C15.7552 36.1241 17.7842 34.0963 20.2906 34.0963C21.0366 34.0963 21.6334 34.6927 21.6334 35.4382C21.6334 35.9452 21.3648 36.3627 20.9471 36.6013C20.7979 36.6908 20.589 36.7504 20.4398 36.7802C20.2906 36.81 19.7237 36.8697 19.4552 37.1083C19.1568 37.3468 18.9181 37.7345 18.9181 38.152C18.9181 38.5993 19.0971 39.0169 19.3955 39.3151C19.9326 39.8519 20.6487 40.1501 21.4245 40.1501C23.4535 40.1501 25.0947 38.5099 25.0947 36.482C25.0947 34.6629 23.8713 33.0525 22.26 32.3368C22.0213 32.2175 21.6334 32.128 21.2753 32.0386C20.8277 31.9491 20.41 31.8894 20.3802 31.8894C19.1269 31.7403 15.9939 30.7562 15.785 27.9828C15.785 27.9828 14.86 32.1578 13.01 33.2911C12.831 33.3805 12.5923 33.47 12.3237 33.5296C12.0552 33.5893 11.7568 33.6191 11.6673 33.6191C8.65355 33.798 5.46081 32.8437 3.25275 30.5773C3.25275 30.5773 1.76081 29.3546 0.985005 25.9251C0.805973 25.0901 0.447908 23.599 0.239037 22.1974C0.149521 21.6904 0.119682 21.3027 0.0898438 20.9448C0.0898438 19.4836 0.985005 18.4994 2.11888 18.3503C2.14871 18.3503 2.23823 18.3503 2.29791 18.3503C2.9842 18.3503 8.20597 18.3503 8.20597 18.3503C9.25033 18.3503 9.8471 18.0819 10.235 17.7241C10.7423 17.2469 10.8616 16.561 10.8616 15.7558C10.8616 15.7558 10.8616 10.3283 10.8616 9.64236C10.8616 9.61254 10.8616 9.49325 10.8616 9.46343C11.0108 8.36002 11.9955 7.43555 13.4576 7.43555C13.4576 7.43555 13.9052 7.43555 14.1737 7.43555C14.4721 7.43555 14.8302 7.46537 15.1584 7.49519C15.3971 7.52501 15.606 7.58466 15.964 7.67412C17.7842 8.12145 18.1721 9.9704 18.1721 9.9704C18.1721 9.9704 21.6035 10.5668 23.3342 10.8651C24.9753 11.1633 29.0334 11.4317 29.8092 15.5173C31.6294 25.2392 30.5253 34.6629 30.4358 34.6629C29.1527 43.848 21.514 43.4007 21.514 43.4007C19.8729 43.4007 18.6495 42.8639 17.8439 42.2973ZM24.7068 22.764C23.7221 22.6745 22.8866 23.0622 22.5882 23.8077C22.5285 23.9568 22.4689 24.1358 22.4987 24.2252C22.5285 24.3147 22.5882 24.3445 22.6479 24.3743C23.006 24.5533 23.6027 24.6427 24.4681 24.7322C25.3334 24.8217 25.9302 24.8813 26.3181 24.8217C26.3777 24.8217 26.4374 24.7918 26.4971 24.7024C26.5568 24.6129 26.5269 24.434 26.5269 24.2849C26.4076 23.4499 25.6914 22.8833 24.7068 22.764Z" fill="white"/>
</svg>
