<svg width="135" height="49" viewBox="0 0 135 49" fill="none" xmlns="http://www.w3.org/2000/svg">
<path d="M0 2.2594H29.1427V16.8225H14.5713L0 2.2594ZM0 16.8225H14.5713L29.1427 31.3856H0V16.8225ZM0 31.3856H14.5713V45.9487L0 31.3856Z" fill="white"/>
<path d="M45.5859 13.7483H57.3659V17.4895H50.0446V22.6885H57.3659V26.3471H50.0446V33.004H45.5859V13.7483ZM59.7879 19.7449H63.9993V22.5233C64.2193 21.5685 64.6693 20.8356 65.3479 20.3225C66.0439 19.7902 66.8166 19.525 67.6599 19.525C68.1006 19.525 68.4679 19.5623 68.7606 19.6349V23.5414C68.3406 23.4907 67.9179 23.4634 67.4946 23.4588C66.3386 23.4588 65.4679 23.8339 64.8799 24.5861C64.2939 25.3197 63.9993 26.4197 63.9993 27.8876V33.004H59.7899V19.7449H59.7879ZM75.4086 33.3618C74.1246 33.3618 73.0046 33.0587 72.0506 32.4537C71.1146 31.8487 70.3706 30.9898 69.9039 29.9777C69.4086 28.915 69.1593 27.7123 69.1593 26.3744C69.1593 25.0539 69.4179 23.8612 69.9313 22.7985C70.4126 21.7717 71.1766 20.9035 72.1333 20.2952C73.1046 19.6902 74.2153 19.3871 75.4639 19.3871C76.3993 19.3871 77.2353 19.5896 77.9686 19.9927C78.7019 20.3972 79.2526 20.9475 79.6199 21.6431V19.7449H83.8033V33.004H79.6199V31.1331C79.2526 31.7934 78.6839 32.3337 77.9133 32.7562C77.1426 33.1646 76.2813 33.3725 75.4086 33.3618ZM76.6199 29.8678C77.6286 29.8678 78.4086 29.538 78.9593 28.8777C79.5099 28.2174 79.7853 27.3825 79.7853 26.3744C79.7853 25.3843 79.5099 24.5588 78.9593 23.8985C78.4086 23.2382 77.6286 22.9084 76.6199 22.9084C75.6646 22.9084 74.8953 23.2289 74.3079 23.8712C73.7393 24.5135 73.4546 25.347 73.4546 26.3744C73.4546 27.4019 73.7393 28.2447 74.3079 28.905C74.8953 29.5473 75.6659 29.8678 76.6199 29.8678ZM86.7486 19.7449H90.9599V21.6704C91.2546 20.9908 91.7306 20.4405 92.3906 20.02C93.0706 19.5996 93.8593 19.3871 94.7579 19.3871C96.8499 19.3871 98.2359 20.2026 98.9139 21.8357C99.2873 21.0954 99.8713 20.4831 100.593 20.0753C101.365 19.6109 102.252 19.3731 103.153 19.3871C106.291 19.3871 107.859 21.1834 107.859 24.7787V33.004H103.621V25.5489C103.621 24.6514 103.455 23.9911 103.125 23.5687C102.795 23.1476 102.299 22.9357 101.639 22.9357C100.923 22.9357 100.373 23.1836 99.9873 23.6786C99.6019 24.1557 99.4093 24.9892 99.4093 26.1819V33.004H95.1706V25.5216C95.1706 24.6234 95.0059 23.9718 94.6753 23.5687C94.3646 23.1476 93.8773 22.9357 93.2179 22.9357C92.4833 22.9357 91.9233 23.1836 91.5379 23.6786C91.1526 24.1557 90.9599 24.9892 90.9599 26.1819V33.004H86.7499V19.7449H86.7486ZM123.679 25.6868C123.679 26.2545 123.642 26.8695 123.567 27.5298H113.771C113.808 28.392 114.101 29.0509 114.651 29.5107C115.202 29.9684 115.947 30.1983 116.881 30.1983C118.184 30.1983 119.01 29.8032 119.358 29.0149H123.487C123.284 30.3175 122.569 31.3709 121.339 32.1785C120.129 32.9667 118.642 33.3618 116.881 33.3618C114.606 33.3618 112.817 32.7468 111.513 31.5182C110.229 30.2889 109.587 28.5752 109.587 26.3744C109.587 24.9439 109.88 23.7059 110.467 22.6605C111.035 21.6165 111.909 20.7716 112.972 20.2399C114.055 19.6722 115.312 19.3871 116.745 19.3871C118.101 19.3871 119.303 19.6529 120.349 20.1853C121.413 20.7176 122.23 21.4599 122.798 22.4133C123.386 23.3681 123.679 24.4589 123.679 25.6868ZM119.521 24.9166C119.503 24.0364 119.256 23.3661 118.778 22.9084C118.302 22.4507 117.613 22.2208 116.714 22.2208C115.815 22.2208 115.1 22.468 114.567 22.9637C114.054 23.4408 113.788 24.0911 113.769 24.9166H119.521ZM125.536 19.7449H129.747V22.5233C129.967 21.5685 130.417 20.8356 131.096 20.3225C131.755 19.8042 132.569 19.523 133.408 19.525C133.848 19.525 134.216 19.5623 134.509 19.6349V23.5414C134.089 23.4907 133.666 23.4634 133.243 23.4588C132.087 23.4588 131.216 23.8339 130.628 24.5861C130.04 25.3197 129.747 26.4197 129.747 27.8876V33.004H125.536V19.7449Z" fill="white"/>
</svg>
