<svg width="128" height="49" viewBox="0 0 128 49" fill="none" xmlns="http://www.w3.org/2000/svg">
<g clip-path="url(#clip0_252_28)">
<path d="M44.172 24.2994C44.1762 22.508 43.6261 20.7592 42.597 19.2924C41.5679 17.8257 40.1102 16.7129 38.4236 16.1064C38.5771 15.3245 38.6545 14.5297 38.6547 13.7329C38.6562 11.0956 37.8209 8.52575 36.2689 6.39283C34.7169 4.25991 32.5281 2.67379 30.0173 1.86251C27.5064 1.05122 24.8029 1.05657 22.2953 1.87778C19.7877 2.69898 17.6052 4.29375 16.0616 6.43279C14.9229 5.55083 13.5275 5.06381 12.087 5.0455C10.6464 5.0272 9.23914 5.4786 8.0783 6.33133C6.91746 7.18407 6.06631 8.39168 5.65377 9.77124C5.24123 11.1508 5.28978 12.6271 5.79207 13.9767C4.10152 14.5925 2.64022 15.711 1.60473 17.1817C0.56924 18.6524 0.00923079 20.4048 2.95997e-05 22.2031C-0.00466136 24.0006 0.548321 25.7555 1.58284 27.226C2.61736 28.6965 4.08255 29.8103 5.77666 30.4141C5.6267 31.1955 5.5502 31.9893 5.54817 32.785C5.54565 35.4192 6.38025 37.9862 7.93163 40.1158C9.48302 42.2454 11.671 43.8276 14.1802 44.6342C16.6893 45.4408 19.3899 45.4301 21.8926 44.6038C24.3953 43.7774 26.5707 42.1781 28.1053 40.0363C29.2407 40.9205 30.6337 41.4105 32.0729 41.4319C33.5121 41.4534 34.9191 41.0052 36.0805 40.1553C37.2418 39.3054 38.0941 38.1002 38.5082 36.7224C38.9222 35.3446 38.8754 33.8695 38.3749 32.5207C40.0663 31.9059 41.5286 30.7877 42.5646 29.3169C43.6007 27.846 44.1608 26.0931 44.1695 24.2943" fill="white"/>
<path d="M17.366 20.1992L27.0323 24.61L36.7884 16.0706C36.9289 15.366 36.9986 14.6491 36.9963 13.9306C36.9958 11.6046 36.2505 9.33976 34.8693 7.46757C33.4882 5.59539 31.5438 4.21411 29.3207 3.52587C27.0976 2.83763 24.7124 2.87855 22.5142 3.64264C20.316 4.40673 18.4202 5.85389 17.1042 7.77234L15.479 16.1732L17.366 20.1992Z" fill="#FEC514"/>
<path d="M7.36056 30.4297C7.21803 31.1454 7.14665 31.8734 7.14747 32.603C7.14752 34.9388 7.89669 37.213 9.28502 39.0919C10.6734 40.9708 12.6278 42.3554 14.8614 43.0426C17.095 43.7298 19.4902 43.6833 21.6954 42.91C23.9006 42.1367 25.7998 40.6772 27.1141 38.7459L28.7238 30.363L26.5749 26.2575L16.8728 21.8389L7.36056 30.4297Z" fill="white"/>
<path d="M7.30175 13.7125L13.9256 15.2752L15.3762 7.74668C14.4753 7.06391 13.3773 6.69118 12.2466 6.6843C11.116 6.67742 10.0135 7.03676 9.10434 7.70852C8.19514 8.38028 7.52813 9.32831 7.20317 10.4107C6.87822 11.493 6.9128 12.6514 7.30175 13.7125Z" fill="white"/>
<path d="M6.72678 15.2881C5.27343 15.7782 4.00905 16.7089 3.10948 17.9505C2.20991 19.1922 1.71987 20.6832 1.70752 22.2161C1.70648 23.6977 2.15664 25.1444 2.99818 26.3641C3.83971 27.5837 5.03275 28.5185 6.41869 29.0441L15.7127 20.6483L14.0053 17.0047L6.72678 15.2881Z" fill="white"/>
<path d="M28.8138 38.7458C29.7133 39.4252 30.8085 39.7955 31.9359 39.8015C33.0633 39.8075 34.1624 39.4488 35.0691 38.7791C35.9757 38.1094 36.6413 37.1645 36.9664 36.0856C37.2915 35.0067 37.2587 33.8516 36.8729 32.7929L30.2541 31.2533L28.8138 38.7458Z" fill="white"/>
<path d="M30.1593 29.511L37.4456 31.2122C38.8998 30.7234 40.165 29.7931 41.0648 28.5512C41.9646 27.3092 42.454 25.8175 42.4648 24.2842C42.4635 22.8058 42.0125 21.3627 41.1715 20.1464C40.3305 18.9302 39.1394 17.9982 37.7562 17.4742L28.2261 25.8135L30.1593 29.511Z" fill="white"/>
<path d="M61.7613 32.1539L62.6445 32.0641L62.7061 33.8603C60.7408 34.1569 58.7577 34.3198 56.7703 34.3478C54.5795 34.3478 53.027 33.714 52.1131 32.4464C51.1991 31.1789 50.7429 29.2065 50.7446 26.5294C50.7446 21.1974 52.8653 18.5305 57.1066 18.5288C59.1605 18.5288 60.6924 19.1018 61.7023 20.248C62.7121 21.3941 63.2187 23.1902 63.2222 25.6364L63.1015 27.371H53.0579C53.0579 29.0543 53.3625 30.3013 53.9718 31.1121C54.5812 31.923 55.6407 32.3284 57.1503 32.3284C58.6633 32.3335 60.2003 32.2754 61.7613 32.1539ZM60.9397 25.5543C60.9397 23.688 60.6411 22.37 60.0437 21.6002C59.4464 20.8304 58.4725 20.4447 57.122 20.443C55.7716 20.443 54.7566 20.8484 54.0771 21.6592C53.3976 22.4701 53.0476 23.7684 53.027 25.5543H60.9397Z" fill="white"/>
<path d="M66.4057 34.2272V14.2129H68.6882V34.2272H66.4057Z" fill="white"/>
<path d="M83.0631 23.4246V31.0968C83.0631 31.8665 84.9578 31.8255 84.9578 31.8255L84.8423 33.8423C83.2377 33.8423 81.9103 33.9757 81.1144 33.2034C79.3909 33.9684 77.524 34.3577 75.6382 34.3452C74.2398 34.3452 73.1744 33.9492 72.4418 33.1572C71.7092 32.3652 71.3438 31.2268 71.3455 29.7419C71.3455 28.2605 71.7212 27.17 72.4726 26.4704C73.224 25.7707 74.4007 25.3431 76.0028 25.1874L80.7807 24.7332V23.4246C80.7807 22.3982 80.5582 21.6575 80.1132 21.2025C79.8693 20.9737 79.5816 20.7967 79.2675 20.682C78.9533 20.5674 78.6192 20.5175 78.2852 20.5353H72.2878V18.5262H78.1337C79.859 18.5262 81.1119 18.9222 81.8924 19.7142C82.6728 20.5062 83.0631 21.743 83.0631 23.4246ZM73.6844 29.629C73.6844 31.4953 74.4546 32.4285 75.9951 32.4285C77.3847 32.4269 78.7641 32.19 80.0747 31.728L80.773 31.4842V26.4652L76.2775 26.8912C75.3635 26.9733 74.7037 27.2367 74.298 27.6815C73.8924 28.1262 73.6878 28.7754 73.6844 29.629Z" fill="white"/>
<path d="M91.9743 20.5661C89.7612 20.5661 88.6546 21.3359 88.6546 22.8755C88.6546 23.5871 88.9114 24.0892 89.4249 24.3817C89.9383 24.6742 91.0945 24.9787 92.8934 25.2952C94.7009 25.6116 95.9794 26.053 96.7291 26.6192C97.4788 27.1854 97.8545 28.2494 97.8562 29.8112C97.8562 31.3747 97.3538 32.5208 96.3491 33.2496C95.3444 33.9783 93.8784 34.3435 91.9512 34.3452C90.6932 34.3452 86.4929 33.8782 86.4929 33.8782L86.6161 31.9025C89.0295 32.1334 90.7728 32.3053 91.9512 32.3053C93.1296 32.3053 94.0256 32.118 94.6444 31.7434C95.2631 31.3687 95.5712 30.7401 95.5712 29.8574C95.5712 28.9747 95.3145 28.3768 94.7805 28.0612C94.2464 27.7456 93.0962 27.448 91.3119 27.1632C89.5276 26.8783 88.2567 26.4627 87.507 25.9161C86.7573 25.3696 86.3799 24.3535 86.3799 22.8729C86.3799 21.3924 86.8934 20.307 87.9486 19.5885C89.0038 18.87 90.2978 18.5236 91.8588 18.5236C93.0962 18.5236 97.3915 18.8392 97.3915 18.8392V20.8279C95.1245 20.7278 93.2708 20.5661 91.9743 20.5661Z" fill="white"/>
<path d="M108.858 20.8073H104.018V28.0792C104.018 29.8223 104.145 30.9676 104.398 31.515C104.655 32.0641 105.256 32.3361 106.208 32.3361L108.917 32.1539L109.071 34.0399C108.045 34.2294 107.007 34.3417 105.964 34.376C104.383 34.376 103.287 33.9903 102.678 33.2188C102.069 32.4473 101.765 30.977 101.766 28.8079V20.8073H99.615V18.8316H101.777V14.1769H104.028V18.8316H108.858V20.8073Z" fill="white"/>
<path d="M112.031 16.8891V14.2411H114.313V16.8891H112.031ZM112.031 34.2272V18.8316H114.313V34.2272H112.031Z" fill="white"/>
<path d="M124.2 18.5262C125.34 18.5748 126.476 18.6974 127.6 18.8931L128.329 18.9829L128.239 20.8381C127.046 20.6871 125.846 20.5963 124.645 20.5661C122.919 20.5661 121.748 20.9767 121.13 21.7978C120.512 22.6189 120.202 24.1396 120.2 26.36C120.2 28.5838 120.49 30.1302 121.068 30.9992C121.647 31.8682 122.853 32.3045 124.688 32.3079L128.283 32.0359L128.375 33.9219C126.976 34.1587 125.562 34.301 124.144 34.3478C121.772 34.3478 120.134 33.7388 119.23 32.5208C118.326 31.3029 117.874 29.2501 117.874 26.3626C117.874 23.4733 118.361 21.4454 119.335 20.2787C120.309 19.1121 121.931 18.5279 124.2 18.5262Z" fill="white"/>
</g>
<defs>
<clipPath id="clip0_252_28">
<rect width="128" height="47.9728" fill="white" transform="translate(0 0.260559)"/>
</clipPath>
</defs>
</svg>
