<svg width="156" height="49" viewBox="0 0 156 49" fill="none" xmlns="http://www.w3.org/2000/svg">
<path d="M40.683 14.7187H56.3422V17.6322H50.1766V34.056H46.7971V17.6322H40.6572L40.683 14.7187ZM55.6715 20.0558H58.5608V22.763H58.6124C58.7156 22.3763 58.8962 22.0153 59.1542 21.6543C59.4122 21.2934 59.7217 20.9582 60.1087 20.6746C60.4699 20.3652 60.8826 20.1331 61.347 19.9527C61.7856 19.7722 62.2499 19.669 62.7143 19.669C63.0754 19.669 63.3334 19.6948 63.4624 19.6948C63.5914 19.7206 63.7462 19.7464 63.8752 19.7464V22.7114C63.6688 22.6599 63.4366 22.6341 63.2044 22.6083C62.9722 22.5825 62.7659 22.5567 62.5337 22.5567C62.0177 22.5567 61.5276 22.6599 61.0632 22.8661C60.5989 23.0724 60.2119 23.3818 59.8507 23.7685C59.5154 24.1811 59.2316 24.671 59.0252 25.264C58.8188 25.857 58.7156 26.5531 58.7156 27.3266V33.9787H55.6199L55.6715 20.0558ZM78.0639 34.056H75.0198V32.0965H74.9682C74.5812 32.8184 74.0137 33.3599 73.2655 33.7982C72.5174 34.2365 71.7435 34.4428 70.9695 34.4428C69.1379 34.4428 67.7964 34.0044 66.9709 33.0762C66.1454 32.1738 65.7326 30.7816 65.7326 28.951V20.0558H68.8283V28.6416C68.8283 29.8791 69.0605 30.7558 69.5507 31.2456C70.015 31.7613 70.6858 32.0191 71.5371 32.0191C72.182 32.0191 72.7238 31.916 73.1623 31.7097C73.6009 31.5035 73.9621 31.2456 74.2201 30.9105C74.5038 30.5753 74.6844 30.1628 74.8134 29.6987C74.9424 29.2346 74.994 28.7189 74.994 28.1775V20.0558H78.0897V34.056H78.0639ZM83.3266 29.5697C83.4298 30.4722 83.7652 31.091 84.3586 31.4777C84.9519 31.8387 85.6742 32.0191 86.4998 32.0191C86.7835 32.0191 87.1189 31.9934 87.4801 31.9418C87.8412 31.8902 88.2024 31.8129 88.512 31.684C88.8474 31.555 89.1053 31.3746 89.3117 31.1167C89.5181 30.8589 89.6213 30.5495 89.5955 30.1628C89.5697 29.776 89.4407 29.4408 89.1569 29.183C88.8732 28.9252 88.5378 28.7447 88.125 28.5642C87.7123 28.4095 87.2221 28.2806 86.6804 28.1775C86.1386 28.0743 85.5968 27.9454 85.0293 27.8165C84.4617 27.6876 83.8942 27.5329 83.3524 27.3524C82.8107 27.1719 82.3463 26.9399 81.9078 26.6047C81.495 26.2953 81.1338 25.9086 80.9017 25.4187C80.6437 24.9288 80.5147 24.3616 80.5147 23.6396C80.5147 22.8661 80.6953 22.2473 81.0822 21.7317C81.4434 21.216 81.9336 20.8035 82.5011 20.4941C83.0687 20.1847 83.7136 19.9527 84.4102 19.8237C85.1067 19.6948 85.7774 19.6433 86.3966 19.6433C87.1189 19.6433 87.8154 19.7206 88.4604 19.8753C89.1053 20.03 89.7245 20.2621 90.2404 20.623C90.7822 20.9582 91.2207 21.4223 91.5561 21.9637C91.9173 22.5052 92.1237 23.1755 92.2269 23.949H89.0021C88.8474 23.2013 88.512 22.7114 87.996 22.4536C87.4543 22.1958 86.8609 22.0669 86.1644 22.0669C85.958 22.0669 85.6742 22.0926 85.3905 22.1184C85.0809 22.17 84.8229 22.2216 84.5391 22.3247C84.2812 22.4278 84.049 22.5825 83.8684 22.763C83.6878 22.9435 83.5846 23.2013 83.5846 23.5107C83.5846 23.8975 83.7136 24.1811 83.9716 24.4131C84.2296 24.6452 84.5649 24.8257 85.0035 25.0061C85.4163 25.1608 85.9064 25.2898 86.4482 25.3929C86.9899 25.496 87.5575 25.6249 88.125 25.7538C88.6926 25.8828 89.2343 26.0375 89.7761 26.2179C90.3178 26.3984 90.808 26.6305 91.2207 26.9657C91.6335 27.2751 91.9947 27.6618 92.2527 28.1259C92.5106 28.59 92.6396 29.183 92.6396 29.8534C92.6396 30.6784 92.459 31.3746 92.0721 31.9676C91.6851 32.5348 91.195 33.0247 90.6016 33.3856C90.0083 33.7466 89.3117 34.0044 88.5894 34.1849C87.8412 34.3396 87.1189 34.4428 86.3966 34.4428C85.5195 34.4428 84.6939 34.3396 83.9458 34.1334C83.1977 33.9271 82.5269 33.6177 81.9852 33.2309C81.4434 32.8184 81.0048 32.3285 80.6953 31.7097C80.3857 31.1167 80.2051 30.3948 80.1793 29.544H83.3008V29.5697H83.3266ZM93.5167 20.0558H95.8643V15.8274H98.9601V20.03H101.746V22.3247H98.9601V29.8018C98.9601 30.137 98.9859 30.3948 99.0117 30.6526C99.0375 30.8847 99.1148 31.0909 99.1922 31.2456C99.2954 31.4003 99.4502 31.5293 99.6308 31.6066C99.8372 31.684 100.095 31.7355 100.456 31.7355C100.663 31.7355 100.895 31.7355 101.101 31.7097C101.308 31.684 101.54 31.6582 101.746 31.6066V34.0044C101.411 34.056 101.075 34.0818 100.74 34.1076C100.405 34.1591 100.095 34.1591 99.734 34.1591C98.9085 34.1591 98.2635 34.0818 97.7734 33.9271C97.2832 33.7724 96.8962 33.5403 96.6125 33.2567C96.3287 32.9473 96.1481 32.5864 96.0449 32.1481C95.9417 31.7097 95.8901 31.1683 95.8643 30.6011V22.3505H93.5167V20.0042V20.0558ZM103.913 20.0558H106.828V21.9637H106.88C107.319 21.1387 107.912 20.5714 108.686 20.2105C109.46 19.8495 110.285 19.669 111.214 19.669C112.323 19.669 113.278 19.8495 114.103 20.2621C114.929 20.6488 115.6 21.1645 116.141 21.8606C116.683 22.531 117.096 23.3302 117.354 24.2326C117.612 25.1351 117.767 26.1148 117.767 27.1204C117.767 28.0743 117.638 28.9767 117.405 29.8534C117.147 30.73 116.786 31.5293 116.296 32.1996C115.806 32.87 115.187 33.4114 114.413 33.824C113.639 34.2365 112.762 34.4428 111.73 34.4428C111.291 34.4428 110.827 34.3912 110.388 34.3138C109.95 34.2365 109.511 34.1076 109.099 33.9271C108.686 33.7466 108.299 33.5146 107.963 33.2309C107.602 32.9473 107.319 32.6122 107.086 32.2512H107.035V39.2384H103.939V20.0558H103.913ZM114.722 27.0688C114.722 26.45 114.645 25.8312 114.464 25.2382C114.31 24.6452 114.052 24.1295 113.716 23.6654C113.381 23.2013 112.968 22.8404 112.504 22.5567C112.014 22.2731 111.446 22.1442 110.827 22.1442C109.537 22.1442 108.557 22.5825 107.886 23.4849C107.241 24.3873 106.906 25.5992 106.906 27.0946C106.906 27.8165 106.983 28.4611 107.164 29.0541C107.344 29.6471 107.576 30.1628 107.938 30.6011C108.273 31.0394 108.686 31.3746 109.176 31.6324C109.666 31.8902 110.208 32.0191 110.853 32.0191C111.575 32.0191 112.143 31.8644 112.633 31.5808C113.123 31.2972 113.51 30.9105 113.845 30.4722C114.155 30.0081 114.387 29.4924 114.516 28.8994C114.645 28.2806 114.722 27.6876 114.722 27.0688ZM120.166 14.7187H123.262V17.6322H120.166V14.7187ZM120.166 20.0558H123.262V34.056H120.166V20.0558ZM126.022 14.7187H129.118V34.056H126.022V14.7187ZM138.56 34.4428C137.45 34.4428 136.444 34.2623 135.567 33.8755C134.69 33.4888 133.968 32.9989 133.348 32.3543C132.755 31.7097 132.291 30.9105 131.981 30.0081C131.672 29.1057 131.491 28.1001 131.491 27.043C131.491 25.9859 131.646 25.0061 131.981 24.1037C132.291 23.2013 132.755 22.4278 133.348 21.7575C133.942 21.1129 134.69 20.5972 135.567 20.2363C136.444 19.8753 137.45 19.669 138.56 19.669C139.669 19.669 140.675 19.8495 141.552 20.2363C142.429 20.5972 143.152 21.1129 143.771 21.7575C144.364 22.402 144.828 23.2013 145.138 24.1037C145.448 25.0061 145.628 25.9859 145.628 27.043C145.628 28.1259 145.473 29.1057 145.138 30.0081C144.803 30.9105 144.364 31.684 143.771 32.3543C143.177 32.9989 142.429 33.5146 141.552 33.8755C140.675 34.2365 139.695 34.4428 138.56 34.4428ZM138.56 31.9934C139.23 31.9934 139.849 31.8387 140.34 31.555C140.856 31.2714 141.243 30.8847 141.578 30.4206C141.913 29.9565 142.145 29.415 142.3 28.8478C142.455 28.2548 142.532 27.6618 142.532 27.043C142.532 26.45 142.455 25.857 142.3 25.264C142.145 24.671 141.913 24.1553 141.578 23.6912C141.243 23.2271 140.83 22.8661 140.34 22.5825C139.824 22.2989 139.23 22.1442 138.56 22.1442C137.889 22.1442 137.27 22.2989 136.78 22.5825C136.264 22.8661 135.877 23.2529 135.541 23.6912C135.206 24.1553 134.974 24.671 134.819 25.264C134.664 25.857 134.587 26.45 134.587 27.043C134.587 27.6618 134.664 28.2548 134.819 28.8478C134.974 29.4408 135.206 29.9565 135.541 30.4206C135.877 30.8847 136.289 31.2714 136.78 31.555C137.295 31.8644 137.889 31.9934 138.56 31.9934ZM146.557 20.0558H148.904V15.8274H152V20.03H154.786V22.3247H152V29.8018C152 30.137 152.026 30.3948 152.052 30.6526C152.078 30.8847 152.155 31.0909 152.232 31.2456C152.336 31.4003 152.49 31.5293 152.671 31.6066C152.877 31.684 153.135 31.7355 153.496 31.7355C153.703 31.7355 153.935 31.7355 154.141 31.7097C154.348 31.684 154.58 31.6582 154.786 31.6066V34.0044C154.451 34.056 154.116 34.0818 153.78 34.1076C153.445 34.1591 153.135 34.1591 152.774 34.1591C151.949 34.1591 151.304 34.0818 150.813 33.9271C150.323 33.7724 149.936 33.5403 149.653 33.2567C149.369 32.9473 149.188 32.5864 149.085 32.1481C148.982 31.7097 148.93 31.1683 148.904 30.6011V22.3505H146.557V20.0042V20.0558Z" fill="white"/>
<path d="M37.0713 14.7188H22.9084L18.5485 1.26001L14.1629 14.7188L0 14.693L11.4542 23.0209L7.06857 36.4797L18.5227 28.1518L29.9769 36.4797L25.6171 23.0209L37.0713 14.7188Z" fill="white"/>
<path d="M26.5976 26.0633L25.6173 23.0209L18.5487 28.1517L26.5976 26.0633Z" fill="white"/>
</svg>
