<svg width="128" height="48" viewBox="0 0 128 48" fill="none" xmlns="http://www.w3.org/2000/svg">
<g clip-path="url(#clip0_252_1313)">
<path d="M44.172 24.0526C44.1762 22.2602 43.6261 20.5103 42.597 19.0428C41.5679 17.5752 40.1102 16.4617 38.4236 15.8549C38.5771 15.0726 38.6545 14.2773 38.6547 13.4801C38.6562 10.8413 37.8209 8.26997 36.2689 6.13585C34.7169 4.00172 32.5281 2.4147 30.0173 1.60296C27.5064 0.79122 24.8029 0.796569 22.2953 1.61824C19.7877 2.43991 17.6052 4.03558 16.0616 6.17583C14.9229 5.29337 13.5275 4.80608 12.087 4.78776C10.6464 4.76944 9.23914 5.2211 8.0783 6.07432C6.91746 6.92754 6.06631 8.13583 5.65377 9.51617C5.24123 10.8965 5.28978 12.3737 5.79207 13.724C4.10152 14.3402 2.64022 15.4593 1.60473 16.9308C0.56924 18.4024 0.00923079 20.1557 2.95997e-05 21.955C-0.00466136 23.7536 0.548321 25.5095 1.58284 26.9808C2.61736 28.4521 4.08255 29.5666 5.77666 30.1707C5.6267 30.9526 5.5502 31.7468 5.54817 32.543C5.54565 35.1787 6.38025 37.7471 7.93163 39.8779C9.48302 42.0087 11.671 43.5918 14.1802 44.3988C16.6893 45.2059 19.3899 45.1953 21.8926 44.3685C24.3953 43.5416 26.5707 41.9414 28.1053 39.7984C29.2407 40.6831 30.6337 41.1733 32.0729 41.1948C33.5121 41.2163 34.9191 40.7678 36.0805 39.9174C37.2418 39.0671 38.0941 37.8611 38.5082 36.4826C38.9222 35.104 38.8754 33.6281 38.3749 32.2785C40.0663 31.6634 41.5286 30.5446 42.5646 29.0729C43.6007 27.6012 44.1608 25.8473 44.1695 24.0475" fill="#002F49"/>
<path d="M17.3655 19.9499L27.0318 24.3633L36.7879 15.819C36.9284 15.114 36.9981 14.3967 36.9958 13.6778C36.9953 11.3504 36.25 9.08435 34.8688 7.21111C33.4877 5.33786 31.5433 3.95581 29.3202 3.26718C27.0971 2.57854 24.7119 2.61948 22.5137 3.38401C20.3155 4.14853 18.4197 5.59651 17.1037 7.51605L15.4785 15.9217L17.3655 19.9499Z" fill="#FEC514"/>
<path d="M7.36056 30.1862C7.21803 30.9023 7.14665 31.6307 7.14747 32.3608C7.14752 34.6978 7.89669 36.9733 9.28502 38.8533C10.6734 40.7332 12.6278 42.1187 14.8614 42.8062C17.095 43.4938 19.4902 43.4473 21.6954 42.6736C23.9006 41.8998 25.7998 40.4396 27.1141 38.5071L28.7238 30.1195L26.5749 26.0116L16.8728 21.5906L7.36056 30.1862Z" fill="#002F49"/>
<path d="M7.30171 13.4595L13.9256 15.0231L15.3762 7.49033C14.4752 6.80717 13.3772 6.43423 12.2466 6.42734C11.1159 6.42046 10.0135 6.78 9.10429 7.45214C8.1951 8.12428 7.52808 9.07285 7.20313 10.1558C6.87817 11.2388 6.91276 12.3979 7.30171 13.4595Z" fill="#002F49"/>
<path d="M6.72629 15.0361C5.27294 15.5266 4.00856 16.4577 3.10899 17.7001C2.20942 18.9425 1.71938 20.4343 1.70703 21.9681C1.70599 23.4505 2.15616 24.898 2.99769 26.1184C3.83923 27.3387 5.03226 28.274 6.4182 28.7999L15.7122 20.3994L14.0048 16.7537L6.72629 15.0361Z" fill="#002F49"/>
<path d="M28.8135 38.507C29.713 39.1867 30.8082 39.5573 31.9356 39.5633C33.063 39.5693 34.1621 39.2104 35.0687 38.5403C35.9754 37.8702 36.641 36.9248 36.9661 35.8453C37.2912 34.7658 37.2583 33.61 36.8725 32.5507L30.2538 31.0103L28.8135 38.507Z" fill="#002F49"/>
<path d="M30.1598 29.267L37.4461 30.9692C38.9002 30.4801 40.1655 29.5493 41.0653 28.3066C41.965 27.064 42.4545 25.5714 42.4653 24.0373C42.464 22.558 42.0129 21.1141 41.172 19.8972C40.331 18.6802 39.1399 17.7477 37.7567 17.2234L28.2266 25.5674L30.1598 29.267Z" fill="#002F49"/>
<path d="M61.7608 31.9115L62.644 31.8216L62.7056 33.6188C60.7403 33.9156 58.7572 34.0785 56.7698 34.1066C54.579 34.1066 53.0266 33.4725 52.1126 32.2042C51.1986 30.9359 50.7424 28.9624 50.7441 26.2837C50.7441 20.9487 52.8648 18.2803 57.1061 18.2786C59.1601 18.2786 60.6919 18.852 61.7018 19.9988C62.7116 21.1455 63.2182 22.9427 63.2217 25.3903L63.101 27.1259H53.0574C53.0574 28.8101 53.362 30.0578 53.9714 30.8691C54.5807 31.6804 55.6402 32.0861 57.1498 32.0861C58.6628 32.0912 60.1999 32.033 61.7608 31.9115ZM60.9393 25.3081C60.9393 23.4408 60.6406 22.122 60.0432 21.3518C59.4459 20.5816 58.472 20.1956 57.1216 20.1939C55.7711 20.1939 54.7561 20.5995 54.0766 21.4108C53.3971 22.2221 53.0471 23.5212 53.0266 25.3081H60.9393Z" fill="#002F49"/>
<path d="M66.4052 33.9859V13.9603H68.6877V33.9859H66.4052Z" fill="#002F49"/>
<path d="M83.0626 23.1772V30.8537C83.0626 31.6239 84.9573 31.5828 84.9573 31.5828L84.8418 33.6008C83.2372 33.6008 81.9098 33.7343 81.114 32.9615C79.3904 33.727 77.5235 34.1165 75.6377 34.104C74.2393 34.104 73.1739 33.7078 72.4413 32.9153C71.7087 32.1229 71.3433 30.9838 71.345 29.4981C71.345 28.0159 71.7207 26.9247 72.4721 26.2247C73.2235 25.5246 74.4002 25.0968 76.0023 24.941L80.7802 24.4866V23.1772C80.7802 22.1502 80.5577 21.4091 80.1127 20.9538C79.8688 20.7249 79.5811 20.5478 79.267 20.4331C78.9528 20.3184 78.6187 20.2684 78.2847 20.2863H72.2873V18.276H78.1332C79.8585 18.276 81.1114 18.6723 81.8919 19.4647C82.6724 20.2572 83.0626 21.4947 83.0626 23.1772ZM73.6839 29.3852C73.6839 31.2525 74.4541 32.1862 75.9946 32.1862C77.3843 32.1846 78.7636 31.9476 80.0742 31.4853L80.7725 31.2414V26.2196L76.277 26.6457C75.363 26.7279 74.7032 26.9915 74.2975 27.4365C73.8919 27.8815 73.6873 28.5311 73.6839 29.3852Z" fill="#002F49"/>
<path d="M91.9738 20.3171C89.7607 20.3171 88.6542 21.0873 88.6542 22.6278C88.6542 23.3398 88.9109 23.8421 89.4244 24.1348C89.9379 24.4275 91.094 24.7322 92.8929 25.0488C94.7004 25.3655 95.9789 25.8071 96.7286 26.3736C97.4783 26.9401 97.854 28.0047 97.8557 29.5674C97.8557 31.1318 97.3533 32.2786 96.3486 33.0077C95.3439 33.7369 93.878 34.1023 91.9507 34.104C90.6927 34.104 86.4924 33.6368 86.4924 33.6368L86.6156 31.6599C89.029 31.8909 90.7723 32.0629 91.9507 32.0629C93.1291 32.0629 94.0252 31.8755 94.6439 31.5007C95.2626 31.1258 95.5707 30.4968 95.5707 29.6136C95.5707 28.7305 95.314 28.1323 94.78 27.8165C94.2459 27.5007 93.0958 27.2029 91.3114 26.9179C89.5271 26.6329 88.2562 26.217 87.5065 25.6701C86.7569 25.1233 86.3795 24.1066 86.3795 22.6252C86.3795 21.1438 86.8929 20.0578 87.9481 19.3389C89.0033 18.6201 90.2973 18.2735 91.8583 18.2735C93.0958 18.2735 97.391 18.5893 97.391 18.5893V20.579C95.124 20.4789 93.2703 20.3171 91.9738 20.3171Z" fill="#002F49"/>
<path d="M108.857 20.5585H104.018V27.8344C104.018 29.5786 104.144 30.7245 104.398 31.2722C104.654 31.8216 105.255 32.0938 106.208 32.0938L108.916 31.9115L109.07 33.7985C108.045 33.9881 107.006 34.1005 105.964 34.1348C104.382 34.1348 103.287 33.7489 102.677 32.9769C102.068 32.205 101.764 30.7339 101.766 28.5636V20.5585H99.6145V18.5816H101.776V13.9243H104.028V18.5816H108.857V20.5585Z" fill="#002F49"/>
<path d="M112.03 16.6381V13.9885H114.313V16.6381H112.03ZM112.03 33.9859V18.5816H114.313V33.9859H112.03Z" fill="#002F49"/>
<path d="M124.2 18.276C125.34 18.3247 126.475 18.4473 127.599 18.6432L128.328 18.733L128.238 20.5893C127.046 20.4381 125.846 20.3473 124.644 20.3171C122.919 20.3171 121.747 20.7279 121.129 21.5495C120.511 22.371 120.202 23.8926 120.2 26.1143C120.2 28.3394 120.489 29.8867 121.068 30.7561C121.646 31.6256 122.853 32.0621 124.688 32.0655L128.282 31.7934L128.374 33.6804C126.975 33.9174 125.562 34.0598 124.143 34.1066C121.771 34.1066 120.133 33.4973 119.229 32.2786C118.326 31.06 117.874 29.006 117.874 26.1169C117.874 23.226 118.361 21.1969 119.335 20.0296C120.309 18.8623 121.93 18.2778 124.2 18.276Z" fill="#002F49"/>
</g>
<defs>
<clipPath id="clip0_252_1313">
<rect width="128" height="48" fill="white"/>
</clipPath>
</defs>
</svg>
