<svg width="136" height="48" viewBox="0 0 136 48" fill="none" xmlns="http://www.w3.org/2000/svg">
<g clip-path="url(#clip0_255_99)">
<path d="M0.422272 2H29.5649V16.5713H14.9936L0.422272 2ZM0.422272 16.5713H14.9936L29.5649 31.1427H0.422272V16.5713ZM0.422272 31.1427H14.9936V45.714L0.422272 31.1427Z" fill="#535353"/>
<path d="M46.0082 13.4954H57.7882V17.2387H50.4669V22.4407H57.7882V26.1014H50.4669V32.762H46.0082V13.4954ZM60.2102 19.4954H64.4215V22.2754C64.6415 21.32 65.0915 20.5867 65.7702 20.0734C66.4662 19.5407 67.2389 19.2754 68.0822 19.2754C68.5229 19.2754 68.8902 19.3127 69.1829 19.3854V23.294C68.7629 23.2434 68.3402 23.216 67.9169 23.2114C66.7609 23.2114 65.8902 23.5867 65.3022 24.3394C64.7162 25.0734 64.4215 26.174 64.4215 27.6427V32.762H60.2122V19.4954H60.2102ZM75.8309 33.12C74.5469 33.12 73.4269 32.8167 72.4729 32.2114C71.5369 31.606 70.7929 30.7467 70.3262 29.734C69.8309 28.6707 69.5815 27.4674 69.5815 26.1287C69.5815 24.8074 69.8402 23.614 70.3535 22.5507C70.8349 21.5234 71.5989 20.6547 72.5555 20.046C73.5269 19.4407 74.6375 19.1374 75.8862 19.1374C76.8215 19.1374 77.6575 19.34 78.3909 19.7434C79.1242 20.148 79.6749 20.6987 80.0422 21.3947V19.4954H84.2255V32.762H80.0422V30.89C79.6749 31.5507 79.1062 32.0914 78.3355 32.514C77.5649 32.9227 76.7035 33.1307 75.8309 33.12ZM77.0422 29.624C78.0509 29.624 78.8309 29.294 79.3815 28.6334C79.9322 27.9727 80.2075 27.1374 80.2075 26.1287C80.2075 25.138 79.9322 24.312 79.3815 23.6514C78.8309 22.9907 78.0509 22.6607 77.0422 22.6607C76.0869 22.6607 75.3175 22.9814 74.7302 23.624C74.1615 24.2667 73.8769 25.1007 73.8769 26.1287C73.8769 27.1567 74.1615 28 74.7302 28.6607C75.3175 29.3034 76.0882 29.624 77.0422 29.624ZM87.1709 19.4954H91.3822V21.422C91.6769 20.742 92.1529 20.1914 92.8129 19.7707C93.4929 19.35 94.2815 19.1374 95.1802 19.1374C97.2722 19.1374 98.6582 19.9534 99.3362 21.5874C99.7095 20.8467 100.294 20.234 101.016 19.826C101.788 19.3614 102.674 19.1234 103.575 19.1374C106.713 19.1374 108.282 20.9347 108.282 24.532V32.762H104.043V25.3027C104.043 24.4047 103.878 23.744 103.548 23.3214C103.217 22.9 102.722 22.688 102.061 22.688C101.346 22.688 100.795 22.936 100.41 23.4314C100.024 23.9087 99.8315 24.7427 99.8315 25.936V32.762H95.5929V25.2754C95.5929 24.3767 95.4282 23.7247 95.0975 23.3214C94.7869 22.9 94.2995 22.688 93.6402 22.688C92.9055 22.688 92.3455 22.936 91.9602 23.4314C91.5749 23.9087 91.3822 24.7427 91.3822 25.936V32.762H87.1722V19.4954H87.1709ZM124.102 25.4407C124.102 26.0087 124.064 26.624 123.99 27.2847H114.193C114.23 28.1474 114.523 28.8067 115.074 29.2667C115.624 29.7247 116.369 29.9547 117.303 29.9547C118.606 29.9547 119.432 29.5594 119.78 28.7707H123.909C123.706 30.074 122.991 31.128 121.762 31.936C120.551 32.7247 119.064 33.12 117.303 33.12C115.028 33.12 113.239 32.5047 111.936 31.2754C110.652 30.0454 110.009 28.3307 110.009 26.1287C110.009 24.6974 110.302 23.4587 110.89 22.4127C111.457 21.368 112.332 20.5227 113.394 19.9907C114.478 19.4227 115.734 19.1374 117.167 19.1374C118.524 19.1374 119.725 19.4034 120.771 19.936C121.835 20.4687 122.652 21.2114 123.22 22.1654C123.808 23.1207 124.102 24.212 124.102 25.4407ZM119.944 24.67C119.926 23.7894 119.678 23.1187 119.2 22.6607C118.724 22.2027 118.035 21.9727 117.136 21.9727C116.238 21.9727 115.522 22.22 114.99 22.716C114.476 23.1934 114.21 23.844 114.191 24.67H119.944ZM125.958 19.4954H130.17V22.2754C130.39 21.32 130.84 20.5867 131.518 20.0734C132.177 19.5547 132.992 19.2734 133.83 19.2754C134.27 19.2754 134.638 19.3127 134.931 19.3854V23.294C134.511 23.2434 134.088 23.216 133.665 23.2114C132.509 23.2114 131.638 23.5867 131.05 24.3394C130.462 25.0734 130.17 26.174 130.17 27.6427V32.762H125.958V19.4954Z" fill="#535353"/>
</g>
<defs>
<clipPath id="clip0_255_99">
<rect width="135" height="48" fill="white" transform="translate(0.422272)"/>
</clipPath>
</defs>
</svg>
