<svg width="157" height="48" viewBox="0 0 157 48" fill="none" xmlns="http://www.w3.org/2000/svg">
<path d="M41.1053 14.4663H56.7645V17.3814H50.5989V33.8146H47.2194V17.3814H41.0795L41.1053 14.4663ZM56.0938 19.8064H58.9831V22.5152H59.0347C59.1379 22.1282 59.3185 21.7671 59.5765 21.4059C59.8344 21.0447 60.144 20.7093 60.531 20.4256C60.8921 20.116 61.3049 19.8838 61.7693 19.7032C62.2078 19.5227 62.6722 19.4195 63.1365 19.4195C63.4977 19.4195 63.7557 19.4453 63.8847 19.4453C64.0137 19.4711 64.1685 19.4969 64.2974 19.4969V22.4636C64.0911 22.412 63.8589 22.3862 63.6267 22.3604C63.3945 22.3346 63.1881 22.3088 62.956 22.3088C62.44 22.3088 61.9499 22.412 61.4855 22.6184C61.0211 22.8248 60.6342 23.1343 60.273 23.5213C59.9376 23.9341 59.6539 24.4242 59.4475 25.0176C59.2411 25.6109 59.1379 26.3074 59.1379 27.0814V33.7372H56.0422L56.0938 19.8064ZM78.4862 33.8146H75.4421V31.854H75.3905C75.0035 32.5763 74.4359 33.118 73.6878 33.5566C72.9397 33.9952 72.1657 34.2015 71.3918 34.2015C69.5602 34.2015 68.2187 33.763 67.3932 32.8343C66.5676 31.9313 66.1549 30.5383 66.1549 28.7066V19.8064H69.2506V28.3971C69.2506 29.6354 69.4828 30.5125 69.9729 31.0026C70.4373 31.5186 71.108 31.7766 71.9594 31.7766C72.6043 31.7766 73.1461 31.6734 73.5846 31.467C74.0232 31.2606 74.3843 31.0026 74.6423 30.6673C74.9261 30.3319 75.1067 29.9191 75.2357 29.4548C75.3647 28.9904 75.4163 28.4745 75.4163 27.9327V19.8064H78.512V33.8146H78.4862ZM83.7489 29.3258C83.8521 30.2287 84.1875 30.8478 84.7808 31.2348C85.3742 31.596 86.0965 31.7766 86.922 31.7766C87.2058 31.7766 87.5412 31.7508 87.9024 31.6992C88.2635 31.6476 88.6247 31.5702 88.9343 31.4412C89.2696 31.3122 89.5276 31.1316 89.734 30.8736C89.9404 30.6157 90.0436 30.3061 90.0178 29.9191C89.992 29.5322 89.863 29.1968 89.5792 28.9388C89.2954 28.6808 88.9601 28.5002 88.5473 28.3197C88.1345 28.1649 87.6444 28.0359 87.1026 27.9327C86.5609 27.8295 86.0191 27.7005 85.4516 27.5715C84.884 27.4425 84.3165 27.2878 83.7747 27.1072C83.233 26.9266 82.7686 26.6944 82.33 26.359C81.9173 26.0495 81.5561 25.6625 81.3239 25.1724C81.066 24.6822 80.937 24.1146 80.937 23.3923C80.937 22.6184 81.1175 21.9992 81.5045 21.4833C81.8657 20.9673 82.3558 20.5546 82.9234 20.245C83.4909 19.9354 84.1359 19.7032 84.8324 19.5742C85.529 19.4453 86.1997 19.3937 86.8188 19.3937C87.5412 19.3937 88.2377 19.4711 88.8827 19.6258C89.5276 19.7806 90.1467 20.0128 90.6627 20.374C91.2045 20.7093 91.643 21.1737 91.9784 21.7155C92.3396 22.2572 92.5459 22.9279 92.6491 23.7019H89.4244C89.2696 22.9537 88.9343 22.4636 88.4183 22.2056C87.8766 21.9476 87.2832 21.8187 86.5867 21.8187C86.3803 21.8187 86.0965 21.8444 85.8127 21.8702C85.5032 21.9218 85.2452 21.9734 84.9614 22.0766C84.7034 22.1798 84.4713 22.3346 84.2907 22.5152C84.1101 22.6958 84.0069 22.9537 84.0069 23.2633C84.0069 23.6503 84.1359 23.9341 84.3939 24.1662C84.6518 24.3984 84.9872 24.579 85.4258 24.7596C85.8385 24.9144 86.3287 25.0434 86.8704 25.1466C87.4122 25.2497 87.9797 25.3787 88.5473 25.5077C89.1148 25.6367 89.6566 25.7915 90.1983 25.9721C90.7401 26.1527 91.2303 26.3848 91.643 26.7202C92.0558 27.0298 92.417 27.4168 92.6749 27.8811C92.9329 28.3455 93.0619 28.9388 93.0619 29.6096C93.0619 30.4351 92.8813 31.1316 92.4943 31.725C92.1074 32.2925 91.6172 32.7827 91.0239 33.1438C90.4305 33.505 89.734 33.763 89.0117 33.9436C88.2635 34.0984 87.5412 34.2015 86.8188 34.2015C85.9417 34.2015 85.1162 34.0984 84.3681 33.892C83.6199 33.6856 82.9492 33.376 82.4074 32.989C81.8657 32.5763 81.4271 32.0861 81.1175 31.467C80.808 30.8736 80.6274 30.1513 80.6016 29.3H83.7231V29.3258H83.7489ZM93.939 19.8064H96.2866V15.5756H99.3823V19.7806H102.168V22.0766H99.3823V29.558C99.3823 29.8933 99.4081 30.1513 99.4339 30.4093C99.4597 30.6415 99.5371 30.8478 99.6145 31.0026C99.7177 31.1574 99.8725 31.2864 100.053 31.3638C100.259 31.4412 100.517 31.4928 100.879 31.4928C101.085 31.4928 101.317 31.4928 101.524 31.467C101.73 31.4412 101.962 31.4154 102.168 31.3638V33.763C101.833 33.8146 101.498 33.8404 101.162 33.8662C100.827 33.9178 100.517 33.9178 100.156 33.9178C99.3307 33.9178 98.6858 33.8404 98.1956 33.6856C97.7055 33.5308 97.3185 33.2986 97.0347 33.0149C96.751 32.7053 96.5704 32.3441 96.4672 31.9055C96.364 31.467 96.3124 30.9252 96.2866 30.3577V22.1024H93.939V19.7548V19.8064ZM104.335 19.8064H107.251V21.7155H107.302C107.741 20.8899 108.334 20.3224 109.108 19.9612C109.882 19.6 110.708 19.4195 111.636 19.4195C112.746 19.4195 113.7 19.6 114.526 20.0128C115.351 20.3998 116.022 20.9157 116.564 21.6123C117.105 22.283 117.518 23.0827 117.776 23.9857C118.034 24.8886 118.189 25.8689 118.189 26.875C118.189 27.8295 118.06 28.7324 117.828 29.6096C117.57 30.4867 117.209 31.2864 116.718 31.9571C116.228 32.6279 115.609 33.1696 114.835 33.5824C114.061 33.9952 113.184 34.2015 112.152 34.2015C111.714 34.2015 111.249 34.15 110.811 34.0726C110.372 33.9952 109.934 33.8662 109.521 33.6856C109.108 33.505 108.721 33.2728 108.386 32.989C108.025 32.7053 107.741 32.3699 107.509 32.0087H107.457V38.9999H104.361V19.8064H104.335ZM115.145 26.8234C115.145 26.2043 115.067 25.5851 114.887 24.9918C114.732 24.3984 114.474 23.8825 114.139 23.4181C113.803 22.9537 113.39 22.5926 112.926 22.3088C112.436 22.025 111.868 21.896 111.249 21.896C109.959 21.896 108.979 22.3346 108.308 23.2375C107.663 24.1404 107.328 25.3529 107.328 26.8492C107.328 27.5715 107.405 28.2165 107.586 28.8098C107.767 29.4032 107.999 29.9191 108.36 30.3577C108.695 30.7962 109.108 31.1316 109.598 31.3896C110.088 31.6476 110.63 31.7766 111.275 31.7766C111.997 31.7766 112.565 31.6218 113.055 31.338C113.545 31.0542 113.932 30.6673 114.268 30.2287C114.577 29.7643 114.809 29.2484 114.938 28.655C115.067 28.0359 115.145 27.4425 115.145 26.8234ZM120.588 14.4663H123.684V17.3814H120.588V14.4663ZM120.588 19.8064H123.684V33.8146H120.588V19.8064ZM126.444 14.4663H129.54V33.8146H126.444V14.4663ZM138.982 34.2015C137.873 34.2015 136.866 34.021 135.989 33.634C135.112 33.247 134.39 32.7569 133.771 32.1119C133.177 31.467 132.713 30.6673 132.403 29.7643C132.094 28.8614 131.913 27.8553 131.913 26.7976C131.913 25.7399 132.068 24.7596 132.403 23.8567C132.713 22.9537 133.177 22.1798 133.771 21.5091C134.364 20.8641 135.112 20.3482 135.989 19.987C136.866 19.6258 137.873 19.4195 138.982 19.4195C140.091 19.4195 141.097 19.6 141.974 19.987C142.851 20.3482 143.574 20.8641 144.193 21.5091C144.786 22.154 145.251 22.9537 145.56 23.8567C145.87 24.7596 146.05 25.7399 146.05 26.7976C146.05 27.8811 145.896 28.8614 145.56 29.7643C145.225 30.6673 144.786 31.4412 144.193 32.1119C143.6 32.7569 142.851 33.2728 141.974 33.634C141.097 33.9952 140.117 34.2015 138.982 34.2015ZM138.982 31.7508C139.653 31.7508 140.272 31.596 140.762 31.3122C141.278 31.0284 141.665 30.6415 142 30.1771C142.336 29.7127 142.568 29.171 142.722 28.6034C142.877 28.0101 142.955 27.4167 142.955 26.7976C142.955 26.2043 142.877 25.6109 142.722 25.0176C142.568 24.4242 142.336 23.9083 142 23.4439C141.665 22.9795 141.252 22.6184 140.762 22.3346C140.246 22.0508 139.653 21.896 138.982 21.896C138.311 21.896 137.692 22.0508 137.202 22.3346C136.686 22.6184 136.299 23.0053 135.964 23.4439C135.628 23.9083 135.396 24.4242 135.241 25.0176C135.086 25.6109 135.009 26.2043 135.009 26.7976C135.009 27.4167 135.086 28.0101 135.241 28.6034C135.396 29.1968 135.628 29.7127 135.964 30.1771C136.299 30.6415 136.712 31.0284 137.202 31.3122C137.718 31.6218 138.311 31.7508 138.982 31.7508ZM146.979 19.8064H149.327V15.5756H152.422V19.7806H155.209V22.0766H152.422V29.558C152.422 29.8933 152.448 30.1513 152.474 30.4093C152.5 30.6415 152.577 30.8478 152.655 31.0026C152.758 31.1574 152.913 31.2864 153.093 31.3638C153.3 31.4412 153.558 31.4928 153.919 31.4928C154.125 31.4928 154.357 31.4928 154.564 31.467C154.77 31.4412 155.002 31.4154 155.209 31.3638V33.763C154.873 33.8146 154.538 33.8404 154.202 33.8662C153.867 33.9178 153.558 33.9178 153.196 33.9178C152.371 33.9178 151.726 33.8404 151.236 33.6856C150.746 33.5308 150.359 33.2986 150.075 33.0149C149.791 32.7053 149.61 32.3441 149.507 31.9055C149.404 31.467 149.353 30.9252 149.327 30.3577V22.1024H146.979V19.7548V19.8064Z" fill="#535353"/>
<path d="M37.4936 14.4664H23.3306L18.9708 1L14.5852 14.4664L0.422272 14.4406L11.8764 22.7733L7.49084 36.2397L18.945 27.907L30.3992 36.2397L26.0394 22.7733L37.4936 14.4664Z" fill="#535353"/>
<path d="M27.0199 25.8176L26.0396 22.7734L18.971 27.9072L27.0199 25.8176Z" fill="#535353"/>
</svg>
