<svg width="169" height="48" viewBox="0 0 169 48" fill="none" xmlns="http://www.w3.org/2000/svg">
<g clip-path="url(#clip0_255_98)">
<path fill-rule="evenodd" clip-rule="evenodd" d="M45.0685 10.106L30.8224 37.9554H17.4413L23.4033 26.4134H23.1358C18.2173 32.7983 10.8787 37.0016 0.422272 37.9554V26.5732C0.422272 26.5732 7.11147 26.1781 11.0439 22.0437H0.422272V10.1062H12.3598V19.9246L12.6277 19.9235L17.5058 10.1062H26.5339V19.8624L26.8018 19.8619L31.8629 10.106H45.0685Z" fill="#535353"/>
<path d="M122.753 34.8814H126.597V12.8135H122.753V34.8814Z" fill="#535353"/>
<path fill-rule="evenodd" clip-rule="evenodd" d="M101.558 34.656C102.394 35.0034 103.244 35.177 104.107 35.177C105.534 35.177 106.811 34.8297 107.938 34.135C109.064 33.4402 109.938 32.4825 110.557 31.2621C111.177 30.0321 111.487 28.638 111.487 27.0794C111.487 25.5209 111.168 24.1267 110.529 22.8968C109.891 21.6669 109.004 20.714 107.867 20.038C106.732 19.3526 105.441 19.0146 103.995 19.024C103.075 19.024 102.192 19.2024 101.347 19.5592C100.502 19.9159 99.798 20.4229 99.2346 21.0801C99.1911 21.1302 99.1489 21.1807 99.1079 21.2317V12.8276H95.2492V34.8814H99.0798L99.072 32.8211C99.1712 32.9426 99.277 33.0612 99.3896 33.1772C99.9999 33.8064 100.723 34.2993 101.558 34.656ZM105.502 31.093C104.873 31.4779 104.154 31.6705 103.347 31.6705C102.549 31.6705 101.817 31.4733 101.15 31.0789C100.483 30.6752 99.9529 30.126 99.5585 29.4313C99.1737 28.7365 98.9812 27.9479 98.9812 27.0654C98.9718 26.1828 99.1596 25.3942 99.5445 24.6994C99.9388 23.9953 100.469 23.4507 101.136 23.0658C101.802 22.6715 102.539 22.479 103.347 22.4884C104.154 22.479 104.873 22.6668 105.502 23.0517C106.14 23.4273 106.628 23.9671 106.966 24.6712C107.313 25.366 107.487 26.1641 107.487 27.0654C107.487 27.9666 107.313 28.7647 106.966 29.4594C106.628 30.1542 106.14 30.6987 105.502 31.093Z" fill="#535353"/>
<path d="M50.6384 14.1514H55.0322L58.9627 28.5056L63.144 14.1514H66.8055L71.3403 28.2175L75.1144 14.1514H79.1421L73.1991 34.8814H69.4107L64.7997 21.1398L60.5668 34.8814H56.7362L50.6384 14.1514Z" fill="#535353"/>
<path fill-rule="evenodd" clip-rule="evenodd" d="M85.6306 35.2475C84.1002 35.2568 82.7202 34.9188 81.4902 34.2335C80.2698 33.5388 79.3074 32.5764 78.6033 31.3466C77.9085 30.1166 77.5611 28.713 77.5611 27.1357C77.5611 25.6055 77.918 24.2206 78.6314 22.9813C79.3449 21.742 80.312 20.775 81.5324 20.0802C82.753 19.3855 84.1143 19.0381 85.6166 19.0381C87.3065 19.0381 88.7852 19.4136 90.0526 20.1647C91.3295 20.9158 92.2824 21.9814 92.9114 23.3615C93.5498 24.7323 93.7799 26.3049 93.6015 28.0792H81.5385C81.5722 28.7862 81.7485 29.4294 82.0677 30.0086C82.4244 30.647 82.9221 31.1447 83.5603 31.5014C84.1988 31.8581 84.9124 32.0365 85.701 32.0365C86.3019 32.0272 86.8605 31.9239 87.3768 31.7268C87.8932 31.5203 88.3298 31.2432 88.6867 30.8959C89.0527 30.5485 89.3109 30.1542 89.4611 29.713H93.4889C93.2448 30.7926 92.7566 31.755 92.0242 32.5999C91.2919 33.4354 90.3718 34.0879 89.264 34.5574C88.156 35.0268 86.9449 35.2568 85.6306 35.2475ZM82.0818 24.2065C81.8567 24.5989 81.7009 25.0214 81.6141 25.474H89.6103C89.5523 24.9021 89.3758 24.3811 89.0808 23.9108C88.743 23.3569 88.2829 22.9297 87.7008 22.6292C87.1187 22.3194 86.4615 22.1645 85.7292 22.1645C84.95 22.1645 84.2412 22.3429 83.6027 22.6996C82.9643 23.0564 82.4572 23.5587 82.0818 24.2065Z" fill="#535353"/>
<path d="M114.317 19.362C114.317 18.1039 114.604 16.9867 115.177 16.0103C115.749 15.0245 116.552 14.2593 117.585 13.7148C118.627 13.1608 119.843 12.8745 121.232 12.8557V16.2779C120.584 16.2872 120.03 16.4234 119.57 16.6863C119.12 16.9397 118.772 17.3106 118.528 17.7988C118.303 18.2483 118.182 18.7693 118.164 19.362H121.148V22.6151H118.162V34.8814H114.317V22.6151H111.839V19.362H114.317Z" fill="#535353"/>
<path fill-rule="evenodd" clip-rule="evenodd" d="M136.371 35.2194C134.803 35.2194 133.4 34.8766 132.16 34.1913C130.93 33.4965 129.963 32.5388 129.259 31.3184C128.564 30.0884 128.217 28.6943 128.217 27.1357C128.217 25.5679 128.564 24.169 129.259 22.9391C129.963 21.6998 130.93 20.7374 132.16 20.0521C133.4 19.3667 134.803 19.024 136.371 19.024C137.948 19.024 139.357 19.3667 140.596 20.0521C141.845 20.7374 142.816 21.6951 143.511 22.925C144.206 24.1549 144.558 25.5585 144.567 27.1357C144.558 28.6943 144.206 30.0884 143.511 31.3184C142.826 32.5388 141.859 33.4965 140.61 34.1913C139.361 34.8766 137.948 35.2194 136.371 35.2194ZM136.371 31.6846C137.197 31.6846 137.93 31.4968 138.568 31.1212C139.206 30.7363 139.699 30.201 140.047 29.5157C140.394 28.821 140.568 28.0277 140.568 27.1357C140.568 26.2345 140.394 25.4364 140.047 24.7417C139.699 24.0469 139.206 23.5118 138.568 23.1362C137.93 22.7513 137.197 22.5588 136.371 22.5588C135.554 22.5588 134.827 22.7513 134.188 23.1362C133.559 23.5118 133.071 24.0469 132.724 24.7417C132.376 25.4364 132.207 26.2345 132.217 27.1357C132.217 28.0277 132.39 28.821 132.738 29.5157C133.094 30.201 133.583 30.7363 134.202 31.1212C134.831 31.4968 135.554 31.6846 136.371 31.6846Z" fill="#535353"/>
<path d="M148.722 19.362H144.441L149.074 34.8814H152.82L155.867 24.9692L159.158 34.8814H162.847L167.494 19.362H163.622L160.986 29.0218L158.073 19.362H154.327L151.428 29.2347L148.722 19.362Z" fill="#535353"/>
</g>
<defs>
<clipPath id="clip0_255_98">
<rect width="168" height="48" fill="white" transform="translate(0.422272)"/>
</clipPath>
</defs>
</svg>
