<svg width="393" height="303" viewBox="0 0 393 303" fill="none" xmlns="http://www.w3.org/2000/svg">
<path d="M176.956 118.083C176.965 115.136 175.181 113.274 172.387 113.467C169.63 113.671 167.915 115.677 168.145 118.644C168.354 121.334 170.141 122.691 172.632 122.87C175.236 122.352 176.961 120.789 176.956 118.083ZM280.832 256.21C278.326 256.447 276.587 258.327 276.592 261.033C276.607 263.979 278.391 265.867 281.184 265.75C283.976 265.633 285.44 263.594 285.76 260.718C285.194 257.833 283.649 255.94 280.832 256.21ZM7.64199 97.5551C10.4562 97.7665 12.3025 95.9226 12.4908 93.0105C12.6777 90.3008 11.0493 88.4479 8.52252 88.2563C5.69639 88.0325 4.1134 89.9219 3.57762 92.828C3.78643 95.4922 5.09121 97.3639 7.64199 97.5551ZM67.8201 91.7054C67.8993 88.9851 66.2107 87.1714 63.7079 86.9793C60.8816 86.7807 58.987 88.6761 58.7749 91.5634C58.5382 94.527 60.396 96.1351 63.1362 96.6515C65.847 96.2452 67.7273 94.6663 67.8201 91.7054ZM36.066 97.1092C38.6418 97.1482 40.416 95.331 40.6743 92.6957C40.9591 89.7059 39.2236 87.7413 36.5051 87.5533C33.7027 87.3544 32.119 89.3449 31.5232 92.2649C31.8386 95.1167 33.2626 97.062 36.066 97.1092ZM312.199 288.623C312.061 286.084 310.549 284.634 308.141 284.693C305.48 284.769 303.935 286.418 303.951 289.212C303.979 292.044 305.623 293.378 308.33 293.453C310.85 293 312.335 291.416 312.199 288.623ZM145.349 85.7242C142.687 85.9524 141.296 87.7875 141.481 90.5533C141.642 93.1173 143.19 94.5038 145.599 94.4195C148.284 94.3173 149.614 92.5971 149.777 89.8626C149.485 87.0356 147.998 85.5088 145.349 85.7242ZM121.76 90.4018C121.683 87.6212 120.029 86.0218 117.404 86.1608C114.767 86.3127 113.209 88.1004 113.273 90.8686C113.337 93.662 115.005 95.0462 117.592 95.1735C120.243 94.7811 121.836 93.1823 121.76 90.4018ZM254.504 170.322C252.083 170.368 250.551 171.852 250.389 174.409C250.214 177.182 251.591 178.951 254.275 179.026C256.922 179.114 258.384 177.48 258.691 174.667C258.519 171.914 257.188 170.27 254.504 170.322ZM227.564 142.274C225.143 142.32 223.611 143.804 223.449 146.362C223.274 149.134 224.663 150.891 227.334 150.978C229.994 151.053 231.443 149.432 231.751 146.619C231.578 143.866 230.248 142.222 227.564 142.274ZM281.183 226.865C278.546 227.017 276.988 228.805 277.052 231.573C277.128 234.353 278.782 235.953 281.407 235.814C284.056 235.674 285.411 233.878 285.598 231.168C285.282 228.341 283.808 226.726 281.183 226.865ZM39.9605 34.388C40.1928 32.0315 38.8495 30.5272 36.6817 30.4046C34.6935 30.2911 33.2817 31.6966 33.0754 33.7492C32.8312 36.0933 34.2118 37.4072 36.3777 37.8081C38.3442 37.5932 39.7542 36.4406 39.9605 34.388ZM40.2216 63.5311C40.1319 60.9658 38.7043 59.5264 36.2712 59.6364C33.8381 59.7465 32.4369 61.3415 32.4668 63.8953C32.4965 66.4745 34.0214 67.7097 36.7758 67.9095C38.6371 67.33 40.3106 66.1976 40.2216 63.5311ZM90.3913 66.6754C92.8233 66.7171 94.3196 65.2214 94.4335 62.6648C94.5356 60.0958 93.1685 58.5667 90.7366 58.4997C88.2927 58.4456 86.9997 60.0005 86.6226 62.4863C86.7723 65.0379 87.9472 66.6465 90.3913 66.6754ZM121.493 62.0681C121.511 59.4628 120.048 57.9356 117.579 58.0337C115.35 58.1271 113.949 59.6463 113.885 61.9996C113.818 64.6312 115.379 65.9036 118.073 66.1679C119.85 65.6026 121.476 64.4964 121.493 62.0681ZM67.3285 62.9588C67.2389 60.3935 65.8112 58.9541 63.3781 59.0641C60.945 59.1742 59.5439 60.7692 59.5737 63.323C59.6034 65.9022 61.1284 67.1374 63.8828 67.3373C65.7559 66.7701 67.4294 65.6377 67.3285 62.9588ZM67.0925 33.6635C67.2169 31.3217 65.8494 29.8432 63.6327 29.8479C61.6557 29.848 60.2796 31.2908 60.1692 33.3415C60.0328 35.6962 61.4498 36.9462 63.5805 37.234C65.5955 36.9423 66.9819 35.7396 67.0925 33.6635ZM285.34 174.407C285.573 172.05 284.242 170.457 282.111 170.245C279.668 169.989 278.088 171.55 277.926 174.107C277.789 176.462 279.266 177.698 281.539 178.185C283.531 177.869 285.108 176.713 285.34 174.407ZM281.755 198.566C279.335 198.461 277.732 199.845 277.534 202.415C277.322 205.202 278.7 206.895 281.408 206.893C283.864 206.909 285.158 205.329 285.463 202.819C285.361 200.267 284.198 198.671 281.755 198.566ZM12.1201 64.1098C12.0544 61.5441 10.6149 60.0922 8.18178 60.2023C5.74868 60.3123 4.33562 61.8949 4.37739 64.4612C4.40705 67.0403 5.93201 68.2755 8.33917 68.4442C10.7023 68.0573 12.1857 66.7009 12.1201 64.1098ZM11.8766 34.1698C11.6754 32.1251 10.2829 30.7988 8.28049 31.0017C6.09825 31.2208 4.74519 32.7896 4.96821 35.1373C5.16943 37.1821 6.56369 38.2554 8.5398 38.3817C10.7121 37.8721 12.1117 36.5047 11.8766 34.1698ZM312.182 260.449C312.248 257.868 310.929 256.313 308.485 256.259C305.814 256.197 304.281 257.807 304.285 260.639C304.302 263.231 305.803 264.492 308.222 264.648C310.633 264.387 312.116 263.056 312.182 260.449ZM308.218 234.805C310.686 234.808 312.183 233.236 312.201 230.631C312.206 228.291 310.815 226.813 308.586 226.78C306.094 226.752 304.824 228.408 304.519 230.918C304.826 233.251 305.977 234.784 308.218 234.805ZM308.559 198.366C306.534 198.392 305.158 199.86 304.976 201.913C304.779 204.281 306.17 205.86 308.35 205.97C310.602 206.079 311.835 204.487 312.259 202.152C311.976 199.868 310.8 198.336 308.559 198.366ZM199.778 113.395C197.334 113.391 195.826 114.849 195.724 117.418C195.608 120.253 197.095 121.83 199.779 121.728C202.236 121.643 203.47 120.001 203.668 117.455C203.458 114.917 202.235 113.385 199.778 113.395ZM203.546 88.9922C203.634 86.6384 202.243 85.1097 200.099 85.0372C197.655 84.9578 196.122 86.568 196.128 89.1476C196.135 91.4742 197.648 92.6717 199.815 92.9462C201.975 92.5758 203.445 91.3335 203.546 88.9922ZM176.333 60.4057C176.132 58.361 174.74 57.0347 172.737 57.2377C170.555 57.4567 169.202 59.0255 169.425 61.3733C169.626 63.418 171.02 64.4913 172.997 64.6177C175.169 64.108 176.556 62.7535 176.333 60.4057ZM172.933 85.4209C170.501 85.3539 168.993 86.8119 168.843 89.3818C168.706 91.9389 170.06 93.5061 172.48 93.6113C174.923 93.716 176.241 92.1606 176.641 89.6996C176.528 87.1095 175.377 85.5003 172.933 85.4209ZM281.757 149.159C283.962 149.066 285.399 147.534 285.259 145.197C285.108 142.924 283.632 141.536 281.377 141.883C279.422 142.186 278.404 143.698 278.27 145.724C278.639 147.841 279.767 149.248 281.757 149.159ZM254.896 142.038C252.428 142.035 250.907 143.582 250.889 146.187C250.872 148.54 252.263 150.018 254.48 150.064C256.972 150.117 258.253 148.474 258.621 145.647C258.167 143.746 257.172 142.045 254.896 142.038ZM254.5 120.093C256.703 120.253 258.188 118.796 258.324 116.466C258.447 114.352 257.139 112.91 255.211 112.783C252.995 112.611 251.727 114.115 251.315 116.412C251.48 118.495 252.56 119.954 254.5 120.093ZM227.879 112.968C225.41 113.015 223.925 114.599 223.943 117.191C223.974 119.543 225.378 120.983 227.606 120.99C230.099 120.993 231.345 119.312 231.664 116.461C231.174 114.599 230.168 112.911 227.879 112.968ZM336.256 292.258C338.27 292.168 339.622 290.701 339.745 288.612C339.869 286.245 338.479 284.691 336.274 284.657C334.034 284.612 332.824 286.229 332.448 288.537C332.816 290.832 334.003 292.377 336.256 292.258ZM339.772 259.387C339.583 257.355 338.202 256.016 336.2 256.194C334.006 256.4 332.653 257.969 332.864 260.304C333.041 262.349 334.435 263.448 336.411 263.574C338.583 263.09 339.983 261.723 339.772 259.387ZM149.473 61.6182C149.634 59.263 148.279 57.6957 146.147 57.5344C143.716 57.3662 142.135 58.9521 142.057 61.5206C141.981 63.8615 143.47 65.0848 145.84 65.4944C147.735 65.1039 149.313 63.9733 149.473 61.6182ZM90.4146 36.2749C92.5107 36.3737 93.8007 35.2487 93.8768 32.9584C93.9508 30.9716 92.9411 29.7391 91.0606 29.6362C88.9645 29.5375 87.7462 30.6863 87.5624 32.9661C87.6205 34.9124 88.5102 36.1725 90.4146 36.2749ZM88.2087 4.26081C88.1245 6.00753 89.1591 7.11307 90.7642 7.18336C92.3932 7.25317 93.4917 6.10659 93.5995 4.40999C93.7077 2.66281 92.6119 1.74812 90.8412 1.37755C89.5088 1.71934 88.293 2.5141 88.2087 4.26081ZM175.855 31.5451C176.06 29.5937 175.026 28.3617 173.158 28.2712C171.517 28.189 170.419 29.285 170.227 30.9452C170.01 32.9095 171.105 33.9759 172.876 34.2706C174.578 34.162 175.675 33.2178 175.855 31.5451ZM366.294 229.716C366.39 227.982 365.343 226.864 363.738 226.794C362.109 226.724 361.011 227.87 360.903 229.567C360.795 231.314 361.891 232.229 363.47 232.553C365.089 232.357 366.198 231.425 366.294 229.716ZM366.239 259.548C366.42 257.597 365.374 256.378 363.506 256.313C361.865 256.256 360.778 257.364 360.611 259.024C360.417 260.988 361.524 262.042 363.307 262.323C364.986 262.165 366.095 261.233 366.239 259.548ZM257.83 88.0233C257.964 86.048 256.906 84.867 255.061 84.8267C253.42 84.795 252.346 85.8906 252.214 87.5876C252.056 89.5634 253.163 90.5917 255.186 90.8689C256.53 90.5648 257.722 89.7705 257.83 88.0233ZM366.194 287.862C366.231 286.091 365.316 284.958 363.663 284.813C361.795 284.647 360.518 285.632 360.348 287.672C360.178 289.685 361.201 290.804 363.356 291.041C364.927 290.846 366.143 289.95 366.194 287.862ZM200.152 57.14C198.295 57.1125 197.09 58.1221 196.98 60.1222C196.857 62.3375 197.914 63.5944 200.071 63.5276C201.965 63.4658 202.92 62.2714 203.042 60.2837C202.96 58.3379 202.045 57.1794 200.152 57.14ZM227.936 62.5993C229.577 62.631 230.651 61.5101 230.759 59.8135C230.855 58.0792 229.797 56.9741 228.192 56.9039C226.538 56.8345 225.655 58.0275 225.247 59.9196C225.56 61.2919 226.27 62.5681 227.936 62.5993ZM228.328 85.0503C226.268 84.8876 224.871 85.9515 224.771 88.2422C224.671 90.4824 225.812 91.725 227.958 91.6711C229.839 91.6222 230.878 90.4641 231.097 88.2469C231.049 86.5407 230.232 85.2034 228.328 85.0503ZM66.4807 4.96983C66.5768 3.23554 65.5303 2.11758 63.9252 2.04731C62.2962 1.97748 61.1977 3.12409 61.0899 4.82066C60.9817 6.56784 62.0775 7.48252 63.6568 7.8062C65.2639 7.59824 66.3847 6.67884 66.4807 4.96983ZM146.008 34.8889C147.698 34.8184 148.724 33.7997 148.844 32.0143C148.978 30.0137 148.028 28.7675 146.088 28.7036C144.159 28.6522 143.144 29.8099 142.962 31.8367C143.104 33.8446 144.078 34.9639 146.008 34.8889ZM39.3757 5.26386C39.2918 3.57095 38.2211 2.47876 36.5788 2.59888C34.9723 2.73098 33.9097 3.88952 33.9813 5.6206C34.0531 7.32637 35.1612 8.20287 36.7658 8.34903C38.3501 7.96446 39.4592 7.00733 39.3757 5.26386ZM120.876 32.4008C120.926 30.4145 119.952 29.2446 118.071 29.1922C115.95 29.1445 114.791 30.3808 114.835 32.6182C114.869 34.6156 116.025 35.5671 117.858 35.595C119.74 35.445 120.826 34.4124 120.876 32.4008ZM339.52 173.048C339.616 171.314 338.57 170.196 336.964 170.126C335.335 170.056 334.237 171.202 334.129 172.899C334.021 174.646 335.117 175.561 336.696 175.884C338.303 175.677 339.424 174.757 339.52 173.048ZM339.594 201.512C339.595 199.729 338.68 198.621 337.015 198.514C335.135 198.386 333.882 199.371 333.748 201.422C333.613 203.448 334.648 204.528 336.827 204.739C338.387 204.507 339.579 203.586 339.594 201.512ZM336.157 233.521C338.253 233.62 339.543 232.495 339.619 230.204C339.681 228.23 338.683 226.985 336.803 226.882C334.706 226.783 333.488 227.932 333.304 230.212C333.374 232.171 334.264 233.431 336.157 233.521ZM311.729 144.903C311.695 142.931 310.565 141.776 308.707 141.977C306.86 142.164 305.856 143.511 306.106 145.454C306.334 147.118 307.454 147.957 309.359 147.958C310.597 147.517 311.777 146.685 311.729 144.903ZM311.873 173.669C311.949 171.429 310.832 170.186 308.687 170.24C306.805 170.289 305.671 171.449 305.597 173.435C305.509 175.688 306.663 176.817 308.699 176.904C310.666 176.714 311.811 175.668 311.873 173.669ZM8.48921 3.19009C6.88272 3.32218 5.8201 4.4807 5.89172 6.21175C5.9756 7.90464 7.04625 8.99687 8.68859 8.87672C10.307 8.75707 11.1662 7.56452 11.3459 5.86654C11.0222 4.20357 10.1437 3.05708 8.48921 3.19009ZM279.045 115.827C278.972 117.612 279.839 118.746 281.503 118.929C283.371 119.146 284.672 118.185 284.878 116.158C285.083 114.181 284.109 112.986 281.967 112.711C280.372 112.881 279.132 113.752 279.045 115.827ZM200.154 28.0678C198.512 28.1879 197.485 29.3837 197.712 31.1244C197.894 32.5625 198.954 33.5158 200.417 33.2853C201.808 33.0562 202.607 32.0039 202.701 30.5226C202.4 29.0109 201.593 27.9642 200.154 28.0678ZM120.502 3.87958C120.633 2.33432 119.67 1.27795 118.293 1.16536C116.64 1.04542 115.53 2.15431 115.53 3.91205C115.531 5.41686 116.544 6.24462 117.956 6.44504C119.419 6.23986 120.396 5.37381 120.502 3.87958ZM336.868 146.43C337.935 146.472 338.717 145.913 338.917 144.797C339.154 143.49 338.646 142.475 337.341 142.311C336.108 142.145 335.229 142.756 335.027 144.176C334.982 145.53 335.527 146.38 336.868 146.43ZM311.195 115.499C311.312 114.169 310.744 113.194 309.438 113.08C307.977 112.956 306.99 113.684 306.966 115.366C306.944 116.745 307.682 117.464 308.975 117.565C310.269 117.541 311.065 116.868 311.195 115.499ZM361.656 201.024C361.632 202.706 362.586 203.421 364.061 203.254C365.356 203.103 365.974 202.142 365.887 200.804C365.801 199.439 365.015 198.772 363.733 198.784C362.426 198.923 361.666 199.633 361.656 201.024ZM148.219 3.45996C148.373 2.14189 147.84 1.12782 146.536 0.963252C145.087 0.776148 144.076 1.47846 143.98 3.16218C143.91 4.5419 144.624 5.28688 145.893 5.4395C147.187 5.4399 148.054 4.84152 148.219 3.45996ZM392.496 287.571C392.613 286.241 392.081 285.252 390.764 285.126C389.303 284.977 388.304 285.692 388.268 287.387C388.222 288.766 388.948 289.498 390.469 289.634C391.488 289.551 392.367 288.965 392.496 287.571ZM390.601 260.799C391.668 260.741 392.379 260.107 392.495 258.98C392.624 257.637 392.031 256.738 390.714 256.662C389.408 256.598 388.684 257.346 388.566 258.777C388.629 260.116 389.27 260.863 390.601 260.799ZM282.438 85.0206C281.193 84.8928 280.218 85.4806 280.029 86.8626C279.814 88.3969 280.454 89.4468 282.047 89.5046C283.353 89.5427 284.077 88.7701 284.254 87.4262C284.3 86.047 283.755 85.147 282.438 85.0206ZM255.258 56.952C253.664 56.97 252.962 57.9952 253.083 59.5483C253.193 60.9119 254.087 61.5396 255.358 61.414C256.653 61.2879 257.306 60.4407 257.328 59.0872C257.23 57.7107 256.564 56.9395 255.258 56.952ZM285.58 289.629C285.672 286.719 283.925 284.792 281.205 284.731C278.234 284.661 276.315 286.684 276.328 289.832C276.332 292.741 278.226 294.234 280.92 294.6C283.631 294.118 285.487 292.539 285.58 289.629ZM85.9885 91.1534C85.9197 94.1138 87.6798 95.9768 90.4724 95.8598C93.2531 95.7304 94.9808 93.7118 94.8218 90.7685C94.661 88.1033 92.8978 86.6704 90.3831 86.4659C87.7799 86.908 86.0435 88.4589 85.9885 91.1534ZM254.293 198.513C251.728 198.587 249.978 200.429 249.815 203.088C249.638 206.038 251.386 207.99 254.141 208.063C256.945 208.135 258.48 206.121 258.993 203.063C258.521 200.429 257.133 198.42 254.293 198.513ZM231.922 174.828C231.773 172.175 230.049 170.4 227.484 170.45C224.704 170.528 222.857 172.448 222.872 175.394C222.887 178.34 224.794 179.846 227.5 180.123C230.26 179.463 232.093 177.784 231.922 174.828ZM145.249 123.562C148.005 123.61 149.887 121.727 150.039 118.879C150.205 115.74 148.35 113.752 145.378 113.809C142.622 113.863 141.146 115.889 140.706 118.743C141.045 121.594 142.494 123.514 145.249 123.562ZM204.011 146.837C203.886 144.184 202.173 142.396 199.609 142.42C196.817 142.461 194.97 144.38 194.961 147.327C194.952 150.274 196.847 151.793 199.553 152.095C202.313 151.46 204.134 149.793 204.011 146.837ZM254.045 236.859C257.041 236.801 258.889 234.806 258.863 231.645C258.824 228.75 257.039 226.912 254.295 226.927C251.264 226.948 249.751 229.038 249.358 232.093C249.817 234.993 251.277 236.899 254.045 236.859ZM258.821 261.261C258.712 258.064 256.867 256.291 253.847 256.476C250.826 256.661 249.099 258.654 249.172 261.839C249.245 265.05 251.175 266.555 254.182 266.738C257.097 266.188 258.942 264.471 258.821 261.261ZM177.13 147.696C177.152 144.534 175.308 142.66 172.3 142.73C169.532 142.796 167.757 144.664 167.593 147.576C167.415 150.778 169.272 152.437 172.168 152.912C175.131 152.514 177.119 150.895 177.13 147.696ZM204.097 175.389C203.913 172.497 202.177 170.709 199.396 170.788C196.4 170.871 194.541 172.829 194.555 176.002C194.568 179.202 196.546 180.731 199.779 180.998C202.289 180.229 204.301 178.635 204.097 175.389ZM12.7445 121.509C12.815 118.321 11.0671 116.42 8.04765 116.427C5.02818 116.435 3.19365 118.316 3.0992 121.505C3.00459 124.719 4.8503 126.34 7.7833 126.7C10.7573 126.34 12.6737 124.747 12.7445 121.509ZM122.02 119.646C122.318 116.466 120.547 114.464 117.601 114.293C114.822 114.145 112.964 116.001 112.668 118.852C112.346 122.058 114.215 123.729 117.039 124.307C119.844 124.051 121.76 122.534 122.02 119.646ZM90.507 124.843C93.2525 124.6 94.9914 122.695 94.9882 119.762C94.9987 116.587 93.1789 114.688 90.1708 114.783C87.1387 114.88 85.65 116.995 85.3402 120.137C85.8818 123.174 87.4736 125.116 90.507 124.843ZM232.007 203.582C231.943 200.663 230.219 198.837 227.463 198.814C224.456 198.783 222.561 200.704 222.467 203.867C222.384 207.068 224.314 208.65 227.235 208.998C230.175 208.474 232.068 206.781 232.007 203.582ZM36.2211 115.847C33.2019 115.804 31.3198 117.636 31.1774 120.825C31.035 124.015 32.7588 125.942 35.7657 126.023C38.8204 126.103 40.4159 124.15 40.905 121.068C40.7116 117.91 39.276 115.902 36.2211 115.847ZM67.9296 120.282C67.9402 117.083 66.168 115.233 63.1482 115.291C60.1283 115.349 58.3174 117.281 58.2949 120.468C58.2601 123.693 60.1301 125.263 63.0874 125.573C66.0499 125.149 67.9427 123.507 67.9296 120.282ZM122.137 148.817C122.126 145.314 120.27 143.504 116.985 143.668C113.917 143.829 112.226 145.758 112.215 148.983C112.202 152.511 114.12 154.131 117.366 154.207C120.377 153.783 122.15 152.067 122.137 148.817ZM199.639 199.198C196.393 199.045 194.332 200.767 194.199 204.297C194.055 207.765 195.814 209.704 199.145 209.665C202.225 209.619 203.844 207.741 204.177 204.624C204.104 201.388 202.729 199.341 199.639 199.198ZM177.167 176.324C177.18 172.821 175.335 170.998 172.051 171.137C168.983 171.272 167.28 173.189 167.245 176.414C167.208 179.943 169.114 181.576 172.36 181.677C175.371 181.278 177.156 179.575 177.167 176.324ZM258.738 289.968C258.701 286.745 256.977 284.919 253.909 284.978C250.589 285.054 248.813 287.125 248.945 290.574C249.065 293.834 251.008 295.302 254.063 295.382C257.013 294.946 258.775 293.218 258.738 289.968ZM145.205 153.482C148.261 153.411 150.083 151.592 150.142 148.367C150.215 144.875 148.371 143.001 145.062 143.166C141.982 143.314 140.494 145.353 140.28 148.544C140.569 151.674 142.101 153.554 145.205 153.482ZM226.998 227.301C223.93 227.436 222.167 229.316 222.168 232.553C222.167 236.069 224.084 237.865 227.368 237.625C230.449 237.401 231.89 235.312 232.033 232.072C231.683 228.981 230.079 227.153 226.998 227.301ZM90.2034 144.045C86.9443 144.057 85.0256 145.978 84.9412 149.432C84.8571 152.86 86.6403 154.849 89.9113 154.85C93.1824 154.85 94.9337 152.881 95.2335 149.449C95.0897 146.062 93.4984 144.044 90.2034 144.045ZM232.012 262.119C232.084 258.678 230.313 256.701 227.042 256.701C223.783 256.713 221.864 258.634 221.78 262.088C221.695 265.542 223.516 267.341 226.761 267.569C229.974 267.33 231.939 265.585 232.012 262.119ZM7.67991 156.559C10.9513 156.508 12.8224 154.538 12.8588 151.085C12.8952 147.632 11.0756 145.707 7.80425 145.757C4.52095 145.795 2.81724 147.813 2.5534 151.232C2.75703 154.63 4.39642 156.622 7.67991 156.559ZM150.216 176.856C150.228 173.403 148.433 171.478 145.161 171.528C141.89 171.578 140.019 173.549 139.982 177.002C139.934 180.468 141.803 182.215 145.228 182.402C148.226 182.066 150.203 180.359 150.216 176.856ZM57.8364 149.701C57.6088 153.081 59.2109 155.263 62.5168 155.427C65.7148 155.581 67.824 153.833 68.0644 150.338C68.3041 146.945 66.6528 144.941 63.3726 144.548C60.1848 144.635 58.0649 146.193 57.8364 149.701ZM41.1495 150.856C41.3784 147.298 39.3456 145.023 36.0032 144.949C32.8765 144.87 30.7405 147.023 30.5257 150.289C30.2968 153.847 32.3678 155.805 35.6953 156.298C38.7773 155.922 40.9466 154.135 41.1495 150.856ZM204.31 233.302C204.503 229.757 202.47 227.482 199.116 227.42C195.989 227.366 193.853 229.519 193.662 232.786C193.445 236.331 195.528 238.301 198.927 238.767C201.938 238.367 204.119 236.593 204.31 233.302ZM226.901 285.093C223.546 285.107 221.373 287.4 221.408 290.927C221.443 294.455 223.68 296.587 227.037 296.32C230.13 296.083 231.836 293.787 232.146 290.543C231.75 287.225 230.004 285.071 226.901 285.093ZM177.358 205.191C177.527 201.647 175.482 199.384 172.127 199.348C169 199.32 166.876 201.485 166.697 204.764C166.504 208.308 168.599 210.266 171.915 210.695C175.057 210.306 177.191 208.482 177.358 205.191ZM122.44 177.213C122.379 173.939 120.321 171.791 117.23 171.775C113.887 171.751 111.654 174.032 111.582 177.549C111.509 181.091 113.712 182.958 117.088 183.374C120.292 182.718 122.498 180.791 122.44 177.213ZM90.0046 172.147C86.4694 172.228 84.2358 174.635 84.2932 178.365C84.3286 181.842 86.4936 184.051 89.789 184C93.3599 183.957 95.1868 181.456 95.6317 177.843C95.1052 174.363 93.3241 172.07 90.0046 172.147ZM204.341 262.841C204.533 259.322 202.463 257.212 199.207 256.794C196.262 256.421 193.077 259.618 193.21 262.79C193.365 266.315 195.365 268.173 198.644 268.666C201.918 268.211 204.16 266.322 204.341 262.841ZM150.541 205.504C150.555 201.774 148.331 199.477 144.795 199.634C141.511 199.773 139.35 202.103 139.313 205.581C139.262 209.351 141.586 211.216 144.998 211.592C148.297 210.96 150.516 209.02 150.541 205.504ZM13.1949 179.796C13.2572 176.065 11.0571 173.742 7.52168 173.848C4.21406 173.937 2.05282 176.268 1.96829 179.747C1.86974 183.517 4.18074 185.42 7.59253 185.848C10.9039 185.227 13.1342 183.3 13.1949 179.796ZM68.4541 178.24C68.323 174.765 66.2176 172.592 62.8982 172.643C59.3511 172.712 57.118 175.043 57.1155 178.787C57.1007 182.568 59.4241 184.407 62.8963 184.771C66.3401 184.059 68.5953 182.005 68.4541 178.24ZM41.3463 178.938C41.3112 175.436 39.2299 173.238 35.9232 173.2C32.3649 173.155 30.108 175.462 29.9977 179.195C29.8871 182.978 32.1741 184.881 35.6457 185.32C39.1007 184.723 41.3795 182.719 41.3463 178.938ZM198.454 285.312C195.146 285.502 193.021 287.768 192.961 291.272C192.886 295.017 195.027 297.328 198.573 297.285C202.144 297.241 203.983 294.753 204.428 291.09C203.903 287.432 202.039 285.104 198.454 285.312ZM177.479 233.805C177.649 230.059 175.497 227.71 171.963 227.664C168.644 227.64 166.447 229.933 166.243 233.389C166.025 237.162 168.299 239.129 171.926 239.704C174.973 239.114 177.322 237.336 177.479 233.805ZM122.582 206.156C122.681 202.411 120.564 200.1 117.03 200.079C113.483 200.047 111.262 202.366 111.128 206.099C110.993 209.882 113.244 211.799 116.668 212.315C120.146 211.843 122.484 209.927 122.582 206.156ZM144.783 240.264C148.367 240.132 150.383 237.88 150.566 234.096C150.735 230.501 147.892 227.66 144.486 228.029C140.889 228.427 139.147 230.762 138.845 234.524C139.346 238.13 141.163 240.41 144.783 240.264ZM95.5943 206.853C95.8595 203.231 93.2194 200.424 89.8042 200.477C86.3651 200.53 83.6968 203.402 83.8748 207.028C84.0637 210.818 86.1835 212.648 89.656 212.961C93.1577 212.54 95.3038 210.652 95.5943 206.853ZM171.635 257.135C168.063 257.305 166.046 259.557 165.887 263.341C165.742 266.935 168.61 269.75 172.004 269.369C175.589 268.958 177.331 266.598 177.609 262.812C177.084 259.23 175.254 256.964 171.635 257.135ZM62.3815 213.511C65.8919 213.557 68.6194 210.774 68.5378 207.07C68.445 203.253 66.4709 201.141 62.8535 200.983C59.3439 200.836 56.6877 203.694 56.6855 207.387C56.6727 210.89 59.0748 213.474 62.3815 213.511ZM13.2906 208.614C13.484 204.993 10.952 202.146 7.53697 202.174C4.09799 202.202 1.4059 205.049 1.5481 208.663C1.70091 212.466 3.80867 214.31 6.63425 214.609C10.5286 214.572 13.0989 212.006 13.2906 208.614ZM177.451 291.95C177.657 288.241 175.053 285.421 171.529 285.615C167.909 285.811 165.845 287.937 165.603 291.761C165.373 295.471 168.001 298.215 172.172 298.109C175.074 297.75 177.22 295.812 177.451 291.95ZM150.563 263.345C150.314 259.569 148.268 257.433 144.673 257.527C140.826 257.614 138.725 259.956 138.624 264.005C138.526 267.699 141.24 270.302 144.752 270.121C148.192 269.941 150.8 267.008 150.563 263.345ZM122.645 234.608C122.576 230.815 120.65 228.652 117.057 228.418C113.584 228.181 110.808 230.966 110.675 234.598C110.529 238.293 113.037 241.065 116.512 241.048C120.023 241.069 122.714 238.299 122.645 234.608ZM41.4045 207.972C41.6584 204.261 39.0546 201.416 35.5548 201.559C31.9232 201.717 29.8595 203.818 29.5688 207.643C29.303 211.341 31.9193 214.123 36.0655 214.068C38.9793 213.747 41.1496 211.833 41.4045 207.972ZM95.573 235.268C95.6256 231.22 93.5211 228.921 89.6747 228.957C85.8522 228.993 83.6193 231.299 83.5427 235.348C83.4541 239.408 85.6681 241.465 89.4404 241.759C93.2172 241.396 95.5203 239.341 95.573 235.268ZM7.36019 230.554C3.56169 230.589 1.37683 232.87 1.12062 236.909C0.877376 240.808 3.66058 243.714 7.3648 243.453C11.2009 243.176 13.1229 240.8 13.4146 236.824C13.1311 232.858 11.1826 230.519 7.36019 230.554ZM62.2258 242.296C66.012 242.299 68.2444 240.068 68.5486 236.028C68.8398 232.128 66.0928 229.184 62.4011 229.381C58.5653 229.607 56.5958 231.933 56.2561 235.911C56.5154 239.902 58.4037 242.281 62.2258 242.296ZM143.853 298.844C147.602 299.037 150.001 297.031 150.497 292.962C150.968 289.046 148.402 285.934 144.735 285.954C140.937 285.989 138.777 288.117 138.257 292.135C138.326 296.054 140.009 298.627 143.853 298.844ZM35.2367 243.144C38.9529 242.895 41.2098 240.588 41.6925 236.709C42.1371 233.147 39.0817 229.754 35.6557 229.643C32.2537 229.531 29.0318 232.742 28.9104 236.361C28.801 239.967 31.8203 243.374 35.2367 243.144ZM122.881 263.903C122.489 260.054 120.276 257.795 116.575 257.651C113.161 257.527 110.069 261.001 110.103 264.604C110.137 268.233 113.279 271.334 116.683 271.142C120.099 270.937 123.227 267.45 122.881 263.903ZM89.4812 258.008C86.1141 258.035 82.9398 261.295 82.8066 264.877C82.6724 268.61 85.9789 272.061 89.5029 271.867C92.8951 271.688 95.9504 268.303 95.9396 264.75C95.941 261.159 92.8722 257.981 89.4812 258.008ZM13.7066 266.687C13.8408 262.954 10.606 259.526 7.05855 259.645C3.69093 259.748 0.576483 263.019 0.45538 266.588C0.321139 270.321 3.55595 273.749 7.1034 273.63C10.4591 273.515 13.5736 270.243 13.7066 266.687ZM116.107 299.997C119.642 300.043 122.973 296.539 122.952 292.797C122.941 289.244 119.92 286.039 116.542 286.003C113.007 285.957 109.676 289.461 109.697 293.204C109.72 296.744 112.741 299.948 116.107 299.997ZM61.9163 272.499C65.438 272.634 68.829 269.217 68.9037 265.448C68.9766 261.905 66.0163 258.637 62.6384 258.499C59.1167 258.365 55.7135 261.794 55.651 265.551C55.5661 269.081 58.5384 272.362 61.9163 272.499ZM35.0404 259.043C31.1794 259.446 28.8735 261.906 28.4972 265.972C28.1595 269.671 31.466 273.123 35.0128 273.105C38.5356 273.088 41.8192 269.611 41.8337 265.88C41.8481 262.149 38.5657 258.672 35.0404 259.043ZM95.9529 293.354C95.9306 289.738 93.0056 286.557 89.5675 286.459C85.9737 286.351 82.6311 289.691 82.5082 293.512C82.3853 297.333 85.5127 300.7 89.1315 300.656C92.7264 300.612 95.962 297.16 95.9529 293.354ZM41.7992 294.46C41.7788 290.565 38.7816 287.436 35.0908 287.482C31.2084 287.531 28.0443 291.032 28.195 295.139C28.3354 299.006 31.4533 302.031 35.157 301.846C38.8246 301.674 41.7957 298.355 41.7992 294.46ZM13.6825 295.507C13.9131 291.696 10.9421 288.238 7.32471 288.08C3.71922 287.934 0.365441 291.16 0.122707 294.984C-0.107917 298.794 2.86306 302.253 6.48049 302.411C10.086 302.556 13.4516 299.343 13.6825 295.507ZM62.3654 286.932C58.6873 286.889 55.502 290.01 55.2947 293.896C55.0861 297.985 58.2013 301.39 62.072 301.303C65.7631 301.206 68.8292 297.986 68.9047 294.09C68.9804 290.168 66.0435 286.975 62.3654 286.932Z" fill="url(#paint0_linear_255_85)"/>
<defs>
<linearGradient id="paint0_linear_255_85" x1="269.958" y1="71.1126" x2="15.7673" y2="314.603" gradientUnits="userSpaceOnUse">
<stop stop-color="#D62829" stop-opacity="0.4"/>
<stop offset="1" stop-color="#D62829" stop-opacity="0"/>
</linearGradient>
</defs>
</svg>
