<svg width="48" height="48" viewBox="0 0 48 48" fill="none" xmlns="http://www.w3.org/2000/svg">
<path d="M25.4061 12.75C25.4061 13.5266 26.0358 14.1562 26.8124 14.1562C27.589 14.1562 28.2186 13.5266 28.2186 12.75C28.2186 11.9734 27.589 11.3438 26.8124 11.3438C26.0358 11.3438 25.4061 11.9734 25.4061 12.75Z" fill="#002F49"/>
<path d="M31.0311 12.75C31.0311 13.5266 31.6608 14.1562 32.4374 14.1562C33.214 14.1562 33.8436 13.5266 33.8436 12.75C33.8436 11.9734 33.214 11.3438 32.4374 11.3438C31.6608 11.3438 31.0311 11.9734 31.0311 12.75Z" fill="#002F49"/>
<path d="M36.6561 12.75C36.6561 13.5266 37.2858 14.1562 38.0624 14.1562C38.839 14.1562 39.4686 13.5266 39.4686 12.75C39.4686 11.9734 38.839 11.3438 38.0624 11.3438C37.2858 11.3438 36.6561 11.9734 36.6561 12.75Z" fill="#002F49"/>
<path d="M21.7699 35.25L25.9886 32.4375L34.4062 35.25V40.875C34.4062 42.4283 33.167 43.6875 31.6136 43.6875C16.0807 43.6875 1.40625 29.1068 1.40625 13.5739C1.40625 12.0206 2.6655 10.7813 4.21874 10.7813H9.84372L12.6562 19.1989L9.84372 23.4176C11.6397 27.9075 17.28 33.4541 21.7699 35.25Z" stroke="#002F49" stroke-width="1.5" stroke-miterlimit="10" stroke-linecap="round" stroke-linejoin="round"/>
<path d="M18.375 12.75C18.375 17.41 22.1526 21.1875 26.8125 21.1875V26.8125L32.4375 21.1875H38.0624C42.7224 21.1875 46.5937 17.41 46.5937 12.75C46.5937 8.09012 42.7224 4.31256 38.0624 4.31256H26.8125C22.1526 4.31256 18.375 8.09012 18.375 12.75Z" stroke="#002F49" stroke-width="1.5" stroke-miterlimit="10" stroke-linecap="round" stroke-linejoin="round"/>
</svg>
