<svg width="44" height="45" viewBox="0 0 44 45" fill="none" xmlns="http://www.w3.org/2000/svg">
<path d="M35.0343 41.7927H8.96572C8.62358 41.7921 8.29561 41.656 8.05368 41.4142C7.81175 41.1725 7.67559 40.8447 7.67505 40.5027V34.4518C7.67579 33.7213 7.86977 33.0039 8.23732 32.3725C8.60488 31.7411 9.13294 31.218 9.76798 30.8563C11.2423 30.0243 13.7048 28.8848 15.5029 28.0525C16.3328 27.6684 17.0494 27.3366 17.4533 27.1349C17.5475 27.0876 17.6505 27.0606 17.7557 27.0556C17.861 27.0505 17.9661 27.0675 18.0643 27.1056C18.1674 27.146 18.2611 27.2072 18.3395 27.2853C18.4178 27.3635 18.4793 27.457 18.5199 27.56C18.952 28.6494 20.3702 29.7757 21.9959 29.7757C23.6878 29.7757 25.0571 28.6341 25.4865 27.56C25.5262 27.4572 25.5869 27.3638 25.6647 27.2857C25.7424 27.2076 25.8356 27.1466 25.9383 27.1064C26.0364 27.0679 26.1416 27.0506 26.2469 27.0557C26.3522 27.0607 26.4553 27.088 26.5493 27.1358L27.1512 27.4327C28.9637 28.3254 33.7776 30.6966 34.946 31.3559C35.3642 31.5939 35.7119 31.9383 35.9541 32.354C36.1962 32.7697 36.324 33.2419 36.3246 33.7229V40.503C36.324 40.8449 36.1879 41.1725 35.946 41.4142C35.7041 41.656 35.3763 41.792 35.0343 41.7927ZM17.7939 27.6409C17.7664 27.641 17.7394 27.6475 17.715 27.6599C17.3043 27.8652 16.5839 28.1985 15.7496 28.5846C13.9603 29.4128 11.5107 30.5468 10.059 31.3668C9.51398 31.677 9.06077 32.1258 8.74529 32.6676C8.42982 33.2094 8.26329 33.8249 8.2626 34.4518V40.5024C8.2626 40.689 8.33677 40.868 8.46879 41C8.60082 41.1319 8.77988 41.206 8.9666 41.206H35.0351C35.2218 41.206 35.4009 41.1319 35.5329 41C35.665 40.868 35.7391 40.689 35.7391 40.5024V33.7224C35.7387 33.345 35.6384 32.9745 35.4484 32.6484C35.2585 32.3223 34.9857 32.0522 34.6576 31.8654C33.5036 31.214 28.7012 28.8484 26.8931 27.9578L26.2882 27.6597C26.2671 27.6486 26.2439 27.6423 26.2201 27.6411C26.1963 27.6399 26.1725 27.6438 26.1504 27.6526C26.1235 27.6636 26.0991 27.68 26.0789 27.7008C26.0587 27.7217 26.0431 27.7465 26.033 27.7737C25.5311 29.0293 23.9468 30.3612 21.9968 30.3612C20.0511 30.3612 18.4729 29.029 17.9754 27.776C17.965 27.7482 17.9489 27.7229 17.9282 27.7016C17.9075 27.6803 17.8827 27.6636 17.8552 27.6523C17.8356 27.6448 17.8148 27.6409 17.7939 27.6409Z" fill="#D62829"/>
<path d="M23.4467 41.8176H20.817C20.7392 41.8176 20.6646 41.7867 20.6096 41.7317C20.5546 41.6767 20.5237 41.6022 20.5237 41.5244V29.8857C20.5237 29.8079 20.5546 29.7333 20.6096 29.6784C20.6646 29.6234 20.7392 29.5925 20.817 29.5925C20.8948 29.5925 20.9694 29.6234 21.0244 29.6784C21.0794 29.7333 21.1103 29.8079 21.1103 29.8857V41.2312H23.1534V29.7939C23.1534 29.7161 23.1843 29.6416 23.2393 29.5866C23.2943 29.5316 23.369 29.5007 23.4467 29.5007C23.5245 29.5007 23.5992 29.5316 23.6542 29.5866C23.7092 29.6416 23.7401 29.7161 23.7401 29.7939V41.4995C23.7409 41.5799 23.711 41.6575 23.6565 41.7166C23.602 41.7757 23.527 41.8118 23.4467 41.8176Z" fill="#D62829"/>
<path d="M22 27.316C20.5026 27.316 19.2087 24.9807 18.5387 21.0689C18.346 19.9214 18.2179 18.7639 18.155 17.6019C18.1169 16.9309 18.1154 14.1385 18.153 13.4522C18.2139 12.3016 18.3393 11.1554 18.5287 10.0189C19.1946 6.06581 20.4923 3.70581 22 3.70581C22.5398 3.70581 23.3456 4.01891 24.1203 5.51026C24.138 5.54442 24.1489 5.58175 24.1522 5.62011C24.1555 5.65847 24.1512 5.69711 24.1396 5.73382C24.128 5.77053 24.1093 5.80459 24.0845 5.83407C24.0597 5.86354 24.0293 5.88784 23.9952 5.90559C23.961 5.92334 23.9236 5.93418 23.8852 5.93751C23.8469 5.94083 23.8082 5.93656 23.7715 5.92495C23.7347 5.91334 23.7006 5.89461 23.6712 5.86984C23.6417 5.84506 23.6174 5.81472 23.5996 5.78056C23.2473 5.10158 22.6835 4.29215 22 4.29215C20.856 4.29215 19.6939 6.6325 19.1072 10.1162C18.9213 11.2311 18.7981 12.3555 18.7382 13.4841C18.7027 14.1402 18.7039 16.9268 18.7402 17.5682C18.8026 18.7079 18.9286 19.8433 19.1178 20.969C19.7164 24.4679 20.8484 26.7288 22 26.7288C23.1426 26.7288 24.3045 24.3867 24.8911 20.901C25.0755 19.7864 25.1987 18.6625 25.2602 17.5345C25.2959 16.8799 25.2945 14.0933 25.2581 13.4507C25.195 12.311 25.069 11.1757 24.8806 10.05C24.7559 9.32729 24.6075 8.64509 24.4379 8.02241C24.4186 7.9477 24.4294 7.86838 24.4682 7.80164C24.507 7.7349 24.5705 7.68613 24.645 7.66591C24.7195 7.64569 24.799 7.65565 24.8663 7.69363C24.9335 7.73161 24.983 7.79455 25.0041 7.86879C25.1783 8.50906 25.3311 9.20973 25.4587 9.95027C25.6506 11.0983 25.7788 12.256 25.8427 13.4182C25.8811 14.0904 25.8826 16.8828 25.8448 17.5682C25.7822 18.7176 25.6568 19.8626 25.469 20.9983C24.8043 24.9543 23.5072 27.316 22 27.316Z" fill="#D62829"/>
<path d="M14.1066 22.3765C12.9559 22.3765 12.1519 22.0672 11.7893 21.4469C11.4056 20.7861 11.5529 19.8931 12.2273 18.7967C12.2679 18.7304 12.3333 18.683 12.409 18.6649C12.4846 18.6467 12.5644 18.6594 12.6307 18.7001C12.6971 18.7407 12.7445 18.8061 12.7626 18.8817C12.7807 18.9573 12.7681 19.037 12.7274 19.1033C12.3461 19.7222 11.9647 20.5797 12.2965 21.1517C12.8773 22.1461 15.3999 21.9855 18.7263 20.7448C19.8081 20.3372 20.8659 19.8685 21.8943 19.3408C22.4734 19.0476 24.8591 17.6604 25.3918 17.3077C26.3614 16.6723 27.2944 15.9825 28.1861 15.2417C30.8994 12.9714 32.2804 10.863 31.704 9.87002C31.1276 8.87706 28.5999 9.03449 25.2724 10.2769C24.1913 10.6846 23.1342 11.153 22.1061 11.68C21.5435 11.9656 19.1564 13.3511 18.6067 13.7134C17.6376 14.3481 16.7056 15.0377 15.8153 15.7788C15.2564 16.2419 14.7224 16.7343 14.2155 17.2537C14.1887 17.2816 14.1568 17.3039 14.1214 17.3193C14.086 17.3348 14.0479 17.3432 14.0093 17.3439C13.9707 17.3446 13.9323 17.3377 13.8964 17.3236C13.8605 17.3095 13.8277 17.2884 13.7999 17.2616C13.7722 17.2347 13.75 17.2027 13.7346 17.1673C13.7193 17.1319 13.7111 17.0938 13.7105 17.0552C13.7099 17.0166 13.717 16.9783 13.7312 16.9424C13.7455 16.9066 13.7667 16.8739 13.7937 16.8462C14.315 16.3119 14.8642 15.8055 15.439 15.3291C16.3465 14.5737 17.2965 13.8707 18.2843 13.2236C18.8595 12.846 21.2519 11.4561 21.8404 11.1576C22.8881 10.6208 23.9654 10.1436 25.067 9.72842C28.7871 8.3391 31.4573 8.28164 32.2112 9.57597C32.9603 10.8659 31.5952 13.1526 28.5621 15.6917C27.6535 16.4468 26.7029 17.1499 25.7147 17.7976C25.1574 18.1661 22.7655 19.5566 22.1601 19.8638C21.112 20.4015 20.0341 20.879 18.9317 21.2942C16.9998 22.0148 15.3507 22.3765 14.1066 22.3765Z" fill="#D62829"/>
<path d="M29.9144 22.269C29.7678 22.269 29.6184 22.264 29.4615 22.2543C29.3839 22.2494 29.3115 22.2139 29.26 22.1557C29.2086 22.0974 29.1824 22.0211 29.1872 21.9436C29.1887 21.9048 29.198 21.8668 29.2146 21.8317C29.2312 21.7967 29.2548 21.7654 29.2838 21.7397C29.3129 21.7141 29.3469 21.6946 29.3838 21.6824C29.4206 21.6703 29.4595 21.6658 29.4982 21.6691C30.6903 21.743 31.5008 21.5108 31.7803 21.0154C32.3421 20.0186 30.9323 17.9283 28.1887 15.6938C27.2949 14.9716 26.3615 14.2999 25.3927 13.6818C24.8374 13.3259 22.4162 11.9615 21.8434 11.6818C20.8271 11.178 19.7836 10.7312 18.7176 10.3435C15.3909 9.14387 12.7796 9.00725 12.22 10.0026C11.6565 11.0037 13.0662 13.0931 15.8107 15.3262C16.7039 16.0489 17.6373 16.7207 18.6064 17.3382C19.1535 17.6879 21.5767 19.0529 22.1558 19.3388C23.1708 19.8424 24.2135 20.2884 25.2789 20.6747C25.933 20.9093 26.5558 21.1054 27.1298 21.2549C27.1678 21.2638 27.2037 21.2803 27.2353 21.3032C27.2669 21.3262 27.2935 21.3553 27.3137 21.3887C27.3339 21.4221 27.3473 21.4592 27.3529 21.4978C27.3586 21.5364 27.3565 21.5758 27.3467 21.6136C27.3369 21.6514 27.3197 21.6869 27.296 21.7179C27.2724 21.749 27.2427 21.775 27.2089 21.7945C27.175 21.8139 27.1376 21.8264 27.0988 21.8312C27.0601 21.836 27.0207 21.8331 26.9831 21.8225C26.3921 21.6683 25.7511 21.4677 25.0815 21.2265C23.9954 20.8327 22.9325 20.378 21.8976 19.8647C21.2907 19.566 18.8628 18.198 18.2896 17.8322C17.3021 17.2024 16.3511 16.5172 15.4411 15.78C12.3713 13.284 10.9759 11.0163 11.7096 9.71584C12.4479 8.40304 15.143 8.43177 18.9174 9.79265C20.0038 10.1873 21.0674 10.6425 22.103 11.1559C22.7011 11.449 25.1284 12.8167 25.711 13.189C26.6984 13.8194 27.6497 14.5045 28.5604 15.2412C31.6284 17.7398 33.0238 20.0069 32.2928 21.305C31.9328 21.9386 31.1156 22.269 29.9144 22.269Z" fill="#D62829"/>
<path d="M28.2568 23.3341C27.9551 23.3341 27.6602 23.2447 27.4093 23.0772C27.1585 22.9097 26.963 22.6716 26.8476 22.393C26.7321 22.1145 26.7019 21.8079 26.7608 21.5122C26.8196 21.2165 26.9649 20.9449 27.1782 20.7317C27.3915 20.5185 27.6633 20.3733 27.9592 20.3144C28.2551 20.2556 28.5618 20.2858 28.8405 20.4012C29.1192 20.5166 29.3574 20.712 29.525 20.9627C29.6927 21.2134 29.7821 21.5081 29.7821 21.8096C29.7821 22.2139 29.6214 22.6017 29.3354 22.8876C29.0493 23.1735 28.6613 23.3341 28.2568 23.3341ZM28.2568 20.8715C28.0711 20.8715 27.8896 20.9265 27.7353 21.0296C27.5809 21.1327 27.4606 21.2792 27.3896 21.4506C27.3185 21.622 27.2999 21.8107 27.3361 21.9926C27.3724 22.1746 27.4618 22.3418 27.593 22.473C27.7243 22.6042 27.8916 22.6935 28.0737 22.7297C28.2557 22.7659 28.4445 22.7474 28.616 22.6764C28.7875 22.6053 28.9341 22.4851 29.0373 22.3308C29.1404 22.1766 29.1954 21.9952 29.1954 21.8096C29.1956 21.6864 29.1714 21.5643 29.1242 21.4503C29.0771 21.3364 29.008 21.2329 28.9208 21.1457C28.8337 21.0585 28.7301 20.9893 28.6162 20.9421C28.5023 20.8949 28.3801 20.8706 28.2568 20.8706V20.8715Z" fill="#D62829"/>
<path d="M13.1088 19.4195C12.8072 19.4189 12.5126 19.329 12.2622 19.1611C12.0118 18.9932 11.8168 18.7548 11.7019 18.4762C11.5869 18.1976 11.5572 17.8912 11.6164 17.5957C11.6756 17.3002 11.8211 17.0289 12.0346 16.816C12.248 16.6031 12.5198 16.4582 12.8156 16.3997C13.1114 16.3411 13.4179 16.3715 13.6965 16.487C13.975 16.6024 14.213 16.7978 14.3805 17.0485C14.548 17.2991 14.6373 17.5937 14.6373 17.8951C14.6373 18.0955 14.5978 18.294 14.5209 18.4792C14.4441 18.6644 14.3314 18.8326 14.1894 18.9742C14.0475 19.1158 13.8789 19.228 13.6935 19.3044C13.5081 19.3808 13.3094 19.42 13.1088 19.4195ZM13.1088 16.9569C12.9233 16.9576 12.7421 17.0131 12.5882 17.1166C12.4342 17.2201 12.3144 17.3668 12.2439 17.5383C12.1733 17.7098 12.1552 17.8983 12.1918 18.0801C12.2284 18.2618 12.318 18.4287 12.4494 18.5596C12.5808 18.6904 12.7481 18.7795 12.9301 18.8154C13.1121 18.8513 13.3006 18.8326 13.472 18.7615C13.6433 18.6904 13.7897 18.5701 13.8927 18.4159C13.9957 18.2617 14.0507 18.0805 14.0507 17.8951C14.0507 17.7715 14.0263 17.6492 13.9789 17.5351C13.9316 17.4209 13.8622 17.3172 13.7747 17.2299C13.6872 17.1427 13.5834 17.0735 13.4691 17.0263C13.3548 16.9792 13.2324 16.955 13.1088 16.9552V16.9569Z" fill="#D62829"/>
<path d="M24.376 8.28942C24.0744 8.28942 23.7795 8.20001 23.5286 8.0325C23.2778 7.86499 23.0823 7.6269 22.9668 7.34834C22.8514 7.06978 22.8212 6.76326 22.88 6.46754C22.9389 6.17182 23.0841 5.90019 23.2975 5.68699C23.5108 5.47379 23.7826 5.32859 24.0785 5.26977C24.3744 5.21095 24.681 5.24114 24.9598 5.35652C25.2385 5.47191 25.4767 5.6673 25.6443 5.918C25.8119 6.1687 25.9014 6.46344 25.9014 6.76495C25.9014 6.96515 25.8619 7.16338 25.7853 7.34834C25.7086 7.5333 25.5963 7.70135 25.4546 7.84291C25.313 7.98447 25.1448 8.09676 24.9598 8.17338C24.7747 8.24999 24.5764 8.28942 24.376 8.28942ZM24.376 5.82681C24.1905 5.82681 24.009 5.8818 23.8547 5.98482C23.7004 6.08784 23.5801 6.23427 23.509 6.4056C23.4379 6.57694 23.4192 6.76549 23.4553 6.94743C23.4914 7.12937 23.5807 7.29653 23.7118 7.42779C23.8429 7.55905 24.01 7.64852 24.192 7.68488C24.374 7.72124 24.5627 7.70287 24.7342 7.63209C24.9058 7.56131 25.0525 7.4413 25.1558 7.28722C25.2591 7.13313 25.3144 6.9519 25.3147 6.76642C25.3149 6.51732 25.2162 6.27832 25.0402 6.10197C24.8642 5.92561 24.6253 5.82632 24.376 5.82593V5.82681Z" fill="#D62829"/>
<path d="M18.304 27.9622C18.2805 27.9622 18.2573 27.9622 18.2339 27.9608C18.1953 27.9588 18.1576 27.9493 18.1227 27.9328C18.0879 27.9163 18.0566 27.8931 18.0307 27.8645C18.0049 27.8359 17.9849 27.8025 17.9719 27.7662C17.959 27.7299 17.9533 27.6914 17.9552 27.6529C17.9571 27.6144 17.9666 27.5767 17.9831 27.5419C17.9997 27.507 18.0229 27.4758 18.0515 27.4499C18.0801 27.4241 18.1135 27.4041 18.1498 27.3911C18.1862 27.3782 18.2247 27.3725 18.2632 27.3744C19.0693 27.4102 20.0951 26.3973 20.4292 26.003C20.4794 25.9436 20.5512 25.9066 20.6288 25.9002C20.6672 25.897 20.7058 25.9014 20.7425 25.9131C20.7792 25.9248 20.8132 25.9437 20.8426 25.9685C20.872 25.9934 20.8963 26.0238 20.9139 26.0581C20.9316 26.0923 20.9423 26.1296 20.9455 26.168C20.9487 26.2064 20.9443 26.245 20.9326 26.2817C20.9208 26.3184 20.902 26.3524 20.8771 26.3818C20.8205 26.448 19.5237 27.9622 18.304 27.9622Z" fill="#D62829"/>
<path d="M25.7591 27.961C25.7287 27.961 25.6984 27.9563 25.6694 27.9469C25.5954 27.9231 23.8507 27.3535 23.1124 26.3685C23.0657 26.3063 23.0457 26.2281 23.0567 26.1511C23.0677 26.0742 23.1088 26.0047 23.171 25.958C23.2333 25.9114 23.3115 25.8914 23.3885 25.9024C23.4655 25.9134 23.535 25.9545 23.5817 26.0167C24.2083 26.8537 25.8322 27.3831 25.8486 27.3884C25.9152 27.4098 25.9719 27.4543 26.0086 27.5138C26.0453 27.5733 26.0594 27.644 26.0486 27.7131C26.0377 27.7821 26.0025 27.845 25.9493 27.8904C25.8961 27.9358 25.8285 27.9607 25.7585 27.9607L25.7591 27.961Z" fill="#D62829"/>
<path d="M35.0343 41.7927H8.96572C8.62358 41.7921 8.29561 41.656 8.05368 41.4142C7.81175 41.1725 7.67559 40.8447 7.67505 40.5027V34.4518C7.67579 33.7213 7.86977 33.0039 8.23732 32.3725C8.60488 31.7411 9.13294 31.218 9.76798 30.8563C11.2423 30.0243 13.7048 28.8848 15.5029 28.0525C16.3328 27.6684 17.0494 27.3366 17.4533 27.1349C17.5475 27.0876 17.6505 27.0606 17.7557 27.0556C17.861 27.0505 17.9661 27.0675 18.0643 27.1056C18.1674 27.146 18.2611 27.2072 18.3395 27.2853C18.4178 27.3635 18.4793 27.457 18.5199 27.56C18.952 28.6494 20.3702 29.7757 21.9959 29.7757C23.6878 29.7757 25.0571 28.6341 25.4865 27.56C25.5262 27.4572 25.5869 27.3638 25.6647 27.2857C25.7424 27.2076 25.8356 27.1466 25.9383 27.1064C26.0364 27.0679 26.1416 27.0506 26.2469 27.0557C26.3522 27.0607 26.4553 27.088 26.5493 27.1358L27.1512 27.4327C28.9637 28.3254 33.7776 30.6966 34.946 31.3559C35.3642 31.5939 35.7119 31.9383 35.9541 32.354C36.1962 32.7697 36.324 33.2419 36.3246 33.7229V40.503C36.324 40.8449 36.1879 41.1725 35.946 41.4142C35.7041 41.656 35.3763 41.792 35.0343 41.7927ZM17.7939 27.6409C17.7664 27.641 17.7394 27.6475 17.715 27.6599C17.3043 27.8652 16.5839 28.1985 15.7496 28.5846C13.9603 29.4128 11.5107 30.5468 10.059 31.3668C9.51398 31.677 9.06077 32.1258 8.74529 32.6676C8.42982 33.2094 8.26329 33.8249 8.2626 34.4518V40.5024C8.2626 40.689 8.33677 40.868 8.46879 41C8.60082 41.1319 8.77988 41.206 8.9666 41.206H35.0351C35.2218 41.206 35.4009 41.1319 35.5329 41C35.665 40.868 35.7391 40.689 35.7391 40.5024V33.7224C35.7387 33.345 35.6384 32.9745 35.4484 32.6484C35.2585 32.3223 34.9857 32.0522 34.6576 31.8654C33.5036 31.214 28.7012 28.8484 26.8931 27.9578L26.2882 27.6597C26.2671 27.6486 26.2439 27.6423 26.2201 27.6411C26.1963 27.6399 26.1725 27.6438 26.1504 27.6526C26.1235 27.6636 26.0991 27.68 26.0789 27.7008C26.0587 27.7217 26.0431 27.7465 26.033 27.7737C25.5311 29.0293 23.9468 30.3612 21.9968 30.3612C20.0511 30.3612 18.4729 29.029 17.9754 27.776C17.965 27.7482 17.9489 27.7229 17.9282 27.7016C17.9075 27.6803 17.8827 27.6636 17.8552 27.6523C17.8356 27.6448 17.8148 27.6409 17.7939 27.6409Z" fill="#D62829"/>
<path d="M23.4467 41.8176H20.817C20.7392 41.8176 20.6646 41.7867 20.6096 41.7317C20.5546 41.6767 20.5237 41.6022 20.5237 41.5244V29.8857C20.5237 29.8079 20.5546 29.7333 20.6096 29.6784C20.6646 29.6234 20.7392 29.5925 20.817 29.5925C20.8948 29.5925 20.9694 29.6234 21.0244 29.6784C21.0794 29.7333 21.1103 29.8079 21.1103 29.8857V41.2312H23.1534V29.7939C23.1534 29.7161 23.1843 29.6416 23.2393 29.5866C23.2943 29.5316 23.369 29.5007 23.4467 29.5007C23.5245 29.5007 23.5992 29.5316 23.6542 29.5866C23.7092 29.6416 23.7401 29.7161 23.7401 29.7939V41.4995C23.7409 41.5799 23.711 41.6575 23.6565 41.7166C23.602 41.7757 23.527 41.8118 23.4467 41.8176Z" fill="#D62829"/>
<path d="M22 27.316C20.5026 27.316 19.2087 24.9807 18.5387 21.0689C18.346 19.9214 18.2179 18.7639 18.155 17.6019C18.1169 16.9309 18.1154 14.1385 18.153 13.4522C18.2139 12.3016 18.3393 11.1554 18.5287 10.0189C19.1946 6.06581 20.4923 3.70581 22 3.70581C22.5398 3.70581 23.3456 4.01891 24.1203 5.51026C24.138 5.54442 24.1489 5.58175 24.1522 5.62011C24.1555 5.65847 24.1512 5.69711 24.1396 5.73382C24.128 5.77053 24.1093 5.80459 24.0845 5.83407C24.0597 5.86354 24.0293 5.88784 23.9952 5.90559C23.961 5.92334 23.9236 5.93418 23.8852 5.93751C23.8469 5.94083 23.8082 5.93656 23.7715 5.92495C23.7347 5.91334 23.7006 5.89461 23.6712 5.86984C23.6417 5.84506 23.6174 5.81472 23.5996 5.78056C23.2473 5.10158 22.6835 4.29215 22 4.29215C20.856 4.29215 19.6939 6.6325 19.1072 10.1162C18.9213 11.2311 18.7981 12.3555 18.7382 13.4841C18.7027 14.1402 18.7039 16.9268 18.7402 17.5682C18.8026 18.7079 18.9286 19.8433 19.1178 20.969C19.7164 24.4679 20.8484 26.7288 22 26.7288C23.1426 26.7288 24.3045 24.3867 24.8911 20.901C25.0755 19.7864 25.1987 18.6625 25.2602 17.5345C25.2959 16.8799 25.2945 14.0933 25.2581 13.4507C25.195 12.311 25.069 11.1757 24.8806 10.05C24.7559 9.32729 24.6075 8.64509 24.4379 8.02241C24.4186 7.9477 24.4294 7.86838 24.4682 7.80164C24.507 7.7349 24.5705 7.68613 24.645 7.66591C24.7195 7.64569 24.799 7.65565 24.8663 7.69363C24.9335 7.73161 24.983 7.79455 25.0041 7.86879C25.1783 8.50906 25.3311 9.20973 25.4587 9.95027C25.6506 11.0983 25.7788 12.256 25.8427 13.4182C25.8811 14.0904 25.8826 16.8828 25.8448 17.5682C25.7822 18.7176 25.6568 19.8626 25.469 20.9983C24.8043 24.9543 23.5072 27.316 22 27.316Z" fill="#D62829"/>
<path d="M14.1066 22.3765C12.9559 22.3765 12.1519 22.0672 11.7893 21.4469C11.4056 20.7861 11.5529 19.8931 12.2273 18.7967C12.2679 18.7304 12.3333 18.683 12.409 18.6649C12.4846 18.6467 12.5644 18.6594 12.6307 18.7001C12.6971 18.7407 12.7445 18.8061 12.7626 18.8817C12.7807 18.9573 12.7681 19.037 12.7274 19.1033C12.3461 19.7222 11.9647 20.5797 12.2965 21.1517C12.8773 22.1461 15.3999 21.9855 18.7263 20.7448C19.8081 20.3372 20.8659 19.8685 21.8943 19.3408C22.4734 19.0476 24.8591 17.6604 25.3918 17.3077C26.3614 16.6723 27.2944 15.9825 28.1861 15.2417C30.8994 12.9714 32.2804 10.863 31.704 9.87002C31.1276 8.87706 28.5999 9.03449 25.2724 10.2769C24.1913 10.6846 23.1342 11.153 22.1061 11.68C21.5435 11.9656 19.1564 13.3511 18.6067 13.7134C17.6376 14.3481 16.7056 15.0377 15.8153 15.7788C15.2564 16.2419 14.7224 16.7343 14.2155 17.2537C14.1887 17.2816 14.1568 17.3039 14.1214 17.3193C14.086 17.3348 14.0479 17.3432 14.0093 17.3439C13.9707 17.3446 13.9323 17.3377 13.8964 17.3236C13.8605 17.3095 13.8277 17.2884 13.7999 17.2616C13.7722 17.2347 13.75 17.2027 13.7346 17.1673C13.7193 17.1319 13.7111 17.0938 13.7105 17.0552C13.7099 17.0166 13.717 16.9783 13.7312 16.9424C13.7455 16.9066 13.7667 16.8739 13.7937 16.8462C14.315 16.3119 14.8642 15.8055 15.439 15.3291C16.3465 14.5737 17.2965 13.8707 18.2843 13.2236C18.8595 12.846 21.2519 11.4561 21.8404 11.1576C22.8881 10.6208 23.9654 10.1436 25.067 9.72842C28.7871 8.3391 31.4573 8.28164 32.2112 9.57597C32.9603 10.8659 31.5952 13.1526 28.5621 15.6917C27.6535 16.4468 26.7029 17.1499 25.7147 17.7976C25.1574 18.1661 22.7655 19.5566 22.1601 19.8638C21.112 20.4015 20.0341 20.879 18.9317 21.2942C16.9998 22.0148 15.3507 22.3765 14.1066 22.3765Z" fill="#D62829"/>
<path d="M29.9144 22.269C29.7678 22.269 29.6184 22.264 29.4615 22.2543C29.3839 22.2494 29.3115 22.2139 29.26 22.1557C29.2086 22.0974 29.1824 22.0211 29.1872 21.9436C29.1887 21.9048 29.198 21.8668 29.2146 21.8317C29.2312 21.7967 29.2548 21.7654 29.2838 21.7397C29.3129 21.7141 29.3469 21.6946 29.3838 21.6824C29.4206 21.6703 29.4595 21.6658 29.4982 21.6691C30.6903 21.743 31.5008 21.5108 31.7803 21.0154C32.3421 20.0186 30.9323 17.9283 28.1887 15.6938C27.2949 14.9716 26.3615 14.2999 25.3927 13.6818C24.8374 13.3259 22.4162 11.9615 21.8434 11.6818C20.8271 11.178 19.7836 10.7312 18.7176 10.3435C15.3909 9.14387 12.7796 9.00725 12.22 10.0026C11.6565 11.0037 13.0662 13.0931 15.8107 15.3262C16.7039 16.0489 17.6373 16.7207 18.6064 17.3382C19.1535 17.6879 21.5767 19.0529 22.1558 19.3388C23.1708 19.8424 24.2135 20.2884 25.2789 20.6747C25.933 20.9093 26.5558 21.1054 27.1298 21.2549C27.1678 21.2638 27.2037 21.2803 27.2353 21.3032C27.2669 21.3262 27.2935 21.3553 27.3137 21.3887C27.3339 21.4221 27.3473 21.4592 27.3529 21.4978C27.3586 21.5364 27.3565 21.5758 27.3467 21.6136C27.3369 21.6514 27.3197 21.6869 27.296 21.7179C27.2724 21.749 27.2427 21.775 27.2089 21.7945C27.175 21.8139 27.1376 21.8264 27.0988 21.8312C27.0601 21.836 27.0207 21.8331 26.9831 21.8225C26.3921 21.6683 25.7511 21.4677 25.0815 21.2265C23.9954 20.8327 22.9325 20.378 21.8976 19.8647C21.2907 19.566 18.8628 18.198 18.2896 17.8322C17.3021 17.2024 16.3511 16.5172 15.4411 15.78C12.3713 13.284 10.9759 11.0163 11.7096 9.71584C12.4479 8.40304 15.143 8.43177 18.9174 9.79265C20.0038 10.1873 21.0674 10.6425 22.103 11.1559C22.7011 11.449 25.1284 12.8167 25.711 13.189C26.6984 13.8194 27.6497 14.5045 28.5604 15.2412C31.6284 17.7398 33.0238 20.0069 32.2928 21.305C31.9328 21.9386 31.1156 22.269 29.9144 22.269Z" fill="#D62829"/>
<path d="M28.2568 23.3341C27.9551 23.3341 27.6602 23.2447 27.4093 23.0772C27.1585 22.9097 26.963 22.6716 26.8476 22.393C26.7321 22.1145 26.7019 21.8079 26.7608 21.5122C26.8196 21.2165 26.9649 20.9449 27.1782 20.7317C27.3915 20.5185 27.6633 20.3733 27.9592 20.3144C28.2551 20.2556 28.5618 20.2858 28.8405 20.4012C29.1192 20.5166 29.3574 20.712 29.525 20.9627C29.6927 21.2134 29.7821 21.5081 29.7821 21.8096C29.7821 22.2139 29.6214 22.6017 29.3354 22.8876C29.0493 23.1735 28.6613 23.3341 28.2568 23.3341ZM28.2568 20.8715C28.0711 20.8715 27.8896 20.9265 27.7353 21.0296C27.5809 21.1327 27.4606 21.2792 27.3896 21.4506C27.3185 21.622 27.2999 21.8107 27.3361 21.9926C27.3724 22.1746 27.4618 22.3418 27.593 22.473C27.7243 22.6042 27.8916 22.6935 28.0737 22.7297C28.2557 22.7659 28.4445 22.7474 28.616 22.6764C28.7875 22.6053 28.9341 22.4851 29.0373 22.3308C29.1404 22.1766 29.1954 21.9952 29.1954 21.8096C29.1956 21.6864 29.1714 21.5643 29.1242 21.4503C29.0771 21.3364 29.008 21.2329 28.9208 21.1457C28.8337 21.0585 28.7301 20.9893 28.6162 20.9421C28.5023 20.8949 28.3801 20.8706 28.2568 20.8706V20.8715Z" fill="#D62829"/>
<path d="M13.1088 19.4195C12.8072 19.4189 12.5126 19.329 12.2622 19.1611C12.0118 18.9932 11.8168 18.7548 11.7019 18.4762C11.5869 18.1976 11.5572 17.8912 11.6164 17.5957C11.6756 17.3002 11.8211 17.0289 12.0346 16.816C12.248 16.6031 12.5198 16.4582 12.8156 16.3997C13.1114 16.3411 13.4179 16.3715 13.6965 16.487C13.975 16.6024 14.213 16.7978 14.3805 17.0485C14.548 17.2991 14.6373 17.5937 14.6373 17.8951C14.6373 18.0955 14.5978 18.294 14.5209 18.4792C14.4441 18.6644 14.3314 18.8326 14.1894 18.9742C14.0475 19.1158 13.8789 19.228 13.6935 19.3044C13.5081 19.3808 13.3094 19.42 13.1088 19.4195ZM13.1088 16.9569C12.9233 16.9576 12.7421 17.0131 12.5882 17.1166C12.4342 17.2201 12.3144 17.3668 12.2439 17.5383C12.1733 17.7098 12.1552 17.8983 12.1918 18.0801C12.2284 18.2618 12.318 18.4287 12.4494 18.5596C12.5808 18.6904 12.7481 18.7795 12.9301 18.8154C13.1121 18.8513 13.3006 18.8326 13.472 18.7615C13.6433 18.6904 13.7897 18.5701 13.8927 18.4159C13.9957 18.2617 14.0507 18.0805 14.0507 17.8951C14.0507 17.7715 14.0263 17.6492 13.9789 17.5351C13.9316 17.4209 13.8622 17.3172 13.7747 17.2299C13.6872 17.1427 13.5834 17.0735 13.4691 17.0263C13.3548 16.9792 13.2324 16.955 13.1088 16.9552V16.9569Z" fill="#D62829"/>
<path d="M24.376 8.28942C24.0744 8.28942 23.7795 8.20001 23.5286 8.0325C23.2778 7.86499 23.0823 7.6269 22.9668 7.34834C22.8514 7.06978 22.8212 6.76326 22.88 6.46754C22.9389 6.17182 23.0841 5.90019 23.2975 5.68699C23.5108 5.47379 23.7826 5.32859 24.0785 5.26977C24.3744 5.21095 24.681 5.24114 24.9598 5.35652C25.2385 5.47191 25.4767 5.6673 25.6443 5.918C25.8119 6.1687 25.9014 6.46344 25.9014 6.76495C25.9014 6.96515 25.8619 7.16338 25.7853 7.34834C25.7086 7.5333 25.5963 7.70135 25.4546 7.84291C25.313 7.98447 25.1448 8.09676 24.9598 8.17338C24.7747 8.24999 24.5764 8.28942 24.376 8.28942ZM24.376 5.82681C24.1905 5.82681 24.009 5.8818 23.8547 5.98482C23.7004 6.08784 23.5801 6.23427 23.509 6.4056C23.4379 6.57694 23.4192 6.76549 23.4553 6.94743C23.4914 7.12937 23.5807 7.29653 23.7118 7.42779C23.8429 7.55905 24.01 7.64852 24.192 7.68488C24.374 7.72124 24.5627 7.70287 24.7342 7.63209C24.9058 7.56131 25.0525 7.4413 25.1558 7.28722C25.2591 7.13313 25.3144 6.9519 25.3147 6.76642C25.3149 6.51732 25.2162 6.27832 25.0402 6.10197C24.8642 5.92561 24.6253 5.82632 24.376 5.82593V5.82681Z" fill="#D62829"/>
<path d="M18.304 27.9622C18.2805 27.9622 18.2573 27.9622 18.2339 27.9608C18.1953 27.9588 18.1576 27.9493 18.1227 27.9328C18.0879 27.9163 18.0566 27.8931 18.0307 27.8645C18.0049 27.8359 17.9849 27.8025 17.9719 27.7662C17.959 27.7299 17.9533 27.6914 17.9552 27.6529C17.9571 27.6144 17.9666 27.5767 17.9831 27.5419C17.9997 27.507 18.0229 27.4758 18.0515 27.4499C18.0801 27.4241 18.1135 27.4041 18.1498 27.3911C18.1862 27.3782 18.2247 27.3725 18.2632 27.3744C19.0693 27.4102 20.0951 26.3973 20.4292 26.003C20.4794 25.9436 20.5512 25.9066 20.6288 25.9002C20.6672 25.897 20.7058 25.9014 20.7425 25.9131C20.7792 25.9248 20.8132 25.9437 20.8426 25.9685C20.872 25.9934 20.8963 26.0238 20.9139 26.0581C20.9316 26.0923 20.9423 26.1296 20.9455 26.168C20.9487 26.2064 20.9443 26.245 20.9326 26.2817C20.9208 26.3184 20.902 26.3524 20.8771 26.3818C20.8205 26.448 19.5237 27.9622 18.304 27.9622Z" fill="#D62829"/>
<path d="M25.7591 27.961C25.7287 27.961 25.6984 27.9563 25.6694 27.9469C25.5954 27.9231 23.8507 27.3535 23.1124 26.3685C23.0657 26.3063 23.0457 26.2281 23.0567 26.1511C23.0677 26.0742 23.1088 26.0047 23.171 25.958C23.2333 25.9114 23.3115 25.8914 23.3885 25.9024C23.4655 25.9134 23.535 25.9545 23.5817 26.0167C24.2083 26.8537 25.8322 27.3831 25.8486 27.3884C25.9152 27.4098 25.9719 27.4543 26.0086 27.5138C26.0453 27.5733 26.0594 27.644 26.0486 27.7131C26.0377 27.7821 26.0025 27.845 25.9493 27.8904C25.8961 27.9358 25.8285 27.9607 25.7585 27.9607L25.7591 27.961Z" fill="#D62829"/>
</svg>
