<svg width="44" height="45" viewBox="0 0 44 45" fill="none" xmlns="http://www.w3.org/2000/svg">
<path d="M25.7273 39.4628H18.2726C18.1948 39.4628 18.1201 39.4319 18.0651 39.3769C18.0101 39.3219 17.9792 39.2474 17.9792 39.1696V37.2453C17.9792 34.0497 16.5938 30.851 14.4501 29.0952C12.9331 27.8527 11.7464 26.2551 10.9954 24.4442C10.2445 22.6332 9.95251 20.665 10.1454 18.7142C10.3383 16.7635 11.0101 14.8904 12.1012 13.2615C13.1923 11.6325 14.6689 10.2979 16.4 9.37625C18.1311 8.45458 20.0631 7.9743 22.0245 7.97805C23.9859 7.9818 25.916 8.46946 27.6435 9.39775C29.3711 10.326 30.8426 11.6662 31.9274 13.2994C33.0123 14.9325 33.6769 16.8081 33.8623 18.7596C34.0399 20.6715 33.7541 22.598 33.0291 24.3762C32.3041 26.1543 31.1611 27.7318 29.697 28.975C27.4633 30.8648 26.0198 34.0582 26.0198 37.1104V39.1696C26.0198 39.2472 25.989 39.3216 25.9342 39.3766C25.8794 39.4315 25.805 39.4625 25.7273 39.4628ZM18.5659 38.8764H25.434V37.1104C25.434 33.8929 26.9593 30.5238 29.3186 28.5276C30.7108 27.3452 31.7974 25.845 32.4867 24.1541C33.176 22.4631 33.4477 20.631 33.2786 18.8129C33.0141 16.1419 31.8128 13.6505 29.8873 11.7794C27.9618 9.90824 25.4362 8.77806 22.7573 8.58873C20.3618 8.42768 17.977 9.03162 15.9473 10.3133C13.9176 11.5951 12.3479 13.4883 11.4648 15.7197C10.5818 17.9511 10.4311 20.4052 11.0345 22.7278C11.6379 25.0503 12.9641 27.1212 14.8218 28.6414C17.0963 30.5056 18.5659 33.8832 18.5659 37.2461V38.8764Z" fill="#D62829"/>
<path d="M26.109 34.4502H17.891C17.8132 34.4502 17.7386 34.4193 17.6836 34.3643C17.6286 34.3093 17.5977 34.2347 17.5977 34.1569C17.5977 34.0791 17.6286 34.0045 17.6836 33.9494C17.7386 33.8944 17.8132 33.8635 17.891 33.8635H26.109C26.1868 33.8635 26.2614 33.8944 26.3164 33.9494C26.3714 34.0045 26.4024 34.0791 26.4024 34.1569C26.4024 34.2347 26.3714 34.3093 26.3164 34.3643C26.2614 34.4193 26.1868 34.4502 26.109 34.4502Z" fill="#D62829"/>
<path d="M25.7253 36.8791H18.2703C18.1925 36.8791 18.1179 36.8482 18.0628 36.7932C18.0078 36.7382 17.9769 36.6636 17.9769 36.5858C17.9769 36.508 18.0078 36.4334 18.0628 36.3784C18.1179 36.3234 18.1925 36.2925 18.2703 36.2925H25.7253C25.8031 36.2925 25.8777 36.3234 25.9327 36.3784C25.9878 36.4334 26.0187 36.508 26.0187 36.5858C26.0187 36.6636 25.9878 36.7382 25.9327 36.7932C25.8777 36.8482 25.8031 36.8791 25.7253 36.8791Z" fill="#D62829"/>
<path d="M22 41.8163C21.2973 41.8161 20.6234 41.5373 20.1262 41.0412C19.6289 40.545 19.3488 39.8719 19.3474 39.1696C19.3474 39.0919 19.3783 39.0173 19.4333 38.9623C19.4883 38.9074 19.5629 38.8765 19.6407 38.8765C19.7185 38.8765 19.7932 38.9074 19.8482 38.9623C19.9032 39.0173 19.9341 39.0919 19.9341 39.1696C19.9406 39.7124 20.1608 40.2307 20.5472 40.6123C20.9335 40.9938 21.4547 41.2078 21.9978 41.2078C22.5409 41.2078 23.0622 40.9938 23.4485 40.6123C23.8348 40.2307 24.0551 39.7124 24.0616 39.1696C24.0616 39.0919 24.0925 39.0173 24.1475 38.9623C24.2025 38.9074 24.2771 38.8765 24.3549 38.8765C24.4327 38.8765 24.5073 38.9074 24.5623 38.9623C24.6173 39.0173 24.6482 39.0919 24.6482 39.1696C24.6475 39.8713 24.3682 40.5441 23.8717 41.0403C23.3753 41.5365 22.7021 41.8156 22 41.8163Z" fill="#D62829"/>
<path d="M24.1979 34.4501C24.1201 34.4501 24.0455 34.4192 23.9905 34.3642C23.9355 34.3092 23.9046 34.2346 23.9046 34.1569V23.9039H20.0953V34.1569C20.0953 34.2346 20.0644 34.3092 20.0094 34.3642C19.9544 34.4192 19.8798 34.4501 19.802 34.4501C19.7242 34.4501 19.6496 34.4192 19.5946 34.3642C19.5396 34.3092 19.5087 34.2346 19.5087 34.1569V23.9039H17.3359C16.7392 23.8972 16.1693 23.6555 15.7497 23.2314C15.3302 22.8073 15.0948 22.2349 15.0948 21.6385C15.0948 21.0421 15.3302 20.4697 15.7497 20.0456C16.1693 19.6215 16.7392 19.3798 17.3359 19.373C18.0677 19.3739 18.7692 19.6648 19.2867 20.1819C19.8042 20.699 20.0953 21.4001 20.0962 22.1315V23.3176H23.9046V22.1315C23.9055 21.4001 24.1966 20.699 24.7141 20.1819C25.2315 19.6648 25.9331 19.3739 26.6648 19.373C27.2615 19.3798 27.8315 19.6215 28.2511 20.0456C28.6706 20.4697 28.9059 21.0421 28.9059 21.6385C28.9059 22.2349 28.6706 22.8073 28.2511 23.2314C27.8315 23.6555 27.2615 23.8972 26.6648 23.9039H24.4912V34.1569C24.4912 34.2346 24.4603 34.3092 24.4053 34.3642C24.3503 34.4192 24.2757 34.4501 24.1979 34.4501ZM24.4912 23.3176H26.6639C27.1057 23.3118 27.5273 23.1323 27.8377 22.818C28.148 22.5038 28.322 22.08 28.322 21.6385C28.322 21.197 28.148 20.7732 27.8377 20.459C27.5273 20.1447 27.1057 19.9652 26.6639 19.9594C26.0877 19.96 25.5353 20.189 25.1278 20.5962C24.7203 21.0034 24.491 21.5556 24.4903 22.1315L24.4912 23.3176ZM17.3359 19.9594C16.8942 19.9652 16.4725 20.1447 16.1622 20.459C15.8519 20.7732 15.6779 21.197 15.6779 21.6385C15.6779 22.08 15.8519 22.5038 16.1622 22.818C16.4725 23.1323 16.8942 23.3118 17.3359 23.3176H19.5095V22.1315C19.5088 21.5556 19.2796 21.0034 18.8721 20.5962C18.4646 20.189 17.9122 19.96 17.3359 19.9594Z" fill="#D62829"/>
<path d="M22.1798 6.38297C22.102 6.38297 22.0274 6.35208 21.9724 6.2971C21.9174 6.24212 21.8865 6.16755 21.8865 6.0898V3.99776C21.8865 3.92 21.9174 3.84544 21.9724 3.79046C22.0274 3.73548 22.102 3.70459 22.1798 3.70459C22.2576 3.70459 22.3322 3.73548 22.3872 3.79046C22.4422 3.84544 22.4731 3.92 22.4731 3.99776V6.0898C22.4731 6.16755 22.4422 6.24212 22.3872 6.2971C22.3322 6.35208 22.2576 6.38297 22.1798 6.38297Z" fill="#D62829"/>
<path d="M14.542 8.33217C14.4905 8.33222 14.4398 8.3187 14.3952 8.29296C14.3505 8.26723 14.3135 8.23019 14.2877 8.18558L13.2411 6.37234C13.2215 6.33899 13.2088 6.3021 13.2035 6.26379C13.1983 6.22548 13.2007 6.18652 13.2105 6.14914C13.2204 6.11176 13.2376 6.07671 13.2611 6.046C13.2846 6.01528 13.314 5.98952 13.3475 5.97019C13.381 5.95086 13.418 5.93834 13.4563 5.93335C13.4947 5.92837 13.5337 5.93102 13.571 5.94115C13.6083 5.95128 13.6433 5.96869 13.6739 5.99238C13.7044 6.01607 13.73 6.04557 13.7491 6.07918L14.7958 7.89124C14.8215 7.93579 14.835 7.98632 14.8351 8.03775C14.8351 8.08919 14.8215 8.13972 14.7958 8.18428C14.7701 8.22884 14.7331 8.26585 14.6886 8.2916C14.644 8.31736 14.5935 8.33094 14.542 8.33099V8.33217Z" fill="#D62829"/>
<path d="M8.90145 13.8379C8.84997 13.8381 8.79935 13.8246 8.75478 13.7989L6.94198 12.752C6.87516 12.7128 6.82654 12.6488 6.80674 12.5739C6.78694 12.499 6.79757 12.4193 6.8363 12.3522C6.87503 12.2851 6.93872 12.2361 7.01348 12.2158C7.08823 12.1955 7.16798 12.2056 7.23531 12.2439L9.04811 13.2905C9.10403 13.3228 9.14773 13.3726 9.17244 13.4323C9.19715 13.492 9.20148 13.5581 9.18477 13.6205C9.16806 13.6828 9.13123 13.7379 9.08001 13.7773C9.02878 13.8166 8.96602 13.8379 8.90145 13.8379Z" fill="#D62829"/>
<path d="M6.77162 21.4233H4.6781C4.6003 21.4233 4.52569 21.3924 4.47068 21.3374C4.41567 21.2824 4.38477 21.2078 4.38477 21.13C4.38477 21.0522 4.41567 20.9776 4.47068 20.9226C4.52569 20.8676 4.6003 20.8367 4.6781 20.8367H6.77162C6.84942 20.8367 6.92403 20.8676 6.97904 20.9226C7.03405 20.9776 7.06495 21.0522 7.06495 21.13C7.06495 21.2078 7.03405 21.2824 6.97904 21.3374C6.92403 21.3924 6.84942 21.4233 6.77162 21.4233Z" fill="#D62829"/>
<path d="M39.3219 21.7834H37.2284C37.1506 21.7834 37.076 21.7525 37.021 21.6975C36.966 21.6425 36.9351 21.5679 36.9351 21.4901C36.9351 21.4123 36.966 21.3377 37.021 21.2827C37.076 21.2277 37.1506 21.1968 37.2284 21.1968H39.3219C39.3997 21.1968 39.4743 21.2277 39.5293 21.2827C39.5843 21.3377 39.6152 21.4123 39.6152 21.4901C39.6152 21.5679 39.5843 21.6425 39.5293 21.6975C39.4743 21.7525 39.3997 21.7834 39.3219 21.7834Z" fill="#D62829"/>
<path d="M35.2787 14.1496C35.2141 14.1496 35.1513 14.1283 35.1001 14.089C35.0489 14.0497 35.0121 13.9946 34.9953 13.9322C34.9786 13.8699 34.983 13.8037 35.0077 13.7441C35.0324 13.6844 35.0761 13.6346 35.132 13.6023L36.9448 12.5557C36.9782 12.5361 37.0151 12.5233 37.0534 12.5181C37.0917 12.5128 37.1307 12.5152 37.1681 12.5251C37.2055 12.535 37.2406 12.5522 37.2713 12.5757C37.3021 12.5992 37.3278 12.6285 37.3472 12.662C37.3665 12.6955 37.3791 12.7325 37.384 12.7709C37.389 12.8093 37.3864 12.8482 37.3762 12.8856C37.3661 12.9229 37.3487 12.9579 37.325 12.9884C37.3013 13.019 37.2718 13.0446 37.2381 13.0637L35.4253 14.1106C35.3807 14.1363 35.3301 14.1497 35.2787 14.1496Z" fill="#D62829"/>
<path d="M29.59 8.9307C29.5386 8.93065 29.488 8.91706 29.4435 8.89131C29.3989 8.86556 29.3619 8.82854 29.3362 8.78399C29.3105 8.73943 29.297 8.68889 29.297 8.63746C29.297 8.58602 29.3106 8.53549 29.3363 8.49095L30.3826 6.67917C30.4215 6.6118 30.4856 6.56263 30.5608 6.54248C30.598 6.5325 30.6368 6.52995 30.675 6.53497C30.7132 6.53999 30.7501 6.55248 30.7835 6.57173C30.8168 6.59098 30.8461 6.61661 30.8696 6.64716C30.893 6.67771 30.9102 6.71258 30.9202 6.74978C30.9302 6.78698 30.9328 6.82578 30.9277 6.86397C30.9227 6.90216 30.9102 6.93898 30.891 6.97234L29.8443 8.78412C29.8186 8.82873 29.7815 8.86576 29.7369 8.89149C29.6922 8.91723 29.6416 8.93075 29.59 8.9307Z" fill="#D62829"/>
<path d="M25.7273 39.4628H18.2726C18.1948 39.4628 18.1201 39.4319 18.0651 39.3769C18.0101 39.3219 17.9792 39.2474 17.9792 39.1696V37.2453C17.9792 34.0497 16.5938 30.851 14.4501 29.0952C12.9331 27.8527 11.7464 26.2551 10.9954 24.4442C10.2445 22.6332 9.95251 20.665 10.1454 18.7142C10.3383 16.7635 11.0101 14.8904 12.1012 13.2615C13.1923 11.6325 14.6689 10.2979 16.4 9.37625C18.1311 8.45458 20.0631 7.9743 22.0245 7.97805C23.9859 7.9818 25.916 8.46946 27.6435 9.39775C29.3711 10.326 30.8426 11.6662 31.9274 13.2994C33.0123 14.9325 33.6769 16.8081 33.8623 18.7596C34.0399 20.6715 33.7541 22.598 33.0291 24.3762C32.3041 26.1543 31.1611 27.7318 29.697 28.975C27.4633 30.8648 26.0198 34.0582 26.0198 37.1104V39.1696C26.0198 39.2472 25.989 39.3216 25.9342 39.3766C25.8794 39.4315 25.805 39.4625 25.7273 39.4628ZM18.5659 38.8764H25.434V37.1104C25.434 33.8929 26.9593 30.5238 29.3186 28.5276C30.7108 27.3452 31.7974 25.845 32.4867 24.1541C33.176 22.4631 33.4477 20.631 33.2786 18.8129C33.0141 16.1419 31.8128 13.6505 29.8873 11.7794C27.9618 9.90824 25.4362 8.77806 22.7573 8.58873C20.3618 8.42768 17.977 9.03162 15.9473 10.3133C13.9176 11.5951 12.3479 13.4883 11.4648 15.7197C10.5818 17.9511 10.4311 20.4052 11.0345 22.7278C11.6379 25.0503 12.9641 27.1212 14.8218 28.6414C17.0963 30.5056 18.5659 33.8832 18.5659 37.2461V38.8764Z" fill="#D62829"/>
<path d="M26.109 34.4502H17.891C17.8132 34.4502 17.7386 34.4193 17.6836 34.3643C17.6286 34.3093 17.5977 34.2347 17.5977 34.1569C17.5977 34.0791 17.6286 34.0045 17.6836 33.9494C17.7386 33.8944 17.8132 33.8635 17.891 33.8635H26.109C26.1868 33.8635 26.2614 33.8944 26.3164 33.9494C26.3714 34.0045 26.4024 34.0791 26.4024 34.1569C26.4024 34.2347 26.3714 34.3093 26.3164 34.3643C26.2614 34.4193 26.1868 34.4502 26.109 34.4502Z" fill="#D62829"/>
<path d="M25.7253 36.8791H18.2703C18.1925 36.8791 18.1179 36.8482 18.0628 36.7932C18.0078 36.7382 17.9769 36.6636 17.9769 36.5858C17.9769 36.508 18.0078 36.4334 18.0628 36.3784C18.1179 36.3234 18.1925 36.2925 18.2703 36.2925H25.7253C25.8031 36.2925 25.8777 36.3234 25.9327 36.3784C25.9878 36.4334 26.0187 36.508 26.0187 36.5858C26.0187 36.6636 25.9878 36.7382 25.9327 36.7932C25.8777 36.8482 25.8031 36.8791 25.7253 36.8791Z" fill="#D62829"/>
<path d="M22 41.8163C21.2973 41.8161 20.6234 41.5373 20.1262 41.0412C19.6289 40.545 19.3488 39.8719 19.3474 39.1696C19.3474 39.0919 19.3783 39.0173 19.4333 38.9623C19.4883 38.9074 19.5629 38.8765 19.6407 38.8765C19.7185 38.8765 19.7932 38.9074 19.8482 38.9623C19.9032 39.0173 19.9341 39.0919 19.9341 39.1696C19.9406 39.7124 20.1608 40.2307 20.5472 40.6123C20.9335 40.9938 21.4547 41.2078 21.9978 41.2078C22.5409 41.2078 23.0622 40.9938 23.4485 40.6123C23.8348 40.2307 24.0551 39.7124 24.0616 39.1696C24.0616 39.0919 24.0925 39.0173 24.1475 38.9623C24.2025 38.9074 24.2771 38.8765 24.3549 38.8765C24.4327 38.8765 24.5073 38.9074 24.5623 38.9623C24.6173 39.0173 24.6482 39.0919 24.6482 39.1696C24.6475 39.8713 24.3682 40.5441 23.8717 41.0403C23.3753 41.5365 22.7021 41.8156 22 41.8163Z" fill="#D62829"/>
<path d="M24.1979 34.4501C24.1201 34.4501 24.0455 34.4192 23.9905 34.3642C23.9355 34.3092 23.9046 34.2346 23.9046 34.1569V23.9039H20.0953V34.1569C20.0953 34.2346 20.0644 34.3092 20.0094 34.3642C19.9544 34.4192 19.8798 34.4501 19.802 34.4501C19.7242 34.4501 19.6496 34.4192 19.5946 34.3642C19.5396 34.3092 19.5087 34.2346 19.5087 34.1569V23.9039H17.3359C16.7392 23.8972 16.1693 23.6555 15.7497 23.2314C15.3302 22.8073 15.0948 22.2349 15.0948 21.6385C15.0948 21.0421 15.3302 20.4697 15.7497 20.0456C16.1693 19.6215 16.7392 19.3798 17.3359 19.373C18.0677 19.3739 18.7692 19.6648 19.2867 20.1819C19.8042 20.699 20.0953 21.4001 20.0962 22.1315V23.3176H23.9046V22.1315C23.9055 21.4001 24.1966 20.699 24.7141 20.1819C25.2315 19.6648 25.9331 19.3739 26.6648 19.373C27.2615 19.3798 27.8315 19.6215 28.2511 20.0456C28.6706 20.4697 28.9059 21.0421 28.9059 21.6385C28.9059 22.2349 28.6706 22.8073 28.2511 23.2314C27.8315 23.6555 27.2615 23.8972 26.6648 23.9039H24.4912V34.1569C24.4912 34.2346 24.4603 34.3092 24.4053 34.3642C24.3503 34.4192 24.2757 34.4501 24.1979 34.4501ZM24.4912 23.3176H26.6639C27.1057 23.3118 27.5273 23.1323 27.8377 22.818C28.148 22.5038 28.322 22.08 28.322 21.6385C28.322 21.197 28.148 20.7732 27.8377 20.459C27.5273 20.1447 27.1057 19.9652 26.6639 19.9594C26.0877 19.96 25.5353 20.189 25.1278 20.5962C24.7203 21.0034 24.491 21.5556 24.4903 22.1315L24.4912 23.3176ZM17.3359 19.9594C16.8942 19.9652 16.4725 20.1447 16.1622 20.459C15.8519 20.7732 15.6779 21.197 15.6779 21.6385C15.6779 22.08 15.8519 22.5038 16.1622 22.818C16.4725 23.1323 16.8942 23.3118 17.3359 23.3176H19.5095V22.1315C19.5088 21.5556 19.2796 21.0034 18.8721 20.5962C18.4646 20.189 17.9122 19.96 17.3359 19.9594Z" fill="#D62829"/>
<path d="M22.1798 6.38297C22.102 6.38297 22.0274 6.35208 21.9724 6.2971C21.9174 6.24212 21.8865 6.16755 21.8865 6.0898V3.99776C21.8865 3.92 21.9174 3.84544 21.9724 3.79046C22.0274 3.73548 22.102 3.70459 22.1798 3.70459C22.2576 3.70459 22.3322 3.73548 22.3872 3.79046C22.4422 3.84544 22.4731 3.92 22.4731 3.99776V6.0898C22.4731 6.16755 22.4422 6.24212 22.3872 6.2971C22.3322 6.35208 22.2576 6.38297 22.1798 6.38297Z" fill="#D62829"/>
<path d="M14.542 8.33217C14.4905 8.33222 14.4398 8.3187 14.3952 8.29296C14.3505 8.26723 14.3135 8.23019 14.2877 8.18558L13.2411 6.37234C13.2215 6.33899 13.2088 6.3021 13.2035 6.26379C13.1983 6.22548 13.2007 6.18652 13.2105 6.14914C13.2204 6.11176 13.2376 6.07671 13.2611 6.046C13.2846 6.01528 13.314 5.98952 13.3475 5.97019C13.381 5.95086 13.418 5.93834 13.4563 5.93335C13.4947 5.92837 13.5337 5.93102 13.571 5.94115C13.6083 5.95128 13.6433 5.96869 13.6739 5.99238C13.7044 6.01607 13.73 6.04557 13.7491 6.07918L14.7958 7.89124C14.8215 7.93579 14.835 7.98632 14.8351 8.03775C14.8351 8.08919 14.8215 8.13972 14.7958 8.18428C14.7701 8.22884 14.7331 8.26585 14.6886 8.2916C14.644 8.31736 14.5935 8.33094 14.542 8.33099V8.33217Z" fill="#D62829"/>
<path d="M8.90145 13.8379C8.84997 13.8381 8.79935 13.8246 8.75478 13.7989L6.94198 12.752C6.87516 12.7128 6.82654 12.6488 6.80674 12.5739C6.78694 12.499 6.79757 12.4193 6.8363 12.3522C6.87503 12.2851 6.93872 12.2361 7.01348 12.2158C7.08823 12.1955 7.16798 12.2056 7.23531 12.2439L9.04811 13.2905C9.10403 13.3228 9.14773 13.3726 9.17244 13.4323C9.19715 13.492 9.20148 13.5581 9.18477 13.6205C9.16806 13.6828 9.13123 13.7379 9.08001 13.7773C9.02878 13.8166 8.96602 13.8379 8.90145 13.8379Z" fill="#D62829"/>
<path d="M6.77162 21.4233H4.6781C4.6003 21.4233 4.52569 21.3924 4.47068 21.3374C4.41567 21.2824 4.38477 21.2078 4.38477 21.13C4.38477 21.0522 4.41567 20.9776 4.47068 20.9226C4.52569 20.8676 4.6003 20.8367 4.6781 20.8367H6.77162C6.84942 20.8367 6.92403 20.8676 6.97904 20.9226C7.03405 20.9776 7.06495 21.0522 7.06495 21.13C7.06495 21.2078 7.03405 21.2824 6.97904 21.3374C6.92403 21.3924 6.84942 21.4233 6.77162 21.4233Z" fill="#D62829"/>
<path d="M39.3219 21.7834H37.2284C37.1506 21.7834 37.076 21.7525 37.021 21.6975C36.966 21.6425 36.9351 21.5679 36.9351 21.4901C36.9351 21.4123 36.966 21.3377 37.021 21.2827C37.076 21.2277 37.1506 21.1968 37.2284 21.1968H39.3219C39.3997 21.1968 39.4743 21.2277 39.5293 21.2827C39.5843 21.3377 39.6152 21.4123 39.6152 21.4901C39.6152 21.5679 39.5843 21.6425 39.5293 21.6975C39.4743 21.7525 39.3997 21.7834 39.3219 21.7834Z" fill="#D62829"/>
<path d="M35.2787 14.1496C35.2141 14.1496 35.1513 14.1283 35.1001 14.089C35.0489 14.0497 35.0121 13.9946 34.9953 13.9322C34.9786 13.8699 34.983 13.8037 35.0077 13.7441C35.0324 13.6844 35.0761 13.6346 35.132 13.6023L36.9448 12.5557C36.9782 12.5361 37.0151 12.5233 37.0534 12.5181C37.0917 12.5128 37.1307 12.5152 37.1681 12.5251C37.2055 12.535 37.2406 12.5522 37.2713 12.5757C37.3021 12.5992 37.3278 12.6285 37.3472 12.662C37.3665 12.6955 37.3791 12.7325 37.384 12.7709C37.389 12.8093 37.3864 12.8482 37.3762 12.8856C37.3661 12.9229 37.3487 12.9579 37.325 12.9884C37.3013 13.019 37.2718 13.0446 37.2381 13.0637L35.4253 14.1106C35.3807 14.1363 35.3301 14.1497 35.2787 14.1496Z" fill="#D62829"/>
<path d="M29.59 8.9307C29.5386 8.93065 29.488 8.91706 29.4435 8.89131C29.3989 8.86556 29.3619 8.82854 29.3362 8.78399C29.3105 8.73943 29.297 8.68889 29.297 8.63746C29.297 8.58602 29.3106 8.53549 29.3363 8.49095L30.3826 6.67917C30.4215 6.6118 30.4856 6.56263 30.5608 6.54248C30.598 6.5325 30.6368 6.52995 30.675 6.53497C30.7132 6.53999 30.7501 6.55248 30.7835 6.57173C30.8168 6.59098 30.8461 6.61661 30.8696 6.64716C30.893 6.67771 30.9102 6.71258 30.9202 6.74978C30.9302 6.78698 30.9328 6.82578 30.9277 6.86397C30.9227 6.90216 30.9102 6.93898 30.891 6.97234L29.8443 8.78412C29.8186 8.82873 29.7815 8.86576 29.7369 8.89149C29.6922 8.91723 29.6416 8.93075 29.59 8.9307Z" fill="#D62829"/>
</svg>
