<svg width="24" height="24" viewBox="0 0 24 24" fill="none" xmlns="http://www.w3.org/2000/svg">
<path d="M12.2 17.7002C11.9 17.7002 11.7 17.6002 11.5 17.4002L7.3 13.2002C6.9 12.8002 6.9 12.2002 7.3 11.8002C7.7 11.4002 8.3 11.4002 8.7 11.8002L12.2 15.3002L20 7.5002C20.4 7.1002 21 7.1002 21.4 7.5002C21.8 7.9002 21.8 8.5002 21.4 8.9002L12.9 17.4002C12.8 17.6002 12.5 17.7002 12.2 17.7002Z" fill="#FCBF4A"/>
<path d="M7.2 17.7002C6.9 17.7002 6.7 17.6002 6.5 17.4002L2.3 13.2002C1.9 12.8002 1.9 12.2002 2.3 11.8002C2.7 11.4002 3.3 11.4002 3.7 11.8002L7.9 16.0002C8.3 16.4002 8.3 17.0002 7.9 17.4002C7.8 17.6002 7.5 17.7002 7.2 17.7002ZM12.5 12.5002C12.2 12.5002 12 12.4002 11.8 12.2002C11.4 11.8002 11.4 11.2002 11.8 10.8002L15 7.5002C15.4 7.1002 16 7.1002 16.4 7.5002C16.8 7.9002 16.8 8.5002 16.4 8.9002L13.2 12.2002C13 12.4002 12.8 12.5002 12.5 12.5002Z" fill="#FCBF4A"/>
</svg>
