<svg width="48" height="48" viewBox="0 0 48 48" fill="none" xmlns="http://www.w3.org/2000/svg">
<path d="M9.45628 17.5633C8.62233 17.5721 7.79493 17.4154 7.02193 17.1023C6.24894 16.7892 5.54571 16.326 4.95292 15.7393C4.01489 14.7993 3.40201 13.584 3.2038 12.2708C3.19562 12.2168 3.20141 12.1616 3.22061 12.1105C3.23981 12.0593 3.27179 12.0139 3.31349 11.9787C3.3552 11.9434 3.40524 11.9193 3.45886 11.9089C3.51248 11.8984 3.56788 11.9018 3.6198 11.9188L9.38332 13.8174L11.6361 11.5646L10.5024 7.9134L5.4678 6.58924C5.41336 6.57492 5.36366 6.5465 5.32372 6.50684C5.28378 6.46718 5.255 6.41768 5.2403 6.36335C5.22559 6.30901 5.22548 6.25176 5.23997 6.19737C5.25447 6.14298 5.28305 6.09337 5.32284 6.05356C8.09596 3.28076 12.4409 3.11468 15.0096 5.68332C17.5782 8.25196 17.4124 12.5979 14.6396 15.3704C13.2706 16.7592 11.4064 17.5479 9.45628 17.5633ZM3.94268 12.6993C4.18604 13.6792 4.69172 14.5743 5.4054 15.2884C7.72508 17.6075 11.6643 17.4414 14.1872 14.9185C16.71 12.3956 16.8752 8.45452 14.5571 6.13644C12.3628 3.9422 8.71804 3.97292 6.19484 6.11948L10.8368 7.34028C10.8892 7.3541 10.9373 7.38103 10.9765 7.41853C11.0156 7.45604 11.0447 7.50289 11.0608 7.55468L12.3043 11.5598C12.3213 11.6153 12.323 11.6744 12.309 11.7308C12.295 11.7872 12.2659 11.8387 12.2249 11.8798L9.69692 14.4078C9.65504 14.4497 9.60236 14.4792 9.54473 14.4929C9.4871 14.5066 9.42679 14.5041 9.37052 14.4856L3.94268 12.6993Z" fill="#1E1E1E"/>
<path d="M36.0417 44.1479C35.2174 44.1601 34.3989 44.0091 33.6333 43.7037C32.8677 43.3982 32.17 42.9443 31.5805 42.3681C29.0122 39.7991 29.1783 35.4535 31.9508 32.681C34.7233 29.9086 39.0689 29.7422 41.6375 32.3114C42.5759 33.2513 43.1889 34.4667 43.3869 35.7799C43.3947 35.8298 43.3906 35.8808 43.3749 35.9288C43.3593 35.9768 43.3324 36.0204 43.2967 36.056C43.2609 36.0917 43.2172 36.1184 43.1692 36.1339C43.1211 36.1494 43.0701 36.1533 43.0202 36.1454L37.6359 35.2862L34.9972 37.882L36.2829 40.9671L40.4637 42.0231C40.5222 42.0378 40.5753 42.0687 40.6169 42.1123C40.6586 42.1559 40.6871 42.2103 40.6992 42.2694C40.7112 42.3284 40.7064 42.3897 40.6852 42.4461C40.664 42.5025 40.6272 42.5518 40.5793 42.5882C39.2773 43.5891 37.6838 44.1368 36.0417 44.1479ZM37.1341 31.1274C35.3538 31.1434 33.6524 31.8649 32.4033 33.1335C29.8801 35.6567 29.7153 39.5975 32.0333 41.9156C33.9469 43.8292 37.1063 44.0276 39.6215 42.4698L35.9706 41.5486C35.9224 41.5364 35.8777 41.5131 35.84 41.4806C35.8024 41.4481 35.7728 41.4073 35.7537 41.3614L34.3236 37.9287C34.2988 37.8697 34.2923 37.8046 34.3049 37.7419C34.3175 37.6791 34.3487 37.6216 34.3943 37.5767L37.3025 34.7159C37.3382 34.6808 37.3817 34.6546 37.4295 34.6393C37.4772 34.6241 37.5279 34.6203 37.5773 34.6282L42.6692 35.4404C42.4348 34.4267 41.9205 33.4992 41.185 32.7633C40.6515 32.2363 40.0187 31.8204 39.3234 31.5397C38.6281 31.2589 37.884 31.1188 37.1341 31.1274Z" fill="#1E1E1E"/>
<path d="M30.464 35.9388C30.3792 35.9388 30.2978 35.9051 30.2378 35.8451L11.4791 17.088C11.419 17.028 11.3853 16.9466 11.3853 16.8617C11.3852 16.7768 11.4189 16.6954 11.4789 16.6353C11.5389 16.5753 11.6203 16.5415 11.7052 16.5415C11.7901 16.5415 11.8715 16.5752 11.9316 16.6352L30.6903 35.392C30.735 35.4367 30.7655 35.4937 30.7778 35.5558C30.7902 35.6179 30.7838 35.6822 30.7596 35.7407C30.7354 35.7991 30.6944 35.8491 30.6418 35.8843C30.5892 35.9194 30.5273 35.9382 30.464 35.9382V35.9388Z" fill="#1E1E1E"/>
<path d="M34.3695 31.712C34.2847 31.712 34.2033 31.6783 34.1433 31.6183L15.6979 13.1732C15.6396 13.1128 15.6073 13.032 15.608 12.9481C15.6088 12.8642 15.6424 12.7839 15.7018 12.7246C15.7611 12.6653 15.8413 12.6316 15.9253 12.6309C16.0092 12.6301 16.09 12.6624 16.1503 12.7207L34.5958 31.168C34.6405 31.2128 34.671 31.2698 34.6833 31.3319C34.6957 31.3939 34.6893 31.4583 34.6651 31.5167C34.6409 31.5752 34.5999 31.6252 34.5473 31.6603C34.4947 31.6955 34.4328 31.7143 34.3695 31.7143V31.712Z" fill="#1E1E1E"/>
<path d="M8.18143 44.0542C7.31817 44.0542 6.47429 43.7983 5.75651 43.3187C5.03874 42.8391 4.47931 42.1574 4.14897 41.3598C3.81863 40.5623 3.73222 39.6847 3.90068 38.838C4.06913 37.9914 4.48488 37.2137 5.09535 36.6033L15.5942 26.1044C15.6554 26.0466 15.7363 26.0144 15.8205 26.0144C15.9046 26.0144 15.9856 26.0466 16.0467 26.1044L21.7667 31.8241C21.8267 31.8841 21.8604 31.9655 21.8604 32.0504C21.8604 32.1352 21.8267 32.2166 21.7667 32.2766L11.2675 42.7758C10.8632 43.1823 10.3822 43.5047 9.85252 43.7241C9.32279 43.9435 8.7548 44.0557 8.18143 44.0542ZM15.8205 26.7841L5.54847 37.0561C4.84999 37.7546 4.45761 38.702 4.45764 39.6898C4.45767 40.6777 4.85011 41.625 5.54863 42.3235C6.24714 43.0219 7.19452 43.4143 8.18234 43.4143C9.17016 43.4143 10.1175 43.0218 10.816 42.3233L21.088 32.0513L15.8205 26.7841Z" fill="#1E1E1E"/>
<path d="M20.0416 30.8755C19.9568 30.8755 19.8754 30.8418 19.8154 30.7817L16.9674 27.9353C16.9094 27.8774 16.8759 27.7995 16.8737 27.7175C16.8714 27.6356 16.9008 27.556 16.9555 27.495L19.648 24.8016C19.6777 24.7719 19.713 24.7483 19.7518 24.7322C19.7907 24.7161 19.8323 24.7078 19.8743 24.7078C19.9163 24.7077 19.958 24.716 19.9968 24.7321C20.0356 24.7482 20.0709 24.7717 20.1007 24.8014C20.1304 24.8311 20.154 24.8664 20.1701 24.9052C20.1862 24.9441 20.1945 24.9857 20.1945 25.0277C20.1945 25.0697 20.1862 25.1114 20.1702 25.1502C20.1541 25.189 20.1305 25.2243 20.1008 25.2541L17.6448 27.7088L20.0416 30.103L22.496 27.6499C22.5564 27.5916 22.6372 27.5594 22.7211 27.5601C22.805 27.5608 22.8853 27.5945 22.9446 27.6538C23.0039 27.7131 23.0376 27.7934 23.0383 27.8773C23.0391 27.9612 23.0068 28.042 22.9485 28.1024L20.2688 30.7817C20.239 30.8116 20.2036 30.8352 20.1646 30.8513C20.1256 30.8674 20.0838 30.8756 20.0416 30.8755Z" fill="#1E1E1E"/>
<path d="M23.9392 21.282C23.8759 21.2821 23.814 21.2634 23.7613 21.2283C23.7086 21.1933 23.6675 21.1433 23.6432 21.0849C23.6189 21.0265 23.6125 20.9621 23.6247 20.9C23.6369 20.8379 23.6673 20.7809 23.712 20.736L29.6493 14.7991L30.0992 15.2544L30.096 15.2573L24.1655 21.1882C24.1055 21.2482 24.0241 21.2819 23.9392 21.282Z" fill="#1E1E1E"/>
<path d="M26.7872 24.1299C26.724 24.13 26.662 24.1113 26.6094 24.0763C26.5567 24.0412 26.5156 23.9913 26.4912 23.9328C26.4669 23.8744 26.4605 23.8101 26.4727 23.748C26.485 23.6859 26.5154 23.6288 26.56 23.584L32.4992 17.6457C32.5596 17.5874 32.6404 17.5552 32.7243 17.5559C32.8082 17.5566 32.8885 17.5903 32.9478 17.6496C33.0072 17.709 33.0408 17.7892 33.0415 17.8731C33.0423 17.957 33.01 18.0379 32.9517 18.0982L27.0135 24.0361C26.9839 24.066 26.9486 24.0896 26.9098 24.1057C26.8709 24.1218 26.8293 24.13 26.7872 24.1299Z" fill="#1E1E1E"/>
<path d="M12.0592 41.8516C11.9744 41.8516 11.893 41.8179 11.833 41.7578L6.11204 36.0382C6.05375 35.9778 6.0215 35.897 6.02223 35.8131C6.02296 35.7292 6.05661 35.6489 6.11594 35.5896C6.17527 35.5302 6.25553 35.4966 6.33944 35.4959C6.42334 35.4951 6.50417 35.5274 6.56452 35.5857L12.2845 41.3054C12.3293 41.3501 12.3597 41.4071 12.3721 41.4692C12.3844 41.5313 12.3781 41.5956 12.3539 41.654C12.3296 41.7125 12.2886 41.7625 12.236 41.7976C12.1834 41.8328 12.1216 41.8516 12.0583 41.8516H12.0592Z" fill="#1E1E1E"/>
<path d="M13.8384 40.0721C13.7536 40.0721 13.6722 40.0384 13.6122 39.9783L7.89249 34.2587C7.86193 34.2291 7.83755 34.1938 7.82078 34.1548C7.80401 34.1158 7.79518 34.0738 7.79481 34.0313C7.79444 33.9888 7.80254 33.9466 7.81863 33.9073C7.83472 33.868 7.85848 33.8323 7.88853 33.8022C7.91857 33.7722 7.9543 33.7484 7.99363 33.7323C8.03295 33.7162 8.07509 33.7081 8.11758 33.7085C8.16007 33.7089 8.20206 33.7177 8.2411 33.7345C8.28014 33.7512 8.31545 33.7756 8.34497 33.8062L14.0647 39.5259C14.1094 39.5706 14.1399 39.6276 14.1522 39.6897C14.1645 39.7518 14.1582 39.8161 14.134 39.8746C14.1098 39.933 14.0688 39.983 14.0162 40.0182C13.9635 40.0533 13.9017 40.0721 13.8384 40.0721Z" fill="#1E1E1E"/>
<path d="M42.2951 23.6247C42.1879 23.6247 42.0821 23.6004 41.9856 23.5537L34.72 20.0462C34.3742 19.8795 34.0589 19.6557 33.7875 19.3841L26.144 11.739C25.9789 11.5733 25.8861 11.3489 25.8861 11.115C25.8861 10.881 25.9789 10.6567 26.144 10.491L31.5223 5.1105C31.6904 4.95009 31.9139 4.8606 32.1463 4.8606C32.3786 4.8606 32.6021 4.95009 32.7703 5.1105L40.4407 12.7806C40.6941 13.0338 40.9061 13.3254 41.0688 13.6446L44.7213 20.7959C44.7899 20.93 44.8142 21.0823 44.7907 21.231C44.7672 21.3797 44.697 21.5172 44.5904 21.6235L42.7984 23.4155C42.7324 23.4817 42.6539 23.5343 42.5676 23.5702C42.4812 23.6061 42.3886 23.6247 42.2951 23.6247ZM32.1469 5.49162C32.1149 5.49151 32.0832 5.49776 32.0536 5.51001C32.0241 5.52226 31.9973 5.54027 31.9747 5.56298L26.5952 10.9422C26.5497 10.9879 26.5242 11.0498 26.5242 11.1143C26.5242 11.1789 26.5497 11.2408 26.5952 11.2865L34.24 18.9316C34.4607 19.1524 34.7169 19.3343 34.9981 19.4699L42.2621 22.9777C42.2755 22.9843 42.2907 22.9865 42.3055 22.9839C42.3202 22.9814 42.3338 22.9743 42.3443 22.9636L44.1363 21.1716C44.1471 21.1608 44.1542 21.1468 44.1566 21.1317C44.159 21.1166 44.1566 21.1011 44.1498 21.0875L40.4999 13.9355C40.367 13.6761 40.1942 13.4392 39.9879 13.2334L32.32 5.56298C32.2974 5.54014 32.2704 5.52205 32.2407 5.5098C32.2109 5.49754 32.1791 5.49136 32.1469 5.49162Z" fill="#1E1E1E"/>
<path d="M27.8036 13.2669C27.7399 13.267 27.6777 13.248 27.6249 13.2126C27.5721 13.1771 27.531 13.1267 27.507 13.0678C27.483 13.0089 27.477 12.9442 27.4899 12.8819C27.5029 12.8196 27.5341 12.7626 27.5796 12.7181L33.824 6.61122C33.8541 6.5818 33.8896 6.55859 33.9286 6.5429C33.9676 6.52721 34.0093 6.51936 34.0513 6.51979C34.0933 6.52022 34.1349 6.52893 34.1736 6.54541C34.2122 6.56189 34.2473 6.58583 34.2767 6.61586C34.3061 6.64588 34.3293 6.68141 34.345 6.7204C34.3607 6.7594 34.3685 6.80111 34.3681 6.84314C34.3677 6.88517 34.359 6.9267 34.3425 6.96537C34.326 7.00404 34.3021 7.03908 34.272 7.0685L28.0272 13.1757C27.9675 13.2342 27.8872 13.2669 27.8036 13.2669Z" fill="#1E1E1E"/>
<path d="M9.45628 17.5633C8.62233 17.5721 7.79493 17.4154 7.02193 17.1023C6.24894 16.7892 5.54571 16.326 4.95292 15.7393C4.01489 14.7993 3.40201 13.584 3.2038 12.2708C3.19562 12.2168 3.20141 12.1616 3.22061 12.1105C3.23981 12.0593 3.27179 12.0139 3.31349 11.9787C3.3552 11.9434 3.40524 11.9193 3.45886 11.9089C3.51248 11.8984 3.56788 11.9018 3.6198 11.9188L9.38332 13.8174L11.6361 11.5646L10.5024 7.9134L5.4678 6.58924C5.41336 6.57492 5.36366 6.5465 5.32372 6.50684C5.28378 6.46718 5.255 6.41768 5.2403 6.36335C5.22559 6.30901 5.22548 6.25176 5.23997 6.19737C5.25447 6.14298 5.28305 6.09337 5.32284 6.05356C8.09596 3.28076 12.4409 3.11468 15.0096 5.68332C17.5782 8.25196 17.4124 12.5979 14.6396 15.3704C13.2706 16.7592 11.4064 17.5479 9.45628 17.5633ZM3.94268 12.6993C4.18604 13.6792 4.69172 14.5743 5.4054 15.2884C7.72508 17.6075 11.6643 17.4414 14.1872 14.9185C16.71 12.3956 16.8752 8.45452 14.5571 6.13644C12.3628 3.9422 8.71804 3.97292 6.19484 6.11948L10.8368 7.34028C10.8892 7.3541 10.9373 7.38103 10.9765 7.41853C11.0156 7.45604 11.0447 7.50289 11.0608 7.55468L12.3043 11.5598C12.3213 11.6153 12.323 11.6744 12.309 11.7308C12.295 11.7872 12.2659 11.8387 12.2249 11.8798L9.69692 14.4078C9.65504 14.4497 9.60236 14.4792 9.54473 14.4929C9.4871 14.5066 9.42679 14.5041 9.37052 14.4856L3.94268 12.6993Z" fill="#1E1E1E"/>
<path d="M36.0417 44.1479C35.2174 44.1601 34.3989 44.0091 33.6333 43.7037C32.8677 43.3982 32.17 42.9443 31.5805 42.3681C29.0122 39.7991 29.1783 35.4535 31.9508 32.681C34.7233 29.9086 39.0689 29.7422 41.6375 32.3114C42.5759 33.2513 43.1889 34.4667 43.3869 35.7799C43.3947 35.8298 43.3906 35.8808 43.3749 35.9288C43.3593 35.9768 43.3324 36.0204 43.2967 36.056C43.2609 36.0917 43.2172 36.1184 43.1692 36.1339C43.1211 36.1494 43.0701 36.1533 43.0202 36.1454L37.6359 35.2862L34.9972 37.882L36.2829 40.9671L40.4637 42.0231C40.5222 42.0378 40.5753 42.0687 40.6169 42.1123C40.6586 42.1559 40.6871 42.2103 40.6992 42.2694C40.7112 42.3284 40.7064 42.3897 40.6852 42.4461C40.664 42.5025 40.6272 42.5518 40.5793 42.5882C39.2773 43.5891 37.6838 44.1368 36.0417 44.1479ZM37.1341 31.1274C35.3538 31.1434 33.6524 31.8649 32.4033 33.1335C29.8801 35.6567 29.7153 39.5975 32.0333 41.9156C33.9469 43.8292 37.1063 44.0276 39.6215 42.4698L35.9706 41.5486C35.9224 41.5364 35.8777 41.5131 35.84 41.4806C35.8024 41.4481 35.7728 41.4073 35.7537 41.3614L34.3236 37.9287C34.2988 37.8697 34.2923 37.8046 34.3049 37.7419C34.3175 37.6791 34.3487 37.6216 34.3943 37.5767L37.3025 34.7159C37.3382 34.6808 37.3817 34.6546 37.4295 34.6393C37.4772 34.6241 37.5279 34.6203 37.5773 34.6282L42.6692 35.4404C42.4348 34.4267 41.9205 33.4992 41.185 32.7633C40.6515 32.2363 40.0187 31.8204 39.3234 31.5397C38.6281 31.2589 37.884 31.1188 37.1341 31.1274Z" fill="#1E1E1E"/>
<path d="M30.464 35.9388C30.3792 35.9388 30.2978 35.9051 30.2378 35.8451L11.4791 17.088C11.419 17.028 11.3853 16.9466 11.3853 16.8617C11.3852 16.7768 11.4189 16.6954 11.4789 16.6353C11.5389 16.5753 11.6203 16.5415 11.7052 16.5415C11.7901 16.5415 11.8715 16.5752 11.9316 16.6352L30.6903 35.392C30.735 35.4367 30.7655 35.4937 30.7778 35.5558C30.7902 35.6179 30.7838 35.6822 30.7596 35.7407C30.7354 35.7991 30.6944 35.8491 30.6418 35.8843C30.5892 35.9194 30.5273 35.9382 30.464 35.9382V35.9388Z" fill="#1E1E1E"/>
<path d="M34.3695 31.712C34.2847 31.712 34.2033 31.6783 34.1433 31.6183L15.6979 13.1732C15.6396 13.1128 15.6073 13.032 15.608 12.9481C15.6088 12.8642 15.6424 12.7839 15.7018 12.7246C15.7611 12.6653 15.8413 12.6316 15.9253 12.6309C16.0092 12.6301 16.09 12.6624 16.1503 12.7207L34.5958 31.168C34.6405 31.2128 34.671 31.2698 34.6833 31.3319C34.6957 31.3939 34.6893 31.4583 34.6651 31.5167C34.6409 31.5752 34.5999 31.6252 34.5473 31.6603C34.4947 31.6955 34.4328 31.7143 34.3695 31.7143V31.712Z" fill="#1E1E1E"/>
<path d="M8.18143 44.0542C7.31817 44.0542 6.47429 43.7983 5.75651 43.3187C5.03874 42.8391 4.47931 42.1574 4.14897 41.3598C3.81863 40.5623 3.73222 39.6847 3.90068 38.838C4.06913 37.9914 4.48488 37.2137 5.09535 36.6033L15.5942 26.1044C15.6554 26.0466 15.7363 26.0144 15.8205 26.0144C15.9046 26.0144 15.9856 26.0466 16.0467 26.1044L21.7667 31.8241C21.8267 31.8841 21.8604 31.9655 21.8604 32.0504C21.8604 32.1352 21.8267 32.2166 21.7667 32.2766L11.2675 42.7758C10.8632 43.1823 10.3822 43.5047 9.85252 43.7241C9.32279 43.9435 8.7548 44.0557 8.18143 44.0542ZM15.8205 26.7841L5.54847 37.0561C4.84999 37.7546 4.45761 38.702 4.45764 39.6898C4.45767 40.6777 4.85011 41.625 5.54863 42.3235C6.24714 43.0219 7.19452 43.4143 8.18234 43.4143C9.17016 43.4143 10.1175 43.0218 10.816 42.3233L21.088 32.0513L15.8205 26.7841Z" fill="#1E1E1E"/>
<path d="M20.0416 30.8755C19.9568 30.8755 19.8754 30.8418 19.8154 30.7817L16.9674 27.9353C16.9094 27.8774 16.8759 27.7995 16.8737 27.7175C16.8714 27.6356 16.9008 27.556 16.9555 27.495L19.648 24.8016C19.6777 24.7719 19.713 24.7483 19.7518 24.7322C19.7907 24.7161 19.8323 24.7078 19.8743 24.7078C19.9163 24.7077 19.958 24.716 19.9968 24.7321C20.0356 24.7482 20.0709 24.7717 20.1007 24.8014C20.1304 24.8311 20.154 24.8664 20.1701 24.9052C20.1862 24.9441 20.1945 24.9857 20.1945 25.0277C20.1945 25.0697 20.1862 25.1114 20.1702 25.1502C20.1541 25.189 20.1305 25.2243 20.1008 25.2541L17.6448 27.7088L20.0416 30.103L22.496 27.6499C22.5564 27.5916 22.6372 27.5594 22.7211 27.5601C22.805 27.5608 22.8853 27.5945 22.9446 27.6538C23.0039 27.7131 23.0376 27.7934 23.0383 27.8773C23.0391 27.9612 23.0068 28.042 22.9485 28.1024L20.2688 30.7817C20.239 30.8116 20.2036 30.8352 20.1646 30.8513C20.1256 30.8674 20.0838 30.8756 20.0416 30.8755Z" fill="#1E1E1E"/>
<path d="M23.9392 21.282C23.8759 21.2821 23.814 21.2634 23.7613 21.2283C23.7086 21.1933 23.6675 21.1433 23.6432 21.0849C23.6189 21.0265 23.6125 20.9621 23.6247 20.9C23.6369 20.8379 23.6673 20.7809 23.712 20.736L29.6493 14.7991L30.0992 15.2544L30.096 15.2573L24.1655 21.1882C24.1055 21.2482 24.0241 21.2819 23.9392 21.282Z" fill="#1E1E1E"/>
<path d="M26.7872 24.1299C26.724 24.13 26.662 24.1113 26.6094 24.0763C26.5567 24.0412 26.5156 23.9913 26.4912 23.9328C26.4669 23.8744 26.4605 23.8101 26.4727 23.748C26.485 23.6859 26.5154 23.6288 26.56 23.584L32.4992 17.6457C32.5596 17.5874 32.6404 17.5552 32.7243 17.5559C32.8082 17.5566 32.8885 17.5903 32.9478 17.6496C33.0072 17.709 33.0408 17.7892 33.0415 17.8731C33.0423 17.957 33.01 18.0379 32.9517 18.0982L27.0135 24.0361C26.9839 24.066 26.9486 24.0896 26.9098 24.1057C26.8709 24.1218 26.8293 24.13 26.7872 24.1299Z" fill="#1E1E1E"/>
<path d="M12.0592 41.8516C11.9744 41.8516 11.893 41.8179 11.833 41.7578L6.11204 36.0382C6.05375 35.9778 6.0215 35.897 6.02223 35.8131C6.02296 35.7292 6.05661 35.6489 6.11594 35.5896C6.17527 35.5302 6.25553 35.4966 6.33944 35.4959C6.42334 35.4951 6.50417 35.5274 6.56452 35.5857L12.2845 41.3054C12.3293 41.3501 12.3597 41.4071 12.3721 41.4692C12.3844 41.5313 12.3781 41.5956 12.3539 41.654C12.3296 41.7125 12.2886 41.7625 12.236 41.7976C12.1834 41.8328 12.1216 41.8516 12.0583 41.8516H12.0592Z" fill="#1E1E1E"/>
<path d="M13.8384 40.0721C13.7536 40.0721 13.6722 40.0384 13.6122 39.9783L7.89249 34.2587C7.86193 34.2291 7.83755 34.1938 7.82078 34.1548C7.80401 34.1158 7.79518 34.0738 7.79481 34.0313C7.79444 33.9888 7.80254 33.9466 7.81863 33.9073C7.83472 33.868 7.85848 33.8323 7.88853 33.8022C7.91857 33.7722 7.9543 33.7484 7.99363 33.7323C8.03295 33.7162 8.07509 33.7081 8.11758 33.7085C8.16007 33.7089 8.20206 33.7177 8.2411 33.7345C8.28014 33.7512 8.31545 33.7756 8.34497 33.8062L14.0647 39.5259C14.1094 39.5706 14.1399 39.6276 14.1522 39.6897C14.1645 39.7518 14.1582 39.8161 14.134 39.8746C14.1098 39.933 14.0688 39.983 14.0162 40.0182C13.9635 40.0533 13.9017 40.0721 13.8384 40.0721Z" fill="#1E1E1E"/>
<path d="M42.2951 23.6247C42.1879 23.6247 42.0821 23.6004 41.9856 23.5537L34.72 20.0462C34.3742 19.8795 34.0589 19.6557 33.7875 19.3841L26.144 11.739C25.9789 11.5733 25.8861 11.3489 25.8861 11.115C25.8861 10.881 25.9789 10.6567 26.144 10.491L31.5223 5.1105C31.6904 4.95009 31.9139 4.8606 32.1463 4.8606C32.3786 4.8606 32.6021 4.95009 32.7703 5.1105L40.4407 12.7806C40.6941 13.0338 40.9061 13.3254 41.0688 13.6446L44.7213 20.7959C44.7899 20.93 44.8142 21.0823 44.7907 21.231C44.7672 21.3797 44.697 21.5172 44.5904 21.6235L42.7984 23.4155C42.7324 23.4817 42.6539 23.5343 42.5676 23.5702C42.4812 23.6061 42.3886 23.6247 42.2951 23.6247ZM32.1469 5.49162C32.1149 5.49151 32.0832 5.49776 32.0536 5.51001C32.0241 5.52226 31.9973 5.54027 31.9747 5.56298L26.5952 10.9422C26.5497 10.9879 26.5242 11.0498 26.5242 11.1143C26.5242 11.1789 26.5497 11.2408 26.5952 11.2865L34.24 18.9316C34.4607 19.1524 34.7169 19.3343 34.9981 19.4699L42.2621 22.9777C42.2755 22.9843 42.2907 22.9865 42.3055 22.9839C42.3202 22.9814 42.3338 22.9743 42.3443 22.9636L44.1363 21.1716C44.1471 21.1608 44.1542 21.1468 44.1566 21.1317C44.159 21.1166 44.1566 21.1011 44.1498 21.0875L40.4999 13.9355C40.367 13.6761 40.1942 13.4392 39.9879 13.2334L32.32 5.56298C32.2974 5.54014 32.2704 5.52205 32.2407 5.5098C32.2109 5.49754 32.1791 5.49136 32.1469 5.49162Z" fill="#1E1E1E"/>
<path d="M27.8036 13.2669C27.7399 13.267 27.6777 13.248 27.6249 13.2126C27.5721 13.1771 27.531 13.1267 27.507 13.0678C27.483 13.0089 27.477 12.9442 27.4899 12.8819C27.5029 12.8196 27.5341 12.7626 27.5796 12.7181L33.824 6.61122C33.8541 6.5818 33.8896 6.55859 33.9286 6.5429C33.9676 6.52721 34.0093 6.51936 34.0513 6.51979C34.0933 6.52022 34.1349 6.52893 34.1736 6.54541C34.2122 6.56189 34.2473 6.58583 34.2767 6.61586C34.3061 6.64588 34.3293 6.68141 34.345 6.7204C34.3607 6.7594 34.3685 6.80111 34.3681 6.84314C34.3677 6.88517 34.359 6.9267 34.3425 6.96537C34.326 7.00404 34.3021 7.03908 34.272 7.0685L28.0272 13.1757C27.9675 13.2342 27.8872 13.2669 27.8036 13.2669Z" fill="#1E1E1E"/>
</svg>
