<svg width="48" height="48" viewBox="0 0 48 48" fill="none" xmlns="http://www.w3.org/2000/svg">
<path d="M25.0621 38.1314H22.944C22.8697 38.1314 22.7976 38.1055 22.7403 38.0581C22.6829 38.0108 22.6439 37.9449 22.6298 37.8719L22.1655 35.4559C21.0836 35.2326 20.0544 34.8046 19.1332 34.1951L17.0948 35.5813C17.033 35.6232 16.9586 35.6423 16.8844 35.6352C16.8101 35.628 16.7406 35.5952 16.688 35.5423L15.1908 34.0383C15.1383 33.9856 15.1059 33.9164 15.0989 33.8424C15.092 33.7684 15.111 33.6943 15.1527 33.6328L16.5338 31.5992C15.9245 30.6765 15.4978 29.6456 15.2768 28.5621L12.8615 28.1036C12.7883 28.0896 12.7223 28.0506 12.6748 27.9933C12.6273 27.9359 12.6013 27.8638 12.6013 27.7893V25.6706C12.6013 25.5961 12.6273 25.524 12.6748 25.4666C12.7223 25.4093 12.7883 25.3703 12.8615 25.3564L15.2768 24.8978C15.4978 23.8144 15.9245 22.7834 16.5338 21.8607L15.1527 19.8271C15.1109 19.7656 15.0918 19.6914 15.0988 19.6174C15.1057 19.5433 15.1382 19.474 15.1908 19.4213L16.688 17.9199C16.7407 17.867 16.8101 17.8342 16.8844 17.8272C16.9587 17.8201 17.0331 17.8392 17.0948 17.8812L19.1332 19.2674C20.0543 18.6576 21.0836 18.2295 22.1655 18.0063L22.6292 15.5896C22.6428 15.5161 22.6817 15.4496 22.7392 15.4018C22.7968 15.354 22.8692 15.3278 22.944 15.3279H25.0628C25.1373 15.3278 25.2096 15.3539 25.267 15.4014C25.3244 15.449 25.3634 15.5151 25.3773 15.5884L25.8356 18.0034C26.919 18.2243 27.95 18.651 28.8727 19.2604L30.9063 17.8792C30.9681 17.8378 31.0424 17.8191 31.1165 17.8266C31.1905 17.834 31.2597 17.867 31.312 17.9199L32.8093 19.4239C32.8618 19.4766 32.8944 19.5459 32.9013 19.6199C32.9083 19.694 32.8892 19.7681 32.8474 19.8296L31.4666 21.8626C32.0795 22.7842 32.5081 23.8158 32.7287 24.9004L35.1386 25.3589C35.2118 25.3728 35.2778 25.4118 35.3252 25.4692C35.3727 25.5266 35.3987 25.5987 35.3988 25.6732V27.7919C35.3987 27.8663 35.3727 27.9385 35.3252 27.9958C35.2778 28.0532 35.2118 28.0922 35.1386 28.1061L32.7287 28.5647C32.5081 29.6493 32.0795 30.6808 31.4666 31.6024L32.8474 33.6354C32.8891 33.6969 32.9081 33.771 32.9012 33.845C32.8942 33.9189 32.8617 33.9882 32.8093 34.0408L31.312 35.5448C31.2594 35.5977 31.1901 35.6305 31.1159 35.6376C31.0417 35.6447 30.9673 35.6257 30.9056 35.5839L28.872 34.2024C27.9493 34.8118 26.9183 35.2385 25.8349 35.4594L25.376 37.8712C25.3621 37.9443 25.3232 38.0103 25.2659 38.0578C25.2086 38.1053 25.1365 38.1313 25.0621 38.1314ZM23.2061 37.4914H24.7956L25.2452 35.1234C25.2571 35.0596 25.2883 35.0009 25.3344 34.9552C25.3805 34.9094 25.4395 34.8788 25.5034 34.8674C26.6481 34.6641 27.7349 34.2145 28.6887 33.5496C28.7418 33.5128 28.8047 33.4929 28.8693 33.4926C28.9339 33.4923 28.9971 33.5115 29.0506 33.5477L31.0442 34.902L32.168 33.7736L30.816 31.7794C30.7796 31.7257 30.7603 31.6623 30.7608 31.5974C30.7613 31.5325 30.7814 31.4693 30.8186 31.4162C31.487 30.4645 31.9384 29.3777 32.1412 28.2325C32.1525 28.1685 32.1831 28.1095 32.2288 28.0633C32.2746 28.0171 32.3333 27.986 32.3972 27.974L34.7604 27.5244V25.9356L32.3972 25.486C32.3333 25.474 32.2746 25.4428 32.2288 25.3966C32.1831 25.3504 32.1525 25.2914 32.1412 25.2274C31.9383 24.0823 31.4869 22.9955 30.8186 22.0437C30.7814 21.9906 30.7613 21.9274 30.7608 21.8625C30.7603 21.7977 30.7796 21.7342 30.816 21.6805L32.1706 19.6863L31.0458 18.5599L29.0522 19.9138C28.9987 19.95 28.9355 19.9693 28.8709 19.9689C28.8063 19.9686 28.7434 19.9487 28.6903 19.9119C27.7364 19.2463 26.6492 18.7959 25.504 18.5919C25.44 18.5805 25.381 18.5499 25.3348 18.5042C25.2886 18.4585 25.2575 18.3998 25.2455 18.3359L24.7959 15.9679H23.2077L22.7533 18.3359C22.7415 18.3994 22.7107 18.4579 22.665 18.5036C22.6193 18.5493 22.5608 18.58 22.4973 18.5919C21.3542 18.7983 20.2693 19.2497 19.3172 19.9151C19.264 19.9522 19.2008 19.9723 19.1359 19.9727C19.071 19.9731 19.0076 19.9538 18.954 19.9173L16.954 18.5599L15.8304 19.6863L17.184 21.6805C17.2204 21.734 17.2397 21.7972 17.2394 21.8619C17.2391 21.9266 17.2193 21.9896 17.1824 22.0428C16.5175 22.9963 16.0678 24.0829 15.8644 25.2274C15.853 25.2914 15.8224 25.3504 15.7767 25.3966C15.731 25.4428 15.6722 25.474 15.6084 25.486L13.2404 25.9356V27.5244L15.6084 27.974C15.6722 27.986 15.731 28.0171 15.7767 28.0633C15.8224 28.1095 15.853 28.1685 15.8644 28.2325C16.0683 29.3771 16.5186 30.4638 17.184 31.4172C17.2209 31.4703 17.2408 31.5333 17.2412 31.598C17.2415 31.6626 17.2223 31.7259 17.186 31.7794L15.8314 33.7736L16.9549 34.902L18.9543 33.5423C19.0079 33.5058 19.0714 33.4866 19.1363 33.487C19.2011 33.4875 19.2643 33.5077 19.3175 33.5448C20.2697 34.2101 21.3546 34.6613 22.4976 34.8677C22.5612 34.8796 22.6196 34.9103 22.6653 34.956C22.711 35.0017 22.7418 35.0602 22.7536 35.1237L23.2061 37.4914Z" fill="#1E1E1E"/>
<path d="M23.9968 32.0698C22.9407 32.0698 21.9083 31.7566 21.0301 31.1699C20.152 30.5831 19.4676 29.7491 19.0634 28.7734C18.6593 27.7976 18.5535 26.7239 18.7596 25.6881C18.9657 24.6523 19.4743 23.7008 20.2211 22.954C20.9679 22.2073 21.9194 21.6987 22.9553 21.4927C23.9911 21.2867 25.0648 21.3925 26.0405 21.7967C27.0162 22.2009 27.8502 22.8854 28.4369 23.7636C29.0236 24.6417 29.3367 25.6742 29.3367 26.7303C29.3355 28.1461 28.7725 29.5036 27.7713 30.5047C26.7702 31.5058 25.4126 32.0687 23.9968 32.0698ZM23.9968 22.0305C23.0673 22.0305 22.1586 22.3061 21.3857 22.8225C20.6128 23.339 20.0105 24.073 19.6547 24.9317C19.299 25.7905 19.2059 26.7355 19.3873 27.6472C19.5686 28.5589 20.0163 29.3963 20.6735 30.0536C21.3308 30.7109 22.1683 31.1585 23.0799 31.3398C23.9916 31.5212 24.9366 31.4281 25.7954 31.0724C26.6542 30.7167 27.3882 30.1143 27.9046 29.3414C28.421 28.5685 28.6967 27.6598 28.6967 26.7303C28.6961 25.484 28.2007 24.2889 27.3195 23.4077C26.4382 22.5264 25.2431 22.0311 23.9968 22.0305Z" fill="#1E1E1E"/>
<path d="M24 44.8001C20.4261 44.8001 16.9324 43.7403 13.9608 41.7547C10.9892 39.7691 8.67308 36.9469 7.30541 33.645C5.93774 30.3432 5.57991 26.7098 6.27717 23.2046C6.97444 19.6993 8.69548 16.4795 11.2227 13.9524C13.7498 11.4253 16.9696 9.70429 20.4749 9.00709C23.9802 8.30989 27.6135 8.66778 30.9154 10.0355C34.2172 11.4032 37.0394 13.7194 39.0249 16.691C41.0104 19.6627 42.0702 23.1564 42.0701 26.7303C42.0646 31.5211 40.159 36.1141 36.7714 39.5016C33.3838 42.8892 28.7908 44.7947 24 44.8001ZM24 9.30024C20.5527 9.30024 17.1827 10.3225 14.3164 12.2377C11.45 14.153 9.21597 16.8752 7.89673 20.0601C6.57748 23.245 6.23231 26.7497 6.90485 30.1308C7.5774 33.5119 9.23745 36.6176 11.6751 39.0553C14.1127 41.4929 17.2185 43.1529 20.5996 43.8255C23.9807 44.498 27.4853 44.1529 30.6702 42.8336C33.8552 41.5144 36.5774 39.2803 38.4926 36.414C40.4078 33.5476 41.4301 30.1777 41.4301 26.7303C41.4249 22.1092 39.5868 17.6788 36.3192 14.4112C33.0515 11.1436 28.6212 9.30549 24 9.30024Z" fill="#1E1E1E"/>
<path d="M25.6515 9.37589C25.5666 9.37589 25.4852 9.34217 25.4252 9.28216C25.3652 9.22215 25.3315 9.14076 25.3315 9.05589V6.62389H22.6684V9.05589C22.6684 9.14076 22.6347 9.22215 22.5747 9.28216C22.5147 9.34217 22.4333 9.37589 22.3484 9.37589C22.2636 9.37589 22.1822 9.34217 22.1222 9.28216C22.0622 9.22215 22.0284 9.14076 22.0284 9.05589V6.30389C22.0284 6.21902 22.0622 6.13762 22.1222 6.07761C22.1822 6.0176 22.2636 5.98389 22.3484 5.98389H25.6515C25.7364 5.98389 25.8177 6.0176 25.8778 6.07761C25.9378 6.13762 25.9715 6.21902 25.9715 6.30389V9.05589C25.9715 9.14076 25.9378 9.22215 25.8778 9.28216C25.8177 9.34217 25.7364 9.37589 25.6515 9.37589Z" fill="#1E1E1E"/>
<path d="M27.5069 6.62107H20.4931C20.4082 6.62107 20.3268 6.58736 20.2668 6.52735C20.2068 6.46733 20.1731 6.38594 20.1731 6.30107V3.51995C20.1731 3.43508 20.2068 3.35369 20.2668 3.29368C20.3268 3.23367 20.4082 3.19995 20.4931 3.19995H27.5069C27.5917 3.19995 27.6731 3.23367 27.7331 3.29368C27.7931 3.35369 27.8269 3.43508 27.8269 3.51995V6.30107C27.8269 6.38594 27.7931 6.46733 27.7331 6.52735C27.6731 6.58736 27.5917 6.62107 27.5069 6.62107ZM20.8131 5.98107H27.1869V3.83995H20.8131V5.98107Z" fill="#1E1E1E"/>
<path d="M24.0001 12.2422C23.9152 12.2422 23.8338 12.2085 23.7738 12.1485C23.7138 12.0885 23.6801 12.0071 23.6801 11.9222V8.98016C23.6801 8.89529 23.7138 8.81389 23.7738 8.75388C23.8338 8.69387 23.9152 8.66016 24.0001 8.66016C24.0849 8.66016 24.1663 8.69387 24.2263 8.75388C24.2863 8.81389 24.3201 8.89529 24.3201 8.98016V11.9222C24.3201 12.0071 24.2863 12.0885 24.2263 12.1485C24.1663 12.2085 24.0849 12.2422 24.0001 12.2422Z" fill="#1E1E1E"/>
<path d="M24.0001 44.8001C23.9152 44.8001 23.8338 44.7664 23.7738 44.7064C23.7138 44.6464 23.6801 44.565 23.6801 44.4801V41.538C23.6801 41.4531 23.7138 41.3718 23.7738 41.3117C23.8338 41.2517 23.9152 41.218 24.0001 41.218C24.0849 41.218 24.1663 41.2517 24.2263 41.3117C24.2863 41.3718 24.3201 41.4531 24.3201 41.538V44.4801C24.3201 44.565 24.2863 44.6464 24.2263 44.7064C24.1663 44.7664 24.0849 44.8001 24.0001 44.8001Z" fill="#1E1E1E"/>
<path d="M34.4711 16.5794C34.4078 16.5794 34.3459 16.5606 34.2933 16.5255C34.2407 16.4903 34.1997 16.4403 34.1755 16.3819C34.1513 16.3234 34.1449 16.2591 34.1573 16.197C34.1696 16.1349 34.2001 16.0779 34.2448 16.0332L36.3248 13.9532C36.3543 13.9226 36.3896 13.8982 36.4287 13.8814C36.4677 13.8647 36.5097 13.8559 36.5522 13.8555C36.5947 13.8551 36.6368 13.8632 36.6762 13.8793C36.7155 13.8954 36.7512 13.9191 36.7813 13.9492C36.8113 13.9792 36.8351 14.015 36.8512 14.0543C36.8672 14.0936 36.8753 14.1358 36.875 14.1782C36.8746 14.2207 36.8658 14.2627 36.849 14.3018C36.8322 14.3408 36.8079 14.3761 36.7773 14.4056L34.6973 16.4856C34.6373 16.5457 34.5559 16.5794 34.4711 16.5794Z" fill="#1E1E1E"/>
<path d="M11.449 39.6013C11.3857 39.6013 11.3238 39.5825 11.2712 39.5474C11.2186 39.5122 11.1776 39.4622 11.1534 39.4038C11.1292 39.3453 11.1228 39.281 11.1352 39.2189C11.1475 39.1568 11.178 39.0998 11.2227 39.0551L13.3027 36.9751C13.3631 36.9168 13.4439 36.8845 13.5278 36.8853C13.6117 36.886 13.692 36.9196 13.7513 36.979C13.8106 37.0383 13.8443 37.1186 13.845 37.2025C13.8457 37.2864 13.8135 37.3672 13.7552 37.4276L11.6752 39.5076C11.6152 39.5676 11.5338 39.6013 11.449 39.6013Z" fill="#1E1E1E"/>
<path d="M9.19233 27.0502H6.24993C6.16506 27.0502 6.08367 27.0164 6.02366 26.9564C5.96365 26.8964 5.92993 26.815 5.92993 26.7302C5.92993 26.6453 5.96365 26.5639 6.02366 26.5039C6.08367 26.4439 6.16506 26.4102 6.24993 26.4102H9.19393C9.2788 26.4102 9.36019 26.4439 9.42021 26.5039C9.48022 26.5639 9.51393 26.6453 9.51393 26.7302C9.51393 26.815 9.48022 26.8964 9.42021 26.9564C9.36019 27.0164 9.2788 27.0502 9.19393 27.0502H9.19233Z" fill="#1E1E1E"/>
<path d="M41.7501 27.0502H38.8077C38.7228 27.0502 38.6414 27.0164 38.5814 26.9564C38.5214 26.8964 38.4877 26.815 38.4877 26.7302C38.4877 26.6453 38.5214 26.5639 38.5814 26.5039C38.6414 26.4439 38.7228 26.4102 38.8077 26.4102H41.7501C41.8349 26.4102 41.9163 26.4439 41.9763 26.5039C42.0364 26.5639 42.0701 26.6453 42.0701 26.7302C42.0701 26.815 42.0364 26.8964 41.9763 26.9564C41.9163 27.0164 41.8349 27.0502 41.7501 27.0502Z" fill="#1E1E1E"/>
<path d="M13.5292 16.5796C13.4444 16.5796 13.363 16.5458 13.303 16.4858L11.223 14.4058C11.1628 14.3459 11.1289 14.2644 11.1288 14.1795C11.1286 14.0946 11.1622 14.013 11.2222 13.9529C11.2822 13.8927 11.3636 13.8588 11.4485 13.8586C11.5335 13.8585 11.615 13.8921 11.6752 13.9521L13.7552 16.0321C13.7999 16.0768 13.8304 16.1338 13.8427 16.1959C13.855 16.2579 13.8487 16.3223 13.8245 16.3807C13.8003 16.4392 13.7593 16.4892 13.7067 16.5243C13.6541 16.5595 13.5922 16.5783 13.5289 16.5783L13.5292 16.5796Z" fill="#1E1E1E"/>
<path d="M36.5511 39.6013C36.4662 39.6013 36.3849 39.5676 36.3249 39.5076L34.2449 37.4276C34.1866 37.3672 34.1543 37.2864 34.155 37.2025C34.1558 37.1186 34.1894 37.0383 34.2488 36.979C34.3081 36.9196 34.3883 36.886 34.4722 36.8853C34.5562 36.8845 34.637 36.9168 34.6973 36.9751L36.7773 39.0551C36.8221 39.0998 36.8525 39.1568 36.8649 39.2189C36.8772 39.281 36.8709 39.3453 36.8467 39.4038C36.8225 39.4622 36.7815 39.5122 36.7288 39.5474C36.6762 39.5825 36.6144 39.6013 36.5511 39.6013Z" fill="#1E1E1E"/>
<path d="M25.0621 38.1314H22.944C22.8697 38.1314 22.7976 38.1055 22.7403 38.0581C22.6829 38.0108 22.6439 37.9449 22.6298 37.8719L22.1655 35.4559C21.0836 35.2326 20.0544 34.8046 19.1332 34.1951L17.0948 35.5813C17.033 35.6232 16.9586 35.6423 16.8844 35.6352C16.8101 35.628 16.7406 35.5952 16.688 35.5423L15.1908 34.0383C15.1383 33.9856 15.1059 33.9164 15.0989 33.8424C15.092 33.7684 15.111 33.6943 15.1527 33.6328L16.5338 31.5992C15.9245 30.6765 15.4978 29.6456 15.2768 28.5621L12.8615 28.1036C12.7883 28.0896 12.7223 28.0506 12.6748 27.9933C12.6273 27.9359 12.6013 27.8638 12.6013 27.7893V25.6706C12.6013 25.5961 12.6273 25.524 12.6748 25.4666C12.7223 25.4093 12.7883 25.3703 12.8615 25.3564L15.2768 24.8978C15.4978 23.8144 15.9245 22.7834 16.5338 21.8607L15.1527 19.8271C15.1109 19.7656 15.0918 19.6914 15.0988 19.6174C15.1057 19.5433 15.1382 19.474 15.1908 19.4213L16.688 17.9199C16.7407 17.867 16.8101 17.8342 16.8844 17.8272C16.9587 17.8201 17.0331 17.8392 17.0948 17.8812L19.1332 19.2674C20.0543 18.6576 21.0836 18.2295 22.1655 18.0063L22.6292 15.5896C22.6428 15.5161 22.6817 15.4496 22.7392 15.4018C22.7968 15.354 22.8692 15.3278 22.944 15.3279H25.0628C25.1373 15.3278 25.2096 15.3539 25.267 15.4014C25.3244 15.449 25.3634 15.5151 25.3773 15.5884L25.8356 18.0034C26.919 18.2243 27.95 18.651 28.8727 19.2604L30.9063 17.8792C30.9681 17.8378 31.0424 17.8191 31.1165 17.8266C31.1905 17.834 31.2597 17.867 31.312 17.9199L32.8093 19.4239C32.8618 19.4766 32.8944 19.5459 32.9013 19.6199C32.9083 19.694 32.8892 19.7681 32.8474 19.8296L31.4666 21.8626C32.0795 22.7842 32.5081 23.8158 32.7287 24.9004L35.1386 25.3589C35.2118 25.3728 35.2778 25.4118 35.3252 25.4692C35.3727 25.5266 35.3987 25.5987 35.3988 25.6732V27.7919C35.3987 27.8663 35.3727 27.9385 35.3252 27.9958C35.2778 28.0532 35.2118 28.0922 35.1386 28.1061L32.7287 28.5647C32.5081 29.6493 32.0795 30.6808 31.4666 31.6024L32.8474 33.6354C32.8891 33.6969 32.9081 33.771 32.9012 33.845C32.8942 33.9189 32.8617 33.9882 32.8093 34.0408L31.312 35.5448C31.2594 35.5977 31.1901 35.6305 31.1159 35.6376C31.0417 35.6447 30.9673 35.6257 30.9056 35.5839L28.872 34.2024C27.9493 34.8118 26.9183 35.2385 25.8349 35.4594L25.376 37.8712C25.3621 37.9443 25.3232 38.0103 25.2659 38.0578C25.2086 38.1053 25.1365 38.1313 25.0621 38.1314ZM23.2061 37.4914H24.7956L25.2452 35.1234C25.2571 35.0596 25.2883 35.0009 25.3344 34.9552C25.3805 34.9094 25.4395 34.8788 25.5034 34.8674C26.6481 34.6641 27.7349 34.2145 28.6887 33.5496C28.7418 33.5128 28.8047 33.4929 28.8693 33.4926C28.9339 33.4923 28.9971 33.5115 29.0506 33.5477L31.0442 34.902L32.168 33.7736L30.816 31.7794C30.7796 31.7257 30.7603 31.6623 30.7608 31.5974C30.7613 31.5325 30.7814 31.4693 30.8186 31.4162C31.487 30.4645 31.9384 29.3777 32.1412 28.2325C32.1525 28.1685 32.1831 28.1095 32.2288 28.0633C32.2746 28.0171 32.3333 27.986 32.3972 27.974L34.7604 27.5244V25.9356L32.3972 25.486C32.3333 25.474 32.2746 25.4428 32.2288 25.3966C32.1831 25.3504 32.1525 25.2914 32.1412 25.2274C31.9383 24.0823 31.4869 22.9955 30.8186 22.0437C30.7814 21.9906 30.7613 21.9274 30.7608 21.8625C30.7603 21.7977 30.7796 21.7342 30.816 21.6805L32.1706 19.6863L31.0458 18.5599L29.0522 19.9138C28.9987 19.95 28.9355 19.9693 28.8709 19.9689C28.8063 19.9686 28.7434 19.9487 28.6903 19.9119C27.7364 19.2463 26.6492 18.7959 25.504 18.5919C25.44 18.5805 25.381 18.5499 25.3348 18.5042C25.2886 18.4585 25.2575 18.3998 25.2455 18.3359L24.7959 15.9679H23.2077L22.7533 18.3359C22.7415 18.3994 22.7107 18.4579 22.665 18.5036C22.6193 18.5493 22.5608 18.58 22.4973 18.5919C21.3542 18.7983 20.2693 19.2497 19.3172 19.9151C19.264 19.9522 19.2008 19.9723 19.1359 19.9727C19.071 19.9731 19.0076 19.9538 18.954 19.9173L16.954 18.5599L15.8304 19.6863L17.184 21.6805C17.2204 21.734 17.2397 21.7972 17.2394 21.8619C17.2391 21.9266 17.2193 21.9896 17.1824 22.0428C16.5175 22.9963 16.0678 24.0829 15.8644 25.2274C15.853 25.2914 15.8224 25.3504 15.7767 25.3966C15.731 25.4428 15.6722 25.474 15.6084 25.486L13.2404 25.9356V27.5244L15.6084 27.974C15.6722 27.986 15.731 28.0171 15.7767 28.0633C15.8224 28.1095 15.853 28.1685 15.8644 28.2325C16.0683 29.3771 16.5186 30.4638 17.184 31.4172C17.2209 31.4703 17.2408 31.5333 17.2412 31.598C17.2415 31.6626 17.2223 31.7259 17.186 31.7794L15.8314 33.7736L16.9549 34.902L18.9543 33.5423C19.0079 33.5058 19.0714 33.4866 19.1363 33.487C19.2011 33.4875 19.2643 33.5077 19.3175 33.5448C20.2697 34.2101 21.3546 34.6613 22.4976 34.8677C22.5612 34.8796 22.6196 34.9103 22.6653 34.956C22.711 35.0017 22.7418 35.0602 22.7536 35.1237L23.2061 37.4914Z" fill="#1E1E1E"/>
<path d="M23.9968 32.0698C22.9407 32.0698 21.9083 31.7566 21.0301 31.1699C20.152 30.5831 19.4676 29.7491 19.0634 28.7734C18.6593 27.7976 18.5535 26.7239 18.7596 25.6881C18.9657 24.6523 19.4743 23.7008 20.2211 22.954C20.9679 22.2073 21.9194 21.6987 22.9553 21.4927C23.9911 21.2867 25.0648 21.3925 26.0405 21.7967C27.0162 22.2009 27.8502 22.8854 28.4369 23.7636C29.0236 24.6417 29.3367 25.6742 29.3367 26.7303C29.3355 28.1461 28.7725 29.5036 27.7713 30.5047C26.7702 31.5058 25.4126 32.0687 23.9968 32.0698ZM23.9968 22.0305C23.0673 22.0305 22.1586 22.3061 21.3857 22.8225C20.6128 23.339 20.0105 24.073 19.6547 24.9317C19.299 25.7905 19.2059 26.7355 19.3873 27.6472C19.5686 28.5589 20.0163 29.3963 20.6735 30.0536C21.3308 30.7109 22.1683 31.1585 23.0799 31.3398C23.9916 31.5212 24.9366 31.4281 25.7954 31.0724C26.6542 30.7167 27.3882 30.1143 27.9046 29.3414C28.421 28.5685 28.6967 27.6598 28.6967 26.7303C28.6961 25.484 28.2007 24.2889 27.3195 23.4077C26.4382 22.5264 25.2431 22.0311 23.9968 22.0305Z" fill="#1E1E1E"/>
<path d="M24 44.8001C20.4261 44.8001 16.9324 43.7403 13.9608 41.7547C10.9892 39.7691 8.67308 36.9469 7.30541 33.645C5.93774 30.3432 5.57991 26.7098 6.27717 23.2046C6.97444 19.6993 8.69548 16.4795 11.2227 13.9524C13.7498 11.4253 16.9696 9.70429 20.4749 9.00709C23.9802 8.30989 27.6135 8.66778 30.9154 10.0355C34.2172 11.4032 37.0394 13.7194 39.0249 16.691C41.0104 19.6627 42.0702 23.1564 42.0701 26.7303C42.0646 31.5211 40.159 36.1141 36.7714 39.5016C33.3838 42.8892 28.7908 44.7947 24 44.8001ZM24 9.30024C20.5527 9.30024 17.1827 10.3225 14.3164 12.2377C11.45 14.153 9.21597 16.8752 7.89673 20.0601C6.57748 23.245 6.23231 26.7497 6.90485 30.1308C7.5774 33.5119 9.23745 36.6176 11.6751 39.0553C14.1127 41.4929 17.2185 43.1529 20.5996 43.8255C23.9807 44.498 27.4853 44.1529 30.6702 42.8336C33.8552 41.5144 36.5774 39.2803 38.4926 36.414C40.4078 33.5476 41.4301 30.1777 41.4301 26.7303C41.4249 22.1092 39.5868 17.6788 36.3192 14.4112C33.0515 11.1436 28.6212 9.30549 24 9.30024Z" fill="#1E1E1E"/>
<path d="M25.6515 9.37589C25.5666 9.37589 25.4852 9.34217 25.4252 9.28216C25.3652 9.22215 25.3315 9.14076 25.3315 9.05589V6.62389H22.6684V9.05589C22.6684 9.14076 22.6347 9.22215 22.5747 9.28216C22.5147 9.34217 22.4333 9.37589 22.3484 9.37589C22.2636 9.37589 22.1822 9.34217 22.1222 9.28216C22.0622 9.22215 22.0284 9.14076 22.0284 9.05589V6.30389C22.0284 6.21902 22.0622 6.13762 22.1222 6.07761C22.1822 6.0176 22.2636 5.98389 22.3484 5.98389H25.6515C25.7364 5.98389 25.8177 6.0176 25.8778 6.07761C25.9378 6.13762 25.9715 6.21902 25.9715 6.30389V9.05589C25.9715 9.14076 25.9378 9.22215 25.8778 9.28216C25.8177 9.34217 25.7364 9.37589 25.6515 9.37589Z" fill="#1E1E1E"/>
<path d="M27.5069 6.62107H20.4931C20.4082 6.62107 20.3268 6.58736 20.2668 6.52735C20.2068 6.46733 20.1731 6.38594 20.1731 6.30107V3.51995C20.1731 3.43508 20.2068 3.35369 20.2668 3.29368C20.3268 3.23367 20.4082 3.19995 20.4931 3.19995H27.5069C27.5917 3.19995 27.6731 3.23367 27.7331 3.29368C27.7931 3.35369 27.8269 3.43508 27.8269 3.51995V6.30107C27.8269 6.38594 27.7931 6.46733 27.7331 6.52735C27.6731 6.58736 27.5917 6.62107 27.5069 6.62107ZM20.8131 5.98107H27.1869V3.83995H20.8131V5.98107Z" fill="#1E1E1E"/>
<path d="M24.0001 12.2422C23.9152 12.2422 23.8338 12.2085 23.7738 12.1485C23.7138 12.0885 23.6801 12.0071 23.6801 11.9222V8.98016C23.6801 8.89529 23.7138 8.81389 23.7738 8.75388C23.8338 8.69387 23.9152 8.66016 24.0001 8.66016C24.0849 8.66016 24.1663 8.69387 24.2263 8.75388C24.2863 8.81389 24.3201 8.89529 24.3201 8.98016V11.9222C24.3201 12.0071 24.2863 12.0885 24.2263 12.1485C24.1663 12.2085 24.0849 12.2422 24.0001 12.2422Z" fill="#1E1E1E"/>
<path d="M24.0001 44.8001C23.9152 44.8001 23.8338 44.7664 23.7738 44.7064C23.7138 44.6464 23.6801 44.565 23.6801 44.4801V41.538C23.6801 41.4531 23.7138 41.3718 23.7738 41.3117C23.8338 41.2517 23.9152 41.218 24.0001 41.218C24.0849 41.218 24.1663 41.2517 24.2263 41.3117C24.2863 41.3718 24.3201 41.4531 24.3201 41.538V44.4801C24.3201 44.565 24.2863 44.6464 24.2263 44.7064C24.1663 44.7664 24.0849 44.8001 24.0001 44.8001Z" fill="#1E1E1E"/>
<path d="M34.4711 16.5794C34.4078 16.5794 34.3459 16.5606 34.2933 16.5255C34.2407 16.4903 34.1997 16.4403 34.1755 16.3819C34.1513 16.3234 34.1449 16.2591 34.1573 16.197C34.1696 16.1349 34.2001 16.0779 34.2448 16.0332L36.3248 13.9532C36.3543 13.9226 36.3896 13.8982 36.4287 13.8814C36.4677 13.8647 36.5097 13.8559 36.5522 13.8555C36.5947 13.8551 36.6368 13.8632 36.6762 13.8793C36.7155 13.8954 36.7512 13.9191 36.7813 13.9492C36.8113 13.9792 36.8351 14.015 36.8512 14.0543C36.8672 14.0936 36.8753 14.1358 36.875 14.1782C36.8746 14.2207 36.8658 14.2627 36.849 14.3018C36.8322 14.3408 36.8079 14.3761 36.7773 14.4056L34.6973 16.4856C34.6373 16.5457 34.5559 16.5794 34.4711 16.5794Z" fill="#1E1E1E"/>
<path d="M11.449 39.6013C11.3857 39.6013 11.3238 39.5825 11.2712 39.5474C11.2186 39.5122 11.1776 39.4622 11.1534 39.4038C11.1292 39.3453 11.1228 39.281 11.1352 39.2189C11.1475 39.1568 11.178 39.0998 11.2227 39.0551L13.3027 36.9751C13.3631 36.9168 13.4439 36.8845 13.5278 36.8853C13.6117 36.886 13.692 36.9196 13.7513 36.979C13.8106 37.0383 13.8443 37.1186 13.845 37.2025C13.8457 37.2864 13.8135 37.3672 13.7552 37.4276L11.6752 39.5076C11.6152 39.5676 11.5338 39.6013 11.449 39.6013Z" fill="#1E1E1E"/>
<path d="M9.19233 27.0502H6.24993C6.16506 27.0502 6.08367 27.0164 6.02366 26.9564C5.96365 26.8964 5.92993 26.815 5.92993 26.7302C5.92993 26.6453 5.96365 26.5639 6.02366 26.5039C6.08367 26.4439 6.16506 26.4102 6.24993 26.4102H9.19393C9.2788 26.4102 9.36019 26.4439 9.42021 26.5039C9.48022 26.5639 9.51393 26.6453 9.51393 26.7302C9.51393 26.815 9.48022 26.8964 9.42021 26.9564C9.36019 27.0164 9.2788 27.0502 9.19393 27.0502H9.19233Z" fill="#1E1E1E"/>
<path d="M41.7501 27.0502H38.8077C38.7228 27.0502 38.6414 27.0164 38.5814 26.9564C38.5214 26.8964 38.4877 26.815 38.4877 26.7302C38.4877 26.6453 38.5214 26.5639 38.5814 26.5039C38.6414 26.4439 38.7228 26.4102 38.8077 26.4102H41.7501C41.8349 26.4102 41.9163 26.4439 41.9763 26.5039C42.0364 26.5639 42.0701 26.6453 42.0701 26.7302C42.0701 26.815 42.0364 26.8964 41.9763 26.9564C41.9163 27.0164 41.8349 27.0502 41.7501 27.0502Z" fill="#1E1E1E"/>
<path d="M13.5292 16.5796C13.4444 16.5796 13.363 16.5458 13.303 16.4858L11.223 14.4058C11.1628 14.3459 11.1289 14.2644 11.1288 14.1795C11.1286 14.0946 11.1622 14.013 11.2222 13.9529C11.2822 13.8927 11.3636 13.8588 11.4485 13.8586C11.5335 13.8585 11.615 13.8921 11.6752 13.9521L13.7552 16.0321C13.7999 16.0768 13.8304 16.1338 13.8427 16.1959C13.855 16.2579 13.8487 16.3223 13.8245 16.3807C13.8003 16.4392 13.7593 16.4892 13.7067 16.5243C13.6541 16.5595 13.5922 16.5783 13.5289 16.5783L13.5292 16.5796Z" fill="#1E1E1E"/>
<path d="M36.5511 39.6013C36.4662 39.6013 36.3849 39.5676 36.3249 39.5076L34.2449 37.4276C34.1866 37.3672 34.1543 37.2864 34.155 37.2025C34.1558 37.1186 34.1894 37.0383 34.2488 36.979C34.3081 36.9196 34.3883 36.886 34.4722 36.8853C34.5562 36.8845 34.637 36.9168 34.6973 36.9751L36.7773 39.0551C36.8221 39.0998 36.8525 39.1568 36.8649 39.2189C36.8772 39.281 36.8709 39.3453 36.8467 39.4038C36.8225 39.4622 36.7815 39.5122 36.7288 39.5474C36.6762 39.5825 36.6144 39.6013 36.5511 39.6013Z" fill="#1E1E1E"/>
</svg>
