<svg width="48" height="48" viewBox="0 0 48 48" fill="none" xmlns="http://www.w3.org/2000/svg">
<path d="M17.7325 26.5091H7.12261C7.03774 26.5091 6.95635 26.4754 6.89634 26.4154C6.83633 26.3554 6.80261 26.274 6.80261 26.1891C6.80261 26.1043 6.83633 26.0229 6.89634 25.9629C6.95635 25.9029 7.03774 25.8691 7.12261 25.8691H17.7325C17.8174 25.8691 17.8988 25.9029 17.9588 25.9629C18.0188 26.0229 18.0525 26.1043 18.0525 26.1891C18.0525 26.274 18.0188 26.3554 17.9588 26.4154C17.8988 26.4754 17.8174 26.5091 17.7325 26.5091Z" fill="#1E1E1E"/>
<path d="M16.832 26.5091C16.8125 26.5091 16.793 26.5074 16.7738 26.5039C16.6905 26.4884 16.6168 26.4405 16.5688 26.3706C16.5208 26.3008 16.5024 26.2148 16.5178 26.1315C16.5566 25.9138 16.5754 25.693 16.5741 25.4719C16.5508 24.3879 16.1037 23.3561 15.3288 22.5977C14.5539 21.8393 13.5128 21.4146 12.4285 21.4146C11.3442 21.4146 10.3031 21.8393 9.52814 22.5977C8.75323 23.3561 8.30622 24.3879 8.28289 25.4719C8.28148 25.693 8.30033 25.9138 8.33921 26.1315C8.34762 26.1731 8.34764 26.2161 8.33927 26.2577C8.33091 26.2994 8.31432 26.339 8.29048 26.3742C8.26664 26.4094 8.23603 26.4395 8.20043 26.4627C8.16483 26.486 8.12496 26.5019 8.08314 26.5095C8.04132 26.5172 7.9984 26.5164 7.95688 26.5073C7.91536 26.4982 7.87607 26.4809 7.84131 26.4564C7.80655 26.432 7.77702 26.4008 7.75443 26.3648C7.73185 26.3288 7.71666 26.2886 7.70977 26.2467C7.66384 25.991 7.64145 25.7317 7.64289 25.4719C7.66798 24.2193 8.1832 23.0265 9.07794 22.1495C9.97268 21.2725 11.1756 20.7812 12.4285 20.7812C13.6814 20.7812 14.8843 21.2725 15.779 22.1495C16.6738 23.0265 17.189 24.2193 17.2141 25.4719C17.2156 25.7318 17.1932 25.9912 17.1472 26.247C17.1336 26.3207 17.0947 26.3872 17.0371 26.4351C16.9795 26.483 16.9069 26.5092 16.832 26.5091Z" fill="#1E1E1E"/>
<path d="M12.4275 23.965C12.3427 23.965 12.2613 23.9313 12.2013 23.8713C12.1413 23.8113 12.1075 23.7299 12.1075 23.645V20.31C12.1075 20.2251 12.1413 20.1437 12.2013 20.0837C12.2613 20.0237 12.3427 19.99 12.4275 19.99C12.5124 19.99 12.5938 20.0237 12.6538 20.0837C12.7138 20.1437 12.7475 20.2251 12.7475 20.31V23.645C12.7475 23.7299 12.7138 23.8113 12.6538 23.8713C12.5938 23.9313 12.5124 23.965 12.4275 23.965Z" fill="#1E1E1E"/>
<path d="M12.4275 33.1092C12.2419 33.1093 12.0571 33.0849 11.8778 33.0369C9.38177 32.369 8.97409 30.4967 8.91105 29.7601C8.68862 29.705 8.48576 29.5895 8.32496 29.4263C8.16415 29.2631 8.05168 29.0585 8.00001 28.8353L7.80545 28.0058C7.77959 27.8956 7.77587 27.7814 7.79449 27.6697C7.81311 27.5581 7.8537 27.4513 7.91392 27.3554C7.97413 27.2596 8.05277 27.1766 8.14527 27.1114C8.23778 27.0462 8.34231 26.9999 8.45281 26.9754L8.31361 26.2493C8.29765 26.166 8.31548 26.0796 8.36315 26.0094C8.41083 25.9392 8.48446 25.8907 8.56785 25.8748C8.65123 25.8588 8.73754 25.8766 8.80778 25.9243C8.87803 25.972 8.92645 26.0456 8.94241 26.129L9.15009 27.2154C9.15895 27.2617 9.15748 27.3094 9.14578 27.355C9.13409 27.4006 9.11246 27.4431 9.08244 27.4795C9.05242 27.5158 9.01475 27.545 8.97213 27.5651C8.9295 27.5852 8.88296 27.5956 8.83585 27.5956H8.63681C8.60442 27.5956 8.57245 27.6029 8.54329 27.617C8.51413 27.6311 8.48853 27.6516 8.46841 27.677C8.44828 27.7024 8.43416 27.732 8.42708 27.7636C8.42 27.7952 8.42015 27.828 8.42753 27.8596L8.62209 28.689C8.65298 28.8226 8.72832 28.9416 8.83577 29.0268C8.94321 29.1119 9.07638 29.158 9.21345 29.1575C9.25778 29.1574 9.30167 29.1664 9.34243 29.1839C9.38319 29.2013 9.41998 29.2268 9.45057 29.2589C9.48104 29.2906 9.5047 29.3282 9.52011 29.3694C9.53552 29.4105 9.54235 29.4544 9.54017 29.4983C9.53505 29.5876 9.44417 31.7226 12.0432 32.4189C12.2948 32.4861 12.5596 32.4861 12.8112 32.4189C15.4278 31.7181 15.3155 29.5207 15.3139 29.4986C15.3111 29.4549 15.3172 29.411 15.332 29.3698C15.3468 29.3285 15.37 29.2907 15.4 29.2588C15.43 29.2268 15.4662 29.2014 15.5065 29.184C15.5467 29.1666 15.5901 29.1577 15.6339 29.1578C15.7721 29.1594 15.9067 29.1138 16.0155 29.0287C16.1244 28.9435 16.2009 28.8238 16.2326 28.6893L16.4272 27.8599C16.4346 27.8284 16.4347 27.7956 16.4277 27.764C16.4206 27.7324 16.4065 27.7029 16.3864 27.6775C16.3663 27.6521 16.3408 27.6316 16.3117 27.6175C16.2825 27.6033 16.2506 27.596 16.2182 27.5959H16.0198C15.9727 27.5959 15.9262 27.5855 15.8836 27.5654C15.8409 27.5453 15.8033 27.5161 15.7733 27.4798C15.7432 27.4435 15.7216 27.401 15.7099 27.3553C15.6982 27.3097 15.6968 27.262 15.7056 27.2157L15.9136 26.1293C15.9208 26.0874 15.9363 26.0474 15.9592 26.0116C15.9821 25.9757 16.0119 25.9448 16.0468 25.9206C16.0818 25.8964 16.1212 25.8795 16.1628 25.8707C16.2044 25.8619 16.2474 25.8615 16.2891 25.8695C16.3309 25.8775 16.3706 25.8937 16.406 25.9172C16.4414 25.9408 16.4718 25.9711 16.4954 26.0065C16.5189 26.0419 16.5352 26.0816 16.5432 26.1234C16.5512 26.1651 16.5508 26.2081 16.5421 26.2497L16.4035 26.9761C16.514 27.0007 16.6184 27.0469 16.7109 27.1122C16.8033 27.1774 16.8819 27.2604 16.9421 27.3562C17.0023 27.452 17.0429 27.5589 17.0615 27.6705C17.0801 27.7821 17.0764 27.8963 17.0506 28.0065L16.856 28.8359C16.8041 29.0591 16.6914 29.2636 16.5304 29.4267C16.3695 29.5898 16.1665 29.7052 15.944 29.7601C15.88 30.4977 15.4704 32.3684 12.9776 33.0359C12.7982 33.0843 12.6133 33.1089 12.4275 33.1092Z" fill="#1E1E1E"/>
<path d="M20.9996 43.9636H4.21179C3.94351 43.9634 3.68629 43.8567 3.49659 43.667C3.30689 43.4773 3.20021 43.22 3.19995 42.9518V38.7562C3.20024 38.2289 3.34024 37.711 3.60572 37.2553C3.8712 36.7996 4.25267 36.4224 4.71131 36.162C6.37147 35.2228 8.53307 34.0119 9.40411 33.5764C9.48336 33.5362 9.57019 33.5131 9.65895 33.5086C9.74771 33.5041 9.83642 33.5184 9.91931 33.5505C10.0062 33.5841 10.0852 33.6354 10.1513 33.7011C10.2174 33.7668 10.2692 33.8455 10.3033 33.9322C10.5088 34.3701 10.8348 34.7404 11.243 34.9997C11.6512 35.2591 12.1249 35.3968 12.6086 35.3968C13.0923 35.3968 13.5659 35.2591 13.9742 34.9997C14.3824 34.7404 14.7084 34.3701 14.9139 33.9322C14.9481 33.8456 14.9998 33.7669 15.0659 33.7012C15.132 33.6355 15.211 33.5842 15.2979 33.5505C15.3808 33.5186 15.4695 33.5045 15.5583 33.5091C15.647 33.5137 15.7338 33.5368 15.8131 33.577C16.6838 34.0126 18.8435 35.2231 20.5017 36.162C20.9602 36.4224 21.3415 36.7997 21.6068 37.2553C21.8722 37.7109 22.0121 38.2287 22.0124 38.7559V42.9521C22.012 43.2205 21.9051 43.4777 21.7152 43.6673C21.5254 43.857 21.268 43.9635 20.9996 43.9636ZM9.70779 34.1684C8.78619 34.6007 6.37979 35.953 5.02651 36.7191C4.66639 36.9236 4.36688 37.2198 4.15845 37.5776C3.95002 37.9355 3.84013 38.3421 3.83995 38.7562V42.9518C3.84004 43.0504 3.87924 43.1449 3.94895 43.2146C4.01867 43.2843 4.1132 43.3235 4.21179 43.3236H20.9996C21.0982 43.3234 21.1927 43.2842 21.2624 43.2145C21.3321 43.1448 21.3713 43.0503 21.3715 42.9518V38.7556C21.3713 38.3416 21.2615 37.935 21.0532 37.5773C20.8449 37.2195 20.5455 36.9233 20.1856 36.7188C18.8332 35.953 16.4297 34.601 15.5257 34.1492C15.2666 34.7078 14.8546 35.1816 14.3373 35.5157C13.8201 35.8498 13.2189 36.0306 12.6031 36.0372C11.9931 36.0321 11.397 35.8537 10.8844 35.5228C10.3718 35.1919 9.96374 34.7222 9.70779 34.1684Z" fill="#1E1E1E"/>
<path d="M15.2103 34.3703C15.1483 34.3702 15.0877 34.3522 15.0359 34.3184C14.8529 34.1995 14.6987 34.0412 14.5847 33.855C14.4707 33.6689 14.3998 33.4597 14.377 33.2426L14.2362 31.9191C14.2317 31.8773 14.2355 31.835 14.2474 31.7946C14.2593 31.7543 14.279 31.7167 14.3054 31.684C14.3588 31.6179 14.4362 31.5757 14.5207 31.5667C14.6051 31.5577 14.6897 31.5827 14.7557 31.636C14.8218 31.6894 14.864 31.7668 14.873 31.8512L15.0135 33.1747C15.0262 33.2974 15.0662 33.4157 15.1305 33.5209C15.1948 33.6261 15.2819 33.7155 15.3853 33.7827C15.4431 33.8204 15.4872 33.8757 15.511 33.9405C15.5348 34.0053 15.5371 34.076 15.5174 34.1422C15.4977 34.2083 15.4572 34.2663 15.4018 34.3076C15.3465 34.3488 15.2793 34.371 15.2103 34.3709V34.3703Z" fill="#1E1E1E"/>
<path d="M10.185 34.3158L10.0054 34.0502L9.84192 33.775L9.85696 33.7663C9.95755 33.7058 10.0441 33.6245 10.111 33.528C10.1779 33.4314 10.2235 33.3218 10.2448 33.2063L10.4368 32.1603C10.4522 32.0768 10.5002 32.0029 10.5702 31.9548C10.6401 31.9067 10.7263 31.8883 10.8098 31.9038C10.8932 31.9192 10.9671 31.9672 11.0152 32.0371C11.0633 32.1071 11.0817 32.1933 11.0662 32.2767L10.8742 33.3225C10.8364 33.5275 10.7553 33.722 10.6365 33.8933C10.5176 34.0646 10.3637 34.2086 10.185 34.3158Z" fill="#1E1E1E"/>
<path d="M40.5209 26.5091H29.9113C29.8264 26.5091 29.745 26.4754 29.685 26.4154C29.625 26.3554 29.5913 26.274 29.5913 26.1891C29.5913 26.1043 29.625 26.0229 29.685 25.9629C29.745 25.9029 29.8264 25.8691 29.9113 25.8691H40.5209C40.6058 25.8691 40.6872 25.9029 40.7472 25.9629C40.8072 26.0229 40.8409 26.1043 40.8409 26.1891C40.8409 26.274 40.8072 26.3554 40.7472 26.4154C40.6872 26.4754 40.6058 26.5091 40.5209 26.5091Z" fill="#1E1E1E"/>
<path d="M39.6201 26.5091C39.6007 26.5091 39.5813 26.5074 39.5622 26.504C39.4789 26.4885 39.4052 26.4405 39.3572 26.3707C39.3092 26.3009 39.2909 26.2148 39.3062 26.1315C39.3452 25.9139 39.3642 25.6931 39.3628 25.472C39.3377 24.3892 38.8898 23.3591 38.1151 22.6022C37.3404 21.8453 36.3002 21.4215 35.2171 21.4215C34.1339 21.4215 33.0938 21.8453 32.3191 22.6022C31.5443 23.3591 31.0965 24.3892 31.0713 25.472C31.07 25.6931 31.089 25.9139 31.128 26.1315C31.1422 26.2145 31.1231 26.2998 31.0748 26.3688C31.0266 26.4378 30.9531 26.485 30.8703 26.5002C30.7875 26.5154 30.702 26.4973 30.6324 26.45C30.5628 26.4026 30.5147 26.3297 30.4985 26.247C30.4527 25.9913 30.4304 25.7318 30.432 25.472C30.4549 24.2179 30.9692 23.0229 31.8642 22.1441C32.7592 21.2653 33.9634 20.7729 35.2177 20.7729C36.472 20.7729 37.6762 21.2653 38.5712 22.1441C39.4663 23.0229 39.9805 24.2179 40.0035 25.472C40.0048 25.7319 39.9823 25.9913 39.9363 26.247C39.9227 26.3209 39.8836 26.3876 39.8258 26.4355C39.768 26.4834 39.6952 26.5095 39.6201 26.5091Z" fill="#1E1E1E"/>
<path d="M35.2164 23.965C35.1315 23.965 35.0501 23.9313 34.9901 23.8713C34.9301 23.8113 34.8964 23.7299 34.8964 23.645V20.31C34.8964 20.2251 34.9301 20.1437 34.9901 20.0837C35.0501 20.0237 35.1315 19.99 35.2164 19.99C35.3012 19.99 35.3826 20.0237 35.4426 20.0837C35.5026 20.1437 35.5364 20.2251 35.5364 20.31V23.645C35.5364 23.7299 35.5026 23.8113 35.4426 23.8713C35.3826 23.9313 35.3012 23.965 35.2164 23.965Z" fill="#1E1E1E"/>
<path d="M35.216 33.109C35.0304 33.1091 34.8456 33.0848 34.6663 33.0367C32.1722 32.3688 31.7626 30.4965 31.6999 29.7599C31.4772 29.7051 31.2741 29.5897 31.1131 29.4264C30.9521 29.2631 30.8395 29.0585 30.7879 28.8351L30.592 28.0056C30.5662 27.8955 30.5625 27.7813 30.5811 27.6697C30.5997 27.558 30.6403 27.4512 30.7005 27.3554C30.7607 27.2596 30.8392 27.1766 30.9317 27.1114C31.0241 27.0461 31.1286 26.9998 31.2391 26.9752L31.0999 26.2492C31.0839 26.1658 31.1017 26.0795 31.1494 26.0092C31.1971 25.939 31.2707 25.8906 31.3541 25.8746C31.4375 25.8586 31.5238 25.8765 31.594 25.9241C31.6643 25.9718 31.7127 26.0455 31.7287 26.1288L31.9367 27.2152C31.9455 27.2615 31.944 27.3092 31.9323 27.3549C31.9206 27.4006 31.899 27.4431 31.8689 27.4794C31.8389 27.5157 31.8011 27.545 31.7585 27.565C31.7158 27.5851 31.6692 27.5954 31.6221 27.5954H31.424C31.3916 27.5953 31.3596 27.6026 31.3304 27.6167C31.3013 27.6308 31.2756 27.6513 31.2555 27.6767C31.2354 27.7021 31.2213 27.7318 31.2143 27.7634C31.2073 27.7951 31.2076 27.8279 31.2151 27.8594L31.4096 28.6888C31.4405 28.8223 31.5158 28.9414 31.6232 29.0265C31.7306 29.1116 31.8636 29.1577 32.0007 29.1573C32.045 29.1573 32.089 29.1662 32.1298 29.1837C32.1706 29.2011 32.2075 29.2267 32.2381 29.2588C32.2686 29.2904 32.2922 29.328 32.3076 29.3692C32.3231 29.4103 32.3299 29.4542 32.3277 29.4981C32.3226 29.5874 32.2317 31.7224 34.8304 32.4188C35.082 32.4858 35.3468 32.4858 35.5984 32.4188C38.2154 31.7176 38.1027 29.5202 38.1011 29.4981C38.0983 29.4544 38.1045 29.4105 38.1193 29.3693C38.1341 29.328 38.1572 29.2902 38.1872 29.2583C38.2172 29.2263 38.2534 29.2009 38.2937 29.1835C38.3339 29.1661 38.3773 29.1572 38.4211 29.1573C38.5593 29.1589 38.6939 29.1134 38.8027 29.0282C38.9116 28.943 38.9882 28.8233 39.0199 28.6888L39.2144 27.8594C39.2219 27.8279 39.2222 27.7951 39.2152 27.7634C39.2081 27.7318 39.1941 27.7021 39.1739 27.6767C39.1538 27.6513 39.1282 27.6308 39.099 27.6167C39.0699 27.6026 39.0379 27.5953 39.0055 27.5954H38.8074C38.7602 27.5954 38.7137 27.5851 38.671 27.565C38.6283 27.545 38.5906 27.5157 38.5606 27.4794C38.5305 27.4431 38.5089 27.4006 38.4971 27.3549C38.4854 27.3092 38.484 27.2615 38.4928 27.2152L38.7008 26.1288C38.7168 26.0455 38.7652 25.9718 38.8354 25.9241C38.8702 25.9005 38.9093 25.884 38.9505 25.8755C38.9917 25.867 39.0341 25.8667 39.0754 25.8746C39.1167 25.8825 39.156 25.8985 39.1911 25.9216C39.2262 25.9447 39.2565 25.9744 39.2801 26.0092C39.3037 26.044 39.3202 26.0831 39.3287 26.1243C39.3372 26.1654 39.3375 26.2079 39.3296 26.2492L39.1904 26.9752C39.3009 26.9999 39.4054 27.0461 39.4978 27.1114C39.5903 27.1766 39.6689 27.2596 39.7291 27.3554C39.7893 27.4512 39.8299 27.558 39.8485 27.6696C39.8672 27.7812 39.8635 27.8954 39.8378 28.0056L39.6429 28.8351C39.5913 29.0582 39.4789 29.2627 39.3182 29.426C39.1575 29.5892 38.9548 29.7048 38.7325 29.7599C38.6685 30.4975 38.2592 32.3682 35.7664 33.0357C35.5869 33.0841 35.4019 33.1088 35.216 33.109Z" fill="#1E1E1E"/>
<path d="M43.7882 43.9636H27.0004C26.7321 43.9633 26.4749 43.8565 26.2853 43.6669C26.0956 43.4772 25.9889 43.22 25.9885 42.9517V38.7562C25.9887 38.2288 26.1288 37.7108 26.3943 37.2551C26.6599 36.7994 27.0414 36.4222 27.5002 36.162C29.16 35.2228 31.3216 34.0119 32.1927 33.5764C32.272 33.5362 32.3589 33.5131 32.4477 33.5086C32.5365 33.5041 32.6253 33.5184 32.7082 33.5505C32.7952 33.5841 32.8742 33.6355 32.9403 33.7012C33.0064 33.767 33.0581 33.8458 33.0922 33.9325C33.2977 34.3704 33.6236 34.7407 34.0319 35C34.4401 35.2594 34.9138 35.3971 35.3975 35.3971C35.8812 35.3971 36.3548 35.2594 36.7631 35C37.1713 34.7407 37.4973 34.3704 37.7028 33.9325C37.7368 33.8458 37.7886 33.7671 37.8547 33.7015C37.9208 33.6358 37.9998 33.5846 38.0868 33.5511C38.1697 33.5191 38.2584 33.5049 38.3472 33.5094C38.4359 33.5139 38.5227 33.5371 38.602 33.5773C39.472 34.0122 41.632 35.2231 43.2906 36.1623C43.7487 36.4229 44.1297 36.8 44.3948 37.2555C44.6599 37.711 44.7998 38.2286 44.8 38.7556V42.9517C44.7998 43.22 44.6931 43.4772 44.5034 43.6669C44.3137 43.8566 44.0565 43.9633 43.7882 43.9636ZM32.4967 34.1684C31.5748 34.601 29.1687 35.9533 27.8151 36.7191C27.455 36.9236 27.1555 37.2198 26.947 37.5776C26.7386 37.9354 26.6287 38.3421 26.6285 38.7562V42.9517C26.6287 43.0503 26.6679 43.1448 26.7376 43.2145C26.8073 43.2842 26.9018 43.3234 27.0004 43.3236H43.7882C43.8868 43.3235 43.9813 43.2843 44.051 43.2146C44.1208 43.1449 44.16 43.0503 44.16 42.9517V38.7556C44.1599 38.3416 44.0501 37.935 43.8418 37.5772C43.6335 37.2195 43.3341 36.9233 42.9741 36.7188C41.6215 35.953 39.2176 34.6007 38.3143 34.1492C38.0552 34.7077 37.6432 35.1815 37.1261 35.5156C36.6089 35.8497 36.0077 36.0305 35.392 36.0372C34.782 36.032 34.1859 35.8536 33.6733 35.5228C33.1607 35.1919 32.7526 34.7222 32.4967 34.1684Z" fill="#1E1E1E"/>
<path d="M37.999 34.3703C37.9371 34.3702 37.8765 34.3522 37.8246 34.3184C37.6416 34.1995 37.4875 34.0412 37.3735 33.855C37.2595 33.6689 37.1885 33.4597 37.1657 33.2426L37.0249 31.9191C37.0183 31.836 37.0444 31.7535 37.0977 31.6894C37.1509 31.6252 37.2271 31.5844 37.31 31.5755C37.3929 31.5667 37.476 31.5906 37.5416 31.642C37.6071 31.6935 37.65 31.7686 37.6611 31.8512L37.8022 33.1747C37.8149 33.2974 37.8549 33.4157 37.9193 33.5209C37.9836 33.6261 38.0707 33.7155 38.174 33.7827C38.2319 33.8204 38.276 33.8757 38.2998 33.9405C38.3236 34.0053 38.3258 34.076 38.3061 34.1422C38.2865 34.2083 38.2459 34.2663 38.1906 34.3076C38.1352 34.3488 38.068 34.371 37.999 34.3709V34.3703Z" fill="#1E1E1E"/>
<path d="M32.9734 34.3158L32.7939 34.0502L32.6304 33.775L32.6454 33.7663C32.7459 33.7056 32.8324 33.6244 32.8993 33.5279C32.9661 33.4313 33.0118 33.3218 33.0332 33.2063L33.2269 32.1603C33.2423 32.0768 33.2903 32.0029 33.3602 31.9548C33.4302 31.9067 33.5163 31.8883 33.5998 31.9038C33.6833 31.9192 33.7572 31.9672 33.8053 32.0371C33.8534 32.1071 33.8717 32.1933 33.8563 32.2767L33.6627 33.3225C33.6247 33.5274 33.5436 33.7219 33.4247 33.8932C33.3059 34.0644 33.1521 34.2085 32.9734 34.3158Z" fill="#1E1E1E"/>
<path d="M30.247 11.84H17.319C17.2342 11.84 17.1528 11.8062 17.0927 11.7462C17.0327 11.6862 16.999 11.6048 16.999 11.52C16.999 11.4351 17.0327 11.3537 17.0927 11.2937C17.1528 11.2337 17.2342 11.2 17.319 11.2H30.247C30.3319 11.2 30.4133 11.2337 30.4733 11.2937C30.5333 11.3537 30.567 11.4351 30.567 11.52C30.567 11.6048 30.5333 11.6862 30.4733 11.7462C30.4133 11.8062 30.3319 11.84 30.247 11.84Z" fill="#1E1E1E"/>
<path d="M18.4163 11.8399C18.3416 11.8398 18.2693 11.8136 18.2119 11.7658C18.1545 11.718 18.1157 11.6516 18.1021 11.5782C18.0466 11.2706 18.0196 10.9586 18.0214 10.646C18.0512 9.13766 18.6713 7.70112 19.7485 6.64491C20.8257 5.58871 22.2742 4.99707 23.7829 4.99707C25.2915 4.99707 26.74 5.58871 27.8173 6.64491C28.8945 7.70112 29.5146 9.13766 29.5443 10.646C29.5461 10.9584 29.5192 11.2704 29.464 11.5779C29.4478 11.6605 29.3997 11.7334 29.3301 11.7808C29.2605 11.8282 29.175 11.8462 29.0922 11.831C29.0094 11.8158 28.9359 11.7686 28.8877 11.6996C28.8395 11.6306 28.8204 11.5453 28.8346 11.4623C28.8827 11.1929 28.9061 10.9197 28.9043 10.646C28.8726 9.30876 28.3191 8.03694 27.3621 7.10237C26.4051 6.16779 25.1205 5.6446 23.7829 5.6446C22.4452 5.6446 21.1607 6.16779 20.2037 7.10237C19.2467 8.03694 18.6932 9.30876 18.6614 10.646C18.6598 10.9196 18.6832 11.1927 18.7315 11.462C18.747 11.5454 18.7287 11.6315 18.6807 11.7014C18.6327 11.7713 18.5589 11.8193 18.4755 11.8348C18.456 11.8383 18.4362 11.84 18.4163 11.8399Z" fill="#1E1E1E"/>
<path d="M23.783 8.74013C23.6981 8.74013 23.6167 8.70642 23.5567 8.64641C23.4967 8.5864 23.463 8.505 23.463 8.42013V4.35613C23.463 4.27126 23.4967 4.18987 23.5567 4.12986C23.6167 4.06985 23.6981 4.03613 23.783 4.03613C23.8679 4.03613 23.9493 4.06985 24.0093 4.12986C24.0693 4.18987 24.103 4.27126 24.103 4.35613V8.42013C24.103 8.505 24.0693 8.5864 24.0093 8.64641C23.9493 8.70642 23.8679 8.74013 23.783 8.74013Z" fill="#1E1E1E"/>
<path d="M23.783 19.8823C23.5628 19.8823 23.3436 19.8536 23.1309 19.7968C20.0713 18.976 19.6237 16.6551 19.5632 15.8144C19.2942 15.7579 19.0469 15.6257 18.8505 15.4333C18.6541 15.241 18.5168 14.9965 18.4547 14.7287L18.2176 13.7175C18.1868 13.5866 18.1835 13.4508 18.2079 13.3186C18.2323 13.1865 18.2838 13.0608 18.3592 12.9495C18.4346 12.8382 18.5323 12.7438 18.6461 12.6722C18.7598 12.6006 18.8872 12.5534 19.0201 12.5335L18.8374 11.5792C18.8215 11.4959 18.8393 11.4096 18.887 11.3393C18.9346 11.2691 19.0083 11.2206 19.0917 11.2047C19.175 11.1887 19.2614 11.2066 19.3316 11.2542C19.4018 11.3019 19.4503 11.3755 19.4662 11.4589L19.7197 12.7828C19.7285 12.8291 19.7271 12.8768 19.7153 12.9224C19.7036 12.9681 19.682 13.0106 19.6519 13.0469C19.6219 13.0832 19.5842 13.1125 19.5415 13.1325C19.4988 13.1526 19.4522 13.163 19.4051 13.1629H19.1635C19.1135 13.163 19.0642 13.1743 19.0192 13.1961C18.9742 13.2178 18.9347 13.2495 18.9037 13.2886C18.8727 13.3278 18.8509 13.3735 18.8399 13.4222C18.829 13.471 18.8293 13.5216 18.8406 13.5703L19.0781 14.5815C19.1192 14.7595 19.2196 14.9183 19.3628 15.0318C19.506 15.1453 19.6835 15.2068 19.8662 15.2061C19.9107 15.2061 19.9547 15.215 19.9956 15.2324C20.0365 15.2498 20.0735 15.2752 20.1043 15.3072C20.1349 15.3389 20.1587 15.3765 20.1743 15.4178C20.1898 15.459 20.1968 15.5029 20.1949 15.5469C20.1881 15.6586 20.0701 18.3133 23.2963 19.1776C23.6152 19.2627 23.9508 19.2627 24.2697 19.1776C27.496 18.3136 27.3776 15.6576 27.3712 15.546C27.3685 15.5023 27.3747 15.4585 27.3896 15.4174C27.4045 15.3763 27.4276 15.3386 27.4576 15.3068C27.4876 15.2749 27.5238 15.2495 27.564 15.2322C27.6041 15.2149 27.6474 15.206 27.6912 15.2061C27.8753 15.2083 28.0546 15.1475 28.1996 15.034C28.3445 14.9204 28.4464 14.7608 28.4883 14.5815L28.7257 13.5703C28.7371 13.5216 28.7374 13.471 28.7264 13.4222C28.7155 13.3735 28.6937 13.3278 28.6627 13.2886C28.6316 13.2495 28.5921 13.2178 28.5471 13.1961C28.5022 13.1743 28.4528 13.163 28.4029 13.1629H28.16C28.1129 13.1629 28.0663 13.1525 28.0237 13.1324C27.9811 13.1124 27.9434 13.0831 27.9134 13.0468C27.8834 13.0105 27.8617 12.968 27.85 12.9223C27.8384 12.8767 27.8369 12.829 27.8457 12.7828L28.0992 11.4589C28.1064 11.417 28.1219 11.377 28.1448 11.3412C28.1677 11.3053 28.1975 11.2744 28.2324 11.2502C28.2674 11.226 28.3068 11.209 28.3484 11.2003C28.39 11.1915 28.4329 11.1911 28.4747 11.1991C28.5164 11.2071 28.5562 11.2233 28.5916 11.2468C28.627 11.2703 28.6574 11.3007 28.6809 11.3361C28.7045 11.3715 28.7207 11.4112 28.7288 11.453C28.7368 11.4947 28.7364 11.5376 28.7277 11.5792L28.5453 12.5335C28.6782 12.5535 28.8055 12.6007 28.9192 12.6724C29.0329 12.744 29.1305 12.8384 29.2059 12.9497C29.2812 13.0609 29.3327 13.1866 29.3571 13.3187C29.3815 13.4509 29.3782 13.5867 29.3475 13.7175L29.1104 14.7287C29.0485 14.9968 28.9112 15.2416 28.7149 15.4344C28.5185 15.6271 28.2711 15.7598 28.0019 15.8167C27.9414 16.658 27.4928 18.9786 24.4345 19.7978C24.222 19.8542 24.0029 19.8826 23.783 19.8823Z" fill="#1E1E1E"/>
<path d="M23.9958 23.4492C23.2665 23.4432 22.554 23.2301 21.9413 22.8347C21.3285 22.4393 20.8407 21.8779 20.5347 21.2159C20.5295 21.2017 20.5214 21.1886 20.5109 21.1776C20.5004 21.1666 20.4878 21.1579 20.4739 21.1519C20.4653 21.1485 20.4561 21.1471 20.4469 21.1478C20.4377 21.1484 20.4287 21.1512 20.4208 21.1558C19.7612 21.4841 18.3894 22.2326 16.3388 23.383C16.2629 23.4212 16.1749 23.4276 16.0941 23.4009C16.0134 23.3742 15.9466 23.3165 15.9084 23.2406C15.8702 23.1646 15.8638 23.0766 15.8905 22.9959C15.9172 22.9152 15.9749 22.8484 16.0508 22.8102C18.0956 21.663 19.4684 20.9142 20.1302 20.5849C20.217 20.5401 20.3123 20.5141 20.4098 20.5086C20.5074 20.5031 20.605 20.5182 20.6963 20.5529C20.7939 20.5901 20.8828 20.6473 20.9571 20.7208C21.0314 20.7943 21.0896 20.8825 21.128 20.9798C21.3835 21.5263 21.7895 21.9886 22.2985 22.3125C22.8075 22.6364 23.3983 22.8084 24.0016 22.8084C24.6048 22.8084 25.1956 22.6364 25.7046 22.3125C26.2136 21.9886 26.6196 21.5263 26.8752 20.9798C26.9134 20.8824 26.9716 20.7941 27.0459 20.7205C27.1202 20.6469 27.2091 20.5896 27.3068 20.5523C27.399 20.5175 27.4975 20.5026 27.5958 20.5086C27.6941 20.5146 27.7901 20.5412 27.8774 20.5868C28.5043 20.8975 29.7584 21.5788 31.7062 22.6723C31.77 22.7048 31.8211 22.7577 31.8512 22.8227C31.8813 22.8876 31.8888 22.9608 31.8725 23.0305C31.8561 23.1003 31.8168 23.1625 31.7609 23.2072C31.705 23.252 31.6357 23.2767 31.5641 23.2774C31.5082 23.2774 31.4532 23.2633 31.4041 23.2364C29.4595 22.1465 28.2115 21.4665 27.5884 21.1564C27.5799 21.1511 27.5702 21.1477 27.5602 21.1467C27.5501 21.1456 27.54 21.1469 27.5305 21.1503C27.5166 21.1564 27.504 21.1651 27.4936 21.1761C27.4831 21.1871 27.475 21.2001 27.4697 21.2143C27.1619 21.8777 26.6719 22.4399 26.0569 22.8356C25.4418 23.2313 24.7271 23.4441 23.9958 23.4492Z" fill="#1E1E1E"/>
<path d="M27.1741 21.4189C27.1122 21.419 27.0516 21.401 26.9997 21.3671C26.7854 21.2279 26.6049 21.0426 26.4714 20.8246C26.3379 20.6067 26.2548 20.3617 26.2282 20.1075L26.0564 18.4947C26.0519 18.4529 26.0557 18.4107 26.0676 18.3703C26.0795 18.33 26.0992 18.2924 26.1256 18.2597C26.1521 18.227 26.1847 18.1998 26.2216 18.1796C26.2585 18.1595 26.299 18.1469 26.3408 18.1424C26.3827 18.138 26.4249 18.1418 26.4653 18.1537C26.5056 18.1656 26.5432 18.1853 26.5759 18.2117C26.6086 18.2381 26.6358 18.2707 26.6559 18.3076C26.6761 18.3446 26.6887 18.3851 26.6932 18.4269L26.8647 20.0397C26.8812 20.1996 26.9333 20.3537 27.0171 20.4908C27.1009 20.6279 27.2144 20.7445 27.3492 20.832C27.407 20.8697 27.4511 20.925 27.4749 20.9898C27.4987 21.0546 27.5009 21.1253 27.4813 21.1915C27.4616 21.2576 27.421 21.3156 27.3657 21.3568C27.3103 21.3981 27.2431 21.4203 27.1741 21.4202V21.4189Z" fill="#1E1E1E"/>
<path d="M20.8425 21.4099C20.7874 21.4107 20.733 21.3972 20.6846 21.3707C20.6362 21.3442 20.5955 21.3057 20.5664 21.2589C20.544 21.224 20.5288 21.185 20.5217 21.1441C20.5146 21.1033 20.5157 21.0614 20.525 21.021C20.5343 20.9806 20.5516 20.9425 20.5759 20.9089C20.6001 20.8753 20.6308 20.8468 20.6662 20.8253L20.6841 20.8144C20.8157 20.7355 20.929 20.6295 21.0166 20.5035C21.1041 20.3775 21.1639 20.2343 21.192 20.0835L21.4275 18.8089C21.4429 18.7255 21.4909 18.6516 21.5609 18.6035C21.6308 18.5554 21.717 18.537 21.8005 18.5525C21.8839 18.5679 21.9578 18.6159 22.0059 18.6858C22.054 18.7558 22.0724 18.842 22.0569 18.9254L21.8211 20.2C21.7767 20.4399 21.6817 20.6676 21.5426 20.8681C21.4035 21.0685 21.2233 21.237 21.0141 21.3625C20.9623 21.3937 20.903 21.41 20.8425 21.4099Z" fill="#1E1E1E"/>
<path d="M17.7325 26.5091H7.12261C7.03774 26.5091 6.95635 26.4754 6.89634 26.4154C6.83633 26.3554 6.80261 26.274 6.80261 26.1891C6.80261 26.1043 6.83633 26.0229 6.89634 25.9629C6.95635 25.9029 7.03774 25.8691 7.12261 25.8691H17.7325C17.8174 25.8691 17.8988 25.9029 17.9588 25.9629C18.0188 26.0229 18.0525 26.1043 18.0525 26.1891C18.0525 26.274 18.0188 26.3554 17.9588 26.4154C17.8988 26.4754 17.8174 26.5091 17.7325 26.5091Z" fill="#1E1E1E"/>
<path d="M16.832 26.5091C16.8125 26.5091 16.793 26.5074 16.7738 26.5039C16.6905 26.4884 16.6168 26.4405 16.5688 26.3706C16.5208 26.3008 16.5024 26.2148 16.5178 26.1315C16.5566 25.9138 16.5754 25.693 16.5741 25.4719C16.5508 24.3879 16.1037 23.3561 15.3288 22.5977C14.5539 21.8393 13.5128 21.4146 12.4285 21.4146C11.3442 21.4146 10.3031 21.8393 9.52814 22.5977C8.75323 23.3561 8.30622 24.3879 8.28289 25.4719C8.28148 25.693 8.30033 25.9138 8.33921 26.1315C8.34762 26.1731 8.34764 26.2161 8.33927 26.2577C8.33091 26.2994 8.31432 26.339 8.29048 26.3742C8.26664 26.4094 8.23603 26.4395 8.20043 26.4627C8.16483 26.486 8.12496 26.5019 8.08314 26.5095C8.04132 26.5172 7.9984 26.5164 7.95688 26.5073C7.91536 26.4982 7.87607 26.4809 7.84131 26.4564C7.80655 26.432 7.77702 26.4008 7.75443 26.3648C7.73185 26.3288 7.71666 26.2886 7.70977 26.2467C7.66384 25.991 7.64145 25.7317 7.64289 25.4719C7.66798 24.2193 8.1832 23.0265 9.07794 22.1495C9.97268 21.2725 11.1756 20.7812 12.4285 20.7812C13.6814 20.7812 14.8843 21.2725 15.779 22.1495C16.6738 23.0265 17.189 24.2193 17.2141 25.4719C17.2156 25.7318 17.1932 25.9912 17.1472 26.247C17.1336 26.3207 17.0947 26.3872 17.0371 26.4351C16.9795 26.483 16.9069 26.5092 16.832 26.5091Z" fill="#1E1E1E"/>
<path d="M12.4275 23.965C12.3427 23.965 12.2613 23.9313 12.2013 23.8713C12.1413 23.8113 12.1075 23.7299 12.1075 23.645V20.31C12.1075 20.2251 12.1413 20.1437 12.2013 20.0837C12.2613 20.0237 12.3427 19.99 12.4275 19.99C12.5124 19.99 12.5938 20.0237 12.6538 20.0837C12.7138 20.1437 12.7475 20.2251 12.7475 20.31V23.645C12.7475 23.7299 12.7138 23.8113 12.6538 23.8713C12.5938 23.9313 12.5124 23.965 12.4275 23.965Z" fill="#1E1E1E"/>
<path d="M12.4275 33.1092C12.2419 33.1093 12.0571 33.0849 11.8778 33.0369C9.38177 32.369 8.97409 30.4967 8.91105 29.7601C8.68862 29.705 8.48576 29.5895 8.32496 29.4263C8.16415 29.2631 8.05168 29.0585 8.00001 28.8353L7.80545 28.0058C7.77959 27.8956 7.77587 27.7814 7.79449 27.6697C7.81311 27.5581 7.8537 27.4513 7.91392 27.3554C7.97413 27.2596 8.05277 27.1766 8.14527 27.1114C8.23778 27.0462 8.34231 26.9999 8.45281 26.9754L8.31361 26.2493C8.29765 26.166 8.31548 26.0796 8.36315 26.0094C8.41083 25.9392 8.48446 25.8907 8.56785 25.8748C8.65123 25.8588 8.73754 25.8766 8.80778 25.9243C8.87803 25.972 8.92645 26.0456 8.94241 26.129L9.15009 27.2154C9.15895 27.2617 9.15748 27.3094 9.14578 27.355C9.13409 27.4006 9.11246 27.4431 9.08244 27.4795C9.05242 27.5158 9.01475 27.545 8.97213 27.5651C8.9295 27.5852 8.88296 27.5956 8.83585 27.5956H8.63681C8.60442 27.5956 8.57245 27.6029 8.54329 27.617C8.51413 27.6311 8.48853 27.6516 8.46841 27.677C8.44828 27.7024 8.43416 27.732 8.42708 27.7636C8.42 27.7952 8.42015 27.828 8.42753 27.8596L8.62209 28.689C8.65298 28.8226 8.72832 28.9416 8.83577 29.0268C8.94321 29.1119 9.07638 29.158 9.21345 29.1575C9.25778 29.1574 9.30167 29.1664 9.34243 29.1839C9.38319 29.2013 9.41998 29.2268 9.45057 29.2589C9.48104 29.2906 9.5047 29.3282 9.52011 29.3694C9.53552 29.4105 9.54235 29.4544 9.54017 29.4983C9.53505 29.5876 9.44417 31.7226 12.0432 32.4189C12.2948 32.4861 12.5596 32.4861 12.8112 32.4189C15.4278 31.7181 15.3155 29.5207 15.3139 29.4986C15.3111 29.4549 15.3172 29.411 15.332 29.3698C15.3468 29.3285 15.37 29.2907 15.4 29.2588C15.43 29.2268 15.4662 29.2014 15.5065 29.184C15.5467 29.1666 15.5901 29.1577 15.6339 29.1578C15.7721 29.1594 15.9067 29.1138 16.0155 29.0287C16.1244 28.9435 16.2009 28.8238 16.2326 28.6893L16.4272 27.8599C16.4346 27.8284 16.4347 27.7956 16.4277 27.764C16.4206 27.7324 16.4065 27.7029 16.3864 27.6775C16.3663 27.6521 16.3408 27.6316 16.3117 27.6175C16.2825 27.6033 16.2506 27.596 16.2182 27.5959H16.0198C15.9727 27.5959 15.9262 27.5855 15.8836 27.5654C15.8409 27.5453 15.8033 27.5161 15.7733 27.4798C15.7432 27.4435 15.7216 27.401 15.7099 27.3553C15.6982 27.3097 15.6968 27.262 15.7056 27.2157L15.9136 26.1293C15.9208 26.0874 15.9363 26.0474 15.9592 26.0116C15.9821 25.9757 16.0119 25.9448 16.0468 25.9206C16.0818 25.8964 16.1212 25.8795 16.1628 25.8707C16.2044 25.8619 16.2474 25.8615 16.2891 25.8695C16.3309 25.8775 16.3706 25.8937 16.406 25.9172C16.4414 25.9408 16.4718 25.9711 16.4954 26.0065C16.5189 26.0419 16.5352 26.0816 16.5432 26.1234C16.5512 26.1651 16.5508 26.2081 16.5421 26.2497L16.4035 26.9761C16.514 27.0007 16.6184 27.0469 16.7109 27.1122C16.8033 27.1774 16.8819 27.2604 16.9421 27.3562C17.0023 27.452 17.0429 27.5589 17.0615 27.6705C17.0801 27.7821 17.0764 27.8963 17.0506 28.0065L16.856 28.8359C16.8041 29.0591 16.6914 29.2636 16.5304 29.4267C16.3695 29.5898 16.1665 29.7052 15.944 29.7601C15.88 30.4977 15.4704 32.3684 12.9776 33.0359C12.7982 33.0843 12.6133 33.1089 12.4275 33.1092Z" fill="#1E1E1E"/>
<path d="M20.9996 43.9636H4.21179C3.94351 43.9634 3.68629 43.8567 3.49659 43.667C3.30689 43.4773 3.20021 43.22 3.19995 42.9518V38.7562C3.20024 38.2289 3.34024 37.711 3.60572 37.2553C3.8712 36.7996 4.25267 36.4224 4.71131 36.162C6.37147 35.2228 8.53307 34.0119 9.40411 33.5764C9.48336 33.5362 9.57019 33.5131 9.65895 33.5086C9.74771 33.5041 9.83642 33.5184 9.91931 33.5505C10.0062 33.5841 10.0852 33.6354 10.1513 33.7011C10.2174 33.7668 10.2692 33.8455 10.3033 33.9322C10.5088 34.3701 10.8348 34.7404 11.243 34.9997C11.6512 35.2591 12.1249 35.3968 12.6086 35.3968C13.0923 35.3968 13.5659 35.2591 13.9742 34.9997C14.3824 34.7404 14.7084 34.3701 14.9139 33.9322C14.9481 33.8456 14.9998 33.7669 15.0659 33.7012C15.132 33.6355 15.211 33.5842 15.2979 33.5505C15.3808 33.5186 15.4695 33.5045 15.5583 33.5091C15.647 33.5137 15.7338 33.5368 15.8131 33.577C16.6838 34.0126 18.8435 35.2231 20.5017 36.162C20.9602 36.4224 21.3415 36.7997 21.6068 37.2553C21.8722 37.7109 22.0121 38.2287 22.0124 38.7559V42.9521C22.012 43.2205 21.9051 43.4777 21.7152 43.6673C21.5254 43.857 21.268 43.9635 20.9996 43.9636ZM9.70779 34.1684C8.78619 34.6007 6.37979 35.953 5.02651 36.7191C4.66639 36.9236 4.36688 37.2198 4.15845 37.5776C3.95002 37.9355 3.84013 38.3421 3.83995 38.7562V42.9518C3.84004 43.0504 3.87924 43.1449 3.94895 43.2146C4.01867 43.2843 4.1132 43.3235 4.21179 43.3236H20.9996C21.0982 43.3234 21.1927 43.2842 21.2624 43.2145C21.3321 43.1448 21.3713 43.0503 21.3715 42.9518V38.7556C21.3713 38.3416 21.2615 37.935 21.0532 37.5773C20.8449 37.2195 20.5455 36.9233 20.1856 36.7188C18.8332 35.953 16.4297 34.601 15.5257 34.1492C15.2666 34.7078 14.8546 35.1816 14.3373 35.5157C13.8201 35.8498 13.2189 36.0306 12.6031 36.0372C11.9931 36.0321 11.397 35.8537 10.8844 35.5228C10.3718 35.1919 9.96374 34.7222 9.70779 34.1684Z" fill="#1E1E1E"/>
<path d="M15.2103 34.3703C15.1483 34.3702 15.0877 34.3522 15.0359 34.3184C14.8529 34.1995 14.6987 34.0412 14.5847 33.855C14.4707 33.6689 14.3998 33.4597 14.377 33.2426L14.2362 31.9191C14.2317 31.8773 14.2355 31.835 14.2474 31.7946C14.2593 31.7543 14.279 31.7167 14.3054 31.684C14.3588 31.6179 14.4362 31.5757 14.5207 31.5667C14.6051 31.5577 14.6897 31.5827 14.7557 31.636C14.8218 31.6894 14.864 31.7668 14.873 31.8512L15.0135 33.1747C15.0262 33.2974 15.0662 33.4157 15.1305 33.5209C15.1948 33.6261 15.2819 33.7155 15.3853 33.7827C15.4431 33.8204 15.4872 33.8757 15.511 33.9405C15.5348 34.0053 15.5371 34.076 15.5174 34.1422C15.4977 34.2083 15.4572 34.2663 15.4018 34.3076C15.3465 34.3488 15.2793 34.371 15.2103 34.3709V34.3703Z" fill="#1E1E1E"/>
<path d="M10.185 34.3158L10.0054 34.0502L9.84192 33.775L9.85696 33.7663C9.95755 33.7058 10.0441 33.6245 10.111 33.528C10.1779 33.4314 10.2235 33.3218 10.2448 33.2063L10.4368 32.1603C10.4522 32.0768 10.5002 32.0029 10.5702 31.9548C10.6401 31.9067 10.7263 31.8883 10.8098 31.9038C10.8932 31.9192 10.9671 31.9672 11.0152 32.0371C11.0633 32.1071 11.0817 32.1933 11.0662 32.2767L10.8742 33.3225C10.8364 33.5275 10.7553 33.722 10.6365 33.8933C10.5176 34.0646 10.3637 34.2086 10.185 34.3158Z" fill="#1E1E1E"/>
<path d="M40.5209 26.5091H29.9113C29.8264 26.5091 29.745 26.4754 29.685 26.4154C29.625 26.3554 29.5913 26.274 29.5913 26.1891C29.5913 26.1043 29.625 26.0229 29.685 25.9629C29.745 25.9029 29.8264 25.8691 29.9113 25.8691H40.5209C40.6058 25.8691 40.6872 25.9029 40.7472 25.9629C40.8072 26.0229 40.8409 26.1043 40.8409 26.1891C40.8409 26.274 40.8072 26.3554 40.7472 26.4154C40.6872 26.4754 40.6058 26.5091 40.5209 26.5091Z" fill="#1E1E1E"/>
<path d="M39.6201 26.5091C39.6007 26.5091 39.5813 26.5074 39.5622 26.504C39.4789 26.4885 39.4052 26.4405 39.3572 26.3707C39.3092 26.3009 39.2909 26.2148 39.3062 26.1315C39.3452 25.9139 39.3642 25.6931 39.3628 25.472C39.3377 24.3892 38.8898 23.3591 38.1151 22.6022C37.3404 21.8453 36.3002 21.4215 35.2171 21.4215C34.1339 21.4215 33.0938 21.8453 32.3191 22.6022C31.5443 23.3591 31.0965 24.3892 31.0713 25.472C31.07 25.6931 31.089 25.9139 31.128 26.1315C31.1422 26.2145 31.1231 26.2998 31.0748 26.3688C31.0266 26.4378 30.9531 26.485 30.8703 26.5002C30.7875 26.5154 30.702 26.4973 30.6324 26.45C30.5628 26.4026 30.5147 26.3297 30.4985 26.247C30.4527 25.9913 30.4304 25.7318 30.432 25.472C30.4549 24.2179 30.9692 23.0229 31.8642 22.1441C32.7592 21.2653 33.9634 20.7729 35.2177 20.7729C36.472 20.7729 37.6762 21.2653 38.5712 22.1441C39.4663 23.0229 39.9805 24.2179 40.0035 25.472C40.0048 25.7319 39.9823 25.9913 39.9363 26.247C39.9227 26.3209 39.8836 26.3876 39.8258 26.4355C39.768 26.4834 39.6952 26.5095 39.6201 26.5091Z" fill="#1E1E1E"/>
<path d="M35.2164 23.965C35.1315 23.965 35.0501 23.9313 34.9901 23.8713C34.9301 23.8113 34.8964 23.7299 34.8964 23.645V20.31C34.8964 20.2251 34.9301 20.1437 34.9901 20.0837C35.0501 20.0237 35.1315 19.99 35.2164 19.99C35.3012 19.99 35.3826 20.0237 35.4426 20.0837C35.5026 20.1437 35.5364 20.2251 35.5364 20.31V23.645C35.5364 23.7299 35.5026 23.8113 35.4426 23.8713C35.3826 23.9313 35.3012 23.965 35.2164 23.965Z" fill="#1E1E1E"/>
<path d="M35.216 33.109C35.0304 33.1091 34.8456 33.0848 34.6663 33.0367C32.1722 32.3688 31.7626 30.4965 31.6999 29.7599C31.4772 29.7051 31.2741 29.5897 31.1131 29.4264C30.9521 29.2631 30.8395 29.0585 30.7879 28.8351L30.592 28.0056C30.5662 27.8955 30.5625 27.7813 30.5811 27.6697C30.5997 27.558 30.6403 27.4512 30.7005 27.3554C30.7607 27.2596 30.8392 27.1766 30.9317 27.1114C31.0241 27.0461 31.1286 26.9998 31.2391 26.9752L31.0999 26.2492C31.0839 26.1658 31.1017 26.0795 31.1494 26.0092C31.1971 25.939 31.2707 25.8906 31.3541 25.8746C31.4375 25.8586 31.5238 25.8765 31.594 25.9241C31.6643 25.9718 31.7127 26.0455 31.7287 26.1288L31.9367 27.2152C31.9455 27.2615 31.944 27.3092 31.9323 27.3549C31.9206 27.4006 31.899 27.4431 31.8689 27.4794C31.8389 27.5157 31.8011 27.545 31.7585 27.565C31.7158 27.5851 31.6692 27.5954 31.6221 27.5954H31.424C31.3916 27.5953 31.3596 27.6026 31.3304 27.6167C31.3013 27.6308 31.2756 27.6513 31.2555 27.6767C31.2354 27.7021 31.2213 27.7318 31.2143 27.7634C31.2073 27.7951 31.2076 27.8279 31.2151 27.8594L31.4096 28.6888C31.4405 28.8223 31.5158 28.9414 31.6232 29.0265C31.7306 29.1116 31.8636 29.1577 32.0007 29.1573C32.045 29.1573 32.089 29.1662 32.1298 29.1837C32.1706 29.2011 32.2075 29.2267 32.2381 29.2588C32.2686 29.2904 32.2922 29.328 32.3076 29.3692C32.3231 29.4103 32.3299 29.4542 32.3277 29.4981C32.3226 29.5874 32.2317 31.7224 34.8304 32.4188C35.082 32.4858 35.3468 32.4858 35.5984 32.4188C38.2154 31.7176 38.1027 29.5202 38.1011 29.4981C38.0983 29.4544 38.1045 29.4105 38.1193 29.3693C38.1341 29.328 38.1572 29.2902 38.1872 29.2583C38.2172 29.2263 38.2534 29.2009 38.2937 29.1835C38.3339 29.1661 38.3773 29.1572 38.4211 29.1573C38.5593 29.1589 38.6939 29.1134 38.8027 29.0282C38.9116 28.943 38.9882 28.8233 39.0199 28.6888L39.2144 27.8594C39.2219 27.8279 39.2222 27.7951 39.2152 27.7634C39.2081 27.7318 39.1941 27.7021 39.1739 27.6767C39.1538 27.6513 39.1282 27.6308 39.099 27.6167C39.0699 27.6026 39.0379 27.5953 39.0055 27.5954H38.8074C38.7602 27.5954 38.7137 27.5851 38.671 27.565C38.6283 27.545 38.5906 27.5157 38.5606 27.4794C38.5305 27.4431 38.5089 27.4006 38.4971 27.3549C38.4854 27.3092 38.484 27.2615 38.4928 27.2152L38.7008 26.1288C38.7168 26.0455 38.7652 25.9718 38.8354 25.9241C38.8702 25.9005 38.9093 25.884 38.9505 25.8755C38.9917 25.867 39.0341 25.8667 39.0754 25.8746C39.1167 25.8825 39.156 25.8985 39.1911 25.9216C39.2262 25.9447 39.2565 25.9744 39.2801 26.0092C39.3037 26.044 39.3202 26.0831 39.3287 26.1243C39.3372 26.1654 39.3375 26.2079 39.3296 26.2492L39.1904 26.9752C39.3009 26.9999 39.4054 27.0461 39.4978 27.1114C39.5903 27.1766 39.6689 27.2596 39.7291 27.3554C39.7893 27.4512 39.8299 27.558 39.8485 27.6696C39.8672 27.7812 39.8635 27.8954 39.8378 28.0056L39.6429 28.8351C39.5913 29.0582 39.4789 29.2627 39.3182 29.426C39.1575 29.5892 38.9548 29.7048 38.7325 29.7599C38.6685 30.4975 38.2592 32.3682 35.7664 33.0357C35.5869 33.0841 35.4019 33.1088 35.216 33.109Z" fill="#1E1E1E"/>
<path d="M43.7882 43.9636H27.0004C26.7321 43.9633 26.4749 43.8565 26.2853 43.6669C26.0956 43.4772 25.9889 43.22 25.9885 42.9517V38.7562C25.9887 38.2288 26.1288 37.7108 26.3943 37.2551C26.6599 36.7994 27.0414 36.4222 27.5002 36.162C29.16 35.2228 31.3216 34.0119 32.1927 33.5764C32.272 33.5362 32.3589 33.5131 32.4477 33.5086C32.5365 33.5041 32.6253 33.5184 32.7082 33.5505C32.7952 33.5841 32.8742 33.6355 32.9403 33.7012C33.0064 33.767 33.0581 33.8458 33.0922 33.9325C33.2977 34.3704 33.6236 34.7407 34.0319 35C34.4401 35.2594 34.9138 35.3971 35.3975 35.3971C35.8812 35.3971 36.3548 35.2594 36.7631 35C37.1713 34.7407 37.4973 34.3704 37.7028 33.9325C37.7368 33.8458 37.7886 33.7671 37.8547 33.7015C37.9208 33.6358 37.9998 33.5846 38.0868 33.5511C38.1697 33.5191 38.2584 33.5049 38.3472 33.5094C38.4359 33.5139 38.5227 33.5371 38.602 33.5773C39.472 34.0122 41.632 35.2231 43.2906 36.1623C43.7487 36.4229 44.1297 36.8 44.3948 37.2555C44.6599 37.711 44.7998 38.2286 44.8 38.7556V42.9517C44.7998 43.22 44.6931 43.4772 44.5034 43.6669C44.3137 43.8566 44.0565 43.9633 43.7882 43.9636ZM32.4967 34.1684C31.5748 34.601 29.1687 35.9533 27.8151 36.7191C27.455 36.9236 27.1555 37.2198 26.947 37.5776C26.7386 37.9354 26.6287 38.3421 26.6285 38.7562V42.9517C26.6287 43.0503 26.6679 43.1448 26.7376 43.2145C26.8073 43.2842 26.9018 43.3234 27.0004 43.3236H43.7882C43.8868 43.3235 43.9813 43.2843 44.051 43.2146C44.1208 43.1449 44.16 43.0503 44.16 42.9517V38.7556C44.1599 38.3416 44.0501 37.935 43.8418 37.5772C43.6335 37.2195 43.3341 36.9233 42.9741 36.7188C41.6215 35.953 39.2176 34.6007 38.3143 34.1492C38.0552 34.7077 37.6432 35.1815 37.1261 35.5156C36.6089 35.8497 36.0077 36.0305 35.392 36.0372C34.782 36.032 34.1859 35.8536 33.6733 35.5228C33.1607 35.1919 32.7526 34.7222 32.4967 34.1684Z" fill="#1E1E1E"/>
<path d="M37.999 34.3703C37.9371 34.3702 37.8765 34.3522 37.8246 34.3184C37.6416 34.1995 37.4875 34.0412 37.3735 33.855C37.2595 33.6689 37.1885 33.4597 37.1657 33.2426L37.0249 31.9191C37.0183 31.836 37.0444 31.7535 37.0977 31.6894C37.1509 31.6252 37.2271 31.5844 37.31 31.5755C37.3929 31.5667 37.476 31.5906 37.5416 31.642C37.6071 31.6935 37.65 31.7686 37.6611 31.8512L37.8022 33.1747C37.8149 33.2974 37.8549 33.4157 37.9193 33.5209C37.9836 33.6261 38.0707 33.7155 38.174 33.7827C38.2319 33.8204 38.276 33.8757 38.2998 33.9405C38.3236 34.0053 38.3258 34.076 38.3061 34.1422C38.2865 34.2083 38.2459 34.2663 38.1906 34.3076C38.1352 34.3488 38.068 34.371 37.999 34.3709V34.3703Z" fill="#1E1E1E"/>
<path d="M32.9734 34.3158L32.7939 34.0502L32.6304 33.775L32.6454 33.7663C32.7459 33.7056 32.8324 33.6244 32.8993 33.5279C32.9661 33.4313 33.0118 33.3218 33.0332 33.2063L33.2269 32.1603C33.2423 32.0768 33.2903 32.0029 33.3602 31.9548C33.4302 31.9067 33.5163 31.8883 33.5998 31.9038C33.6833 31.9192 33.7572 31.9672 33.8053 32.0371C33.8534 32.1071 33.8717 32.1933 33.8563 32.2767L33.6627 33.3225C33.6247 33.5274 33.5436 33.7219 33.4247 33.8932C33.3059 34.0644 33.1521 34.2085 32.9734 34.3158Z" fill="#1E1E1E"/>
<path d="M30.247 11.84H17.319C17.2342 11.84 17.1528 11.8062 17.0927 11.7462C17.0327 11.6862 16.999 11.6048 16.999 11.52C16.999 11.4351 17.0327 11.3537 17.0927 11.2937C17.1528 11.2337 17.2342 11.2 17.319 11.2H30.247C30.3319 11.2 30.4133 11.2337 30.4733 11.2937C30.5333 11.3537 30.567 11.4351 30.567 11.52C30.567 11.6048 30.5333 11.6862 30.4733 11.7462C30.4133 11.8062 30.3319 11.84 30.247 11.84Z" fill="#1E1E1E"/>
<path d="M18.4163 11.8399C18.3416 11.8398 18.2693 11.8136 18.2119 11.7658C18.1545 11.718 18.1157 11.6516 18.1021 11.5782C18.0466 11.2706 18.0196 10.9586 18.0214 10.646C18.0512 9.13766 18.6713 7.70112 19.7485 6.64491C20.8257 5.58871 22.2742 4.99707 23.7829 4.99707C25.2915 4.99707 26.74 5.58871 27.8173 6.64491C28.8945 7.70112 29.5146 9.13766 29.5443 10.646C29.5461 10.9584 29.5192 11.2704 29.464 11.5779C29.4478 11.6605 29.3997 11.7334 29.3301 11.7808C29.2605 11.8282 29.175 11.8462 29.0922 11.831C29.0094 11.8158 28.9359 11.7686 28.8877 11.6996C28.8395 11.6306 28.8204 11.5453 28.8346 11.4623C28.8827 11.1929 28.9061 10.9197 28.9043 10.646C28.8726 9.30876 28.3191 8.03694 27.3621 7.10237C26.4051 6.16779 25.1205 5.6446 23.7829 5.6446C22.4452 5.6446 21.1607 6.16779 20.2037 7.10237C19.2467 8.03694 18.6932 9.30876 18.6614 10.646C18.6598 10.9196 18.6832 11.1927 18.7315 11.462C18.747 11.5454 18.7287 11.6315 18.6807 11.7014C18.6327 11.7713 18.5589 11.8193 18.4755 11.8348C18.456 11.8383 18.4362 11.84 18.4163 11.8399Z" fill="#1E1E1E"/>
<path d="M23.783 8.74013C23.6981 8.74013 23.6167 8.70642 23.5567 8.64641C23.4967 8.5864 23.463 8.505 23.463 8.42013V4.35613C23.463 4.27126 23.4967 4.18987 23.5567 4.12986C23.6167 4.06985 23.6981 4.03613 23.783 4.03613C23.8679 4.03613 23.9493 4.06985 24.0093 4.12986C24.0693 4.18987 24.103 4.27126 24.103 4.35613V8.42013C24.103 8.505 24.0693 8.5864 24.0093 8.64641C23.9493 8.70642 23.8679 8.74013 23.783 8.74013Z" fill="#1E1E1E"/>
<path d="M23.783 19.8823C23.5628 19.8823 23.3436 19.8536 23.1309 19.7968C20.0713 18.976 19.6237 16.6551 19.5632 15.8144C19.2942 15.7579 19.0469 15.6257 18.8505 15.4333C18.6541 15.241 18.5168 14.9965 18.4547 14.7287L18.2176 13.7175C18.1868 13.5866 18.1835 13.4508 18.2079 13.3186C18.2323 13.1865 18.2838 13.0608 18.3592 12.9495C18.4346 12.8382 18.5323 12.7438 18.6461 12.6722C18.7598 12.6006 18.8872 12.5534 19.0201 12.5335L18.8374 11.5792C18.8215 11.4959 18.8393 11.4096 18.887 11.3393C18.9346 11.2691 19.0083 11.2206 19.0917 11.2047C19.175 11.1887 19.2614 11.2066 19.3316 11.2542C19.4018 11.3019 19.4503 11.3755 19.4662 11.4589L19.7197 12.7828C19.7285 12.8291 19.7271 12.8768 19.7153 12.9224C19.7036 12.9681 19.682 13.0106 19.6519 13.0469C19.6219 13.0832 19.5842 13.1125 19.5415 13.1325C19.4988 13.1526 19.4522 13.163 19.4051 13.1629H19.1635C19.1135 13.163 19.0642 13.1743 19.0192 13.1961C18.9742 13.2178 18.9347 13.2495 18.9037 13.2886C18.8727 13.3278 18.8509 13.3735 18.8399 13.4222C18.829 13.471 18.8293 13.5216 18.8406 13.5703L19.0781 14.5815C19.1192 14.7595 19.2196 14.9183 19.3628 15.0318C19.506 15.1453 19.6835 15.2068 19.8662 15.2061C19.9107 15.2061 19.9547 15.215 19.9956 15.2324C20.0365 15.2498 20.0735 15.2752 20.1043 15.3072C20.1349 15.3389 20.1587 15.3765 20.1743 15.4178C20.1898 15.459 20.1968 15.5029 20.1949 15.5469C20.1881 15.6586 20.0701 18.3133 23.2963 19.1776C23.6152 19.2627 23.9508 19.2627 24.2697 19.1776C27.496 18.3136 27.3776 15.6576 27.3712 15.546C27.3685 15.5023 27.3747 15.4585 27.3896 15.4174C27.4045 15.3763 27.4276 15.3386 27.4576 15.3068C27.4876 15.2749 27.5238 15.2495 27.564 15.2322C27.6041 15.2149 27.6474 15.206 27.6912 15.2061C27.8753 15.2083 28.0546 15.1475 28.1996 15.034C28.3445 14.9204 28.4464 14.7608 28.4883 14.5815L28.7257 13.5703C28.7371 13.5216 28.7374 13.471 28.7264 13.4222C28.7155 13.3735 28.6937 13.3278 28.6627 13.2886C28.6316 13.2495 28.5921 13.2178 28.5471 13.1961C28.5022 13.1743 28.4528 13.163 28.4029 13.1629H28.16C28.1129 13.1629 28.0663 13.1525 28.0237 13.1324C27.9811 13.1124 27.9434 13.0831 27.9134 13.0468C27.8834 13.0105 27.8617 12.968 27.85 12.9223C27.8384 12.8767 27.8369 12.829 27.8457 12.7828L28.0992 11.4589C28.1064 11.417 28.1219 11.377 28.1448 11.3412C28.1677 11.3053 28.1975 11.2744 28.2324 11.2502C28.2674 11.226 28.3068 11.209 28.3484 11.2003C28.39 11.1915 28.4329 11.1911 28.4747 11.1991C28.5164 11.2071 28.5562 11.2233 28.5916 11.2468C28.627 11.2703 28.6574 11.3007 28.6809 11.3361C28.7045 11.3715 28.7207 11.4112 28.7288 11.453C28.7368 11.4947 28.7364 11.5376 28.7277 11.5792L28.5453 12.5335C28.6782 12.5535 28.8055 12.6007 28.9192 12.6724C29.0329 12.744 29.1305 12.8384 29.2059 12.9497C29.2812 13.0609 29.3327 13.1866 29.3571 13.3187C29.3815 13.4509 29.3782 13.5867 29.3475 13.7175L29.1104 14.7287C29.0485 14.9968 28.9112 15.2416 28.7149 15.4344C28.5185 15.6271 28.2711 15.7598 28.0019 15.8167C27.9414 16.658 27.4928 18.9786 24.4345 19.7978C24.222 19.8542 24.0029 19.8826 23.783 19.8823Z" fill="#1E1E1E"/>
<path d="M23.9958 23.4492C23.2665 23.4432 22.554 23.2301 21.9413 22.8347C21.3285 22.4393 20.8407 21.8779 20.5347 21.2159C20.5295 21.2017 20.5214 21.1886 20.5109 21.1776C20.5004 21.1666 20.4878 21.1579 20.4739 21.1519C20.4653 21.1485 20.4561 21.1471 20.4469 21.1478C20.4377 21.1484 20.4287 21.1512 20.4208 21.1558C19.7612 21.4841 18.3894 22.2326 16.3388 23.383C16.2629 23.4212 16.1749 23.4276 16.0941 23.4009C16.0134 23.3742 15.9466 23.3165 15.9084 23.2406C15.8702 23.1646 15.8638 23.0766 15.8905 22.9959C15.9172 22.9152 15.9749 22.8484 16.0508 22.8102C18.0956 21.663 19.4684 20.9142 20.1302 20.5849C20.217 20.5401 20.3123 20.5141 20.4098 20.5086C20.5074 20.5031 20.605 20.5182 20.6963 20.5529C20.7939 20.5901 20.8828 20.6473 20.9571 20.7208C21.0314 20.7943 21.0896 20.8825 21.128 20.9798C21.3835 21.5263 21.7895 21.9886 22.2985 22.3125C22.8075 22.6364 23.3983 22.8084 24.0016 22.8084C24.6048 22.8084 25.1956 22.6364 25.7046 22.3125C26.2136 21.9886 26.6196 21.5263 26.8752 20.9798C26.9134 20.8824 26.9716 20.7941 27.0459 20.7205C27.1202 20.6469 27.2091 20.5896 27.3068 20.5523C27.399 20.5175 27.4975 20.5026 27.5958 20.5086C27.6941 20.5146 27.7901 20.5412 27.8774 20.5868C28.5043 20.8975 29.7584 21.5788 31.7062 22.6723C31.77 22.7048 31.8211 22.7577 31.8512 22.8227C31.8813 22.8876 31.8888 22.9608 31.8725 23.0305C31.8561 23.1003 31.8168 23.1625 31.7609 23.2072C31.705 23.252 31.6357 23.2767 31.5641 23.2774C31.5082 23.2774 31.4532 23.2633 31.4041 23.2364C29.4595 22.1465 28.2115 21.4665 27.5884 21.1564C27.5799 21.1511 27.5702 21.1477 27.5602 21.1467C27.5501 21.1456 27.54 21.1469 27.5305 21.1503C27.5166 21.1564 27.504 21.1651 27.4936 21.1761C27.4831 21.1871 27.475 21.2001 27.4697 21.2143C27.1619 21.8777 26.6719 22.4399 26.0569 22.8356C25.4418 23.2313 24.7271 23.4441 23.9958 23.4492Z" fill="#1E1E1E"/>
<path d="M27.1741 21.4189C27.1122 21.419 27.0516 21.401 26.9997 21.3671C26.7854 21.2279 26.6049 21.0426 26.4714 20.8246C26.3379 20.6067 26.2548 20.3617 26.2282 20.1075L26.0564 18.4947C26.0519 18.4529 26.0557 18.4107 26.0676 18.3703C26.0795 18.33 26.0992 18.2924 26.1256 18.2597C26.1521 18.227 26.1847 18.1998 26.2216 18.1796C26.2585 18.1595 26.299 18.1469 26.3408 18.1424C26.3827 18.138 26.4249 18.1418 26.4653 18.1537C26.5056 18.1656 26.5432 18.1853 26.5759 18.2117C26.6086 18.2381 26.6358 18.2707 26.6559 18.3076C26.6761 18.3446 26.6887 18.3851 26.6932 18.4269L26.8647 20.0397C26.8812 20.1996 26.9333 20.3537 27.0171 20.4908C27.1009 20.6279 27.2144 20.7445 27.3492 20.832C27.407 20.8697 27.4511 20.925 27.4749 20.9898C27.4987 21.0546 27.5009 21.1253 27.4813 21.1915C27.4616 21.2576 27.421 21.3156 27.3657 21.3568C27.3103 21.3981 27.2431 21.4203 27.1741 21.4202V21.4189Z" fill="#1E1E1E"/>
<path d="M20.8425 21.4099C20.7874 21.4107 20.733 21.3972 20.6846 21.3707C20.6362 21.3442 20.5955 21.3057 20.5664 21.2589C20.544 21.224 20.5288 21.185 20.5217 21.1441C20.5146 21.1033 20.5157 21.0614 20.525 21.021C20.5343 20.9806 20.5516 20.9425 20.5759 20.9089C20.6001 20.8753 20.6308 20.8468 20.6662 20.8253L20.6841 20.8144C20.8157 20.7355 20.929 20.6295 21.0166 20.5035C21.1041 20.3775 21.1639 20.2343 21.192 20.0835L21.4275 18.8089C21.4429 18.7255 21.4909 18.6516 21.5609 18.6035C21.6308 18.5554 21.717 18.537 21.8005 18.5525C21.8839 18.5679 21.9578 18.6159 22.0059 18.6858C22.054 18.7558 22.0724 18.842 22.0569 18.9254L21.8211 20.2C21.7767 20.4399 21.6817 20.6676 21.5426 20.8681C21.4035 21.0685 21.2233 21.237 21.0141 21.3625C20.9623 21.3937 20.903 21.41 20.8425 21.4099Z" fill="#1E1E1E"/>
</svg>
