<svg width="48" height="48" viewBox="0 0 48 48" fill="none" xmlns="http://www.w3.org/2000/svg">
<path d="M39.2833 24.969H14.4513C13.9046 24.9622 13.3826 24.7403 12.9983 24.3512C12.6141 23.9622 12.3987 23.4375 12.3987 22.8907C12.3987 22.344 12.6141 21.8192 12.9983 21.4302C13.3826 21.0412 13.9046 20.8193 14.4513 20.8125H22.8135C22.8984 20.8125 22.9798 20.8462 23.0398 20.9062C23.0998 20.9662 23.1335 21.0476 23.1335 21.1325C23.1335 21.2174 23.0998 21.2988 23.0398 21.3588C22.9798 21.4188 22.8984 21.4525 22.8135 21.4525H14.4507C14.0729 21.4581 13.7126 21.6121 13.4474 21.8813C13.1823 22.1504 13.0337 22.513 13.0337 22.8907C13.0337 23.2685 13.1823 23.6311 13.4474 23.9002C13.7126 24.1693 14.0729 24.3233 14.4507 24.329H39.2827C39.6604 24.3233 40.0207 24.1693 40.2859 23.9002C40.551 23.6311 40.6996 23.2685 40.6996 22.8907C40.6996 22.513 40.551 22.1504 40.2859 21.8813C40.0207 21.6121 39.6604 21.4581 39.2827 21.4525H30.9204C30.8355 21.4525 30.7541 21.4188 30.6941 21.3588C30.6341 21.2988 30.6004 21.2174 30.6004 21.1325C30.6004 21.0476 30.6341 20.9662 30.6941 20.9062C30.7541 20.8462 30.8355 20.8125 30.9204 20.8125H39.2833C39.83 20.8193 40.352 21.0412 40.7362 21.4302C41.1205 21.8192 41.3359 22.344 41.3359 22.8907C41.3359 23.4375 41.1205 23.9622 40.7362 24.3512C40.352 24.7403 39.83 24.9622 39.2833 24.969Z" fill="#1E1E1E"/>
<path d="M22.8134 21.4525H14.3114C14.2265 21.4525 14.1451 21.4188 14.0851 21.3587C14.0251 21.2987 13.9914 21.2173 13.9914 21.1325V18.9149C13.9769 15.9887 14.9655 13.1459 16.7925 10.86C18.6195 8.57423 21.1746 6.98342 24.032 6.35263C24.0733 6.34271 24.1161 6.34108 24.1579 6.34785C24.1998 6.35462 24.2399 6.36965 24.2759 6.39206C24.312 6.41448 24.3432 6.44383 24.3677 6.47841C24.3923 6.51299 24.4098 6.55212 24.4191 6.5935C24.4284 6.63489 24.4294 6.67772 24.422 6.71949C24.4146 6.76126 24.399 6.80115 24.376 6.83683C24.3531 6.87251 24.3233 6.90327 24.2883 6.92733C24.2534 6.95139 24.214 6.96825 24.1725 6.97695C21.4571 7.57633 19.029 9.08808 17.2929 11.2603C15.5568 13.4326 14.6174 16.1341 14.6314 18.9149V20.8125H22.8134C22.8983 20.8125 22.9797 20.8462 23.0397 20.9062C23.0997 20.9662 23.1334 21.0476 23.1334 21.1325C23.1334 21.2173 23.0997 21.2987 23.0397 21.3587C22.9797 21.4188 22.8983 21.4525 22.8134 21.4525Z" fill="#1E1E1E"/>
<path d="M39.4239 21.4525H30.9203C30.8354 21.4525 30.754 21.4187 30.694 21.3587C30.634 21.2987 30.6003 21.2173 30.6003 21.1325C30.6003 21.0476 30.634 20.9662 30.694 20.9062C30.754 20.8462 30.8354 20.8125 30.9203 20.8125H39.1039V18.9149C39.1038 16.1376 38.1592 13.4429 36.4253 11.2734C34.6915 9.10388 32.2714 7.58845 29.5625 6.97597C29.521 6.96728 29.4816 6.95041 29.4467 6.92635C29.4117 6.9023 29.3819 6.87154 29.359 6.83585C29.336 6.80017 29.3204 6.76029 29.313 6.71851C29.3056 6.67674 29.3066 6.63391 29.3159 6.59253C29.3252 6.55114 29.3427 6.51202 29.3672 6.47743C29.3918 6.44285 29.423 6.4135 29.459 6.39109C29.495 6.36867 29.5352 6.35364 29.577 6.34687C29.6189 6.3401 29.6617 6.34173 29.703 6.35165C32.5536 6.99602 35.1004 8.59065 36.9251 10.8736C38.7497 13.1566 39.7438 15.9923 39.7439 18.9149V21.1325C39.7439 21.2173 39.7102 21.2987 39.6502 21.3587C39.5902 21.4187 39.5088 21.4525 39.4239 21.4525Z" fill="#1E1E1E"/>
<path d="M26.8692 23.3133C25.7485 23.3133 24.6529 22.981 23.721 22.3584C22.7892 21.7357 22.0629 20.8507 21.634 19.8153C21.2051 18.7799 21.0929 17.6405 21.3115 16.5413C21.5302 15.4421 22.0699 14.4324 22.8623 13.6399C23.6548 12.8474 24.6645 12.3078 25.7637 12.0891C26.8629 11.8705 28.0023 11.9827 29.0377 12.4116C30.0731 12.8405 30.9581 13.5668 31.5808 14.4986C32.2034 15.4305 32.5358 16.526 32.5358 17.6468C32.5336 19.149 31.9358 20.589 30.8736 21.6512C29.8114 22.7134 28.3714 23.3111 26.8692 23.3133ZM26.8692 12.6202C25.875 12.6202 24.9032 12.915 24.0766 13.4674C23.25 14.0197 22.6057 14.8047 22.2253 15.7232C21.8448 16.6417 21.7453 17.6524 21.9392 18.6274C22.1332 19.6025 22.6119 20.4981 23.3149 21.2011C24.0179 21.9041 24.9135 22.3828 25.8886 22.5768C26.8636 22.7707 27.8743 22.6712 28.7928 22.2907C29.7113 21.9103 30.4963 21.266 31.0486 20.4394C31.601 19.6128 31.8958 18.6409 31.8958 17.6468C31.8937 16.3143 31.3635 15.0369 30.4213 14.0947C29.479 13.1525 28.2017 12.6223 26.8692 12.6202Z" fill="#1E1E1E"/>
<path d="M26.8691 20.7805C26.2493 20.7805 25.6434 20.5967 25.1281 20.2523C24.6127 19.908 24.2111 19.4186 23.9739 18.8459C23.7367 18.2733 23.6747 17.6432 23.7956 17.0353C23.9165 16.4274 24.2149 15.8691 24.6532 15.4308C25.0915 14.9925 25.6499 14.6941 26.2577 14.5732C26.8656 14.4522 27.4957 14.5143 28.0684 14.7515C28.641 14.9887 29.1304 15.3903 29.4747 15.9057C29.8191 16.421 30.0029 17.0269 30.0029 17.6467C30.0014 18.4774 29.6707 19.2736 29.0833 19.8609C28.496 20.4483 27.6998 20.7789 26.8691 20.7805ZM26.8691 15.1529C26.3759 15.1529 25.8938 15.2992 25.4837 15.5732C25.0736 15.8472 24.7539 16.2367 24.5652 16.6924C24.3764 17.1481 24.327 17.6495 24.4233 18.1332C24.5195 18.617 24.757 19.0613 25.1058 19.4101C25.4545 19.7588 25.8989 19.9963 26.3826 20.0925C26.8663 20.1888 27.3678 20.1394 27.8234 19.9506C28.2791 19.7619 28.6686 19.4423 28.9426 19.0322C29.2166 18.6221 29.3629 18.1399 29.3629 17.6467C29.3615 16.9857 29.0984 16.3522 28.631 15.8848C28.1636 15.4175 27.5301 15.1543 26.8691 15.1529Z" fill="#1E1E1E"/>
<path d="M24.0492 13.4244C23.9644 13.4244 23.883 13.3907 23.823 13.3307C23.763 13.2707 23.7292 13.1893 23.7292 13.1044V7.20425C23.7292 6.37211 24.0598 5.57405 24.6482 4.98563C25.2366 4.39722 26.0347 4.06665 26.8668 4.06665C27.699 4.06665 28.4971 4.39722 29.0855 4.98563C29.6739 5.57405 30.0044 6.37211 30.0044 7.20425V13.1022C30.0044 13.187 29.9707 13.2684 29.9107 13.3284C29.8507 13.3885 29.7693 13.4222 29.6844 13.4222C29.5996 13.4222 29.5182 13.3885 29.4582 13.3284C29.3982 13.2684 29.3644 13.187 29.3644 13.1022V7.20425C29.3644 6.54185 29.1013 5.90657 28.6329 5.43818C28.1645 4.96979 27.5293 4.70665 26.8668 4.70665C26.2044 4.70665 25.5692 4.96979 25.1008 5.43818C24.6324 5.90657 24.3692 6.54185 24.3692 7.20425V13.1044C24.3692 13.1893 24.3355 13.2707 24.2755 13.3307C24.2155 13.3907 24.1341 13.4244 24.0492 13.4244Z" fill="#1E1E1E"/>
<path d="M35.3859 16.0365C35.301 16.0365 35.2197 16.0028 35.1596 15.9428C35.0996 15.8827 35.0659 15.8014 35.0659 15.7165V9.6928C35.0659 9.60793 35.0996 9.52654 35.1596 9.46653C35.2197 9.40652 35.301 9.3728 35.3859 9.3728C35.4708 9.3728 35.5522 9.40652 35.6122 9.46653C35.6722 9.52654 35.7059 9.60793 35.7059 9.6928V15.7165C35.7059 15.8014 35.6722 15.8827 35.6122 15.9428C35.5522 16.0028 35.4708 16.0365 35.3859 16.0365Z" fill="#1E1E1E"/>
<path d="M18.3415 16.0365C18.2566 16.0365 18.1752 16.0028 18.1152 15.9428C18.0552 15.8827 18.0215 15.8014 18.0215 15.7165V9.6928C18.0215 9.60793 18.0552 9.52654 18.1152 9.46653C18.1752 9.40652 18.2566 9.3728 18.3415 9.3728C18.4264 9.3728 18.5077 9.40652 18.5678 9.46653C18.6278 9.52654 18.6615 9.60793 18.6615 9.6928V15.7165C18.6615 15.8014 18.6278 15.8827 18.5678 15.9428C18.5077 16.0028 18.4264 16.0365 18.3415 16.0365Z" fill="#1E1E1E"/>
<path d="M11.3526 43.9334H3.51995C3.43508 43.9334 3.35369 43.8997 3.29368 43.8397C3.23367 43.7797 3.19995 43.6983 3.19995 43.6134C3.19995 43.5285 3.23367 43.4471 3.29368 43.3871C3.35369 43.3271 3.43508 43.2934 3.51995 43.2934H11.0326V31.152H3.51995C3.43508 31.152 3.35369 31.1182 3.29368 31.0582C3.23367 30.9982 3.19995 30.9168 3.19995 30.832C3.19995 30.7471 3.23367 30.6657 3.29368 30.6057C3.35369 30.5457 3.43508 30.512 3.51995 30.512H11.3526C11.4375 30.512 11.5189 30.5457 11.5789 30.6057C11.6389 30.6657 11.6726 30.7471 11.6726 30.832V43.6134C11.6726 43.6983 11.6389 43.7797 11.5789 43.8397C11.5189 43.8997 11.4375 43.9334 11.3526 43.9334Z" fill="#1E1E1E"/>
<path d="M11.3527 34.1172C11.2876 34.1172 11.2242 34.0974 11.1707 34.0605C11.1172 34.0235 11.0762 33.9712 11.0532 33.9104C11.0302 33.8496 11.0262 33.7832 11.0419 33.7201C11.0575 33.657 11.092 33.6002 11.1408 33.5572L15.456 29.7568C16.1216 29.1724 16.8968 28.7262 17.7364 28.4441C18.5761 28.162 19.4634 28.0497 20.3469 28.1136L27.2448 28.6256C27.9101 28.6738 28.5307 28.9783 28.976 29.475C29.4212 29.9717 29.6563 30.6218 29.6316 31.2884C29.607 31.955 29.3246 32.586 28.8439 33.0485C28.3632 33.511 27.7218 33.7688 27.0547 33.7677H21.5226C21.4377 33.7677 21.3563 33.734 21.2963 33.674C21.2363 33.614 21.2026 33.5326 21.2026 33.4477C21.2026 33.3628 21.2363 33.2815 21.2963 33.2214C21.3563 33.1614 21.4377 33.1277 21.5226 33.1277H27.0531C27.5535 33.1271 28.0341 32.9326 28.3941 32.5851C28.7541 32.2377 28.9656 31.7643 28.984 31.2642C29.0024 30.7642 28.8264 30.2766 28.4929 29.9035C28.1595 29.5305 27.6945 29.3012 27.1955 29.2637L20.2979 28.7517C19.4995 28.695 18.6978 28.7971 17.939 29.052C17.1803 29.307 16.4796 29.7098 15.8775 30.2372L11.5642 34.0375C11.5057 34.0889 11.4305 34.1172 11.3527 34.1172Z" fill="#1E1E1E"/>
<path d="M11.3529 41.6221C11.279 41.6225 11.2073 41.5974 11.1499 41.551C11.0924 41.5046 11.0528 41.4397 11.0377 41.3674C11.0227 41.2951 11.0331 41.2198 11.0672 41.1543C11.1013 41.0888 11.157 41.0371 11.2249 41.008L11.9644 40.688C13.2279 40.1401 14.5907 39.8581 15.9679 39.8599H25.2188C27.8193 39.863 30.3601 39.0808 32.5087 37.6157L43.6127 30.066C43.8712 29.8905 44.0548 29.6248 44.1274 29.3209C44.2 29.0171 44.1564 28.6971 44.005 28.4237C43.8537 28.1504 43.6057 27.9435 43.3096 27.8438C43.0136 27.744 42.6909 27.7585 42.405 27.8845L30.606 33.0711C29.5632 33.5311 28.4357 33.768 27.2959 33.7664H27.0527C26.9678 33.7664 26.8864 33.7327 26.8264 33.6727C26.7664 33.6127 26.7327 33.5313 26.7327 33.4464C26.7327 33.3616 26.7664 33.2802 26.8264 33.2202C26.8864 33.1601 26.9678 33.1264 27.0527 33.1264H27.2959C28.3468 33.1282 29.3864 32.9102 30.3481 32.4864L42.1461 27.2999C42.5779 27.1114 43.0644 27.0908 43.5105 27.242C43.9566 27.3933 44.3303 27.7055 44.5584 28.1177C44.7864 28.5298 44.8526 29.0122 44.7438 29.4706C44.635 29.9289 44.3591 30.3302 43.9701 30.5959L32.8661 38.1479C30.6113 39.6849 27.9451 40.5055 25.2162 40.5024H15.9679C14.6778 40.5008 13.4013 40.7649 12.2178 41.2784L11.4783 41.5984C11.4385 41.6147 11.3958 41.6228 11.3529 41.6221Z" fill="#1E1E1E"/>
<path d="M7.28643 42.0424C6.94565 42.0425 6.61251 41.9415 6.32913 41.7522C6.04576 41.5629 5.82488 41.2939 5.69444 40.979C5.564 40.6642 5.52985 40.3178 5.59632 39.9835C5.66279 39.6493 5.82688 39.3423 6.06785 39.1013C6.30882 38.8603 6.61584 38.6962 6.95007 38.6298C7.28431 38.5633 7.63075 38.5974 7.94558 38.7279C8.26041 38.8583 8.52948 39.0792 8.71877 39.3626C8.90806 39.646 9.00906 39.9791 9.00899 40.3199C9.0084 40.7765 8.82673 41.2143 8.50381 41.5373C8.1809 41.8602 7.7431 42.0418 7.28643 42.0424ZM7.28643 39.237C7.07225 39.2369 6.86285 39.3004 6.68473 39.4193C6.50661 39.5383 6.36776 39.7074 6.28575 39.9053C6.20374 40.1031 6.18225 40.3209 6.224 40.5309C6.26575 40.741 6.36886 40.934 6.52029 41.0855C6.67172 41.237 6.86467 41.3401 7.07474 41.3819C7.2848 41.4237 7.50255 41.4023 7.70044 41.3204C7.89833 41.2384 8.06747 41.0996 8.18647 40.9215C8.30548 40.7434 8.36899 40.5341 8.36899 40.3199C8.36874 40.0328 8.25461 39.7576 8.05166 39.5546C7.8487 39.3515 7.5735 39.2373 7.28643 39.237Z" fill="#1E1E1E"/>
<path d="M39.2833 24.969H14.4513C13.9046 24.9622 13.3826 24.7403 12.9983 24.3512C12.6141 23.9622 12.3987 23.4375 12.3987 22.8907C12.3987 22.344 12.6141 21.8192 12.9983 21.4302C13.3826 21.0412 13.9046 20.8193 14.4513 20.8125H22.8135C22.8984 20.8125 22.9798 20.8462 23.0398 20.9062C23.0998 20.9662 23.1335 21.0476 23.1335 21.1325C23.1335 21.2174 23.0998 21.2988 23.0398 21.3588C22.9798 21.4188 22.8984 21.4525 22.8135 21.4525H14.4507C14.0729 21.4581 13.7126 21.6121 13.4474 21.8813C13.1823 22.1504 13.0337 22.513 13.0337 22.8907C13.0337 23.2685 13.1823 23.6311 13.4474 23.9002C13.7126 24.1693 14.0729 24.3233 14.4507 24.329H39.2827C39.6604 24.3233 40.0207 24.1693 40.2859 23.9002C40.551 23.6311 40.6996 23.2685 40.6996 22.8907C40.6996 22.513 40.551 22.1504 40.2859 21.8813C40.0207 21.6121 39.6604 21.4581 39.2827 21.4525H30.9204C30.8355 21.4525 30.7541 21.4188 30.6941 21.3588C30.6341 21.2988 30.6004 21.2174 30.6004 21.1325C30.6004 21.0476 30.6341 20.9662 30.6941 20.9062C30.7541 20.8462 30.8355 20.8125 30.9204 20.8125H39.2833C39.83 20.8193 40.352 21.0412 40.7362 21.4302C41.1205 21.8192 41.3359 22.344 41.3359 22.8907C41.3359 23.4375 41.1205 23.9622 40.7362 24.3512C40.352 24.7403 39.83 24.9622 39.2833 24.969Z" fill="#1E1E1E"/>
<path d="M22.8134 21.4525H14.3114C14.2265 21.4525 14.1451 21.4188 14.0851 21.3587C14.0251 21.2987 13.9914 21.2173 13.9914 21.1325V18.9149C13.9769 15.9887 14.9655 13.1459 16.7925 10.86C18.6195 8.57423 21.1746 6.98342 24.032 6.35263C24.0733 6.34271 24.1161 6.34108 24.1579 6.34785C24.1998 6.35462 24.2399 6.36965 24.2759 6.39206C24.312 6.41448 24.3432 6.44383 24.3677 6.47841C24.3923 6.51299 24.4098 6.55212 24.4191 6.5935C24.4284 6.63489 24.4294 6.67772 24.422 6.71949C24.4146 6.76126 24.399 6.80115 24.376 6.83683C24.3531 6.87251 24.3233 6.90327 24.2883 6.92733C24.2534 6.95139 24.214 6.96825 24.1725 6.97695C21.4571 7.57633 19.029 9.08808 17.2929 11.2603C15.5568 13.4326 14.6174 16.1341 14.6314 18.9149V20.8125H22.8134C22.8983 20.8125 22.9797 20.8462 23.0397 20.9062C23.0997 20.9662 23.1334 21.0476 23.1334 21.1325C23.1334 21.2173 23.0997 21.2987 23.0397 21.3587C22.9797 21.4188 22.8983 21.4525 22.8134 21.4525Z" fill="#1E1E1E"/>
<path d="M39.4239 21.4525H30.9203C30.8354 21.4525 30.754 21.4187 30.694 21.3587C30.634 21.2987 30.6003 21.2173 30.6003 21.1325C30.6003 21.0476 30.634 20.9662 30.694 20.9062C30.754 20.8462 30.8354 20.8125 30.9203 20.8125H39.1039V18.9149C39.1038 16.1376 38.1592 13.4429 36.4253 11.2734C34.6915 9.10388 32.2714 7.58845 29.5625 6.97597C29.521 6.96728 29.4816 6.95041 29.4467 6.92635C29.4117 6.9023 29.3819 6.87154 29.359 6.83585C29.336 6.80017 29.3204 6.76029 29.313 6.71851C29.3056 6.67674 29.3066 6.63391 29.3159 6.59253C29.3252 6.55114 29.3427 6.51202 29.3672 6.47743C29.3918 6.44285 29.423 6.4135 29.459 6.39109C29.495 6.36867 29.5352 6.35364 29.577 6.34687C29.6189 6.3401 29.6617 6.34173 29.703 6.35165C32.5536 6.99602 35.1004 8.59065 36.9251 10.8736C38.7497 13.1566 39.7438 15.9923 39.7439 18.9149V21.1325C39.7439 21.2173 39.7102 21.2987 39.6502 21.3587C39.5902 21.4187 39.5088 21.4525 39.4239 21.4525Z" fill="#1E1E1E"/>
<path d="M26.8692 23.3133C25.7485 23.3133 24.6529 22.981 23.721 22.3584C22.7892 21.7357 22.0629 20.8507 21.634 19.8153C21.2051 18.7799 21.0929 17.6405 21.3115 16.5413C21.5302 15.4421 22.0699 14.4324 22.8623 13.6399C23.6548 12.8474 24.6645 12.3078 25.7637 12.0891C26.8629 11.8705 28.0023 11.9827 29.0377 12.4116C30.0731 12.8405 30.9581 13.5668 31.5808 14.4986C32.2034 15.4305 32.5358 16.526 32.5358 17.6468C32.5336 19.149 31.9358 20.589 30.8736 21.6512C29.8114 22.7134 28.3714 23.3111 26.8692 23.3133ZM26.8692 12.6202C25.875 12.6202 24.9032 12.915 24.0766 13.4674C23.25 14.0197 22.6057 14.8047 22.2253 15.7232C21.8448 16.6417 21.7453 17.6524 21.9392 18.6274C22.1332 19.6025 22.6119 20.4981 23.3149 21.2011C24.0179 21.9041 24.9135 22.3828 25.8886 22.5768C26.8636 22.7707 27.8743 22.6712 28.7928 22.2907C29.7113 21.9103 30.4963 21.266 31.0486 20.4394C31.601 19.6128 31.8958 18.6409 31.8958 17.6468C31.8937 16.3143 31.3635 15.0369 30.4213 14.0947C29.479 13.1525 28.2017 12.6223 26.8692 12.6202Z" fill="#1E1E1E"/>
<path d="M26.8691 20.7805C26.2493 20.7805 25.6434 20.5967 25.1281 20.2523C24.6127 19.908 24.2111 19.4186 23.9739 18.8459C23.7367 18.2733 23.6747 17.6432 23.7956 17.0353C23.9165 16.4274 24.2149 15.8691 24.6532 15.4308C25.0915 14.9925 25.6499 14.6941 26.2577 14.5732C26.8656 14.4522 27.4957 14.5143 28.0684 14.7515C28.641 14.9887 29.1304 15.3903 29.4747 15.9057C29.8191 16.421 30.0029 17.0269 30.0029 17.6467C30.0014 18.4774 29.6707 19.2736 29.0833 19.8609C28.496 20.4483 27.6998 20.7789 26.8691 20.7805ZM26.8691 15.1529C26.3759 15.1529 25.8938 15.2992 25.4837 15.5732C25.0736 15.8472 24.7539 16.2367 24.5652 16.6924C24.3764 17.1481 24.327 17.6495 24.4233 18.1332C24.5195 18.617 24.757 19.0613 25.1058 19.4101C25.4545 19.7588 25.8989 19.9963 26.3826 20.0925C26.8663 20.1888 27.3678 20.1394 27.8234 19.9506C28.2791 19.7619 28.6686 19.4423 28.9426 19.0322C29.2166 18.6221 29.3629 18.1399 29.3629 17.6467C29.3615 16.9857 29.0984 16.3522 28.631 15.8848C28.1636 15.4175 27.5301 15.1543 26.8691 15.1529Z" fill="#1E1E1E"/>
<path d="M24.0492 13.4244C23.9644 13.4244 23.883 13.3907 23.823 13.3307C23.763 13.2707 23.7292 13.1893 23.7292 13.1044V7.20425C23.7292 6.37211 24.0598 5.57405 24.6482 4.98563C25.2366 4.39722 26.0347 4.06665 26.8668 4.06665C27.699 4.06665 28.4971 4.39722 29.0855 4.98563C29.6739 5.57405 30.0044 6.37211 30.0044 7.20425V13.1022C30.0044 13.187 29.9707 13.2684 29.9107 13.3284C29.8507 13.3885 29.7693 13.4222 29.6844 13.4222C29.5996 13.4222 29.5182 13.3885 29.4582 13.3284C29.3982 13.2684 29.3644 13.187 29.3644 13.1022V7.20425C29.3644 6.54185 29.1013 5.90657 28.6329 5.43818C28.1645 4.96979 27.5293 4.70665 26.8668 4.70665C26.2044 4.70665 25.5692 4.96979 25.1008 5.43818C24.6324 5.90657 24.3692 6.54185 24.3692 7.20425V13.1044C24.3692 13.1893 24.3355 13.2707 24.2755 13.3307C24.2155 13.3907 24.1341 13.4244 24.0492 13.4244Z" fill="#1E1E1E"/>
<path d="M35.3859 16.0365C35.301 16.0365 35.2197 16.0028 35.1596 15.9428C35.0996 15.8827 35.0659 15.8014 35.0659 15.7165V9.6928C35.0659 9.60793 35.0996 9.52654 35.1596 9.46653C35.2197 9.40652 35.301 9.3728 35.3859 9.3728C35.4708 9.3728 35.5522 9.40652 35.6122 9.46653C35.6722 9.52654 35.7059 9.60793 35.7059 9.6928V15.7165C35.7059 15.8014 35.6722 15.8827 35.6122 15.9428C35.5522 16.0028 35.4708 16.0365 35.3859 16.0365Z" fill="#1E1E1E"/>
<path d="M18.3415 16.0365C18.2566 16.0365 18.1752 16.0028 18.1152 15.9428C18.0552 15.8827 18.0215 15.8014 18.0215 15.7165V9.6928C18.0215 9.60793 18.0552 9.52654 18.1152 9.46653C18.1752 9.40652 18.2566 9.3728 18.3415 9.3728C18.4264 9.3728 18.5077 9.40652 18.5678 9.46653C18.6278 9.52654 18.6615 9.60793 18.6615 9.6928V15.7165C18.6615 15.8014 18.6278 15.8827 18.5678 15.9428C18.5077 16.0028 18.4264 16.0365 18.3415 16.0365Z" fill="#1E1E1E"/>
<path d="M11.3526 43.9334H3.51995C3.43508 43.9334 3.35369 43.8997 3.29368 43.8397C3.23367 43.7797 3.19995 43.6983 3.19995 43.6134C3.19995 43.5285 3.23367 43.4471 3.29368 43.3871C3.35369 43.3271 3.43508 43.2934 3.51995 43.2934H11.0326V31.152H3.51995C3.43508 31.152 3.35369 31.1182 3.29368 31.0582C3.23367 30.9982 3.19995 30.9168 3.19995 30.832C3.19995 30.7471 3.23367 30.6657 3.29368 30.6057C3.35369 30.5457 3.43508 30.512 3.51995 30.512H11.3526C11.4375 30.512 11.5189 30.5457 11.5789 30.6057C11.6389 30.6657 11.6726 30.7471 11.6726 30.832V43.6134C11.6726 43.6983 11.6389 43.7797 11.5789 43.8397C11.5189 43.8997 11.4375 43.9334 11.3526 43.9334Z" fill="#1E1E1E"/>
<path d="M11.3527 34.1172C11.2876 34.1172 11.2242 34.0974 11.1707 34.0605C11.1172 34.0235 11.0762 33.9712 11.0532 33.9104C11.0302 33.8496 11.0262 33.7832 11.0419 33.7201C11.0575 33.657 11.092 33.6002 11.1408 33.5572L15.456 29.7568C16.1216 29.1724 16.8968 28.7262 17.7364 28.4441C18.5761 28.162 19.4634 28.0497 20.3469 28.1136L27.2448 28.6256C27.9101 28.6738 28.5307 28.9783 28.976 29.475C29.4212 29.9717 29.6563 30.6218 29.6316 31.2884C29.607 31.955 29.3246 32.586 28.8439 33.0485C28.3632 33.511 27.7218 33.7688 27.0547 33.7677H21.5226C21.4377 33.7677 21.3563 33.734 21.2963 33.674C21.2363 33.614 21.2026 33.5326 21.2026 33.4477C21.2026 33.3628 21.2363 33.2815 21.2963 33.2214C21.3563 33.1614 21.4377 33.1277 21.5226 33.1277H27.0531C27.5535 33.1271 28.0341 32.9326 28.3941 32.5851C28.7541 32.2377 28.9656 31.7643 28.984 31.2642C29.0024 30.7642 28.8264 30.2766 28.4929 29.9035C28.1595 29.5305 27.6945 29.3012 27.1955 29.2637L20.2979 28.7517C19.4995 28.695 18.6978 28.7971 17.939 29.052C17.1803 29.307 16.4796 29.7098 15.8775 30.2372L11.5642 34.0375C11.5057 34.0889 11.4305 34.1172 11.3527 34.1172Z" fill="#1E1E1E"/>
<path d="M11.3529 41.6221C11.279 41.6225 11.2073 41.5974 11.1499 41.551C11.0924 41.5046 11.0528 41.4397 11.0377 41.3674C11.0227 41.2951 11.0331 41.2198 11.0672 41.1543C11.1013 41.0888 11.157 41.0371 11.2249 41.008L11.9644 40.688C13.2279 40.1401 14.5907 39.8581 15.9679 39.8599H25.2188C27.8193 39.863 30.3601 39.0808 32.5087 37.6157L43.6127 30.066C43.8712 29.8905 44.0548 29.6248 44.1274 29.3209C44.2 29.0171 44.1564 28.6971 44.005 28.4237C43.8537 28.1504 43.6057 27.9435 43.3096 27.8438C43.0136 27.744 42.6909 27.7585 42.405 27.8845L30.606 33.0711C29.5632 33.5311 28.4357 33.768 27.2959 33.7664H27.0527C26.9678 33.7664 26.8864 33.7327 26.8264 33.6727C26.7664 33.6127 26.7327 33.5313 26.7327 33.4464C26.7327 33.3616 26.7664 33.2802 26.8264 33.2202C26.8864 33.1601 26.9678 33.1264 27.0527 33.1264H27.2959C28.3468 33.1282 29.3864 32.9102 30.3481 32.4864L42.1461 27.2999C42.5779 27.1114 43.0644 27.0908 43.5105 27.242C43.9566 27.3933 44.3303 27.7055 44.5584 28.1177C44.7864 28.5298 44.8526 29.0122 44.7438 29.4706C44.635 29.9289 44.3591 30.3302 43.9701 30.5959L32.8661 38.1479C30.6113 39.6849 27.9451 40.5055 25.2162 40.5024H15.9679C14.6778 40.5008 13.4013 40.7649 12.2178 41.2784L11.4783 41.5984C11.4385 41.6147 11.3958 41.6228 11.3529 41.6221Z" fill="#1E1E1E"/>
<path d="M7.28643 42.0424C6.94565 42.0425 6.61251 41.9415 6.32913 41.7522C6.04576 41.5629 5.82488 41.2939 5.69444 40.979C5.564 40.6642 5.52985 40.3178 5.59632 39.9835C5.66279 39.6493 5.82688 39.3423 6.06785 39.1013C6.30882 38.8603 6.61584 38.6962 6.95007 38.6298C7.28431 38.5633 7.63075 38.5974 7.94558 38.7279C8.26041 38.8583 8.52948 39.0792 8.71877 39.3626C8.90806 39.646 9.00906 39.9791 9.00899 40.3199C9.0084 40.7765 8.82673 41.2143 8.50381 41.5373C8.1809 41.8602 7.7431 42.0418 7.28643 42.0424ZM7.28643 39.237C7.07225 39.2369 6.86285 39.3004 6.68473 39.4193C6.50661 39.5383 6.36776 39.7074 6.28575 39.9053C6.20374 40.1031 6.18225 40.3209 6.224 40.5309C6.26575 40.741 6.36886 40.934 6.52029 41.0855C6.67172 41.237 6.86467 41.3401 7.07474 41.3819C7.2848 41.4237 7.50255 41.4023 7.70044 41.3204C7.89833 41.2384 8.06747 41.0996 8.18647 40.9215C8.30548 40.7434 8.36899 40.5341 8.36899 40.3199C8.36874 40.0328 8.25461 39.7576 8.05166 39.5546C7.8487 39.3515 7.5735 39.2373 7.28643 39.237Z" fill="#1E1E1E"/>
</svg>
