<svg width="36" height="36" viewBox="0 0 36 36" fill="none" xmlns="http://www.w3.org/2000/svg">
<path d="M4.66107 20.6339C4.21387 20.6339 3.77673 20.5013 3.4049 20.2528C3.03307 20.0044 2.74327 19.6513 2.57214 19.2381C2.401 18.825 2.35623 18.3704 2.44347 17.9318C2.53071 17.4932 2.74606 17.0903 3.06227 16.7741C3.37848 16.4578 3.78136 16.2425 4.21996 16.1553C4.65856 16.068 5.11318 16.1128 5.52633 16.2839C5.93948 16.4551 6.29261 16.7449 6.54105 17.1167C6.7895 17.4885 6.92211 17.9257 6.92211 18.3729C6.92147 18.9723 6.68305 19.5471 6.25916 19.971C5.83527 20.3948 5.26054 20.6333 4.66107 20.6339ZM4.66107 16.5918C4.30881 16.5918 3.96446 16.6963 3.67157 16.892C3.37868 17.0877 3.1504 17.3658 3.0156 17.6913C2.8808 18.0167 2.84553 18.3748 2.91425 18.7203C2.98297 19.0658 3.1526 19.3832 3.40168 19.6322C3.65076 19.8813 3.96811 20.051 4.3136 20.1197C4.65909 20.1884 5.0172 20.1531 5.34264 20.0183C5.66808 19.8835 5.94624 19.6552 6.14195 19.3624C6.33765 19.0695 6.44211 18.7251 6.44211 18.3729C6.4416 17.9007 6.25379 17.4479 5.91989 17.114C5.58599 16.7801 5.13327 16.5923 4.66107 16.5918Z" fill="#002F49"/>
<path d="M4.661 19.4213C4.45367 19.4213 4.25101 19.3598 4.07865 19.2446C3.90628 19.1293 3.77195 18.9656 3.69265 18.774C3.61334 18.5825 3.59261 18.3717 3.63309 18.1684C3.67356 17.965 3.77343 17.7783 3.92005 17.6317C4.06667 17.4851 4.25346 17.3853 4.45681 17.3448C4.66015 17.3044 4.87092 17.3252 5.06247 17.4045C5.25401 17.4839 5.41772 17.6182 5.5329 17.7906C5.64808 17.963 5.70956 18.1657 5.70956 18.373C5.70924 18.651 5.59866 18.9175 5.40207 19.114C5.20549 19.3106 4.93897 19.4211 4.661 19.4213ZM4.661 17.8047C4.5486 17.8048 4.43875 17.8381 4.34532 17.9006C4.25189 17.9631 4.17909 18.0519 4.13611 18.1557C4.09313 18.2596 4.08191 18.3738 4.10386 18.484C4.12582 18.5943 4.17997 18.6955 4.25946 18.775C4.33895 18.8544 4.44021 18.9085 4.55045 18.9304C4.66069 18.9524 4.77494 18.9411 4.87878 18.8981C4.98261 18.855 5.07136 18.7822 5.13379 18.6887C5.19623 18.5953 5.22956 18.4854 5.22956 18.373C5.22943 18.2223 5.16948 18.0778 5.06287 17.9712C4.95627 17.8647 4.81173 17.8048 4.661 17.8047Z" fill="#002F49"/>
<path d="M29.8157 14.1056C29.8032 14.1056 29.7917 14.1056 29.778 14.1044C29.6862 14.0978 29.598 14.0658 29.5234 14.0118C29.4488 13.9579 29.3907 13.8843 29.3556 13.7992L25.272 3.98124C25.2353 3.89296 25.2248 3.79597 25.2418 3.70188C25.2588 3.60779 25.3025 3.52059 25.3678 3.45071C25.433 3.38082 25.517 3.33122 25.6097 3.30784C25.7024 3.28445 25.7999 3.28827 25.8905 3.31884L29.3945 4.50132C29.4266 4.51226 29.4561 4.5299 29.4809 4.55307C29.5057 4.57624 29.5254 4.60441 29.5385 4.63572L32.0647 10.6484C32.0792 10.6832 32.0854 10.7208 32.0827 10.7583C32.08 10.7958 32.0685 10.8322 32.0491 10.8644L30.24 13.8649C30.1962 13.9383 30.134 13.9991 30.0596 14.0413C29.9853 14.0835 29.9012 14.1057 29.8157 14.1056ZM29.7989 13.6148L29.8301 13.6172L31.5756 10.7219L29.1387 4.92156L25.7374 3.77364L25.7155 3.79764L29.7989 13.6156V13.6148Z" fill="#002F49"/>
<path d="M30.1601 11.79C30.1127 11.79 30.0664 11.776 30.027 11.7497C29.9876 11.7234 29.9568 11.6861 29.9386 11.6424L27.1764 5.03998C27.1635 5.01078 27.1566 4.97931 27.156 4.9474C27.1555 4.91549 27.1613 4.88379 27.1731 4.85415C27.1849 4.82452 27.2026 4.79753 27.2249 4.77479C27.2473 4.75204 27.274 4.73399 27.3035 4.72168C27.3329 4.70938 27.3645 4.70307 27.3964 4.70313C27.4283 4.70318 27.4599 4.7096 27.4893 4.72201C27.5187 4.73442 27.5454 4.75257 27.5677 4.77539C27.59 4.79822 27.6075 4.82526 27.6192 4.85494L30.3814 11.4571C30.3966 11.4936 30.4027 11.5332 30.3989 11.5726C30.3951 11.6119 30.3817 11.6498 30.3598 11.6827C30.3379 11.7156 30.3082 11.7426 30.2734 11.7613C30.2385 11.7799 30.1996 11.79 30.1601 11.79Z" fill="#002F49"/>
<path d="M5.89444 17.0113C5.83682 17.0117 5.78098 16.9913 5.73713 16.9539C5.69328 16.9166 5.66434 16.8647 5.65561 16.8077C5.64687 16.7507 5.65892 16.6925 5.68955 16.6437C5.72018 16.5949 5.76735 16.5588 5.82244 16.5419L14.8364 12.8939C14.8656 12.8818 14.897 12.8756 14.9286 12.8757C14.9603 12.8758 14.9916 12.8822 15.0208 12.8945C15.05 12.9067 15.0765 12.9246 15.0987 12.9472C15.1209 12.9697 15.1385 12.9964 15.1504 13.0257C15.1622 13.0551 15.1682 13.0865 15.1679 13.1181C15.1675 13.1498 15.161 13.1811 15.1485 13.2102C15.1361 13.2393 15.118 13.2656 15.0953 13.2877C15.0726 13.3098 15.0458 13.3272 15.0164 13.3388L5.98516 16.994C5.95633 17.0056 5.92552 17.0115 5.89444 17.0113Z" fill="#002F49"/>
<path d="M18.1608 12.0457C18.105 12.0457 18.051 12.0264 18.008 11.991C17.965 11.9556 17.9356 11.9063 17.925 11.8516C17.9143 11.797 17.923 11.7403 17.9495 11.6913C17.9761 11.6423 18.0189 11.6041 18.0705 11.5832L27.1644 7.90159C27.1936 7.88976 27.2248 7.88379 27.2564 7.88404C27.2879 7.88429 27.319 7.89074 27.3481 7.90303C27.3771 7.91532 27.4034 7.93321 27.4255 7.95567C27.4477 7.97814 27.4651 8.00474 27.477 8.03395C27.4888 8.06317 27.4948 8.09443 27.4945 8.12595C27.4943 8.15747 27.4878 8.18864 27.4755 8.21767C27.4632 8.24669 27.4453 8.27302 27.4229 8.29513C27.4004 8.31725 27.3738 8.33472 27.3446 8.34655L18.2508 12.0282C18.2222 12.0398 18.1916 12.0457 18.1608 12.0457Z" fill="#002F49"/>
<path d="M6.66002 18.9C6.60426 18.9001 6.55024 18.8807 6.50722 18.8452C6.4642 18.8097 6.43488 18.7604 6.42429 18.7056C6.4137 18.6509 6.4225 18.5942 6.44918 18.5452C6.47586 18.4962 6.51876 18.4581 6.5705 18.4373L16.1055 14.6048C16.1349 14.5919 16.1666 14.5851 16.1986 14.5847C16.2307 14.5844 16.2626 14.5904 16.2923 14.6025C16.322 14.6147 16.3489 14.6326 16.3716 14.6554C16.3942 14.6781 16.4121 14.7052 16.4241 14.7349C16.4361 14.7647 16.442 14.7965 16.4415 14.8286C16.4409 14.8607 16.434 14.8924 16.421 14.9217C16.4081 14.9511 16.3893 14.9775 16.366 14.9995C16.3426 15.0215 16.3151 15.0386 16.285 15.0497L6.74954 18.8828C6.72108 18.8942 6.69069 18.9001 6.66002 18.9Z" fill="#002F49"/>
<path d="M19.5504 13.7186C19.4945 13.7188 19.4404 13.6995 19.3972 13.664C19.3541 13.6285 19.3247 13.5791 19.3141 13.5242C19.3035 13.4694 19.3123 13.4125 19.3391 13.3635C19.3659 13.3145 19.409 13.2764 19.4609 13.2557L27.9713 9.83568C28.0005 9.82392 28.0318 9.81804 28.0633 9.81837C28.0948 9.8187 28.126 9.82524 28.155 9.83761C28.184 9.84998 28.2103 9.86794 28.2323 9.89046C28.2544 9.91298 28.2718 9.93963 28.2835 9.96888C28.2953 9.99812 28.3012 10.0294 28.3008 10.0609C28.3005 10.0924 28.294 10.1236 28.2816 10.1526C28.2692 10.1816 28.2513 10.2079 28.2287 10.2299C28.2062 10.252 28.1796 10.2694 28.1503 10.2811L19.6399 13.7011C19.6115 13.7126 19.5811 13.7185 19.5504 13.7186Z" fill="#002F49"/>
<path d="M33.36 32.7078H2.64002C2.57637 32.7078 2.51533 32.6825 2.47032 32.6375C2.42531 32.5925 2.40002 32.5314 2.40002 32.4678C2.40002 32.4041 2.42531 32.3431 2.47032 32.2981C2.51533 32.2531 2.57637 32.2278 2.64002 32.2278H33.36C33.4237 32.2278 33.4847 32.2531 33.5297 32.2981C33.5747 32.3431 33.6 32.4041 33.6 32.4678C33.6 32.5314 33.5747 32.5925 33.5297 32.6375C33.4847 32.6825 33.4237 32.7078 33.36 32.7078Z" fill="#002F49"/>
<path d="M32.4504 32.7077H26.8603C26.5555 32.7077 26.2631 32.5866 26.0476 32.371C25.832 32.1555 25.7109 31.8631 25.7109 31.5583C25.7109 31.2535 25.832 30.9611 26.0476 30.7456C26.2631 30.53 26.5555 30.4089 26.8603 30.4089H32.4504C32.7552 30.4089 33.0475 30.53 33.2631 30.7456C33.4786 30.9611 33.5997 31.2535 33.5997 31.5583C33.5997 31.8631 33.4786 32.1555 33.2631 32.371C33.0475 32.5866 32.7552 32.7077 32.4504 32.7077ZM26.8603 30.888C26.6828 30.888 26.5125 30.9585 26.387 31.084C26.2615 31.2096 26.1909 31.3798 26.1909 31.5573C26.1909 31.7349 26.2615 31.9051 26.387 32.0306C26.5125 32.1562 26.6828 32.2267 26.8603 32.2267H32.4504C32.6279 32.2267 32.7982 32.1562 32.9237 32.0306C33.0492 31.9051 33.1197 31.7349 33.1197 31.5573C33.1197 31.3798 33.0492 31.2096 32.9237 31.084C32.7982 30.9585 32.6279 30.888 32.4504 30.888H26.8603Z" fill="#002F49"/>
<path d="M30.7649 30.8881H28.5089C28.4453 30.8881 28.3842 30.8628 28.3392 30.8178C28.2942 30.7728 28.2689 30.7118 28.2689 30.6481V29.5201C28.2689 29.1573 28.413 28.8093 28.6696 28.5528C28.9261 28.2962 29.2741 28.1521 29.6369 28.1521C29.9997 28.1521 30.3477 28.2962 30.6042 28.5528C30.8608 28.8093 31.0049 29.1573 31.0049 29.5201V30.6481C31.0049 30.7118 30.9796 30.7728 30.9346 30.8178C30.8896 30.8628 30.8286 30.8881 30.7649 30.8881ZM28.7489 30.4081H30.5249V29.5201C30.5249 29.2846 30.4314 29.0587 30.2648 28.8922C30.0983 28.7257 29.8724 28.6321 29.6369 28.6321C29.4014 28.6321 29.1755 28.7257 29.009 28.8922C28.8425 29.0587 28.7489 29.2846 28.7489 29.5201V30.4081Z" fill="#002F49"/>
<path d="M29.6371 28.6331C29.5734 28.6331 29.5124 28.6078 29.4674 28.5628C29.4224 28.5178 29.3971 28.4568 29.3971 28.3931V13.707C29.3971 13.6434 29.4224 13.5823 29.4674 13.5373C29.5124 13.4923 29.5734 13.467 29.6371 13.467C29.7007 13.467 29.7618 13.4923 29.8068 13.5373C29.8518 13.5823 29.8771 13.6434 29.8771 13.707V28.3931C29.8771 28.4568 29.8518 28.5178 29.8068 28.5628C29.7618 28.6078 29.7007 28.6331 29.6371 28.6331Z" fill="#002F49"/>
<path d="M6.66531 32.7078H2.64002C2.57637 32.7078 2.51533 32.6825 2.47032 32.6375C2.42531 32.5925 2.40002 32.5314 2.40002 32.4678V28.8301C2.40002 28.7664 2.42531 28.7054 2.47032 28.6604C2.51533 28.6154 2.57637 28.5901 2.64002 28.5901H6.66531C6.72896 28.5901 6.79 28.6154 6.83501 28.6604C6.88002 28.7054 6.9053 28.7664 6.9053 28.8301V32.4678C6.9053 32.5314 6.88002 32.5925 6.83501 32.6375C6.79 32.6825 6.72896 32.7078 6.66531 32.7078ZM2.88002 32.2278H6.4253V29.0701H2.88002V32.2278Z" fill="#002F49"/>
<path d="M5.71991 29.07H3.58583C3.52217 29.07 3.46113 29.0448 3.41612 28.9998C3.37111 28.9547 3.34583 28.8937 3.34583 28.83V28.608C3.34621 28.2988 3.46924 28.0022 3.68795 27.7835C3.90665 27.5648 4.20317 27.4418 4.51247 27.4414H4.79351C5.10278 27.4418 5.39927 27.5648 5.61794 27.7835C5.83661 28.0023 5.95959 28.2988 5.95991 28.608V28.8296C5.95997 28.8611 5.95381 28.8924 5.94177 28.9216C5.92974 28.9507 5.91207 28.9772 5.88978 28.9996C5.86749 29.0219 5.84101 29.0396 5.81186 29.0517C5.78271 29.0638 5.75146 29.07 5.71991 29.07ZM3.82607 28.59H5.47991C5.47479 28.4113 5.40027 28.2416 5.27213 28.1168C5.144 27.9921 4.97232 27.9222 4.79351 27.9219H4.51199C4.33325 27.9223 4.1617 27.9923 4.03367 28.117C3.90564 28.2417 3.83118 28.4114 3.82607 28.59Z" fill="#002F49"/>
<path d="M6.66508 32.7078C6.60572 32.7078 6.54847 32.6858 6.50452 32.6459L2.47924 29.0079C2.45456 28.9872 2.43432 28.9617 2.41971 28.9329C2.40511 28.9042 2.39645 28.8728 2.39424 28.8407C2.39203 28.8085 2.39633 28.7762 2.40687 28.7457C2.41742 28.7153 2.43399 28.6872 2.4556 28.6633C2.47722 28.6394 2.50343 28.6201 2.53267 28.6065C2.56192 28.5929 2.5936 28.5854 2.62582 28.5844C2.65804 28.5833 2.69015 28.5887 2.72022 28.6004C2.75029 28.612 2.77771 28.6296 2.80084 28.652L6.82612 32.2899C6.86203 32.3225 6.88725 32.3651 6.89846 32.4123C6.90966 32.4594 6.90633 32.5089 6.8889 32.5541C6.87148 32.5993 6.84077 32.6382 6.80082 32.6656C6.76086 32.6931 6.71354 32.7078 6.66508 32.7078Z" fill="#002F49"/>
<path d="M4.66102 27.9219C4.59737 27.9219 4.53632 27.8966 4.49132 27.8516C4.44631 27.8066 4.42102 27.7455 4.42102 27.6819V20.3941C4.42102 20.3304 4.44631 20.2694 4.49132 20.2243C4.53632 20.1793 4.59737 20.1541 4.66102 20.1541C4.72467 20.1541 4.78572 20.1793 4.83073 20.2243C4.87574 20.2694 4.90102 20.3304 4.90102 20.3941V27.6819C4.90102 27.7455 4.87574 27.8066 4.83073 27.8516C4.78572 27.8966 4.72467 27.9219 4.66102 27.9219Z" fill="#002F49"/>
<path d="M20.9426 32.7077H13.4527C13.4182 32.7078 13.3841 32.7004 13.3527 32.686C13.3214 32.6717 13.2935 32.6507 13.2709 32.6246C13.2484 32.5985 13.2317 32.5679 13.2221 32.5348C13.2124 32.5016 13.2101 32.4668 13.2151 32.4327L15.8345 14.6677C15.8437 14.6047 15.8777 14.548 15.9288 14.51C15.9799 14.472 16.044 14.4559 16.107 14.4652C16.17 14.4745 16.2267 14.5084 16.2646 14.5596C16.3026 14.6107 16.3187 14.6748 16.3094 14.7377L13.7306 32.2277H20.664L18.09 14.7377C18.0807 14.6748 18.0969 14.6107 18.1348 14.5596C18.1728 14.5085 18.2296 14.4746 18.2925 14.4653C18.3555 14.4561 18.4196 14.4722 18.4707 14.5102C18.5218 14.5482 18.5557 14.6049 18.5649 14.6679L21.1809 32.4329C21.1859 32.467 21.1835 32.5018 21.1739 32.5349C21.1643 32.5679 21.1476 32.5985 21.1251 32.6246C21.1026 32.6507 21.0747 32.6716 21.0434 32.6859C21.0121 32.7003 20.978 32.7077 20.9436 32.7077H20.9426Z" fill="#002F49"/>
<path d="M17.1976 16.0706C17.134 16.0706 17.073 16.0453 17.028 16.0003L14.5336 13.506C14.4887 13.461 14.4634 13.4 14.4634 13.3363C14.4634 13.2727 14.4887 13.2117 14.5336 13.1666L17.028 10.6726C17.073 10.6276 17.134 10.6023 17.1976 10.6023C17.2613 10.6023 17.3223 10.6276 17.3673 10.6726L19.8616 13.1666C19.9066 13.2117 19.9319 13.2727 19.9319 13.3363C19.9319 13.4 19.9066 13.461 19.8616 13.506L17.3673 16.0003C17.3223 16.0453 17.2613 16.0706 17.1976 16.0706ZM15.0427 13.3363L17.1976 15.4913L19.3526 13.3363L17.1976 11.1816L15.0427 13.3363Z" fill="#002F49"/>
<path d="M13.4527 32.7078C13.4029 32.7077 13.3543 32.6922 13.3137 32.6633C13.2731 32.6344 13.2425 32.5936 13.2262 32.5465C13.2098 32.4995 13.2085 32.4485 13.2225 32.4007C13.2364 32.3528 13.2648 32.3105 13.3039 32.2796L19.7839 27.1575L14.7393 22.8704C14.713 22.8479 14.6918 22.8199 14.6772 22.7884C14.6627 22.7569 14.6552 22.7226 14.6552 22.6879C14.6552 22.6532 14.6627 22.6189 14.6772 22.5874C14.6918 22.5559 14.713 22.5279 14.7393 22.5054L18.6331 19.1694L15.696 16.2812C15.6717 16.2596 15.6521 16.2333 15.6383 16.2038C15.6246 16.1744 15.6169 16.1425 15.6158 16.11C15.6148 16.0775 15.6203 16.0452 15.6321 16.0149C15.6439 15.9846 15.6617 15.957 15.6845 15.9339C15.7073 15.9107 15.7345 15.8924 15.7646 15.88C15.7946 15.8677 15.8269 15.8616 15.8594 15.8621C15.8919 15.8626 15.9239 15.8697 15.9536 15.8829C15.9833 15.8962 16.0099 15.9153 16.032 15.9392L19.1541 19.0112C19.1779 19.0345 19.1965 19.0625 19.2089 19.0934C19.2212 19.1242 19.227 19.1574 19.2259 19.1906C19.2247 19.2238 19.2167 19.2565 19.2023 19.2865C19.1879 19.3164 19.1674 19.3431 19.1421 19.3647L15.264 22.6868L20.3167 26.9811C20.3438 27.0041 20.3654 27.0328 20.3801 27.0652C20.3947 27.0976 20.402 27.1328 20.4014 27.1683C20.4008 27.2038 20.3923 27.2388 20.3765 27.2706C20.3607 27.3024 20.3381 27.3304 20.3102 27.3524L13.601 32.6564C13.5587 32.6897 13.5065 32.7077 13.4527 32.7078Z" fill="#002F49"/>
<path d="M20.9279 32.7076C20.874 32.7076 20.8215 32.6894 20.7791 32.656L14.0699 27.352C14.0421 27.3299 14.0194 27.302 14.0037 27.2702C13.9879 27.2383 13.9794 27.2034 13.9788 27.1679C13.9782 27.1323 13.9855 27.0971 14.0001 27.0648C14.0147 27.0324 14.0364 27.0037 14.0635 26.9807L19.1157 22.6866L15.2373 19.3636C15.212 19.342 15.1915 19.3153 15.1771 19.2854C15.1627 19.2554 15.1546 19.2227 15.1535 19.1895C15.1523 19.1563 15.1581 19.1231 15.1704 19.0923C15.1827 19.0614 15.2013 19.0334 15.2251 19.0101L18.3475 15.9381C18.3935 15.897 18.4535 15.8753 18.5151 15.8773C18.5767 15.8794 18.6352 15.905 18.6784 15.949C18.7216 15.993 18.7462 16.0519 18.7471 16.1135C18.7481 16.1751 18.7253 16.2348 18.6835 16.2801L15.748 19.1692L19.6418 22.5052C19.6682 22.5277 19.6894 22.5557 19.7039 22.5872C19.7184 22.6187 19.7259 22.653 19.7259 22.6877C19.7259 22.7224 19.7184 22.7567 19.7039 22.7882C19.6894 22.8197 19.6682 22.8477 19.6418 22.8702L14.5967 27.1573L21.0767 32.2794C21.1158 32.3103 21.1443 32.3527 21.1582 32.4005C21.1721 32.4483 21.1708 32.4993 21.1545 32.5464C21.1381 32.5934 21.1075 32.6342 21.0669 32.6631C21.0263 32.692 20.9778 32.7075 20.9279 32.7076Z" fill="#002F49"/>
<path d="M4.66107 20.6339C4.21387 20.6339 3.77673 20.5013 3.4049 20.2528C3.03307 20.0044 2.74327 19.6513 2.57214 19.2381C2.401 18.825 2.35623 18.3704 2.44347 17.9318C2.53071 17.4932 2.74606 17.0903 3.06227 16.7741C3.37848 16.4578 3.78136 16.2425 4.21996 16.1553C4.65856 16.068 5.11318 16.1128 5.52633 16.2839C5.93948 16.4551 6.29261 16.7449 6.54105 17.1167C6.7895 17.4885 6.92211 17.9257 6.92211 18.3729C6.92147 18.9723 6.68305 19.5471 6.25916 19.971C5.83527 20.3948 5.26054 20.6333 4.66107 20.6339ZM4.66107 16.5918C4.30881 16.5918 3.96446 16.6963 3.67157 16.892C3.37868 17.0877 3.1504 17.3658 3.0156 17.6913C2.8808 18.0167 2.84553 18.3748 2.91425 18.7203C2.98297 19.0658 3.1526 19.3832 3.40168 19.6322C3.65076 19.8813 3.96811 20.051 4.3136 20.1197C4.65909 20.1884 5.0172 20.1531 5.34264 20.0183C5.66808 19.8835 5.94624 19.6552 6.14195 19.3624C6.33765 19.0695 6.44211 18.7251 6.44211 18.3729C6.4416 17.9007 6.25379 17.4479 5.91989 17.114C5.58599 16.7801 5.13327 16.5923 4.66107 16.5918Z" fill="#002F49"/>
<path d="M4.661 19.4213C4.45367 19.4213 4.25101 19.3598 4.07865 19.2446C3.90628 19.1293 3.77195 18.9656 3.69265 18.774C3.61334 18.5825 3.59261 18.3717 3.63309 18.1684C3.67356 17.965 3.77343 17.7783 3.92005 17.6317C4.06667 17.4851 4.25346 17.3853 4.45681 17.3448C4.66015 17.3044 4.87092 17.3252 5.06247 17.4045C5.25401 17.4839 5.41772 17.6182 5.5329 17.7906C5.64808 17.963 5.70956 18.1657 5.70956 18.373C5.70924 18.651 5.59866 18.9175 5.40207 19.114C5.20549 19.3106 4.93897 19.4211 4.661 19.4213ZM4.661 17.8047C4.5486 17.8048 4.43875 17.8381 4.34532 17.9006C4.25189 17.9631 4.17909 18.0519 4.13611 18.1557C4.09313 18.2596 4.08191 18.3738 4.10386 18.484C4.12582 18.5943 4.17997 18.6955 4.25946 18.775C4.33895 18.8544 4.44021 18.9085 4.55045 18.9304C4.66069 18.9524 4.77494 18.9411 4.87878 18.8981C4.98261 18.855 5.07136 18.7822 5.13379 18.6887C5.19623 18.5953 5.22956 18.4854 5.22956 18.373C5.22943 18.2223 5.16948 18.0778 5.06287 17.9712C4.95627 17.8647 4.81173 17.8048 4.661 17.8047Z" fill="#002F49"/>
<path d="M29.8157 14.1056C29.8032 14.1056 29.7917 14.1056 29.778 14.1044C29.6862 14.0978 29.598 14.0658 29.5234 14.0118C29.4488 13.9579 29.3907 13.8843 29.3556 13.7992L25.272 3.98124C25.2353 3.89296 25.2248 3.79597 25.2418 3.70188C25.2588 3.60779 25.3025 3.52059 25.3678 3.45071C25.433 3.38082 25.517 3.33122 25.6097 3.30784C25.7024 3.28445 25.7999 3.28827 25.8905 3.31884L29.3945 4.50132C29.4266 4.51226 29.4561 4.5299 29.4809 4.55307C29.5057 4.57624 29.5254 4.60441 29.5385 4.63572L32.0647 10.6484C32.0792 10.6832 32.0854 10.7208 32.0827 10.7583C32.08 10.7958 32.0685 10.8322 32.0491 10.8644L30.24 13.8649C30.1962 13.9383 30.134 13.9991 30.0596 14.0413C29.9853 14.0835 29.9012 14.1057 29.8157 14.1056ZM29.7989 13.6148L29.8301 13.6172L31.5756 10.7219L29.1387 4.92156L25.7374 3.77364L25.7155 3.79764L29.7989 13.6156V13.6148Z" fill="#002F49"/>
<path d="M30.1601 11.79C30.1127 11.79 30.0664 11.776 30.027 11.7497C29.9876 11.7234 29.9568 11.6861 29.9386 11.6424L27.1764 5.03998C27.1635 5.01078 27.1566 4.97931 27.156 4.9474C27.1555 4.91549 27.1613 4.88379 27.1731 4.85415C27.1849 4.82452 27.2026 4.79753 27.2249 4.77479C27.2473 4.75204 27.274 4.73399 27.3035 4.72168C27.3329 4.70938 27.3645 4.70307 27.3964 4.70313C27.4283 4.70318 27.4599 4.7096 27.4893 4.72201C27.5187 4.73442 27.5454 4.75257 27.5677 4.77539C27.59 4.79822 27.6075 4.82526 27.6192 4.85494L30.3814 11.4571C30.3966 11.4936 30.4027 11.5332 30.3989 11.5726C30.3951 11.6119 30.3817 11.6498 30.3598 11.6827C30.3379 11.7156 30.3082 11.7426 30.2734 11.7613C30.2385 11.7799 30.1996 11.79 30.1601 11.79Z" fill="#002F49"/>
<path d="M5.89444 17.0113C5.83682 17.0117 5.78098 16.9913 5.73713 16.9539C5.69328 16.9166 5.66434 16.8647 5.65561 16.8077C5.64687 16.7507 5.65892 16.6925 5.68955 16.6437C5.72018 16.5949 5.76735 16.5588 5.82244 16.5419L14.8364 12.8939C14.8656 12.8818 14.897 12.8756 14.9286 12.8757C14.9603 12.8758 14.9916 12.8822 15.0208 12.8945C15.05 12.9067 15.0765 12.9246 15.0987 12.9472C15.1209 12.9697 15.1385 12.9964 15.1504 13.0257C15.1622 13.0551 15.1682 13.0865 15.1679 13.1181C15.1675 13.1498 15.161 13.1811 15.1485 13.2102C15.1361 13.2393 15.118 13.2656 15.0953 13.2877C15.0726 13.3098 15.0458 13.3272 15.0164 13.3388L5.98516 16.994C5.95633 17.0056 5.92552 17.0115 5.89444 17.0113Z" fill="#002F49"/>
<path d="M18.1608 12.0457C18.105 12.0457 18.051 12.0264 18.008 11.991C17.965 11.9556 17.9356 11.9063 17.925 11.8516C17.9143 11.797 17.923 11.7403 17.9495 11.6913C17.9761 11.6423 18.0189 11.6041 18.0705 11.5832L27.1644 7.90159C27.1936 7.88976 27.2248 7.88379 27.2564 7.88404C27.2879 7.88429 27.319 7.89074 27.3481 7.90303C27.3771 7.91532 27.4034 7.93321 27.4255 7.95567C27.4477 7.97814 27.4651 8.00474 27.477 8.03395C27.4888 8.06317 27.4948 8.09443 27.4945 8.12595C27.4943 8.15747 27.4878 8.18864 27.4755 8.21767C27.4632 8.24669 27.4453 8.27302 27.4229 8.29513C27.4004 8.31725 27.3738 8.33472 27.3446 8.34655L18.2508 12.0282C18.2222 12.0398 18.1916 12.0457 18.1608 12.0457Z" fill="#002F49"/>
<path d="M6.66002 18.9C6.60426 18.9001 6.55024 18.8807 6.50722 18.8452C6.4642 18.8097 6.43488 18.7604 6.42429 18.7056C6.4137 18.6509 6.4225 18.5942 6.44918 18.5452C6.47586 18.4962 6.51876 18.4581 6.5705 18.4373L16.1055 14.6048C16.1349 14.5919 16.1666 14.5851 16.1986 14.5847C16.2307 14.5844 16.2626 14.5904 16.2923 14.6025C16.322 14.6147 16.3489 14.6326 16.3716 14.6554C16.3942 14.6781 16.4121 14.7052 16.4241 14.7349C16.4361 14.7647 16.442 14.7965 16.4415 14.8286C16.4409 14.8607 16.434 14.8924 16.421 14.9217C16.4081 14.9511 16.3893 14.9775 16.366 14.9995C16.3426 15.0215 16.3151 15.0386 16.285 15.0497L6.74954 18.8828C6.72108 18.8942 6.69069 18.9001 6.66002 18.9Z" fill="#002F49"/>
<path d="M19.5504 13.7186C19.4945 13.7188 19.4404 13.6995 19.3972 13.664C19.3541 13.6285 19.3247 13.5791 19.3141 13.5242C19.3035 13.4694 19.3123 13.4125 19.3391 13.3635C19.3659 13.3145 19.409 13.2764 19.4609 13.2557L27.9713 9.83568C28.0005 9.82392 28.0318 9.81804 28.0633 9.81837C28.0948 9.8187 28.126 9.82524 28.155 9.83761C28.184 9.84998 28.2103 9.86794 28.2323 9.89046C28.2544 9.91298 28.2718 9.93963 28.2835 9.96888C28.2953 9.99812 28.3012 10.0294 28.3008 10.0609C28.3005 10.0924 28.294 10.1236 28.2816 10.1526C28.2692 10.1816 28.2513 10.2079 28.2287 10.2299C28.2062 10.252 28.1796 10.2694 28.1503 10.2811L19.6399 13.7011C19.6115 13.7126 19.5811 13.7185 19.5504 13.7186Z" fill="#002F49"/>
<path d="M33.36 32.7078H2.64002C2.57637 32.7078 2.51533 32.6825 2.47032 32.6375C2.42531 32.5925 2.40002 32.5314 2.40002 32.4678C2.40002 32.4041 2.42531 32.3431 2.47032 32.2981C2.51533 32.2531 2.57637 32.2278 2.64002 32.2278H33.36C33.4237 32.2278 33.4847 32.2531 33.5297 32.2981C33.5747 32.3431 33.6 32.4041 33.6 32.4678C33.6 32.5314 33.5747 32.5925 33.5297 32.6375C33.4847 32.6825 33.4237 32.7078 33.36 32.7078Z" fill="#002F49"/>
<path d="M32.4504 32.7077H26.8603C26.5555 32.7077 26.2631 32.5866 26.0476 32.371C25.832 32.1555 25.7109 31.8631 25.7109 31.5583C25.7109 31.2535 25.832 30.9611 26.0476 30.7456C26.2631 30.53 26.5555 30.4089 26.8603 30.4089H32.4504C32.7552 30.4089 33.0475 30.53 33.2631 30.7456C33.4786 30.9611 33.5997 31.2535 33.5997 31.5583C33.5997 31.8631 33.4786 32.1555 33.2631 32.371C33.0475 32.5866 32.7552 32.7077 32.4504 32.7077ZM26.8603 30.888C26.6828 30.888 26.5125 30.9585 26.387 31.084C26.2615 31.2096 26.1909 31.3798 26.1909 31.5573C26.1909 31.7349 26.2615 31.9051 26.387 32.0306C26.5125 32.1562 26.6828 32.2267 26.8603 32.2267H32.4504C32.6279 32.2267 32.7982 32.1562 32.9237 32.0306C33.0492 31.9051 33.1197 31.7349 33.1197 31.5573C33.1197 31.3798 33.0492 31.2096 32.9237 31.084C32.7982 30.9585 32.6279 30.888 32.4504 30.888H26.8603Z" fill="#002F49"/>
<path d="M30.7649 30.8881H28.5089C28.4453 30.8881 28.3842 30.8628 28.3392 30.8178C28.2942 30.7728 28.2689 30.7118 28.2689 30.6481V29.5201C28.2689 29.1573 28.413 28.8093 28.6696 28.5528C28.9261 28.2962 29.2741 28.1521 29.6369 28.1521C29.9997 28.1521 30.3477 28.2962 30.6042 28.5528C30.8608 28.8093 31.0049 29.1573 31.0049 29.5201V30.6481C31.0049 30.7118 30.9796 30.7728 30.9346 30.8178C30.8896 30.8628 30.8286 30.8881 30.7649 30.8881ZM28.7489 30.4081H30.5249V29.5201C30.5249 29.2846 30.4314 29.0587 30.2648 28.8922C30.0983 28.7257 29.8724 28.6321 29.6369 28.6321C29.4014 28.6321 29.1755 28.7257 29.009 28.8922C28.8425 29.0587 28.7489 29.2846 28.7489 29.5201V30.4081Z" fill="#002F49"/>
<path d="M29.6371 28.6331C29.5734 28.6331 29.5124 28.6078 29.4674 28.5628C29.4224 28.5178 29.3971 28.4568 29.3971 28.3931V13.707C29.3971 13.6434 29.4224 13.5823 29.4674 13.5373C29.5124 13.4923 29.5734 13.467 29.6371 13.467C29.7007 13.467 29.7618 13.4923 29.8068 13.5373C29.8518 13.5823 29.8771 13.6434 29.8771 13.707V28.3931C29.8771 28.4568 29.8518 28.5178 29.8068 28.5628C29.7618 28.6078 29.7007 28.6331 29.6371 28.6331Z" fill="#002F49"/>
<path d="M6.66531 32.7078H2.64002C2.57637 32.7078 2.51533 32.6825 2.47032 32.6375C2.42531 32.5925 2.40002 32.5314 2.40002 32.4678V28.8301C2.40002 28.7664 2.42531 28.7054 2.47032 28.6604C2.51533 28.6154 2.57637 28.5901 2.64002 28.5901H6.66531C6.72896 28.5901 6.79 28.6154 6.83501 28.6604C6.88002 28.7054 6.9053 28.7664 6.9053 28.8301V32.4678C6.9053 32.5314 6.88002 32.5925 6.83501 32.6375C6.79 32.6825 6.72896 32.7078 6.66531 32.7078ZM2.88002 32.2278H6.4253V29.0701H2.88002V32.2278Z" fill="#002F49"/>
<path d="M5.71991 29.07H3.58583C3.52217 29.07 3.46113 29.0448 3.41612 28.9998C3.37111 28.9547 3.34583 28.8937 3.34583 28.83V28.608C3.34621 28.2988 3.46924 28.0022 3.68795 27.7835C3.90665 27.5648 4.20317 27.4418 4.51247 27.4414H4.79351C5.10278 27.4418 5.39927 27.5648 5.61794 27.7835C5.83661 28.0023 5.95959 28.2988 5.95991 28.608V28.8296C5.95997 28.8611 5.95381 28.8924 5.94177 28.9216C5.92974 28.9507 5.91207 28.9772 5.88978 28.9996C5.86749 29.0219 5.84101 29.0396 5.81186 29.0517C5.78271 29.0638 5.75146 29.07 5.71991 29.07ZM3.82607 28.59H5.47991C5.47479 28.4113 5.40027 28.2416 5.27213 28.1168C5.144 27.9921 4.97232 27.9222 4.79351 27.9219H4.51199C4.33325 27.9223 4.1617 27.9923 4.03367 28.117C3.90564 28.2417 3.83118 28.4114 3.82607 28.59Z" fill="#002F49"/>
<path d="M6.66508 32.7078C6.60572 32.7078 6.54847 32.6858 6.50452 32.6459L2.47924 29.0079C2.45456 28.9872 2.43432 28.9617 2.41971 28.9329C2.40511 28.9042 2.39645 28.8728 2.39424 28.8407C2.39203 28.8085 2.39633 28.7762 2.40687 28.7457C2.41742 28.7153 2.43399 28.6872 2.4556 28.6633C2.47722 28.6394 2.50343 28.6201 2.53267 28.6065C2.56192 28.5929 2.5936 28.5854 2.62582 28.5844C2.65804 28.5833 2.69015 28.5887 2.72022 28.6004C2.75029 28.612 2.77771 28.6296 2.80084 28.652L6.82612 32.2899C6.86203 32.3225 6.88725 32.3651 6.89846 32.4123C6.90966 32.4594 6.90633 32.5089 6.8889 32.5541C6.87148 32.5993 6.84077 32.6382 6.80082 32.6656C6.76086 32.6931 6.71354 32.7078 6.66508 32.7078Z" fill="#002F49"/>
<path d="M4.66102 27.9219C4.59737 27.9219 4.53632 27.8966 4.49132 27.8516C4.44631 27.8066 4.42102 27.7455 4.42102 27.6819V20.3941C4.42102 20.3304 4.44631 20.2694 4.49132 20.2243C4.53632 20.1793 4.59737 20.1541 4.66102 20.1541C4.72467 20.1541 4.78572 20.1793 4.83073 20.2243C4.87574 20.2694 4.90102 20.3304 4.90102 20.3941V27.6819C4.90102 27.7455 4.87574 27.8066 4.83073 27.8516C4.78572 27.8966 4.72467 27.9219 4.66102 27.9219Z" fill="#002F49"/>
<path d="M20.9426 32.7077H13.4527C13.4182 32.7078 13.3841 32.7004 13.3527 32.686C13.3214 32.6717 13.2935 32.6507 13.2709 32.6246C13.2484 32.5985 13.2317 32.5679 13.2221 32.5348C13.2124 32.5016 13.2101 32.4668 13.2151 32.4327L15.8345 14.6677C15.8437 14.6047 15.8777 14.548 15.9288 14.51C15.9799 14.472 16.044 14.4559 16.107 14.4652C16.17 14.4745 16.2267 14.5084 16.2646 14.5596C16.3026 14.6107 16.3187 14.6748 16.3094 14.7377L13.7306 32.2277H20.664L18.09 14.7377C18.0807 14.6748 18.0969 14.6107 18.1348 14.5596C18.1728 14.5085 18.2296 14.4746 18.2925 14.4653C18.3555 14.4561 18.4196 14.4722 18.4707 14.5102C18.5218 14.5482 18.5557 14.6049 18.5649 14.6679L21.1809 32.4329C21.1859 32.467 21.1835 32.5018 21.1739 32.5349C21.1643 32.5679 21.1476 32.5985 21.1251 32.6246C21.1026 32.6507 21.0747 32.6716 21.0434 32.6859C21.0121 32.7003 20.978 32.7077 20.9436 32.7077H20.9426Z" fill="#002F49"/>
<path d="M17.1976 16.0706C17.134 16.0706 17.073 16.0453 17.028 16.0003L14.5336 13.506C14.4887 13.461 14.4634 13.4 14.4634 13.3363C14.4634 13.2727 14.4887 13.2117 14.5336 13.1666L17.028 10.6726C17.073 10.6276 17.134 10.6023 17.1976 10.6023C17.2613 10.6023 17.3223 10.6276 17.3673 10.6726L19.8616 13.1666C19.9066 13.2117 19.9319 13.2727 19.9319 13.3363C19.9319 13.4 19.9066 13.461 19.8616 13.506L17.3673 16.0003C17.3223 16.0453 17.2613 16.0706 17.1976 16.0706ZM15.0427 13.3363L17.1976 15.4913L19.3526 13.3363L17.1976 11.1816L15.0427 13.3363Z" fill="#002F49"/>
<path d="M13.4527 32.7078C13.4029 32.7077 13.3543 32.6922 13.3137 32.6633C13.2731 32.6344 13.2425 32.5936 13.2262 32.5465C13.2098 32.4995 13.2085 32.4485 13.2225 32.4007C13.2364 32.3528 13.2648 32.3105 13.3039 32.2796L19.7839 27.1575L14.7393 22.8704C14.713 22.8479 14.6918 22.8199 14.6772 22.7884C14.6627 22.7569 14.6552 22.7226 14.6552 22.6879C14.6552 22.6532 14.6627 22.6189 14.6772 22.5874C14.6918 22.5559 14.713 22.5279 14.7393 22.5054L18.6331 19.1694L15.696 16.2812C15.6717 16.2596 15.6521 16.2333 15.6383 16.2038C15.6246 16.1744 15.6169 16.1425 15.6158 16.11C15.6148 16.0775 15.6203 16.0452 15.6321 16.0149C15.6439 15.9846 15.6617 15.957 15.6845 15.9339C15.7073 15.9107 15.7345 15.8924 15.7646 15.88C15.7946 15.8677 15.8269 15.8616 15.8594 15.8621C15.8919 15.8626 15.9239 15.8697 15.9536 15.8829C15.9833 15.8962 16.0099 15.9153 16.032 15.9392L19.1541 19.0112C19.1779 19.0345 19.1965 19.0625 19.2089 19.0934C19.2212 19.1242 19.227 19.1574 19.2259 19.1906C19.2247 19.2238 19.2167 19.2565 19.2023 19.2865C19.1879 19.3164 19.1674 19.3431 19.1421 19.3647L15.264 22.6868L20.3167 26.9811C20.3438 27.0041 20.3654 27.0328 20.3801 27.0652C20.3947 27.0976 20.402 27.1328 20.4014 27.1683C20.4008 27.2038 20.3923 27.2388 20.3765 27.2706C20.3607 27.3024 20.3381 27.3304 20.3102 27.3524L13.601 32.6564C13.5587 32.6897 13.5065 32.7077 13.4527 32.7078Z" fill="#002F49"/>
<path d="M20.9279 32.7076C20.874 32.7076 20.8215 32.6894 20.7791 32.656L14.0699 27.352C14.0421 27.3299 14.0194 27.302 14.0037 27.2702C13.9879 27.2383 13.9794 27.2034 13.9788 27.1679C13.9782 27.1323 13.9855 27.0971 14.0001 27.0648C14.0147 27.0324 14.0364 27.0037 14.0635 26.9807L19.1157 22.6866L15.2373 19.3636C15.212 19.342 15.1915 19.3153 15.1771 19.2854C15.1627 19.2554 15.1546 19.2227 15.1535 19.1895C15.1523 19.1563 15.1581 19.1231 15.1704 19.0923C15.1827 19.0614 15.2013 19.0334 15.2251 19.0101L18.3475 15.9381C18.3935 15.897 18.4535 15.8753 18.5151 15.8773C18.5767 15.8794 18.6352 15.905 18.6784 15.949C18.7216 15.993 18.7462 16.0519 18.7471 16.1135C18.7481 16.1751 18.7253 16.2348 18.6835 16.2801L15.748 19.1692L19.6418 22.5052C19.6682 22.5277 19.6894 22.5557 19.7039 22.5872C19.7184 22.6187 19.7259 22.653 19.7259 22.6877C19.7259 22.7224 19.7184 22.7567 19.7039 22.7882C19.6894 22.8197 19.6682 22.8477 19.6418 22.8702L14.5967 27.1573L21.0767 32.2794C21.1158 32.3103 21.1443 32.3527 21.1582 32.4005C21.1721 32.4483 21.1708 32.4993 21.1545 32.5464C21.1381 32.5934 21.1075 32.6342 21.0669 32.6631C21.0263 32.692 20.9778 32.7075 20.9279 32.7076Z" fill="#002F49"/>
</svg>
