<svg width="36" height="36" viewBox="0 0 36 36" fill="none" xmlns="http://www.w3.org/2000/svg">
<path d="M14.8416 21.931H3.5184C3.21058 21.9188 2.92011 21.7852 2.71052 21.5594C2.50093 21.3337 2.38929 21.0341 2.4 20.7262V17.2824C2.38929 16.9746 2.50093 16.675 2.71052 16.4492C2.92011 16.2234 3.21058 16.0898 3.5184 16.0776H11.5248C11.5884 16.0776 11.6495 16.1029 11.6945 16.1479C11.7395 16.1929 11.7648 16.254 11.7648 16.3176C11.7648 16.3813 11.7395 16.4423 11.6945 16.4873C11.6495 16.5324 11.5884 16.5576 11.5248 16.5576H3.5184C3.33796 16.57 3.16969 16.653 3.05014 16.7888C2.9306 16.9245 2.86946 17.1019 2.88 17.2824V20.7262C2.86946 20.9067 2.9306 21.0842 3.05014 21.2199C3.16969 21.3556 3.33796 21.4387 3.5184 21.451H14.8416C14.9514 21.442 15.0533 21.3902 15.1251 21.3067C15.197 21.2232 15.2331 21.1148 15.2256 21.0048V17.9568C15.2256 17.8932 15.2509 17.8321 15.2959 17.7871C15.3409 17.7421 15.4019 17.7168 15.4656 17.7168C15.5292 17.7168 15.5903 17.7421 15.6353 17.7871C15.6803 17.8321 15.7056 17.8932 15.7056 17.9568V21.0048C15.7133 21.2421 15.6267 21.4727 15.4648 21.6463C15.3029 21.8199 15.0788 21.9222 14.8416 21.931Z" fill="#002F49"/>
<path d="M27.6672 21.931H16.0896C15.8524 21.9222 15.6283 21.8199 15.4664 21.6463C15.3044 21.4727 15.2179 21.2421 15.2256 21.0048V17.9568C15.2256 17.8932 15.2509 17.8321 15.2959 17.7871C15.3409 17.7421 15.4019 17.7168 15.4656 17.7168C15.5292 17.7168 15.5903 17.7421 15.6353 17.7871C15.6803 17.8321 15.7056 17.8932 15.7056 17.9568V21.0048C15.6981 21.1148 15.7342 21.2232 15.806 21.3067C15.8779 21.3902 15.9798 21.442 16.0896 21.451H27.6672C27.777 21.442 27.8788 21.3902 27.9507 21.3067C28.0226 21.2232 28.0587 21.1148 28.0512 21.0048V17.2824C28.0617 17.1019 28.0006 16.9245 27.881 16.7888C27.7615 16.653 27.5932 16.57 27.4128 16.5576H19.7232C19.6595 16.5576 19.5985 16.5324 19.5535 16.4873C19.5085 16.4423 19.4832 16.3813 19.4832 16.3176C19.4832 16.254 19.5085 16.1929 19.5535 16.1479C19.5985 16.1029 19.6595 16.0776 19.7232 16.0776H27.4128C27.7206 16.0898 28.0111 16.2234 28.2206 16.4492C28.4302 16.675 28.5419 16.9746 28.5312 17.2824V21.0048C28.5389 21.2421 28.4523 21.4727 28.2904 21.6463C28.1285 21.8199 27.9044 21.9222 27.6672 21.931Z" fill="#002F49"/>
<path d="M32.4161 21.9305H28.9802C28.7253 21.921 28.4845 21.8109 28.3105 21.6244C28.1365 21.4378 28.0434 21.19 28.0517 20.935V17.354C28.0403 17.028 28.1584 16.7107 28.3803 16.4716C28.6022 16.2325 28.9096 16.0909 29.2356 16.0779H32.4161C32.742 16.0909 33.0495 16.2325 33.2713 16.4716C33.4932 16.7107 33.6113 17.028 33.6 17.354V20.6547C33.6113 20.9806 33.4932 21.2978 33.2713 21.5369C33.0495 21.776 32.742 21.9175 32.4161 21.9305ZM29.2356 16.5579C29.037 16.5711 28.8517 16.6621 28.7199 16.8112C28.5881 16.9602 28.5205 17.1553 28.5317 17.354V20.935C28.5235 21.0627 28.5661 21.1884 28.65 21.2849C28.734 21.3814 28.8526 21.4409 28.9802 21.4505H32.4161C32.6146 21.4374 32.7999 21.3465 32.9318 21.1974C33.0636 21.0484 33.1312 20.8533 33.12 20.6547V17.354C33.1312 17.1553 33.0636 16.9602 32.9318 16.8111C32.8 16.662 32.6146 16.571 32.4161 16.5579H29.2356Z" fill="#002F49"/>
<path d="M14.5867 32.6756H3.51911C3.21116 32.6635 2.92055 32.5299 2.71082 32.3041C2.5011 32.0783 2.38934 31.7786 2.39999 31.4706V28.0283C2.38934 27.7203 2.5011 27.4206 2.71082 27.1948C2.92055 26.9689 3.21116 26.8354 3.51911 26.8232H14.8421C15.0791 26.8318 15.3031 26.9339 15.465 27.1072C15.6269 27.2805 15.7136 27.5109 15.7061 27.748V31.4706C15.7167 31.7786 15.6049 32.0784 15.3951 32.3042C15.1854 32.53 14.8947 32.6636 14.5867 32.6756ZM3.51911 27.3032C3.33855 27.3155 3.17012 27.3986 3.05045 27.5343C2.93077 27.6701 2.86952 27.8476 2.87999 28.0283V31.4706C2.86952 31.6513 2.93077 31.8288 3.05045 31.9646C3.17012 32.1003 3.33855 32.1834 3.51911 32.1956H14.5867C14.7673 32.1834 14.9357 32.1003 15.0554 31.9646C15.175 31.8288 15.2363 31.6513 15.2258 31.4706V27.748C15.2332 27.6382 15.197 27.53 15.1251 27.4468C15.0532 27.3635 14.9515 27.312 14.8418 27.3032H3.51911Z" fill="#002F49"/>
<path d="M27.4126 32.6756H16.3441C16.0361 32.6635 15.7455 32.5299 15.5358 32.3041C15.3261 32.0783 15.2143 31.7786 15.2249 31.4706V27.748C15.2174 27.5109 15.3041 27.2805 15.466 27.1072C15.6279 26.9339 15.8519 26.8318 16.0889 26.8232H27.667C27.9041 26.8318 28.1281 26.9338 28.29 27.1072C28.4519 27.2805 28.5386 27.5109 28.531 27.748V31.4706C28.5417 31.7785 28.43 32.0781 28.2204 32.3039C28.0109 32.5297 27.7204 32.6633 27.4126 32.6756ZM16.0899 27.3032C15.9803 27.312 15.8785 27.3635 15.8066 27.4468C15.7347 27.53 15.6985 27.6382 15.7059 27.748V31.4706C15.6954 31.6513 15.7567 31.8288 15.8764 31.9646C15.996 32.1003 16.1645 32.1834 16.345 32.1956H27.4126C27.5932 32.1834 27.7616 32.1003 27.8813 31.9646C28.001 31.8288 28.0622 31.6513 28.0517 31.4706V27.748C28.0591 27.6382 28.0229 27.53 27.951 27.4468C27.8792 27.3635 27.7774 27.312 27.6677 27.3032H16.0899Z" fill="#002F49"/>
<path d="M32.4161 32.6756H29.2356C28.9097 32.6626 28.6022 32.5211 28.3803 32.2821C28.1585 32.043 28.0403 31.7258 28.0517 31.3998V27.819C28.0434 27.564 28.1364 27.3161 28.3104 27.1295C28.4844 26.9429 28.7252 26.8328 28.9802 26.8232H32.4161C32.742 26.8362 33.0495 26.9778 33.2713 27.2168C33.4932 27.4559 33.6113 27.7731 33.6 28.0991V31.3998C33.6113 31.7258 33.4932 32.043 33.2713 32.2821C33.0495 32.5211 32.742 32.6626 32.4161 32.6756ZM28.9802 27.3032C28.8526 27.3129 28.734 27.3725 28.65 27.469C28.566 27.5656 28.5235 27.6913 28.5317 27.819V31.3998C28.5205 31.5984 28.5881 31.7935 28.7199 31.9425C28.8518 32.0915 29.0371 32.1825 29.2356 32.1956H32.4161C32.6146 32.1825 32.7999 32.0916 32.9318 31.9426C33.0636 31.7935 33.1312 31.5985 33.12 31.3998V28.0991C33.1312 27.9004 33.0636 27.7054 32.9318 27.5563C32.7999 27.4073 32.6146 27.3163 32.4161 27.3032H28.9802Z" fill="#002F49"/>
<path d="M32.4809 27.3033H21.1579C20.9209 27.2947 20.6969 27.1925 20.535 27.0192C20.3731 26.8458 20.2864 26.6154 20.2939 26.3784V22.3752C20.2864 22.1381 20.3731 21.9077 20.535 21.7344C20.6969 21.5611 20.9209 21.459 21.1579 21.4504H32.4809C32.7889 21.4626 33.0795 21.5963 33.2893 21.8222C33.499 22.0481 33.6107 22.3479 33.6 22.656V26.0985C33.6105 26.4065 33.4987 26.7061 33.289 26.9318C33.0793 27.1576 32.7888 27.2911 32.4809 27.3033ZM21.1579 21.9304C21.0483 21.9392 20.9465 21.9907 20.8746 22.074C20.8027 22.1572 20.7666 22.2654 20.7739 22.3752V26.3784C20.7666 26.4881 20.8027 26.5964 20.8746 26.6796C20.9465 26.7629 21.0483 26.8145 21.1579 26.8233H32.4809C32.6615 26.811 32.8299 26.7279 32.9495 26.5921C33.0692 26.4563 33.1305 26.2787 33.12 26.098V22.656C33.1305 22.4753 33.0692 22.2978 32.9495 22.162C32.8299 22.0262 32.6614 21.9432 32.4809 21.9309L21.1579 21.9304Z" fill="#002F49"/>
<path d="M19.9102 27.3033H8.33211C8.09505 27.2947 7.87104 27.1926 7.70911 27.0193C7.54718 26.8459 7.46053 26.6155 7.46811 26.3784V22.3752C7.46059 22.1381 7.54728 21.9077 7.7092 21.7344C7.87112 21.5611 8.09509 21.459 8.33211 21.4504H19.9102C20.1472 21.4591 20.3711 21.5612 20.533 21.7345C20.6949 21.9078 20.7816 22.1381 20.7742 22.3752V26.3784C20.7817 26.6154 20.695 26.8458 20.5331 27.0192C20.3712 27.1925 20.1472 27.2947 19.9102 27.3033ZM8.33211 21.9304C8.22248 21.9392 8.12069 21.9907 8.04881 22.074C7.97694 22.1572 7.94076 22.2654 7.94811 22.3752V26.3784C7.94075 26.4881 7.97693 26.5964 8.0488 26.6796C8.12067 26.7629 8.22245 26.8145 8.33211 26.8233H19.9102C20.0198 26.8145 20.1216 26.7629 20.1935 26.6796C20.2654 26.5964 20.3015 26.4881 20.2942 26.3784V22.3752C20.3015 22.2654 20.2654 22.1572 20.1935 22.074C20.1216 21.9907 20.0198 21.9392 19.9102 21.9304H8.33211Z" fill="#002F49"/>
<path d="M7.0198 27.3033H3.58396C3.25804 27.2903 2.95054 27.1487 2.72869 26.9096C2.50684 26.6705 2.38868 26.3532 2.40004 26.0272V22.7265C2.38868 22.4005 2.50684 22.0833 2.72869 21.8442C2.95054 21.6051 3.25804 21.4635 3.58396 21.4504H7.0198C7.27475 21.46 7.51555 21.5701 7.68955 21.7567C7.86355 21.9433 7.9566 22.1912 7.94836 22.4462V26.3076C7.9566 26.5626 7.86355 26.8104 7.68955 26.997C7.51555 27.1836 7.27475 27.2937 7.0198 27.3033ZM3.58396 21.9304C3.3854 21.9436 3.20006 22.0346 3.06824 22.1837C2.93643 22.3328 2.86879 22.5278 2.88004 22.7265V26.0272C2.86879 26.2259 2.93643 26.421 3.06824 26.5701C3.20006 26.7192 3.3854 26.8102 3.58396 26.8233H7.0198C7.14739 26.8137 7.26603 26.7541 7.35 26.6576C7.43397 26.561 7.4765 26.4353 7.46836 26.3076V22.4462C7.4765 22.3185 7.43397 22.1928 7.35 22.0962C7.26603 21.9997 7.14739 21.9401 7.0198 21.9304H3.58396Z" fill="#002F49"/>
<path d="M32.4809 16.5577H23.2409C22.933 16.5456 22.6423 16.412 22.4326 16.1862C22.2229 15.9604 22.1111 15.6607 22.1218 15.3527V11.6298C22.1143 11.3927 22.201 11.1624 22.3629 10.9891C22.5248 10.8158 22.7488 10.7137 22.9858 10.7051H32.4814C32.7892 10.7174 33.0797 10.851 33.2893 11.0768C33.4989 11.3026 33.6106 11.6022 33.6 11.9101V15.3527C33.6107 15.6607 33.4989 15.9604 33.2892 16.1862C33.0795 16.412 32.7889 16.5456 32.4809 16.5577ZM22.9853 11.1851C22.8757 11.1939 22.774 11.2454 22.7021 11.3287C22.6302 11.4119 22.594 11.5201 22.6013 11.6298V15.3527C22.5908 15.5334 22.6521 15.7109 22.7718 15.8466C22.8914 15.9824 23.0599 16.0654 23.2404 16.0777H32.4804C32.6611 16.0656 32.8296 15.9826 32.9494 15.8468C33.0692 15.711 33.1305 15.5334 33.12 15.3527V11.9101C33.1305 11.7294 33.0692 11.5519 32.9496 11.4162C32.8299 11.2804 32.6615 11.1974 32.4809 11.1851H22.9853Z" fill="#002F49"/>
<path d="M32.4161 11.1852H28.9802C28.7253 11.1756 28.4845 11.0656 28.3105 10.879C28.1365 10.6925 28.0434 10.4446 28.0517 10.1896V6.32828C28.0434 6.07328 28.1365 5.82539 28.3105 5.6388C28.4845 5.45221 28.7253 5.34209 28.9802 5.33252H32.4161C32.742 5.34558 33.0495 5.48714 33.2713 5.72626C33.4932 5.96538 33.6113 6.28261 33.6 6.6086V9.90932C33.6113 10.2353 33.4932 10.5525 33.2713 10.7916C33.0494 11.0306 32.742 11.1722 32.4161 11.1852ZM28.9802 5.81252C28.8526 5.82218 28.734 5.88174 28.65 5.97828C28.566 6.07483 28.5235 6.20058 28.5317 6.32828V10.1896C28.5235 10.3173 28.5661 10.443 28.65 10.5395C28.734 10.6361 28.8526 10.6956 28.9802 10.7052H32.4161C32.6146 10.6921 32.7999 10.6011 32.9318 10.4521C33.0636 10.303 33.1312 10.108 33.12 9.90932V6.6086C33.1312 6.40992 33.0636 6.21484 32.9318 6.06576C32.7999 5.91668 32.6146 5.82567 32.4161 5.81252H28.9802Z" fill="#002F49"/>
<path d="M17.734 18.561C16.6034 18.561 14.8128 18.201 12.0684 16.857C9.27357 15.489 8.17701 14.6219 8.02245 13.6628C7.84605 12.5687 8.92509 11.5117 10.7128 9.76044L10.9418 9.53628C10.9527 9.52569 10.9645 9.51613 10.9771 9.50772L11.0491 9.4338C12.8512 7.55172 13.9392 6.41532 15.048 6.58836C16.0188 6.73932 16.86 7.80732 18.2625 10.6703C21.1024 16.4639 19.5264 18.0239 19.458 18.0877C19.4313 18.1168 18.9904 18.561 17.734 18.561ZM11.2404 9.91572L11.0484 10.1036C9.42957 11.6898 8.35965 12.7376 8.49597 13.5863C8.62005 14.3567 9.68085 15.153 12.2793 16.426C17.6702 19.0674 19.1061 17.7623 19.1193 17.7484C19.1416 17.7244 20.4787 16.2829 17.8322 10.8815C16.5444 8.25276 15.7442 7.18212 14.9762 7.0626C14.1153 6.92844 13.0908 7.99668 11.3956 9.76572L11.2884 9.8778C11.2741 9.89247 11.2579 9.90521 11.2404 9.91572Z" fill="#002F49"/>
<path d="M10.6543 10.3943C10.5907 10.3942 10.5296 10.3689 10.4846 10.3239L9.70247 9.54177C9.65748 9.49677 9.6322 9.43573 9.6322 9.37209C9.6322 9.30845 9.65748 9.24742 9.70247 9.20241L10.6044 8.30049C10.6494 8.2555 10.7104 8.23022 10.7741 8.23022C10.8377 8.23022 10.8987 8.2555 10.9438 8.30049L11.725 9.08193C11.7687 9.1272 11.7929 9.18782 11.7923 9.25075C11.7918 9.31368 11.7665 9.37387 11.722 9.41837C11.6775 9.46287 11.6173 9.48811 11.5544 9.48866C11.4915 9.4892 11.4309 9.46501 11.3856 9.42129L10.7741 8.80953L10.2115 9.37209L10.824 9.98409C10.8575 10.0177 10.8804 10.0604 10.8897 10.107C10.8989 10.1535 10.8942 10.2018 10.876 10.2456C10.8578 10.2895 10.8271 10.3269 10.7876 10.3533C10.7482 10.3797 10.7018 10.3938 10.6543 10.3938V10.3943Z" fill="#002F49"/>
<path d="M9.27525 9.9732C9.17335 9.97368 9.07235 9.95402 8.97807 9.91535C8.8838 9.87667 8.79809 9.81974 8.72589 9.74784L4.85349 5.87495C4.77971 5.80136 4.72165 5.71355 4.68283 5.61685C4.64401 5.52015 4.62524 5.41657 4.62765 5.31239C4.63137 5.10149 4.71752 4.90042 4.86765 4.75223L6.05637 3.56351C6.20364 3.41299 6.40462 3.32704 6.61519 3.32452C6.82576 3.322 7.02873 3.40312 7.17957 3.55007L11.051 7.42271C11.1979 7.57351 11.279 7.77641 11.2766 7.98692C11.2741 8.19744 11.1882 8.39838 11.0378 8.54567L9.84909 9.7344C9.77386 9.81001 9.68445 9.87003 9.58598 9.91101C9.4875 9.95199 9.38191 9.97312 9.27525 9.9732ZM6.62925 3.80519H6.62397C6.53774 3.80681 6.4556 3.84223 6.39525 3.90383L5.20629 5.09255C5.14488 5.15304 5.10949 5.2351 5.10765 5.32127C5.10646 5.3612 5.11342 5.40094 5.12811 5.43808C5.1428 5.47522 5.16491 5.50897 5.19309 5.53727L9.06525 9.40799C9.12602 9.46502 9.20691 9.49564 9.29021 9.49317C9.37351 9.49069 9.45244 9.45532 9.50973 9.39479L10.6984 8.20608C10.7588 8.14877 10.7941 8.0699 10.7966 7.98668C10.7991 7.90345 10.7685 7.82263 10.7116 7.76183L6.83997 3.88967C6.81227 3.86217 6.77937 3.84045 6.74319 3.82578C6.70702 3.81111 6.66828 3.80379 6.62925 3.80423V3.80519Z" fill="#002F49"/>
<path d="M6.71444 7.63671C6.66698 7.6367 6.62058 7.62262 6.58113 7.59624C6.54167 7.56987 6.51091 7.53239 6.49275 7.48854C6.47459 7.4447 6.46984 7.39645 6.4791 7.3499C6.48835 7.30335 6.5112 7.26059 6.54476 7.22703L8.53028 5.24127C8.55256 5.21897 8.57902 5.20128 8.60814 5.1892C8.63726 5.17713 8.66847 5.17091 8.69999 5.1709C8.73151 5.17089 8.76273 5.17709 8.79186 5.18914C8.82099 5.20119 8.84746 5.21886 8.86976 5.24115C8.89206 5.26343 8.90975 5.28989 8.92182 5.31901C8.93389 5.34813 8.94011 5.37934 8.94012 5.41086C8.94014 5.44239 8.93394 5.4736 8.92188 5.50273C8.90983 5.53186 8.89216 5.55833 8.86988 5.58063L6.88412 7.56639C6.83912 7.6114 6.77808 7.63669 6.71444 7.63671Z" fill="#002F49"/>
<path d="M5.77059 6.6928C5.72313 6.69279 5.67674 6.6787 5.63728 6.65233C5.59782 6.62596 5.56707 6.58848 5.54891 6.54463C5.53074 6.50078 5.52599 6.45254 5.53525 6.40599C5.5445 6.35944 5.56735 6.31668 5.60091 6.28312L7.58667 4.2976C7.63193 4.25388 7.69256 4.22969 7.75548 4.23023C7.81841 4.23078 7.87861 4.25602 7.9231 4.30052C7.9676 4.34502 7.99284 4.40521 7.99339 4.46814C7.99394 4.53107 7.96975 4.59169 7.92603 4.63696L5.94027 6.62248C5.91804 6.64484 5.8916 6.66257 5.86247 6.67464C5.83335 6.68671 5.80212 6.69288 5.77059 6.6928Z" fill="#002F49"/>
<path d="M14.8416 21.931H3.5184C3.21058 21.9188 2.92011 21.7852 2.71052 21.5594C2.50093 21.3337 2.38929 21.0341 2.4 20.7262V17.2824C2.38929 16.9746 2.50093 16.675 2.71052 16.4492C2.92011 16.2234 3.21058 16.0898 3.5184 16.0776H11.5248C11.5884 16.0776 11.6495 16.1029 11.6945 16.1479C11.7395 16.1929 11.7648 16.254 11.7648 16.3176C11.7648 16.3813 11.7395 16.4423 11.6945 16.4873C11.6495 16.5324 11.5884 16.5576 11.5248 16.5576H3.5184C3.33796 16.57 3.16969 16.653 3.05014 16.7888C2.9306 16.9245 2.86946 17.1019 2.88 17.2824V20.7262C2.86946 20.9067 2.9306 21.0842 3.05014 21.2199C3.16969 21.3556 3.33796 21.4387 3.5184 21.451H14.8416C14.9514 21.442 15.0533 21.3902 15.1251 21.3067C15.197 21.2232 15.2331 21.1148 15.2256 21.0048V17.9568C15.2256 17.8932 15.2509 17.8321 15.2959 17.7871C15.3409 17.7421 15.4019 17.7168 15.4656 17.7168C15.5292 17.7168 15.5903 17.7421 15.6353 17.7871C15.6803 17.8321 15.7056 17.8932 15.7056 17.9568V21.0048C15.7133 21.2421 15.6267 21.4727 15.4648 21.6463C15.3029 21.8199 15.0788 21.9222 14.8416 21.931Z" fill="#002F49"/>
<path d="M27.6672 21.931H16.0896C15.8524 21.9222 15.6283 21.8199 15.4664 21.6463C15.3044 21.4727 15.2179 21.2421 15.2256 21.0048V17.9568C15.2256 17.8932 15.2509 17.8321 15.2959 17.7871C15.3409 17.7421 15.4019 17.7168 15.4656 17.7168C15.5292 17.7168 15.5903 17.7421 15.6353 17.7871C15.6803 17.8321 15.7056 17.8932 15.7056 17.9568V21.0048C15.6981 21.1148 15.7342 21.2232 15.806 21.3067C15.8779 21.3902 15.9798 21.442 16.0896 21.451H27.6672C27.777 21.442 27.8788 21.3902 27.9507 21.3067C28.0226 21.2232 28.0587 21.1148 28.0512 21.0048V17.2824C28.0617 17.1019 28.0006 16.9245 27.881 16.7888C27.7615 16.653 27.5932 16.57 27.4128 16.5576H19.7232C19.6595 16.5576 19.5985 16.5324 19.5535 16.4873C19.5085 16.4423 19.4832 16.3813 19.4832 16.3176C19.4832 16.254 19.5085 16.1929 19.5535 16.1479C19.5985 16.1029 19.6595 16.0776 19.7232 16.0776H27.4128C27.7206 16.0898 28.0111 16.2234 28.2206 16.4492C28.4302 16.675 28.5419 16.9746 28.5312 17.2824V21.0048C28.5389 21.2421 28.4523 21.4727 28.2904 21.6463C28.1285 21.8199 27.9044 21.9222 27.6672 21.931Z" fill="#002F49"/>
<path d="M32.4161 21.9305H28.9802C28.7253 21.921 28.4845 21.8109 28.3105 21.6244C28.1365 21.4378 28.0434 21.19 28.0517 20.935V17.354C28.0403 17.028 28.1584 16.7107 28.3803 16.4716C28.6022 16.2325 28.9096 16.0909 29.2356 16.0779H32.4161C32.742 16.0909 33.0495 16.2325 33.2713 16.4716C33.4932 16.7107 33.6113 17.028 33.6 17.354V20.6547C33.6113 20.9806 33.4932 21.2978 33.2713 21.5369C33.0495 21.776 32.742 21.9175 32.4161 21.9305ZM29.2356 16.5579C29.037 16.5711 28.8517 16.6621 28.7199 16.8112C28.5881 16.9602 28.5205 17.1553 28.5317 17.354V20.935C28.5235 21.0627 28.5661 21.1884 28.65 21.2849C28.734 21.3814 28.8526 21.4409 28.9802 21.4505H32.4161C32.6146 21.4374 32.7999 21.3465 32.9318 21.1974C33.0636 21.0484 33.1312 20.8533 33.12 20.6547V17.354C33.1312 17.1553 33.0636 16.9602 32.9318 16.8111C32.8 16.662 32.6146 16.571 32.4161 16.5579H29.2356Z" fill="#002F49"/>
<path d="M14.5867 32.6756H3.51911C3.21116 32.6635 2.92055 32.5299 2.71082 32.3041C2.5011 32.0783 2.38934 31.7786 2.39999 31.4706V28.0283C2.38934 27.7203 2.5011 27.4206 2.71082 27.1948C2.92055 26.9689 3.21116 26.8354 3.51911 26.8232H14.8421C15.0791 26.8318 15.3031 26.9339 15.465 27.1072C15.6269 27.2805 15.7136 27.5109 15.7061 27.748V31.4706C15.7167 31.7786 15.6049 32.0784 15.3951 32.3042C15.1854 32.53 14.8947 32.6636 14.5867 32.6756ZM3.51911 27.3032C3.33855 27.3155 3.17012 27.3986 3.05045 27.5343C2.93077 27.6701 2.86952 27.8476 2.87999 28.0283V31.4706C2.86952 31.6513 2.93077 31.8288 3.05045 31.9646C3.17012 32.1003 3.33855 32.1834 3.51911 32.1956H14.5867C14.7673 32.1834 14.9357 32.1003 15.0554 31.9646C15.175 31.8288 15.2363 31.6513 15.2258 31.4706V27.748C15.2332 27.6382 15.197 27.53 15.1251 27.4468C15.0532 27.3635 14.9515 27.312 14.8418 27.3032H3.51911Z" fill="#002F49"/>
<path d="M27.4126 32.6756H16.3441C16.0361 32.6635 15.7455 32.5299 15.5358 32.3041C15.3261 32.0783 15.2143 31.7786 15.2249 31.4706V27.748C15.2174 27.5109 15.3041 27.2805 15.466 27.1072C15.6279 26.9339 15.8519 26.8318 16.0889 26.8232H27.667C27.9041 26.8318 28.1281 26.9338 28.29 27.1072C28.4519 27.2805 28.5386 27.5109 28.531 27.748V31.4706C28.5417 31.7785 28.43 32.0781 28.2204 32.3039C28.0109 32.5297 27.7204 32.6633 27.4126 32.6756ZM16.0899 27.3032C15.9803 27.312 15.8785 27.3635 15.8066 27.4468C15.7347 27.53 15.6985 27.6382 15.7059 27.748V31.4706C15.6954 31.6513 15.7567 31.8288 15.8764 31.9646C15.996 32.1003 16.1645 32.1834 16.345 32.1956H27.4126C27.5932 32.1834 27.7616 32.1003 27.8813 31.9646C28.001 31.8288 28.0622 31.6513 28.0517 31.4706V27.748C28.0591 27.6382 28.0229 27.53 27.951 27.4468C27.8792 27.3635 27.7774 27.312 27.6677 27.3032H16.0899Z" fill="#002F49"/>
<path d="M32.4161 32.6756H29.2356C28.9097 32.6626 28.6022 32.5211 28.3803 32.2821C28.1585 32.043 28.0403 31.7258 28.0517 31.3998V27.819C28.0434 27.564 28.1364 27.3161 28.3104 27.1295C28.4844 26.9429 28.7252 26.8328 28.9802 26.8232H32.4161C32.742 26.8362 33.0495 26.9778 33.2713 27.2168C33.4932 27.4559 33.6113 27.7731 33.6 28.0991V31.3998C33.6113 31.7258 33.4932 32.043 33.2713 32.2821C33.0495 32.5211 32.742 32.6626 32.4161 32.6756ZM28.9802 27.3032C28.8526 27.3129 28.734 27.3725 28.65 27.469C28.566 27.5656 28.5235 27.6913 28.5317 27.819V31.3998C28.5205 31.5984 28.5881 31.7935 28.7199 31.9425C28.8518 32.0915 29.0371 32.1825 29.2356 32.1956H32.4161C32.6146 32.1825 32.7999 32.0916 32.9318 31.9426C33.0636 31.7935 33.1312 31.5985 33.12 31.3998V28.0991C33.1312 27.9004 33.0636 27.7054 32.9318 27.5563C32.7999 27.4073 32.6146 27.3163 32.4161 27.3032H28.9802Z" fill="#002F49"/>
<path d="M32.4809 27.3033H21.1579C20.9209 27.2947 20.6969 27.1925 20.535 27.0192C20.3731 26.8458 20.2864 26.6154 20.2939 26.3784V22.3752C20.2864 22.1381 20.3731 21.9077 20.535 21.7344C20.6969 21.5611 20.9209 21.459 21.1579 21.4504H32.4809C32.7889 21.4626 33.0795 21.5963 33.2893 21.8222C33.499 22.0481 33.6107 22.3479 33.6 22.656V26.0985C33.6105 26.4065 33.4987 26.7061 33.289 26.9318C33.0793 27.1576 32.7888 27.2911 32.4809 27.3033ZM21.1579 21.9304C21.0483 21.9392 20.9465 21.9907 20.8746 22.074C20.8027 22.1572 20.7666 22.2654 20.7739 22.3752V26.3784C20.7666 26.4881 20.8027 26.5964 20.8746 26.6796C20.9465 26.7629 21.0483 26.8145 21.1579 26.8233H32.4809C32.6615 26.811 32.8299 26.7279 32.9495 26.5921C33.0692 26.4563 33.1305 26.2787 33.12 26.098V22.656C33.1305 22.4753 33.0692 22.2978 32.9495 22.162C32.8299 22.0262 32.6614 21.9432 32.4809 21.9309L21.1579 21.9304Z" fill="#002F49"/>
<path d="M19.9102 27.3033H8.33211C8.09505 27.2947 7.87104 27.1926 7.70911 27.0193C7.54718 26.8459 7.46053 26.6155 7.46811 26.3784V22.3752C7.46059 22.1381 7.54728 21.9077 7.7092 21.7344C7.87112 21.5611 8.09509 21.459 8.33211 21.4504H19.9102C20.1472 21.4591 20.3711 21.5612 20.533 21.7345C20.6949 21.9078 20.7816 22.1381 20.7742 22.3752V26.3784C20.7817 26.6154 20.695 26.8458 20.5331 27.0192C20.3712 27.1925 20.1472 27.2947 19.9102 27.3033ZM8.33211 21.9304C8.22248 21.9392 8.12069 21.9907 8.04881 22.074C7.97694 22.1572 7.94076 22.2654 7.94811 22.3752V26.3784C7.94075 26.4881 7.97693 26.5964 8.0488 26.6796C8.12067 26.7629 8.22245 26.8145 8.33211 26.8233H19.9102C20.0198 26.8145 20.1216 26.7629 20.1935 26.6796C20.2654 26.5964 20.3015 26.4881 20.2942 26.3784V22.3752C20.3015 22.2654 20.2654 22.1572 20.1935 22.074C20.1216 21.9907 20.0198 21.9392 19.9102 21.9304H8.33211Z" fill="#002F49"/>
<path d="M7.0198 27.3033H3.58396C3.25804 27.2903 2.95054 27.1487 2.72869 26.9096C2.50684 26.6705 2.38868 26.3532 2.40004 26.0272V22.7265C2.38868 22.4005 2.50684 22.0833 2.72869 21.8442C2.95054 21.6051 3.25804 21.4635 3.58396 21.4504H7.0198C7.27475 21.46 7.51555 21.5701 7.68955 21.7567C7.86355 21.9433 7.9566 22.1912 7.94836 22.4462V26.3076C7.9566 26.5626 7.86355 26.8104 7.68955 26.997C7.51555 27.1836 7.27475 27.2937 7.0198 27.3033ZM3.58396 21.9304C3.3854 21.9436 3.20006 22.0346 3.06824 22.1837C2.93643 22.3328 2.86879 22.5278 2.88004 22.7265V26.0272C2.86879 26.2259 2.93643 26.421 3.06824 26.5701C3.20006 26.7192 3.3854 26.8102 3.58396 26.8233H7.0198C7.14739 26.8137 7.26603 26.7541 7.35 26.6576C7.43397 26.561 7.4765 26.4353 7.46836 26.3076V22.4462C7.4765 22.3185 7.43397 22.1928 7.35 22.0962C7.26603 21.9997 7.14739 21.9401 7.0198 21.9304H3.58396Z" fill="#002F49"/>
<path d="M32.4809 16.5577H23.2409C22.933 16.5456 22.6423 16.412 22.4326 16.1862C22.2229 15.9604 22.1111 15.6607 22.1218 15.3527V11.6298C22.1143 11.3927 22.201 11.1624 22.3629 10.9891C22.5248 10.8158 22.7488 10.7137 22.9858 10.7051H32.4814C32.7892 10.7174 33.0797 10.851 33.2893 11.0768C33.4989 11.3026 33.6106 11.6022 33.6 11.9101V15.3527C33.6107 15.6607 33.4989 15.9604 33.2892 16.1862C33.0795 16.412 32.7889 16.5456 32.4809 16.5577ZM22.9853 11.1851C22.8757 11.1939 22.774 11.2454 22.7021 11.3287C22.6302 11.4119 22.594 11.5201 22.6013 11.6298V15.3527C22.5908 15.5334 22.6521 15.7109 22.7718 15.8466C22.8914 15.9824 23.0599 16.0654 23.2404 16.0777H32.4804C32.6611 16.0656 32.8296 15.9826 32.9494 15.8468C33.0692 15.711 33.1305 15.5334 33.12 15.3527V11.9101C33.1305 11.7294 33.0692 11.5519 32.9496 11.4162C32.8299 11.2804 32.6615 11.1974 32.4809 11.1851H22.9853Z" fill="#002F49"/>
<path d="M32.4161 11.1852H28.9802C28.7253 11.1756 28.4845 11.0656 28.3105 10.879C28.1365 10.6925 28.0434 10.4446 28.0517 10.1896V6.32828C28.0434 6.07328 28.1365 5.82539 28.3105 5.6388C28.4845 5.45221 28.7253 5.34209 28.9802 5.33252H32.4161C32.742 5.34558 33.0495 5.48714 33.2713 5.72626C33.4932 5.96538 33.6113 6.28261 33.6 6.6086V9.90932C33.6113 10.2353 33.4932 10.5525 33.2713 10.7916C33.0494 11.0306 32.742 11.1722 32.4161 11.1852ZM28.9802 5.81252C28.8526 5.82218 28.734 5.88174 28.65 5.97828C28.566 6.07483 28.5235 6.20058 28.5317 6.32828V10.1896C28.5235 10.3173 28.5661 10.443 28.65 10.5395C28.734 10.6361 28.8526 10.6956 28.9802 10.7052H32.4161C32.6146 10.6921 32.7999 10.6011 32.9318 10.4521C33.0636 10.303 33.1312 10.108 33.12 9.90932V6.6086C33.1312 6.40992 33.0636 6.21484 32.9318 6.06576C32.7999 5.91668 32.6146 5.82567 32.4161 5.81252H28.9802Z" fill="#002F49"/>
<path d="M17.734 18.561C16.6034 18.561 14.8128 18.201 12.0684 16.857C9.27357 15.489 8.17701 14.6219 8.02245 13.6628C7.84605 12.5687 8.92509 11.5117 10.7128 9.76044L10.9418 9.53628C10.9527 9.52569 10.9645 9.51613 10.9771 9.50772L11.0491 9.4338C12.8512 7.55172 13.9392 6.41532 15.048 6.58836C16.0188 6.73932 16.86 7.80732 18.2625 10.6703C21.1024 16.4639 19.5264 18.0239 19.458 18.0877C19.4313 18.1168 18.9904 18.561 17.734 18.561ZM11.2404 9.91572L11.0484 10.1036C9.42957 11.6898 8.35965 12.7376 8.49597 13.5863C8.62005 14.3567 9.68085 15.153 12.2793 16.426C17.6702 19.0674 19.1061 17.7623 19.1193 17.7484C19.1416 17.7244 20.4787 16.2829 17.8322 10.8815C16.5444 8.25276 15.7442 7.18212 14.9762 7.0626C14.1153 6.92844 13.0908 7.99668 11.3956 9.76572L11.2884 9.8778C11.2741 9.89247 11.2579 9.90521 11.2404 9.91572Z" fill="#002F49"/>
<path d="M10.6543 10.3943C10.5907 10.3942 10.5296 10.3689 10.4846 10.3239L9.70247 9.54177C9.65748 9.49677 9.6322 9.43573 9.6322 9.37209C9.6322 9.30845 9.65748 9.24742 9.70247 9.20241L10.6044 8.30049C10.6494 8.2555 10.7104 8.23022 10.7741 8.23022C10.8377 8.23022 10.8987 8.2555 10.9438 8.30049L11.725 9.08193C11.7687 9.1272 11.7929 9.18782 11.7923 9.25075C11.7918 9.31368 11.7665 9.37387 11.722 9.41837C11.6775 9.46287 11.6173 9.48811 11.5544 9.48866C11.4915 9.4892 11.4309 9.46501 11.3856 9.42129L10.7741 8.80953L10.2115 9.37209L10.824 9.98409C10.8575 10.0177 10.8804 10.0604 10.8897 10.107C10.8989 10.1535 10.8942 10.2018 10.876 10.2456C10.8578 10.2895 10.8271 10.3269 10.7876 10.3533C10.7482 10.3797 10.7018 10.3938 10.6543 10.3938V10.3943Z" fill="#002F49"/>
<path d="M9.27525 9.9732C9.17335 9.97368 9.07235 9.95402 8.97807 9.91535C8.8838 9.87667 8.79809 9.81974 8.72589 9.74784L4.85349 5.87495C4.77971 5.80136 4.72165 5.71355 4.68283 5.61685C4.64401 5.52015 4.62524 5.41657 4.62765 5.31239C4.63137 5.10149 4.71752 4.90042 4.86765 4.75223L6.05637 3.56351C6.20364 3.41299 6.40462 3.32704 6.61519 3.32452C6.82576 3.322 7.02873 3.40312 7.17957 3.55007L11.051 7.42271C11.1979 7.57351 11.279 7.77641 11.2766 7.98692C11.2741 8.19744 11.1882 8.39838 11.0378 8.54567L9.84909 9.7344C9.77386 9.81001 9.68445 9.87003 9.58598 9.91101C9.4875 9.95199 9.38191 9.97312 9.27525 9.9732ZM6.62925 3.80519H6.62397C6.53774 3.80681 6.4556 3.84223 6.39525 3.90383L5.20629 5.09255C5.14488 5.15304 5.10949 5.2351 5.10765 5.32127C5.10646 5.3612 5.11342 5.40094 5.12811 5.43808C5.1428 5.47522 5.16491 5.50897 5.19309 5.53727L9.06525 9.40799C9.12602 9.46502 9.20691 9.49564 9.29021 9.49317C9.37351 9.49069 9.45244 9.45532 9.50973 9.39479L10.6984 8.20608C10.7588 8.14877 10.7941 8.0699 10.7966 7.98668C10.7991 7.90345 10.7685 7.82263 10.7116 7.76183L6.83997 3.88967C6.81227 3.86217 6.77937 3.84045 6.74319 3.82578C6.70702 3.81111 6.66828 3.80379 6.62925 3.80423V3.80519Z" fill="#002F49"/>
<path d="M6.71444 7.63671C6.66698 7.6367 6.62058 7.62262 6.58113 7.59624C6.54167 7.56987 6.51091 7.53239 6.49275 7.48854C6.47459 7.4447 6.46984 7.39645 6.4791 7.3499C6.48835 7.30335 6.5112 7.26059 6.54476 7.22703L8.53028 5.24127C8.55256 5.21897 8.57902 5.20128 8.60814 5.1892C8.63726 5.17713 8.66847 5.17091 8.69999 5.1709C8.73151 5.17089 8.76273 5.17709 8.79186 5.18914C8.82099 5.20119 8.84746 5.21886 8.86976 5.24115C8.89206 5.26343 8.90975 5.28989 8.92182 5.31901C8.93389 5.34813 8.94011 5.37934 8.94012 5.41086C8.94014 5.44239 8.93394 5.4736 8.92188 5.50273C8.90983 5.53186 8.89216 5.55833 8.86988 5.58063L6.88412 7.56639C6.83912 7.6114 6.77808 7.63669 6.71444 7.63671Z" fill="#002F49"/>
<path d="M5.77059 6.6928C5.72313 6.69279 5.67674 6.6787 5.63728 6.65233C5.59782 6.62596 5.56707 6.58848 5.54891 6.54463C5.53074 6.50078 5.52599 6.45254 5.53525 6.40599C5.5445 6.35944 5.56735 6.31668 5.60091 6.28312L7.58667 4.2976C7.63193 4.25388 7.69256 4.22969 7.75548 4.23023C7.81841 4.23078 7.87861 4.25602 7.9231 4.30052C7.9676 4.34502 7.99284 4.40521 7.99339 4.46814C7.99394 4.53107 7.96975 4.59169 7.92603 4.63696L5.94027 6.62248C5.91804 6.64484 5.8916 6.66257 5.86247 6.67464C5.83335 6.68671 5.80212 6.69288 5.77059 6.6928Z" fill="#002F49"/>
</svg>
