<svg width="36" height="36" viewBox="0 0 36 36" fill="none" xmlns="http://www.w3.org/2000/svg">
<path d="M20.8183 23.5117H13.1496C12.9205 23.5034 12.704 23.4048 12.5474 23.2373C12.3908 23.0698 12.307 22.8471 12.3142 22.6179V20.2866C12.3068 20.0573 12.3906 19.8344 12.5471 19.6668C12.7037 19.4991 12.9204 19.4004 13.1496 19.3921H20.6453C20.8744 19.4005 21.0909 19.4994 21.2473 19.667C21.4037 19.8346 21.4874 20.0574 21.48 20.2866V22.8066C21.4854 22.9877 21.4189 23.1637 21.2948 23.2958C21.1708 23.428 20.9995 23.5056 20.8183 23.5117ZM13.1496 19.8721C13.0479 19.8806 12.9536 19.9287 12.8871 20.0061C12.8206 20.0835 12.7872 20.184 12.7942 20.2858V22.6172C12.7872 22.719 12.8206 22.8195 12.8871 22.8969C12.9536 22.9744 13.0479 23.0225 13.1496 23.031H20.8183C20.872 23.0249 20.9211 22.998 20.9551 22.9562C20.9892 22.9143 21.0056 22.8608 21.0007 22.807V20.287C21.0081 20.185 20.9749 20.0842 20.9083 20.0065C20.8418 19.9288 20.7473 19.8805 20.6453 19.8721H13.1496Z" fill="#002F49"/>
<path d="M29.5049 23.5117H21.6634C21.4821 23.506 21.3105 23.4288 21.1862 23.2968C21.0619 23.1649 20.9949 22.989 21 22.8078V20.2878C20.9923 20.0582 21.076 19.8349 21.2328 19.6669C21.3896 19.499 21.6066 19.4002 21.8362 19.3921H29.3321C29.5612 19.4004 29.7777 19.499 29.9342 19.6665C30.0907 19.834 30.1745 20.0567 30.1673 20.2858V22.8058C30.1729 22.9873 30.1063 23.1635 29.9821 23.2958C29.8579 23.4282 29.6863 23.5058 29.5049 23.5117ZM21.8362 19.8721C21.7342 19.8804 21.6396 19.9285 21.5729 20.0061C21.5062 20.0837 21.4728 20.1845 21.48 20.2866V22.8066C21.4751 22.8604 21.4915 22.9139 21.5257 22.9558C21.5598 22.9976 21.609 23.0244 21.6626 23.0305H29.5042C29.5578 23.0244 29.6069 22.9975 29.641 22.9557C29.6751 22.9138 29.6914 22.8603 29.6866 22.8066V20.2866C29.6936 20.1848 29.6603 20.0843 29.5938 20.0069C29.5273 19.9294 29.4331 19.8813 29.3314 19.8728L21.8362 19.8721Z" fill="#002F49"/>
<path d="M32.7208 23.5117H30.3928C30.1995 23.5053 30.0167 23.4226 29.8842 23.2817C29.7518 23.1408 29.6806 22.9531 29.6863 22.7598V20.3358C29.6785 20.0945 29.7667 19.8599 29.9315 19.6834C30.0963 19.5069 30.3243 19.4029 30.5656 19.394H32.7199C32.9612 19.4024 33.1894 19.5061 33.3543 19.6824C33.5193 19.8587 33.6076 20.0933 33.5999 20.3346V22.57C33.608 22.8114 33.5199 23.0461 33.3551 23.2226C33.1903 23.3992 32.9622 23.5031 32.7208 23.5117ZM30.5666 19.8721C30.4527 19.8811 30.3469 19.9346 30.2721 20.021C30.1974 20.1075 30.1597 20.2199 30.1672 20.3339V22.7579C30.1618 22.8239 30.1825 22.8893 30.2249 22.9402C30.2672 22.991 30.3279 23.0232 30.3938 23.0298H32.7218C32.8351 23.0205 32.9403 22.9672 33.0148 22.8812C33.0892 22.7952 33.127 22.6835 33.1199 22.57V20.3346C33.1275 20.2206 33.0898 20.1082 33.0151 20.0218C32.9404 19.9354 32.8347 19.8819 32.7208 19.8728L30.5666 19.8721Z" fill="#002F49"/>
<path d="M20.6453 30.789H13.1496C12.9205 30.7808 12.7039 30.6821 12.5474 30.5146C12.3908 30.3471 12.307 30.1244 12.3141 29.8953V27.5639C12.307 27.3348 12.3908 27.1121 12.5474 26.9446C12.7039 26.7771 12.9205 26.6784 13.1496 26.6702H20.8183C20.9994 26.6761 21.1707 26.7534 21.2948 26.8854C21.419 27.0173 21.4858 27.193 21.4807 27.3741V29.8941C21.4882 30.1234 21.4045 30.3464 21.2479 30.5142C21.0913 30.6819 20.8746 30.7808 20.6453 30.789ZM13.1496 27.1502C13.0478 27.1586 12.9535 27.2067 12.887 27.2841C12.8205 27.3616 12.7871 27.4621 12.7941 27.5639V29.8953C12.7871 29.9971 12.8205 30.0976 12.887 30.1751C12.9535 30.2525 13.0478 30.3006 13.1496 30.309H20.6453C20.747 30.3006 20.8413 30.2525 20.9079 30.1751C20.9744 30.0976 21.0077 29.9971 21.0007 29.8953V27.3753C21.0056 27.3215 20.9892 27.268 20.9551 27.2262C20.921 27.1843 20.8719 27.1575 20.8183 27.1514L13.1496 27.1502Z" fill="#002F49"/>
<path d="M29.332 30.7891H21.8361C21.607 30.7808 21.3905 30.6821 21.2339 30.5146C21.0773 30.3471 20.9935 30.1245 21.0007 29.8953V27.3753C20.9956 27.1942 21.0624 27.0184 21.1866 26.8865C21.3108 26.7546 21.4822 26.6772 21.6633 26.6714H29.5048C29.6859 26.6773 29.8572 26.7547 29.9814 26.8866C30.1055 27.0185 30.1723 27.1942 30.1672 27.3753V29.8953C30.1745 30.1244 30.0907 30.3471 29.9342 30.5146C29.7776 30.6821 29.5611 30.7808 29.332 30.7891ZM21.6633 27.1502C21.6096 27.1562 21.5605 27.1831 21.5263 27.2249C21.4922 27.2668 21.4758 27.3203 21.4807 27.3741V29.8941C21.4736 29.996 21.507 30.0965 21.5735 30.1739C21.64 30.2513 21.7344 30.2995 21.8361 30.3079H29.332C29.4337 30.2994 29.528 30.2513 29.5945 30.1738C29.6609 30.0964 29.6943 29.9959 29.6872 29.8941V27.3741C29.6921 27.3204 29.6757 27.2668 29.6416 27.225C29.6076 27.1831 29.5585 27.1563 29.5048 27.1502H21.6633Z" fill="#002F49"/>
<path d="M32.7208 30.789H30.5666C30.3253 30.7802 30.0973 30.6762 29.9325 30.4997C29.7677 30.3232 29.6795 30.0886 29.6872 29.8473V27.4221C29.6817 27.2288 29.7529 27.0412 29.8853 26.9003C30.0177 26.7594 30.2005 26.6766 30.3938 26.6702H32.7218C32.963 26.679 33.1909 26.7831 33.3555 26.9596C33.5201 27.1361 33.608 27.3707 33.6 27.6119V29.8473C33.608 30.0887 33.5199 30.3234 33.3551 30.5C33.1903 30.6765 32.9622 30.7805 32.7208 30.789ZM30.3928 27.1502C30.327 27.1567 30.2663 27.1889 30.2239 27.2398C30.1816 27.2906 30.1609 27.3561 30.1663 27.4221V29.8473C30.1587 29.9613 30.1964 30.0737 30.2712 30.1601C30.3459 30.2466 30.4517 30.3001 30.5656 30.309H32.7199C32.8339 30.3003 32.9399 30.2468 33.0148 30.1604C33.0897 30.0739 33.1275 29.9614 33.12 29.8473V27.6119C33.1275 27.4979 33.0899 27.3856 33.0152 27.2991C32.9405 27.2127 32.8347 27.1592 32.7208 27.1502H30.3928Z" fill="#002F49"/>
<path d="M32.7645 27.1501H25.0958C24.9147 27.1443 24.7434 27.067 24.6193 26.9351C24.4951 26.8032 24.4283 26.6275 24.4334 26.4465V23.7359C24.4283 23.5549 24.4951 23.3792 24.6193 23.2473C24.7434 23.1154 24.9147 23.0381 25.0958 23.0322H32.7645C32.9935 23.0404 33.2099 23.1389 33.3664 23.3062C33.523 23.4735 33.6069 23.696 33.5999 23.925V26.2559C33.6073 26.4852 33.5235 26.708 33.367 26.8756C33.2104 27.0432 32.9937 27.1419 32.7645 27.1501ZM25.0958 23.5115C25.0422 23.5176 24.9931 23.5444 24.959 23.5862C24.9249 23.628 24.9085 23.6815 24.9134 23.7352V26.4472C24.9085 26.5009 24.9249 26.5544 24.959 26.5962C24.9931 26.638 25.0422 26.6648 25.0958 26.6709H32.7645C32.8665 26.6625 32.961 26.6142 33.0275 26.5365C33.0941 26.4588 33.1273 26.3579 33.1199 26.2559V23.925C33.1269 23.8232 33.0935 23.7228 33.027 23.6454C32.9605 23.568 32.8662 23.5199 32.7645 23.5115H25.0958Z" fill="#002F49"/>
<path d="M24.2508 27.1501H16.4092C16.2282 27.1443 16.0568 27.067 15.9326 26.9351C15.8084 26.8032 15.7416 26.6275 15.7466 26.4465V23.7359C15.7416 23.5548 15.8084 23.3791 15.9326 23.2473C16.0568 23.1154 16.2282 23.0381 16.4092 23.0322H24.2508C24.4318 23.0381 24.6032 23.1154 24.7274 23.2473C24.8516 23.3791 24.9184 23.5548 24.9134 23.7359V26.4479C24.9181 26.6287 24.851 26.8041 24.7269 26.9356C24.6027 27.0672 24.4316 27.1443 24.2508 27.1501ZM16.4092 23.5115C16.3556 23.5175 16.3064 23.5443 16.2723 23.5861C16.2382 23.6279 16.2218 23.6814 16.2266 23.7352V26.4472C16.2218 26.5009 16.2382 26.5545 16.2723 26.5963C16.3064 26.6381 16.3556 26.6649 16.4092 26.6709H24.2508C24.3044 26.6649 24.3536 26.6381 24.3877 26.5963C24.4219 26.5545 24.4383 26.5009 24.4334 26.4472V23.7359C24.4383 23.6821 24.4219 23.6286 24.3877 23.5868C24.3536 23.545 24.3044 23.5182 24.2508 23.5122L16.4092 23.5115Z" fill="#002F49"/>
<path d="M15.5206 27.1501H13.1926C12.9512 27.1416 12.7231 27.0377 12.5582 26.8612C12.3934 26.6847 12.3053 26.45 12.3132 26.2086V23.973C12.3053 23.7316 12.3934 23.4969 12.5582 23.3204C12.7231 23.1439 12.9512 23.04 13.1926 23.0315H15.5206C15.7139 23.0379 15.8968 23.1208 16.0291 23.2618C16.1615 23.4028 16.2325 23.5906 16.2267 23.7839V26.3999C16.2319 26.5928 16.1606 26.78 16.0283 26.9206C15.896 27.0612 15.7135 27.1437 15.5206 27.1501ZM13.1926 23.5115C13.0787 23.5205 12.973 23.5739 12.8982 23.6603C12.8235 23.7467 12.7858 23.859 12.7932 23.973V26.2079C12.7857 26.3219 12.8234 26.4343 12.8981 26.5207C12.9729 26.6071 13.0787 26.6605 13.1926 26.6694H15.5206C15.5863 26.6627 15.6468 26.6305 15.6891 26.5797C15.7314 26.5289 15.752 26.4636 15.7467 26.3977V23.7839C15.7521 23.718 15.7315 23.6526 15.6892 23.6017C15.6469 23.5509 15.5864 23.5187 15.5206 23.512L13.1926 23.5115Z" fill="#002F49"/>
<path d="M32.7645 19.8721H26.5063C26.2772 19.8638 26.0608 19.7652 25.9042 19.5977C25.7477 19.4303 25.6639 19.2076 25.6711 18.9786V16.4578C25.666 16.2768 25.7328 16.1011 25.857 15.9692C25.9811 15.8373 26.1525 15.76 26.3335 15.7542H32.7655C32.9944 15.7626 33.2107 15.8613 33.3671 16.0288C33.5234 16.1962 33.6072 16.4187 33.6 16.6477V18.9793C33.607 19.2083 33.523 19.4308 33.3665 19.5981C33.2099 19.7654 32.9935 19.8639 32.7645 19.8721ZM26.3325 16.2334C26.2789 16.2395 26.2298 16.2663 26.1957 16.3081C26.1616 16.3499 26.1453 16.4034 26.1501 16.4571V18.9793C26.1431 19.0811 26.1764 19.1815 26.2429 19.2589C26.3094 19.3363 26.4036 19.3844 26.5053 19.3928H32.7636C32.8654 19.3846 32.96 19.3366 33.0267 19.2592C33.0934 19.1818 33.1269 19.0812 33.12 18.9793V16.6477C33.1269 16.5459 33.0935 16.4454 33.027 16.368C32.9605 16.2906 32.8662 16.2426 32.7645 16.2342L26.3325 16.2334Z" fill="#002F49"/>
<path d="M32.7209 16.2341H30.3929C30.1996 16.2276 30.0168 16.1449 29.8844 16.004C29.752 15.8631 29.6808 15.6755 29.6863 15.4822V12.8662C29.6808 12.6729 29.752 12.4853 29.8844 12.3444C30.0168 12.2034 30.1996 12.1207 30.3929 12.1143H32.7209C32.9623 12.1228 33.1904 12.2268 33.3552 12.4034C33.52 12.5799 33.6081 12.8146 33.6 13.056V15.2914C33.6083 15.5329 33.5204 15.7679 33.3555 15.9447C33.1907 16.1214 32.9624 16.2255 32.7209 16.2341ZM30.3929 12.5952C30.327 12.6018 30.2664 12.634 30.224 12.6848C30.1816 12.7357 30.1609 12.8012 30.1663 12.8671V15.4831C30.161 15.5491 30.1817 15.6145 30.2241 15.6654C30.2664 15.7162 30.3271 15.7484 30.3929 15.7551H32.7209C32.835 15.746 32.9408 15.6924 33.0156 15.6057C33.0903 15.5191 33.1278 15.4065 33.12 15.2923V13.056C33.1276 12.942 33.0899 12.8297 33.0152 12.7432C32.9405 12.6568 32.8348 12.6033 32.7209 12.5943L30.3929 12.5952Z" fill="#002F49"/>
<path d="M6.20779 13.4961C5.80749 13.4957 5.4163 13.3765 5.08371 13.1538C4.75111 12.931 4.49203 12.6146 4.33925 12.2446C4.18647 11.8746 4.14683 11.4676 4.22537 11.0751C4.3039 10.6826 4.49707 10.3222 4.78044 10.0394C5.06382 9.75669 5.42467 9.56433 5.81737 9.48668C6.21008 9.40904 6.61698 9.44958 6.98664 9.6032C7.35629 9.75682 7.67209 10.0166 7.8941 10.3497C8.11611 10.6828 8.23435 11.0743 8.23387 11.4746C8.23267 12.0111 8.01867 12.5253 7.63884 12.9043C7.25901 13.2832 6.74436 13.4961 6.20779 13.4961ZM6.20779 9.92824C5.90263 9.92867 5.60444 10.0195 5.35088 10.1893C5.09732 10.3591 4.89976 10.6003 4.78317 10.8823C4.66657 11.1643 4.63617 11.4745 4.69579 11.7738C4.75541 12.0731 4.90239 12.348 5.11816 12.5638C5.33392 12.7796 5.6088 12.9266 5.90808 12.9863C6.20735 13.0459 6.51759 13.0156 6.79962 12.899C7.08165 12.7825 7.32282 12.585 7.49266 12.3314C7.6625 12.0779 7.7534 11.7797 7.75387 11.4746C7.75349 11.0646 7.59049 10.6716 7.30063 10.3817C7.01078 10.0918 6.61775 9.92869 6.20779 9.92824Z" fill="#002F49"/>
<path d="M20.8394 11.9641C20.5681 11.9638 20.303 11.883 20.0776 11.732C19.8521 11.581 19.6766 11.3666 19.573 11.1158C19.4695 10.865 19.4427 10.5891 19.4959 10.3231C19.5491 10.0571 19.6801 9.81279 19.8721 9.62116C20.0642 9.42953 20.3088 9.29916 20.5749 9.24652C20.8411 9.19389 21.1169 9.22136 21.3674 9.32546C21.618 9.42956 21.832 9.60562 21.9825 9.83137C22.133 10.0571 22.2132 10.3224 22.2129 10.5937C22.2122 10.9575 22.0671 11.3061 21.8096 11.563C21.5521 11.8199 21.2032 11.9642 20.8394 11.9641ZM20.8394 9.70046C20.6631 9.70079 20.4909 9.75334 20.3445 9.85148C20.1981 9.94961 20.0841 10.0889 20.0168 10.2518C19.9495 10.4147 19.932 10.5939 19.9665 10.7668C20.001 10.9396 20.0859 11.0984 20.2105 11.223C20.3352 11.3476 20.494 11.4325 20.6668 11.4669C20.8397 11.5014 21.0189 11.4838 21.1818 11.4165C21.3447 11.3492 21.4839 11.2351 21.582 11.0887C21.6801 10.9422 21.7326 10.77 21.7329 10.5937C21.7326 10.3569 21.6384 10.1298 21.4708 9.96236C21.3033 9.7949 21.0763 9.70071 20.8394 9.70046Z" fill="#002F49"/>
<path d="M15.3715 9.32584C14.9357 9.32541 14.5099 9.19578 14.1479 8.95334C13.7858 8.7109 13.5038 8.36654 13.3375 7.96381C13.1711 7.56108 13.128 7.11807 13.2134 6.69081C13.2989 6.26355 13.5091 5.87123 13.8176 5.56346C14.126 5.25569 14.5188 5.0463 14.9463 4.96177C15.3737 4.87725 15.8166 4.92137 16.219 5.08858C16.6213 5.25578 16.9651 5.53855 17.2067 5.90113C17.4484 6.2637 17.5771 6.6898 17.5766 7.12552C17.5753 7.70952 17.3424 8.26917 16.929 8.68168C16.5156 9.09418 15.9555 9.32584 15.3715 9.32584ZM15.3715 5.40016C15.0309 5.40059 14.6981 5.50194 14.4151 5.69142C14.1321 5.88089 13.9116 6.14999 13.7814 6.46472C13.6513 6.77944 13.6173 7.12568 13.6838 7.4597C13.7504 7.79371 13.9144 8.10051 14.1552 8.34135C14.396 8.58219 14.7028 8.74626 15.0368 8.81284C15.3708 8.87942 15.7171 8.84551 16.0318 8.71541C16.3465 8.58531 16.6157 8.36484 16.8052 8.08187C16.9947 7.79889 17.0961 7.4661 17.0966 7.12552C17.0959 6.66814 16.914 6.22967 16.5906 5.90621C16.2673 5.58275 15.8288 5.40092 15.3715 5.40016Z" fill="#002F49"/>
<path d="M21.1397 9.746C21.0878 9.746 21.0373 9.72916 20.9957 9.698L17.1099 6.75704C17.0848 6.73799 17.0636 6.71417 17.0477 6.68696C17.0318 6.65974 17.0214 6.62966 17.0171 6.59843C17.0128 6.56719 17.0147 6.53542 17.0227 6.50492C17.0307 6.47442 17.0446 6.4458 17.0637 6.42068C17.0827 6.39556 17.1066 6.37444 17.1338 6.35852C17.161 6.34261 17.1911 6.33221 17.2223 6.32792C17.2535 6.32363 17.2853 6.32553 17.3158 6.33352C17.3463 6.34151 17.3749 6.35543 17.4 6.37448L21.2849 9.31472C21.3253 9.345 21.3551 9.38725 21.3701 9.43545C21.3851 9.48364 21.3845 9.53534 21.3684 9.58318C21.3523 9.63103 21.3216 9.67259 21.2805 9.70195C21.2395 9.73131 21.1902 9.74697 21.1397 9.74672V9.746Z" fill="#002F49"/>
<path d="M19.7059 10.8337C19.6544 10.8336 19.6044 10.8167 19.5633 10.7857L16.6742 8.64204C16.623 8.60414 16.5889 8.54744 16.5795 8.48443C16.5701 8.42142 16.5861 8.35725 16.624 8.30604C16.662 8.25483 16.7186 8.22078 16.7817 8.21137C16.8447 8.20197 16.9088 8.21798 16.96 8.25588L19.8492 10.4003C19.8895 10.4305 19.9192 10.4726 19.9343 10.5207C19.9493 10.5688 19.9488 10.6204 19.9328 10.6682C19.9169 10.716 19.8864 10.7575 19.8455 10.787C19.8046 10.8164 19.7555 10.8323 19.7052 10.8323L19.7059 10.8337Z" fill="#002F49"/>
<path d="M6.65806 9.98816C6.60278 9.98835 6.54912 9.96945 6.50616 9.93465C6.4632 9.89984 6.43358 9.85128 6.42229 9.79716C6.411 9.74304 6.41875 9.68668 6.44422 9.63761C6.46968 9.58854 6.51131 9.54976 6.56206 9.52784L13.3389 6.58448C13.3678 6.57187 13.3989 6.56508 13.4305 6.56449C13.462 6.56391 13.4933 6.56954 13.5227 6.58106C13.552 6.59258 13.5788 6.60977 13.6015 6.63165C13.6242 6.65352 13.6424 6.67966 13.655 6.70856C13.6676 6.73746 13.6744 6.76856 13.675 6.80009C13.6756 6.83161 13.67 6.86295 13.6584 6.8923C13.6469 6.92165 13.6297 6.94844 13.6079 6.97115C13.586 6.99386 13.5598 7.01203 13.5309 7.02464L6.75358 9.968C6.72348 9.98127 6.69095 9.98814 6.65806 9.98816Z" fill="#002F49"/>
<path d="M7.97503 11.9643C7.92174 11.9644 7.86994 11.9467 7.82779 11.9141C7.78564 11.8815 7.75554 11.8358 7.74223 11.7843C7.72892 11.7327 7.73315 11.6781 7.75427 11.6292C7.77539 11.5803 7.81219 11.5398 7.85887 11.5141L13.8109 8.23926C13.8666 8.20854 13.9323 8.20124 13.9934 8.21895C14.0237 8.22772 14.052 8.24237 14.0766 8.26205C14.1012 8.28174 14.1217 8.30609 14.1369 8.33369C14.1521 8.3613 14.1617 8.39164 14.1652 8.42296C14.1687 8.45429 14.166 8.486 14.1572 8.51627C14.1484 8.54655 14.1338 8.5748 14.1141 8.59942C14.0944 8.62403 14.0701 8.64453 14.0425 8.65973L8.09047 11.9345C8.05516 11.9542 8.01542 11.9644 7.97503 11.9643Z" fill="#002F49"/>
<path d="M20.8394 12.8898C20.7757 12.8898 20.7147 12.8645 20.6697 12.8195C20.6247 12.7745 20.5994 12.7135 20.5994 12.6498V11.7241C20.5994 11.6605 20.6247 11.5994 20.6697 11.5544C20.7147 11.5094 20.7757 11.4841 20.8394 11.4841C20.903 11.4841 20.9641 11.5094 21.0091 11.5544C21.0541 11.5994 21.0794 11.6605 21.0794 11.7241V12.6498C21.0794 12.7135 21.0541 12.7745 21.0091 12.8195C20.9641 12.8645 20.903 12.8898 20.8394 12.8898Z" fill="#002F49"/>
<path d="M18.3084 14.6854C18.2638 14.6854 18.2201 14.6729 18.1822 14.6495C18.1443 14.6261 18.1136 14.5926 18.0937 14.5527C18.0738 14.5128 18.0653 14.4682 18.0693 14.4238C18.0733 14.3794 18.0896 14.337 18.1164 14.3014L19.157 12.9182C19.2759 12.7608 19.4296 12.633 19.6061 12.5449C19.7826 12.4567 19.9771 12.4106 20.1744 12.4102H21.456C21.6533 12.4107 21.8479 12.4568 22.0244 12.5449C22.201 12.6331 22.3548 12.7608 22.4738 12.9182L23.514 14.3014C23.5329 14.3266 23.5466 14.3553 23.5545 14.3858C23.5623 14.4163 23.564 14.4481 23.5595 14.4793C23.5551 14.5105 23.5445 14.5405 23.5285 14.5676C23.5124 14.5948 23.4912 14.6184 23.466 14.6374C23.4407 14.6563 23.4121 14.67 23.3815 14.6778C23.351 14.6857 23.3192 14.6874 23.288 14.6829C23.2568 14.6785 23.2268 14.6679 23.1997 14.6519C23.1726 14.6358 23.1489 14.6146 23.13 14.5894L22.0896 13.2062C22.0155 13.1083 21.9197 13.0287 21.8098 12.9739C21.6999 12.919 21.5788 12.8903 21.456 12.8899H20.1748C20.052 12.8902 19.9309 12.9189 19.8209 12.9737C19.711 13.0286 19.6153 13.1082 19.5412 13.2062L18.5004 14.5896C18.478 14.6194 18.449 14.6435 18.4157 14.6601C18.3823 14.6767 18.3456 14.6854 18.3084 14.6854Z" fill="#002F49"/>
<path d="M24.0919 17.4751C24.0521 17.475 24.0129 17.4651 23.9779 17.4461C23.9429 17.4271 23.9132 17.3997 23.8914 17.3664C23.8696 17.3331 23.8564 17.2948 23.8531 17.2551C23.8498 17.2155 23.8564 17.1756 23.8723 17.1391L24.9492 14.6858H16.5458L17.8394 17.123C17.8549 17.1509 17.8647 17.1816 17.8682 17.2133C17.8717 17.245 17.8688 17.2771 17.8597 17.3076C17.8507 17.3382 17.8356 17.3667 17.8155 17.3914C17.7953 17.4161 17.7704 17.4365 17.7422 17.4515C17.714 17.4664 17.6832 17.4756 17.6514 17.4785C17.6196 17.4814 17.5876 17.478 17.5572 17.4683C17.5268 17.4587 17.4986 17.4431 17.4743 17.4225C17.45 17.4018 17.43 17.3766 17.4156 17.3481L15.936 14.5579C15.9166 14.5213 15.907 14.4804 15.908 14.439C15.9091 14.3976 15.9209 14.3573 15.9422 14.3218C15.9635 14.2863 15.9936 14.2569 16.0296 14.2365C16.0656 14.2161 16.1063 14.2054 16.1477 14.2053H25.3176C25.3574 14.2053 25.3966 14.2153 25.4317 14.2342C25.4667 14.2532 25.4965 14.2806 25.5183 14.3139C25.5401 14.3473 25.5533 14.3855 25.5566 14.4252C25.56 14.4649 25.5534 14.5048 25.5374 14.5413L24.3134 17.3311C24.2946 17.3741 24.2636 17.4107 24.2243 17.4363C24.1849 17.4619 24.1389 17.4754 24.0919 17.4751Z" fill="#002F49"/>
<path d="M9.88934 31.08H2.6399C2.57625 31.08 2.51521 31.0547 2.4702 31.0097C2.42519 30.9646 2.3999 30.9036 2.3999 30.84V27.1946C2.3999 27.1309 2.42519 27.0699 2.4702 27.0249C2.51521 26.9799 2.57625 26.9546 2.6399 26.9546H9.88934C9.95299 26.9546 10.014 26.9799 10.059 27.0249C10.1041 27.0699 10.1293 27.1309 10.1293 27.1946V30.84C10.1293 30.9036 10.1041 30.9646 10.059 31.0097C10.014 31.0547 9.95299 31.08 9.88934 31.08ZM2.8799 30.6H9.64934V27.4346H2.8799V30.6Z" fill="#002F49"/>
<path d="M9.11244 27.4345H3.41676C3.35311 27.4345 3.29206 27.4093 3.24705 27.3643C3.20204 27.3192 3.17676 27.2582 3.17676 27.1945V25.5222C3.17676 25.4586 3.20204 25.3975 3.24705 25.3525C3.29206 25.3075 3.35311 25.2822 3.41676 25.2822H9.11244C9.17609 25.2822 9.23713 25.3075 9.28214 25.3525C9.32715 25.3975 9.35244 25.4586 9.35244 25.5222V27.1945C9.35244 27.2582 9.32715 27.3192 9.28214 27.3643C9.23713 27.4093 9.17609 27.4345 9.11244 27.4345ZM3.65676 26.9545H8.87244V25.7622H3.65676V26.9545Z" fill="#002F49"/>
<path d="M8.04009 25.7622H4.49001C4.45754 25.7623 4.4254 25.7557 4.39554 25.743C4.36568 25.7302 4.33872 25.7115 4.31628 25.6881C4.29384 25.6646 4.2764 25.6368 4.26501 25.6064C4.25362 25.576 4.24852 25.5436 4.25001 25.5112L4.83369 12.8349C4.83735 12.7715 4.86564 12.7122 4.9125 12.6694C4.95937 12.6267 5.0211 12.604 5.08449 12.6061C5.11598 12.6076 5.14687 12.6152 5.1754 12.6286C5.20394 12.642 5.22956 12.6609 5.2508 12.6842C5.27204 12.7075 5.28848 12.7347 5.29919 12.7643C5.3099 12.794 5.31466 12.8255 5.31321 12.8569L4.74129 25.2822H7.78929L7.21329 12.7612C7.21186 12.7297 7.21664 12.6982 7.22738 12.6685C7.23812 12.6388 7.25459 12.6116 7.27586 12.5883C7.29713 12.565 7.32279 12.5461 7.35136 12.5327C7.37993 12.5193 7.41085 12.5117 7.44237 12.5103C7.47389 12.5088 7.50538 12.5136 7.53505 12.5243C7.56471 12.5351 7.59197 12.5516 7.61527 12.5728C7.63857 12.5941 7.65746 12.6198 7.67084 12.6483C7.68423 12.6769 7.69186 12.7078 7.69329 12.7393L8.28009 25.5119C8.28158 25.5443 8.27648 25.5767 8.26509 25.6071C8.2537 25.6375 8.23626 25.6653 8.21382 25.6888C8.19138 25.7123 8.16442 25.7309 8.13456 25.7437C8.1047 25.7564 8.07256 25.763 8.04009 25.7629V25.7622Z" fill="#002F49"/>
<path d="M20.8183 23.5117H13.1496C12.9205 23.5034 12.704 23.4048 12.5474 23.2373C12.3908 23.0698 12.307 22.8471 12.3142 22.6179V20.2866C12.3068 20.0573 12.3906 19.8344 12.5471 19.6668C12.7037 19.4991 12.9204 19.4004 13.1496 19.3921H20.6453C20.8744 19.4005 21.0909 19.4994 21.2473 19.667C21.4037 19.8346 21.4874 20.0574 21.48 20.2866V22.8066C21.4854 22.9877 21.4189 23.1637 21.2948 23.2958C21.1708 23.428 20.9995 23.5056 20.8183 23.5117ZM13.1496 19.8721C13.0479 19.8806 12.9536 19.9287 12.8871 20.0061C12.8206 20.0835 12.7872 20.184 12.7942 20.2858V22.6172C12.7872 22.719 12.8206 22.8195 12.8871 22.8969C12.9536 22.9744 13.0479 23.0225 13.1496 23.031H20.8183C20.872 23.0249 20.9211 22.998 20.9551 22.9562C20.9892 22.9143 21.0056 22.8608 21.0007 22.807V20.287C21.0081 20.185 20.9749 20.0842 20.9083 20.0065C20.8418 19.9288 20.7473 19.8805 20.6453 19.8721H13.1496Z" fill="#002F49"/>
<path d="M29.5049 23.5117H21.6634C21.4821 23.506 21.3105 23.4288 21.1862 23.2968C21.0619 23.1649 20.9949 22.989 21 22.8078V20.2878C20.9923 20.0582 21.076 19.8349 21.2328 19.6669C21.3896 19.499 21.6066 19.4002 21.8362 19.3921H29.3321C29.5612 19.4004 29.7777 19.499 29.9342 19.6665C30.0907 19.834 30.1745 20.0567 30.1673 20.2858V22.8058C30.1729 22.9873 30.1063 23.1635 29.9821 23.2958C29.8579 23.4282 29.6863 23.5058 29.5049 23.5117ZM21.8362 19.8721C21.7342 19.8804 21.6396 19.9285 21.5729 20.0061C21.5062 20.0837 21.4728 20.1845 21.48 20.2866V22.8066C21.4751 22.8604 21.4915 22.9139 21.5257 22.9558C21.5598 22.9976 21.609 23.0244 21.6626 23.0305H29.5042C29.5578 23.0244 29.6069 22.9975 29.641 22.9557C29.6751 22.9138 29.6914 22.8603 29.6866 22.8066V20.2866C29.6936 20.1848 29.6603 20.0843 29.5938 20.0069C29.5273 19.9294 29.4331 19.8813 29.3314 19.8728L21.8362 19.8721Z" fill="#002F49"/>
<path d="M32.7208 23.5117H30.3928C30.1995 23.5053 30.0167 23.4226 29.8842 23.2817C29.7518 23.1408 29.6806 22.9531 29.6863 22.7598V20.3358C29.6785 20.0945 29.7667 19.8599 29.9315 19.6834C30.0963 19.5069 30.3243 19.4029 30.5656 19.394H32.7199C32.9612 19.4024 33.1894 19.5061 33.3543 19.6824C33.5193 19.8587 33.6076 20.0933 33.5999 20.3346V22.57C33.608 22.8114 33.5199 23.0461 33.3551 23.2226C33.1903 23.3992 32.9622 23.5031 32.7208 23.5117ZM30.5666 19.8721C30.4527 19.8811 30.3469 19.9346 30.2721 20.021C30.1974 20.1075 30.1597 20.2199 30.1672 20.3339V22.7579C30.1618 22.8239 30.1825 22.8893 30.2249 22.9402C30.2672 22.991 30.3279 23.0232 30.3938 23.0298H32.7218C32.8351 23.0205 32.9403 22.9672 33.0148 22.8812C33.0892 22.7952 33.127 22.6835 33.1199 22.57V20.3346C33.1275 20.2206 33.0898 20.1082 33.0151 20.0218C32.9404 19.9354 32.8347 19.8819 32.7208 19.8728L30.5666 19.8721Z" fill="#002F49"/>
<path d="M20.6453 30.789H13.1496C12.9205 30.7808 12.7039 30.6821 12.5474 30.5146C12.3908 30.3471 12.307 30.1244 12.3141 29.8953V27.5639C12.307 27.3348 12.3908 27.1121 12.5474 26.9446C12.7039 26.7771 12.9205 26.6784 13.1496 26.6702H20.8183C20.9994 26.6761 21.1707 26.7534 21.2948 26.8854C21.419 27.0173 21.4858 27.193 21.4807 27.3741V29.8941C21.4882 30.1234 21.4045 30.3464 21.2479 30.5142C21.0913 30.6819 20.8746 30.7808 20.6453 30.789ZM13.1496 27.1502C13.0478 27.1586 12.9535 27.2067 12.887 27.2841C12.8205 27.3616 12.7871 27.4621 12.7941 27.5639V29.8953C12.7871 29.9971 12.8205 30.0976 12.887 30.1751C12.9535 30.2525 13.0478 30.3006 13.1496 30.309H20.6453C20.747 30.3006 20.8413 30.2525 20.9079 30.1751C20.9744 30.0976 21.0077 29.9971 21.0007 29.8953V27.3753C21.0056 27.3215 20.9892 27.268 20.9551 27.2262C20.921 27.1843 20.8719 27.1575 20.8183 27.1514L13.1496 27.1502Z" fill="#002F49"/>
<path d="M29.332 30.7891H21.8361C21.607 30.7808 21.3905 30.6821 21.2339 30.5146C21.0773 30.3471 20.9935 30.1245 21.0007 29.8953V27.3753C20.9956 27.1942 21.0624 27.0184 21.1866 26.8865C21.3108 26.7546 21.4822 26.6772 21.6633 26.6714H29.5048C29.6859 26.6773 29.8572 26.7547 29.9814 26.8866C30.1055 27.0185 30.1723 27.1942 30.1672 27.3753V29.8953C30.1745 30.1244 30.0907 30.3471 29.9342 30.5146C29.7776 30.6821 29.5611 30.7808 29.332 30.7891ZM21.6633 27.1502C21.6096 27.1562 21.5605 27.1831 21.5263 27.2249C21.4922 27.2668 21.4758 27.3203 21.4807 27.3741V29.8941C21.4736 29.996 21.507 30.0965 21.5735 30.1739C21.64 30.2513 21.7344 30.2995 21.8361 30.3079H29.332C29.4337 30.2994 29.528 30.2513 29.5945 30.1738C29.6609 30.0964 29.6943 29.9959 29.6872 29.8941V27.3741C29.6921 27.3204 29.6757 27.2668 29.6416 27.225C29.6076 27.1831 29.5585 27.1563 29.5048 27.1502H21.6633Z" fill="#002F49"/>
<path d="M32.7208 30.789H30.5666C30.3253 30.7802 30.0973 30.6762 29.9325 30.4997C29.7677 30.3232 29.6795 30.0886 29.6872 29.8473V27.4221C29.6817 27.2288 29.7529 27.0412 29.8853 26.9003C30.0177 26.7594 30.2005 26.6766 30.3938 26.6702H32.7218C32.963 26.679 33.1909 26.7831 33.3555 26.9596C33.5201 27.1361 33.608 27.3707 33.6 27.6119V29.8473C33.608 30.0887 33.5199 30.3234 33.3551 30.5C33.1903 30.6765 32.9622 30.7805 32.7208 30.789ZM30.3928 27.1502C30.327 27.1567 30.2663 27.1889 30.2239 27.2398C30.1816 27.2906 30.1609 27.3561 30.1663 27.4221V29.8473C30.1587 29.9613 30.1964 30.0737 30.2712 30.1601C30.3459 30.2466 30.4517 30.3001 30.5656 30.309H32.7199C32.8339 30.3003 32.9399 30.2468 33.0148 30.1604C33.0897 30.0739 33.1275 29.9614 33.12 29.8473V27.6119C33.1275 27.4979 33.0899 27.3856 33.0152 27.2991C32.9405 27.2127 32.8347 27.1592 32.7208 27.1502H30.3928Z" fill="#002F49"/>
<path d="M32.7645 27.1501H25.0958C24.9147 27.1443 24.7434 27.067 24.6193 26.9351C24.4951 26.8032 24.4283 26.6275 24.4334 26.4465V23.7359C24.4283 23.5549 24.4951 23.3792 24.6193 23.2473C24.7434 23.1154 24.9147 23.0381 25.0958 23.0322H32.7645C32.9935 23.0404 33.2099 23.1389 33.3664 23.3062C33.523 23.4735 33.6069 23.696 33.5999 23.925V26.2559C33.6073 26.4852 33.5235 26.708 33.367 26.8756C33.2104 27.0432 32.9937 27.1419 32.7645 27.1501ZM25.0958 23.5115C25.0422 23.5176 24.9931 23.5444 24.959 23.5862C24.9249 23.628 24.9085 23.6815 24.9134 23.7352V26.4472C24.9085 26.5009 24.9249 26.5544 24.959 26.5962C24.9931 26.638 25.0422 26.6648 25.0958 26.6709H32.7645C32.8665 26.6625 32.961 26.6142 33.0275 26.5365C33.0941 26.4588 33.1273 26.3579 33.1199 26.2559V23.925C33.1269 23.8232 33.0935 23.7228 33.027 23.6454C32.9605 23.568 32.8662 23.5199 32.7645 23.5115H25.0958Z" fill="#002F49"/>
<path d="M24.2508 27.1501H16.4092C16.2282 27.1443 16.0568 27.067 15.9326 26.9351C15.8084 26.8032 15.7416 26.6275 15.7466 26.4465V23.7359C15.7416 23.5548 15.8084 23.3791 15.9326 23.2473C16.0568 23.1154 16.2282 23.0381 16.4092 23.0322H24.2508C24.4318 23.0381 24.6032 23.1154 24.7274 23.2473C24.8516 23.3791 24.9184 23.5548 24.9134 23.7359V26.4479C24.9181 26.6287 24.851 26.8041 24.7269 26.9356C24.6027 27.0672 24.4316 27.1443 24.2508 27.1501ZM16.4092 23.5115C16.3556 23.5175 16.3064 23.5443 16.2723 23.5861C16.2382 23.6279 16.2218 23.6814 16.2266 23.7352V26.4472C16.2218 26.5009 16.2382 26.5545 16.2723 26.5963C16.3064 26.6381 16.3556 26.6649 16.4092 26.6709H24.2508C24.3044 26.6649 24.3536 26.6381 24.3877 26.5963C24.4219 26.5545 24.4383 26.5009 24.4334 26.4472V23.7359C24.4383 23.6821 24.4219 23.6286 24.3877 23.5868C24.3536 23.545 24.3044 23.5182 24.2508 23.5122L16.4092 23.5115Z" fill="#002F49"/>
<path d="M15.5206 27.1501H13.1926C12.9512 27.1416 12.7231 27.0377 12.5582 26.8612C12.3934 26.6847 12.3053 26.45 12.3132 26.2086V23.973C12.3053 23.7316 12.3934 23.4969 12.5582 23.3204C12.7231 23.1439 12.9512 23.04 13.1926 23.0315H15.5206C15.7139 23.0379 15.8968 23.1208 16.0291 23.2618C16.1615 23.4028 16.2325 23.5906 16.2267 23.7839V26.3999C16.2319 26.5928 16.1606 26.78 16.0283 26.9206C15.896 27.0612 15.7135 27.1437 15.5206 27.1501ZM13.1926 23.5115C13.0787 23.5205 12.973 23.5739 12.8982 23.6603C12.8235 23.7467 12.7858 23.859 12.7932 23.973V26.2079C12.7857 26.3219 12.8234 26.4343 12.8981 26.5207C12.9729 26.6071 13.0787 26.6605 13.1926 26.6694H15.5206C15.5863 26.6627 15.6468 26.6305 15.6891 26.5797C15.7314 26.5289 15.752 26.4636 15.7467 26.3977V23.7839C15.7521 23.718 15.7315 23.6526 15.6892 23.6017C15.6469 23.5509 15.5864 23.5187 15.5206 23.512L13.1926 23.5115Z" fill="#002F49"/>
<path d="M32.7645 19.8721H26.5063C26.2772 19.8638 26.0608 19.7652 25.9042 19.5977C25.7477 19.4303 25.6639 19.2076 25.6711 18.9786V16.4578C25.666 16.2768 25.7328 16.1011 25.857 15.9692C25.9811 15.8373 26.1525 15.76 26.3335 15.7542H32.7655C32.9944 15.7626 33.2107 15.8613 33.3671 16.0288C33.5234 16.1962 33.6072 16.4187 33.6 16.6477V18.9793C33.607 19.2083 33.523 19.4308 33.3665 19.5981C33.2099 19.7654 32.9935 19.8639 32.7645 19.8721ZM26.3325 16.2334C26.2789 16.2395 26.2298 16.2663 26.1957 16.3081C26.1616 16.3499 26.1453 16.4034 26.1501 16.4571V18.9793C26.1431 19.0811 26.1764 19.1815 26.2429 19.2589C26.3094 19.3363 26.4036 19.3844 26.5053 19.3928H32.7636C32.8654 19.3846 32.96 19.3366 33.0267 19.2592C33.0934 19.1818 33.1269 19.0812 33.12 18.9793V16.6477C33.1269 16.5459 33.0935 16.4454 33.027 16.368C32.9605 16.2906 32.8662 16.2426 32.7645 16.2342L26.3325 16.2334Z" fill="#002F49"/>
<path d="M32.7209 16.2341H30.3929C30.1996 16.2276 30.0168 16.1449 29.8844 16.004C29.752 15.8631 29.6808 15.6755 29.6863 15.4822V12.8662C29.6808 12.6729 29.752 12.4853 29.8844 12.3444C30.0168 12.2034 30.1996 12.1207 30.3929 12.1143H32.7209C32.9623 12.1228 33.1904 12.2268 33.3552 12.4034C33.52 12.5799 33.6081 12.8146 33.6 13.056V15.2914C33.6083 15.5329 33.5204 15.7679 33.3555 15.9447C33.1907 16.1214 32.9624 16.2255 32.7209 16.2341ZM30.3929 12.5952C30.327 12.6018 30.2664 12.634 30.224 12.6848C30.1816 12.7357 30.1609 12.8012 30.1663 12.8671V15.4831C30.161 15.5491 30.1817 15.6145 30.2241 15.6654C30.2664 15.7162 30.3271 15.7484 30.3929 15.7551H32.7209C32.835 15.746 32.9408 15.6924 33.0156 15.6057C33.0903 15.5191 33.1278 15.4065 33.12 15.2923V13.056C33.1276 12.942 33.0899 12.8297 33.0152 12.7432C32.9405 12.6568 32.8348 12.6033 32.7209 12.5943L30.3929 12.5952Z" fill="#002F49"/>
<path d="M6.20779 13.4961C5.80749 13.4957 5.4163 13.3765 5.08371 13.1538C4.75111 12.931 4.49203 12.6146 4.33925 12.2446C4.18647 11.8746 4.14683 11.4676 4.22537 11.0751C4.3039 10.6826 4.49707 10.3222 4.78044 10.0394C5.06382 9.75669 5.42467 9.56433 5.81737 9.48668C6.21008 9.40904 6.61698 9.44958 6.98664 9.6032C7.35629 9.75682 7.67209 10.0166 7.8941 10.3497C8.11611 10.6828 8.23435 11.0743 8.23387 11.4746C8.23267 12.0111 8.01867 12.5253 7.63884 12.9043C7.25901 13.2832 6.74436 13.4961 6.20779 13.4961ZM6.20779 9.92824C5.90263 9.92867 5.60444 10.0195 5.35088 10.1893C5.09732 10.3591 4.89976 10.6003 4.78317 10.8823C4.66657 11.1643 4.63617 11.4745 4.69579 11.7738C4.75541 12.0731 4.90239 12.348 5.11816 12.5638C5.33392 12.7796 5.6088 12.9266 5.90808 12.9863C6.20735 13.0459 6.51759 13.0156 6.79962 12.899C7.08165 12.7825 7.32282 12.585 7.49266 12.3314C7.6625 12.0779 7.7534 11.7797 7.75387 11.4746C7.75349 11.0646 7.59049 10.6716 7.30063 10.3817C7.01078 10.0918 6.61775 9.92869 6.20779 9.92824Z" fill="#002F49"/>
<path d="M20.8394 11.9641C20.5681 11.9638 20.303 11.883 20.0776 11.732C19.8521 11.581 19.6766 11.3666 19.573 11.1158C19.4695 10.865 19.4427 10.5891 19.4959 10.3231C19.5491 10.0571 19.6801 9.81279 19.8721 9.62116C20.0642 9.42953 20.3088 9.29916 20.5749 9.24652C20.8411 9.19389 21.1169 9.22136 21.3674 9.32546C21.618 9.42956 21.832 9.60562 21.9825 9.83137C22.133 10.0571 22.2132 10.3224 22.2129 10.5937C22.2122 10.9575 22.0671 11.3061 21.8096 11.563C21.5521 11.8199 21.2032 11.9642 20.8394 11.9641ZM20.8394 9.70046C20.6631 9.70079 20.4909 9.75334 20.3445 9.85148C20.1981 9.94961 20.0841 10.0889 20.0168 10.2518C19.9495 10.4147 19.932 10.5939 19.9665 10.7668C20.001 10.9396 20.0859 11.0984 20.2105 11.223C20.3352 11.3476 20.494 11.4325 20.6668 11.4669C20.8397 11.5014 21.0189 11.4838 21.1818 11.4165C21.3447 11.3492 21.4839 11.2351 21.582 11.0887C21.6801 10.9422 21.7326 10.77 21.7329 10.5937C21.7326 10.3569 21.6384 10.1298 21.4708 9.96236C21.3033 9.7949 21.0763 9.70071 20.8394 9.70046Z" fill="#002F49"/>
<path d="M15.3715 9.32584C14.9357 9.32541 14.5099 9.19578 14.1479 8.95334C13.7858 8.7109 13.5038 8.36654 13.3375 7.96381C13.1711 7.56108 13.128 7.11807 13.2134 6.69081C13.2989 6.26355 13.5091 5.87123 13.8176 5.56346C14.126 5.25569 14.5188 5.0463 14.9463 4.96177C15.3737 4.87725 15.8166 4.92137 16.219 5.08858C16.6213 5.25578 16.9651 5.53855 17.2067 5.90113C17.4484 6.2637 17.5771 6.6898 17.5766 7.12552C17.5753 7.70952 17.3424 8.26917 16.929 8.68168C16.5156 9.09418 15.9555 9.32584 15.3715 9.32584ZM15.3715 5.40016C15.0309 5.40059 14.6981 5.50194 14.4151 5.69142C14.1321 5.88089 13.9116 6.14999 13.7814 6.46472C13.6513 6.77944 13.6173 7.12568 13.6838 7.4597C13.7504 7.79371 13.9144 8.10051 14.1552 8.34135C14.396 8.58219 14.7028 8.74626 15.0368 8.81284C15.3708 8.87942 15.7171 8.84551 16.0318 8.71541C16.3465 8.58531 16.6157 8.36484 16.8052 8.08187C16.9947 7.79889 17.0961 7.4661 17.0966 7.12552C17.0959 6.66814 16.914 6.22967 16.5906 5.90621C16.2673 5.58275 15.8288 5.40092 15.3715 5.40016Z" fill="#002F49"/>
<path d="M21.1397 9.746C21.0878 9.746 21.0373 9.72916 20.9957 9.698L17.1099 6.75704C17.0848 6.73799 17.0636 6.71417 17.0477 6.68696C17.0318 6.65974 17.0214 6.62966 17.0171 6.59843C17.0128 6.56719 17.0147 6.53542 17.0227 6.50492C17.0307 6.47442 17.0446 6.4458 17.0637 6.42068C17.0827 6.39556 17.1066 6.37444 17.1338 6.35852C17.161 6.34261 17.1911 6.33221 17.2223 6.32792C17.2535 6.32363 17.2853 6.32553 17.3158 6.33352C17.3463 6.34151 17.3749 6.35543 17.4 6.37448L21.2849 9.31472C21.3253 9.345 21.3551 9.38725 21.3701 9.43545C21.3851 9.48364 21.3845 9.53534 21.3684 9.58318C21.3523 9.63103 21.3216 9.67259 21.2805 9.70195C21.2395 9.73131 21.1902 9.74697 21.1397 9.74672V9.746Z" fill="#002F49"/>
<path d="M19.7059 10.8337C19.6544 10.8336 19.6044 10.8167 19.5633 10.7857L16.6742 8.64204C16.623 8.60414 16.5889 8.54744 16.5795 8.48443C16.5701 8.42142 16.5861 8.35725 16.624 8.30604C16.662 8.25483 16.7186 8.22078 16.7817 8.21137C16.8447 8.20197 16.9088 8.21798 16.96 8.25588L19.8492 10.4003C19.8895 10.4305 19.9192 10.4726 19.9343 10.5207C19.9493 10.5688 19.9488 10.6204 19.9328 10.6682C19.9169 10.716 19.8864 10.7575 19.8455 10.787C19.8046 10.8164 19.7555 10.8323 19.7052 10.8323L19.7059 10.8337Z" fill="#002F49"/>
<path d="M6.65806 9.98816C6.60278 9.98835 6.54912 9.96945 6.50616 9.93465C6.4632 9.89984 6.43358 9.85128 6.42229 9.79716C6.411 9.74304 6.41875 9.68668 6.44422 9.63761C6.46968 9.58854 6.51131 9.54976 6.56206 9.52784L13.3389 6.58448C13.3678 6.57187 13.3989 6.56508 13.4305 6.56449C13.462 6.56391 13.4933 6.56954 13.5227 6.58106C13.552 6.59258 13.5788 6.60977 13.6015 6.63165C13.6242 6.65352 13.6424 6.67966 13.655 6.70856C13.6676 6.73746 13.6744 6.76856 13.675 6.80009C13.6756 6.83161 13.67 6.86295 13.6584 6.8923C13.6469 6.92165 13.6297 6.94844 13.6079 6.97115C13.586 6.99386 13.5598 7.01203 13.5309 7.02464L6.75358 9.968C6.72348 9.98127 6.69095 9.98814 6.65806 9.98816Z" fill="#002F49"/>
<path d="M7.97503 11.9643C7.92174 11.9644 7.86994 11.9467 7.82779 11.9141C7.78564 11.8815 7.75554 11.8358 7.74223 11.7843C7.72892 11.7327 7.73315 11.6781 7.75427 11.6292C7.77539 11.5803 7.81219 11.5398 7.85887 11.5141L13.8109 8.23926C13.8666 8.20854 13.9323 8.20124 13.9934 8.21895C14.0237 8.22772 14.052 8.24237 14.0766 8.26205C14.1012 8.28174 14.1217 8.30609 14.1369 8.33369C14.1521 8.3613 14.1617 8.39164 14.1652 8.42296C14.1687 8.45429 14.166 8.486 14.1572 8.51627C14.1484 8.54655 14.1338 8.5748 14.1141 8.59942C14.0944 8.62403 14.0701 8.64453 14.0425 8.65973L8.09047 11.9345C8.05516 11.9542 8.01542 11.9644 7.97503 11.9643Z" fill="#002F49"/>
<path d="M20.8394 12.8898C20.7757 12.8898 20.7147 12.8645 20.6697 12.8195C20.6247 12.7745 20.5994 12.7135 20.5994 12.6498V11.7241C20.5994 11.6605 20.6247 11.5994 20.6697 11.5544C20.7147 11.5094 20.7757 11.4841 20.8394 11.4841C20.903 11.4841 20.9641 11.5094 21.0091 11.5544C21.0541 11.5994 21.0794 11.6605 21.0794 11.7241V12.6498C21.0794 12.7135 21.0541 12.7745 21.0091 12.8195C20.9641 12.8645 20.903 12.8898 20.8394 12.8898Z" fill="#002F49"/>
<path d="M18.3084 14.6854C18.2638 14.6854 18.2201 14.6729 18.1822 14.6495C18.1443 14.6261 18.1136 14.5926 18.0937 14.5527C18.0738 14.5128 18.0653 14.4682 18.0693 14.4238C18.0733 14.3794 18.0896 14.337 18.1164 14.3014L19.157 12.9182C19.2759 12.7608 19.4296 12.633 19.6061 12.5449C19.7826 12.4567 19.9771 12.4106 20.1744 12.4102H21.456C21.6533 12.4107 21.8479 12.4568 22.0244 12.5449C22.201 12.6331 22.3548 12.7608 22.4738 12.9182L23.514 14.3014C23.5329 14.3266 23.5466 14.3553 23.5545 14.3858C23.5623 14.4163 23.564 14.4481 23.5595 14.4793C23.5551 14.5105 23.5445 14.5405 23.5285 14.5676C23.5124 14.5948 23.4912 14.6184 23.466 14.6374C23.4407 14.6563 23.4121 14.67 23.3815 14.6778C23.351 14.6857 23.3192 14.6874 23.288 14.6829C23.2568 14.6785 23.2268 14.6679 23.1997 14.6519C23.1726 14.6358 23.1489 14.6146 23.13 14.5894L22.0896 13.2062C22.0155 13.1083 21.9197 13.0287 21.8098 12.9739C21.6999 12.919 21.5788 12.8903 21.456 12.8899H20.1748C20.052 12.8902 19.9309 12.9189 19.8209 12.9737C19.711 13.0286 19.6153 13.1082 19.5412 13.2062L18.5004 14.5896C18.478 14.6194 18.449 14.6435 18.4157 14.6601C18.3823 14.6767 18.3456 14.6854 18.3084 14.6854Z" fill="#002F49"/>
<path d="M24.0919 17.4751C24.0521 17.475 24.0129 17.4651 23.9779 17.4461C23.9429 17.4271 23.9132 17.3997 23.8914 17.3664C23.8696 17.3331 23.8564 17.2948 23.8531 17.2551C23.8498 17.2155 23.8564 17.1756 23.8723 17.1391L24.9492 14.6858H16.5458L17.8394 17.123C17.8549 17.1509 17.8647 17.1816 17.8682 17.2133C17.8717 17.245 17.8688 17.2771 17.8597 17.3076C17.8507 17.3382 17.8356 17.3667 17.8155 17.3914C17.7953 17.4161 17.7704 17.4365 17.7422 17.4515C17.714 17.4664 17.6832 17.4756 17.6514 17.4785C17.6196 17.4814 17.5876 17.478 17.5572 17.4683C17.5268 17.4587 17.4986 17.4431 17.4743 17.4225C17.45 17.4018 17.43 17.3766 17.4156 17.3481L15.936 14.5579C15.9166 14.5213 15.907 14.4804 15.908 14.439C15.9091 14.3976 15.9209 14.3573 15.9422 14.3218C15.9635 14.2863 15.9936 14.2569 16.0296 14.2365C16.0656 14.2161 16.1063 14.2054 16.1477 14.2053H25.3176C25.3574 14.2053 25.3966 14.2153 25.4317 14.2342C25.4667 14.2532 25.4965 14.2806 25.5183 14.3139C25.5401 14.3473 25.5533 14.3855 25.5566 14.4252C25.56 14.4649 25.5534 14.5048 25.5374 14.5413L24.3134 17.3311C24.2946 17.3741 24.2636 17.4107 24.2243 17.4363C24.1849 17.4619 24.1389 17.4754 24.0919 17.4751Z" fill="#002F49"/>
<path d="M9.88934 31.08H2.6399C2.57625 31.08 2.51521 31.0547 2.4702 31.0097C2.42519 30.9646 2.3999 30.9036 2.3999 30.84V27.1946C2.3999 27.1309 2.42519 27.0699 2.4702 27.0249C2.51521 26.9799 2.57625 26.9546 2.6399 26.9546H9.88934C9.95299 26.9546 10.014 26.9799 10.059 27.0249C10.1041 27.0699 10.1293 27.1309 10.1293 27.1946V30.84C10.1293 30.9036 10.1041 30.9646 10.059 31.0097C10.014 31.0547 9.95299 31.08 9.88934 31.08ZM2.8799 30.6H9.64934V27.4346H2.8799V30.6Z" fill="#002F49"/>
<path d="M9.11244 27.4345H3.41676C3.35311 27.4345 3.29206 27.4093 3.24705 27.3643C3.20204 27.3192 3.17676 27.2582 3.17676 27.1945V25.5222C3.17676 25.4586 3.20204 25.3975 3.24705 25.3525C3.29206 25.3075 3.35311 25.2822 3.41676 25.2822H9.11244C9.17609 25.2822 9.23713 25.3075 9.28214 25.3525C9.32715 25.3975 9.35244 25.4586 9.35244 25.5222V27.1945C9.35244 27.2582 9.32715 27.3192 9.28214 27.3643C9.23713 27.4093 9.17609 27.4345 9.11244 27.4345ZM3.65676 26.9545H8.87244V25.7622H3.65676V26.9545Z" fill="#002F49"/>
<path d="M8.04009 25.7622H4.49001C4.45754 25.7623 4.4254 25.7557 4.39554 25.743C4.36568 25.7302 4.33872 25.7115 4.31628 25.6881C4.29384 25.6646 4.2764 25.6368 4.26501 25.6064C4.25362 25.576 4.24852 25.5436 4.25001 25.5112L4.83369 12.8349C4.83735 12.7715 4.86564 12.7122 4.9125 12.6694C4.95937 12.6267 5.0211 12.604 5.08449 12.6061C5.11598 12.6076 5.14687 12.6152 5.1754 12.6286C5.20394 12.642 5.22956 12.6609 5.2508 12.6842C5.27204 12.7075 5.28848 12.7347 5.29919 12.7643C5.3099 12.794 5.31466 12.8255 5.31321 12.8569L4.74129 25.2822H7.78929L7.21329 12.7612C7.21186 12.7297 7.21664 12.6982 7.22738 12.6685C7.23812 12.6388 7.25459 12.6116 7.27586 12.5883C7.29713 12.565 7.32279 12.5461 7.35136 12.5327C7.37993 12.5193 7.41085 12.5117 7.44237 12.5103C7.47389 12.5088 7.50538 12.5136 7.53505 12.5243C7.56471 12.5351 7.59197 12.5516 7.61527 12.5728C7.63857 12.5941 7.65746 12.6198 7.67084 12.6483C7.68423 12.6769 7.69186 12.7078 7.69329 12.7393L8.28009 25.5119C8.28158 25.5443 8.27648 25.5767 8.26509 25.6071C8.2537 25.6375 8.23626 25.6653 8.21382 25.6888C8.19138 25.7123 8.16442 25.7309 8.13456 25.7437C8.1047 25.7564 8.07256 25.763 8.04009 25.7629V25.7622Z" fill="#002F49"/>
</svg>
