<svg width="49" height="49" viewBox="0 0 49 49" fill="none" xmlns="http://www.w3.org/2000/svg">
<g clip-path="url(#clip0_252_2380)">
<path d="M26.251 13.4512C26.251 14.2278 26.8807 14.8574 27.6573 14.8574C28.4339 14.8574 29.0635 14.2278 29.0635 13.4512C29.0635 12.6746 28.4339 12.0449 27.6573 12.0449C26.8807 12.0449 26.251 12.6746 26.251 13.4512Z" fill="#002F49"/>
<path d="M31.876 13.4512C31.876 14.2278 32.5057 14.8574 33.2823 14.8574C34.0589 14.8574 34.6885 14.2278 34.6885 13.4512C34.6885 12.6746 34.0589 12.0449 33.2823 12.0449C32.5057 12.0449 31.876 12.6746 31.876 13.4512Z" fill="#002F49"/>
<path d="M37.501 13.4512C37.501 14.2278 38.1306 14.8574 38.9072 14.8574C39.6838 14.8574 40.3135 14.2278 40.3135 13.4512C40.3135 12.6746 39.6838 12.0449 38.9072 12.0449C38.1306 12.0449 37.501 12.6746 37.501 13.4512Z" fill="#002F49"/>
<path d="M22.6148 35.9512L26.8335 33.1387L35.251 35.9512V41.5762C35.251 43.1294 34.0118 44.3887 32.4585 44.3887C16.9256 44.3887 2.2511 29.808 2.2511 14.275C2.2511 12.7218 3.51034 11.4825 5.06359 11.4825H10.6886L13.5011 19.9L10.6886 24.1188C12.4845 28.6087 18.1248 34.1552 22.6148 35.9512Z" stroke="#002F49" stroke-width="2" stroke-miterlimit="10" stroke-linecap="round" stroke-linejoin="round"/>
<path d="M19.2198 13.4512C19.2198 18.1111 22.9973 21.8887 27.6573 21.8887V27.5137L33.2822 21.8887H38.9072C43.5672 21.8887 47.4385 18.1111 47.4385 13.4512C47.4385 8.79129 43.5672 5.01374 38.9072 5.01374H27.6573C22.9973 5.01374 19.2198 8.79129 19.2198 13.4512Z" stroke="#002F49" stroke-width="2" stroke-miterlimit="10" stroke-linecap="round" stroke-linejoin="round"/>
</g>
<defs>
<clipPath id="clip0_252_2380">
<rect width="48" height="48" fill="white" transform="translate(0.844849 0.701172)"/>
</clipPath>
</defs>
</svg>
