<svg width="48" height="48" viewBox="0 0 48 48" fill="none" xmlns="http://www.w3.org/2000/svg">
<path d="M35.1748 31.395C34.7567 30.9755 34.2599 30.6427 33.7129 30.4155C33.166 30.1884 32.5795 30.0715 31.9873 30.0715C31.395 30.0715 30.8086 30.1884 30.2616 30.4155C29.7146 30.6427 29.2178 30.9755 28.7998 31.395L26.6248 33.57C24.1759 32.0158 21.907 30.1947 19.8598 28.14C17.8095 26.0889 15.9887 23.8205 14.4298 21.375L16.6048 19.2C17.0243 18.782 17.3571 18.2852 17.5843 17.7382C17.8114 17.1912 17.9283 16.6048 17.9283 16.0125C17.9283 15.4203 17.8114 14.8338 17.5843 14.2869C17.3571 13.7399 17.0243 13.2431 16.6048 12.825L12.3598 8.59505C11.9476 8.17414 11.455 7.84038 10.9113 7.61362C10.3676 7.38686 9.78385 7.27172 9.19476 7.27504C8.60148 7.27359 8.01377 7.38947 7.46545 7.616C6.91712 7.84254 6.419 8.17527 5.99976 8.59505L3.95976 10.62C2.98741 11.6655 2.26171 12.9156 1.836 14.2784C1.41029 15.6411 1.2954 17.082 1.49976 18.495C1.97976 24.12 5.66976 30.885 11.3548 36.585C17.0398 42.285 23.8798 45.96 29.5048 46.5C29.9245 46.5225 30.3451 46.5225 30.7648 46.5C31.9756 46.5509 33.1844 46.3595 34.3203 45.937C35.4562 45.5146 36.4963 44.8697 37.3798 44.04L39.4048 42C39.8245 41.5808 40.1573 41.0827 40.3838 40.5344C40.6103 39.986 40.7262 39.3983 40.7248 38.805C40.7281 38.216 40.6129 37.6322 40.3862 37.0885C40.1594 36.5448 39.8257 36.0522 39.4048 35.64L35.1748 31.395ZM37.2898 39.885L35.2498 41.91C34.4955 42.5387 33.615 42.9979 32.6678 43.2567C31.7206 43.5155 30.7289 43.5678 29.7598 43.41C24.8848 42.99 18.6748 39.54 13.5448 34.41C8.41475 29.28 4.96476 23.115 4.49976 18.24C4.338 17.2709 4.38833 16.2782 4.64729 15.3304C4.90625 14.3826 5.36768 13.5023 5.99976 12.75L8.11476 10.71C8.25492 10.571 8.42114 10.461 8.6039 10.3864C8.78665 10.3117 8.98235 10.2739 9.17976 10.275C9.37717 10.2739 9.57286 10.3117 9.75562 10.3864C9.93837 10.461 10.1046 10.571 10.2448 10.71L14.4898 15C14.7691 15.2811 14.9259 15.6613 14.9259 16.0575C14.9259 16.4538 14.7691 16.834 14.4898 17.115L11.4898 20.115C11.255 20.3486 11.1042 20.6534 11.0607 20.9817C11.0173 21.31 11.0838 21.6435 11.2498 21.93C13.0458 24.9877 15.2289 27.8009 17.7448 30.3C20.2439 32.8159 23.0571 34.999 26.1148 36.795C26.4013 36.961 26.7348 37.0275 27.0631 36.9841C27.3914 36.9406 27.6962 36.7898 27.9298 36.555L30.9298 33.555C31.2108 33.2757 31.591 33.1189 31.9873 33.1189C32.3835 33.1189 32.7637 33.2757 33.0448 33.555L37.2898 37.8C37.4288 37.9402 37.5388 38.1064 37.6134 38.2892C37.6881 38.4719 37.7259 38.6676 37.7248 38.865C37.7154 39.2481 37.5597 39.6131 37.2898 39.885ZM39.8998 8.08504C37.8151 5.9925 35.3369 4.3333 32.608 3.20312C29.8791 2.07293 26.9534 1.49412 23.9998 1.50005C23.6019 1.50005 23.2204 1.65808 22.9391 1.93938C22.6578 2.22069 22.4998 2.60222 22.4998 3.00005C22.4998 3.39787 22.6578 3.7794 22.9391 4.06071C23.2204 4.34201 23.6019 4.50005 23.9998 4.50005C26.5745 4.49995 29.1237 5.00975 31.5004 6.00002C33.8771 6.99029 36.0341 8.44142 37.847 10.2697C39.6599 12.0979 41.0928 14.2671 42.063 16.652C43.0332 19.037 43.5215 21.5904 43.4998 24.165C43.4998 24.5629 43.6578 24.9444 43.9391 25.2257C44.2204 25.507 44.6019 25.665 44.9998 25.665C45.3976 25.665 45.7791 25.507 46.0604 25.2257C46.3417 24.9444 46.4998 24.5629 46.4998 24.165C46.5285 21.1799 45.9593 18.2193 44.8258 15.4576C43.6923 12.696 42.0174 10.1892 39.8998 8.08504Z" fill="white"/>
<path d="M31.3648 16.6651C32.216 17.5112 32.8895 18.5191 33.3454 19.6294C33.8014 20.7396 34.0307 21.9299 34.0198 23.1301C34.0198 23.5279 34.1778 23.9095 34.4591 24.1908C34.7404 24.4721 35.1219 24.6301 35.5198 24.6301C35.9176 24.6301 36.2991 24.4721 36.5804 24.1908C36.8617 23.9095 37.0198 23.5279 37.0198 23.1301C37.0396 21.5417 36.7439 19.9651 36.1497 18.4918C35.5556 17.0186 34.6748 15.6779 33.5585 14.5477C32.4422 13.4174 31.1126 12.5201 29.6469 11.9077C28.1811 11.2953 26.6083 10.98 25.0198 10.9801C24.6219 10.9801 24.2404 11.1381 23.9591 11.4194C23.6778 11.7007 23.5198 12.0823 23.5198 12.4801C23.5198 12.8779 23.6778 13.2595 23.9591 13.5408C24.2404 13.8221 24.6219 13.9801 25.0198 13.9801C26.2019 13.989 27.3707 14.2307 28.4594 14.6914C29.548 15.1521 30.5353 15.8228 31.3648 16.6651Z" fill="white"/>
</svg>
