<svg width="80" height="80" viewBox="0 0 80 80" fill="none" xmlns="http://www.w3.org/2000/svg">
<path d="M18.199 47L18.0833 47.5954L14.2884 67.12L18.199 47ZM18.199 47H17.5925M18.199 47H17.5925M17.5925 47H7.5C3.64114 47 0.5 43.8589 0.5 40V17.5C0.5 13.6411 3.64114 10.5 7.5 10.5H30C33.8589 10.5 37 13.6411 37 17.5V41.5925C37 44.033 36.6691 46.4637 36.0172 48.8161C35.9919 48.8997 35.9634 48.9805 35.9298 49.0594L35.9292 49.0608L28.6542 66.3233L28.6456 66.3438M17.5925 47L28.6456 66.3438M28.6456 66.3438L28.6388 66.3649M28.6456 66.3438L28.6388 66.3649M28.6388 66.3649C28.0447 68.2195 26.306 69.5 24.35 69.5H16.2504C15.9557 69.4998 15.6646 69.4344 15.3981 69.3086C15.1316 69.1828 14.8962 68.9996 14.7087 68.7722C14.5213 68.5448 14.3864 68.2788 14.3137 67.9931C14.2411 67.7076 14.2324 67.4096 14.2883 67.1204L28.6388 66.3649ZM60.5833 47.5954L60.699 47H60.0925H50C46.1411 47 43 43.8589 43 40V17.5C43 13.6411 46.1411 10.5 50 10.5H72.5C76.3589 10.5 79.5 13.6411 79.5 17.5V41.5925C79.5 44.0311 79.169 46.4625 78.5166 48.8155C78.4921 48.8988 78.4633 48.9812 78.4299 49.0652C78.4294 49.0665 78.4288 49.0679 78.4283 49.0693L71.1518 66.3232L71.1429 66.3442L71.136 66.366C70.5468 68.2191 68.8065 69.5 66.85 69.5L58.75 69.5L58.7486 69.5C58.4537 69.5009 58.1624 69.4363 57.8955 69.3109C57.6287 69.1855 57.393 69.0024 57.2054 68.7749C57.0179 68.5474 56.8831 68.2811 56.811 67.9953C56.7388 67.7094 56.731 67.4111 56.788 67.1218L56.7883 67.1204L60.5833 47.5954Z" stroke="#535353"/>
</svg>
