<svg width="70" height="70" viewBox="0 0 70 70" fill="none" xmlns="http://www.w3.org/2000/svg">
<rect width="70" height="70" rx="35" fill="#FCBF4A"/>
<path d="M26.5278 38.0954L26.6435 37.5H26.037H22C20.6221 37.5 19.5 36.3779 19.5 35V26C19.5 24.6221 20.6221 23.5 22 23.5H31C32.3779 23.5 33.5 24.6221 33.5 26V35.637C33.5 36.5849 33.3716 37.529 33.1187 38.4428C33.1115 38.4663 33.104 38.4872 33.0958 38.5064L33.0952 38.5078L30.1852 45.4128L30.1766 45.4333L30.1698 45.4544C29.9717 46.073 29.391 46.5 28.74 46.5H25.5004C25.4267 46.4999 25.354 46.4836 25.2873 46.4522L25.0739 46.9043L25.2873 46.4521C25.2207 46.4207 25.1618 46.3749 25.115 46.3181L24.7292 46.6361L25.115 46.318C25.0681 46.2612 25.0344 46.1947 25.0162 46.1233C24.9981 46.0519 24.9959 45.9775 25.0099 45.9052C25.0099 45.9051 25.0099 45.9051 25.0099 45.905L26.5278 38.0954ZM43.5278 38.0954L43.6435 37.5H43.037H39C37.6221 37.5 36.5 36.3779 36.5 35V26C36.5 24.6221 37.6221 23.5 39 23.5H48C49.3779 23.5 50.5 24.6221 50.5 26V35.637C50.5 36.5845 50.3715 37.5292 50.1182 38.4436C50.1116 38.4658 50.1038 38.4884 50.0943 38.5124L47.1843 45.4127L47.1754 45.4337L47.1685 45.4555C46.9723 46.0726 46.3915 46.5 45.74 46.5L42.5 46.5L42.4986 46.5C42.425 46.5002 42.3523 46.4841 42.2858 46.4528C42.2192 46.4216 42.1604 46.3759 42.1136 46.3191C42.0669 46.2624 42.0333 46.196 42.0153 46.1247C41.9973 46.0534 41.9953 45.9789 42.0095 45.9068L42.0098 45.9054L43.5278 38.0954Z" stroke="#1E1E1E"/>
</svg>
