<svg width="32" height="32" viewBox="0 0 32 32" fill="none" xmlns="http://www.w3.org/2000/svg">
<path d="M7.52781 19.0954L7.64354 18.5H7.037H3C1.62214 18.5 0.5 17.3779 0.5 16V7C0.5 5.62214 1.62214 4.5 3 4.5H12C13.3779 4.5 14.5 5.62214 14.5 7V16.637C14.5 17.5849 14.3716 18.529 14.1187 19.4428C14.1115 19.4663 14.104 19.4872 14.0958 19.5064L14.0952 19.5078L11.1852 26.4128L11.1766 26.4333L11.1698 26.4544C10.9717 27.073 10.391 27.5 9.74 27.5H6.50039C6.42671 27.4999 6.35395 27.4836 6.28733 27.4522L6.07387 27.9043L6.28733 27.4521C6.2207 27.4207 6.16185 27.3749 6.11498 27.3181L5.72917 27.6361L6.11498 27.318C6.06811 27.2612 6.03439 27.1947 6.01622 27.1233C5.99807 27.0519 5.9959 26.9775 6.00985 26.9052C6.00986 26.9051 6.00988 26.9051 6.00989 26.905L7.52781 19.0954ZM24.5278 19.0954L24.6435 18.5H24.037H20C18.6221 18.5 17.5 17.3779 17.5 16V7C17.5 5.62214 18.6221 4.5 20 4.5H29C30.3779 4.5 31.5 5.62214 31.5 7V16.637C31.5 17.5845 31.3715 18.5292 31.1182 19.4436C31.1116 19.4658 31.1038 19.4884 31.0943 19.5124L28.1843 26.4127L28.1754 26.4337L28.1685 26.4555C27.9723 27.0726 27.3915 27.5 26.74 27.5L23.5 27.5L23.4986 27.5C23.425 27.5002 23.3523 27.4841 23.2858 27.4528C23.2192 27.4216 23.1604 27.3759 23.1136 27.3191C23.0669 27.2624 23.0333 27.196 23.0153 27.1247C22.9973 27.0534 22.9953 26.9789 23.0095 26.9068L23.0098 26.9054L24.5278 19.0954Z" stroke="#D62829"/>
</svg>
