<svg width="65" height="65" viewBox="0 0 65 65" fill="none" xmlns="http://www.w3.org/2000/svg">
<path d="M19.9763 60.3607H4.76634C4.65141 60.3607 4.54119 60.315 4.45993 60.2337C4.37866 60.1525 4.33301 60.0423 4.33301 59.9273V13.4072C4.33347 13.0878 4.46058 12.7815 4.68648 12.5556C4.91238 12.3297 5.21864 12.2026 5.53811 12.2021H19.2059C19.5251 12.203 19.831 12.3302 20.0567 12.5561C20.2823 12.7819 20.4092 13.088 20.4097 13.4072V59.9273C20.4097 60.0423 20.364 60.1525 20.2828 60.2337C20.2015 60.315 20.0913 60.3607 19.9763 60.3607ZM5.19967 59.494H19.543V13.4072C19.5429 13.3175 19.5072 13.2315 19.4438 13.1681C19.3803 13.1046 19.2943 13.0689 19.2046 13.0688H5.53811C5.44842 13.069 5.36247 13.1048 5.29905 13.1682C5.23563 13.2316 5.1999 13.3176 5.19967 13.4072V59.494Z" fill="#1E1E1E"/>
<path d="M60.233 60.3607H19.9763C19.8614 60.3607 19.7512 60.315 19.6699 60.2338C19.5886 60.1525 19.543 60.0423 19.543 59.9274C19.543 59.8124 19.5886 59.7022 19.6699 59.6209C19.7512 59.5397 19.8614 59.494 19.9763 59.494H59.7996V17.1773L47.0822 29.5035C47.0211 29.5633 46.9438 29.6037 46.8598 29.6197C46.7758 29.6357 46.689 29.6264 46.6102 29.5932C46.5315 29.5599 46.4643 29.5041 46.4172 29.4328C46.3701 29.3615 46.3452 29.2778 46.3455 29.1923V17.1717L33.5232 29.5043C33.4619 29.5632 33.3847 29.6028 33.3012 29.6181C33.2177 29.6335 33.1314 29.6239 33.0533 29.5907C32.9751 29.5574 32.9084 29.502 32.8615 29.4311C32.8147 29.3603 32.7896 29.2773 32.7895 29.1923V17.189L20.2818 29.5013C20.1989 29.5764 20.0901 29.6165 19.9782 29.6132C19.8664 29.6099 19.7601 29.5635 19.6817 29.4836C19.6033 29.4038 19.5589 29.2967 19.5577 29.1848C19.5564 29.0729 19.5985 28.9649 19.6751 28.8834L32.9208 15.8448C32.9817 15.7851 33.0589 15.7447 33.1427 15.7286C33.2265 15.7126 33.3131 15.7217 33.3918 15.7546C33.4704 15.7876 33.5376 15.8431 33.5849 15.9141C33.6321 15.9851 33.6574 16.0685 33.6575 16.1538V28.1744L46.4794 15.8418C46.5406 15.7827 46.6178 15.7431 46.7015 15.7276C46.7851 15.7122 46.8714 15.7217 46.9496 15.7549C47.0279 15.7882 47.0946 15.8437 47.1415 15.9147C47.1885 15.9856 47.2135 16.0687 47.2135 16.1538V28.1688L59.9296 15.8426C59.9907 15.7828 60.0681 15.7423 60.152 15.7264C60.236 15.7104 60.3228 15.7196 60.4016 15.7529C60.4803 15.7862 60.5475 15.842 60.5946 15.9133C60.6417 15.9846 60.6666 16.0683 60.6663 16.1538V59.9274C60.6663 60.0423 60.6207 60.1525 60.5394 60.2338C60.4581 60.315 60.3479 60.3607 60.233 60.3607Z" fill="#1E1E1E"/>
<path d="M60.233 52.2226H19.9763C19.8614 52.2226 19.7512 52.177 19.6699 52.0957C19.5886 52.0144 19.543 51.9042 19.543 51.7893C19.543 51.6744 19.5886 51.5641 19.6699 51.4829C19.7512 51.4016 19.8614 51.356 19.9763 51.356H60.233C60.3479 51.356 60.4581 51.4016 60.5394 51.4829C60.6207 51.5641 60.6663 51.6744 60.6663 51.7893C60.6663 51.9042 60.6207 52.0144 60.5394 52.0957C60.4581 52.177 60.3479 52.2226 60.233 52.2226Z" fill="#1E1E1E"/>
<path d="M30.716 46.5463H22.9831C22.8682 46.5463 22.758 46.5007 22.6767 46.4194C22.5955 46.3381 22.5498 46.2279 22.5498 46.113V38.0417C22.5498 37.9268 22.5955 37.8166 22.6767 37.7353C22.758 37.6541 22.8682 37.6084 22.9831 37.6084H30.716C30.8309 37.6084 30.9411 37.6541 31.0224 37.7353C31.1037 37.8166 31.1493 37.9268 31.1493 38.0417V46.113C31.1493 46.2279 31.1037 46.3381 31.0224 46.4194C30.9411 46.5007 30.8309 46.5463 30.716 46.5463ZM23.4165 45.6797H30.2826V38.4751H23.4165V45.6797Z" fill="#1E1E1E"/>
<path d="M43.9718 46.5463H36.239C36.1241 46.5463 36.0138 46.5007 35.9326 46.4194C35.8513 46.3381 35.8057 46.2279 35.8057 46.113V38.0417C35.8057 37.9268 35.8513 37.8166 35.9326 37.7353C36.0138 37.6541 36.1241 37.6084 36.239 37.6084H43.9718C44.0868 37.6084 44.197 37.6541 44.2782 37.7353C44.3595 37.8166 44.4052 37.9268 44.4052 38.0417V46.113C44.4052 46.2279 44.3595 46.3381 44.2782 46.4194C44.197 46.5007 44.0868 46.5463 43.9718 46.5463ZM36.6723 45.6797H43.5385V38.4751H36.6723V45.6797Z" fill="#1E1E1E"/>
<path d="M57.2277 46.5463H49.4949C49.3799 46.5463 49.2697 46.5007 49.1884 46.4194C49.1072 46.3381 49.0615 46.2279 49.0615 46.113V38.0417C49.0615 37.9268 49.1072 37.8166 49.1884 37.7353C49.2697 37.6541 49.3799 37.6084 49.4949 37.6084H57.2277C57.3426 37.6084 57.4528 37.6541 57.5341 37.7353C57.6154 37.8166 57.661 37.9268 57.661 38.0417V46.113C57.661 46.2279 57.6154 46.3381 57.5341 46.4194C57.4528 46.5007 57.3426 46.5463 57.2277 46.5463ZM49.9282 45.6797H56.7944V38.4751H49.9282V45.6797Z" fill="#1E1E1E"/>
<path d="M19.9763 17.415H4.76634C4.65141 17.415 4.54119 17.3694 4.45993 17.2881C4.37866 17.2068 4.33301 17.0966 4.33301 16.9817C4.33301 16.8667 4.37866 16.7565 4.45993 16.6753C4.54119 16.594 4.65141 16.5483 4.76634 16.5483H19.9763C20.0913 16.5483 20.2015 16.594 20.2828 16.6753C20.364 16.7565 20.4097 16.8667 20.4097 16.9817C20.4097 17.0966 20.364 17.2068 20.2828 17.2881C20.2015 17.3694 20.0913 17.415 19.9763 17.415Z" fill="#1E1E1E"/>
<path d="M19.9763 21.5283H4.76634C4.65141 21.5283 4.54119 21.4826 4.45993 21.4014C4.37866 21.3201 4.33301 21.2099 4.33301 21.095C4.33301 20.98 4.37866 20.8698 4.45993 20.7885C4.54119 20.7073 4.65141 20.6616 4.76634 20.6616H19.9763C20.0913 20.6616 20.2015 20.7073 20.2828 20.7885C20.364 20.8698 20.4097 20.98 20.4097 21.095C20.4097 21.2099 20.364 21.3201 20.2828 21.4014C20.2015 21.4826 20.0913 21.5283 19.9763 21.5283Z" fill="#1E1E1E"/>
<path d="M47.1559 33.7522C47.0702 33.7521 46.9864 33.7267 46.9152 33.6791C46.844 33.6315 46.7884 33.5638 46.7556 33.4846C46.7228 33.4055 46.7143 33.3184 46.731 33.2343C46.7477 33.1503 46.7889 33.0731 46.8495 33.0125L59.9271 19.9332C60.0088 19.8542 60.1183 19.8106 60.2319 19.8115C60.3455 19.8125 60.4542 19.8581 60.5346 19.9384C60.6149 20.0188 60.6605 20.1275 60.6615 20.2411C60.6624 20.3547 60.6188 20.4642 60.5398 20.5459L47.4623 33.6265C47.3808 33.7073 47.2706 33.7525 47.1559 33.7522Z" fill="#1E1E1E"/>
<path d="M33.6842 33.7712C33.5985 33.7712 33.5148 33.7458 33.4435 33.6982C33.3723 33.6506 33.3167 33.5829 33.284 33.5037C33.2512 33.4245 33.2426 33.3374 33.2593 33.2534C33.276 33.1693 33.3173 33.0921 33.3779 33.0315L46.4749 19.9332C46.5566 19.8542 46.6661 19.8106 46.7797 19.8115C46.8933 19.8125 47.002 19.8581 47.0824 19.9384C47.1627 20.0188 47.2083 20.1275 47.2093 20.2411C47.2103 20.3547 47.1666 20.4642 47.0877 20.5459L33.9906 33.6443C33.9093 33.7255 33.7991 33.7712 33.6842 33.7712Z" fill="#1E1E1E"/>
<path d="M20.3512 33.5489C20.2655 33.5489 20.1818 33.5235 20.1105 33.4758C20.0393 33.4282 19.9837 33.3606 19.9509 33.2814C19.9182 33.2022 19.9096 33.1151 19.9263 33.031C19.943 32.947 19.9843 32.8698 20.0448 32.8092L32.9192 19.9336C32.9592 19.8922 33.007 19.8592 33.0598 19.8365C33.1127 19.8137 33.1696 19.8018 33.2271 19.8013C33.2846 19.8008 33.3417 19.8117 33.395 19.8335C33.4482 19.8553 33.4966 19.8875 33.5373 19.9282C33.578 19.9689 33.6101 20.0173 33.6319 20.0705C33.6537 20.1238 33.6647 20.1808 33.6642 20.2384C33.6637 20.2959 33.6517 20.3528 33.629 20.4056C33.6063 20.4585 33.5733 20.5063 33.5319 20.5463L20.6576 33.4219C20.6174 33.4623 20.5697 33.4943 20.5171 33.5161C20.4645 33.5379 20.4081 33.549 20.3512 33.5489Z" fill="#1E1E1E"/>
<path d="M44.9237 14.5504C44.3448 14.5514 43.7663 14.5225 43.1904 14.4637C42.6704 14.4637 35.8488 14.4343 26.6609 11.5725C17.4395 8.69998 12.2824 11.5816 12.2309 11.6111C12.1356 11.6664 12.023 11.6833 11.9157 11.6585C11.8085 11.6337 11.7147 11.569 11.6534 11.4775C11.5921 11.3861 11.568 11.2747 11.5858 11.1661C11.6036 11.0575 11.6621 10.9597 11.7494 10.8926C12.1247 10.6049 21.0228 3.87265 28.6035 6.40158C35.7877 8.79618 41.0064 5.92492 41.0588 5.89632C41.217 5.80965 44.8652 3.84188 47.9752 4.99845C49.5001 5.56482 50.6186 6.77772 51.3011 8.60335C51.9121 10.2383 51.8211 11.5799 51.0302 12.59C49.7272 14.2566 46.8187 14.5504 44.9237 14.5504ZM43.2107 13.5971C43.2274 13.5971 43.244 13.5979 43.2606 13.5997C43.3143 13.6062 48.6746 14.1942 50.3473 12.0553C50.9388 11.2991 50.9865 10.2396 50.4886 8.90712C49.8984 7.32762 48.9511 6.28588 47.6719 5.81095C44.9293 4.79045 41.5125 6.63428 41.4787 6.65378C41.2577 6.77815 35.874 9.73912 28.3279 7.22405C23.6821 5.67662 18.33 7.95378 15.1303 9.75558C17.6774 9.25985 21.6476 9.10558 26.917 10.7475C36.2891 13.6668 43.1336 13.5975 43.2047 13.5992L43.2107 13.5971Z" fill="#1E1E1E"/>
<path d="M19.9763 60.3607H4.76634C4.65141 60.3607 4.54119 60.315 4.45993 60.2337C4.37866 60.1525 4.33301 60.0423 4.33301 59.9273V13.4072C4.33347 13.0878 4.46058 12.7815 4.68648 12.5556C4.91238 12.3297 5.21864 12.2026 5.53811 12.2021H19.2059C19.5251 12.203 19.831 12.3302 20.0567 12.5561C20.2823 12.7819 20.4092 13.088 20.4097 13.4072V59.9273C20.4097 60.0423 20.364 60.1525 20.2828 60.2337C20.2015 60.315 20.0913 60.3607 19.9763 60.3607ZM5.19967 59.494H19.543V13.4072C19.5429 13.3175 19.5072 13.2315 19.4438 13.1681C19.3803 13.1046 19.2943 13.0689 19.2046 13.0688H5.53811C5.44842 13.069 5.36247 13.1048 5.29905 13.1682C5.23563 13.2316 5.1999 13.3176 5.19967 13.4072V59.494Z" fill="#1E1E1E"/>
<path d="M60.233 60.3607H19.9763C19.8614 60.3607 19.7512 60.315 19.6699 60.2338C19.5886 60.1525 19.543 60.0423 19.543 59.9274C19.543 59.8124 19.5886 59.7022 19.6699 59.6209C19.7512 59.5397 19.8614 59.494 19.9763 59.494H59.7996V17.1773L47.0822 29.5035C47.0211 29.5633 46.9438 29.6037 46.8598 29.6197C46.7758 29.6357 46.689 29.6264 46.6102 29.5932C46.5315 29.5599 46.4643 29.5041 46.4172 29.4328C46.3701 29.3615 46.3452 29.2778 46.3455 29.1923V17.1717L33.5232 29.5043C33.4619 29.5632 33.3847 29.6028 33.3012 29.6181C33.2177 29.6335 33.1314 29.6239 33.0533 29.5907C32.9751 29.5574 32.9084 29.502 32.8615 29.4311C32.8147 29.3603 32.7896 29.2773 32.7895 29.1923V17.189L20.2818 29.5013C20.1989 29.5764 20.0901 29.6165 19.9782 29.6132C19.8664 29.6099 19.7601 29.5635 19.6817 29.4836C19.6033 29.4038 19.5589 29.2967 19.5577 29.1848C19.5564 29.0729 19.5985 28.9649 19.6751 28.8834L32.9208 15.8448C32.9817 15.7851 33.0589 15.7447 33.1427 15.7286C33.2265 15.7126 33.3131 15.7217 33.3918 15.7546C33.4704 15.7876 33.5376 15.8431 33.5849 15.9141C33.6321 15.9851 33.6574 16.0685 33.6575 16.1538V28.1744L46.4794 15.8418C46.5406 15.7827 46.6178 15.7431 46.7015 15.7276C46.7851 15.7122 46.8714 15.7217 46.9496 15.7549C47.0279 15.7882 47.0946 15.8437 47.1415 15.9147C47.1885 15.9856 47.2135 16.0687 47.2135 16.1538V28.1688L59.9296 15.8426C59.9907 15.7828 60.0681 15.7423 60.152 15.7264C60.236 15.7104 60.3228 15.7196 60.4016 15.7529C60.4803 15.7862 60.5475 15.842 60.5946 15.9133C60.6417 15.9846 60.6666 16.0683 60.6663 16.1538V59.9274C60.6663 60.0423 60.6207 60.1525 60.5394 60.2338C60.4581 60.315 60.3479 60.3607 60.233 60.3607Z" fill="#1E1E1E"/>
<path d="M60.233 52.2226H19.9763C19.8614 52.2226 19.7512 52.177 19.6699 52.0957C19.5886 52.0144 19.543 51.9042 19.543 51.7893C19.543 51.6744 19.5886 51.5641 19.6699 51.4829C19.7512 51.4016 19.8614 51.356 19.9763 51.356H60.233C60.3479 51.356 60.4581 51.4016 60.5394 51.4829C60.6207 51.5641 60.6663 51.6744 60.6663 51.7893C60.6663 51.9042 60.6207 52.0144 60.5394 52.0957C60.4581 52.177 60.3479 52.2226 60.233 52.2226Z" fill="#1E1E1E"/>
<path d="M30.716 46.5463H22.9831C22.8682 46.5463 22.758 46.5007 22.6767 46.4194C22.5955 46.3381 22.5498 46.2279 22.5498 46.113V38.0417C22.5498 37.9268 22.5955 37.8166 22.6767 37.7353C22.758 37.6541 22.8682 37.6084 22.9831 37.6084H30.716C30.8309 37.6084 30.9411 37.6541 31.0224 37.7353C31.1037 37.8166 31.1493 37.9268 31.1493 38.0417V46.113C31.1493 46.2279 31.1037 46.3381 31.0224 46.4194C30.9411 46.5007 30.8309 46.5463 30.716 46.5463ZM23.4165 45.6797H30.2826V38.4751H23.4165V45.6797Z" fill="#1E1E1E"/>
<path d="M43.9718 46.5463H36.239C36.1241 46.5463 36.0138 46.5007 35.9326 46.4194C35.8513 46.3381 35.8057 46.2279 35.8057 46.113V38.0417C35.8057 37.9268 35.8513 37.8166 35.9326 37.7353C36.0138 37.6541 36.1241 37.6084 36.239 37.6084H43.9718C44.0868 37.6084 44.197 37.6541 44.2782 37.7353C44.3595 37.8166 44.4052 37.9268 44.4052 38.0417V46.113C44.4052 46.2279 44.3595 46.3381 44.2782 46.4194C44.197 46.5007 44.0868 46.5463 43.9718 46.5463ZM36.6723 45.6797H43.5385V38.4751H36.6723V45.6797Z" fill="#1E1E1E"/>
<path d="M57.2277 46.5463H49.4949C49.3799 46.5463 49.2697 46.5007 49.1884 46.4194C49.1072 46.3381 49.0615 46.2279 49.0615 46.113V38.0417C49.0615 37.9268 49.1072 37.8166 49.1884 37.7353C49.2697 37.6541 49.3799 37.6084 49.4949 37.6084H57.2277C57.3426 37.6084 57.4528 37.6541 57.5341 37.7353C57.6154 37.8166 57.661 37.9268 57.661 38.0417V46.113C57.661 46.2279 57.6154 46.3381 57.5341 46.4194C57.4528 46.5007 57.3426 46.5463 57.2277 46.5463ZM49.9282 45.6797H56.7944V38.4751H49.9282V45.6797Z" fill="#1E1E1E"/>
<path d="M19.9763 17.415H4.76634C4.65141 17.415 4.54119 17.3694 4.45993 17.2881C4.37866 17.2068 4.33301 17.0966 4.33301 16.9817C4.33301 16.8667 4.37866 16.7565 4.45993 16.6753C4.54119 16.594 4.65141 16.5483 4.76634 16.5483H19.9763C20.0913 16.5483 20.2015 16.594 20.2828 16.6753C20.364 16.7565 20.4097 16.8667 20.4097 16.9817C20.4097 17.0966 20.364 17.2068 20.2828 17.2881C20.2015 17.3694 20.0913 17.415 19.9763 17.415Z" fill="#1E1E1E"/>
<path d="M19.9763 21.5283H4.76634C4.65141 21.5283 4.54119 21.4826 4.45993 21.4014C4.37866 21.3201 4.33301 21.2099 4.33301 21.095C4.33301 20.98 4.37866 20.8698 4.45993 20.7885C4.54119 20.7073 4.65141 20.6616 4.76634 20.6616H19.9763C20.0913 20.6616 20.2015 20.7073 20.2828 20.7885C20.364 20.8698 20.4097 20.98 20.4097 21.095C20.4097 21.2099 20.364 21.3201 20.2828 21.4014C20.2015 21.4826 20.0913 21.5283 19.9763 21.5283Z" fill="#1E1E1E"/>
<path d="M47.1559 33.7522C47.0702 33.7521 46.9864 33.7267 46.9152 33.6791C46.844 33.6315 46.7884 33.5638 46.7556 33.4846C46.7228 33.4055 46.7143 33.3184 46.731 33.2343C46.7477 33.1503 46.7889 33.0731 46.8495 33.0125L59.9271 19.9332C60.0088 19.8542 60.1183 19.8106 60.2319 19.8115C60.3455 19.8125 60.4542 19.8581 60.5346 19.9384C60.6149 20.0188 60.6605 20.1275 60.6615 20.2411C60.6624 20.3547 60.6188 20.4642 60.5398 20.5459L47.4623 33.6265C47.3808 33.7073 47.2706 33.7525 47.1559 33.7522Z" fill="#1E1E1E"/>
<path d="M33.6842 33.7712C33.5985 33.7712 33.5148 33.7458 33.4435 33.6982C33.3723 33.6506 33.3167 33.5829 33.284 33.5037C33.2512 33.4245 33.2426 33.3374 33.2593 33.2534C33.276 33.1693 33.3173 33.0921 33.3779 33.0315L46.4749 19.9332C46.5566 19.8542 46.6661 19.8106 46.7797 19.8115C46.8933 19.8125 47.002 19.8581 47.0824 19.9384C47.1627 20.0188 47.2083 20.1275 47.2093 20.2411C47.2103 20.3547 47.1666 20.4642 47.0877 20.5459L33.9906 33.6443C33.9093 33.7255 33.7991 33.7712 33.6842 33.7712Z" fill="#1E1E1E"/>
<path d="M20.3512 33.5489C20.2655 33.5489 20.1818 33.5235 20.1105 33.4758C20.0393 33.4282 19.9837 33.3606 19.9509 33.2814C19.9182 33.2022 19.9096 33.1151 19.9263 33.031C19.943 32.947 19.9843 32.8698 20.0448 32.8092L32.9192 19.9336C32.9592 19.8922 33.007 19.8592 33.0598 19.8365C33.1127 19.8137 33.1696 19.8018 33.2271 19.8013C33.2846 19.8008 33.3417 19.8117 33.395 19.8335C33.4482 19.8553 33.4966 19.8875 33.5373 19.9282C33.578 19.9689 33.6101 20.0173 33.6319 20.0705C33.6537 20.1238 33.6647 20.1808 33.6642 20.2384C33.6637 20.2959 33.6517 20.3528 33.629 20.4056C33.6063 20.4585 33.5733 20.5063 33.5319 20.5463L20.6576 33.4219C20.6174 33.4623 20.5697 33.4943 20.5171 33.5161C20.4645 33.5379 20.4081 33.549 20.3512 33.5489Z" fill="#1E1E1E"/>
<path d="M44.9237 14.5504C44.3448 14.5514 43.7663 14.5225 43.1904 14.4637C42.6704 14.4637 35.8488 14.4343 26.6609 11.5725C17.4395 8.69998 12.2824 11.5816 12.2309 11.6111C12.1356 11.6664 12.023 11.6833 11.9157 11.6585C11.8085 11.6337 11.7147 11.569 11.6534 11.4775C11.5921 11.3861 11.568 11.2747 11.5858 11.1661C11.6036 11.0575 11.6621 10.9597 11.7494 10.8926C12.1247 10.6049 21.0228 3.87265 28.6035 6.40158C35.7877 8.79618 41.0064 5.92492 41.0588 5.89632C41.217 5.80965 44.8652 3.84188 47.9752 4.99845C49.5001 5.56482 50.6186 6.77772 51.3011 8.60335C51.9121 10.2383 51.8211 11.5799 51.0302 12.59C49.7272 14.2566 46.8187 14.5504 44.9237 14.5504ZM43.2107 13.5971C43.2274 13.5971 43.244 13.5979 43.2606 13.5997C43.3143 13.6062 48.6746 14.1942 50.3473 12.0553C50.9388 11.2991 50.9865 10.2396 50.4886 8.90712C49.8984 7.32762 48.9511 6.28588 47.6719 5.81095C44.9293 4.79045 41.5125 6.63428 41.4787 6.65378C41.2577 6.77815 35.874 9.73912 28.3279 7.22405C23.6821 5.67662 18.33 7.95378 15.1303 9.75558C17.6774 9.25985 21.6476 9.10558 26.917 10.7475C36.2891 13.6668 43.1336 13.5975 43.2047 13.5992L43.2107 13.5971Z" fill="#1E1E1E"/>
</svg>
