<svg width="36" height="36" viewBox="0 0 36 36" fill="none" xmlns="http://www.w3.org/2000/svg">
<path d="M20.8183 23.5117H13.1496C12.9205 23.5034 12.704 23.4048 12.5474 23.2373C12.3908 23.0698 12.307 22.8471 12.3142 22.6179V20.2866C12.3068 20.0573 12.3905 19.8344 12.5471 19.6668C12.7037 19.4991 12.9203 19.4004 13.1496 19.3921H20.6453C20.8744 19.4005 21.0909 19.4994 21.2473 19.667C21.4037 19.8346 21.4874 20.0574 21.48 20.2866V22.8066C21.4854 22.9877 21.4188 23.1637 21.2948 23.2958C21.1708 23.428 20.9995 23.5056 20.8183 23.5117ZM13.1496 19.8721C13.0479 19.8806 12.9536 19.9287 12.8871 20.0061C12.8206 20.0835 12.7872 20.184 12.7942 20.2858V22.6172C12.7872 22.719 12.8206 22.8195 12.8871 22.8969C12.9536 22.9744 13.0479 23.0225 13.1496 23.031H20.8183C20.8719 23.0249 20.921 22.998 20.9551 22.9562C20.9892 22.9143 21.0056 22.8608 21.0007 22.807V20.287C21.0081 20.185 20.9749 20.0842 20.9083 20.0065C20.8418 19.9288 20.7472 19.8805 20.6453 19.8721H13.1496Z" fill="#002F49"/>
<path d="M29.5054 23.5117H21.6638C21.4826 23.506 21.311 23.4288 21.1867 23.2968C21.0623 23.1649 20.9954 22.989 21.0005 22.8078V20.2878C20.9928 20.0582 21.0765 19.8349 21.2333 19.6669C21.39 19.499 21.6071 19.4002 21.8366 19.3921H29.3326C29.5617 19.4004 29.7782 19.499 29.9347 19.6665C30.0912 19.834 30.175 20.0567 30.1678 20.2858V22.8058C30.1734 22.9873 30.1068 23.1635 29.9826 23.2958C29.8584 23.4282 29.6868 23.5058 29.5054 23.5117ZM21.8366 19.8721C21.7347 19.8804 21.6401 19.9285 21.5734 20.0061C21.5067 20.0837 21.4733 20.1845 21.4805 20.2866V22.8066C21.4756 22.8604 21.492 22.9139 21.5262 22.9558C21.5603 22.9976 21.6095 23.0244 21.6631 23.0305H29.5046C29.5583 23.0244 29.6074 22.9975 29.6415 22.9557C29.6755 22.9138 29.6919 22.8603 29.687 22.8066V20.2866C29.6941 20.1848 29.6608 20.0843 29.5943 20.0069C29.5278 19.9294 29.4335 19.8813 29.3318 19.8728L21.8366 19.8721Z" fill="#002F49"/>
<path d="M32.7206 23.5117H30.3926C30.1993 23.5053 30.0164 23.4226 29.884 23.2817C29.7516 23.1408 29.6804 22.9531 29.686 22.7598V20.3358C29.6783 20.0945 29.7665 19.8599 29.9313 19.6834C30.0961 19.5069 30.3241 19.4029 30.5654 19.394H32.7196C32.9609 19.4024 33.1891 19.5061 33.3541 19.6824C33.5191 19.8587 33.6074 20.0933 33.5997 20.3346V22.57C33.6077 22.8114 33.5197 23.0461 33.3549 23.2226C33.1901 23.3992 32.9619 23.5031 32.7206 23.5117ZM30.5663 19.8721C30.4524 19.8811 30.3466 19.9346 30.2719 20.021C30.1971 20.1075 30.1594 20.2199 30.167 20.3339V22.7579C30.1615 22.8239 30.1823 22.8893 30.2246 22.9402C30.267 22.991 30.3277 23.0232 30.3935 23.0298H32.7215C32.8349 23.0205 32.9401 22.9672 33.0145 22.8812C33.089 22.7952 33.1267 22.6835 33.1197 22.57V20.3346C33.1272 20.2206 33.0896 20.1082 33.0149 20.0218C32.9402 19.9354 32.8345 19.8819 32.7206 19.8728L30.5663 19.8721Z" fill="#002F49"/>
<path d="M20.645 30.789H13.1493C12.9202 30.7808 12.7037 30.6821 12.5471 30.5146C12.3906 30.3471 12.3067 30.1244 12.3139 29.8953V27.5639C12.3067 27.3348 12.3906 27.1121 12.5471 26.9446C12.7037 26.7771 12.9202 26.6784 13.1493 26.6702H20.8181C20.9991 26.6761 21.1705 26.7534 21.2946 26.8854C21.4187 27.0173 21.4856 27.193 21.4805 27.3741V29.8941C21.488 30.1234 21.4043 30.3464 21.2477 30.5142C21.0911 30.6819 20.8744 30.7808 20.645 30.789ZM13.1493 27.1502C13.0476 27.1586 12.9533 27.2067 12.8867 27.2841C12.8202 27.3616 12.7869 27.4621 12.7939 27.5639V29.8953C12.7869 29.9971 12.8202 30.0976 12.8867 30.1751C12.9533 30.2525 13.0476 30.3006 13.1493 30.309H20.645C20.7468 30.3006 20.8411 30.2525 20.9076 30.1751C20.9741 30.0976 21.0075 29.9971 21.0005 29.8953V27.3753C21.0053 27.3215 20.989 27.268 20.9549 27.2262C20.9208 27.1843 20.8717 27.1575 20.8181 27.1514L13.1493 27.1502Z" fill="#002F49"/>
<path d="M29.3318 30.7891H21.8359C21.6067 30.7808 21.3902 30.6821 21.2337 30.5146C21.0771 30.3471 20.9932 30.1245 21.0004 29.8953V27.3753C20.9953 27.1942 21.0622 27.0184 21.1864 26.8865C21.3106 26.7546 21.482 26.6772 21.6631 26.6714H29.5046C29.6856 26.6773 29.857 26.7547 29.9811 26.8866C30.1053 27.0185 30.1721 27.1942 30.167 27.3753V29.8953C30.1742 30.1244 30.0904 30.3471 29.9339 30.5146C29.7774 30.6821 29.5609 30.7808 29.3318 30.7891ZM21.6631 27.1502C21.6094 27.1562 21.5602 27.1831 21.5261 27.2249C21.492 27.2668 21.4756 27.3203 21.4804 27.3741V29.8941C21.4734 29.996 21.5067 30.0965 21.5733 30.1739C21.6398 30.2513 21.7341 30.2995 21.8359 30.3079H29.3318C29.4335 30.2994 29.5278 30.2513 29.5942 30.1738C29.6607 30.0964 29.694 29.9959 29.687 29.8941V27.3741C29.6918 27.3204 29.6755 27.2668 29.6414 27.225C29.6073 27.1831 29.5582 27.1563 29.5046 27.1502H21.6631Z" fill="#002F49"/>
<path d="M32.7206 30.789H30.5664C30.325 30.7802 30.0971 30.6762 29.9323 30.4997C29.7675 30.3232 29.6793 30.0886 29.687 29.8473V27.4221C29.6814 27.2288 29.7526 27.0412 29.885 26.9003C30.0175 26.7594 30.2003 26.6766 30.3936 26.6702H32.7216C32.9628 26.679 33.1906 26.7831 33.3552 26.9596C33.5198 27.1361 33.6077 27.3707 33.5997 27.6119V29.8473C33.6077 30.0887 33.5197 30.3234 33.3549 30.5C33.1901 30.6765 32.962 30.7805 32.7206 30.789ZM30.3926 27.1502C30.3267 27.1567 30.2661 27.1889 30.2237 27.2398C30.1813 27.2906 30.1606 27.3561 30.166 27.4221V29.8473C30.1585 29.9613 30.1962 30.0737 30.2709 30.1601C30.3457 30.2466 30.4515 30.3001 30.5654 30.309H32.7196C32.8337 30.3003 32.9397 30.2468 33.0146 30.1604C33.0895 30.0739 33.1273 29.9614 33.1197 29.8473V27.6119C33.1273 27.4979 33.0896 27.3856 33.0149 27.2991C32.9402 27.2127 32.8345 27.1592 32.7206 27.1502H30.3926Z" fill="#002F49"/>
<path d="M32.765 27.1501H25.0963C24.9152 27.1443 24.7439 27.067 24.6197 26.9351C24.4956 26.8032 24.4288 26.6275 24.4339 26.4465V23.7359C24.4288 23.5549 24.4956 23.3792 24.6197 23.2473C24.7439 23.1154 24.9152 23.0381 25.0963 23.0322H32.765C32.994 23.0404 33.2104 23.1389 33.3669 23.3062C33.5235 23.4735 33.6074 23.696 33.6004 23.925V26.2559C33.6078 26.4852 33.524 26.708 33.3674 26.8756C33.2109 27.0432 32.9942 27.1419 32.765 27.1501ZM25.0963 23.5115C25.0427 23.5176 24.9936 23.5444 24.9595 23.5862C24.9254 23.628 24.909 23.6815 24.9139 23.7352V26.4472C24.909 26.5009 24.9254 26.5544 24.9595 26.5962C24.9936 26.638 25.0427 26.6648 25.0963 26.6709H32.765C32.8669 26.6625 32.9615 26.6142 33.028 26.5365C33.0946 26.4588 33.1278 26.3579 33.1204 26.2559V23.925C33.1274 23.8232 33.094 23.7228 33.0275 23.6454C32.961 23.568 32.8667 23.5199 32.765 23.5115H25.0963Z" fill="#002F49"/>
<path d="M24.2505 27.1501H16.409C16.2279 27.1443 16.0566 27.067 15.9324 26.9351C15.8082 26.8032 15.7413 26.6275 15.7464 26.4465V23.7359C15.7413 23.5548 15.8082 23.3791 15.9324 23.2473C16.0566 23.1154 16.2279 23.0381 16.409 23.0322H24.2505C24.4316 23.0381 24.6029 23.1154 24.7271 23.2473C24.8513 23.3791 24.9182 23.5548 24.9132 23.7359V26.4479C24.9178 26.6287 24.8508 26.8041 24.7266 26.9356C24.6025 27.0672 24.4313 27.1443 24.2505 27.1501ZM16.409 23.5115C16.3554 23.5175 16.3062 23.5443 16.2721 23.5861C16.2379 23.6279 16.2215 23.6814 16.2264 23.7352V26.4472C16.2215 26.5009 16.2379 26.5545 16.2721 26.5963C16.3062 26.6381 16.3554 26.6649 16.409 26.6709H24.2505C24.3042 26.6649 24.3533 26.6381 24.3875 26.5963C24.4216 26.5545 24.438 26.5009 24.4332 26.4472V23.7359C24.438 23.6821 24.4216 23.6286 24.3875 23.5868C24.3533 23.545 24.3042 23.5182 24.2505 23.5122L16.409 23.5115Z" fill="#002F49"/>
<path d="M15.5206 27.1501H13.1926C12.9512 27.1416 12.7231 27.0377 12.5582 26.8612C12.3933 26.6847 12.3052 26.45 12.3132 26.2086V23.973C12.3052 23.7316 12.3933 23.4969 12.5582 23.3204C12.7231 23.1439 12.9512 23.04 13.1926 23.0315H15.5206C15.7139 23.0379 15.8967 23.1208 16.0291 23.2618C16.1614 23.4028 16.2325 23.5906 16.2266 23.7839V26.3999C16.2319 26.5928 16.1606 26.78 16.0283 26.9206C15.896 27.0612 15.7135 27.1437 15.5206 27.1501ZM13.1926 23.5115C13.0787 23.5205 12.9729 23.5739 12.8982 23.6603C12.8234 23.7467 12.7857 23.859 12.7932 23.973V26.2079C12.7857 26.3219 12.8233 26.4343 12.8981 26.5207C12.9729 26.6071 13.0787 26.6605 13.1926 26.6694H15.5206C15.5863 26.6627 15.6468 26.6305 15.6891 26.5797C15.7313 26.5289 15.752 26.4636 15.7466 26.3977V23.7839C15.7521 23.718 15.7314 23.6526 15.6892 23.6017C15.6469 23.5509 15.5863 23.5187 15.5206 23.512L13.1926 23.5115Z" fill="#002F49"/>
<path d="M32.7646 19.8721H26.5063C26.2773 19.8638 26.0608 19.7652 25.9043 19.5977C25.7478 19.4303 25.6639 19.2076 25.6711 18.9786V16.4578C25.666 16.2768 25.7328 16.1011 25.857 15.9692C25.9811 15.8373 26.1525 15.76 26.3335 15.7542H32.7655C32.9945 15.7626 33.2107 15.8613 33.3671 16.0288C33.5235 16.1962 33.6072 16.4187 33.6 16.6477V18.9793C33.607 19.2083 33.523 19.4308 33.3665 19.5981C33.2099 19.7654 32.9935 19.8639 32.7646 19.8721ZM26.3326 16.2334C26.279 16.2395 26.2299 16.2663 26.1958 16.3081C26.1617 16.3499 26.1453 16.4034 26.1502 16.4571V18.9793C26.1431 19.0811 26.1765 19.1815 26.2429 19.2589C26.3094 19.3363 26.4037 19.3844 26.5054 19.3928H32.7636C32.8655 19.3846 32.96 19.3366 33.0267 19.2592C33.0934 19.1818 33.127 19.0812 33.12 18.9793V16.6477C33.127 16.5459 33.0936 16.4454 33.0271 16.368C32.9606 16.2906 32.8663 16.2426 32.7646 16.2342L26.3326 16.2334Z" fill="#002F49"/>
<path d="M32.7204 16.2341H30.3924C30.1992 16.2276 30.0163 16.1449 29.8839 16.004C29.7515 15.8631 29.6803 15.6755 29.6859 15.4822V12.8662C29.6803 12.6729 29.7515 12.4853 29.8839 12.3444C30.0163 12.2034 30.1992 12.1207 30.3924 12.1143H32.7204C32.9618 12.1228 33.1899 12.2268 33.3547 12.4034C33.5195 12.5799 33.6076 12.8146 33.5995 13.056V15.2914C33.6078 15.5329 33.5199 15.7679 33.3551 15.9447C33.1902 16.1214 32.962 16.2255 32.7204 16.2341ZM30.3924 12.5952C30.3265 12.6018 30.2659 12.634 30.2235 12.6848C30.1811 12.7357 30.1604 12.8012 30.1659 12.8671V15.4831C30.1605 15.5491 30.1812 15.6145 30.2236 15.6654C30.2659 15.7162 30.3266 15.7484 30.3924 15.7551H32.7204C32.8345 15.746 32.9404 15.6924 33.0151 15.6057C33.0898 15.5191 33.1273 15.4065 33.1195 15.2923V13.056C33.1271 12.942 33.0894 12.8297 33.0147 12.7432C32.94 12.6568 32.8343 12.6033 32.7204 12.5943L30.3924 12.5952Z" fill="#002F49"/>
<path d="M6.20828 13.4961C5.80798 13.4957 5.41679 13.3765 5.08419 13.1538C4.75159 12.931 4.49252 12.6146 4.33974 12.2446C4.18695 11.8746 4.14732 11.4676 4.22585 11.0751C4.30439 10.6826 4.49755 10.3222 4.78093 10.0394C5.06431 9.75669 5.42516 9.56433 5.81786 9.48668C6.21056 9.40904 6.61747 9.44958 6.98713 9.6032C7.35678 9.75682 7.67258 10.0166 7.89459 10.3497C8.1166 10.6828 8.23484 11.0743 8.23436 11.4746C8.23316 12.0111 8.01916 12.5253 7.63933 12.9043C7.2595 13.2832 6.74484 13.4961 6.20828 13.4961ZM6.20828 9.92824C5.90312 9.92867 5.60493 10.0195 5.35137 10.1893C5.09781 10.3591 4.90025 10.6003 4.78366 10.8823C4.66706 11.1643 4.63666 11.4745 4.69628 11.7738C4.7559 12.0731 4.90288 12.348 5.11864 12.5638C5.33441 12.7796 5.60929 12.9266 5.90856 12.9863C6.20784 13.0459 6.51808 13.0156 6.80011 12.899C7.08214 12.7825 7.32331 12.585 7.49315 12.3314C7.66299 12.0779 7.75389 11.7797 7.75436 11.4746C7.75398 11.0646 7.59098 10.6716 7.30112 10.3817C7.01126 10.0918 6.61823 9.92869 6.20828 9.92824Z" fill="#002F49"/>
<path d="M20.8399 11.9641C20.5686 11.9638 20.3034 11.883 20.078 11.732C19.8526 11.581 19.6771 11.3666 19.5735 11.1158C19.47 10.865 19.4432 10.5891 19.4964 10.3231C19.5496 10.0571 19.6806 9.81279 19.8726 9.62116C20.0647 9.42953 20.3093 9.29916 20.5754 9.24652C20.8416 9.19389 21.1174 9.22136 21.3679 9.32546C21.6185 9.42956 21.8325 9.60562 21.983 9.83137C22.1335 10.0571 22.2137 10.3224 22.2134 10.5937C22.2126 10.9575 22.0676 11.3061 21.8101 11.563C21.5526 11.8199 21.2036 11.9642 20.8399 11.9641ZM20.8399 9.70046C20.6636 9.70079 20.4914 9.75334 20.345 9.85148C20.1986 9.94961 20.0846 10.0889 20.0173 10.2518C19.95 10.4147 19.9325 10.5939 19.967 10.7668C20.0014 10.9396 20.0864 11.0984 20.211 11.223C20.3357 11.3476 20.4945 11.4325 20.6673 11.4669C20.8402 11.5014 21.0194 11.4838 21.1822 11.4165C21.3451 11.3492 21.4844 11.2351 21.5825 11.0887C21.6806 10.9422 21.7331 10.77 21.7334 10.5937C21.7331 10.3569 21.6388 10.1298 21.4713 9.96236C21.3038 9.7949 21.0767 9.70071 20.8399 9.70046Z" fill="#002F49"/>
<path d="M15.3715 9.32584C14.9358 9.32541 14.51 9.19578 14.1479 8.95334C13.7859 8.7109 13.5039 8.36654 13.3375 7.96381C13.1712 7.56108 13.1281 7.11807 13.2135 6.69081C13.299 6.26355 13.5092 5.87123 13.8177 5.56346C14.1261 5.25569 14.5189 5.0463 14.9463 4.96177C15.3738 4.87725 15.8167 4.92137 16.219 5.08858C16.6214 5.25578 16.9652 5.53855 17.2068 5.90113C17.4485 6.2637 17.5772 6.6898 17.5766 7.12552C17.5754 7.70952 17.3425 8.26917 16.9291 8.68168C16.5157 9.09418 15.9555 9.32584 15.3715 9.32584ZM15.3715 5.40016C15.0309 5.40059 14.6981 5.50194 14.4151 5.69142C14.1321 5.88089 13.9116 6.14999 13.7815 6.46472C13.6513 6.77944 13.6174 7.12568 13.6839 7.4597C13.7504 7.79371 13.9145 8.10051 14.1553 8.34135C14.3961 8.58219 14.7029 8.74626 15.0369 8.81284C15.3709 8.87942 15.7171 8.84551 16.0319 8.71541C16.3466 8.58531 16.6157 8.36484 16.8053 8.08187C16.9948 7.79889 17.0962 7.4661 17.0966 7.12552C17.096 6.66814 16.9141 6.22967 16.5907 5.90621C16.2673 5.58275 15.8289 5.40092 15.3715 5.40016Z" fill="#002F49"/>
<path d="M21.1397 9.746C21.0877 9.746 21.0372 9.72916 20.9957 9.698L17.1098 6.75704C17.0847 6.73799 17.0636 6.71417 17.0477 6.68696C17.0318 6.65974 17.0214 6.62966 17.0171 6.59843C17.0128 6.56719 17.0147 6.53542 17.0227 6.50492C17.0307 6.47442 17.0446 6.4458 17.0636 6.42068C17.0827 6.39556 17.1065 6.37444 17.1337 6.35852C17.1609 6.34261 17.191 6.33221 17.2223 6.32792C17.2535 6.32363 17.2853 6.32553 17.3158 6.33352C17.3463 6.34151 17.3749 6.35543 17.4 6.37448L21.2849 9.31472C21.3253 9.345 21.3551 9.38725 21.3701 9.43545C21.385 9.48364 21.3845 9.53534 21.3684 9.58318C21.3523 9.63103 21.3215 9.67259 21.2805 9.70195C21.2394 9.73131 21.1902 9.74697 21.1397 9.74672V9.746Z" fill="#002F49"/>
<path d="M19.7059 10.8337C19.6545 10.8336 19.6044 10.8167 19.5634 10.7857L16.6742 8.64204C16.623 8.60414 16.589 8.54744 16.5796 8.48443C16.5702 8.42142 16.5862 8.35725 16.6241 8.30604C16.662 8.25483 16.7187 8.22078 16.7817 8.21137C16.8447 8.20197 16.9089 8.21798 16.9601 8.25588L19.8492 10.4003C19.8895 10.4305 19.9193 10.4726 19.9343 10.5207C19.9493 10.5688 19.9488 10.6204 19.9329 10.6682C19.917 10.716 19.8864 10.7575 19.8455 10.787C19.8047 10.8164 19.7556 10.8323 19.7052 10.8323L19.7059 10.8337Z" fill="#002F49"/>
<path d="M6.65782 9.98816C6.60253 9.98835 6.54888 9.96945 6.50592 9.93465C6.46296 9.89984 6.43333 9.85128 6.42205 9.79716C6.41076 9.74304 6.4185 9.68668 6.44397 9.63761C6.46944 9.58854 6.51106 9.54976 6.56182 9.52784L13.3387 6.58448C13.3676 6.57187 13.3987 6.56508 13.4302 6.56449C13.4618 6.56391 13.4931 6.56954 13.5224 6.58106C13.5518 6.59258 13.5786 6.60977 13.6013 6.63165C13.624 6.65352 13.6422 6.67966 13.6548 6.70856C13.6674 6.73746 13.6742 6.76856 13.6748 6.80009C13.6753 6.83161 13.6697 6.86295 13.6582 6.8923C13.6467 6.92165 13.6295 6.94844 13.6076 6.97115C13.5857 6.99386 13.5596 7.01203 13.5307 7.02464L6.75334 9.968C6.72324 9.98127 6.69071 9.98814 6.65782 9.98816Z" fill="#002F49"/>
<path d="M7.97496 11.9643C7.92168 11.9644 7.86988 11.9467 7.82773 11.9141C7.78558 11.8815 7.75548 11.8358 7.74216 11.7843C7.72885 11.7327 7.73309 11.6781 7.75421 11.6292C7.77533 11.5803 7.81212 11.5398 7.8588 11.5141L13.8108 8.23926C13.8666 8.20854 13.9322 8.20124 13.9934 8.21895C14.0237 8.22772 14.0519 8.24237 14.0765 8.26205C14.1011 8.28174 14.1216 8.30609 14.1368 8.33369C14.152 8.3613 14.1617 8.39164 14.1652 8.42296C14.1686 8.45429 14.1659 8.486 14.1571 8.51627C14.1484 8.54655 14.1337 8.5748 14.114 8.59942C14.0944 8.62403 14.07 8.64453 14.0424 8.65973L8.0904 11.9345C8.05509 11.9542 8.01535 11.9644 7.97496 11.9643Z" fill="#002F49"/>
<path d="M20.8394 12.8898C20.7758 12.8898 20.7147 12.8645 20.6697 12.8195C20.6247 12.7745 20.5994 12.7135 20.5994 12.6498V11.7241C20.5994 11.6605 20.6247 11.5994 20.6697 11.5544C20.7147 11.5094 20.7758 11.4841 20.8394 11.4841C20.9031 11.4841 20.9641 11.5094 21.0091 11.5544C21.0542 11.5994 21.0794 11.6605 21.0794 11.7241V12.6498C21.0794 12.7135 21.0542 12.7745 21.0091 12.8195C20.9641 12.8645 20.9031 12.8898 20.8394 12.8898Z" fill="#002F49"/>
<path d="M18.3084 14.6854C18.2638 14.6854 18.2201 14.6729 18.1822 14.6495C18.1443 14.6261 18.1137 14.5926 18.0937 14.5527C18.0738 14.5128 18.0654 14.4682 18.0694 14.4238C18.0734 14.3794 18.0897 14.337 18.1164 14.3014L19.157 12.9182C19.2759 12.7608 19.4296 12.633 19.6061 12.5449C19.7826 12.4567 19.9771 12.4106 20.1744 12.4102H21.456C21.6533 12.4107 21.8479 12.4568 22.0245 12.5449C22.201 12.6331 22.3548 12.7608 22.4738 12.9182L23.514 14.3014C23.5329 14.3266 23.5467 14.3553 23.5545 14.3858C23.5623 14.4163 23.564 14.4481 23.5596 14.4793C23.5551 14.5105 23.5446 14.5405 23.5285 14.5676C23.5125 14.5948 23.4912 14.6184 23.466 14.6374C23.4408 14.6563 23.4121 14.67 23.3816 14.6778C23.351 14.6857 23.3193 14.6874 23.2881 14.6829C23.2569 14.6785 23.2268 14.6679 23.1997 14.6519C23.1726 14.6358 23.1489 14.6146 23.13 14.5894L22.0896 13.2062C22.0155 13.1083 21.9198 13.0287 21.8098 12.9739C21.6999 12.919 21.5788 12.8903 21.456 12.8899H20.1749C20.052 12.8902 19.9309 12.9189 19.821 12.9737C19.711 13.0286 19.6153 13.1082 19.5413 13.2062L18.5004 14.5896C18.478 14.6194 18.449 14.6435 18.4157 14.6601C18.3824 14.6767 18.3456 14.6854 18.3084 14.6854Z" fill="#002F49"/>
<path d="M24.0919 17.4751C24.0521 17.475 24.0129 17.4651 23.9779 17.4461C23.9429 17.4271 23.9132 17.3997 23.8914 17.3664C23.8696 17.3331 23.8565 17.2948 23.8531 17.2551C23.8498 17.2155 23.8564 17.1756 23.8723 17.1391L24.9492 14.6858H16.5458L17.8394 17.123C17.8549 17.1509 17.8647 17.1816 17.8682 17.2133C17.8717 17.245 17.8688 17.2771 17.8598 17.3076C17.8507 17.3382 17.8356 17.3667 17.8155 17.3914C17.7953 17.4161 17.7704 17.4365 17.7422 17.4515C17.714 17.4664 17.6832 17.4756 17.6514 17.4785C17.6196 17.4814 17.5876 17.478 17.5572 17.4683C17.5268 17.4587 17.4986 17.4431 17.4743 17.4225C17.45 17.4018 17.43 17.3766 17.4156 17.3481L15.936 14.5579C15.9166 14.5213 15.907 14.4804 15.908 14.439C15.9091 14.3976 15.9209 14.3573 15.9422 14.3218C15.9635 14.2863 15.9936 14.2569 16.0296 14.2365C16.0656 14.2161 16.1063 14.2054 16.1477 14.2053H25.3176C25.3574 14.2053 25.3966 14.2153 25.4317 14.2342C25.4667 14.2532 25.4965 14.2806 25.5183 14.3139C25.5401 14.3473 25.5533 14.3855 25.5566 14.4252C25.56 14.4649 25.5534 14.5048 25.5374 14.5413L24.3134 17.3311C24.2947 17.3741 24.2637 17.4107 24.2243 17.4363C24.1849 17.4619 24.1389 17.4754 24.0919 17.4751Z" fill="#002F49"/>
<path d="M9.88983 31.08H2.64039C2.57674 31.08 2.51569 31.0547 2.47069 31.0097C2.42568 30.9646 2.40039 30.9036 2.40039 30.84V27.1946C2.40039 27.1309 2.42568 27.0699 2.47069 27.0249C2.51569 26.9799 2.57674 26.9546 2.64039 26.9546H9.88983C9.95348 26.9546 10.0145 26.9799 10.0595 27.0249C10.1045 27.0699 10.1298 27.1309 10.1298 27.1946V30.84C10.1298 30.9036 10.1045 30.9646 10.0595 31.0097C10.0145 31.0547 9.95348 31.08 9.88983 31.08ZM2.88039 30.6H9.64983V27.4346H2.88039V30.6Z" fill="#002F49"/>
<path d="M9.11256 27.4345H3.41688C3.35323 27.4345 3.29218 27.4093 3.24717 27.3643C3.20217 27.3192 3.17688 27.2582 3.17688 27.1945V25.5222C3.17688 25.4586 3.20217 25.3975 3.24717 25.3525C3.29218 25.3075 3.35323 25.2822 3.41688 25.2822H9.11256C9.17621 25.2822 9.23726 25.3075 9.28227 25.3525C9.32727 25.3975 9.35256 25.4586 9.35256 25.5222V27.1945C9.35256 27.2582 9.32727 27.3192 9.28227 27.3643C9.23726 27.4093 9.17621 27.4345 9.11256 27.4345ZM3.65688 26.9545H8.87256V25.7622H3.65688V26.9545Z" fill="#002F49"/>
<path d="M8.04033 25.7622H4.49025C4.45779 25.7623 4.42565 25.7557 4.39579 25.743C4.36592 25.7302 4.33896 25.7115 4.31652 25.6881C4.29409 25.6646 4.27664 25.6368 4.26525 25.6064C4.25386 25.576 4.24876 25.5436 4.25025 25.5112L4.83393 12.8349C4.83759 12.7715 4.86588 12.7122 4.91275 12.6694C4.95962 12.6267 5.02134 12.604 5.08473 12.6061C5.11622 12.6076 5.14711 12.6152 5.17565 12.6286C5.20418 12.642 5.2298 12.6609 5.25104 12.6842C5.27228 12.7075 5.28872 12.7347 5.29943 12.7643C5.31014 12.794 5.31491 12.8255 5.31345 12.8569L4.74153 25.2822H7.78953L7.21353 12.7612C7.2121 12.7297 7.21689 12.6982 7.22762 12.6685C7.23836 12.6388 7.25483 12.6116 7.27611 12.5883C7.29738 12.565 7.32303 12.5461 7.3516 12.5327C7.38017 12.5193 7.4111 12.5117 7.44261 12.5103C7.47413 12.5088 7.50562 12.5136 7.53529 12.5243C7.56496 12.5351 7.59222 12.5516 7.61552 12.5728C7.63882 12.5941 7.6577 12.6198 7.67109 12.6483C7.68447 12.6769 7.6921 12.7078 7.69353 12.7393L8.28033 25.5119C8.28183 25.5443 8.27672 25.5767 8.26533 25.6071C8.25394 25.6375 8.2365 25.6653 8.21407 25.6888C8.19163 25.7123 8.16466 25.7309 8.1348 25.7437C8.10494 25.7564 8.0728 25.763 8.04033 25.7629V25.7622Z" fill="#002F49"/>
<path d="M20.8183 23.5117H13.1496C12.9205 23.5034 12.704 23.4048 12.5474 23.2373C12.3908 23.0698 12.307 22.8471 12.3142 22.6179V20.2866C12.3068 20.0573 12.3905 19.8344 12.5471 19.6668C12.7037 19.4991 12.9203 19.4004 13.1496 19.3921H20.6453C20.8744 19.4005 21.0909 19.4994 21.2473 19.667C21.4037 19.8346 21.4874 20.0574 21.48 20.2866V22.8066C21.4854 22.9877 21.4188 23.1637 21.2948 23.2958C21.1708 23.428 20.9995 23.5056 20.8183 23.5117ZM13.1496 19.8721C13.0479 19.8806 12.9536 19.9287 12.8871 20.0061C12.8206 20.0835 12.7872 20.184 12.7942 20.2858V22.6172C12.7872 22.719 12.8206 22.8195 12.8871 22.8969C12.9536 22.9744 13.0479 23.0225 13.1496 23.031H20.8183C20.8719 23.0249 20.921 22.998 20.9551 22.9562C20.9892 22.9143 21.0056 22.8608 21.0007 22.807V20.287C21.0081 20.185 20.9749 20.0842 20.9083 20.0065C20.8418 19.9288 20.7472 19.8805 20.6453 19.8721H13.1496Z" fill="#002F49"/>
<path d="M29.5054 23.5117H21.6638C21.4826 23.506 21.311 23.4288 21.1867 23.2968C21.0623 23.1649 20.9954 22.989 21.0005 22.8078V20.2878C20.9928 20.0582 21.0765 19.8349 21.2333 19.6669C21.39 19.499 21.6071 19.4002 21.8366 19.3921H29.3326C29.5617 19.4004 29.7782 19.499 29.9347 19.6665C30.0912 19.834 30.175 20.0567 30.1678 20.2858V22.8058C30.1734 22.9873 30.1068 23.1635 29.9826 23.2958C29.8584 23.4282 29.6868 23.5058 29.5054 23.5117ZM21.8366 19.8721C21.7347 19.8804 21.6401 19.9285 21.5734 20.0061C21.5067 20.0837 21.4733 20.1845 21.4805 20.2866V22.8066C21.4756 22.8604 21.492 22.9139 21.5262 22.9558C21.5603 22.9976 21.6095 23.0244 21.6631 23.0305H29.5046C29.5583 23.0244 29.6074 22.9975 29.6415 22.9557C29.6755 22.9138 29.6919 22.8603 29.687 22.8066V20.2866C29.6941 20.1848 29.6608 20.0843 29.5943 20.0069C29.5278 19.9294 29.4335 19.8813 29.3318 19.8728L21.8366 19.8721Z" fill="#002F49"/>
<path d="M32.7206 23.5117H30.3926C30.1993 23.5053 30.0164 23.4226 29.884 23.2817C29.7516 23.1408 29.6804 22.9531 29.686 22.7598V20.3358C29.6783 20.0945 29.7665 19.8599 29.9313 19.6834C30.0961 19.5069 30.3241 19.4029 30.5654 19.394H32.7196C32.9609 19.4024 33.1891 19.5061 33.3541 19.6824C33.5191 19.8587 33.6074 20.0933 33.5997 20.3346V22.57C33.6077 22.8114 33.5197 23.0461 33.3549 23.2226C33.1901 23.3992 32.9619 23.5031 32.7206 23.5117ZM30.5663 19.8721C30.4524 19.8811 30.3466 19.9346 30.2719 20.021C30.1971 20.1075 30.1594 20.2199 30.167 20.3339V22.7579C30.1615 22.8239 30.1823 22.8893 30.2246 22.9402C30.267 22.991 30.3277 23.0232 30.3935 23.0298H32.7215C32.8349 23.0205 32.9401 22.9672 33.0145 22.8812C33.089 22.7952 33.1267 22.6835 33.1197 22.57V20.3346C33.1272 20.2206 33.0896 20.1082 33.0149 20.0218C32.9402 19.9354 32.8345 19.8819 32.7206 19.8728L30.5663 19.8721Z" fill="#002F49"/>
<path d="M20.645 30.789H13.1493C12.9202 30.7808 12.7037 30.6821 12.5471 30.5146C12.3906 30.3471 12.3067 30.1244 12.3139 29.8953V27.5639C12.3067 27.3348 12.3906 27.1121 12.5471 26.9446C12.7037 26.7771 12.9202 26.6784 13.1493 26.6702H20.8181C20.9991 26.6761 21.1705 26.7534 21.2946 26.8854C21.4187 27.0173 21.4856 27.193 21.4805 27.3741V29.8941C21.488 30.1234 21.4043 30.3464 21.2477 30.5142C21.0911 30.6819 20.8744 30.7808 20.645 30.789ZM13.1493 27.1502C13.0476 27.1586 12.9533 27.2067 12.8867 27.2841C12.8202 27.3616 12.7869 27.4621 12.7939 27.5639V29.8953C12.7869 29.9971 12.8202 30.0976 12.8867 30.1751C12.9533 30.2525 13.0476 30.3006 13.1493 30.309H20.645C20.7468 30.3006 20.8411 30.2525 20.9076 30.1751C20.9741 30.0976 21.0075 29.9971 21.0005 29.8953V27.3753C21.0053 27.3215 20.989 27.268 20.9549 27.2262C20.9208 27.1843 20.8717 27.1575 20.8181 27.1514L13.1493 27.1502Z" fill="#002F49"/>
<path d="M29.3318 30.7891H21.8359C21.6067 30.7808 21.3902 30.6821 21.2337 30.5146C21.0771 30.3471 20.9932 30.1245 21.0004 29.8953V27.3753C20.9953 27.1942 21.0622 27.0184 21.1864 26.8865C21.3106 26.7546 21.482 26.6772 21.6631 26.6714H29.5046C29.6856 26.6773 29.857 26.7547 29.9811 26.8866C30.1053 27.0185 30.1721 27.1942 30.167 27.3753V29.8953C30.1742 30.1244 30.0904 30.3471 29.9339 30.5146C29.7774 30.6821 29.5609 30.7808 29.3318 30.7891ZM21.6631 27.1502C21.6094 27.1562 21.5602 27.1831 21.5261 27.2249C21.492 27.2668 21.4756 27.3203 21.4804 27.3741V29.8941C21.4734 29.996 21.5067 30.0965 21.5733 30.1739C21.6398 30.2513 21.7341 30.2995 21.8359 30.3079H29.3318C29.4335 30.2994 29.5278 30.2513 29.5942 30.1738C29.6607 30.0964 29.694 29.9959 29.687 29.8941V27.3741C29.6918 27.3204 29.6755 27.2668 29.6414 27.225C29.6073 27.1831 29.5582 27.1563 29.5046 27.1502H21.6631Z" fill="#002F49"/>
<path d="M32.7206 30.789H30.5664C30.325 30.7802 30.0971 30.6762 29.9323 30.4997C29.7675 30.3232 29.6793 30.0886 29.687 29.8473V27.4221C29.6814 27.2288 29.7526 27.0412 29.885 26.9003C30.0175 26.7594 30.2003 26.6766 30.3936 26.6702H32.7216C32.9628 26.679 33.1906 26.7831 33.3552 26.9596C33.5198 27.1361 33.6077 27.3707 33.5997 27.6119V29.8473C33.6077 30.0887 33.5197 30.3234 33.3549 30.5C33.1901 30.6765 32.962 30.7805 32.7206 30.789ZM30.3926 27.1502C30.3267 27.1567 30.2661 27.1889 30.2237 27.2398C30.1813 27.2906 30.1606 27.3561 30.166 27.4221V29.8473C30.1585 29.9613 30.1962 30.0737 30.2709 30.1601C30.3457 30.2466 30.4515 30.3001 30.5654 30.309H32.7196C32.8337 30.3003 32.9397 30.2468 33.0146 30.1604C33.0895 30.0739 33.1273 29.9614 33.1197 29.8473V27.6119C33.1273 27.4979 33.0896 27.3856 33.0149 27.2991C32.9402 27.2127 32.8345 27.1592 32.7206 27.1502H30.3926Z" fill="#002F49"/>
<path d="M32.765 27.1501H25.0963C24.9152 27.1443 24.7439 27.067 24.6197 26.9351C24.4956 26.8032 24.4288 26.6275 24.4339 26.4465V23.7359C24.4288 23.5549 24.4956 23.3792 24.6197 23.2473C24.7439 23.1154 24.9152 23.0381 25.0963 23.0322H32.765C32.994 23.0404 33.2104 23.1389 33.3669 23.3062C33.5235 23.4735 33.6074 23.696 33.6004 23.925V26.2559C33.6078 26.4852 33.524 26.708 33.3674 26.8756C33.2109 27.0432 32.9942 27.1419 32.765 27.1501ZM25.0963 23.5115C25.0427 23.5176 24.9936 23.5444 24.9595 23.5862C24.9254 23.628 24.909 23.6815 24.9139 23.7352V26.4472C24.909 26.5009 24.9254 26.5544 24.9595 26.5962C24.9936 26.638 25.0427 26.6648 25.0963 26.6709H32.765C32.8669 26.6625 32.9615 26.6142 33.028 26.5365C33.0946 26.4588 33.1278 26.3579 33.1204 26.2559V23.925C33.1274 23.8232 33.094 23.7228 33.0275 23.6454C32.961 23.568 32.8667 23.5199 32.765 23.5115H25.0963Z" fill="#002F49"/>
<path d="M24.2505 27.1501H16.409C16.2279 27.1443 16.0566 27.067 15.9324 26.9351C15.8082 26.8032 15.7413 26.6275 15.7464 26.4465V23.7359C15.7413 23.5548 15.8082 23.3791 15.9324 23.2473C16.0566 23.1154 16.2279 23.0381 16.409 23.0322H24.2505C24.4316 23.0381 24.6029 23.1154 24.7271 23.2473C24.8513 23.3791 24.9182 23.5548 24.9132 23.7359V26.4479C24.9178 26.6287 24.8508 26.8041 24.7266 26.9356C24.6025 27.0672 24.4313 27.1443 24.2505 27.1501ZM16.409 23.5115C16.3554 23.5175 16.3062 23.5443 16.2721 23.5861C16.2379 23.6279 16.2215 23.6814 16.2264 23.7352V26.4472C16.2215 26.5009 16.2379 26.5545 16.2721 26.5963C16.3062 26.6381 16.3554 26.6649 16.409 26.6709H24.2505C24.3042 26.6649 24.3533 26.6381 24.3875 26.5963C24.4216 26.5545 24.438 26.5009 24.4332 26.4472V23.7359C24.438 23.6821 24.4216 23.6286 24.3875 23.5868C24.3533 23.545 24.3042 23.5182 24.2505 23.5122L16.409 23.5115Z" fill="#002F49"/>
<path d="M15.5206 27.1501H13.1926C12.9512 27.1416 12.7231 27.0377 12.5582 26.8612C12.3933 26.6847 12.3052 26.45 12.3132 26.2086V23.973C12.3052 23.7316 12.3933 23.4969 12.5582 23.3204C12.7231 23.1439 12.9512 23.04 13.1926 23.0315H15.5206C15.7139 23.0379 15.8967 23.1208 16.0291 23.2618C16.1614 23.4028 16.2325 23.5906 16.2266 23.7839V26.3999C16.2319 26.5928 16.1606 26.78 16.0283 26.9206C15.896 27.0612 15.7135 27.1437 15.5206 27.1501ZM13.1926 23.5115C13.0787 23.5205 12.9729 23.5739 12.8982 23.6603C12.8234 23.7467 12.7857 23.859 12.7932 23.973V26.2079C12.7857 26.3219 12.8233 26.4343 12.8981 26.5207C12.9729 26.6071 13.0787 26.6605 13.1926 26.6694H15.5206C15.5863 26.6627 15.6468 26.6305 15.6891 26.5797C15.7313 26.5289 15.752 26.4636 15.7466 26.3977V23.7839C15.7521 23.718 15.7314 23.6526 15.6892 23.6017C15.6469 23.5509 15.5863 23.5187 15.5206 23.512L13.1926 23.5115Z" fill="#002F49"/>
<path d="M32.7646 19.8721H26.5063C26.2773 19.8638 26.0608 19.7652 25.9043 19.5977C25.7478 19.4303 25.6639 19.2076 25.6711 18.9786V16.4578C25.666 16.2768 25.7328 16.1011 25.857 15.9692C25.9811 15.8373 26.1525 15.76 26.3335 15.7542H32.7655C32.9945 15.7626 33.2107 15.8613 33.3671 16.0288C33.5235 16.1962 33.6072 16.4187 33.6 16.6477V18.9793C33.607 19.2083 33.523 19.4308 33.3665 19.5981C33.2099 19.7654 32.9935 19.8639 32.7646 19.8721ZM26.3326 16.2334C26.279 16.2395 26.2299 16.2663 26.1958 16.3081C26.1617 16.3499 26.1453 16.4034 26.1502 16.4571V18.9793C26.1431 19.0811 26.1765 19.1815 26.2429 19.2589C26.3094 19.3363 26.4037 19.3844 26.5054 19.3928H32.7636C32.8655 19.3846 32.96 19.3366 33.0267 19.2592C33.0934 19.1818 33.127 19.0812 33.12 18.9793V16.6477C33.127 16.5459 33.0936 16.4454 33.0271 16.368C32.9606 16.2906 32.8663 16.2426 32.7646 16.2342L26.3326 16.2334Z" fill="#002F49"/>
<path d="M32.7204 16.2341H30.3924C30.1992 16.2276 30.0163 16.1449 29.8839 16.004C29.7515 15.8631 29.6803 15.6755 29.6859 15.4822V12.8662C29.6803 12.6729 29.7515 12.4853 29.8839 12.3444C30.0163 12.2034 30.1992 12.1207 30.3924 12.1143H32.7204C32.9618 12.1228 33.1899 12.2268 33.3547 12.4034C33.5195 12.5799 33.6076 12.8146 33.5995 13.056V15.2914C33.6078 15.5329 33.5199 15.7679 33.3551 15.9447C33.1902 16.1214 32.962 16.2255 32.7204 16.2341ZM30.3924 12.5952C30.3265 12.6018 30.2659 12.634 30.2235 12.6848C30.1811 12.7357 30.1604 12.8012 30.1659 12.8671V15.4831C30.1605 15.5491 30.1812 15.6145 30.2236 15.6654C30.2659 15.7162 30.3266 15.7484 30.3924 15.7551H32.7204C32.8345 15.746 32.9404 15.6924 33.0151 15.6057C33.0898 15.5191 33.1273 15.4065 33.1195 15.2923V13.056C33.1271 12.942 33.0894 12.8297 33.0147 12.7432C32.94 12.6568 32.8343 12.6033 32.7204 12.5943L30.3924 12.5952Z" fill="#002F49"/>
<path d="M6.20828 13.4961C5.80798 13.4957 5.41679 13.3765 5.08419 13.1538C4.75159 12.931 4.49252 12.6146 4.33974 12.2446C4.18695 11.8746 4.14732 11.4676 4.22585 11.0751C4.30439 10.6826 4.49755 10.3222 4.78093 10.0394C5.06431 9.75669 5.42516 9.56433 5.81786 9.48668C6.21056 9.40904 6.61747 9.44958 6.98713 9.6032C7.35678 9.75682 7.67258 10.0166 7.89459 10.3497C8.1166 10.6828 8.23484 11.0743 8.23436 11.4746C8.23316 12.0111 8.01916 12.5253 7.63933 12.9043C7.2595 13.2832 6.74484 13.4961 6.20828 13.4961ZM6.20828 9.92824C5.90312 9.92867 5.60493 10.0195 5.35137 10.1893C5.09781 10.3591 4.90025 10.6003 4.78366 10.8823C4.66706 11.1643 4.63666 11.4745 4.69628 11.7738C4.7559 12.0731 4.90288 12.348 5.11864 12.5638C5.33441 12.7796 5.60929 12.9266 5.90856 12.9863C6.20784 13.0459 6.51808 13.0156 6.80011 12.899C7.08214 12.7825 7.32331 12.585 7.49315 12.3314C7.66299 12.0779 7.75389 11.7797 7.75436 11.4746C7.75398 11.0646 7.59098 10.6716 7.30112 10.3817C7.01126 10.0918 6.61823 9.92869 6.20828 9.92824Z" fill="#002F49"/>
<path d="M20.8399 11.9641C20.5686 11.9638 20.3034 11.883 20.078 11.732C19.8526 11.581 19.6771 11.3666 19.5735 11.1158C19.47 10.865 19.4432 10.5891 19.4964 10.3231C19.5496 10.0571 19.6806 9.81279 19.8726 9.62116C20.0647 9.42953 20.3093 9.29916 20.5754 9.24652C20.8416 9.19389 21.1174 9.22136 21.3679 9.32546C21.6185 9.42956 21.8325 9.60562 21.983 9.83137C22.1335 10.0571 22.2137 10.3224 22.2134 10.5937C22.2126 10.9575 22.0676 11.3061 21.8101 11.563C21.5526 11.8199 21.2036 11.9642 20.8399 11.9641ZM20.8399 9.70046C20.6636 9.70079 20.4914 9.75334 20.345 9.85148C20.1986 9.94961 20.0846 10.0889 20.0173 10.2518C19.95 10.4147 19.9325 10.5939 19.967 10.7668C20.0014 10.9396 20.0864 11.0984 20.211 11.223C20.3357 11.3476 20.4945 11.4325 20.6673 11.4669C20.8402 11.5014 21.0194 11.4838 21.1822 11.4165C21.3451 11.3492 21.4844 11.2351 21.5825 11.0887C21.6806 10.9422 21.7331 10.77 21.7334 10.5937C21.7331 10.3569 21.6388 10.1298 21.4713 9.96236C21.3038 9.7949 21.0767 9.70071 20.8399 9.70046Z" fill="#002F49"/>
<path d="M15.3715 9.32584C14.9358 9.32541 14.51 9.19578 14.1479 8.95334C13.7859 8.7109 13.5039 8.36654 13.3375 7.96381C13.1712 7.56108 13.1281 7.11807 13.2135 6.69081C13.299 6.26355 13.5092 5.87123 13.8177 5.56346C14.1261 5.25569 14.5189 5.0463 14.9463 4.96177C15.3738 4.87725 15.8167 4.92137 16.219 5.08858C16.6214 5.25578 16.9652 5.53855 17.2068 5.90113C17.4485 6.2637 17.5772 6.6898 17.5766 7.12552C17.5754 7.70952 17.3425 8.26917 16.9291 8.68168C16.5157 9.09418 15.9555 9.32584 15.3715 9.32584ZM15.3715 5.40016C15.0309 5.40059 14.6981 5.50194 14.4151 5.69142C14.1321 5.88089 13.9116 6.14999 13.7815 6.46472C13.6513 6.77944 13.6174 7.12568 13.6839 7.4597C13.7504 7.79371 13.9145 8.10051 14.1553 8.34135C14.3961 8.58219 14.7029 8.74626 15.0369 8.81284C15.3709 8.87942 15.7171 8.84551 16.0319 8.71541C16.3466 8.58531 16.6157 8.36484 16.8053 8.08187C16.9948 7.79889 17.0962 7.4661 17.0966 7.12552C17.096 6.66814 16.9141 6.22967 16.5907 5.90621C16.2673 5.58275 15.8289 5.40092 15.3715 5.40016Z" fill="#002F49"/>
<path d="M21.1397 9.746C21.0877 9.746 21.0372 9.72916 20.9957 9.698L17.1098 6.75704C17.0847 6.73799 17.0636 6.71417 17.0477 6.68696C17.0318 6.65974 17.0214 6.62966 17.0171 6.59843C17.0128 6.56719 17.0147 6.53542 17.0227 6.50492C17.0307 6.47442 17.0446 6.4458 17.0636 6.42068C17.0827 6.39556 17.1065 6.37444 17.1337 6.35852C17.1609 6.34261 17.191 6.33221 17.2223 6.32792C17.2535 6.32363 17.2853 6.32553 17.3158 6.33352C17.3463 6.34151 17.3749 6.35543 17.4 6.37448L21.2849 9.31472C21.3253 9.345 21.3551 9.38725 21.3701 9.43545C21.385 9.48364 21.3845 9.53534 21.3684 9.58318C21.3523 9.63103 21.3215 9.67259 21.2805 9.70195C21.2394 9.73131 21.1902 9.74697 21.1397 9.74672V9.746Z" fill="#002F49"/>
<path d="M19.7059 10.8337C19.6545 10.8336 19.6044 10.8167 19.5634 10.7857L16.6742 8.64204C16.623 8.60414 16.589 8.54744 16.5796 8.48443C16.5702 8.42142 16.5862 8.35725 16.6241 8.30604C16.662 8.25483 16.7187 8.22078 16.7817 8.21137C16.8447 8.20197 16.9089 8.21798 16.9601 8.25588L19.8492 10.4003C19.8895 10.4305 19.9193 10.4726 19.9343 10.5207C19.9493 10.5688 19.9488 10.6204 19.9329 10.6682C19.917 10.716 19.8864 10.7575 19.8455 10.787C19.8047 10.8164 19.7556 10.8323 19.7052 10.8323L19.7059 10.8337Z" fill="#002F49"/>
<path d="M6.65782 9.98816C6.60253 9.98835 6.54888 9.96945 6.50592 9.93465C6.46296 9.89984 6.43333 9.85128 6.42205 9.79716C6.41076 9.74304 6.4185 9.68668 6.44397 9.63761C6.46944 9.58854 6.51106 9.54976 6.56182 9.52784L13.3387 6.58448C13.3676 6.57187 13.3987 6.56508 13.4302 6.56449C13.4618 6.56391 13.4931 6.56954 13.5224 6.58106C13.5518 6.59258 13.5786 6.60977 13.6013 6.63165C13.624 6.65352 13.6422 6.67966 13.6548 6.70856C13.6674 6.73746 13.6742 6.76856 13.6748 6.80009C13.6753 6.83161 13.6697 6.86295 13.6582 6.8923C13.6467 6.92165 13.6295 6.94844 13.6076 6.97115C13.5857 6.99386 13.5596 7.01203 13.5307 7.02464L6.75334 9.968C6.72324 9.98127 6.69071 9.98814 6.65782 9.98816Z" fill="#002F49"/>
<path d="M7.97496 11.9643C7.92168 11.9644 7.86988 11.9467 7.82773 11.9141C7.78558 11.8815 7.75548 11.8358 7.74216 11.7843C7.72885 11.7327 7.73309 11.6781 7.75421 11.6292C7.77533 11.5803 7.81212 11.5398 7.8588 11.5141L13.8108 8.23926C13.8666 8.20854 13.9322 8.20124 13.9934 8.21895C14.0237 8.22772 14.0519 8.24237 14.0765 8.26205C14.1011 8.28174 14.1216 8.30609 14.1368 8.33369C14.152 8.3613 14.1617 8.39164 14.1652 8.42296C14.1686 8.45429 14.1659 8.486 14.1571 8.51627C14.1484 8.54655 14.1337 8.5748 14.114 8.59942C14.0944 8.62403 14.07 8.64453 14.0424 8.65973L8.0904 11.9345C8.05509 11.9542 8.01535 11.9644 7.97496 11.9643Z" fill="#002F49"/>
<path d="M20.8394 12.8898C20.7758 12.8898 20.7147 12.8645 20.6697 12.8195C20.6247 12.7745 20.5994 12.7135 20.5994 12.6498V11.7241C20.5994 11.6605 20.6247 11.5994 20.6697 11.5544C20.7147 11.5094 20.7758 11.4841 20.8394 11.4841C20.9031 11.4841 20.9641 11.5094 21.0091 11.5544C21.0542 11.5994 21.0794 11.6605 21.0794 11.7241V12.6498C21.0794 12.7135 21.0542 12.7745 21.0091 12.8195C20.9641 12.8645 20.9031 12.8898 20.8394 12.8898Z" fill="#002F49"/>
<path d="M18.3084 14.6854C18.2638 14.6854 18.2201 14.6729 18.1822 14.6495C18.1443 14.6261 18.1137 14.5926 18.0937 14.5527C18.0738 14.5128 18.0654 14.4682 18.0694 14.4238C18.0734 14.3794 18.0897 14.337 18.1164 14.3014L19.157 12.9182C19.2759 12.7608 19.4296 12.633 19.6061 12.5449C19.7826 12.4567 19.9771 12.4106 20.1744 12.4102H21.456C21.6533 12.4107 21.8479 12.4568 22.0245 12.5449C22.201 12.6331 22.3548 12.7608 22.4738 12.9182L23.514 14.3014C23.5329 14.3266 23.5467 14.3553 23.5545 14.3858C23.5623 14.4163 23.564 14.4481 23.5596 14.4793C23.5551 14.5105 23.5446 14.5405 23.5285 14.5676C23.5125 14.5948 23.4912 14.6184 23.466 14.6374C23.4408 14.6563 23.4121 14.67 23.3816 14.6778C23.351 14.6857 23.3193 14.6874 23.2881 14.6829C23.2569 14.6785 23.2268 14.6679 23.1997 14.6519C23.1726 14.6358 23.1489 14.6146 23.13 14.5894L22.0896 13.2062C22.0155 13.1083 21.9198 13.0287 21.8098 12.9739C21.6999 12.919 21.5788 12.8903 21.456 12.8899H20.1749C20.052 12.8902 19.9309 12.9189 19.821 12.9737C19.711 13.0286 19.6153 13.1082 19.5413 13.2062L18.5004 14.5896C18.478 14.6194 18.449 14.6435 18.4157 14.6601C18.3824 14.6767 18.3456 14.6854 18.3084 14.6854Z" fill="#002F49"/>
<path d="M24.0919 17.4751C24.0521 17.475 24.0129 17.4651 23.9779 17.4461C23.9429 17.4271 23.9132 17.3997 23.8914 17.3664C23.8696 17.3331 23.8565 17.2948 23.8531 17.2551C23.8498 17.2155 23.8564 17.1756 23.8723 17.1391L24.9492 14.6858H16.5458L17.8394 17.123C17.8549 17.1509 17.8647 17.1816 17.8682 17.2133C17.8717 17.245 17.8688 17.2771 17.8598 17.3076C17.8507 17.3382 17.8356 17.3667 17.8155 17.3914C17.7953 17.4161 17.7704 17.4365 17.7422 17.4515C17.714 17.4664 17.6832 17.4756 17.6514 17.4785C17.6196 17.4814 17.5876 17.478 17.5572 17.4683C17.5268 17.4587 17.4986 17.4431 17.4743 17.4225C17.45 17.4018 17.43 17.3766 17.4156 17.3481L15.936 14.5579C15.9166 14.5213 15.907 14.4804 15.908 14.439C15.9091 14.3976 15.9209 14.3573 15.9422 14.3218C15.9635 14.2863 15.9936 14.2569 16.0296 14.2365C16.0656 14.2161 16.1063 14.2054 16.1477 14.2053H25.3176C25.3574 14.2053 25.3966 14.2153 25.4317 14.2342C25.4667 14.2532 25.4965 14.2806 25.5183 14.3139C25.5401 14.3473 25.5533 14.3855 25.5566 14.4252C25.56 14.4649 25.5534 14.5048 25.5374 14.5413L24.3134 17.3311C24.2947 17.3741 24.2637 17.4107 24.2243 17.4363C24.1849 17.4619 24.1389 17.4754 24.0919 17.4751Z" fill="#002F49"/>
<path d="M9.88983 31.08H2.64039C2.57674 31.08 2.51569 31.0547 2.47069 31.0097C2.42568 30.9646 2.40039 30.9036 2.40039 30.84V27.1946C2.40039 27.1309 2.42568 27.0699 2.47069 27.0249C2.51569 26.9799 2.57674 26.9546 2.64039 26.9546H9.88983C9.95348 26.9546 10.0145 26.9799 10.0595 27.0249C10.1045 27.0699 10.1298 27.1309 10.1298 27.1946V30.84C10.1298 30.9036 10.1045 30.9646 10.0595 31.0097C10.0145 31.0547 9.95348 31.08 9.88983 31.08ZM2.88039 30.6H9.64983V27.4346H2.88039V30.6Z" fill="#002F49"/>
<path d="M9.11256 27.4345H3.41688C3.35323 27.4345 3.29218 27.4093 3.24717 27.3643C3.20217 27.3192 3.17688 27.2582 3.17688 27.1945V25.5222C3.17688 25.4586 3.20217 25.3975 3.24717 25.3525C3.29218 25.3075 3.35323 25.2822 3.41688 25.2822H9.11256C9.17621 25.2822 9.23726 25.3075 9.28227 25.3525C9.32727 25.3975 9.35256 25.4586 9.35256 25.5222V27.1945C9.35256 27.2582 9.32727 27.3192 9.28227 27.3643C9.23726 27.4093 9.17621 27.4345 9.11256 27.4345ZM3.65688 26.9545H8.87256V25.7622H3.65688V26.9545Z" fill="#002F49"/>
<path d="M8.04033 25.7622H4.49025C4.45779 25.7623 4.42565 25.7557 4.39579 25.743C4.36592 25.7302 4.33896 25.7115 4.31652 25.6881C4.29409 25.6646 4.27664 25.6368 4.26525 25.6064C4.25386 25.576 4.24876 25.5436 4.25025 25.5112L4.83393 12.8349C4.83759 12.7715 4.86588 12.7122 4.91275 12.6694C4.95962 12.6267 5.02134 12.604 5.08473 12.6061C5.11622 12.6076 5.14711 12.6152 5.17565 12.6286C5.20418 12.642 5.2298 12.6609 5.25104 12.6842C5.27228 12.7075 5.28872 12.7347 5.29943 12.7643C5.31014 12.794 5.31491 12.8255 5.31345 12.8569L4.74153 25.2822H7.78953L7.21353 12.7612C7.2121 12.7297 7.21689 12.6982 7.22762 12.6685C7.23836 12.6388 7.25483 12.6116 7.27611 12.5883C7.29738 12.565 7.32303 12.5461 7.3516 12.5327C7.38017 12.5193 7.4111 12.5117 7.44261 12.5103C7.47413 12.5088 7.50562 12.5136 7.53529 12.5243C7.56496 12.5351 7.59222 12.5516 7.61552 12.5728C7.63882 12.5941 7.6577 12.6198 7.67109 12.6483C7.68447 12.6769 7.6921 12.7078 7.69353 12.7393L8.28033 25.5119C8.28183 25.5443 8.27672 25.5767 8.26533 25.6071C8.25394 25.6375 8.2365 25.6653 8.21407 25.6888C8.19163 25.7123 8.16466 25.7309 8.1348 25.7437C8.10494 25.7564 8.0728 25.763 8.04033 25.7629V25.7622Z" fill="#002F49"/>
</svg>
