<svg width="65" height="65" viewBox="0 0 65 65" fill="none" xmlns="http://www.w3.org/2000/svg">
<path d="M22.9406 56.5974C22.8257 56.5974 22.7154 56.5517 22.6342 56.4704C22.5529 56.3892 22.5073 56.279 22.5073 56.164V55.4872C22.5065 54.7253 22.2035 53.9949 21.6648 53.4562C21.1261 52.9175 20.3957 52.6145 19.6338 52.6137H12.97C12.2081 52.6144 11.4776 52.9174 10.9388 53.4561C10.4 53.9948 10.097 54.7253 10.0962 55.4872V56.164C10.0962 56.279 10.0505 56.3892 9.96924 56.4704C9.88797 56.5517 9.77775 56.5974 9.66283 56.5974C9.5479 56.5974 9.43768 56.5517 9.35641 56.4704C9.27515 56.3892 9.22949 56.279 9.22949 56.164V55.4872C9.23064 54.4955 9.62511 53.5448 10.3264 52.8436C11.0276 52.1425 11.9784 51.7481 12.97 51.7471H19.6338C20.6254 51.7482 21.5761 52.1426 22.2772 52.8438C22.9784 53.5449 23.3728 54.4956 23.3739 55.4872V56.164C23.3739 56.279 23.3283 56.3892 23.247 56.4704C23.1657 56.5517 23.0555 56.5974 22.9406 56.5974Z" fill="#1E1E1E"/>
<path d="M18.7657 52.6143H14.2898C14.1749 52.6143 14.0646 52.5687 13.9834 52.4874C13.9021 52.4061 13.8564 52.2959 13.8564 52.181V19.2234C13.8564 19.1084 13.9021 18.9982 13.9834 18.917C14.0646 18.8357 14.1749 18.79 14.2898 18.79H18.7657C18.8806 18.79 18.9908 18.8357 19.0721 18.917C19.1534 18.9982 19.199 19.1084 19.199 19.2234V52.181C19.199 52.2959 19.1534 52.4061 19.0721 52.4874C18.9908 52.5687 18.8806 52.6143 18.7657 52.6143ZM14.7231 51.7476H18.3323V19.6567H14.7231V51.7476Z" fill="#1E1E1E"/>
<path d="M59.5956 19.6566H4.85911C4.74419 19.6566 4.63397 19.611 4.5527 19.5297C4.47144 19.4484 4.42578 19.3382 4.42578 19.2233V15.3796C4.42578 15.2647 4.47144 15.1545 4.5527 15.0732C4.63397 14.9919 4.74419 14.9463 4.85911 14.9463H52.4239C54.6924 14.9463 60.0289 16.7524 60.0289 19.2233C60.0289 19.3382 59.9833 19.4484 59.902 19.5297C59.8208 19.611 59.7105 19.6566 59.5956 19.6566ZM5.29245 18.79H59.0665C58.3931 17.2456 54.3618 15.813 52.4239 15.813H5.29245V18.79Z" fill="#1E1E1E"/>
<path d="M55.1961 16.33C55.1489 16.3298 55.102 16.3219 55.0574 16.3066L22.3823 5.24312L5.08497 15.7502C4.98709 15.8028 4.87272 15.8159 4.7655 15.7866C4.65828 15.7573 4.5664 15.688 4.50887 15.5929C4.45133 15.4978 4.43254 15.3842 4.45637 15.2757C4.4802 15.1671 4.54483 15.0718 4.6369 15.0096L22.105 4.39639C22.159 4.36334 22.2196 4.34259 22.2825 4.33562C22.3454 4.32866 22.4091 4.33564 22.469 4.35609L55.3369 15.4858C55.4344 15.5186 55.5171 15.5849 55.5702 15.6731C55.6233 15.7612 55.6433 15.8653 55.6266 15.9669C55.6099 16.0684 55.5577 16.1607 55.4792 16.2272C55.4007 16.2937 55.3011 16.3301 55.1982 16.33H55.1961Z" fill="#1E1E1E"/>
<path d="M24.1263 15.8131H20.4577C20.3428 15.8131 20.2326 15.7674 20.1513 15.6862C20.0701 15.6049 20.0244 15.4947 20.0244 15.3798V11.7112C20.0244 11.5962 20.0701 11.486 20.1513 11.4048C20.2326 11.3235 20.3428 11.2778 20.4577 11.2778H24.1263C24.2413 11.2778 24.3515 11.3235 24.4328 11.4048C24.514 11.486 24.5597 11.5962 24.5597 11.7112V15.3798C24.5597 15.4947 24.514 15.6049 24.4328 15.6862C24.3515 15.7674 24.2413 15.8131 24.1263 15.8131ZM20.8911 14.9464H23.693V12.1445H20.8911V14.9464Z" fill="#1E1E1E"/>
<path d="M22.3298 12.1448C22.2149 12.1448 22.1047 12.0991 22.0234 12.0178C21.9421 11.9366 21.8965 11.8264 21.8965 11.7114V4.76683C21.8965 4.6519 21.9421 4.54168 22.0234 4.46042C22.1047 4.37915 22.2149 4.3335 22.3298 4.3335C22.4447 4.3335 22.555 4.37915 22.6362 4.46042C22.7175 4.54168 22.7632 4.6519 22.7632 4.76683V11.7114C22.7632 11.8264 22.7175 11.9366 22.6362 12.0178C22.555 12.0991 22.4447 12.1448 22.3298 12.1448Z" fill="#1E1E1E"/>
<path d="M56.2029 25.8724C56.0879 25.8724 55.9777 25.8268 55.8965 25.7455C55.8152 25.6643 55.7695 25.554 55.7695 25.4391V19.2234C55.7695 19.1084 55.8152 18.9982 55.8965 18.917C55.9777 18.8357 56.0879 18.79 56.2029 18.79C56.3178 18.79 56.428 18.8357 56.5093 18.917C56.5905 18.9982 56.6362 19.1084 56.6362 19.2234V25.4391C56.6362 25.554 56.5905 25.6643 56.5093 25.7455C56.428 25.8268 56.3178 25.8724 56.2029 25.8724Z" fill="#1E1E1E"/>
<path d="M56.2031 33.7526C55.3379 33.7529 54.4922 33.4966 53.7728 33.0161C53.0533 32.5357 52.4925 31.8526 52.1613 31.0534C51.8301 30.2542 51.7434 29.3747 51.9121 28.5262C52.0808 27.6777 52.4973 26.8983 53.109 26.2865C53.7207 25.6748 54.5001 25.2582 55.3486 25.0894C56.1971 24.9206 57.0765 25.0073 57.8758 25.3384C58.675 25.6695 59.3581 26.2303 59.8386 26.9496C60.3192 27.669 60.5756 28.5148 60.5754 29.3799C60.5744 30.5392 60.1134 31.6508 59.2937 32.4706C58.4739 33.2904 57.3624 33.7515 56.2031 33.7526ZM56.2031 25.8725C55.5094 25.8722 54.8313 26.0777 54.2544 26.4628C53.6775 26.848 53.2278 27.3956 52.9622 28.0364C52.6965 28.6771 52.6269 29.3823 52.762 30.0627C52.8971 30.743 53.231 31.368 53.7213 31.8586C54.2117 32.3492 54.8366 32.6834 55.5168 32.8189C56.1971 32.9543 56.9023 32.885 57.5432 32.6197C58.1841 32.3544 58.7319 31.9049 59.1174 31.3283C59.5029 30.7516 59.7086 30.0735 59.7087 29.3799C59.708 28.4502 59.3385 27.5587 58.6813 26.9011C58.024 26.2436 57.1328 25.8736 56.2031 25.8725Z" fill="#1E1E1E"/>
<path d="M56.2037 31.5808C55.7682 31.5808 55.3425 31.4516 54.9804 31.2097C54.6184 30.9677 54.3361 30.6238 54.1695 30.2215C54.0029 29.8191 53.9593 29.3764 54.0443 28.9493C54.1293 28.5222 54.339 28.1299 54.647 27.822C54.955 27.5141 55.3473 27.3044 55.7744 27.2195C56.2016 27.1346 56.6443 27.1783 57.0466 27.345C57.4489 27.5117 57.7928 27.794 58.0346 28.1561C58.2765 28.5182 58.4056 28.944 58.4055 29.3794C58.4047 29.9631 58.1724 30.5226 57.7597 30.9353C57.3469 31.348 56.7874 31.5801 56.2037 31.5808ZM56.2037 28.0443C55.9397 28.0443 55.6815 28.1227 55.462 28.2694C55.2424 28.4161 55.0713 28.6246 54.9702 28.8685C54.8692 29.1125 54.8428 29.3809 54.8943 29.6399C54.9458 29.8989 55.0729 30.1368 55.2597 30.3235C55.4464 30.5102 55.6843 30.6374 55.9433 30.6889C56.2022 30.7404 56.4707 30.714 56.7146 30.6129C56.9586 30.5119 57.1671 30.3407 57.3138 30.1212C57.4605 29.9016 57.5388 29.6435 57.5388 29.3794C57.5385 29.0255 57.3977 28.6861 57.1474 28.4358C56.8971 28.1855 56.5577 28.0447 56.2037 28.0443Z" fill="#1E1E1E"/>
<path d="M56.2068 39.3754C55.5439 39.3747 54.9083 39.1111 54.4394 38.6423C53.9706 38.1736 53.7069 37.538 53.7061 36.8751C53.7061 36.7601 53.7517 36.6499 53.833 36.5687C53.9142 36.4874 54.0245 36.4417 54.1394 36.4417C54.2543 36.4417 54.3645 36.4874 54.4458 36.5687C54.5271 36.6499 54.5727 36.7601 54.5727 36.8751C54.5736 37.1969 54.6697 37.5113 54.8491 37.7786C55.0284 38.0459 55.2829 38.254 55.5804 38.3768C55.878 38.4996 56.2052 38.5315 56.5208 38.4686C56.8365 38.4056 57.1264 38.2506 57.354 38.023C57.5816 37.7954 57.7368 37.5055 57.7998 37.1899C57.8629 36.8743 57.831 36.5471 57.7083 36.2495C57.5856 35.952 57.3775 35.6974 57.1103 35.518C56.8431 35.3386 56.5287 35.2423 56.2068 35.2414C56.0919 35.2414 55.9817 35.1957 55.9004 35.1145C55.8191 35.0332 55.7735 34.923 55.7735 34.8081V33.3196C55.7735 33.2046 55.8191 33.0944 55.9004 33.0132C55.9817 32.9319 56.0919 32.8862 56.2068 32.8862C56.3217 32.8862 56.432 32.9319 56.5132 33.0132C56.5945 33.0944 56.6402 33.2046 56.6402 33.3196V34.4129C57.254 34.5238 57.8042 34.86 58.1829 35.3556C58.5616 35.8512 58.7415 36.4704 58.6872 37.0918C58.633 37.7132 58.3485 38.2919 57.8896 38.7143C57.4307 39.1368 56.8306 39.3726 56.2068 39.3754Z" fill="#1E1E1E"/>
<path d="M10.987 33.7565H4.86009C4.74516 33.7565 4.63494 33.7108 4.55368 33.6296C4.47241 33.5483 4.42676 33.4381 4.42676 33.3231V27.1941C4.42676 27.0791 4.47241 26.9689 4.55368 26.8877C4.63494 26.8064 4.74516 26.7607 4.86009 26.7607H10.987C11.1019 26.7607 11.2121 26.8064 11.2934 26.8877C11.3747 26.9689 11.4203 27.0791 11.4203 27.1941V33.3231C11.4203 33.4381 11.3747 33.5483 11.2934 33.6296C11.2121 33.7108 11.1019 33.7565 10.987 33.7565ZM5.29342 32.8898H10.5537V27.6274H5.29342V32.8898Z" fill="#1E1E1E"/>
<path d="M7.92259 27.6274C7.80766 27.6274 7.69744 27.5818 7.61618 27.5005C7.53491 27.4193 7.48926 27.309 7.48926 27.1941V19.2234C7.48926 19.1084 7.53491 18.9982 7.61618 18.917C7.69744 18.8357 7.80766 18.79 7.92259 18.79C8.03752 18.79 8.14774 18.8357 8.229 18.917C8.31027 18.9982 8.35592 19.1084 8.35592 19.2234V27.1941C8.35592 27.309 8.31027 27.4193 8.229 27.5005C8.14774 27.5818 8.03752 27.6274 7.92259 27.6274Z" fill="#1E1E1E"/>
<path d="M58.263 60.6666H4.85814C4.74321 60.6666 4.63299 60.6209 4.55173 60.5397C4.47046 60.4584 4.4248 60.3482 4.4248 60.2332V56.1638C4.4248 56.0489 4.47046 55.9387 4.55173 55.8574C4.63299 55.7761 4.74321 55.7305 4.85814 55.7305H58.263C58.3779 55.7305 58.4882 55.7761 58.5694 55.8574C58.6507 55.9387 58.6963 56.0489 58.6963 56.1638V60.2332C58.6963 60.3482 58.6507 60.4584 58.5694 60.5397C58.4882 60.6209 58.3779 60.6666 58.263 60.6666ZM5.29147 59.7999H57.8297V56.5971H5.29147V59.7999Z" fill="#1E1E1E"/>
<path d="M47.9166 56.5975H34.3035C34.1885 56.5975 34.0783 56.5518 33.997 56.4705C33.9158 56.3893 33.8701 56.279 33.8701 56.1641V42.5505C33.8701 42.4356 33.9158 42.3254 33.997 42.2441C34.0783 42.1628 34.1885 42.1172 34.3035 42.1172H47.9166C48.0315 42.1172 48.1418 42.1628 48.223 42.2441C48.3043 42.3254 48.3499 42.4356 48.3499 42.5505V56.1641C48.3499 56.279 48.3043 56.3893 48.223 56.4705C48.1418 56.5518 48.0315 56.5975 47.9166 56.5975ZM34.7368 55.7308H47.4833V42.9839H34.7368V55.7308Z" fill="#1E1E1E"/>
<path d="M41.1091 46.1437C40.9942 46.1437 40.884 46.0981 40.8027 46.0168C40.7214 45.9355 40.6758 45.8253 40.6758 45.7104V42.5505C40.6758 42.4356 40.7214 42.3254 40.8027 42.2441C40.884 42.1628 40.9942 42.1172 41.1091 42.1172C41.224 42.1172 41.3343 42.1628 41.4155 42.2441C41.4968 42.3254 41.5424 42.4356 41.5424 42.5505V45.7104C41.5424 45.8253 41.4968 45.9355 41.4155 46.0168C41.3343 46.0981 41.224 46.1437 41.1091 46.1437Z" fill="#1E1E1E"/>
<path d="M22.9406 56.5974C22.8257 56.5974 22.7154 56.5517 22.6342 56.4704C22.5529 56.3892 22.5073 56.279 22.5073 56.164V55.4872C22.5065 54.7253 22.2035 53.9949 21.6648 53.4562C21.1261 52.9175 20.3957 52.6145 19.6338 52.6137H12.97C12.2081 52.6144 11.4776 52.9174 10.9388 53.4561C10.4 53.9948 10.097 54.7253 10.0962 55.4872V56.164C10.0962 56.279 10.0505 56.3892 9.96924 56.4704C9.88797 56.5517 9.77775 56.5974 9.66283 56.5974C9.5479 56.5974 9.43768 56.5517 9.35641 56.4704C9.27515 56.3892 9.22949 56.279 9.22949 56.164V55.4872C9.23064 54.4955 9.62511 53.5448 10.3264 52.8436C11.0276 52.1425 11.9784 51.7481 12.97 51.7471H19.6338C20.6254 51.7482 21.5761 52.1426 22.2772 52.8438C22.9784 53.5449 23.3728 54.4956 23.3739 55.4872V56.164C23.3739 56.279 23.3283 56.3892 23.247 56.4704C23.1657 56.5517 23.0555 56.5974 22.9406 56.5974Z" fill="#1E1E1E"/>
<path d="M18.7657 52.6143H14.2898C14.1749 52.6143 14.0646 52.5687 13.9834 52.4874C13.9021 52.4061 13.8564 52.2959 13.8564 52.181V19.2234C13.8564 19.1084 13.9021 18.9982 13.9834 18.917C14.0646 18.8357 14.1749 18.79 14.2898 18.79H18.7657C18.8806 18.79 18.9908 18.8357 19.0721 18.917C19.1534 18.9982 19.199 19.1084 19.199 19.2234V52.181C19.199 52.2959 19.1534 52.4061 19.0721 52.4874C18.9908 52.5687 18.8806 52.6143 18.7657 52.6143ZM14.7231 51.7476H18.3323V19.6567H14.7231V51.7476Z" fill="#1E1E1E"/>
<path d="M59.5956 19.6566H4.85911C4.74419 19.6566 4.63397 19.611 4.5527 19.5297C4.47144 19.4484 4.42578 19.3382 4.42578 19.2233V15.3796C4.42578 15.2647 4.47144 15.1545 4.5527 15.0732C4.63397 14.9919 4.74419 14.9463 4.85911 14.9463H52.4239C54.6924 14.9463 60.0289 16.7524 60.0289 19.2233C60.0289 19.3382 59.9833 19.4484 59.902 19.5297C59.8208 19.611 59.7105 19.6566 59.5956 19.6566ZM5.29245 18.79H59.0665C58.3931 17.2456 54.3618 15.813 52.4239 15.813H5.29245V18.79Z" fill="#1E1E1E"/>
<path d="M55.1961 16.33C55.1489 16.3298 55.102 16.3219 55.0574 16.3066L22.3823 5.24312L5.08497 15.7502C4.98709 15.8028 4.87272 15.8159 4.7655 15.7866C4.65828 15.7573 4.5664 15.688 4.50887 15.5929C4.45133 15.4978 4.43254 15.3842 4.45637 15.2757C4.4802 15.1671 4.54483 15.0718 4.6369 15.0096L22.105 4.39639C22.159 4.36334 22.2196 4.34259 22.2825 4.33562C22.3454 4.32866 22.4091 4.33564 22.469 4.35609L55.3369 15.4858C55.4344 15.5186 55.5171 15.5849 55.5702 15.6731C55.6233 15.7612 55.6433 15.8653 55.6266 15.9669C55.6099 16.0684 55.5577 16.1607 55.4792 16.2272C55.4007 16.2937 55.3011 16.3301 55.1982 16.33H55.1961Z" fill="#1E1E1E"/>
<path d="M24.1263 15.8131H20.4577C20.3428 15.8131 20.2326 15.7674 20.1513 15.6862C20.0701 15.6049 20.0244 15.4947 20.0244 15.3798V11.7112C20.0244 11.5962 20.0701 11.486 20.1513 11.4048C20.2326 11.3235 20.3428 11.2778 20.4577 11.2778H24.1263C24.2413 11.2778 24.3515 11.3235 24.4328 11.4048C24.514 11.486 24.5597 11.5962 24.5597 11.7112V15.3798C24.5597 15.4947 24.514 15.6049 24.4328 15.6862C24.3515 15.7674 24.2413 15.8131 24.1263 15.8131ZM20.8911 14.9464H23.693V12.1445H20.8911V14.9464Z" fill="#1E1E1E"/>
<path d="M22.3298 12.1448C22.2149 12.1448 22.1047 12.0991 22.0234 12.0178C21.9421 11.9366 21.8965 11.8264 21.8965 11.7114V4.76683C21.8965 4.6519 21.9421 4.54168 22.0234 4.46042C22.1047 4.37915 22.2149 4.3335 22.3298 4.3335C22.4447 4.3335 22.555 4.37915 22.6362 4.46042C22.7175 4.54168 22.7632 4.6519 22.7632 4.76683V11.7114C22.7632 11.8264 22.7175 11.9366 22.6362 12.0178C22.555 12.0991 22.4447 12.1448 22.3298 12.1448Z" fill="#1E1E1E"/>
<path d="M56.2029 25.8724C56.0879 25.8724 55.9777 25.8268 55.8965 25.7455C55.8152 25.6643 55.7695 25.554 55.7695 25.4391V19.2234C55.7695 19.1084 55.8152 18.9982 55.8965 18.917C55.9777 18.8357 56.0879 18.79 56.2029 18.79C56.3178 18.79 56.428 18.8357 56.5093 18.917C56.5905 18.9982 56.6362 19.1084 56.6362 19.2234V25.4391C56.6362 25.554 56.5905 25.6643 56.5093 25.7455C56.428 25.8268 56.3178 25.8724 56.2029 25.8724Z" fill="#1E1E1E"/>
<path d="M56.2031 33.7526C55.3379 33.7529 54.4922 33.4966 53.7728 33.0161C53.0533 32.5357 52.4925 31.8526 52.1613 31.0534C51.8301 30.2542 51.7434 29.3747 51.9121 28.5262C52.0808 27.6777 52.4973 26.8983 53.109 26.2865C53.7207 25.6748 54.5001 25.2582 55.3486 25.0894C56.1971 24.9206 57.0765 25.0073 57.8758 25.3384C58.675 25.6695 59.3581 26.2303 59.8386 26.9496C60.3192 27.669 60.5756 28.5148 60.5754 29.3799C60.5744 30.5392 60.1134 31.6508 59.2937 32.4706C58.4739 33.2904 57.3624 33.7515 56.2031 33.7526ZM56.2031 25.8725C55.5094 25.8722 54.8313 26.0777 54.2544 26.4628C53.6775 26.848 53.2278 27.3956 52.9622 28.0364C52.6965 28.6771 52.6269 29.3823 52.762 30.0627C52.8971 30.743 53.231 31.368 53.7213 31.8586C54.2117 32.3492 54.8366 32.6834 55.5168 32.8189C56.1971 32.9543 56.9023 32.885 57.5432 32.6197C58.1841 32.3544 58.7319 31.9049 59.1174 31.3283C59.5029 30.7516 59.7086 30.0735 59.7087 29.3799C59.708 28.4502 59.3385 27.5587 58.6813 26.9011C58.024 26.2436 57.1328 25.8736 56.2031 25.8725Z" fill="#1E1E1E"/>
<path d="M56.2037 31.5808C55.7682 31.5808 55.3425 31.4516 54.9804 31.2097C54.6184 30.9677 54.3361 30.6238 54.1695 30.2215C54.0029 29.8191 53.9593 29.3764 54.0443 28.9493C54.1293 28.5222 54.339 28.1299 54.647 27.822C54.955 27.5141 55.3473 27.3044 55.7744 27.2195C56.2016 27.1346 56.6443 27.1783 57.0466 27.345C57.4489 27.5117 57.7928 27.794 58.0346 28.1561C58.2765 28.5182 58.4056 28.944 58.4055 29.3794C58.4047 29.9631 58.1724 30.5226 57.7597 30.9353C57.3469 31.348 56.7874 31.5801 56.2037 31.5808ZM56.2037 28.0443C55.9397 28.0443 55.6815 28.1227 55.462 28.2694C55.2424 28.4161 55.0713 28.6246 54.9702 28.8685C54.8692 29.1125 54.8428 29.3809 54.8943 29.6399C54.9458 29.8989 55.0729 30.1368 55.2597 30.3235C55.4464 30.5102 55.6843 30.6374 55.9433 30.6889C56.2022 30.7404 56.4707 30.714 56.7146 30.6129C56.9586 30.5119 57.1671 30.3407 57.3138 30.1212C57.4605 29.9016 57.5388 29.6435 57.5388 29.3794C57.5385 29.0255 57.3977 28.6861 57.1474 28.4358C56.8971 28.1855 56.5577 28.0447 56.2037 28.0443Z" fill="#1E1E1E"/>
<path d="M56.2068 39.3754C55.5439 39.3747 54.9083 39.1111 54.4394 38.6423C53.9706 38.1736 53.7069 37.538 53.7061 36.8751C53.7061 36.7601 53.7517 36.6499 53.833 36.5687C53.9142 36.4874 54.0245 36.4417 54.1394 36.4417C54.2543 36.4417 54.3645 36.4874 54.4458 36.5687C54.5271 36.6499 54.5727 36.7601 54.5727 36.8751C54.5736 37.1969 54.6697 37.5113 54.8491 37.7786C55.0284 38.0459 55.2829 38.254 55.5804 38.3768C55.878 38.4996 56.2052 38.5315 56.5208 38.4686C56.8365 38.4056 57.1264 38.2506 57.354 38.023C57.5816 37.7954 57.7368 37.5055 57.7998 37.1899C57.8629 36.8743 57.831 36.5471 57.7083 36.2495C57.5856 35.952 57.3775 35.6974 57.1103 35.518C56.8431 35.3386 56.5287 35.2423 56.2068 35.2414C56.0919 35.2414 55.9817 35.1957 55.9004 35.1145C55.8191 35.0332 55.7735 34.923 55.7735 34.8081V33.3196C55.7735 33.2046 55.8191 33.0944 55.9004 33.0132C55.9817 32.9319 56.0919 32.8862 56.2068 32.8862C56.3217 32.8862 56.432 32.9319 56.5132 33.0132C56.5945 33.0944 56.6402 33.2046 56.6402 33.3196V34.4129C57.254 34.5238 57.8042 34.86 58.1829 35.3556C58.5616 35.8512 58.7415 36.4704 58.6872 37.0918C58.633 37.7132 58.3485 38.2919 57.8896 38.7143C57.4307 39.1368 56.8306 39.3726 56.2068 39.3754Z" fill="#1E1E1E"/>
<path d="M10.987 33.7565H4.86009C4.74516 33.7565 4.63494 33.7108 4.55368 33.6296C4.47241 33.5483 4.42676 33.4381 4.42676 33.3231V27.1941C4.42676 27.0791 4.47241 26.9689 4.55368 26.8877C4.63494 26.8064 4.74516 26.7607 4.86009 26.7607H10.987C11.1019 26.7607 11.2121 26.8064 11.2934 26.8877C11.3747 26.9689 11.4203 27.0791 11.4203 27.1941V33.3231C11.4203 33.4381 11.3747 33.5483 11.2934 33.6296C11.2121 33.7108 11.1019 33.7565 10.987 33.7565ZM5.29342 32.8898H10.5537V27.6274H5.29342V32.8898Z" fill="#1E1E1E"/>
<path d="M7.92259 27.6274C7.80766 27.6274 7.69744 27.5818 7.61618 27.5005C7.53491 27.4193 7.48926 27.309 7.48926 27.1941V19.2234C7.48926 19.1084 7.53491 18.9982 7.61618 18.917C7.69744 18.8357 7.80766 18.79 7.92259 18.79C8.03752 18.79 8.14774 18.8357 8.229 18.917C8.31027 18.9982 8.35592 19.1084 8.35592 19.2234V27.1941C8.35592 27.309 8.31027 27.4193 8.229 27.5005C8.14774 27.5818 8.03752 27.6274 7.92259 27.6274Z" fill="#1E1E1E"/>
<path d="M58.263 60.6666H4.85814C4.74321 60.6666 4.63299 60.6209 4.55173 60.5397C4.47046 60.4584 4.4248 60.3482 4.4248 60.2332V56.1638C4.4248 56.0489 4.47046 55.9387 4.55173 55.8574C4.63299 55.7761 4.74321 55.7305 4.85814 55.7305H58.263C58.3779 55.7305 58.4882 55.7761 58.5694 55.8574C58.6507 55.9387 58.6963 56.0489 58.6963 56.1638V60.2332C58.6963 60.3482 58.6507 60.4584 58.5694 60.5397C58.4882 60.6209 58.3779 60.6666 58.263 60.6666ZM5.29147 59.7999H57.8297V56.5971H5.29147V59.7999Z" fill="#1E1E1E"/>
<path d="M47.9166 56.5975H34.3035C34.1885 56.5975 34.0783 56.5518 33.997 56.4705C33.9158 56.3893 33.8701 56.279 33.8701 56.1641V42.5505C33.8701 42.4356 33.9158 42.3254 33.997 42.2441C34.0783 42.1628 34.1885 42.1172 34.3035 42.1172H47.9166C48.0315 42.1172 48.1418 42.1628 48.223 42.2441C48.3043 42.3254 48.3499 42.4356 48.3499 42.5505V56.1641C48.3499 56.279 48.3043 56.3893 48.223 56.4705C48.1418 56.5518 48.0315 56.5975 47.9166 56.5975ZM34.7368 55.7308H47.4833V42.9839H34.7368V55.7308Z" fill="#1E1E1E"/>
<path d="M41.1091 46.1437C40.9942 46.1437 40.884 46.0981 40.8027 46.0168C40.7214 45.9355 40.6758 45.8253 40.6758 45.7104V42.5505C40.6758 42.4356 40.7214 42.3254 40.8027 42.2441C40.884 42.1628 40.9942 42.1172 41.1091 42.1172C41.224 42.1172 41.3343 42.1628 41.4155 42.2441C41.4968 42.3254 41.5424 42.4356 41.5424 42.5505V45.7104C41.5424 45.8253 41.4968 45.9355 41.4155 46.0168C41.3343 46.0981 41.224 46.1437 41.1091 46.1437Z" fill="#1E1E1E"/>
</svg>
