<svg width="36" height="36" viewBox="0 0 36 36" fill="none" xmlns="http://www.w3.org/2000/svg">
<path d="M14.8416 21.931H3.5184C3.21058 21.9188 2.92011 21.7852 2.71052 21.5594C2.50093 21.3337 2.38929 21.0341 2.4 20.7262V17.2824C2.38929 16.9746 2.50093 16.675 2.71052 16.4492C2.92011 16.2234 3.21058 16.0898 3.5184 16.0776H11.5248C11.5884 16.0776 11.6495 16.1029 11.6945 16.1479C11.7395 16.1929 11.7648 16.254 11.7648 16.3176C11.7648 16.3813 11.7395 16.4423 11.6945 16.4873C11.6495 16.5324 11.5884 16.5576 11.5248 16.5576H3.5184C3.33796 16.57 3.16969 16.653 3.05014 16.7888C2.9306 16.9245 2.86946 17.1019 2.88 17.2824V20.7262C2.86946 20.9067 2.9306 21.0842 3.05014 21.2199C3.16969 21.3556 3.33796 21.4387 3.5184 21.451H14.8416C14.9514 21.442 15.0533 21.3902 15.1251 21.3067C15.197 21.2232 15.2331 21.1148 15.2256 21.0048V17.9568C15.2256 17.8932 15.2509 17.8321 15.2959 17.7871C15.3409 17.7421 15.4019 17.7168 15.4656 17.7168C15.5292 17.7168 15.5903 17.7421 15.6353 17.7871C15.6803 17.8321 15.7056 17.8932 15.7056 17.9568V21.0048C15.7133 21.2421 15.6267 21.4727 15.4648 21.6463C15.3029 21.8199 15.0788 21.9222 14.8416 21.931Z" fill="#002F49"/>
<path d="M27.6677 21.931H16.0901C15.8529 21.9222 15.6288 21.8199 15.4668 21.6463C15.3049 21.4727 15.2183 21.2421 15.2261 21.0048V17.9568C15.2261 17.8932 15.2513 17.8321 15.2964 17.7871C15.3414 17.7421 15.4024 17.7168 15.4661 17.7168C15.5297 17.7168 15.5908 17.7421 15.6358 17.7871C15.6808 17.8321 15.7061 17.8932 15.7061 17.9568V21.0048C15.6986 21.1148 15.7347 21.2232 15.8065 21.3067C15.8784 21.3902 15.9803 21.442 16.0901 21.451H27.6677C27.7775 21.442 27.8793 21.3902 27.9512 21.3067C28.0231 21.2232 28.0592 21.1148 28.0517 21.0048V17.2824C28.0622 17.1019 28.0011 16.9245 27.8815 16.7888C27.762 16.653 27.5937 16.57 27.4133 16.5576H19.7237C19.66 16.5576 19.599 16.5324 19.554 16.4873C19.5089 16.4423 19.4837 16.3813 19.4837 16.3176C19.4837 16.254 19.5089 16.1929 19.554 16.1479C19.599 16.1029 19.66 16.0776 19.7237 16.0776H27.4133C27.7211 16.0898 28.0115 16.2234 28.2211 16.4492C28.4307 16.675 28.5424 16.9746 28.5317 17.2824V21.0048C28.5394 21.2421 28.4528 21.4727 28.2909 21.6463C28.129 21.8199 27.9049 21.9222 27.6677 21.931Z" fill="#002F49"/>
<path d="M32.4161 21.9305H28.9802C28.7253 21.921 28.4845 21.8109 28.3105 21.6244C28.1365 21.4378 28.0434 21.19 28.0517 20.935V17.354C28.0403 17.028 28.1584 16.7107 28.3803 16.4716C28.6022 16.2325 28.9096 16.0909 29.2356 16.0779H32.4161C32.742 16.0909 33.0495 16.2325 33.2713 16.4716C33.4932 16.7107 33.6113 17.028 33.6 17.354V20.6547C33.6113 20.9806 33.4932 21.2978 33.2713 21.5369C33.0495 21.776 32.742 21.9175 32.4161 21.9305ZM29.2356 16.5579C29.037 16.5711 28.8517 16.6621 28.7199 16.8112C28.5881 16.9602 28.5205 17.1553 28.5317 17.354V20.935C28.5235 21.0627 28.5661 21.1884 28.65 21.2849C28.734 21.3814 28.8526 21.4409 28.9802 21.4505H32.4161C32.6146 21.4374 32.7999 21.3465 32.9318 21.1974C33.0636 21.0484 33.1312 20.8533 33.12 20.6547V17.354C33.1312 17.1553 33.0636 16.9602 32.9318 16.8111C32.8 16.662 32.6146 16.571 32.4161 16.5579H29.2356Z" fill="#002F49"/>
<path d="M14.5867 32.6756H3.51911C3.21116 32.6635 2.92055 32.5299 2.71082 32.3041C2.5011 32.0783 2.38934 31.7786 2.39999 31.4706V28.0283C2.38934 27.7203 2.5011 27.4206 2.71082 27.1948C2.92055 26.9689 3.21116 26.8354 3.51911 26.8232H14.8421C15.0791 26.8318 15.3031 26.9339 15.465 27.1072C15.6269 27.2805 15.7136 27.5109 15.7061 27.748V31.4706C15.7167 31.7786 15.6049 32.0784 15.3951 32.3042C15.1854 32.53 14.8947 32.6636 14.5867 32.6756ZM3.51911 27.3032C3.33855 27.3155 3.17012 27.3986 3.05045 27.5343C2.93077 27.6701 2.86952 27.8476 2.87999 28.0283V31.4706C2.86952 31.6513 2.93077 31.8288 3.05045 31.9646C3.17012 32.1003 3.33855 32.1834 3.51911 32.1956H14.5867C14.7673 32.1834 14.9357 32.1003 15.0554 31.9646C15.175 31.8288 15.2363 31.6513 15.2258 31.4706V27.748C15.2332 27.6382 15.197 27.53 15.1251 27.4468C15.0532 27.3635 14.9515 27.312 14.8418 27.3032H3.51911Z" fill="#002F49"/>
<path d="M27.413 32.6756H16.3444C16.0365 32.6635 15.7459 32.5299 15.5361 32.3041C15.3264 32.0783 15.2147 31.7786 15.2253 31.4706V27.748C15.2178 27.5109 15.3045 27.2805 15.4664 27.1072C15.6283 26.9339 15.8523 26.8318 16.0893 26.8232H27.6674C27.9044 26.8318 28.1284 26.9338 28.2904 27.1072C28.4523 27.2805 28.539 27.5109 28.5314 27.748V31.4706C28.542 31.7785 28.4304 32.0781 28.2208 32.3039C28.0112 32.5297 27.7208 32.6633 27.413 32.6756ZM16.0903 27.3032C15.9806 27.312 15.8788 27.3635 15.807 27.4468C15.7351 27.53 15.6989 27.6382 15.7063 27.748V31.4706C15.6958 31.6513 15.7571 31.8288 15.8767 31.9646C15.9964 32.1003 16.1648 32.1834 16.3454 32.1956H27.413C27.5935 32.1834 27.762 32.1003 27.8816 31.9646C28.0013 31.8288 28.0626 31.6513 28.0521 31.4706V27.748C28.0595 27.6382 28.0233 27.53 27.9514 27.4468C27.8795 27.3635 27.7777 27.312 27.6681 27.3032H16.0903Z" fill="#002F49"/>
<path d="M32.4161 32.6756H29.2356C28.9097 32.6626 28.6022 32.5211 28.3803 32.2821C28.1585 32.043 28.0403 31.7258 28.0517 31.3998V27.819C28.0434 27.564 28.1364 27.3161 28.3104 27.1295C28.4844 26.9429 28.7252 26.8328 28.9802 26.8232H32.4161C32.742 26.8362 33.0495 26.9778 33.2713 27.2168C33.4932 27.4559 33.6113 27.7731 33.6 28.0991V31.3998C33.6113 31.7258 33.4932 32.043 33.2713 32.2821C33.0495 32.5211 32.742 32.6626 32.4161 32.6756ZM28.9802 27.3032C28.8526 27.3129 28.734 27.3725 28.65 27.469C28.566 27.5656 28.5235 27.6913 28.5317 27.819V31.3998C28.5205 31.5984 28.5881 31.7935 28.7199 31.9425C28.8518 32.0915 29.0371 32.1825 29.2356 32.1956H32.4161C32.6146 32.1825 32.7999 32.0916 32.9318 31.9426C33.0636 31.7935 33.1312 31.5985 33.12 31.3998V28.0991C33.1312 27.9004 33.0636 27.7054 32.9318 27.5563C32.7999 27.4073 32.6146 27.3163 32.4161 27.3032H28.9802Z" fill="#002F49"/>
<path d="M32.4814 27.3033H21.1584C20.9214 27.2947 20.6974 27.1925 20.5355 27.0192C20.3736 26.8458 20.2869 26.6154 20.2944 26.3784V22.3752C20.2869 22.1381 20.3736 21.9077 20.5355 21.7344C20.6974 21.5611 20.9214 21.459 21.1584 21.4504H32.4814C32.7894 21.4626 33.08 21.5963 33.2897 21.8222C33.4995 22.0481 33.6112 22.3479 33.6005 22.656V26.0985C33.611 26.4065 33.4992 26.7061 33.2895 26.9318C33.0798 27.1576 32.7892 27.2911 32.4814 27.3033ZM21.1584 21.9304C21.0488 21.9392 20.947 21.9907 20.8751 22.074C20.8032 22.1572 20.767 22.2654 20.7744 22.3752V26.3784C20.767 26.4881 20.8032 26.5964 20.8751 26.6796C20.947 26.7629 21.0487 26.8145 21.1584 26.8233H32.4814C32.6619 26.811 32.8304 26.7279 32.95 26.5921C33.0697 26.4563 33.131 26.2787 33.1205 26.098V22.656C33.1309 22.4753 33.0697 22.2978 32.95 22.162C32.8303 22.0262 32.6619 21.9432 32.4814 21.9309L21.1584 21.9304Z" fill="#002F49"/>
<path d="M19.9102 27.3033H8.33211C8.09505 27.2947 7.87104 27.1926 7.70911 27.0193C7.54718 26.8459 7.46053 26.6155 7.46811 26.3784V22.3752C7.46059 22.1381 7.54728 21.9077 7.7092 21.7344C7.87112 21.5611 8.09509 21.459 8.33211 21.4504H19.9102C20.1472 21.4591 20.3711 21.5612 20.533 21.7345C20.6949 21.9078 20.7816 22.1381 20.7742 22.3752V26.3784C20.7817 26.6154 20.695 26.8458 20.5331 27.0192C20.3712 27.1925 20.1472 27.2947 19.9102 27.3033ZM8.33211 21.9304C8.22248 21.9392 8.12069 21.9907 8.04881 22.074C7.97694 22.1572 7.94076 22.2654 7.94811 22.3752V26.3784C7.94075 26.4881 7.97693 26.5964 8.0488 26.6796C8.12067 26.7629 8.22245 26.8145 8.33211 26.8233H19.9102C20.0198 26.8145 20.1216 26.7629 20.1935 26.6796C20.2654 26.5964 20.3015 26.4881 20.2942 26.3784V22.3752C20.3015 22.2654 20.2654 22.1572 20.1935 22.074C20.1216 21.9907 20.0198 21.9392 19.9102 21.9304H8.33211Z" fill="#002F49"/>
<path d="M7.01974 27.3033H3.5839C3.25798 27.2903 2.95048 27.1487 2.72863 26.9096C2.50678 26.6705 2.38862 26.3532 2.39998 26.0272V22.7265C2.38862 22.4005 2.50678 22.0833 2.72863 21.8442C2.95048 21.6051 3.25798 21.4635 3.5839 21.4504H7.01974C7.27469 21.46 7.51549 21.5701 7.68949 21.7567C7.86349 21.9433 7.95654 22.1912 7.9483 22.4462V26.3076C7.95654 26.5626 7.86349 26.8104 7.68949 26.997C7.51549 27.1836 7.27469 27.2937 7.01974 27.3033ZM3.5839 21.9304C3.38534 21.9436 3.2 22.0346 3.06818 22.1837C2.93637 22.3328 2.86873 22.5278 2.87998 22.7265V26.0272C2.86873 26.2259 2.93637 26.421 3.06818 26.5701C3.2 26.7192 3.38534 26.8102 3.5839 26.8233H7.01974C7.14733 26.8137 7.26597 26.7541 7.34994 26.6576C7.43391 26.561 7.47643 26.4353 7.4683 26.3076V22.4462C7.47643 22.3185 7.43391 22.1928 7.34994 22.0962C7.26597 21.9997 7.14733 21.9401 7.01974 21.9304H3.5839Z" fill="#002F49"/>
<path d="M32.4809 16.5577H23.2409C22.933 16.5456 22.6423 16.412 22.4326 16.1862C22.2229 15.9604 22.1111 15.6607 22.1218 15.3527V11.6298C22.1143 11.3927 22.201 11.1624 22.3629 10.9891C22.5248 10.8158 22.7488 10.7137 22.9858 10.7051H32.4814C32.7892 10.7174 33.0797 10.851 33.2893 11.0768C33.4989 11.3026 33.6106 11.6022 33.6 11.9101V15.3527C33.6107 15.6607 33.4989 15.9604 33.2892 16.1862C33.0795 16.412 32.7889 16.5456 32.4809 16.5577ZM22.9853 11.1851C22.8757 11.1939 22.774 11.2454 22.7021 11.3287C22.6302 11.4119 22.594 11.5201 22.6013 11.6298V15.3527C22.5908 15.5334 22.6521 15.7109 22.7718 15.8466C22.8914 15.9824 23.0599 16.0654 23.2404 16.0777H32.4804C32.6611 16.0656 32.8296 15.9826 32.9494 15.8468C33.0692 15.711 33.1305 15.5334 33.12 15.3527V11.9101C33.1305 11.7294 33.0692 11.5519 32.9496 11.4162C32.8299 11.2804 32.6615 11.1974 32.4809 11.1851H22.9853Z" fill="#002F49"/>
<path d="M32.4157 11.1852H28.9798C28.7249 11.1756 28.4841 11.0656 28.3101 10.879C28.1361 10.6925 28.0431 10.4446 28.0513 10.1896V6.32828C28.043 6.07328 28.1361 5.82539 28.3101 5.6388C28.4841 5.45221 28.7249 5.34209 28.9798 5.33252H32.4157C32.7416 5.34558 33.0491 5.48714 33.271 5.72626C33.4928 5.96538 33.611 6.28261 33.5996 6.6086V9.90932C33.611 10.2353 33.4928 10.5525 33.2709 10.7916C33.0491 11.0306 32.7416 11.1722 32.4157 11.1852ZM28.9798 5.81252C28.8523 5.82218 28.7336 5.88174 28.6496 5.97828C28.5657 6.07483 28.5232 6.20058 28.5313 6.32828V10.1896C28.5232 10.3173 28.5657 10.443 28.6497 10.5395C28.7336 10.6361 28.8523 10.6956 28.9798 10.7052H32.4157C32.6142 10.6921 32.7996 10.6011 32.9314 10.4521C33.0632 10.303 33.1309 10.108 33.1196 9.90932V6.6086C33.1309 6.40992 33.0632 6.21484 32.9314 6.06576C32.7996 5.91668 32.6142 5.82567 32.4157 5.81252H28.9798Z" fill="#002F49"/>
<path d="M17.7341 18.561C16.6035 18.561 14.8128 18.201 12.0684 16.857C9.27363 15.489 8.17707 14.6219 8.02251 13.6628C7.84611 12.5687 8.92515 11.5117 10.7129 9.76044L10.9419 9.53628C10.9527 9.52569 10.9645 9.51613 10.9771 9.50772L11.0491 9.4338C12.8513 7.55172 13.9392 6.41532 15.048 6.58836C16.0188 6.73932 16.86 7.80732 18.2626 10.6703C21.1025 16.4639 19.5264 18.0239 19.458 18.0877C19.4314 18.1168 18.9905 18.561 17.7341 18.561ZM11.2404 9.91572L11.0484 10.1036C9.42963 11.6898 8.35971 12.7376 8.49603 13.5863C8.62011 14.3567 9.68091 15.153 12.2794 16.426C17.6703 19.0674 19.1062 17.7623 19.1194 17.7484C19.1417 17.7244 20.4787 16.2829 17.8323 10.8815C16.5444 8.25276 15.7443 7.18212 14.9763 7.0626C14.1154 6.92844 13.0908 7.99668 11.3957 9.76572L11.2884 9.8778C11.2741 9.89247 11.258 9.90521 11.2404 9.91572Z" fill="#002F49"/>
<path d="M10.6539 10.3943C10.5903 10.3942 10.5293 10.3689 10.4843 10.3239L9.7021 9.54177C9.65711 9.49677 9.63184 9.43573 9.63184 9.37209C9.63184 9.30845 9.65711 9.24742 9.7021 9.20241L10.604 8.30049C10.649 8.2555 10.7101 8.23022 10.7737 8.23022C10.8373 8.23022 10.8984 8.2555 10.9434 8.30049L11.7246 9.08193C11.7683 9.1272 11.7925 9.18782 11.7919 9.25075C11.7914 9.31368 11.7662 9.37387 11.7217 9.41837C11.6772 9.46287 11.617 9.48811 11.554 9.48866C11.4911 9.4892 11.4305 9.46501 11.3852 9.42129L10.7737 8.80953L10.2111 9.37209L10.8236 9.98409C10.8572 10.0177 10.88 10.0604 10.8893 10.107C10.8985 10.1535 10.8938 10.2018 10.8756 10.2456C10.8575 10.2895 10.8267 10.3269 10.7873 10.3533C10.7478 10.3797 10.7014 10.3938 10.6539 10.3938V10.3943Z" fill="#002F49"/>
<path d="M9.27574 9.9732C9.17383 9.97368 9.07284 9.95402 8.97856 9.91535C8.88428 9.87667 8.79858 9.81974 8.72638 9.74784L4.85398 5.87495C4.7802 5.80136 4.72214 5.71355 4.68332 5.61685C4.6445 5.52015 4.62572 5.41657 4.62814 5.31239C4.63186 5.10149 4.71801 4.90042 4.86814 4.75223L6.05686 3.56351C6.20413 3.41299 6.4051 3.32704 6.61568 3.32452C6.82625 3.322 7.02922 3.40312 7.18006 3.55007L11.0515 7.42271C11.1984 7.57351 11.2795 7.77641 11.2771 7.98692C11.2746 8.19744 11.1887 8.39838 11.0383 8.54567L9.84958 9.7344C9.77435 9.81001 9.68494 9.87003 9.58646 9.91101C9.48799 9.95199 9.3824 9.97312 9.27574 9.9732ZM6.62974 3.80519H6.62446C6.53823 3.80681 6.45609 3.84223 6.39574 3.90383L5.20678 5.09255C5.14537 5.15304 5.10998 5.2351 5.10814 5.32127C5.10695 5.3612 5.11391 5.40094 5.1286 5.43808C5.14329 5.47522 5.1654 5.50897 5.19358 5.53727L9.06574 9.40799C9.12651 9.46502 9.2074 9.49564 9.2907 9.49317C9.374 9.49069 9.45293 9.45532 9.51022 9.39479L10.6989 8.20608C10.7593 8.14877 10.7946 8.0699 10.7971 7.98668C10.7996 7.90345 10.769 7.82263 10.7121 7.76183L6.84046 3.88967C6.81276 3.86217 6.77986 3.84045 6.74368 3.82578C6.70751 3.81111 6.66877 3.80379 6.62974 3.80423V3.80519Z" fill="#002F49"/>
<path d="M6.7145 7.63671C6.66704 7.6367 6.62065 7.62262 6.58119 7.59624C6.54173 7.56987 6.51098 7.53239 6.49281 7.48854C6.47465 7.4447 6.4699 7.39645 6.47916 7.3499C6.48841 7.30335 6.51126 7.26059 6.54482 7.22703L8.53034 5.24127C8.55262 5.21897 8.57908 5.20128 8.6082 5.1892C8.63732 5.17713 8.66853 5.17091 8.70005 5.1709C8.73158 5.17089 8.76279 5.17709 8.79192 5.18914C8.82105 5.20119 8.84752 5.21886 8.86982 5.24115C8.89212 5.26343 8.90981 5.28989 8.92188 5.31901C8.93395 5.34813 8.94017 5.37934 8.94019 5.41086C8.9402 5.44239 8.934 5.4736 8.92195 5.50273C8.90989 5.53186 8.89222 5.55833 8.86994 5.58063L6.88418 7.56639C6.83918 7.6114 6.77814 7.63669 6.7145 7.63671Z" fill="#002F49"/>
<path d="M5.77022 6.6928C5.72276 6.69279 5.67637 6.6787 5.63691 6.65233C5.59745 6.62596 5.5667 6.58848 5.54854 6.54463C5.53038 6.50078 5.52563 6.45254 5.53488 6.40599C5.54414 6.35944 5.56699 6.31668 5.60054 6.28312L7.5863 4.2976C7.63157 4.25388 7.69219 4.22969 7.75512 4.23023C7.81805 4.23078 7.87824 4.25602 7.92274 4.30052C7.96724 4.34502 7.99248 4.40521 7.99302 4.46814C7.99357 4.53107 7.96938 4.59169 7.92566 4.63696L5.9399 6.62248C5.91768 6.64484 5.89124 6.66257 5.86211 6.67464C5.83298 6.68671 5.80175 6.69288 5.77022 6.6928Z" fill="#002F49"/>
<path d="M14.8416 21.931H3.5184C3.21058 21.9188 2.92011 21.7852 2.71052 21.5594C2.50093 21.3337 2.38929 21.0341 2.4 20.7262V17.2824C2.38929 16.9746 2.50093 16.675 2.71052 16.4492C2.92011 16.2234 3.21058 16.0898 3.5184 16.0776H11.5248C11.5884 16.0776 11.6495 16.1029 11.6945 16.1479C11.7395 16.1929 11.7648 16.254 11.7648 16.3176C11.7648 16.3813 11.7395 16.4423 11.6945 16.4873C11.6495 16.5324 11.5884 16.5576 11.5248 16.5576H3.5184C3.33796 16.57 3.16969 16.653 3.05014 16.7888C2.9306 16.9245 2.86946 17.1019 2.88 17.2824V20.7262C2.86946 20.9067 2.9306 21.0842 3.05014 21.2199C3.16969 21.3556 3.33796 21.4387 3.5184 21.451H14.8416C14.9514 21.442 15.0533 21.3902 15.1251 21.3067C15.197 21.2232 15.2331 21.1148 15.2256 21.0048V17.9568C15.2256 17.8932 15.2509 17.8321 15.2959 17.7871C15.3409 17.7421 15.4019 17.7168 15.4656 17.7168C15.5292 17.7168 15.5903 17.7421 15.6353 17.7871C15.6803 17.8321 15.7056 17.8932 15.7056 17.9568V21.0048C15.7133 21.2421 15.6267 21.4727 15.4648 21.6463C15.3029 21.8199 15.0788 21.9222 14.8416 21.931Z" fill="#002F49"/>
<path d="M27.6677 21.931H16.0901C15.8529 21.9222 15.6288 21.8199 15.4668 21.6463C15.3049 21.4727 15.2183 21.2421 15.2261 21.0048V17.9568C15.2261 17.8932 15.2513 17.8321 15.2964 17.7871C15.3414 17.7421 15.4024 17.7168 15.4661 17.7168C15.5297 17.7168 15.5908 17.7421 15.6358 17.7871C15.6808 17.8321 15.7061 17.8932 15.7061 17.9568V21.0048C15.6986 21.1148 15.7347 21.2232 15.8065 21.3067C15.8784 21.3902 15.9803 21.442 16.0901 21.451H27.6677C27.7775 21.442 27.8793 21.3902 27.9512 21.3067C28.0231 21.2232 28.0592 21.1148 28.0517 21.0048V17.2824C28.0622 17.1019 28.0011 16.9245 27.8815 16.7888C27.762 16.653 27.5937 16.57 27.4133 16.5576H19.7237C19.66 16.5576 19.599 16.5324 19.554 16.4873C19.5089 16.4423 19.4837 16.3813 19.4837 16.3176C19.4837 16.254 19.5089 16.1929 19.554 16.1479C19.599 16.1029 19.66 16.0776 19.7237 16.0776H27.4133C27.7211 16.0898 28.0115 16.2234 28.2211 16.4492C28.4307 16.675 28.5424 16.9746 28.5317 17.2824V21.0048C28.5394 21.2421 28.4528 21.4727 28.2909 21.6463C28.129 21.8199 27.9049 21.9222 27.6677 21.931Z" fill="#002F49"/>
<path d="M32.4161 21.9305H28.9802C28.7253 21.921 28.4845 21.8109 28.3105 21.6244C28.1365 21.4378 28.0434 21.19 28.0517 20.935V17.354C28.0403 17.028 28.1584 16.7107 28.3803 16.4716C28.6022 16.2325 28.9096 16.0909 29.2356 16.0779H32.4161C32.742 16.0909 33.0495 16.2325 33.2713 16.4716C33.4932 16.7107 33.6113 17.028 33.6 17.354V20.6547C33.6113 20.9806 33.4932 21.2978 33.2713 21.5369C33.0495 21.776 32.742 21.9175 32.4161 21.9305ZM29.2356 16.5579C29.037 16.5711 28.8517 16.6621 28.7199 16.8112C28.5881 16.9602 28.5205 17.1553 28.5317 17.354V20.935C28.5235 21.0627 28.5661 21.1884 28.65 21.2849C28.734 21.3814 28.8526 21.4409 28.9802 21.4505H32.4161C32.6146 21.4374 32.7999 21.3465 32.9318 21.1974C33.0636 21.0484 33.1312 20.8533 33.12 20.6547V17.354C33.1312 17.1553 33.0636 16.9602 32.9318 16.8111C32.8 16.662 32.6146 16.571 32.4161 16.5579H29.2356Z" fill="#002F49"/>
<path d="M14.5867 32.6756H3.51911C3.21116 32.6635 2.92055 32.5299 2.71082 32.3041C2.5011 32.0783 2.38934 31.7786 2.39999 31.4706V28.0283C2.38934 27.7203 2.5011 27.4206 2.71082 27.1948C2.92055 26.9689 3.21116 26.8354 3.51911 26.8232H14.8421C15.0791 26.8318 15.3031 26.9339 15.465 27.1072C15.6269 27.2805 15.7136 27.5109 15.7061 27.748V31.4706C15.7167 31.7786 15.6049 32.0784 15.3951 32.3042C15.1854 32.53 14.8947 32.6636 14.5867 32.6756ZM3.51911 27.3032C3.33855 27.3155 3.17012 27.3986 3.05045 27.5343C2.93077 27.6701 2.86952 27.8476 2.87999 28.0283V31.4706C2.86952 31.6513 2.93077 31.8288 3.05045 31.9646C3.17012 32.1003 3.33855 32.1834 3.51911 32.1956H14.5867C14.7673 32.1834 14.9357 32.1003 15.0554 31.9646C15.175 31.8288 15.2363 31.6513 15.2258 31.4706V27.748C15.2332 27.6382 15.197 27.53 15.1251 27.4468C15.0532 27.3635 14.9515 27.312 14.8418 27.3032H3.51911Z" fill="#002F49"/>
<path d="M27.413 32.6756H16.3444C16.0365 32.6635 15.7459 32.5299 15.5361 32.3041C15.3264 32.0783 15.2147 31.7786 15.2253 31.4706V27.748C15.2178 27.5109 15.3045 27.2805 15.4664 27.1072C15.6283 26.9339 15.8523 26.8318 16.0893 26.8232H27.6674C27.9044 26.8318 28.1284 26.9338 28.2904 27.1072C28.4523 27.2805 28.539 27.5109 28.5314 27.748V31.4706C28.542 31.7785 28.4304 32.0781 28.2208 32.3039C28.0112 32.5297 27.7208 32.6633 27.413 32.6756ZM16.0903 27.3032C15.9806 27.312 15.8788 27.3635 15.807 27.4468C15.7351 27.53 15.6989 27.6382 15.7063 27.748V31.4706C15.6958 31.6513 15.7571 31.8288 15.8767 31.9646C15.9964 32.1003 16.1648 32.1834 16.3454 32.1956H27.413C27.5935 32.1834 27.762 32.1003 27.8816 31.9646C28.0013 31.8288 28.0626 31.6513 28.0521 31.4706V27.748C28.0595 27.6382 28.0233 27.53 27.9514 27.4468C27.8795 27.3635 27.7777 27.312 27.6681 27.3032H16.0903Z" fill="#002F49"/>
<path d="M32.4161 32.6756H29.2356C28.9097 32.6626 28.6022 32.5211 28.3803 32.2821C28.1585 32.043 28.0403 31.7258 28.0517 31.3998V27.819C28.0434 27.564 28.1364 27.3161 28.3104 27.1295C28.4844 26.9429 28.7252 26.8328 28.9802 26.8232H32.4161C32.742 26.8362 33.0495 26.9778 33.2713 27.2168C33.4932 27.4559 33.6113 27.7731 33.6 28.0991V31.3998C33.6113 31.7258 33.4932 32.043 33.2713 32.2821C33.0495 32.5211 32.742 32.6626 32.4161 32.6756ZM28.9802 27.3032C28.8526 27.3129 28.734 27.3725 28.65 27.469C28.566 27.5656 28.5235 27.6913 28.5317 27.819V31.3998C28.5205 31.5984 28.5881 31.7935 28.7199 31.9425C28.8518 32.0915 29.0371 32.1825 29.2356 32.1956H32.4161C32.6146 32.1825 32.7999 32.0916 32.9318 31.9426C33.0636 31.7935 33.1312 31.5985 33.12 31.3998V28.0991C33.1312 27.9004 33.0636 27.7054 32.9318 27.5563C32.7999 27.4073 32.6146 27.3163 32.4161 27.3032H28.9802Z" fill="#002F49"/>
<path d="M32.4814 27.3033H21.1584C20.9214 27.2947 20.6974 27.1925 20.5355 27.0192C20.3736 26.8458 20.2869 26.6154 20.2944 26.3784V22.3752C20.2869 22.1381 20.3736 21.9077 20.5355 21.7344C20.6974 21.5611 20.9214 21.459 21.1584 21.4504H32.4814C32.7894 21.4626 33.08 21.5963 33.2897 21.8222C33.4995 22.0481 33.6112 22.3479 33.6005 22.656V26.0985C33.611 26.4065 33.4992 26.7061 33.2895 26.9318C33.0798 27.1576 32.7892 27.2911 32.4814 27.3033ZM21.1584 21.9304C21.0488 21.9392 20.947 21.9907 20.8751 22.074C20.8032 22.1572 20.767 22.2654 20.7744 22.3752V26.3784C20.767 26.4881 20.8032 26.5964 20.8751 26.6796C20.947 26.7629 21.0487 26.8145 21.1584 26.8233H32.4814C32.6619 26.811 32.8304 26.7279 32.95 26.5921C33.0697 26.4563 33.131 26.2787 33.1205 26.098V22.656C33.1309 22.4753 33.0697 22.2978 32.95 22.162C32.8303 22.0262 32.6619 21.9432 32.4814 21.9309L21.1584 21.9304Z" fill="#002F49"/>
<path d="M19.9102 27.3033H8.33211C8.09505 27.2947 7.87104 27.1926 7.70911 27.0193C7.54718 26.8459 7.46053 26.6155 7.46811 26.3784V22.3752C7.46059 22.1381 7.54728 21.9077 7.7092 21.7344C7.87112 21.5611 8.09509 21.459 8.33211 21.4504H19.9102C20.1472 21.4591 20.3711 21.5612 20.533 21.7345C20.6949 21.9078 20.7816 22.1381 20.7742 22.3752V26.3784C20.7817 26.6154 20.695 26.8458 20.5331 27.0192C20.3712 27.1925 20.1472 27.2947 19.9102 27.3033ZM8.33211 21.9304C8.22248 21.9392 8.12069 21.9907 8.04881 22.074C7.97694 22.1572 7.94076 22.2654 7.94811 22.3752V26.3784C7.94075 26.4881 7.97693 26.5964 8.0488 26.6796C8.12067 26.7629 8.22245 26.8145 8.33211 26.8233H19.9102C20.0198 26.8145 20.1216 26.7629 20.1935 26.6796C20.2654 26.5964 20.3015 26.4881 20.2942 26.3784V22.3752C20.3015 22.2654 20.2654 22.1572 20.1935 22.074C20.1216 21.9907 20.0198 21.9392 19.9102 21.9304H8.33211Z" fill="#002F49"/>
<path d="M7.01974 27.3033H3.5839C3.25798 27.2903 2.95048 27.1487 2.72863 26.9096C2.50678 26.6705 2.38862 26.3532 2.39998 26.0272V22.7265C2.38862 22.4005 2.50678 22.0833 2.72863 21.8442C2.95048 21.6051 3.25798 21.4635 3.5839 21.4504H7.01974C7.27469 21.46 7.51549 21.5701 7.68949 21.7567C7.86349 21.9433 7.95654 22.1912 7.9483 22.4462V26.3076C7.95654 26.5626 7.86349 26.8104 7.68949 26.997C7.51549 27.1836 7.27469 27.2937 7.01974 27.3033ZM3.5839 21.9304C3.38534 21.9436 3.2 22.0346 3.06818 22.1837C2.93637 22.3328 2.86873 22.5278 2.87998 22.7265V26.0272C2.86873 26.2259 2.93637 26.421 3.06818 26.5701C3.2 26.7192 3.38534 26.8102 3.5839 26.8233H7.01974C7.14733 26.8137 7.26597 26.7541 7.34994 26.6576C7.43391 26.561 7.47643 26.4353 7.4683 26.3076V22.4462C7.47643 22.3185 7.43391 22.1928 7.34994 22.0962C7.26597 21.9997 7.14733 21.9401 7.01974 21.9304H3.5839Z" fill="#002F49"/>
<path d="M32.4809 16.5577H23.2409C22.933 16.5456 22.6423 16.412 22.4326 16.1862C22.2229 15.9604 22.1111 15.6607 22.1218 15.3527V11.6298C22.1143 11.3927 22.201 11.1624 22.3629 10.9891C22.5248 10.8158 22.7488 10.7137 22.9858 10.7051H32.4814C32.7892 10.7174 33.0797 10.851 33.2893 11.0768C33.4989 11.3026 33.6106 11.6022 33.6 11.9101V15.3527C33.6107 15.6607 33.4989 15.9604 33.2892 16.1862C33.0795 16.412 32.7889 16.5456 32.4809 16.5577ZM22.9853 11.1851C22.8757 11.1939 22.774 11.2454 22.7021 11.3287C22.6302 11.4119 22.594 11.5201 22.6013 11.6298V15.3527C22.5908 15.5334 22.6521 15.7109 22.7718 15.8466C22.8914 15.9824 23.0599 16.0654 23.2404 16.0777H32.4804C32.6611 16.0656 32.8296 15.9826 32.9494 15.8468C33.0692 15.711 33.1305 15.5334 33.12 15.3527V11.9101C33.1305 11.7294 33.0692 11.5519 32.9496 11.4162C32.8299 11.2804 32.6615 11.1974 32.4809 11.1851H22.9853Z" fill="#002F49"/>
<path d="M32.4157 11.1852H28.9798C28.7249 11.1756 28.4841 11.0656 28.3101 10.879C28.1361 10.6925 28.0431 10.4446 28.0513 10.1896V6.32828C28.043 6.07328 28.1361 5.82539 28.3101 5.6388C28.4841 5.45221 28.7249 5.34209 28.9798 5.33252H32.4157C32.7416 5.34558 33.0491 5.48714 33.271 5.72626C33.4928 5.96538 33.611 6.28261 33.5996 6.6086V9.90932C33.611 10.2353 33.4928 10.5525 33.2709 10.7916C33.0491 11.0306 32.7416 11.1722 32.4157 11.1852ZM28.9798 5.81252C28.8523 5.82218 28.7336 5.88174 28.6496 5.97828C28.5657 6.07483 28.5232 6.20058 28.5313 6.32828V10.1896C28.5232 10.3173 28.5657 10.443 28.6497 10.5395C28.7336 10.6361 28.8523 10.6956 28.9798 10.7052H32.4157C32.6142 10.6921 32.7996 10.6011 32.9314 10.4521C33.0632 10.303 33.1309 10.108 33.1196 9.90932V6.6086C33.1309 6.40992 33.0632 6.21484 32.9314 6.06576C32.7996 5.91668 32.6142 5.82567 32.4157 5.81252H28.9798Z" fill="#002F49"/>
<path d="M17.7341 18.561C16.6035 18.561 14.8128 18.201 12.0684 16.857C9.27363 15.489 8.17707 14.6219 8.02251 13.6628C7.84611 12.5687 8.92515 11.5117 10.7129 9.76044L10.9419 9.53628C10.9527 9.52569 10.9645 9.51613 10.9771 9.50772L11.0491 9.4338C12.8513 7.55172 13.9392 6.41532 15.048 6.58836C16.0188 6.73932 16.86 7.80732 18.2626 10.6703C21.1025 16.4639 19.5264 18.0239 19.458 18.0877C19.4314 18.1168 18.9905 18.561 17.7341 18.561ZM11.2404 9.91572L11.0484 10.1036C9.42963 11.6898 8.35971 12.7376 8.49603 13.5863C8.62011 14.3567 9.68091 15.153 12.2794 16.426C17.6703 19.0674 19.1062 17.7623 19.1194 17.7484C19.1417 17.7244 20.4787 16.2829 17.8323 10.8815C16.5444 8.25276 15.7443 7.18212 14.9763 7.0626C14.1154 6.92844 13.0908 7.99668 11.3957 9.76572L11.2884 9.8778C11.2741 9.89247 11.258 9.90521 11.2404 9.91572Z" fill="#002F49"/>
<path d="M10.6539 10.3943C10.5903 10.3942 10.5293 10.3689 10.4843 10.3239L9.7021 9.54177C9.65711 9.49677 9.63184 9.43573 9.63184 9.37209C9.63184 9.30845 9.65711 9.24742 9.7021 9.20241L10.604 8.30049C10.649 8.2555 10.7101 8.23022 10.7737 8.23022C10.8373 8.23022 10.8984 8.2555 10.9434 8.30049L11.7246 9.08193C11.7683 9.1272 11.7925 9.18782 11.7919 9.25075C11.7914 9.31368 11.7662 9.37387 11.7217 9.41837C11.6772 9.46287 11.617 9.48811 11.554 9.48866C11.4911 9.4892 11.4305 9.46501 11.3852 9.42129L10.7737 8.80953L10.2111 9.37209L10.8236 9.98409C10.8572 10.0177 10.88 10.0604 10.8893 10.107C10.8985 10.1535 10.8938 10.2018 10.8756 10.2456C10.8575 10.2895 10.8267 10.3269 10.7873 10.3533C10.7478 10.3797 10.7014 10.3938 10.6539 10.3938V10.3943Z" fill="#002F49"/>
<path d="M9.27574 9.9732C9.17383 9.97368 9.07284 9.95402 8.97856 9.91535C8.88428 9.87667 8.79858 9.81974 8.72638 9.74784L4.85398 5.87495C4.7802 5.80136 4.72214 5.71355 4.68332 5.61685C4.6445 5.52015 4.62572 5.41657 4.62814 5.31239C4.63186 5.10149 4.71801 4.90042 4.86814 4.75223L6.05686 3.56351C6.20413 3.41299 6.4051 3.32704 6.61568 3.32452C6.82625 3.322 7.02922 3.40312 7.18006 3.55007L11.0515 7.42271C11.1984 7.57351 11.2795 7.77641 11.2771 7.98692C11.2746 8.19744 11.1887 8.39838 11.0383 8.54567L9.84958 9.7344C9.77435 9.81001 9.68494 9.87003 9.58646 9.91101C9.48799 9.95199 9.3824 9.97312 9.27574 9.9732ZM6.62974 3.80519H6.62446C6.53823 3.80681 6.45609 3.84223 6.39574 3.90383L5.20678 5.09255C5.14537 5.15304 5.10998 5.2351 5.10814 5.32127C5.10695 5.3612 5.11391 5.40094 5.1286 5.43808C5.14329 5.47522 5.1654 5.50897 5.19358 5.53727L9.06574 9.40799C9.12651 9.46502 9.2074 9.49564 9.2907 9.49317C9.374 9.49069 9.45293 9.45532 9.51022 9.39479L10.6989 8.20608C10.7593 8.14877 10.7946 8.0699 10.7971 7.98668C10.7996 7.90345 10.769 7.82263 10.7121 7.76183L6.84046 3.88967C6.81276 3.86217 6.77986 3.84045 6.74368 3.82578C6.70751 3.81111 6.66877 3.80379 6.62974 3.80423V3.80519Z" fill="#002F49"/>
<path d="M6.7145 7.63671C6.66704 7.6367 6.62065 7.62262 6.58119 7.59624C6.54173 7.56987 6.51098 7.53239 6.49281 7.48854C6.47465 7.4447 6.4699 7.39645 6.47916 7.3499C6.48841 7.30335 6.51126 7.26059 6.54482 7.22703L8.53034 5.24127C8.55262 5.21897 8.57908 5.20128 8.6082 5.1892C8.63732 5.17713 8.66853 5.17091 8.70005 5.1709C8.73158 5.17089 8.76279 5.17709 8.79192 5.18914C8.82105 5.20119 8.84752 5.21886 8.86982 5.24115C8.89212 5.26343 8.90981 5.28989 8.92188 5.31901C8.93395 5.34813 8.94017 5.37934 8.94019 5.41086C8.9402 5.44239 8.934 5.4736 8.92195 5.50273C8.90989 5.53186 8.89222 5.55833 8.86994 5.58063L6.88418 7.56639C6.83918 7.6114 6.77814 7.63669 6.7145 7.63671Z" fill="#002F49"/>
<path d="M5.77022 6.6928C5.72276 6.69279 5.67637 6.6787 5.63691 6.65233C5.59745 6.62596 5.5667 6.58848 5.54854 6.54463C5.53038 6.50078 5.52563 6.45254 5.53488 6.40599C5.54414 6.35944 5.56699 6.31668 5.60054 6.28312L7.5863 4.2976C7.63157 4.25388 7.69219 4.22969 7.75512 4.23023C7.81805 4.23078 7.87824 4.25602 7.92274 4.30052C7.96724 4.34502 7.99248 4.40521 7.99302 4.46814C7.99357 4.53107 7.96938 4.59169 7.92566 4.63696L5.9399 6.62248C5.91768 6.64484 5.89124 6.66257 5.86211 6.67464C5.83298 6.68671 5.80175 6.69288 5.77022 6.6928Z" fill="#002F49"/>
</svg>
