<svg width="36" height="36" viewBox="0 0 36 36" fill="none" xmlns="http://www.w3.org/2000/svg">
<path d="M4.66143 20.6339C4.21424 20.6339 3.77709 20.5013 3.40527 20.2528C3.03344 20.0044 2.74364 19.6513 2.5725 19.2381C2.40137 18.825 2.35659 18.3704 2.44384 17.9318C2.53108 17.4932 2.74642 17.0903 3.06264 16.7741C3.37885 16.4578 3.78173 16.2425 4.22032 16.1553C4.65892 16.068 5.11354 16.1128 5.52669 16.2839C5.93985 16.4551 6.29297 16.7449 6.54142 17.1167C6.78986 17.4885 6.92247 17.9257 6.92247 18.3729C6.92184 18.9723 6.68342 19.5471 6.25953 19.971C5.83564 20.3948 5.2609 20.6333 4.66143 20.6339ZM4.66143 16.5918C4.30918 16.5918 3.96483 16.6963 3.67194 16.892C3.37905 17.0877 3.15077 17.3658 3.01597 17.6913C2.88116 18.0167 2.84589 18.3748 2.91461 18.7203C2.98334 19.0658 3.15296 19.3832 3.40205 19.6322C3.65113 19.8813 3.96848 20.051 4.31397 20.1197C4.65946 20.1884 5.01756 20.1531 5.34301 20.0183C5.66845 19.8835 5.94661 19.6552 6.14231 19.3624C6.33802 19.0695 6.44247 18.7251 6.44247 18.3729C6.44196 17.9007 6.25416 17.4479 5.92026 17.114C5.58636 16.7801 5.13364 16.5923 4.66143 16.5918Z" fill="#1E1E1E"/>
<path d="M4.66136 19.4213C4.45403 19.4213 4.25138 19.3598 4.07901 19.2446C3.90665 19.1293 3.77232 18.9656 3.69301 18.774C3.6137 18.5825 3.59298 18.3717 3.63345 18.1684C3.67393 17.965 3.77379 17.7783 3.92041 17.6317C4.06703 17.4851 4.25383 17.3853 4.45717 17.3448C4.66052 17.3044 4.87129 17.3252 5.06283 17.4045C5.25437 17.4839 5.41808 17.6182 5.53326 17.7906C5.64844 17.963 5.70992 18.1657 5.70992 18.373C5.7096 18.651 5.59902 18.9175 5.40244 19.114C5.20586 19.3106 4.93934 19.4211 4.66136 19.4213ZM4.66136 17.8047C4.54897 17.8048 4.43911 17.8381 4.34569 17.9006C4.25226 17.9631 4.17945 18.0519 4.13647 18.1557C4.0935 18.2596 4.08228 18.3738 4.10423 18.484C4.12619 18.5943 4.18033 18.6955 4.25982 18.775C4.33931 18.8544 4.44058 18.9085 4.55082 18.9304C4.66105 18.9524 4.77531 18.9411 4.87914 18.8981C4.98298 18.855 5.07172 18.7822 5.13416 18.6887C5.1966 18.5953 5.22992 18.4854 5.22992 18.373C5.22979 18.2223 5.16984 18.0778 5.06324 17.9712C4.95663 17.8647 4.81209 17.8048 4.66136 17.8047Z" fill="#1E1E1E"/>
<path d="M29.8152 14.1056C29.8027 14.1056 29.7912 14.1056 29.7775 14.1044C29.6857 14.0978 29.5975 14.0658 29.5229 14.0118C29.4483 13.9579 29.3902 13.8843 29.3551 13.7992L25.2715 3.98124C25.2348 3.89296 25.2243 3.79597 25.2413 3.70188C25.2583 3.60779 25.302 3.52059 25.3673 3.45071C25.4325 3.38082 25.5165 3.33122 25.6092 3.30784C25.7019 3.28445 25.7994 3.28827 25.89 3.31884L29.394 4.50132C29.4261 4.51226 29.4556 4.5299 29.4804 4.55307C29.5052 4.57624 29.5249 4.60441 29.538 4.63572L32.0642 10.6484C32.0788 10.6832 32.0849 10.7208 32.0822 10.7583C32.0795 10.7958 32.068 10.8322 32.0486 10.8644L30.2395 13.8649C30.1957 13.9383 30.1335 13.9991 30.0591 14.0413C29.9848 14.0835 29.9007 14.1057 29.8152 14.1056ZM29.7984 13.6148L29.8296 13.6172L31.5751 10.7219L29.1382 4.92156L25.7369 3.77364L25.715 3.79764L29.7984 13.6156V13.6148Z" fill="#1E1E1E"/>
<path d="M30.1603 11.79C30.113 11.79 30.0667 11.776 30.0272 11.7497C29.9878 11.7234 29.9571 11.6861 29.9388 11.6424L27.1767 5.03998C27.1638 5.01078 27.1569 4.97931 27.1563 4.9474C27.1557 4.91549 27.1615 4.88379 27.1733 4.85415C27.1852 4.82452 27.2028 4.79753 27.2252 4.77479C27.2476 4.75204 27.2743 4.73399 27.3037 4.72168C27.3332 4.70938 27.3648 4.70307 27.3967 4.70313C27.4286 4.70318 27.4602 4.7096 27.4896 4.72201C27.519 4.73442 27.5456 4.75257 27.5679 4.77539C27.5902 4.79822 27.6077 4.82526 27.6195 4.85494L30.3816 11.4571C30.3969 11.4936 30.4029 11.5332 30.3991 11.5726C30.3954 11.6119 30.3819 11.6498 30.36 11.6827C30.3382 11.7156 30.3085 11.7426 30.2736 11.7613C30.2388 11.7799 30.1999 11.79 30.1603 11.79Z" fill="#1E1E1E"/>
<path d="M5.89395 17.0113C5.83633 17.0117 5.78049 16.9913 5.73664 16.9539C5.69279 16.9166 5.66385 16.8647 5.65512 16.8077C5.64638 16.7507 5.65843 16.6925 5.68906 16.6437C5.71969 16.5949 5.76686 16.5588 5.82195 16.5419L14.8359 12.8939C14.8651 12.8818 14.8965 12.8756 14.9282 12.8757C14.9598 12.8758 14.9911 12.8822 15.0203 12.8945C15.0495 12.9067 15.076 12.9246 15.0982 12.9472C15.1204 12.9697 15.138 12.9964 15.1499 13.0257C15.1617 13.0551 15.1677 13.0865 15.1674 13.1181C15.1671 13.1498 15.1605 13.1811 15.148 13.2102C15.1356 13.2393 15.1175 13.2656 15.0948 13.2877C15.0721 13.3098 15.0453 13.3272 15.0159 13.3388L5.98467 16.994C5.95584 17.0056 5.92503 17.0115 5.89395 17.0113Z" fill="#1E1E1E"/>
<path d="M18.1611 12.0457C18.1054 12.0457 18.0514 12.0264 18.0084 11.991C17.9654 11.9556 17.936 11.9063 17.9253 11.8516C17.9147 11.797 17.9234 11.7403 17.9499 11.6913C17.9765 11.6423 18.0192 11.6041 18.0709 11.5832L27.1647 7.90159C27.1939 7.88976 27.2252 7.88379 27.2567 7.88404C27.2882 7.88429 27.3194 7.89074 27.3484 7.90303C27.3775 7.91532 27.4038 7.93321 27.4259 7.95567C27.448 7.97814 27.4655 8.00474 27.4773 8.03395C27.4892 8.06317 27.4951 8.09443 27.4949 8.12595C27.4946 8.15747 27.4882 8.18864 27.4759 8.21767C27.4636 8.24669 27.4457 8.27302 27.4232 8.29513C27.4008 8.31725 27.3742 8.33472 27.345 8.34655L18.2511 12.0282C18.2225 12.0398 18.192 12.0457 18.1611 12.0457Z" fill="#1E1E1E"/>
<path d="M6.65999 18.9C6.60423 18.9001 6.55021 18.8807 6.50719 18.8452C6.46417 18.8097 6.43485 18.7604 6.42426 18.7056C6.41367 18.6509 6.42247 18.5942 6.44915 18.5452C6.47583 18.4962 6.51873 18.4581 6.57047 18.4373L16.1054 14.6048C16.1348 14.5919 16.1665 14.5851 16.1986 14.5847C16.2307 14.5844 16.2625 14.5904 16.2922 14.6025C16.3219 14.6147 16.3489 14.6326 16.3715 14.6554C16.3942 14.6781 16.412 14.7052 16.424 14.7349C16.436 14.7647 16.442 14.7965 16.4414 14.8286C16.4409 14.8607 16.434 14.8924 16.421 14.9217C16.408 14.9511 16.3893 14.9775 16.3659 14.9995C16.3426 15.0215 16.315 15.0386 16.285 15.0497L6.74951 18.8828C6.72105 18.8942 6.69066 18.9001 6.65999 18.9Z" fill="#1E1E1E"/>
<path d="M19.5504 13.7186C19.4945 13.7188 19.4404 13.6995 19.3972 13.664C19.3541 13.6285 19.3247 13.5791 19.3141 13.5242C19.3035 13.4694 19.3123 13.4125 19.3391 13.3635C19.3659 13.3145 19.409 13.2764 19.4609 13.2557L27.9713 9.83568C28.0005 9.82392 28.0318 9.81804 28.0633 9.81837C28.0948 9.8187 28.126 9.82524 28.155 9.83761C28.184 9.84998 28.2103 9.86794 28.2323 9.89046C28.2544 9.91298 28.2718 9.93963 28.2835 9.96888C28.2953 9.99812 28.3012 10.0294 28.3008 10.0609C28.3005 10.0924 28.294 10.1236 28.2816 10.1526C28.2692 10.1816 28.2513 10.2079 28.2287 10.2299C28.2062 10.252 28.1796 10.2694 28.1503 10.2811L19.6399 13.7011C19.6115 13.7126 19.5811 13.7185 19.5504 13.7186Z" fill="#1E1E1E"/>
<path d="M33.3604 32.7078H2.64039C2.57674 32.7078 2.51569 32.6825 2.47069 32.6375C2.42568 32.5925 2.40039 32.5314 2.40039 32.4678C2.40039 32.4041 2.42568 32.3431 2.47069 32.2981C2.51569 32.2531 2.57674 32.2278 2.64039 32.2278H33.3604C33.424 32.2278 33.4851 32.2531 33.5301 32.2981C33.5751 32.3431 33.6004 32.4041 33.6004 32.4678C33.6004 32.5314 33.5751 32.5925 33.5301 32.6375C33.4851 32.6825 33.424 32.7078 33.3604 32.7078Z" fill="#1E1E1E"/>
<path d="M32.4504 32.7077H26.8603C26.5555 32.7077 26.2632 32.5866 26.0476 32.371C25.8321 32.1555 25.711 31.8631 25.711 31.5583C25.711 31.2535 25.8321 30.9611 26.0476 30.7456C26.2632 30.53 26.5555 30.4089 26.8603 30.4089H32.4504C32.7552 30.4089 33.0476 30.53 33.2631 30.7456C33.4787 30.9611 33.5998 31.2535 33.5998 31.5583C33.5998 31.8631 33.4787 32.1555 33.2631 32.371C33.0476 32.5866 32.7552 32.7077 32.4504 32.7077ZM26.8603 30.888C26.6828 30.888 26.5125 30.9585 26.387 31.084C26.2615 31.2096 26.191 31.3798 26.191 31.5573C26.191 31.7349 26.2615 31.9051 26.387 32.0306C26.5125 32.1562 26.6828 32.2267 26.8603 32.2267H32.4504C32.6279 32.2267 32.7982 32.1562 32.9237 32.0306C33.0492 31.9051 33.1198 31.7349 33.1198 31.5573C33.1198 31.3798 33.0492 31.2096 32.9237 31.084C32.7982 30.9585 32.6279 30.888 32.4504 30.888H26.8603Z" fill="#1E1E1E"/>
<path d="M30.7646 30.8881H28.5086C28.4449 30.8881 28.3839 30.8628 28.3388 30.8178C28.2938 30.7728 28.2686 30.7118 28.2686 30.6481V29.5201C28.2686 29.1573 28.4127 28.8093 28.6692 28.5528C28.9258 28.2962 29.2737 28.1521 29.6366 28.1521C29.9994 28.1521 30.3473 28.2962 30.6039 28.5528C30.8604 28.8093 31.0046 29.1573 31.0046 29.5201V30.6481C31.0046 30.7118 30.9793 30.7728 30.9343 30.8178C30.8893 30.8628 30.8282 30.8881 30.7646 30.8881ZM28.7486 30.4081H30.5246V29.5201C30.5246 29.2846 30.431 29.0587 30.2645 28.8922C30.0979 28.7257 29.8721 28.6321 29.6366 28.6321C29.401 28.6321 29.1752 28.7257 29.0086 28.8922C28.8421 29.0587 28.7486 29.2846 28.7486 29.5201V30.4081Z" fill="#1E1E1E"/>
<path d="M29.6375 28.6331C29.5738 28.6331 29.5128 28.6078 29.4678 28.5628C29.4227 28.5178 29.3975 28.4568 29.3975 28.3931V13.707C29.3975 13.6434 29.4227 13.5823 29.4678 13.5373C29.5128 13.4923 29.5738 13.467 29.6375 13.467C29.7011 13.467 29.7622 13.4923 29.8072 13.5373C29.8522 13.5823 29.8775 13.6434 29.8775 13.707V28.3931C29.8775 28.4568 29.8522 28.5178 29.8072 28.5628C29.7622 28.6078 29.7011 28.6331 29.6375 28.6331Z" fill="#1E1E1E"/>
<path d="M6.66567 32.7078H2.64039C2.57674 32.7078 2.51569 32.6825 2.47069 32.6375C2.42568 32.5925 2.40039 32.5314 2.40039 32.4678V28.8301C2.40039 28.7664 2.42568 28.7054 2.47069 28.6604C2.51569 28.6154 2.57674 28.5901 2.64039 28.5901H6.66567C6.72932 28.5901 6.79037 28.6154 6.83538 28.6604C6.88039 28.7054 6.90567 28.7664 6.90567 28.8301V32.4678C6.90567 32.5314 6.88039 32.5925 6.83538 32.6375C6.79037 32.6825 6.72932 32.7078 6.66567 32.7078ZM2.88039 32.2278H6.42567V29.0701H2.88039V32.2278Z" fill="#1E1E1E"/>
<path d="M5.71991 29.07H3.58583C3.52217 29.07 3.46113 29.0448 3.41612 28.9998C3.37111 28.9547 3.34583 28.8937 3.34583 28.83V28.608C3.34621 28.2988 3.46924 28.0022 3.68795 27.7835C3.90665 27.5648 4.20317 27.4418 4.51247 27.4414H4.79351C5.10278 27.4418 5.39927 27.5648 5.61794 27.7835C5.83661 28.0023 5.95959 28.2988 5.95991 28.608V28.8296C5.95997 28.8611 5.95381 28.8924 5.94177 28.9216C5.92974 28.9507 5.91207 28.9772 5.88978 28.9996C5.86749 29.0219 5.84101 29.0396 5.81186 29.0517C5.78271 29.0638 5.75146 29.07 5.71991 29.07ZM3.82607 28.59H5.47991C5.47479 28.4113 5.40027 28.2416 5.27213 28.1168C5.144 27.9921 4.97232 27.9222 4.79351 27.9219H4.51199C4.33325 27.9223 4.1617 27.9923 4.03367 28.117C3.90564 28.2417 3.83118 28.4114 3.82607 28.59Z" fill="#1E1E1E"/>
<path d="M6.66505 32.7078C6.60569 32.7078 6.54844 32.6858 6.50449 32.6459L2.47921 29.0079C2.45453 28.9872 2.43429 28.9617 2.41968 28.9329C2.40508 28.9042 2.39642 28.8728 2.39421 28.8407C2.392 28.8085 2.3963 28.7762 2.40684 28.7457C2.41738 28.7153 2.43396 28.6872 2.45557 28.6633C2.47719 28.6394 2.5034 28.6201 2.53264 28.6065C2.56189 28.5929 2.59357 28.5854 2.62579 28.5844C2.65801 28.5833 2.69012 28.5887 2.72019 28.6004C2.75026 28.612 2.77768 28.6296 2.80081 28.652L6.82609 32.2899C6.862 32.3225 6.88722 32.3651 6.89843 32.4123C6.90963 32.4594 6.9063 32.5089 6.88887 32.5541C6.87145 32.5993 6.84074 32.6382 6.80078 32.6656C6.76083 32.6931 6.71351 32.7078 6.66505 32.7078Z" fill="#1E1E1E"/>
<path d="M4.66105 27.9219C4.5974 27.9219 4.53635 27.8966 4.49135 27.8516C4.44634 27.8066 4.42105 27.7455 4.42105 27.6819V20.3941C4.42105 20.3304 4.44634 20.2694 4.49135 20.2243C4.53635 20.1793 4.5974 20.1541 4.66105 20.1541C4.7247 20.1541 4.78575 20.1793 4.83076 20.2243C4.87577 20.2694 4.90105 20.3304 4.90105 20.3941V27.6819C4.90105 27.7455 4.87577 27.8066 4.83076 27.8516C4.78575 27.8966 4.7247 27.9219 4.66105 27.9219Z" fill="#1E1E1E"/>
<path d="M20.943 32.7077H13.4531C13.4186 32.7078 13.3845 32.7004 13.3531 32.686C13.3217 32.6717 13.2938 32.6507 13.2713 32.6246C13.2487 32.5985 13.2321 32.5679 13.2224 32.5348C13.2128 32.5016 13.2104 32.4668 13.2155 32.4327L15.8348 14.6677C15.8441 14.6047 15.878 14.548 15.9292 14.51C15.9803 14.472 16.0444 14.4559 16.1073 14.4652C16.1703 14.4745 16.227 14.5084 16.265 14.5596C16.303 14.6107 16.3191 14.6748 16.3098 14.7377L13.731 32.2277H20.6643L18.0903 14.7377C18.0811 14.6748 18.0972 14.6107 18.1352 14.5596C18.1732 14.5085 18.2299 14.4746 18.2929 14.4653C18.3559 14.4561 18.42 14.4722 18.4711 14.5102C18.5221 14.5482 18.556 14.6049 18.5653 14.6679L21.1813 32.4329C21.1863 32.467 21.1839 32.5018 21.1743 32.5349C21.1646 32.5679 21.148 32.5985 21.1255 32.6246C21.1029 32.6507 21.0751 32.6716 21.0438 32.6859C21.0124 32.7003 20.9784 32.7077 20.9439 32.7077H20.943Z" fill="#1E1E1E"/>
<path d="M17.1981 16.0706C17.1345 16.0706 17.0735 16.0453 17.0285 16.0003L14.5341 13.506C14.4891 13.461 14.4639 13.4 14.4639 13.3363C14.4639 13.2727 14.4891 13.2117 14.5341 13.1666L17.0285 10.6726C17.0735 10.6276 17.1345 10.6023 17.1981 10.6023C17.2618 10.6023 17.3228 10.6276 17.3678 10.6726L19.8621 13.1666C19.9071 13.2117 19.9324 13.2727 19.9324 13.3363C19.9324 13.4 19.9071 13.461 19.8621 13.506L17.3678 16.0003C17.3228 16.0453 17.2618 16.0706 17.1981 16.0706ZM15.0432 13.3363L17.1981 15.4913L19.3531 13.3363L17.1981 11.1816L15.0432 13.3363Z" fill="#1E1E1E"/>
<path d="M13.4527 32.7078C13.4029 32.7077 13.3543 32.6922 13.3137 32.6633C13.2731 32.6344 13.2425 32.5936 13.2262 32.5465C13.2098 32.4995 13.2085 32.4485 13.2225 32.4007C13.2364 32.3528 13.2648 32.3105 13.3039 32.2796L19.7839 27.1575L14.7393 22.8704C14.713 22.8479 14.6918 22.8199 14.6772 22.7884C14.6627 22.7569 14.6552 22.7226 14.6552 22.6879C14.6552 22.6532 14.6627 22.6189 14.6772 22.5874C14.6918 22.5559 14.713 22.5279 14.7393 22.5054L18.6331 19.1694L15.696 16.2812C15.6717 16.2596 15.6521 16.2333 15.6383 16.2038C15.6246 16.1744 15.6169 16.1425 15.6158 16.11C15.6148 16.0775 15.6203 16.0452 15.6321 16.0149C15.6439 15.9846 15.6617 15.957 15.6845 15.9339C15.7073 15.9107 15.7345 15.8924 15.7646 15.88C15.7946 15.8677 15.8269 15.8616 15.8594 15.8621C15.8919 15.8626 15.9239 15.8697 15.9536 15.8829C15.9833 15.8962 16.0099 15.9153 16.032 15.9392L19.1541 19.0112C19.1779 19.0345 19.1965 19.0625 19.2089 19.0934C19.2212 19.1242 19.227 19.1574 19.2259 19.1906C19.2247 19.2238 19.2167 19.2565 19.2023 19.2865C19.1879 19.3164 19.1674 19.3431 19.1421 19.3647L15.264 22.6868L20.3167 26.9811C20.3438 27.0041 20.3654 27.0328 20.3801 27.0652C20.3947 27.0976 20.402 27.1328 20.4014 27.1683C20.4008 27.2038 20.3923 27.2388 20.3765 27.2706C20.3607 27.3024 20.3381 27.3304 20.3102 27.3524L13.601 32.6564C13.5587 32.6897 13.5065 32.7077 13.4527 32.7078Z" fill="#1E1E1E"/>
<path d="M20.9277 32.7076C20.8737 32.7076 20.8213 32.6894 20.7789 32.656L14.0697 27.352C14.0418 27.3299 14.0192 27.302 14.0034 27.2702C13.9877 27.2383 13.9792 27.2034 13.9786 27.1679C13.9779 27.1323 13.9852 27.0971 13.9998 27.0648C14.0145 27.0324 14.0361 27.0037 14.0632 26.9807L19.1155 22.6866L15.2371 19.3636C15.2118 19.342 15.1913 19.3153 15.1769 19.2854C15.1624 19.2554 15.1544 19.2227 15.1532 19.1895C15.1521 19.1563 15.1578 19.1231 15.1702 19.0923C15.1825 19.0614 15.2011 19.0334 15.2248 19.0101L18.3472 15.9381C18.3932 15.897 18.4533 15.8753 18.5149 15.8773C18.5765 15.8794 18.6349 15.905 18.6781 15.949C18.7213 15.993 18.746 16.0519 18.7469 16.1135C18.7479 16.1751 18.725 16.2348 18.6832 16.2801L15.7478 19.1692L19.6415 22.5052C19.6679 22.5277 19.6891 22.5557 19.7036 22.5872C19.7182 22.6187 19.7257 22.653 19.7257 22.6877C19.7257 22.7224 19.7182 22.7567 19.7036 22.7882C19.6891 22.8197 19.6679 22.8477 19.6415 22.8702L14.5965 27.1573L21.0765 32.2794C21.1156 32.3103 21.144 32.3527 21.158 32.4005C21.1719 32.4483 21.1706 32.4993 21.1542 32.5464C21.1379 32.5934 21.1073 32.6342 21.0667 32.6631C21.0261 32.692 20.9775 32.7075 20.9277 32.7076Z" fill="#1E1E1E"/>
<path d="M4.66143 20.6339C4.21424 20.6339 3.77709 20.5013 3.40527 20.2528C3.03344 20.0044 2.74364 19.6513 2.5725 19.2381C2.40137 18.825 2.35659 18.3704 2.44384 17.9318C2.53108 17.4932 2.74642 17.0903 3.06264 16.7741C3.37885 16.4578 3.78173 16.2425 4.22032 16.1553C4.65892 16.068 5.11354 16.1128 5.52669 16.2839C5.93985 16.4551 6.29297 16.7449 6.54142 17.1167C6.78986 17.4885 6.92247 17.9257 6.92247 18.3729C6.92184 18.9723 6.68342 19.5471 6.25953 19.971C5.83564 20.3948 5.2609 20.6333 4.66143 20.6339ZM4.66143 16.5918C4.30918 16.5918 3.96483 16.6963 3.67194 16.892C3.37905 17.0877 3.15077 17.3658 3.01597 17.6913C2.88116 18.0167 2.84589 18.3748 2.91461 18.7203C2.98334 19.0658 3.15296 19.3832 3.40205 19.6322C3.65113 19.8813 3.96848 20.051 4.31397 20.1197C4.65946 20.1884 5.01756 20.1531 5.34301 20.0183C5.66845 19.8835 5.94661 19.6552 6.14231 19.3624C6.33802 19.0695 6.44247 18.7251 6.44247 18.3729C6.44196 17.9007 6.25416 17.4479 5.92026 17.114C5.58636 16.7801 5.13364 16.5923 4.66143 16.5918Z" fill="#1E1E1E"/>
<path d="M4.66136 19.4213C4.45403 19.4213 4.25138 19.3598 4.07901 19.2446C3.90665 19.1293 3.77232 18.9656 3.69301 18.774C3.6137 18.5825 3.59298 18.3717 3.63345 18.1684C3.67393 17.965 3.77379 17.7783 3.92041 17.6317C4.06703 17.4851 4.25383 17.3853 4.45717 17.3448C4.66052 17.3044 4.87129 17.3252 5.06283 17.4045C5.25437 17.4839 5.41808 17.6182 5.53326 17.7906C5.64844 17.963 5.70992 18.1657 5.70992 18.373C5.7096 18.651 5.59902 18.9175 5.40244 19.114C5.20586 19.3106 4.93934 19.4211 4.66136 19.4213ZM4.66136 17.8047C4.54897 17.8048 4.43911 17.8381 4.34569 17.9006C4.25226 17.9631 4.17945 18.0519 4.13647 18.1557C4.0935 18.2596 4.08228 18.3738 4.10423 18.484C4.12619 18.5943 4.18033 18.6955 4.25982 18.775C4.33931 18.8544 4.44058 18.9085 4.55082 18.9304C4.66105 18.9524 4.77531 18.9411 4.87914 18.8981C4.98298 18.855 5.07172 18.7822 5.13416 18.6887C5.1966 18.5953 5.22992 18.4854 5.22992 18.373C5.22979 18.2223 5.16984 18.0778 5.06324 17.9712C4.95663 17.8647 4.81209 17.8048 4.66136 17.8047Z" fill="#1E1E1E"/>
<path d="M29.8152 14.1056C29.8027 14.1056 29.7912 14.1056 29.7775 14.1044C29.6857 14.0978 29.5975 14.0658 29.5229 14.0118C29.4483 13.9579 29.3902 13.8843 29.3551 13.7992L25.2715 3.98124C25.2348 3.89296 25.2243 3.79597 25.2413 3.70188C25.2583 3.60779 25.302 3.52059 25.3673 3.45071C25.4325 3.38082 25.5165 3.33122 25.6092 3.30784C25.7019 3.28445 25.7994 3.28827 25.89 3.31884L29.394 4.50132C29.4261 4.51226 29.4556 4.5299 29.4804 4.55307C29.5052 4.57624 29.5249 4.60441 29.538 4.63572L32.0642 10.6484C32.0788 10.6832 32.0849 10.7208 32.0822 10.7583C32.0795 10.7958 32.068 10.8322 32.0486 10.8644L30.2395 13.8649C30.1957 13.9383 30.1335 13.9991 30.0591 14.0413C29.9848 14.0835 29.9007 14.1057 29.8152 14.1056ZM29.7984 13.6148L29.8296 13.6172L31.5751 10.7219L29.1382 4.92156L25.7369 3.77364L25.715 3.79764L29.7984 13.6156V13.6148Z" fill="#1E1E1E"/>
<path d="M30.1603 11.79C30.113 11.79 30.0667 11.776 30.0272 11.7497C29.9878 11.7234 29.9571 11.6861 29.9388 11.6424L27.1767 5.03998C27.1638 5.01078 27.1569 4.97931 27.1563 4.9474C27.1557 4.91549 27.1615 4.88379 27.1733 4.85415C27.1852 4.82452 27.2028 4.79753 27.2252 4.77479C27.2476 4.75204 27.2743 4.73399 27.3037 4.72168C27.3332 4.70938 27.3648 4.70307 27.3967 4.70313C27.4286 4.70318 27.4602 4.7096 27.4896 4.72201C27.519 4.73442 27.5456 4.75257 27.5679 4.77539C27.5902 4.79822 27.6077 4.82526 27.6195 4.85494L30.3816 11.4571C30.3969 11.4936 30.4029 11.5332 30.3991 11.5726C30.3954 11.6119 30.3819 11.6498 30.36 11.6827C30.3382 11.7156 30.3085 11.7426 30.2736 11.7613C30.2388 11.7799 30.1999 11.79 30.1603 11.79Z" fill="#1E1E1E"/>
<path d="M5.89395 17.0113C5.83633 17.0117 5.78049 16.9913 5.73664 16.9539C5.69279 16.9166 5.66385 16.8647 5.65512 16.8077C5.64638 16.7507 5.65843 16.6925 5.68906 16.6437C5.71969 16.5949 5.76686 16.5588 5.82195 16.5419L14.8359 12.8939C14.8651 12.8818 14.8965 12.8756 14.9282 12.8757C14.9598 12.8758 14.9911 12.8822 15.0203 12.8945C15.0495 12.9067 15.076 12.9246 15.0982 12.9472C15.1204 12.9697 15.138 12.9964 15.1499 13.0257C15.1617 13.0551 15.1677 13.0865 15.1674 13.1181C15.1671 13.1498 15.1605 13.1811 15.148 13.2102C15.1356 13.2393 15.1175 13.2656 15.0948 13.2877C15.0721 13.3098 15.0453 13.3272 15.0159 13.3388L5.98467 16.994C5.95584 17.0056 5.92503 17.0115 5.89395 17.0113Z" fill="#1E1E1E"/>
<path d="M18.1611 12.0457C18.1054 12.0457 18.0514 12.0264 18.0084 11.991C17.9654 11.9556 17.936 11.9063 17.9253 11.8516C17.9147 11.797 17.9234 11.7403 17.9499 11.6913C17.9765 11.6423 18.0192 11.6041 18.0709 11.5832L27.1647 7.90159C27.1939 7.88976 27.2252 7.88379 27.2567 7.88404C27.2882 7.88429 27.3194 7.89074 27.3484 7.90303C27.3775 7.91532 27.4038 7.93321 27.4259 7.95567C27.448 7.97814 27.4655 8.00474 27.4773 8.03395C27.4892 8.06317 27.4951 8.09443 27.4949 8.12595C27.4946 8.15747 27.4882 8.18864 27.4759 8.21767C27.4636 8.24669 27.4457 8.27302 27.4232 8.29513C27.4008 8.31725 27.3742 8.33472 27.345 8.34655L18.2511 12.0282C18.2225 12.0398 18.192 12.0457 18.1611 12.0457Z" fill="#1E1E1E"/>
<path d="M6.65999 18.9C6.60423 18.9001 6.55021 18.8807 6.50719 18.8452C6.46417 18.8097 6.43485 18.7604 6.42426 18.7056C6.41367 18.6509 6.42247 18.5942 6.44915 18.5452C6.47583 18.4962 6.51873 18.4581 6.57047 18.4373L16.1054 14.6048C16.1348 14.5919 16.1665 14.5851 16.1986 14.5847C16.2307 14.5844 16.2625 14.5904 16.2922 14.6025C16.3219 14.6147 16.3489 14.6326 16.3715 14.6554C16.3942 14.6781 16.412 14.7052 16.424 14.7349C16.436 14.7647 16.442 14.7965 16.4414 14.8286C16.4409 14.8607 16.434 14.8924 16.421 14.9217C16.408 14.9511 16.3893 14.9775 16.3659 14.9995C16.3426 15.0215 16.315 15.0386 16.285 15.0497L6.74951 18.8828C6.72105 18.8942 6.69066 18.9001 6.65999 18.9Z" fill="#1E1E1E"/>
<path d="M19.5504 13.7186C19.4945 13.7188 19.4404 13.6995 19.3972 13.664C19.3541 13.6285 19.3247 13.5791 19.3141 13.5242C19.3035 13.4694 19.3123 13.4125 19.3391 13.3635C19.3659 13.3145 19.409 13.2764 19.4609 13.2557L27.9713 9.83568C28.0005 9.82392 28.0318 9.81804 28.0633 9.81837C28.0948 9.8187 28.126 9.82524 28.155 9.83761C28.184 9.84998 28.2103 9.86794 28.2323 9.89046C28.2544 9.91298 28.2718 9.93963 28.2835 9.96888C28.2953 9.99812 28.3012 10.0294 28.3008 10.0609C28.3005 10.0924 28.294 10.1236 28.2816 10.1526C28.2692 10.1816 28.2513 10.2079 28.2287 10.2299C28.2062 10.252 28.1796 10.2694 28.1503 10.2811L19.6399 13.7011C19.6115 13.7126 19.5811 13.7185 19.5504 13.7186Z" fill="#1E1E1E"/>
<path d="M33.3604 32.7078H2.64039C2.57674 32.7078 2.51569 32.6825 2.47069 32.6375C2.42568 32.5925 2.40039 32.5314 2.40039 32.4678C2.40039 32.4041 2.42568 32.3431 2.47069 32.2981C2.51569 32.2531 2.57674 32.2278 2.64039 32.2278H33.3604C33.424 32.2278 33.4851 32.2531 33.5301 32.2981C33.5751 32.3431 33.6004 32.4041 33.6004 32.4678C33.6004 32.5314 33.5751 32.5925 33.5301 32.6375C33.4851 32.6825 33.424 32.7078 33.3604 32.7078Z" fill="#1E1E1E"/>
<path d="M32.4504 32.7077H26.8603C26.5555 32.7077 26.2632 32.5866 26.0476 32.371C25.8321 32.1555 25.711 31.8631 25.711 31.5583C25.711 31.2535 25.8321 30.9611 26.0476 30.7456C26.2632 30.53 26.5555 30.4089 26.8603 30.4089H32.4504C32.7552 30.4089 33.0476 30.53 33.2631 30.7456C33.4787 30.9611 33.5998 31.2535 33.5998 31.5583C33.5998 31.8631 33.4787 32.1555 33.2631 32.371C33.0476 32.5866 32.7552 32.7077 32.4504 32.7077ZM26.8603 30.888C26.6828 30.888 26.5125 30.9585 26.387 31.084C26.2615 31.2096 26.191 31.3798 26.191 31.5573C26.191 31.7349 26.2615 31.9051 26.387 32.0306C26.5125 32.1562 26.6828 32.2267 26.8603 32.2267H32.4504C32.6279 32.2267 32.7982 32.1562 32.9237 32.0306C33.0492 31.9051 33.1198 31.7349 33.1198 31.5573C33.1198 31.3798 33.0492 31.2096 32.9237 31.084C32.7982 30.9585 32.6279 30.888 32.4504 30.888H26.8603Z" fill="#1E1E1E"/>
<path d="M30.7646 30.8881H28.5086C28.4449 30.8881 28.3839 30.8628 28.3388 30.8178C28.2938 30.7728 28.2686 30.7118 28.2686 30.6481V29.5201C28.2686 29.1573 28.4127 28.8093 28.6692 28.5528C28.9258 28.2962 29.2737 28.1521 29.6366 28.1521C29.9994 28.1521 30.3473 28.2962 30.6039 28.5528C30.8604 28.8093 31.0046 29.1573 31.0046 29.5201V30.6481C31.0046 30.7118 30.9793 30.7728 30.9343 30.8178C30.8893 30.8628 30.8282 30.8881 30.7646 30.8881ZM28.7486 30.4081H30.5246V29.5201C30.5246 29.2846 30.431 29.0587 30.2645 28.8922C30.0979 28.7257 29.8721 28.6321 29.6366 28.6321C29.401 28.6321 29.1752 28.7257 29.0086 28.8922C28.8421 29.0587 28.7486 29.2846 28.7486 29.5201V30.4081Z" fill="#1E1E1E"/>
<path d="M29.6375 28.6331C29.5738 28.6331 29.5128 28.6078 29.4678 28.5628C29.4227 28.5178 29.3975 28.4568 29.3975 28.3931V13.707C29.3975 13.6434 29.4227 13.5823 29.4678 13.5373C29.5128 13.4923 29.5738 13.467 29.6375 13.467C29.7011 13.467 29.7622 13.4923 29.8072 13.5373C29.8522 13.5823 29.8775 13.6434 29.8775 13.707V28.3931C29.8775 28.4568 29.8522 28.5178 29.8072 28.5628C29.7622 28.6078 29.7011 28.6331 29.6375 28.6331Z" fill="#1E1E1E"/>
<path d="M6.66567 32.7078H2.64039C2.57674 32.7078 2.51569 32.6825 2.47069 32.6375C2.42568 32.5925 2.40039 32.5314 2.40039 32.4678V28.8301C2.40039 28.7664 2.42568 28.7054 2.47069 28.6604C2.51569 28.6154 2.57674 28.5901 2.64039 28.5901H6.66567C6.72932 28.5901 6.79037 28.6154 6.83538 28.6604C6.88039 28.7054 6.90567 28.7664 6.90567 28.8301V32.4678C6.90567 32.5314 6.88039 32.5925 6.83538 32.6375C6.79037 32.6825 6.72932 32.7078 6.66567 32.7078ZM2.88039 32.2278H6.42567V29.0701H2.88039V32.2278Z" fill="#1E1E1E"/>
<path d="M5.71991 29.07H3.58583C3.52217 29.07 3.46113 29.0448 3.41612 28.9998C3.37111 28.9547 3.34583 28.8937 3.34583 28.83V28.608C3.34621 28.2988 3.46924 28.0022 3.68795 27.7835C3.90665 27.5648 4.20317 27.4418 4.51247 27.4414H4.79351C5.10278 27.4418 5.39927 27.5648 5.61794 27.7835C5.83661 28.0023 5.95959 28.2988 5.95991 28.608V28.8296C5.95997 28.8611 5.95381 28.8924 5.94177 28.9216C5.92974 28.9507 5.91207 28.9772 5.88978 28.9996C5.86749 29.0219 5.84101 29.0396 5.81186 29.0517C5.78271 29.0638 5.75146 29.07 5.71991 29.07ZM3.82607 28.59H5.47991C5.47479 28.4113 5.40027 28.2416 5.27213 28.1168C5.144 27.9921 4.97232 27.9222 4.79351 27.9219H4.51199C4.33325 27.9223 4.1617 27.9923 4.03367 28.117C3.90564 28.2417 3.83118 28.4114 3.82607 28.59Z" fill="#1E1E1E"/>
<path d="M6.66505 32.7078C6.60569 32.7078 6.54844 32.6858 6.50449 32.6459L2.47921 29.0079C2.45453 28.9872 2.43429 28.9617 2.41968 28.9329C2.40508 28.9042 2.39642 28.8728 2.39421 28.8407C2.392 28.8085 2.3963 28.7762 2.40684 28.7457C2.41738 28.7153 2.43396 28.6872 2.45557 28.6633C2.47719 28.6394 2.5034 28.6201 2.53264 28.6065C2.56189 28.5929 2.59357 28.5854 2.62579 28.5844C2.65801 28.5833 2.69012 28.5887 2.72019 28.6004C2.75026 28.612 2.77768 28.6296 2.80081 28.652L6.82609 32.2899C6.862 32.3225 6.88722 32.3651 6.89843 32.4123C6.90963 32.4594 6.9063 32.5089 6.88887 32.5541C6.87145 32.5993 6.84074 32.6382 6.80078 32.6656C6.76083 32.6931 6.71351 32.7078 6.66505 32.7078Z" fill="#1E1E1E"/>
<path d="M4.66105 27.9219C4.5974 27.9219 4.53635 27.8966 4.49135 27.8516C4.44634 27.8066 4.42105 27.7455 4.42105 27.6819V20.3941C4.42105 20.3304 4.44634 20.2694 4.49135 20.2243C4.53635 20.1793 4.5974 20.1541 4.66105 20.1541C4.7247 20.1541 4.78575 20.1793 4.83076 20.2243C4.87577 20.2694 4.90105 20.3304 4.90105 20.3941V27.6819C4.90105 27.7455 4.87577 27.8066 4.83076 27.8516C4.78575 27.8966 4.7247 27.9219 4.66105 27.9219Z" fill="#1E1E1E"/>
<path d="M20.943 32.7077H13.4531C13.4186 32.7078 13.3845 32.7004 13.3531 32.686C13.3217 32.6717 13.2938 32.6507 13.2713 32.6246C13.2487 32.5985 13.2321 32.5679 13.2224 32.5348C13.2128 32.5016 13.2104 32.4668 13.2155 32.4327L15.8348 14.6677C15.8441 14.6047 15.878 14.548 15.9292 14.51C15.9803 14.472 16.0444 14.4559 16.1073 14.4652C16.1703 14.4745 16.227 14.5084 16.265 14.5596C16.303 14.6107 16.3191 14.6748 16.3098 14.7377L13.731 32.2277H20.6643L18.0903 14.7377C18.0811 14.6748 18.0972 14.6107 18.1352 14.5596C18.1732 14.5085 18.2299 14.4746 18.2929 14.4653C18.3559 14.4561 18.42 14.4722 18.4711 14.5102C18.5221 14.5482 18.556 14.6049 18.5653 14.6679L21.1813 32.4329C21.1863 32.467 21.1839 32.5018 21.1743 32.5349C21.1646 32.5679 21.148 32.5985 21.1255 32.6246C21.1029 32.6507 21.0751 32.6716 21.0438 32.6859C21.0124 32.7003 20.9784 32.7077 20.9439 32.7077H20.943Z" fill="#1E1E1E"/>
<path d="M17.1981 16.0706C17.1345 16.0706 17.0735 16.0453 17.0285 16.0003L14.5341 13.506C14.4891 13.461 14.4639 13.4 14.4639 13.3363C14.4639 13.2727 14.4891 13.2117 14.5341 13.1666L17.0285 10.6726C17.0735 10.6276 17.1345 10.6023 17.1981 10.6023C17.2618 10.6023 17.3228 10.6276 17.3678 10.6726L19.8621 13.1666C19.9071 13.2117 19.9324 13.2727 19.9324 13.3363C19.9324 13.4 19.9071 13.461 19.8621 13.506L17.3678 16.0003C17.3228 16.0453 17.2618 16.0706 17.1981 16.0706ZM15.0432 13.3363L17.1981 15.4913L19.3531 13.3363L17.1981 11.1816L15.0432 13.3363Z" fill="#1E1E1E"/>
<path d="M13.4527 32.7078C13.4029 32.7077 13.3543 32.6922 13.3137 32.6633C13.2731 32.6344 13.2425 32.5936 13.2262 32.5465C13.2098 32.4995 13.2085 32.4485 13.2225 32.4007C13.2364 32.3528 13.2648 32.3105 13.3039 32.2796L19.7839 27.1575L14.7393 22.8704C14.713 22.8479 14.6918 22.8199 14.6772 22.7884C14.6627 22.7569 14.6552 22.7226 14.6552 22.6879C14.6552 22.6532 14.6627 22.6189 14.6772 22.5874C14.6918 22.5559 14.713 22.5279 14.7393 22.5054L18.6331 19.1694L15.696 16.2812C15.6717 16.2596 15.6521 16.2333 15.6383 16.2038C15.6246 16.1744 15.6169 16.1425 15.6158 16.11C15.6148 16.0775 15.6203 16.0452 15.6321 16.0149C15.6439 15.9846 15.6617 15.957 15.6845 15.9339C15.7073 15.9107 15.7345 15.8924 15.7646 15.88C15.7946 15.8677 15.8269 15.8616 15.8594 15.8621C15.8919 15.8626 15.9239 15.8697 15.9536 15.8829C15.9833 15.8962 16.0099 15.9153 16.032 15.9392L19.1541 19.0112C19.1779 19.0345 19.1965 19.0625 19.2089 19.0934C19.2212 19.1242 19.227 19.1574 19.2259 19.1906C19.2247 19.2238 19.2167 19.2565 19.2023 19.2865C19.1879 19.3164 19.1674 19.3431 19.1421 19.3647L15.264 22.6868L20.3167 26.9811C20.3438 27.0041 20.3654 27.0328 20.3801 27.0652C20.3947 27.0976 20.402 27.1328 20.4014 27.1683C20.4008 27.2038 20.3923 27.2388 20.3765 27.2706C20.3607 27.3024 20.3381 27.3304 20.3102 27.3524L13.601 32.6564C13.5587 32.6897 13.5065 32.7077 13.4527 32.7078Z" fill="#1E1E1E"/>
<path d="M20.9277 32.7076C20.8737 32.7076 20.8213 32.6894 20.7789 32.656L14.0697 27.352C14.0418 27.3299 14.0192 27.302 14.0034 27.2702C13.9877 27.2383 13.9792 27.2034 13.9786 27.1679C13.9779 27.1323 13.9852 27.0971 13.9998 27.0648C14.0145 27.0324 14.0361 27.0037 14.0632 26.9807L19.1155 22.6866L15.2371 19.3636C15.2118 19.342 15.1913 19.3153 15.1769 19.2854C15.1624 19.2554 15.1544 19.2227 15.1532 19.1895C15.1521 19.1563 15.1578 19.1231 15.1702 19.0923C15.1825 19.0614 15.2011 19.0334 15.2248 19.0101L18.3472 15.9381C18.3932 15.897 18.4533 15.8753 18.5149 15.8773C18.5765 15.8794 18.6349 15.905 18.6781 15.949C18.7213 15.993 18.746 16.0519 18.7469 16.1135C18.7479 16.1751 18.725 16.2348 18.6832 16.2801L15.7478 19.1692L19.6415 22.5052C19.6679 22.5277 19.6891 22.5557 19.7036 22.5872C19.7182 22.6187 19.7257 22.653 19.7257 22.6877C19.7257 22.7224 19.7182 22.7567 19.7036 22.7882C19.6891 22.8197 19.6679 22.8477 19.6415 22.8702L14.5965 27.1573L21.0765 32.2794C21.1156 32.3103 21.144 32.3527 21.158 32.4005C21.1719 32.4483 21.1706 32.4993 21.1542 32.5464C21.1379 32.5934 21.1073 32.6342 21.0667 32.6631C21.0261 32.692 20.9775 32.7075 20.9277 32.7076Z" fill="#1E1E1E"/>
</svg>
