<svg width="65" height="65" viewBox="0 0 65 65" fill="none" xmlns="http://www.w3.org/2000/svg">
<path d="M26.7973 39.5974H6.35264C5.79685 39.5754 5.27239 39.3342 4.89397 38.9265C4.51555 38.5189 4.31397 37.9779 4.3333 37.422V31.2041C4.31397 30.6483 4.51555 30.1073 4.89397 29.6997C5.27239 29.292 5.79685 29.0508 6.35264 29.0288H20.8086C20.9236 29.0288 21.0338 29.0745 21.1151 29.1557C21.1963 29.237 21.242 29.3472 21.242 29.4621C21.242 29.5771 21.1963 29.6873 21.1151 29.7686C21.0338 29.8498 20.9236 29.8955 20.8086 29.8955H6.35264C6.02685 29.9178 5.72302 30.0677 5.50718 30.3128C5.29134 30.5578 5.18094 30.8781 5.19997 31.2041V37.422C5.18094 37.748 5.29134 38.0684 5.50718 38.3134C5.72302 38.5585 6.02685 38.7084 6.35264 38.7307H26.7973C26.9956 38.7145 27.1795 38.6209 27.3092 38.4702C27.439 38.3194 27.5042 38.1236 27.4906 37.9251V32.4218C27.4906 32.3069 27.5363 32.1967 27.6176 32.1154C27.6988 32.0341 27.809 31.9885 27.924 31.9885C28.0389 31.9885 28.1491 32.0341 28.2304 32.1154C28.3117 32.1967 28.3573 32.3069 28.3573 32.4218V37.9251C28.3712 38.3535 28.2149 38.7699 27.9226 39.0833C27.6302 39.3967 27.2256 39.5816 26.7973 39.5974Z" fill="#1E1E1E"/>
<path d="M49.9547 39.5974H29.0507C28.6224 39.5816 28.2178 39.3967 27.9255 39.0833C27.6331 38.7699 27.4768 38.3535 27.4907 37.9251V32.4218C27.4907 32.3069 27.5364 32.1967 27.6176 32.1154C27.6989 32.0341 27.8091 31.9885 27.9241 31.9885C28.039 31.9885 28.1492 32.0341 28.2305 32.1154C28.3117 32.1967 28.3574 32.3069 28.3574 32.4218V37.9251C28.3439 38.1236 28.409 38.3194 28.5388 38.4702C28.6685 38.6209 28.8525 38.7145 29.0507 38.7307H49.9547C50.153 38.7145 50.3369 38.6209 50.4667 38.4702C50.5964 38.3194 50.6616 38.1236 50.6481 37.9251V31.2041C50.6671 30.8781 50.5567 30.5578 50.3409 30.3128C50.125 30.0677 49.8212 29.9178 49.4954 29.8955H35.6114C35.4965 29.8955 35.3862 29.8498 35.305 29.7686C35.2237 29.6873 35.1781 29.5771 35.1781 29.4621C35.1781 29.3472 35.2237 29.237 35.305 29.1557C35.3862 29.0745 35.4965 29.0288 35.6114 29.0288H49.4954C50.0512 29.0508 50.5756 29.292 50.9541 29.6997C51.3325 30.1073 51.5341 30.6483 51.5147 31.2041V37.9251C51.5287 38.3535 51.3723 38.7699 51.08 39.0833C50.7876 39.3967 50.383 39.5816 49.9547 39.5974Z" fill="#1E1E1E"/>
<path d="M58.529 39.5966H52.3254C51.8651 39.5794 51.4303 39.3807 51.1161 39.0438C50.802 38.707 50.6339 38.2595 50.6488 37.7991V31.3333C50.6283 30.7447 50.8416 30.172 51.2422 29.7402C51.6428 29.3085 52.198 29.0529 52.7864 29.0293H58.529C59.1175 29.0529 59.6727 29.3085 60.0732 29.7402C60.4738 30.172 60.6871 30.7447 60.6666 31.3333V37.293C60.6871 37.8815 60.4738 38.4542 60.0732 38.8859C59.6726 39.3176 59.1174 39.5731 58.529 39.5966ZM52.7864 29.896C52.428 29.9198 52.0934 30.0842 51.8554 30.3533C51.6174 30.6225 51.4953 30.9746 51.5155 31.3333V37.7991C51.5008 38.0296 51.5776 38.2566 51.7292 38.4309C51.8808 38.6051 52.095 38.7126 52.3254 38.7299H58.529C58.8875 38.7063 59.2221 38.542 59.4601 38.2729C59.6981 38.0038 59.8203 37.6516 59.7999 37.293V31.3333C59.8203 30.9746 59.6981 30.6224 59.4601 30.3532C59.2221 30.084 58.8875 29.9197 58.529 29.896H52.7864Z" fill="#1E1E1E"/>
<path d="M26.3371 58.998H6.35392C5.7979 58.9761 5.27318 58.7349 4.89452 58.3272C4.51586 57.9194 4.31407 57.3783 4.33329 56.8222V50.6069C4.31407 50.0508 4.51586 49.5097 4.89452 49.102C5.27318 48.6942 5.7979 48.453 6.35392 48.4312H26.7982C27.2261 48.4466 27.6305 48.631 27.9229 48.9439C28.2152 49.2568 28.3717 49.6728 28.3582 50.1008V56.8222C28.3774 57.3784 28.1755 57.9196 27.7968 58.3273C27.418 58.7351 26.8932 58.9762 26.3371 58.998ZM6.35392 49.2978C6.02791 49.32 5.72381 49.4699 5.50773 49.7151C5.29165 49.9602 5.18105 50.2807 5.19996 50.6069V56.8222C5.18105 57.1484 5.29165 57.4689 5.50773 57.7141C5.72381 57.9592 6.02791 58.1091 6.35392 58.1313H26.3371C26.6631 58.1091 26.9672 57.9592 27.1833 57.7141C27.3994 57.4689 27.51 57.1484 27.4911 56.8222V50.1008C27.5043 49.9027 27.439 49.7073 27.3092 49.557C27.1794 49.4067 26.9957 49.3136 26.7977 49.2978H6.35392Z" fill="#1E1E1E"/>
<path d="M49.495 58.998H29.51C28.954 58.9761 28.4293 58.7349 28.0507 58.3272C27.672 57.9194 27.4702 57.3783 27.4894 56.8222V50.1008C27.4758 49.6728 27.6324 49.2568 27.9247 48.9439C28.2171 48.631 28.6215 48.4466 29.0494 48.4312H49.9543C50.3823 48.4465 50.7867 48.6309 51.0791 48.9438C51.3715 49.2567 51.528 49.6727 51.5143 50.1008V56.8222C51.5335 57.3781 51.3319 57.919 50.9535 58.3267C50.5751 58.7344 50.0507 58.9758 49.495 58.998ZM29.0511 49.2978C28.8532 49.3136 28.6694 49.4067 28.5396 49.557C28.4099 49.7073 28.3445 49.9027 28.3578 50.1008V56.8222C28.3389 57.1484 28.4495 57.4689 28.6656 57.7141C28.8817 57.9592 29.1858 58.1091 29.5118 58.1313H49.495C49.821 58.1091 50.1251 57.9592 50.3411 57.7141C50.5572 57.4689 50.6678 57.1484 50.6489 56.8222V50.1008C50.6622 49.9027 50.5969 49.7073 50.4671 49.557C50.3373 49.4067 50.1535 49.3136 49.9556 49.2978H29.0511Z" fill="#1E1E1E"/>
<path d="M58.529 58.998H52.7864C52.198 58.9745 51.6428 58.719 51.2422 58.2873C50.8417 57.8557 50.6283 57.2829 50.6488 56.6944V50.2291C50.6338 49.7686 50.8018 49.321 51.116 48.984C51.4302 48.6471 51.865 48.4483 52.3254 48.4312H58.529C59.1174 48.4546 59.6726 48.7101 60.0732 49.1418C60.4738 49.5735 60.6871 50.1462 60.6666 50.7348V56.6944C60.6871 57.2829 60.4738 57.8557 60.0732 58.2873C59.6726 58.719 59.1174 58.9745 58.529 58.998ZM52.3254 49.2978C52.095 49.3153 51.8808 49.4228 51.7292 49.5971C51.5776 49.7714 51.5008 49.9985 51.5155 50.2291V56.6944C51.4953 57.053 51.6175 57.4052 51.8554 57.6742C52.0934 57.9433 52.428 58.1076 52.7864 58.1313H58.529C58.8875 58.1077 59.2221 57.9434 59.4601 57.6743C59.6981 57.4053 59.8203 57.0531 59.7999 56.6944V50.7348C59.8203 50.3761 59.6981 50.0239 59.4601 49.7548C59.2221 49.4857 58.8875 49.3215 58.529 49.2978H52.3254Z" fill="#1E1E1E"/>
<path d="M58.646 49.2977H38.2018C37.7738 49.2821 37.3694 49.0976 37.0771 48.7847C36.7847 48.4717 36.6282 48.0557 36.6418 47.6276V40.3996C36.6282 39.9716 36.7847 39.5556 37.0771 39.2427C37.3695 38.9298 37.7739 38.7455 38.2018 38.73H58.646C59.2022 38.752 59.727 38.9933 60.1056 39.4012C60.4843 39.8091 60.686 40.3504 60.6667 40.9066V47.1223C60.6857 47.6784 60.4838 48.2193 60.1052 48.6269C59.7265 49.0345 59.2019 49.2757 58.646 49.2977ZM38.2018 39.5966C38.0039 39.6124 37.8201 39.7055 37.6903 39.8558C37.5605 40.0061 37.4952 40.2015 37.5085 40.3996V47.6276C37.4952 47.8258 37.5605 48.0212 37.6903 48.1716C37.82 48.322 38.0038 48.4152 38.2018 48.431H58.646C58.9721 48.4087 59.2762 48.2587 59.4923 48.0135C59.7083 47.7683 59.8189 47.4477 59.8 47.1215V40.9066C59.8189 40.5804 59.7083 40.2599 59.4922 40.0148C59.2762 39.7696 58.9721 39.6197 58.646 39.5975L38.2018 39.5966Z" fill="#1E1E1E"/>
<path d="M35.9488 49.2977H15.044C14.616 49.2822 14.2115 49.0978 13.9191 48.7848C13.6268 48.4718 13.4703 48.0557 13.484 47.6276V40.3996C13.4704 39.9716 13.6269 39.5556 13.9193 39.2427C14.2116 38.9298 14.616 38.7455 15.044 38.73H35.9488C36.3768 38.7456 36.7811 38.93 37.0734 39.2429C37.3658 39.5557 37.5223 39.9716 37.5088 40.3996V47.6276C37.5224 48.0557 37.3659 48.4717 37.0736 48.7847C36.7812 49.0976 36.3768 49.2821 35.9488 49.2977ZM15.044 39.5966C14.846 39.6124 14.6623 39.7055 14.5325 39.8558C14.4027 40.0061 14.3374 40.2015 14.3506 40.3996V47.6276C14.3374 47.8258 14.4027 48.0212 14.5325 48.1716C14.6622 48.322 14.846 48.4152 15.044 48.431H35.9488C36.1468 48.4152 36.3306 48.322 36.4604 48.1716C36.5901 48.0212 36.6555 47.8258 36.6422 47.6276V40.3996C36.6555 40.2015 36.5901 40.0061 36.4604 39.8558C36.3306 39.7055 36.1468 39.6124 35.9488 39.5966H15.044Z" fill="#1E1E1E"/>
<path d="M12.6746 49.2977H6.47102C5.88255 49.2741 5.32734 49.0185 4.92678 48.5868C4.52621 48.155 4.31287 47.5822 4.33339 46.9936V41.034C4.31287 40.4454 4.52621 39.8727 4.92678 39.4409C5.32734 39.0092 5.88255 38.7536 6.47102 38.73H12.6746C13.1349 38.7473 13.5697 38.9461 13.8839 39.283C14.198 39.6199 14.3661 40.0675 14.3512 40.5279V47.4998C14.3661 47.9602 14.198 48.4078 13.8839 48.7447C13.5697 49.0816 13.1349 49.2804 12.6746 49.2977ZM6.47102 39.5966C6.11251 39.6204 5.77787 39.7847 5.53986 40.0539C5.30186 40.3231 5.17974 40.6753 5.20005 41.034V46.9936C5.17974 47.3524 5.30186 47.7046 5.53986 47.9738C5.77787 48.2429 6.11251 48.4073 6.47102 48.431H12.6746C12.905 48.4136 13.1192 48.306 13.2708 48.1317C13.4224 47.9574 13.4992 47.7303 13.4845 47.4998V40.5279C13.4992 40.2973 13.4224 40.0703 13.2708 39.8959C13.1192 39.7216 12.905 39.6141 12.6746 39.5966H6.47102Z" fill="#1E1E1E"/>
<path d="M58.646 29.8959H41.9627C41.4067 29.874 40.8819 29.6328 40.5033 29.2251C40.1246 28.8173 39.9228 28.2762 39.9421 27.7201V20.9982C39.9285 20.5702 40.085 20.1543 40.3774 19.8414C40.6697 19.5285 41.0741 19.3441 41.5021 19.3286H58.6469C59.2027 19.3508 59.7271 19.5922 60.1056 19.9998C60.4841 20.4075 60.6858 20.9484 60.6667 21.5044V27.7201C60.6859 28.2762 60.4841 28.8173 60.1054 29.2251C59.7268 29.6328 59.202 29.874 58.646 29.8959ZM41.5012 20.1953C41.3033 20.2111 41.1196 20.3043 40.9898 20.4545C40.8601 20.6048 40.7947 20.8001 40.8079 20.9982V27.7201C40.7889 28.0463 40.8995 28.3668 41.1156 28.612C41.3317 28.8571 41.6358 29.007 41.9618 29.0292H58.6452C58.9713 29.0073 59.2756 28.8574 59.4919 28.6123C59.7082 28.3671 59.8189 28.0465 59.8 27.7201V21.5044C59.8189 21.1782 59.7083 20.8577 59.4922 20.6125C59.2761 20.3674 58.972 20.2175 58.646 20.1953H41.5012Z" fill="#1E1E1E"/>
<path d="M58.529 20.1957H52.3254C51.8651 20.1785 51.4304 19.9798 51.1162 19.643C50.802 19.3061 50.634 18.8586 50.6489 18.3982V11.4263C50.634 10.9659 50.802 10.5183 51.1162 10.1814C51.4303 9.84452 51.8651 9.6457 52.3254 9.62842H58.529C59.1175 9.652 59.6727 9.9076 60.0733 10.3393C60.4738 10.7711 60.6872 11.3439 60.6667 11.9325V17.8921C60.6872 18.4806 60.4738 19.0534 60.0732 19.485C59.6727 19.9167 59.1175 20.1722 58.529 20.1957ZM52.3254 10.4951C52.0951 10.5125 51.8808 10.6201 51.7292 10.7944C51.5776 10.9687 51.5008 11.1958 51.5155 11.4263V18.3982C51.5008 18.6287 51.5776 18.8557 51.7293 19.03C51.8809 19.2042 52.0951 19.3117 52.3254 19.329H58.529C58.8875 19.3054 59.2221 19.1411 59.4602 18.8721C59.6982 18.603 59.8203 18.2508 59.8 17.8921V11.9325C59.8203 11.5737 59.6982 11.2215 59.4602 10.9523C59.2222 10.6832 58.8875 10.5188 58.529 10.4951H52.3254Z" fill="#1E1E1E"/>
<path d="M32.0199 33.5133C29.9785 33.5133 26.7454 32.8633 21.7902 30.4366C16.7441 27.9666 14.7642 26.401 14.4851 24.6694C14.1666 22.6938 16.1149 20.7854 19.3428 17.6234L19.7562 17.2186C19.7757 17.1995 19.7971 17.1823 19.8199 17.1671L19.9499 17.0336C23.2038 13.6354 25.1681 11.5836 27.1701 11.896C28.9229 12.1686 30.4417 14.0969 32.9741 19.2661C38.1018 29.7268 35.2561 32.5435 35.1326 32.6587C35.0845 32.7112 34.2884 33.5133 32.0199 33.5133ZM20.2952 17.9037L19.9486 18.243C17.0257 21.1069 15.0939 22.9989 15.3401 24.5311C15.5641 25.9221 17.4794 27.3599 22.1711 29.6583C31.9047 34.4276 34.4973 32.0711 34.5211 32.046C34.5614 32.0027 36.9755 29.4001 32.1972 19.6475C29.8719 14.9012 28.4272 12.9681 27.0405 12.7523C25.4861 12.51 23.6362 14.4388 20.5756 17.6329L20.3819 17.8353C20.3561 17.8618 20.327 17.8848 20.2952 17.9037Z" fill="#1E1E1E"/>
<path d="M19.237 18.7671C19.122 18.7671 19.0118 18.7214 18.9306 18.6402L17.5184 17.2279C17.4371 17.1467 17.3915 17.0365 17.3915 16.9216C17.3915 16.8067 17.4371 16.6965 17.5184 16.6152L19.1468 14.9867C19.2281 14.9055 19.3383 14.8599 19.4532 14.8599C19.5681 14.8599 19.6783 14.9055 19.7596 14.9867L21.1701 16.3977C21.249 16.4794 21.2927 16.5889 21.2917 16.7025C21.2907 16.8161 21.2451 16.9248 21.1648 17.0051C21.0844 17.0855 20.9757 17.131 20.8621 17.132C20.7485 17.133 20.639 17.0893 20.5573 17.0104L19.4532 15.9058L18.4375 16.9216L19.5433 18.0266C19.6039 18.0872 19.6452 18.1644 19.6619 18.2484C19.6786 18.3325 19.67 18.4196 19.6372 18.4988C19.6044 18.5779 19.5489 18.6456 19.4777 18.6932C19.4064 18.7408 19.3226 18.7663 19.237 18.7663V18.7671Z" fill="#1E1E1E"/>
<path d="M16.747 18.0071C16.563 18.008 16.3806 17.9725 16.2104 17.9026C16.0402 17.8328 15.8854 17.73 15.7551 17.6002L8.76324 10.6075C8.63004 10.4746 8.52521 10.3161 8.45511 10.1415C8.38502 9.96688 8.35112 9.77986 8.35547 9.59176C8.3622 9.21096 8.51775 8.84792 8.78881 8.58036L10.9351 6.43406C11.201 6.16228 11.5639 6.00709 11.9441 6.00254C12.3243 5.99799 12.6908 6.14446 12.9631 6.4098L19.9532 13.4021C20.2185 13.6743 20.3649 14.0407 20.3605 14.4208C20.356 14.8009 20.201 15.1637 19.9294 15.4296L17.7831 17.5759C17.6473 17.7125 17.4858 17.8208 17.308 17.8948C17.1302 17.9688 16.9396 18.007 16.747 18.0071ZM11.9695 6.87043H11.9599C11.8043 6.87334 11.6559 6.9373 11.547 7.04853L9.40024 9.19483C9.28936 9.30404 9.22547 9.4522 9.22214 9.6078C9.21999 9.67988 9.23257 9.75164 9.25909 9.81869C9.28561 9.88575 9.32553 9.94669 9.37641 9.9978L16.3678 16.9866C16.4775 17.0896 16.6236 17.1448 16.774 17.1404C16.9244 17.1359 17.0669 17.072 17.1703 16.9628L19.3166 14.8165C19.4257 14.713 19.4894 14.5706 19.4939 14.4203C19.4983 14.2701 19.4432 14.1241 19.3405 14.0144L12.3499 7.02296C12.2999 6.9733 12.2405 6.93408 12.1752 6.90759C12.1099 6.88111 12.04 6.86788 11.9695 6.8687V6.87043Z" fill="#1E1E1E"/>
<path d="M12.1234 13.7886C12.0377 13.7886 11.954 13.7631 11.8827 13.7155C11.8115 13.6679 11.756 13.6002 11.7232 13.5211C11.6904 13.4419 11.6818 13.3548 11.6985 13.2707C11.7152 13.1867 11.7565 13.1095 11.8171 13.0489L15.402 9.46348C15.4423 9.42322 15.49 9.39128 15.5426 9.36948C15.5952 9.34768 15.6515 9.33645 15.7085 9.33643C15.7654 9.33641 15.8217 9.3476 15.8743 9.36936C15.9269 9.39112 15.9747 9.42303 16.015 9.46326C16.0552 9.5035 16.0872 9.55126 16.109 9.60384C16.1308 9.65642 16.142 9.71278 16.142 9.76969C16.1421 9.82661 16.1309 9.88298 16.1091 9.93557C16.0873 9.98816 16.0554 10.036 16.0152 10.0762L12.4298 13.6616C12.3485 13.7429 12.2383 13.7886 12.1234 13.7886Z" fill="#1E1E1E"/>
<path d="M10.4191 12.0845C10.3334 12.0845 10.2496 12.059 10.1784 12.0114C10.1071 11.9638 10.0516 11.8961 10.0188 11.817C9.98603 11.7378 9.97745 11.6507 9.99416 11.5666C10.0109 11.4826 10.0521 11.4054 10.1127 11.3448L13.6981 7.75983C13.7798 7.68089 13.8893 7.63721 14.0029 7.6382C14.1165 7.63919 14.2252 7.68476 14.3056 7.7651C14.3859 7.84545 14.4315 7.95413 14.4325 8.06775C14.4335 8.18137 14.3898 8.29083 14.3108 8.37256L10.7254 11.9575C10.6853 11.9979 10.6376 12.0299 10.585 12.0517C10.5324 12.0735 10.476 12.0846 10.4191 12.0845Z" fill="#1E1E1E"/>
<path d="M26.7973 39.5974H6.35264C5.79685 39.5754 5.27239 39.3342 4.89397 38.9265C4.51555 38.5189 4.31397 37.9779 4.3333 37.422V31.2041C4.31397 30.6483 4.51555 30.1073 4.89397 29.6997C5.27239 29.292 5.79685 29.0508 6.35264 29.0288H20.8086C20.9236 29.0288 21.0338 29.0745 21.1151 29.1557C21.1963 29.237 21.242 29.3472 21.242 29.4621C21.242 29.5771 21.1963 29.6873 21.1151 29.7686C21.0338 29.8498 20.9236 29.8955 20.8086 29.8955H6.35264C6.02685 29.9178 5.72302 30.0677 5.50718 30.3128C5.29134 30.5578 5.18094 30.8781 5.19997 31.2041V37.422C5.18094 37.748 5.29134 38.0684 5.50718 38.3134C5.72302 38.5585 6.02685 38.7084 6.35264 38.7307H26.7973C26.9956 38.7145 27.1795 38.6209 27.3092 38.4702C27.439 38.3194 27.5042 38.1236 27.4906 37.9251V32.4218C27.4906 32.3069 27.5363 32.1967 27.6176 32.1154C27.6988 32.0341 27.809 31.9885 27.924 31.9885C28.0389 31.9885 28.1491 32.0341 28.2304 32.1154C28.3117 32.1967 28.3573 32.3069 28.3573 32.4218V37.9251C28.3712 38.3535 28.2149 38.7699 27.9226 39.0833C27.6302 39.3967 27.2256 39.5816 26.7973 39.5974Z" fill="#1E1E1E"/>
<path d="M49.9547 39.5974H29.0507C28.6224 39.5816 28.2178 39.3967 27.9255 39.0833C27.6331 38.7699 27.4768 38.3535 27.4907 37.9251V32.4218C27.4907 32.3069 27.5364 32.1967 27.6176 32.1154C27.6989 32.0341 27.8091 31.9885 27.9241 31.9885C28.039 31.9885 28.1492 32.0341 28.2305 32.1154C28.3117 32.1967 28.3574 32.3069 28.3574 32.4218V37.9251C28.3439 38.1236 28.409 38.3194 28.5388 38.4702C28.6685 38.6209 28.8525 38.7145 29.0507 38.7307H49.9547C50.153 38.7145 50.3369 38.6209 50.4667 38.4702C50.5964 38.3194 50.6616 38.1236 50.6481 37.9251V31.2041C50.6671 30.8781 50.5567 30.5578 50.3409 30.3128C50.125 30.0677 49.8212 29.9178 49.4954 29.8955H35.6114C35.4965 29.8955 35.3862 29.8498 35.305 29.7686C35.2237 29.6873 35.1781 29.5771 35.1781 29.4621C35.1781 29.3472 35.2237 29.237 35.305 29.1557C35.3862 29.0745 35.4965 29.0288 35.6114 29.0288H49.4954C50.0512 29.0508 50.5756 29.292 50.9541 29.6997C51.3325 30.1073 51.5341 30.6483 51.5147 31.2041V37.9251C51.5287 38.3535 51.3723 38.7699 51.08 39.0833C50.7876 39.3967 50.383 39.5816 49.9547 39.5974Z" fill="#1E1E1E"/>
<path d="M58.529 39.5966H52.3254C51.8651 39.5794 51.4303 39.3807 51.1161 39.0438C50.802 38.707 50.6339 38.2595 50.6488 37.7991V31.3333C50.6283 30.7447 50.8416 30.172 51.2422 29.7402C51.6428 29.3085 52.198 29.0529 52.7864 29.0293H58.529C59.1175 29.0529 59.6727 29.3085 60.0732 29.7402C60.4738 30.172 60.6871 30.7447 60.6666 31.3333V37.293C60.6871 37.8815 60.4738 38.4542 60.0732 38.8859C59.6726 39.3176 59.1174 39.5731 58.529 39.5966ZM52.7864 29.896C52.428 29.9198 52.0934 30.0842 51.8554 30.3533C51.6174 30.6225 51.4953 30.9746 51.5155 31.3333V37.7991C51.5008 38.0296 51.5776 38.2566 51.7292 38.4309C51.8808 38.6051 52.095 38.7126 52.3254 38.7299H58.529C58.8875 38.7063 59.2221 38.542 59.4601 38.2729C59.6981 38.0038 59.8203 37.6516 59.7999 37.293V31.3333C59.8203 30.9746 59.6981 30.6224 59.4601 30.3532C59.2221 30.084 58.8875 29.9197 58.529 29.896H52.7864Z" fill="#1E1E1E"/>
<path d="M26.3371 58.998H6.35392C5.7979 58.9761 5.27318 58.7349 4.89452 58.3272C4.51586 57.9194 4.31407 57.3783 4.33329 56.8222V50.6069C4.31407 50.0508 4.51586 49.5097 4.89452 49.102C5.27318 48.6942 5.7979 48.453 6.35392 48.4312H26.7982C27.2261 48.4466 27.6305 48.631 27.9229 48.9439C28.2152 49.2568 28.3717 49.6728 28.3582 50.1008V56.8222C28.3774 57.3784 28.1755 57.9196 27.7968 58.3273C27.418 58.7351 26.8932 58.9762 26.3371 58.998ZM6.35392 49.2978C6.02791 49.32 5.72381 49.4699 5.50773 49.7151C5.29165 49.9602 5.18105 50.2807 5.19996 50.6069V56.8222C5.18105 57.1484 5.29165 57.4689 5.50773 57.7141C5.72381 57.9592 6.02791 58.1091 6.35392 58.1313H26.3371C26.6631 58.1091 26.9672 57.9592 27.1833 57.7141C27.3994 57.4689 27.51 57.1484 27.4911 56.8222V50.1008C27.5043 49.9027 27.439 49.7073 27.3092 49.557C27.1794 49.4067 26.9957 49.3136 26.7977 49.2978H6.35392Z" fill="#1E1E1E"/>
<path d="M49.495 58.998H29.51C28.954 58.9761 28.4293 58.7349 28.0507 58.3272C27.672 57.9194 27.4702 57.3783 27.4894 56.8222V50.1008C27.4758 49.6728 27.6324 49.2568 27.9247 48.9439C28.2171 48.631 28.6215 48.4466 29.0494 48.4312H49.9543C50.3823 48.4465 50.7867 48.6309 51.0791 48.9438C51.3715 49.2567 51.528 49.6727 51.5143 50.1008V56.8222C51.5335 57.3781 51.3319 57.919 50.9535 58.3267C50.5751 58.7344 50.0507 58.9758 49.495 58.998ZM29.0511 49.2978C28.8532 49.3136 28.6694 49.4067 28.5396 49.557C28.4099 49.7073 28.3445 49.9027 28.3578 50.1008V56.8222C28.3389 57.1484 28.4495 57.4689 28.6656 57.7141C28.8817 57.9592 29.1858 58.1091 29.5118 58.1313H49.495C49.821 58.1091 50.1251 57.9592 50.3411 57.7141C50.5572 57.4689 50.6678 57.1484 50.6489 56.8222V50.1008C50.6622 49.9027 50.5969 49.7073 50.4671 49.557C50.3373 49.4067 50.1535 49.3136 49.9556 49.2978H29.0511Z" fill="#1E1E1E"/>
<path d="M58.529 58.998H52.7864C52.198 58.9745 51.6428 58.719 51.2422 58.2873C50.8417 57.8557 50.6283 57.2829 50.6488 56.6944V50.2291C50.6338 49.7686 50.8018 49.321 51.116 48.984C51.4302 48.6471 51.865 48.4483 52.3254 48.4312H58.529C59.1174 48.4546 59.6726 48.7101 60.0732 49.1418C60.4738 49.5735 60.6871 50.1462 60.6666 50.7348V56.6944C60.6871 57.2829 60.4738 57.8557 60.0732 58.2873C59.6726 58.719 59.1174 58.9745 58.529 58.998ZM52.3254 49.2978C52.095 49.3153 51.8808 49.4228 51.7292 49.5971C51.5776 49.7714 51.5008 49.9985 51.5155 50.2291V56.6944C51.4953 57.053 51.6175 57.4052 51.8554 57.6742C52.0934 57.9433 52.428 58.1076 52.7864 58.1313H58.529C58.8875 58.1077 59.2221 57.9434 59.4601 57.6743C59.6981 57.4053 59.8203 57.0531 59.7999 56.6944V50.7348C59.8203 50.3761 59.6981 50.0239 59.4601 49.7548C59.2221 49.4857 58.8875 49.3215 58.529 49.2978H52.3254Z" fill="#1E1E1E"/>
<path d="M58.646 49.2977H38.2018C37.7738 49.2821 37.3694 49.0976 37.0771 48.7847C36.7847 48.4717 36.6282 48.0557 36.6418 47.6276V40.3996C36.6282 39.9716 36.7847 39.5556 37.0771 39.2427C37.3695 38.9298 37.7739 38.7455 38.2018 38.73H58.646C59.2022 38.752 59.727 38.9933 60.1056 39.4012C60.4843 39.8091 60.686 40.3504 60.6667 40.9066V47.1223C60.6857 47.6784 60.4838 48.2193 60.1052 48.6269C59.7265 49.0345 59.2019 49.2757 58.646 49.2977ZM38.2018 39.5966C38.0039 39.6124 37.8201 39.7055 37.6903 39.8558C37.5605 40.0061 37.4952 40.2015 37.5085 40.3996V47.6276C37.4952 47.8258 37.5605 48.0212 37.6903 48.1716C37.82 48.322 38.0038 48.4152 38.2018 48.431H58.646C58.9721 48.4087 59.2762 48.2587 59.4923 48.0135C59.7083 47.7683 59.8189 47.4477 59.8 47.1215V40.9066C59.8189 40.5804 59.7083 40.2599 59.4922 40.0148C59.2762 39.7696 58.9721 39.6197 58.646 39.5975L38.2018 39.5966Z" fill="#1E1E1E"/>
<path d="M35.9488 49.2977H15.044C14.616 49.2822 14.2115 49.0978 13.9191 48.7848C13.6268 48.4718 13.4703 48.0557 13.484 47.6276V40.3996C13.4704 39.9716 13.6269 39.5556 13.9193 39.2427C14.2116 38.9298 14.616 38.7455 15.044 38.73H35.9488C36.3768 38.7456 36.7811 38.93 37.0734 39.2429C37.3658 39.5557 37.5223 39.9716 37.5088 40.3996V47.6276C37.5224 48.0557 37.3659 48.4717 37.0736 48.7847C36.7812 49.0976 36.3768 49.2821 35.9488 49.2977ZM15.044 39.5966C14.846 39.6124 14.6623 39.7055 14.5325 39.8558C14.4027 40.0061 14.3374 40.2015 14.3506 40.3996V47.6276C14.3374 47.8258 14.4027 48.0212 14.5325 48.1716C14.6622 48.322 14.846 48.4152 15.044 48.431H35.9488C36.1468 48.4152 36.3306 48.322 36.4604 48.1716C36.5901 48.0212 36.6555 47.8258 36.6422 47.6276V40.3996C36.6555 40.2015 36.5901 40.0061 36.4604 39.8558C36.3306 39.7055 36.1468 39.6124 35.9488 39.5966H15.044Z" fill="#1E1E1E"/>
<path d="M12.6746 49.2977H6.47102C5.88255 49.2741 5.32734 49.0185 4.92678 48.5868C4.52621 48.155 4.31287 47.5822 4.33339 46.9936V41.034C4.31287 40.4454 4.52621 39.8727 4.92678 39.4409C5.32734 39.0092 5.88255 38.7536 6.47102 38.73H12.6746C13.1349 38.7473 13.5697 38.9461 13.8839 39.283C14.198 39.6199 14.3661 40.0675 14.3512 40.5279V47.4998C14.3661 47.9602 14.198 48.4078 13.8839 48.7447C13.5697 49.0816 13.1349 49.2804 12.6746 49.2977ZM6.47102 39.5966C6.11251 39.6204 5.77787 39.7847 5.53986 40.0539C5.30186 40.3231 5.17974 40.6753 5.20005 41.034V46.9936C5.17974 47.3524 5.30186 47.7046 5.53986 47.9738C5.77787 48.2429 6.11251 48.4073 6.47102 48.431H12.6746C12.905 48.4136 13.1192 48.306 13.2708 48.1317C13.4224 47.9574 13.4992 47.7303 13.4845 47.4998V40.5279C13.4992 40.2973 13.4224 40.0703 13.2708 39.8959C13.1192 39.7216 12.905 39.6141 12.6746 39.5966H6.47102Z" fill="#1E1E1E"/>
<path d="M58.646 29.8959H41.9627C41.4067 29.874 40.8819 29.6328 40.5033 29.2251C40.1246 28.8173 39.9228 28.2762 39.9421 27.7201V20.9982C39.9285 20.5702 40.085 20.1543 40.3774 19.8414C40.6697 19.5285 41.0741 19.3441 41.5021 19.3286H58.6469C59.2027 19.3508 59.7271 19.5922 60.1056 19.9998C60.4841 20.4075 60.6858 20.9484 60.6667 21.5044V27.7201C60.6859 28.2762 60.4841 28.8173 60.1054 29.2251C59.7268 29.6328 59.202 29.874 58.646 29.8959ZM41.5012 20.1953C41.3033 20.2111 41.1196 20.3043 40.9898 20.4545C40.8601 20.6048 40.7947 20.8001 40.8079 20.9982V27.7201C40.7889 28.0463 40.8995 28.3668 41.1156 28.612C41.3317 28.8571 41.6358 29.007 41.9618 29.0292H58.6452C58.9713 29.0073 59.2756 28.8574 59.4919 28.6123C59.7082 28.3671 59.8189 28.0465 59.8 27.7201V21.5044C59.8189 21.1782 59.7083 20.8577 59.4922 20.6125C59.2761 20.3674 58.972 20.2175 58.646 20.1953H41.5012Z" fill="#1E1E1E"/>
<path d="M58.529 20.1957H52.3254C51.8651 20.1785 51.4304 19.9798 51.1162 19.643C50.802 19.3061 50.634 18.8586 50.6489 18.3982V11.4263C50.634 10.9659 50.802 10.5183 51.1162 10.1814C51.4303 9.84452 51.8651 9.6457 52.3254 9.62842H58.529C59.1175 9.652 59.6727 9.9076 60.0733 10.3393C60.4738 10.7711 60.6872 11.3439 60.6667 11.9325V17.8921C60.6872 18.4806 60.4738 19.0534 60.0732 19.485C59.6727 19.9167 59.1175 20.1722 58.529 20.1957ZM52.3254 10.4951C52.0951 10.5125 51.8808 10.6201 51.7292 10.7944C51.5776 10.9687 51.5008 11.1958 51.5155 11.4263V18.3982C51.5008 18.6287 51.5776 18.8557 51.7293 19.03C51.8809 19.2042 52.0951 19.3117 52.3254 19.329H58.529C58.8875 19.3054 59.2221 19.1411 59.4602 18.8721C59.6982 18.603 59.8203 18.2508 59.8 17.8921V11.9325C59.8203 11.5737 59.6982 11.2215 59.4602 10.9523C59.2222 10.6832 58.8875 10.5188 58.529 10.4951H52.3254Z" fill="#1E1E1E"/>
<path d="M32.0199 33.5133C29.9785 33.5133 26.7454 32.8633 21.7902 30.4366C16.7441 27.9666 14.7642 26.401 14.4851 24.6694C14.1666 22.6938 16.1149 20.7854 19.3428 17.6234L19.7562 17.2186C19.7757 17.1995 19.7971 17.1823 19.8199 17.1671L19.9499 17.0336C23.2038 13.6354 25.1681 11.5836 27.1701 11.896C28.9229 12.1686 30.4417 14.0969 32.9741 19.2661C38.1018 29.7268 35.2561 32.5435 35.1326 32.6587C35.0845 32.7112 34.2884 33.5133 32.0199 33.5133ZM20.2952 17.9037L19.9486 18.243C17.0257 21.1069 15.0939 22.9989 15.3401 24.5311C15.5641 25.9221 17.4794 27.3599 22.1711 29.6583C31.9047 34.4276 34.4973 32.0711 34.5211 32.046C34.5614 32.0027 36.9755 29.4001 32.1972 19.6475C29.8719 14.9012 28.4272 12.9681 27.0405 12.7523C25.4861 12.51 23.6362 14.4388 20.5756 17.6329L20.3819 17.8353C20.3561 17.8618 20.327 17.8848 20.2952 17.9037Z" fill="#1E1E1E"/>
<path d="M19.237 18.7671C19.122 18.7671 19.0118 18.7214 18.9306 18.6402L17.5184 17.2279C17.4371 17.1467 17.3915 17.0365 17.3915 16.9216C17.3915 16.8067 17.4371 16.6965 17.5184 16.6152L19.1468 14.9867C19.2281 14.9055 19.3383 14.8599 19.4532 14.8599C19.5681 14.8599 19.6783 14.9055 19.7596 14.9867L21.1701 16.3977C21.249 16.4794 21.2927 16.5889 21.2917 16.7025C21.2907 16.8161 21.2451 16.9248 21.1648 17.0051C21.0844 17.0855 20.9757 17.131 20.8621 17.132C20.7485 17.133 20.639 17.0893 20.5573 17.0104L19.4532 15.9058L18.4375 16.9216L19.5433 18.0266C19.6039 18.0872 19.6452 18.1644 19.6619 18.2484C19.6786 18.3325 19.67 18.4196 19.6372 18.4988C19.6044 18.5779 19.5489 18.6456 19.4777 18.6932C19.4064 18.7408 19.3226 18.7663 19.237 18.7663V18.7671Z" fill="#1E1E1E"/>
<path d="M16.747 18.0071C16.563 18.008 16.3806 17.9725 16.2104 17.9026C16.0402 17.8328 15.8854 17.73 15.7551 17.6002L8.76324 10.6075C8.63004 10.4746 8.52521 10.3161 8.45511 10.1415C8.38502 9.96688 8.35112 9.77986 8.35547 9.59176C8.3622 9.21096 8.51775 8.84792 8.78881 8.58036L10.9351 6.43406C11.201 6.16228 11.5639 6.00709 11.9441 6.00254C12.3243 5.99799 12.6908 6.14446 12.9631 6.4098L19.9532 13.4021C20.2185 13.6743 20.3649 14.0407 20.3605 14.4208C20.356 14.8009 20.201 15.1637 19.9294 15.4296L17.7831 17.5759C17.6473 17.7125 17.4858 17.8208 17.308 17.8948C17.1302 17.9688 16.9396 18.007 16.747 18.0071ZM11.9695 6.87043H11.9599C11.8043 6.87334 11.6559 6.9373 11.547 7.04853L9.40024 9.19483C9.28936 9.30404 9.22547 9.4522 9.22214 9.6078C9.21999 9.67988 9.23257 9.75164 9.25909 9.81869C9.28561 9.88575 9.32553 9.94669 9.37641 9.9978L16.3678 16.9866C16.4775 17.0896 16.6236 17.1448 16.774 17.1404C16.9244 17.1359 17.0669 17.072 17.1703 16.9628L19.3166 14.8165C19.4257 14.713 19.4894 14.5706 19.4939 14.4203C19.4983 14.2701 19.4432 14.1241 19.3405 14.0144L12.3499 7.02296C12.2999 6.9733 12.2405 6.93408 12.1752 6.90759C12.1099 6.88111 12.04 6.86788 11.9695 6.8687V6.87043Z" fill="#1E1E1E"/>
<path d="M12.1234 13.7886C12.0377 13.7886 11.954 13.7631 11.8827 13.7155C11.8115 13.6679 11.756 13.6002 11.7232 13.5211C11.6904 13.4419 11.6818 13.3548 11.6985 13.2707C11.7152 13.1867 11.7565 13.1095 11.8171 13.0489L15.402 9.46348C15.4423 9.42322 15.49 9.39128 15.5426 9.36948C15.5952 9.34768 15.6515 9.33645 15.7085 9.33643C15.7654 9.33641 15.8217 9.3476 15.8743 9.36936C15.9269 9.39112 15.9747 9.42303 16.015 9.46326C16.0552 9.5035 16.0872 9.55126 16.109 9.60384C16.1308 9.65642 16.142 9.71278 16.142 9.76969C16.1421 9.82661 16.1309 9.88298 16.1091 9.93557C16.0873 9.98816 16.0554 10.036 16.0152 10.0762L12.4298 13.6616C12.3485 13.7429 12.2383 13.7886 12.1234 13.7886Z" fill="#1E1E1E"/>
<path d="M10.4191 12.0845C10.3334 12.0845 10.2496 12.059 10.1784 12.0114C10.1071 11.9638 10.0516 11.8961 10.0188 11.817C9.98603 11.7378 9.97745 11.6507 9.99416 11.5666C10.0109 11.4826 10.0521 11.4054 10.1127 11.3448L13.6981 7.75983C13.7798 7.68089 13.8893 7.63721 14.0029 7.6382C14.1165 7.63919 14.2252 7.68476 14.3056 7.7651C14.3859 7.84545 14.4315 7.95413 14.4325 8.06775C14.4335 8.18137 14.3898 8.29083 14.3108 8.37256L10.7254 11.9575C10.6853 11.9979 10.6376 12.0299 10.585 12.0517C10.5324 12.0735 10.476 12.0846 10.4191 12.0845Z" fill="#1E1E1E"/>
</svg>
