<svg width="65" height="65" viewBox="0 0 65 65" fill="none" xmlns="http://www.w3.org/2000/svg">
<path d="M8.41581 37.2557C7.60838 37.2557 6.81908 37.0163 6.14773 36.5677C5.47638 36.1191 4.95312 35.4815 4.64413 34.7355C4.33514 33.9896 4.2543 33.1687 4.41182 32.3768C4.56934 31.5849 4.95815 30.8575 5.52909 30.2865C6.10003 29.7156 6.82745 29.3268 7.61937 29.1693C8.41128 29.0117 9.23212 29.0926 9.97809 29.4016C10.7241 29.7106 11.3616 30.2338 11.8102 30.9052C12.2588 31.5765 12.4982 32.3658 12.4982 33.1733C12.4971 34.2556 12.0666 35.2934 11.3013 36.0587C10.5359 36.8241 9.49819 37.2545 8.41581 37.2557ZM8.41581 29.9575C7.77979 29.9575 7.15806 30.1461 6.62923 30.4994C6.10039 30.8528 5.68822 31.355 5.44483 31.9426C5.20143 32.5302 5.13775 33.1768 5.26183 33.8006C5.38591 34.4244 5.69219 34.9974 6.14192 35.4471C6.59165 35.8969 7.16465 36.2032 7.78844 36.3272C8.41224 36.4513 9.05883 36.3876 9.64643 36.1442C10.234 35.9008 10.7363 35.4887 11.0896 34.9598C11.443 34.431 11.6316 33.8093 11.6316 33.1733C11.6307 32.3207 11.2916 31.5033 10.6887 30.9004C10.0858 30.2975 9.2684 29.9584 8.41581 29.9575Z" fill="#002F49"/>
<path d="M8.4158 35.0664C8.04146 35.0663 7.67555 34.9552 7.36434 34.7472C7.05313 34.5391 6.81059 34.2435 6.66739 33.8976C6.5242 33.5517 6.48678 33.1712 6.55986 32.804C6.63294 32.4369 6.81325 32.0997 7.07798 31.835C7.34271 31.5703 7.67998 31.3901 8.04713 31.3171C8.41429 31.2441 8.79484 31.2816 9.14068 31.4249C9.48652 31.5682 9.78211 31.8108 9.99007 32.122C10.198 32.4333 10.309 32.7992 10.309 33.1736C10.3085 33.6755 10.1088 34.1566 9.75386 34.5115C9.39893 34.8663 8.91771 35.0659 8.4158 35.0664ZM8.4158 32.1474C8.21287 32.1475 8.01452 32.2078 7.84583 32.3206C7.67714 32.4334 7.54569 32.5937 7.46809 32.7812C7.39049 32.9687 7.37023 33.175 7.40987 33.374C7.44952 33.573 7.54728 33.7558 7.69081 33.8993C7.83433 34.0428 8.01717 34.1405 8.21621 34.18C8.41525 34.2196 8.62155 34.1992 8.80902 34.1215C8.9965 34.0439 9.15673 33.9123 9.26947 33.7436C9.3822 33.5749 9.44237 33.3765 9.44237 33.1736C9.44214 32.9014 9.3339 32.6405 9.14142 32.4481C8.94894 32.2557 8.68796 32.1475 8.4158 32.1474Z" fill="#002F49"/>
<path d="M53.8339 25.4686C53.8113 25.4686 53.7905 25.4686 53.7658 25.4665C53.6 25.4545 53.4409 25.3966 53.3061 25.2993C53.1714 25.2019 53.0665 25.0689 53.0032 24.9153L45.63 7.18847C45.5637 7.02907 45.5448 6.85395 45.5754 6.68407C45.6061 6.51419 45.6851 6.35674 45.8029 6.23056C45.9207 6.10438 46.0724 6.01482 46.2397 5.9726C46.4071 5.93037 46.5831 5.93727 46.7467 5.99247L53.0734 8.12751C53.1314 8.14726 53.1846 8.17911 53.2294 8.22094C53.2742 8.26277 53.3097 8.31363 53.3334 8.37017L57.8946 19.2265C57.9208 19.2891 57.9319 19.3571 57.927 19.4248C57.9221 19.4926 57.9014 19.5582 57.8665 19.6165L54.6 25.034C54.5208 25.1665 54.4086 25.2763 54.2743 25.3525C54.14 25.4286 53.9883 25.4687 53.8339 25.4686ZM53.8035 24.5825L53.8599 24.5868L57.0115 19.3591L52.6114 8.88627L46.4702 6.81364L46.4308 6.85697L53.8035 24.5838V24.5825Z" fill="#002F49"/>
<path d="M54.4557 21.2874C54.3701 21.2874 54.2865 21.2621 54.2154 21.2147C54.1442 21.1673 54.0886 21.0998 54.0557 21.0209L49.0685 9.09991C49.0452 9.04719 49.0327 8.99036 49.0317 8.93275C49.0307 8.87514 49.0411 8.81791 49.0625 8.76439C49.0839 8.71088 49.1157 8.66216 49.1561 8.62109C49.1965 8.58002 49.2447 8.54742 49.2979 8.52521C49.351 8.50299 49.4081 8.4916 49.4657 8.4917C49.5233 8.4918 49.5804 8.50339 49.6334 8.5258C49.6865 8.5482 49.7346 8.58097 49.7749 8.62218C49.8152 8.66339 49.8468 8.71222 49.868 8.76581L54.8552 20.6864C54.8828 20.7522 54.8936 20.8239 54.8868 20.8949C54.88 20.966 54.8558 21.0342 54.8163 21.0937C54.7767 21.1531 54.7231 21.2018 54.6602 21.2356C54.5973 21.2693 54.527 21.2874 54.4557 21.2874Z" fill="#002F49"/>
<path d="M10.6427 30.7146C10.5386 30.7153 10.4378 30.6785 10.3586 30.611C10.2795 30.5435 10.2272 30.4498 10.2114 30.3469C10.1957 30.2441 10.2174 30.139 10.2727 30.0509C10.328 29.9628 10.4132 29.8975 10.5127 29.867L26.7878 23.2803C26.8406 23.2585 26.8973 23.2474 26.9544 23.2476C27.0116 23.2477 27.0681 23.2592 27.1208 23.2814C27.1735 23.3035 27.2213 23.3358 27.2614 23.3765C27.3016 23.4172 27.3333 23.4654 27.3547 23.5184C27.3762 23.5714 27.3869 23.6281 27.3863 23.6852C27.3858 23.7424 27.3739 23.7988 27.3514 23.8514C27.3289 23.9039 27.2963 23.9515 27.2553 23.9914C27.2144 24.0312 27.1659 24.0626 27.1128 24.0837L10.8065 30.6834C10.7544 30.7043 10.6988 30.7149 10.6427 30.7146Z" fill="#002F49"/>
<path d="M32.7903 21.7489C32.6897 21.749 32.5922 21.7141 32.5145 21.6502C32.4369 21.5863 32.3839 21.4973 32.3646 21.3986C32.3453 21.2999 32.361 21.1975 32.409 21.1091C32.4569 21.0206 32.5341 20.9516 32.6274 20.9139L49.0468 14.2666C49.0996 14.2452 49.156 14.2344 49.2129 14.2349C49.2698 14.2353 49.3261 14.247 49.3785 14.2692C49.4309 14.2914 49.4785 14.3237 49.5184 14.3642C49.5583 14.4048 49.5899 14.4528 49.6112 14.5056C49.6326 14.5583 49.6434 14.6147 49.6429 14.6717C49.6425 14.7286 49.6308 14.7848 49.6086 14.8373C49.5864 14.8897 49.5541 14.9372 49.5136 14.9771C49.473 15.0171 49.425 15.0486 49.3722 15.07L32.9528 21.7173C32.9012 21.7383 32.846 21.749 32.7903 21.7489Z" fill="#002F49"/>
<path d="M12.0249 34.1251C11.9243 34.1251 11.8267 34.0901 11.7491 34.026C11.6714 33.962 11.6184 33.8729 11.5993 33.774C11.5802 33.6752 11.5961 33.5728 11.6443 33.4844C11.6924 33.396 11.7699 33.3271 11.8633 33.2896L29.0792 26.3697C29.1323 26.3465 29.1895 26.3342 29.2474 26.3335C29.3054 26.3328 29.3629 26.3438 29.4165 26.3657C29.4701 26.3876 29.5188 26.42 29.5597 26.4611C29.6006 26.5021 29.6328 26.551 29.6545 26.6047C29.6761 26.6584 29.6868 26.716 29.6859 26.7739C29.6849 26.8318 29.6724 26.889 29.649 26.9419C29.6256 26.9949 29.5918 27.0427 29.5496 27.0824C29.5074 27.1221 29.4577 27.1529 29.4033 27.1731L12.1866 34.0939C12.1352 34.1145 12.0803 34.1251 12.0249 34.1251Z" fill="#002F49"/>
<path d="M35.2993 24.7697C35.1985 24.77 35.1007 24.7351 35.0228 24.671C34.9449 24.6069 34.8918 24.5177 34.8726 24.4186C34.8535 24.3196 34.8695 24.217 34.9179 24.1285C34.9663 24.04 35.044 23.9711 35.1377 23.9338L50.5037 17.7588C50.5565 17.7376 50.613 17.727 50.6699 17.7276C50.7268 17.7282 50.7831 17.74 50.8354 17.7623C50.8878 17.7846 50.9352 17.8171 50.975 17.8577C51.0148 17.8984 51.0463 17.9465 51.0675 17.9993C51.0887 18.0521 51.0993 18.1086 51.0987 18.1655C51.0981 18.2224 51.0863 18.2786 51.064 18.331C51.0417 18.3833 51.0092 18.4308 50.9686 18.4706C50.9279 18.5104 50.8798 18.5418 50.827 18.5631L35.461 24.7381C35.4096 24.7588 35.3547 24.7695 35.2993 24.7697Z" fill="#002F49"/>
<path d="M60.2334 59.0556H4.76671C4.65178 59.0556 4.54156 59.01 4.46029 58.9287C4.37903 58.8474 4.33337 58.7372 4.33337 58.6223C4.33337 58.5074 4.37903 58.3972 4.46029 58.3159C4.54156 58.2346 4.65178 58.189 4.76671 58.189H60.2334C60.3483 58.189 60.4585 58.2346 60.5398 58.3159C60.6211 58.3972 60.6667 58.5074 60.6667 58.6223C60.6667 58.7372 60.6211 58.8474 60.5398 58.9287C60.4585 59.01 60.3483 59.0556 60.2334 59.0556Z" fill="#002F49"/>
<path d="M58.591 59.0557H48.4978C47.9475 59.0557 47.4196 58.8371 47.0304 58.4479C46.6412 58.0587 46.4226 57.5309 46.4226 56.9805C46.4226 56.4301 46.6412 55.9023 47.0304 55.5131C47.4196 55.1239 47.9475 54.9053 48.4978 54.9053H58.591C59.1414 54.9053 59.6693 55.1239 60.0585 55.5131C60.4476 55.9023 60.6663 56.4301 60.6663 56.9805C60.6663 57.5309 60.4476 58.0587 60.0585 58.4479C59.6693 58.8371 59.1414 59.0557 58.591 59.0557ZM48.4978 55.7702C48.1773 55.7702 47.8699 55.8975 47.6433 56.1242C47.4166 56.3508 47.2893 56.6582 47.2893 56.9788C47.2893 57.2993 47.4166 57.6067 47.6433 57.8334C47.8699 58.06 48.1773 58.1873 48.4978 58.1873H58.591C58.9116 58.1873 59.219 58.06 59.4456 57.8334C59.6723 57.6067 59.7996 57.2993 59.7996 56.9788C59.7996 56.6582 59.6723 56.3508 59.4456 56.1242C59.219 55.8975 58.9116 55.7702 58.591 55.7702H48.4978Z" fill="#002F49"/>
<path d="M55.5477 55.7701H51.4743C51.3594 55.7701 51.2492 55.7244 51.1679 55.6432C51.0867 55.5619 51.041 55.4517 51.041 55.3367V53.3001C51.041 52.645 51.3012 52.0167 51.7645 51.5535C52.2277 51.0903 52.8559 50.8301 53.511 50.8301C54.1661 50.8301 54.7944 51.0903 55.2576 51.5535C55.7208 52.0167 55.981 52.645 55.981 53.3001V55.3367C55.981 55.4517 55.9354 55.5619 55.8541 55.6432C55.7728 55.7244 55.6626 55.7701 55.5477 55.7701ZM51.9077 54.9034H55.1143V53.3001C55.1143 52.8748 54.9454 52.467 54.6447 52.1663C54.3441 51.8657 53.9362 51.6967 53.511 51.6967C53.0858 51.6967 52.678 51.8657 52.3773 52.1663C52.0766 52.467 51.9077 52.8748 51.9077 53.3001V54.9034Z" fill="#002F49"/>
<path d="M53.5115 51.6986C53.3965 51.6986 53.2863 51.653 53.205 51.5717C53.1238 51.4904 53.0781 51.3802 53.0781 51.2653V24.7488C53.0781 24.6338 53.1238 24.5236 53.205 24.4423C53.2863 24.3611 53.3965 24.3154 53.5115 24.3154C53.6264 24.3154 53.7366 24.3611 53.8179 24.4423C53.8991 24.5236 53.9448 24.6338 53.9448 24.7488V51.2653C53.9448 51.3802 53.8991 51.4904 53.8179 51.5717C53.7366 51.653 53.6264 51.6986 53.5115 51.6986Z" fill="#002F49"/>
<path d="M12.0346 59.0553H4.76671C4.65178 59.0553 4.54156 59.0097 4.46029 58.9284C4.37903 58.8471 4.33337 58.7369 4.33337 58.622V52.0539C4.33337 51.939 4.37903 51.8288 4.46029 51.7475C4.54156 51.6663 4.65178 51.6206 4.76671 51.6206H12.0346C12.1495 51.6206 12.2597 51.6663 12.341 51.7475C12.4223 51.8288 12.4679 51.939 12.4679 52.0539V58.622C12.4679 58.7369 12.4223 58.8471 12.341 58.9284C12.2597 59.0097 12.1495 59.0553 12.0346 59.0553ZM5.20004 58.1886H11.6012V52.4873H5.20004V58.1886Z" fill="#002F49"/>
<path d="M10.3277 52.4875H6.47447C6.35954 52.4875 6.24932 52.4418 6.16806 52.3606C6.08679 52.2793 6.04114 52.1691 6.04114 52.0541V51.6533C6.04183 51.0949 6.26397 50.5595 6.65886 50.1646C7.05374 49.7697 7.58912 49.5476 8.14757 49.5469H8.655C9.21341 49.5476 9.74875 49.7697 10.1436 50.1646C10.5384 50.5595 10.7604 51.0949 10.761 51.6533V52.0533C10.7611 52.1103 10.75 52.1667 10.7283 52.2194C10.7065 52.272 10.6746 52.3199 10.6344 52.3602C10.5941 52.4006 10.5463 52.4326 10.4937 52.4544C10.4411 52.4762 10.3847 52.4875 10.3277 52.4875ZM6.90824 51.6208H9.89434C9.8851 51.2981 9.75054 50.9916 9.51919 50.7664C9.28783 50.5412 8.97787 50.415 8.655 50.4144H8.1467C7.82399 50.4152 7.51424 50.5415 7.28308 50.7667C7.05191 50.9919 6.91747 51.2982 6.90824 51.6208Z" fill="#002F49"/>
<path d="M12.0342 59.0557C11.927 59.0557 11.8236 59.0159 11.7443 58.9439L4.47639 52.3754C4.43183 52.3379 4.39528 52.2919 4.36891 52.24C4.34254 52.1881 4.3269 52.1314 4.32292 52.0733C4.31893 52.0153 4.32669 51.957 4.34573 51.902C4.36476 51.847 4.39468 51.7964 4.43371 51.7532C4.47274 51.71 4.52006 51.6751 4.57287 51.6506C4.62567 51.6261 4.68287 51.6125 4.74105 51.6106C4.79923 51.6087 4.8572 51.6185 4.91149 51.6395C4.96578 51.6605 5.01529 51.6922 5.05706 51.7328L12.3249 58.3012C12.3898 58.36 12.4353 58.437 12.4555 58.5221C12.4758 58.6072 12.4698 58.6965 12.4383 58.7782C12.4068 58.8598 12.3514 58.93 12.2792 58.9795C12.2071 59.0291 12.1217 59.0556 12.0342 59.0557Z" fill="#002F49"/>
<path d="M8.41576 50.4144C8.30083 50.4144 8.19061 50.3688 8.10934 50.2875C8.02808 50.2062 7.98242 50.096 7.98242 49.9811V36.8225C7.98242 36.7076 8.02808 36.5973 8.10934 36.5161C8.19061 36.4348 8.30083 36.3892 8.41576 36.3892C8.53068 36.3892 8.6409 36.4348 8.72217 36.5161C8.80343 36.5973 8.84909 36.7076 8.84909 36.8225V49.9811C8.84909 50.096 8.80343 50.2062 8.72217 50.2875C8.6409 50.3688 8.53068 50.4144 8.41576 50.4144Z" fill="#002F49"/>
<path d="M37.8131 59.0553H24.2896C24.2273 59.0554 24.1658 59.042 24.1091 59.0161C24.0525 58.9902 24.0021 58.9524 23.9614 58.9053C23.9207 58.8581 23.8906 58.8028 23.8732 58.743C23.8558 58.6832 23.8515 58.6203 23.8606 58.5587L28.59 26.483C28.6068 26.3692 28.668 26.2668 28.7603 26.1983C28.8526 26.1297 28.9683 26.1007 29.0821 26.1174C29.1958 26.1342 29.2982 26.1955 29.3667 26.2878C29.4353 26.38 29.4643 26.4958 29.4476 26.6095L24.7914 58.1887H37.31L32.6625 26.6095C32.6457 26.4958 32.6749 26.3801 32.7435 26.2878C32.8121 26.1956 32.9145 26.1344 33.0282 26.1177C33.1419 26.1009 33.2576 26.1301 33.3499 26.1987C33.4421 26.2672 33.5033 26.3697 33.52 26.4834L38.2434 58.5592C38.2524 58.6207 38.2481 58.6835 38.2307 58.7432C38.2133 58.8029 38.1832 58.8582 38.1426 58.9052C38.1019 58.9523 38.0516 58.9901 37.995 59.016C37.9385 59.0419 37.877 59.0553 37.8148 59.0553H37.8131Z" fill="#002F49"/>
<path d="M31.0514 29.0165C30.9365 29.0164 30.8263 28.9708 30.745 28.8895L26.2414 24.3859C26.1601 24.3046 26.1145 24.1944 26.1145 24.0795C26.1145 23.9646 26.1601 23.8544 26.2414 23.7731L30.745 19.2699C30.8263 19.1887 30.9365 19.1431 31.0514 19.1431C31.1663 19.1431 31.2765 19.1887 31.3577 19.2699L35.8614 23.7731C35.9426 23.8544 35.9883 23.9646 35.9883 24.0795C35.9883 24.1944 35.9426 24.3046 35.8614 24.3859L31.3577 28.8895C31.2765 28.9708 31.1663 29.0164 31.0514 29.0165ZM27.1605 24.0795L31.0514 27.9704L34.9423 24.0795L31.0514 20.189L27.1605 24.0795Z" fill="#002F49"/>
<path d="M24.2897 59.0555C24.1997 59.0554 24.112 59.0274 24.0388 58.9752C23.9655 58.9231 23.9102 58.8494 23.8807 58.7644C23.8512 58.6795 23.8488 58.5874 23.874 58.501C23.8991 58.4147 23.9505 58.3383 24.021 58.2824L35.721 49.0342L26.6128 41.2936C26.5651 41.2529 26.5269 41.2024 26.5007 41.1455C26.4744 41.0886 26.4608 41.0267 26.4608 40.9641C26.4608 40.9014 26.4744 40.8395 26.5007 40.7826C26.5269 40.7257 26.5651 40.6752 26.6128 40.6345L33.6432 34.6112L28.3401 29.3964C28.2963 29.3574 28.2609 29.3099 28.236 29.2567C28.2111 29.2036 28.1973 29.1459 28.1953 29.0873C28.1934 29.0287 28.2034 28.9702 28.2247 28.9156C28.246 28.8609 28.2782 28.8111 28.3193 28.7693C28.3604 28.7274 28.4096 28.6944 28.4639 28.6721C28.5182 28.6498 28.5764 28.6388 28.6351 28.6397C28.6938 28.6406 28.7516 28.6534 28.8052 28.6773C28.8588 28.7013 28.9069 28.7358 28.9467 28.7789L34.584 34.3256C34.6268 34.3677 34.6604 34.4182 34.6827 34.4739C34.705 34.5297 34.7155 34.5895 34.7135 34.6495C34.7114 34.7095 34.6969 34.7685 34.6709 34.8226C34.6449 34.8767 34.6079 34.9248 34.5623 34.9639L27.5601 40.9621L36.683 48.7157C36.7319 48.7572 36.771 48.8091 36.7975 48.8675C36.8239 48.926 36.837 48.9896 36.8359 49.0537C36.8348 49.1178 36.8194 49.1809 36.791 49.2384C36.7625 49.2959 36.7217 49.3463 36.6713 49.3861L24.5575 58.9628C24.4811 59.0228 24.3868 59.0555 24.2897 59.0555Z" fill="#002F49"/>
<path d="M37.7866 59.0557C37.6892 59.0557 37.5945 59.0229 37.518 58.9625L25.4041 49.3858C25.3538 49.3461 25.313 49.2956 25.2845 49.2381C25.256 49.1806 25.2407 49.1175 25.2396 49.0534C25.2384 48.9893 25.2516 48.9257 25.278 48.8673C25.3045 48.8088 25.3435 48.757 25.3924 48.7155L34.5145 40.9623L27.5119 34.9623C27.4662 34.9233 27.4292 34.8752 27.4032 34.8211C27.3771 34.767 27.3626 34.7081 27.3605 34.648C27.3584 34.588 27.3688 34.5282 27.3911 34.4724C27.4133 34.4167 27.447 34.3661 27.4898 34.324L33.1274 28.7774C33.2105 28.7033 33.3189 28.664 33.4301 28.6677C33.5414 28.6714 33.6469 28.7177 33.7249 28.7971C33.8029 28.8765 33.8474 28.9829 33.8491 29.0942C33.8508 29.2054 33.8096 29.3131 33.7341 29.3949L28.434 34.6113L35.4644 40.6347C35.5121 40.6753 35.5503 40.7259 35.5765 40.7828C35.6028 40.8397 35.6164 40.9016 35.6164 40.9642C35.6164 41.0269 35.6028 41.0888 35.5765 41.1457C35.5503 41.2026 35.5121 41.2531 35.4644 41.2938L26.3553 49.0344L38.0553 58.2826C38.1258 58.3384 38.1772 58.4148 38.2024 58.5012C38.2275 58.5876 38.2252 58.6796 38.1956 58.7646C38.1661 58.8495 38.1109 58.9232 38.0376 58.9754C37.9643 59.0275 37.8766 59.0556 37.7866 59.0557Z" fill="#002F49"/>
<path d="M8.41581 37.2557C7.60838 37.2557 6.81908 37.0163 6.14773 36.5677C5.47638 36.1191 4.95312 35.4815 4.64413 34.7355C4.33514 33.9896 4.2543 33.1687 4.41182 32.3768C4.56934 31.5849 4.95815 30.8575 5.52909 30.2865C6.10003 29.7156 6.82745 29.3268 7.61937 29.1693C8.41128 29.0117 9.23212 29.0926 9.97809 29.4016C10.7241 29.7106 11.3616 30.2338 11.8102 30.9052C12.2588 31.5765 12.4982 32.3658 12.4982 33.1733C12.4971 34.2556 12.0666 35.2934 11.3013 36.0587C10.5359 36.8241 9.49819 37.2545 8.41581 37.2557ZM8.41581 29.9575C7.77979 29.9575 7.15806 30.1461 6.62923 30.4994C6.10039 30.8528 5.68822 31.355 5.44483 31.9426C5.20143 32.5302 5.13775 33.1768 5.26183 33.8006C5.38591 34.4244 5.69219 34.9974 6.14192 35.4471C6.59165 35.8969 7.16465 36.2032 7.78844 36.3272C8.41224 36.4513 9.05883 36.3876 9.64643 36.1442C10.234 35.9008 10.7363 35.4887 11.0896 34.9598C11.443 34.431 11.6316 33.8093 11.6316 33.1733C11.6307 32.3207 11.2916 31.5033 10.6887 30.9004C10.0858 30.2975 9.2684 29.9584 8.41581 29.9575Z" fill="#002F49"/>
<path d="M8.4158 35.0664C8.04146 35.0663 7.67555 34.9552 7.36434 34.7472C7.05313 34.5391 6.81059 34.2435 6.66739 33.8976C6.5242 33.5517 6.48678 33.1712 6.55986 32.804C6.63294 32.4369 6.81325 32.0997 7.07798 31.835C7.34271 31.5703 7.67998 31.3901 8.04713 31.3171C8.41429 31.2441 8.79484 31.2816 9.14068 31.4249C9.48652 31.5682 9.78211 31.8108 9.99007 32.122C10.198 32.4333 10.309 32.7992 10.309 33.1736C10.3085 33.6755 10.1088 34.1566 9.75386 34.5115C9.39893 34.8663 8.91771 35.0659 8.4158 35.0664ZM8.4158 32.1474C8.21287 32.1475 8.01452 32.2078 7.84583 32.3206C7.67714 32.4334 7.54569 32.5937 7.46809 32.7812C7.39049 32.9687 7.37023 33.175 7.40987 33.374C7.44952 33.573 7.54728 33.7558 7.69081 33.8993C7.83433 34.0428 8.01717 34.1405 8.21621 34.18C8.41525 34.2196 8.62155 34.1992 8.80902 34.1215C8.9965 34.0439 9.15673 33.9123 9.26947 33.7436C9.3822 33.5749 9.44237 33.3765 9.44237 33.1736C9.44214 32.9014 9.3339 32.6405 9.14142 32.4481C8.94894 32.2557 8.68796 32.1475 8.4158 32.1474Z" fill="#002F49"/>
<path d="M53.8339 25.4686C53.8113 25.4686 53.7905 25.4686 53.7658 25.4665C53.6 25.4545 53.4409 25.3966 53.3061 25.2993C53.1714 25.2019 53.0665 25.0689 53.0032 24.9153L45.63 7.18847C45.5637 7.02907 45.5448 6.85395 45.5754 6.68407C45.6061 6.51419 45.6851 6.35674 45.8029 6.23056C45.9207 6.10438 46.0724 6.01482 46.2397 5.9726C46.4071 5.93037 46.5831 5.93727 46.7467 5.99247L53.0734 8.12751C53.1314 8.14726 53.1846 8.17911 53.2294 8.22094C53.2742 8.26277 53.3097 8.31363 53.3334 8.37017L57.8946 19.2265C57.9208 19.2891 57.9319 19.3571 57.927 19.4248C57.9221 19.4926 57.9014 19.5582 57.8665 19.6165L54.6 25.034C54.5208 25.1665 54.4086 25.2763 54.2743 25.3525C54.14 25.4286 53.9883 25.4687 53.8339 25.4686ZM53.8035 24.5825L53.8599 24.5868L57.0115 19.3591L52.6114 8.88627L46.4702 6.81364L46.4308 6.85697L53.8035 24.5838V24.5825Z" fill="#002F49"/>
<path d="M54.4557 21.2874C54.3701 21.2874 54.2865 21.2621 54.2154 21.2147C54.1442 21.1673 54.0886 21.0998 54.0557 21.0209L49.0685 9.09991C49.0452 9.04719 49.0327 8.99036 49.0317 8.93275C49.0307 8.87514 49.0411 8.81791 49.0625 8.76439C49.0839 8.71088 49.1157 8.66216 49.1561 8.62109C49.1965 8.58002 49.2447 8.54742 49.2979 8.52521C49.351 8.50299 49.4081 8.4916 49.4657 8.4917C49.5233 8.4918 49.5804 8.50339 49.6334 8.5258C49.6865 8.5482 49.7346 8.58097 49.7749 8.62218C49.8152 8.66339 49.8468 8.71222 49.868 8.76581L54.8552 20.6864C54.8828 20.7522 54.8936 20.8239 54.8868 20.8949C54.88 20.966 54.8558 21.0342 54.8163 21.0937C54.7767 21.1531 54.7231 21.2018 54.6602 21.2356C54.5973 21.2693 54.527 21.2874 54.4557 21.2874Z" fill="#002F49"/>
<path d="M10.6427 30.7146C10.5386 30.7153 10.4378 30.6785 10.3586 30.611C10.2795 30.5435 10.2272 30.4498 10.2114 30.3469C10.1957 30.2441 10.2174 30.139 10.2727 30.0509C10.328 29.9628 10.4132 29.8975 10.5127 29.867L26.7878 23.2803C26.8406 23.2585 26.8973 23.2474 26.9544 23.2476C27.0116 23.2477 27.0681 23.2592 27.1208 23.2814C27.1735 23.3035 27.2213 23.3358 27.2614 23.3765C27.3016 23.4172 27.3333 23.4654 27.3547 23.5184C27.3762 23.5714 27.3869 23.6281 27.3863 23.6852C27.3858 23.7424 27.3739 23.7988 27.3514 23.8514C27.3289 23.9039 27.2963 23.9515 27.2553 23.9914C27.2144 24.0312 27.1659 24.0626 27.1128 24.0837L10.8065 30.6834C10.7544 30.7043 10.6988 30.7149 10.6427 30.7146Z" fill="#002F49"/>
<path d="M32.7903 21.7489C32.6897 21.749 32.5922 21.7141 32.5145 21.6502C32.4369 21.5863 32.3839 21.4973 32.3646 21.3986C32.3453 21.2999 32.361 21.1975 32.409 21.1091C32.4569 21.0206 32.5341 20.9516 32.6274 20.9139L49.0468 14.2666C49.0996 14.2452 49.156 14.2344 49.2129 14.2349C49.2698 14.2353 49.3261 14.247 49.3785 14.2692C49.4309 14.2914 49.4785 14.3237 49.5184 14.3642C49.5583 14.4048 49.5899 14.4528 49.6112 14.5056C49.6326 14.5583 49.6434 14.6147 49.6429 14.6717C49.6425 14.7286 49.6308 14.7848 49.6086 14.8373C49.5864 14.8897 49.5541 14.9372 49.5136 14.9771C49.473 15.0171 49.425 15.0486 49.3722 15.07L32.9528 21.7173C32.9012 21.7383 32.846 21.749 32.7903 21.7489Z" fill="#002F49"/>
<path d="M12.0249 34.1251C11.9243 34.1251 11.8267 34.0901 11.7491 34.026C11.6714 33.962 11.6184 33.8729 11.5993 33.774C11.5802 33.6752 11.5961 33.5728 11.6443 33.4844C11.6924 33.396 11.7699 33.3271 11.8633 33.2896L29.0792 26.3697C29.1323 26.3465 29.1895 26.3342 29.2474 26.3335C29.3054 26.3328 29.3629 26.3438 29.4165 26.3657C29.4701 26.3876 29.5188 26.42 29.5597 26.4611C29.6006 26.5021 29.6328 26.551 29.6545 26.6047C29.6761 26.6584 29.6868 26.716 29.6859 26.7739C29.6849 26.8318 29.6724 26.889 29.649 26.9419C29.6256 26.9949 29.5918 27.0427 29.5496 27.0824C29.5074 27.1221 29.4577 27.1529 29.4033 27.1731L12.1866 34.0939C12.1352 34.1145 12.0803 34.1251 12.0249 34.1251Z" fill="#002F49"/>
<path d="M35.2993 24.7697C35.1985 24.77 35.1007 24.7351 35.0228 24.671C34.9449 24.6069 34.8918 24.5177 34.8726 24.4186C34.8535 24.3196 34.8695 24.217 34.9179 24.1285C34.9663 24.04 35.044 23.9711 35.1377 23.9338L50.5037 17.7588C50.5565 17.7376 50.613 17.727 50.6699 17.7276C50.7268 17.7282 50.7831 17.74 50.8354 17.7623C50.8878 17.7846 50.9352 17.8171 50.975 17.8577C51.0148 17.8984 51.0463 17.9465 51.0675 17.9993C51.0887 18.0521 51.0993 18.1086 51.0987 18.1655C51.0981 18.2224 51.0863 18.2786 51.064 18.331C51.0417 18.3833 51.0092 18.4308 50.9686 18.4706C50.9279 18.5104 50.8798 18.5418 50.827 18.5631L35.461 24.7381C35.4096 24.7588 35.3547 24.7695 35.2993 24.7697Z" fill="#002F49"/>
<path d="M60.2334 59.0556H4.76671C4.65178 59.0556 4.54156 59.01 4.46029 58.9287C4.37903 58.8474 4.33337 58.7372 4.33337 58.6223C4.33337 58.5074 4.37903 58.3972 4.46029 58.3159C4.54156 58.2346 4.65178 58.189 4.76671 58.189H60.2334C60.3483 58.189 60.4585 58.2346 60.5398 58.3159C60.6211 58.3972 60.6667 58.5074 60.6667 58.6223C60.6667 58.7372 60.6211 58.8474 60.5398 58.9287C60.4585 59.01 60.3483 59.0556 60.2334 59.0556Z" fill="#002F49"/>
<path d="M58.591 59.0557H48.4978C47.9475 59.0557 47.4196 58.8371 47.0304 58.4479C46.6412 58.0587 46.4226 57.5309 46.4226 56.9805C46.4226 56.4301 46.6412 55.9023 47.0304 55.5131C47.4196 55.1239 47.9475 54.9053 48.4978 54.9053H58.591C59.1414 54.9053 59.6693 55.1239 60.0585 55.5131C60.4476 55.9023 60.6663 56.4301 60.6663 56.9805C60.6663 57.5309 60.4476 58.0587 60.0585 58.4479C59.6693 58.8371 59.1414 59.0557 58.591 59.0557ZM48.4978 55.7702C48.1773 55.7702 47.8699 55.8975 47.6433 56.1242C47.4166 56.3508 47.2893 56.6582 47.2893 56.9788C47.2893 57.2993 47.4166 57.6067 47.6433 57.8334C47.8699 58.06 48.1773 58.1873 48.4978 58.1873H58.591C58.9116 58.1873 59.219 58.06 59.4456 57.8334C59.6723 57.6067 59.7996 57.2993 59.7996 56.9788C59.7996 56.6582 59.6723 56.3508 59.4456 56.1242C59.219 55.8975 58.9116 55.7702 58.591 55.7702H48.4978Z" fill="#002F49"/>
<path d="M55.5477 55.7701H51.4743C51.3594 55.7701 51.2492 55.7244 51.1679 55.6432C51.0867 55.5619 51.041 55.4517 51.041 55.3367V53.3001C51.041 52.645 51.3012 52.0167 51.7645 51.5535C52.2277 51.0903 52.8559 50.8301 53.511 50.8301C54.1661 50.8301 54.7944 51.0903 55.2576 51.5535C55.7208 52.0167 55.981 52.645 55.981 53.3001V55.3367C55.981 55.4517 55.9354 55.5619 55.8541 55.6432C55.7728 55.7244 55.6626 55.7701 55.5477 55.7701ZM51.9077 54.9034H55.1143V53.3001C55.1143 52.8748 54.9454 52.467 54.6447 52.1663C54.3441 51.8657 53.9362 51.6967 53.511 51.6967C53.0858 51.6967 52.678 51.8657 52.3773 52.1663C52.0766 52.467 51.9077 52.8748 51.9077 53.3001V54.9034Z" fill="#002F49"/>
<path d="M53.5115 51.6986C53.3965 51.6986 53.2863 51.653 53.205 51.5717C53.1238 51.4904 53.0781 51.3802 53.0781 51.2653V24.7488C53.0781 24.6338 53.1238 24.5236 53.205 24.4423C53.2863 24.3611 53.3965 24.3154 53.5115 24.3154C53.6264 24.3154 53.7366 24.3611 53.8179 24.4423C53.8991 24.5236 53.9448 24.6338 53.9448 24.7488V51.2653C53.9448 51.3802 53.8991 51.4904 53.8179 51.5717C53.7366 51.653 53.6264 51.6986 53.5115 51.6986Z" fill="#002F49"/>
<path d="M12.0346 59.0553H4.76671C4.65178 59.0553 4.54156 59.0097 4.46029 58.9284C4.37903 58.8471 4.33337 58.7369 4.33337 58.622V52.0539C4.33337 51.939 4.37903 51.8288 4.46029 51.7475C4.54156 51.6663 4.65178 51.6206 4.76671 51.6206H12.0346C12.1495 51.6206 12.2597 51.6663 12.341 51.7475C12.4223 51.8288 12.4679 51.939 12.4679 52.0539V58.622C12.4679 58.7369 12.4223 58.8471 12.341 58.9284C12.2597 59.0097 12.1495 59.0553 12.0346 59.0553ZM5.20004 58.1886H11.6012V52.4873H5.20004V58.1886Z" fill="#002F49"/>
<path d="M10.3277 52.4875H6.47447C6.35954 52.4875 6.24932 52.4418 6.16806 52.3606C6.08679 52.2793 6.04114 52.1691 6.04114 52.0541V51.6533C6.04183 51.0949 6.26397 50.5595 6.65886 50.1646C7.05374 49.7697 7.58912 49.5476 8.14757 49.5469H8.655C9.21341 49.5476 9.74875 49.7697 10.1436 50.1646C10.5384 50.5595 10.7604 51.0949 10.761 51.6533V52.0533C10.7611 52.1103 10.75 52.1667 10.7283 52.2194C10.7065 52.272 10.6746 52.3199 10.6344 52.3602C10.5941 52.4006 10.5463 52.4326 10.4937 52.4544C10.4411 52.4762 10.3847 52.4875 10.3277 52.4875ZM6.90824 51.6208H9.89434C9.8851 51.2981 9.75054 50.9916 9.51919 50.7664C9.28783 50.5412 8.97787 50.415 8.655 50.4144H8.1467C7.82399 50.4152 7.51424 50.5415 7.28308 50.7667C7.05191 50.9919 6.91747 51.2982 6.90824 51.6208Z" fill="#002F49"/>
<path d="M12.0342 59.0557C11.927 59.0557 11.8236 59.0159 11.7443 58.9439L4.47639 52.3754C4.43183 52.3379 4.39528 52.2919 4.36891 52.24C4.34254 52.1881 4.3269 52.1314 4.32292 52.0733C4.31893 52.0153 4.32669 51.957 4.34573 51.902C4.36476 51.847 4.39468 51.7964 4.43371 51.7532C4.47274 51.71 4.52006 51.6751 4.57287 51.6506C4.62567 51.6261 4.68287 51.6125 4.74105 51.6106C4.79923 51.6087 4.8572 51.6185 4.91149 51.6395C4.96578 51.6605 5.01529 51.6922 5.05706 51.7328L12.3249 58.3012C12.3898 58.36 12.4353 58.437 12.4555 58.5221C12.4758 58.6072 12.4698 58.6965 12.4383 58.7782C12.4068 58.8598 12.3514 58.93 12.2792 58.9795C12.2071 59.0291 12.1217 59.0556 12.0342 59.0557Z" fill="#002F49"/>
<path d="M8.41576 50.4144C8.30083 50.4144 8.19061 50.3688 8.10934 50.2875C8.02808 50.2062 7.98242 50.096 7.98242 49.9811V36.8225C7.98242 36.7076 8.02808 36.5973 8.10934 36.5161C8.19061 36.4348 8.30083 36.3892 8.41576 36.3892C8.53068 36.3892 8.6409 36.4348 8.72217 36.5161C8.80343 36.5973 8.84909 36.7076 8.84909 36.8225V49.9811C8.84909 50.096 8.80343 50.2062 8.72217 50.2875C8.6409 50.3688 8.53068 50.4144 8.41576 50.4144Z" fill="#002F49"/>
<path d="M37.8131 59.0553H24.2896C24.2273 59.0554 24.1658 59.042 24.1091 59.0161C24.0525 58.9902 24.0021 58.9524 23.9614 58.9053C23.9207 58.8581 23.8906 58.8028 23.8732 58.743C23.8558 58.6832 23.8515 58.6203 23.8606 58.5587L28.59 26.483C28.6068 26.3692 28.668 26.2668 28.7603 26.1983C28.8526 26.1297 28.9683 26.1007 29.0821 26.1174C29.1958 26.1342 29.2982 26.1955 29.3667 26.2878C29.4353 26.38 29.4643 26.4958 29.4476 26.6095L24.7914 58.1887H37.31L32.6625 26.6095C32.6457 26.4958 32.6749 26.3801 32.7435 26.2878C32.8121 26.1956 32.9145 26.1344 33.0282 26.1177C33.1419 26.1009 33.2576 26.1301 33.3499 26.1987C33.4421 26.2672 33.5033 26.3697 33.52 26.4834L38.2434 58.5592C38.2524 58.6207 38.2481 58.6835 38.2307 58.7432C38.2133 58.8029 38.1832 58.8582 38.1426 58.9052C38.1019 58.9523 38.0516 58.9901 37.995 59.016C37.9385 59.0419 37.877 59.0553 37.8148 59.0553H37.8131Z" fill="#002F49"/>
<path d="M31.0514 29.0165C30.9365 29.0164 30.8263 28.9708 30.745 28.8895L26.2414 24.3859C26.1601 24.3046 26.1145 24.1944 26.1145 24.0795C26.1145 23.9646 26.1601 23.8544 26.2414 23.7731L30.745 19.2699C30.8263 19.1887 30.9365 19.1431 31.0514 19.1431C31.1663 19.1431 31.2765 19.1887 31.3577 19.2699L35.8614 23.7731C35.9426 23.8544 35.9883 23.9646 35.9883 24.0795C35.9883 24.1944 35.9426 24.3046 35.8614 24.3859L31.3577 28.8895C31.2765 28.9708 31.1663 29.0164 31.0514 29.0165ZM27.1605 24.0795L31.0514 27.9704L34.9423 24.0795L31.0514 20.189L27.1605 24.0795Z" fill="#002F49"/>
<path d="M24.2897 59.0555C24.1997 59.0554 24.112 59.0274 24.0388 58.9752C23.9655 58.9231 23.9102 58.8494 23.8807 58.7644C23.8512 58.6795 23.8488 58.5874 23.874 58.501C23.8991 58.4147 23.9505 58.3383 24.021 58.2824L35.721 49.0342L26.6128 41.2936C26.5651 41.2529 26.5269 41.2024 26.5007 41.1455C26.4744 41.0886 26.4608 41.0267 26.4608 40.9641C26.4608 40.9014 26.4744 40.8395 26.5007 40.7826C26.5269 40.7257 26.5651 40.6752 26.6128 40.6345L33.6432 34.6112L28.3401 29.3964C28.2963 29.3574 28.2609 29.3099 28.236 29.2567C28.2111 29.2036 28.1973 29.1459 28.1953 29.0873C28.1934 29.0287 28.2034 28.9702 28.2247 28.9156C28.246 28.8609 28.2782 28.8111 28.3193 28.7693C28.3604 28.7274 28.4096 28.6944 28.4639 28.6721C28.5182 28.6498 28.5764 28.6388 28.6351 28.6397C28.6938 28.6406 28.7516 28.6534 28.8052 28.6773C28.8588 28.7013 28.9069 28.7358 28.9467 28.7789L34.584 34.3256C34.6268 34.3677 34.6604 34.4182 34.6827 34.4739C34.705 34.5297 34.7155 34.5895 34.7135 34.6495C34.7114 34.7095 34.6969 34.7685 34.6709 34.8226C34.6449 34.8767 34.6079 34.9248 34.5623 34.9639L27.5601 40.9621L36.683 48.7157C36.7319 48.7572 36.771 48.8091 36.7975 48.8675C36.8239 48.926 36.837 48.9896 36.8359 49.0537C36.8348 49.1178 36.8194 49.1809 36.791 49.2384C36.7625 49.2959 36.7217 49.3463 36.6713 49.3861L24.5575 58.9628C24.4811 59.0228 24.3868 59.0555 24.2897 59.0555Z" fill="#002F49"/>
<path d="M37.7866 59.0557C37.6892 59.0557 37.5945 59.0229 37.518 58.9625L25.4041 49.3858C25.3538 49.3461 25.313 49.2956 25.2845 49.2381C25.256 49.1806 25.2407 49.1175 25.2396 49.0534C25.2384 48.9893 25.2516 48.9257 25.278 48.8673C25.3045 48.8088 25.3435 48.757 25.3924 48.7155L34.5145 40.9623L27.5119 34.9623C27.4662 34.9233 27.4292 34.8752 27.4032 34.8211C27.3771 34.767 27.3626 34.7081 27.3605 34.648C27.3584 34.588 27.3688 34.5282 27.3911 34.4724C27.4133 34.4167 27.447 34.3661 27.4898 34.324L33.1274 28.7774C33.2105 28.7033 33.3189 28.664 33.4301 28.6677C33.5414 28.6714 33.6469 28.7177 33.7249 28.7971C33.8029 28.8765 33.8474 28.9829 33.8491 29.0942C33.8508 29.2054 33.8096 29.3131 33.7341 29.3949L28.434 34.6113L35.4644 40.6347C35.5121 40.6753 35.5503 40.7259 35.5765 40.7828C35.6028 40.8397 35.6164 40.9016 35.6164 40.9642C35.6164 41.0269 35.6028 41.0888 35.5765 41.1457C35.5503 41.2026 35.5121 41.2531 35.4644 41.2938L26.3553 49.0344L38.0553 58.2826C38.1258 58.3384 38.1772 58.4148 38.2024 58.5012C38.2275 58.5876 38.2252 58.6796 38.1956 58.7646C38.1661 58.8495 38.1109 58.9232 38.0376 58.9754C37.9643 59.0275 37.8766 59.0556 37.7866 59.0557Z" fill="#002F49"/>
</svg>
