<svg width="65" height="65" viewBox="0 0 65 65" fill="none" xmlns="http://www.w3.org/2000/svg">
<path d="M38.0394 60.6668H8.88646C8.77153 60.6668 8.66131 60.6212 8.58005 60.5399C8.49878 60.4586 8.45312 60.3484 8.45312 60.2335V4.76683C8.45312 4.6519 8.49878 4.54168 8.58005 4.46042C8.66131 4.37915 8.77153 4.3335 8.88646 4.3335H38.0394C38.1543 4.3335 38.2645 4.37915 38.3458 4.46042C38.4271 4.54168 38.4727 4.6519 38.4727 4.76683V60.2335C38.4727 60.3484 38.4271 60.4586 38.3458 60.5399C38.2645 60.6212 38.1543 60.6668 38.0394 60.6668ZM9.31979 59.8002H37.6061V5.20016H9.31979V59.8002Z" fill="#1E1E1E"/>
<path d="M56.1133 60.6665H38.0368C37.9219 60.6665 37.8117 60.6209 37.7304 60.5396C37.6492 60.4584 37.6035 60.3481 37.6035 60.2332V25.3694C37.6035 25.2544 37.6492 25.1442 37.7304 25.063C37.8117 24.9817 37.9219 24.936 38.0368 24.936H56.1133C56.2283 24.936 56.3385 24.9817 56.4198 25.063C56.501 25.1442 56.5467 25.2544 56.5467 25.3694V60.2332C56.5467 60.3481 56.501 60.4584 56.4198 60.5396C56.3385 60.6209 56.2283 60.6665 56.1133 60.6665ZM38.4702 59.7999H55.68V25.8027H38.4702V59.7999Z" fill="#1E1E1E"/>
<path d="M52.4913 25.8028H41.6579C41.543 25.8028 41.4328 25.7572 41.3515 25.6759C41.2703 25.5946 41.2246 25.4844 41.2246 25.3695V18.9128C41.2246 18.7979 41.2703 18.6877 41.3515 18.6064C41.4328 18.5251 41.543 18.4795 41.6579 18.4795H52.4913C52.6062 18.4795 52.7164 18.5251 52.7977 18.6064C52.879 18.6877 52.9246 18.7979 52.9246 18.9128V25.3695C52.9246 25.4844 52.879 25.5946 52.7977 25.6759C52.7164 25.7572 52.6062 25.8028 52.4913 25.8028ZM42.0913 24.9362H52.0579V19.3462H42.0913V24.9362Z" fill="#1E1E1E"/>
<path d="M47.0749 41.997C45.8872 42.0207 44.7386 41.5727 43.8807 40.751C43.0228 39.9293 42.5256 38.801 42.498 37.6134C42.498 35.3601 46.2828 29.6085 46.7139 28.9598C46.7558 28.9035 46.8102 28.8577 46.8729 28.8262C46.9356 28.7947 47.0048 28.7783 47.0749 28.7783C47.1451 28.7783 47.2142 28.7947 47.2769 28.8262C47.3396 28.8577 47.394 28.9035 47.4359 28.9598C47.867 29.6098 51.6513 35.3623 51.6513 37.6134C51.6239 38.801 51.1268 39.9293 50.269 40.7509C49.4112 41.5726 48.2626 42.0207 47.0749 41.997ZM47.0749 29.9937C45.7797 32.0109 43.3647 36.0877 43.3647 37.6147C43.416 38.564 43.8293 39.4575 44.5194 40.1113C45.2095 40.7652 46.124 41.1296 47.0747 41.1296C48.0254 41.1296 48.9399 40.7652 49.63 40.1113C50.3201 39.4575 50.7334 38.564 50.7847 37.6147C50.7864 36.0864 48.3697 32.01 47.0749 29.9932V29.9937Z" fill="#1E1E1E"/>
<path d="M46.7175 39.9236C46.6026 39.9236 46.4924 39.8779 46.4111 39.7967C46.3298 39.7154 46.2842 39.6052 46.2842 39.4903C46.2842 39.3753 46.3298 39.2651 46.4111 39.1839C46.4924 39.1026 46.6026 39.0569 46.7175 39.0569C47.9148 39.0569 48.8889 38.2262 48.8889 37.2053C48.8889 37.0904 48.9346 36.9802 49.0159 36.8989C49.0971 36.8176 49.2074 36.772 49.3223 36.772C49.4372 36.772 49.5474 36.8176 49.6287 36.8989C49.71 36.9802 49.7556 37.0904 49.7556 37.2053C49.7556 38.7042 48.3928 39.9236 46.7175 39.9236Z" fill="#1E1E1E"/>
<path d="M50.8204 60.6665H43.3025C43.1875 60.6665 43.0773 60.6208 42.9961 60.5396C42.9148 60.4583 42.8691 60.3481 42.8691 60.2332V50.5989C42.8691 50.4839 42.9148 50.3737 42.9961 50.2924C43.0773 50.2112 43.1875 50.1655 43.3025 50.1655H50.8204C50.9353 50.1655 51.0455 50.2112 51.1268 50.2924C51.2081 50.3737 51.2537 50.4839 51.2537 50.5989V60.2332C51.2537 60.3481 51.2081 60.4583 51.1268 60.5396C51.0455 60.6208 50.9353 60.6665 50.8204 60.6665ZM43.7358 59.7998H50.387V51.0322H43.7358V59.7998Z" fill="#1E1E1E"/>
<path d="M31.106 60.6667H17.654C17.5391 60.6667 17.4289 60.621 17.3476 60.5398C17.2664 60.4585 17.2207 60.3483 17.2207 60.2333V42.6911C17.2207 42.5762 17.2664 42.466 17.3476 42.3847C17.4289 42.3035 17.5391 42.2578 17.654 42.2578H31.106C31.2209 42.2578 31.3311 42.3035 31.4124 42.3847C31.4937 42.466 31.5393 42.5762 31.5393 42.6911V60.2333C31.5393 60.3483 31.4937 60.4585 31.4124 60.5398C31.3311 60.621 31.2209 60.6667 31.106 60.6667ZM18.0874 59.8H30.6727V43.1245H18.0874V59.8Z" fill="#1E1E1E"/>
<path d="M23.4634 21.5171C22.1818 21.543 20.9422 21.0597 20.0162 20.1732C19.0903 19.2867 18.5535 18.0693 18.5234 16.7877C18.5234 14.3082 22.9166 7.67561 23.1029 7.39481C23.1448 7.33851 23.1992 7.29279 23.2619 7.26129C23.3246 7.22979 23.3937 7.21338 23.4639 7.21338C23.534 7.21338 23.6032 7.22979 23.6659 7.26129C23.7285 7.29279 23.783 7.33851 23.8248 7.39481C24.0116 7.67561 28.4043 14.3082 28.4043 16.7877C28.3743 18.0694 27.8374 19.287 26.9112 20.1735C25.9851 21.06 24.7452 21.5432 23.4634 21.5171ZM23.4634 8.42701C22.0612 10.6062 19.3901 15.1047 19.3901 16.7877C19.447 17.8296 19.9009 18.8101 20.6586 19.5275C21.4163 20.2449 22.42 20.6447 23.4634 20.6447C24.5069 20.6447 25.5106 20.2449 26.2683 19.5275C27.0259 18.8101 27.4799 17.8296 27.5368 16.7877C27.5372 15.1042 24.8661 10.6062 23.4634 8.42701Z" fill="#1E1E1E"/>
<path d="M23.074 19.2614C22.959 19.2614 22.8488 19.2158 22.7675 19.1345C22.6863 19.0533 22.6406 18.943 22.6406 18.8281C22.6406 18.7132 22.6863 18.603 22.7675 18.5217C22.8488 18.4404 22.959 18.3948 23.074 18.3948C24.3978 18.3948 25.4746 17.4739 25.4746 16.3425C25.4746 16.2276 25.5203 16.1174 25.6015 16.0361C25.6828 15.9548 25.793 15.9092 25.908 15.9092C26.0229 15.9092 26.1331 15.9548 26.2144 16.0361C26.2956 16.1174 26.3413 16.2276 26.3413 16.3425C26.3413 17.9519 24.8736 19.2614 23.074 19.2614Z" fill="#1E1E1E"/>
<path d="M20.6639 38.7492H14.3152C14.2002 38.7492 14.09 38.7036 14.0088 38.6223C13.9275 38.5411 13.8818 38.4308 13.8818 38.3159V24.8635C13.8818 24.7486 13.9275 24.6384 14.0088 24.5571C14.09 24.4758 14.2002 24.4302 14.3152 24.4302H20.6639C20.7789 24.4302 20.8891 24.4758 20.9704 24.5571C21.0516 24.6384 21.0973 24.7486 21.0973 24.8635V38.3159C21.0973 38.4308 21.0516 38.5411 20.9704 38.6223C20.8891 38.7036 20.7789 38.7492 20.6639 38.7492ZM14.7485 37.8826H20.2306V25.2968H14.7485V37.8826Z" fill="#1E1E1E"/>
<path d="M32.6136 38.7492H26.2644C26.1495 38.7492 26.0392 38.7036 25.958 38.6223C25.8767 38.5411 25.8311 38.4308 25.8311 38.3159V24.8635C25.8311 24.7486 25.8767 24.6384 25.958 24.5571C26.0392 24.4758 26.1495 24.4302 26.2644 24.4302H32.6136C32.7285 24.4302 32.8387 24.4758 32.92 24.5571C33.0013 24.6384 33.0469 24.7486 33.0469 24.8635V38.3159C33.0469 38.4308 33.0013 38.5411 32.92 38.6223C32.8387 38.7036 32.7285 38.7492 32.6136 38.7492ZM26.6977 37.8826H32.1803V25.2968H26.6977V37.8826Z" fill="#1E1E1E"/>
<path d="M32.6116 32.02H26.2624C26.1475 32.02 26.0373 31.9743 25.956 31.8931C25.8748 31.8118 25.8291 31.7016 25.8291 31.5867C25.8291 31.4717 25.8748 31.3615 25.956 31.2802C26.0373 31.199 26.1475 31.1533 26.2624 31.1533H32.6116C32.7266 31.1533 32.8368 31.199 32.918 31.2802C32.9993 31.3615 33.045 31.4717 33.045 31.5867C33.045 31.7016 32.9993 31.8118 32.918 31.8931C32.8368 31.9743 32.7266 32.02 32.6116 32.02Z" fill="#1E1E1E"/>
<path d="M20.663 32.02H14.3142C14.1993 32.02 14.089 31.9743 14.0078 31.8931C13.9265 31.8118 13.8809 31.7016 13.8809 31.5867C13.8809 31.4717 13.9265 31.3615 14.0078 31.2802C14.089 31.199 14.1993 31.1533 14.3142 31.1533H20.663C20.7779 31.1533 20.8881 31.199 20.9694 31.2802C21.0506 31.3615 21.0963 31.4717 21.0963 31.5867C21.0963 31.7016 21.0506 31.8118 20.9694 31.8931C20.8881 31.9743 20.7779 32.02 20.663 32.02Z" fill="#1E1E1E"/>
<path d="M38.0394 60.6668H8.88646C8.77153 60.6668 8.66131 60.6212 8.58005 60.5399C8.49878 60.4586 8.45312 60.3484 8.45312 60.2335V4.76683C8.45312 4.6519 8.49878 4.54168 8.58005 4.46042C8.66131 4.37915 8.77153 4.3335 8.88646 4.3335H38.0394C38.1543 4.3335 38.2645 4.37915 38.3458 4.46042C38.4271 4.54168 38.4727 4.6519 38.4727 4.76683V60.2335C38.4727 60.3484 38.4271 60.4586 38.3458 60.5399C38.2645 60.6212 38.1543 60.6668 38.0394 60.6668ZM9.31979 59.8002H37.6061V5.20016H9.31979V59.8002Z" fill="#1E1E1E"/>
<path d="M56.1133 60.6665H38.0368C37.9219 60.6665 37.8117 60.6209 37.7304 60.5396C37.6492 60.4584 37.6035 60.3481 37.6035 60.2332V25.3694C37.6035 25.2544 37.6492 25.1442 37.7304 25.063C37.8117 24.9817 37.9219 24.936 38.0368 24.936H56.1133C56.2283 24.936 56.3385 24.9817 56.4198 25.063C56.501 25.1442 56.5467 25.2544 56.5467 25.3694V60.2332C56.5467 60.3481 56.501 60.4584 56.4198 60.5396C56.3385 60.6209 56.2283 60.6665 56.1133 60.6665ZM38.4702 59.7999H55.68V25.8027H38.4702V59.7999Z" fill="#1E1E1E"/>
<path d="M52.4913 25.8028H41.6579C41.543 25.8028 41.4328 25.7572 41.3515 25.6759C41.2703 25.5946 41.2246 25.4844 41.2246 25.3695V18.9128C41.2246 18.7979 41.2703 18.6877 41.3515 18.6064C41.4328 18.5251 41.543 18.4795 41.6579 18.4795H52.4913C52.6062 18.4795 52.7164 18.5251 52.7977 18.6064C52.879 18.6877 52.9246 18.7979 52.9246 18.9128V25.3695C52.9246 25.4844 52.879 25.5946 52.7977 25.6759C52.7164 25.7572 52.6062 25.8028 52.4913 25.8028ZM42.0913 24.9362H52.0579V19.3462H42.0913V24.9362Z" fill="#1E1E1E"/>
<path d="M47.0749 41.997C45.8872 42.0207 44.7386 41.5727 43.8807 40.751C43.0228 39.9293 42.5256 38.801 42.498 37.6134C42.498 35.3601 46.2828 29.6085 46.7139 28.9598C46.7558 28.9035 46.8102 28.8577 46.8729 28.8262C46.9356 28.7947 47.0048 28.7783 47.0749 28.7783C47.1451 28.7783 47.2142 28.7947 47.2769 28.8262C47.3396 28.8577 47.394 28.9035 47.4359 28.9598C47.867 29.6098 51.6513 35.3623 51.6513 37.6134C51.6239 38.801 51.1268 39.9293 50.269 40.7509C49.4112 41.5726 48.2626 42.0207 47.0749 41.997ZM47.0749 29.9937C45.7797 32.0109 43.3647 36.0877 43.3647 37.6147C43.416 38.564 43.8293 39.4575 44.5194 40.1113C45.2095 40.7652 46.124 41.1296 47.0747 41.1296C48.0254 41.1296 48.9399 40.7652 49.63 40.1113C50.3201 39.4575 50.7334 38.564 50.7847 37.6147C50.7864 36.0864 48.3697 32.01 47.0749 29.9932V29.9937Z" fill="#1E1E1E"/>
<path d="M46.7175 39.9236C46.6026 39.9236 46.4924 39.8779 46.4111 39.7967C46.3298 39.7154 46.2842 39.6052 46.2842 39.4903C46.2842 39.3753 46.3298 39.2651 46.4111 39.1839C46.4924 39.1026 46.6026 39.0569 46.7175 39.0569C47.9148 39.0569 48.8889 38.2262 48.8889 37.2053C48.8889 37.0904 48.9346 36.9802 49.0159 36.8989C49.0971 36.8176 49.2074 36.772 49.3223 36.772C49.4372 36.772 49.5474 36.8176 49.6287 36.8989C49.71 36.9802 49.7556 37.0904 49.7556 37.2053C49.7556 38.7042 48.3928 39.9236 46.7175 39.9236Z" fill="#1E1E1E"/>
<path d="M50.8204 60.6665H43.3025C43.1875 60.6665 43.0773 60.6208 42.9961 60.5396C42.9148 60.4583 42.8691 60.3481 42.8691 60.2332V50.5989C42.8691 50.4839 42.9148 50.3737 42.9961 50.2924C43.0773 50.2112 43.1875 50.1655 43.3025 50.1655H50.8204C50.9353 50.1655 51.0455 50.2112 51.1268 50.2924C51.2081 50.3737 51.2537 50.4839 51.2537 50.5989V60.2332C51.2537 60.3481 51.2081 60.4583 51.1268 60.5396C51.0455 60.6208 50.9353 60.6665 50.8204 60.6665ZM43.7358 59.7998H50.387V51.0322H43.7358V59.7998Z" fill="#1E1E1E"/>
<path d="M31.106 60.6667H17.654C17.5391 60.6667 17.4289 60.621 17.3476 60.5398C17.2664 60.4585 17.2207 60.3483 17.2207 60.2333V42.6911C17.2207 42.5762 17.2664 42.466 17.3476 42.3847C17.4289 42.3035 17.5391 42.2578 17.654 42.2578H31.106C31.2209 42.2578 31.3311 42.3035 31.4124 42.3847C31.4937 42.466 31.5393 42.5762 31.5393 42.6911V60.2333C31.5393 60.3483 31.4937 60.4585 31.4124 60.5398C31.3311 60.621 31.2209 60.6667 31.106 60.6667ZM18.0874 59.8H30.6727V43.1245H18.0874V59.8Z" fill="#1E1E1E"/>
<path d="M23.4634 21.5171C22.1818 21.543 20.9422 21.0597 20.0162 20.1732C19.0903 19.2867 18.5535 18.0693 18.5234 16.7877C18.5234 14.3082 22.9166 7.67561 23.1029 7.39481C23.1448 7.33851 23.1992 7.29279 23.2619 7.26129C23.3246 7.22979 23.3937 7.21338 23.4639 7.21338C23.534 7.21338 23.6032 7.22979 23.6659 7.26129C23.7285 7.29279 23.783 7.33851 23.8248 7.39481C24.0116 7.67561 28.4043 14.3082 28.4043 16.7877C28.3743 18.0694 27.8374 19.287 26.9112 20.1735C25.9851 21.06 24.7452 21.5432 23.4634 21.5171ZM23.4634 8.42701C22.0612 10.6062 19.3901 15.1047 19.3901 16.7877C19.447 17.8296 19.9009 18.8101 20.6586 19.5275C21.4163 20.2449 22.42 20.6447 23.4634 20.6447C24.5069 20.6447 25.5106 20.2449 26.2683 19.5275C27.0259 18.8101 27.4799 17.8296 27.5368 16.7877C27.5372 15.1042 24.8661 10.6062 23.4634 8.42701Z" fill="#1E1E1E"/>
<path d="M23.074 19.2614C22.959 19.2614 22.8488 19.2158 22.7675 19.1345C22.6863 19.0533 22.6406 18.943 22.6406 18.8281C22.6406 18.7132 22.6863 18.603 22.7675 18.5217C22.8488 18.4404 22.959 18.3948 23.074 18.3948C24.3978 18.3948 25.4746 17.4739 25.4746 16.3425C25.4746 16.2276 25.5203 16.1174 25.6015 16.0361C25.6828 15.9548 25.793 15.9092 25.908 15.9092C26.0229 15.9092 26.1331 15.9548 26.2144 16.0361C26.2956 16.1174 26.3413 16.2276 26.3413 16.3425C26.3413 17.9519 24.8736 19.2614 23.074 19.2614Z" fill="#1E1E1E"/>
<path d="M20.6639 38.7492H14.3152C14.2002 38.7492 14.09 38.7036 14.0088 38.6223C13.9275 38.5411 13.8818 38.4308 13.8818 38.3159V24.8635C13.8818 24.7486 13.9275 24.6384 14.0088 24.5571C14.09 24.4758 14.2002 24.4302 14.3152 24.4302H20.6639C20.7789 24.4302 20.8891 24.4758 20.9704 24.5571C21.0516 24.6384 21.0973 24.7486 21.0973 24.8635V38.3159C21.0973 38.4308 21.0516 38.5411 20.9704 38.6223C20.8891 38.7036 20.7789 38.7492 20.6639 38.7492ZM14.7485 37.8826H20.2306V25.2968H14.7485V37.8826Z" fill="#1E1E1E"/>
<path d="M32.6136 38.7492H26.2644C26.1495 38.7492 26.0392 38.7036 25.958 38.6223C25.8767 38.5411 25.8311 38.4308 25.8311 38.3159V24.8635C25.8311 24.7486 25.8767 24.6384 25.958 24.5571C26.0392 24.4758 26.1495 24.4302 26.2644 24.4302H32.6136C32.7285 24.4302 32.8387 24.4758 32.92 24.5571C33.0013 24.6384 33.0469 24.7486 33.0469 24.8635V38.3159C33.0469 38.4308 33.0013 38.5411 32.92 38.6223C32.8387 38.7036 32.7285 38.7492 32.6136 38.7492ZM26.6977 37.8826H32.1803V25.2968H26.6977V37.8826Z" fill="#1E1E1E"/>
<path d="M32.6116 32.02H26.2624C26.1475 32.02 26.0373 31.9743 25.956 31.8931C25.8748 31.8118 25.8291 31.7016 25.8291 31.5867C25.8291 31.4717 25.8748 31.3615 25.956 31.2802C26.0373 31.199 26.1475 31.1533 26.2624 31.1533H32.6116C32.7266 31.1533 32.8368 31.199 32.918 31.2802C32.9993 31.3615 33.045 31.4717 33.045 31.5867C33.045 31.7016 32.9993 31.8118 32.918 31.8931C32.8368 31.9743 32.7266 32.02 32.6116 32.02Z" fill="#1E1E1E"/>
<path d="M20.663 32.02H14.3142C14.1993 32.02 14.089 31.9743 14.0078 31.8931C13.9265 31.8118 13.8809 31.7016 13.8809 31.5867C13.8809 31.4717 13.9265 31.3615 14.0078 31.2802C14.089 31.199 14.1993 31.1533 14.3142 31.1533H20.663C20.7779 31.1533 20.8881 31.199 20.9694 31.2802C21.0506 31.3615 21.0963 31.4717 21.0963 31.5867C21.0963 31.7016 21.0506 31.8118 20.9694 31.8931C20.8881 31.9743 20.7779 32.02 20.663 32.02Z" fill="#1E1E1E"/>
</svg>
