<svg width="22" height="20" viewBox="0 0 22 20" fill="none" xmlns="http://www.w3.org/2000/svg">
<path d="M21.8196 7.43362C21.6426 7.07964 21.2886 6.90265 20.9347 6.90265H14.209L12.0851 0.530973C11.9081 -0.176991 10.6692 -0.176991 10.3152 0.530973L8.19129 6.90265H1.46564C1.11165 6.90265 0.757672 7.07964 0.580681 7.43362C0.40369 7.78761 0.580676 8.14159 0.934658 8.49558L6.42138 12.3894L4.29749 18.7611C4.1205 19.115 4.29749 19.469 4.65147 19.823C5.00545 20 5.35944 20 5.71343 19.823L11.2001 15.9292L16.6869 19.823C16.8639 20 17.0409 20 17.2179 20C17.3948 20 17.5718 20 17.7488 19.823C18.1028 19.646 18.2798 19.292 18.1028 18.7611L15.9789 12.3894L21.4656 8.49558C21.8196 8.14159 21.9966 7.78761 21.8196 7.43362ZM14.563 11.3274C14.209 11.5044 14.032 12.0354 14.209 12.3894L15.6249 16.8142L11.9081 14.1593C11.7311 13.9823 11.5541 13.9823 11.3771 13.9823V3.71681L12.7931 8.14159C12.9701 8.49557 13.324 8.67256 13.678 8.67256H18.2798L14.563 11.3274Z" fill="#FDE936"/>
</svg>
