<svg width="22" height="20" viewBox="0 0 22 20" fill="none" xmlns="http://www.w3.org/2000/svg">
<path d="M21.3084 7.43362C21.1314 7.07964 20.7774 6.90265 20.4234 6.90265H13.6978L11.5739 0.530973C11.3969 -0.176991 10.1579 -0.176991 9.80396 0.530973L7.68007 6.90265H0.954405C0.600423 6.90265 0.246441 7.07964 0.0694495 7.43362C-0.107542 7.78761 0.0694508 8.14159 0.423433 8.49558L5.91016 12.3894L3.78626 18.7611C3.60927 19.115 3.78627 19.469 4.14025 19.823C4.49423 20 4.84821 20 5.20219 19.823L10.6889 15.9292L16.1756 19.823C16.3526 20 16.5296 20 16.7066 20C16.8836 20 17.0606 20 17.2376 19.823C17.5916 19.646 17.7686 19.292 17.5916 18.7611L15.4677 12.3894L20.9544 8.49558C21.3084 8.14159 21.4854 7.78761 21.3084 7.43362Z" fill="#FDE936"/>
</svg>
