<svg width="26" height="24" viewBox="0 0 26 24" fill="none" xmlns="http://www.w3.org/2000/svg">
<path d="M25.57 8.92035C25.3577 8.49557 24.9329 8.28318 24.5081 8.28318H16.4373L13.8886 0.637168C13.6762 -0.212389 12.1895 -0.212389 11.7647 0.637168L9.21607 8.28318H1.14527C0.720489 8.28318 0.29571 8.49557 0.0833211 8.92035C-0.129068 9.34513 0.0833227 9.76991 0.508101 10.1947L7.09217 14.8673L4.5435 22.5133C4.33111 22.9381 4.5435 23.3628 4.96828 23.7876C5.39306 24 5.81783 24 6.24261 23.7876L12.8267 19.115L19.4108 23.7876C19.6231 24 19.8355 24 20.0479 24C20.2603 24 20.4727 24 20.6851 23.7876C21.1099 23.5752 21.3223 23.1504 21.1099 22.5133L18.5612 14.8673L25.1453 10.1947C25.57 9.76991 25.7824 9.34513 25.57 8.92035Z" fill="#D62829"/>
</svg>
