<svg width="27" height="24" viewBox="0 0 27 24" fill="none" xmlns="http://www.w3.org/2000/svg">
<path d="M26.1836 8.92035C25.9712 8.49557 25.5464 8.28318 25.1216 8.28318H17.0508L14.5022 0.637168C14.2898 -0.212389 12.803 -0.212389 12.3783 0.637168L9.82958 8.28318H1.75879C1.33402 8.28318 0.909237 8.49557 0.696848 8.92035C0.484459 9.34513 0.696841 9.76991 1.12162 10.1947L7.70569 14.8673L5.15702 22.5133C4.94463 22.9381 5.15702 23.3628 5.58179 23.7876C6.00657 24 6.43136 24 6.85614 23.7876L13.4402 19.115L20.0243 23.7876C20.2367 24 20.4491 24 20.6615 24C20.8738 24 21.0862 24 21.2986 23.7876C21.7234 23.5752 21.9358 23.1504 21.7234 22.5133L19.1747 14.8673L25.7588 10.1947C26.1836 9.76991 26.396 9.34513 26.1836 8.92035ZM17.4756 13.5929C17.0508 13.8053 16.8384 14.4425 17.0508 14.8673L18.7499 20.177L14.2898 16.9912C14.0774 16.7788 13.865 16.7788 13.6526 16.7788V4.46018L15.3517 9.76991C15.5641 10.1947 15.9889 10.4071 16.4137 10.4071H21.9358L17.4756 13.5929Z" fill="#D62829"/>
</svg>
