<svg width="20" height="20" viewBox="0 0 20 20" fill="none" xmlns="http://www.w3.org/2000/svg">
<path d="M10.0013 18.3337C14.6037 18.3337 18.3346 14.6027 18.3346 10.0003C18.3346 5.39795 14.6037 1.66699 10.0013 1.66699C5.39893 1.66699 1.66797 5.39795 1.66797 10.0003C1.66797 14.6027 5.39893 18.3337 10.0013 18.3337Z" stroke="#535353" stroke-width="1.2"/>
<path d="M6.25 14.1668C8.19308 12.1317 11.786 12.0358 13.75 14.1668M12.0792 7.91683C12.0792 9.06741 11.1452 10.0002 9.99292 10.0002C8.84075 10.0002 7.90664 9.06741 7.90664 7.91683C7.90664 6.76624 8.84075 5.8335 9.99292 5.8335C11.1452 5.8335 12.0792 6.76624 12.0792 7.91683Z" stroke="#535353" stroke-width="1.2" stroke-linecap="round"/>
</svg>
