<svg width="36" height="36" viewBox="0 0 36 36" fill="none" xmlns="http://www.w3.org/2000/svg">
<path d="M20.9088 14.0828C20.86 14.0827 20.8123 14.0678 20.7722 14.04C20.732 14.0122 20.7013 13.9727 20.6842 13.927C20.4809 13.3841 20.1166 12.9162 19.6402 12.5859C19.1638 12.2556 18.5979 12.0786 18.0181 12.0786C17.4384 12.0786 16.8725 12.2556 16.3961 12.5859C15.9197 12.9162 15.5554 13.3841 15.3521 13.927C15.3289 13.9853 15.2837 14.0322 15.2263 14.0576C15.169 14.083 15.1039 14.0849 15.0451 14.063C14.9864 14.041 14.9385 13.9969 14.9119 13.9401C14.8852 13.8832 14.8819 13.8182 14.9026 13.759C15.1403 13.1247 15.566 12.578 16.1227 12.1921C16.6794 11.8061 17.3407 11.5994 18.0181 11.5994C18.6956 11.5994 19.3568 11.8061 19.9136 12.1921C20.4703 12.578 20.896 13.1247 21.1337 13.759C21.1473 13.7953 21.1519 13.8344 21.1471 13.8729C21.1423 13.9114 21.1283 13.9481 21.1062 13.98C21.0841 14.0119 21.0546 14.0379 21.0202 14.0559C20.9858 14.0739 20.9476 14.0833 20.9088 14.0832V14.0828Z" fill="#1E1E1E"/>
<path d="M10.632 14.0215C10.5796 14.0215 10.5286 14.0043 10.4868 13.9725C10.4451 13.9407 10.4149 13.8962 10.4009 13.8456C10.1078 12.8843 10.0857 11.8607 10.3371 10.8876C10.3481 10.8543 10.3662 10.8238 10.3903 10.7982C10.4143 10.7727 10.4437 10.7527 10.4763 10.7397C10.5089 10.7267 10.544 10.7211 10.579 10.7231C10.614 10.7252 10.6482 10.7349 10.6791 10.7515L11.431 11.1571C11.6045 9.36675 12.3855 8.34915 12.421 8.30355C12.4431 8.27534 12.4711 8.25242 12.5032 8.23647C12.5353 8.22053 12.5705 8.21196 12.6063 8.21139C12.642 8.21173 12.6772 8.21963 12.7096 8.23456C12.7421 8.2495 12.771 8.27113 12.7944 8.29803L13.3404 8.95491C13.7891 8.03441 14.4737 7.24927 15.3245 6.67947C15.3555 6.66152 15.3902 6.65074 15.4259 6.64794C15.4617 6.64513 15.4976 6.65037 15.531 6.66326C15.5645 6.67615 15.5946 6.69637 15.6192 6.72243C15.6438 6.74849 15.6623 6.77974 15.6732 6.81387L15.9344 7.62747C16.6953 6.94182 17.6246 6.47041 18.6274 6.26139C18.6629 6.25638 18.6991 6.25938 18.7332 6.27018C18.7674 6.28098 18.7987 6.2993 18.8249 6.3238C18.8511 6.34829 18.8714 6.37833 18.8845 6.41172C18.8975 6.44511 18.9029 6.481 18.9003 6.51675L18.8374 7.36923C19.8001 7.01876 20.8383 6.92909 21.8468 7.10931C21.8816 7.11791 21.9141 7.13422 21.9418 7.15705C21.9696 7.17987 21.9918 7.20863 22.0069 7.24119C22.0221 7.27376 22.0297 7.30931 22.0293 7.34522C22.0288 7.38112 22.0203 7.41647 22.0044 7.44867L21.626 8.21667C22.6492 8.25266 23.6446 8.55905 24.511 9.10467C24.54 9.12573 24.564 9.15304 24.5811 9.18458C24.5982 9.21611 24.608 9.25108 24.6098 9.28691C24.6116 9.32273 24.6053 9.3585 24.5914 9.39159C24.5776 9.42468 24.5565 9.45424 24.5297 9.47811L23.8916 10.0467C24.8275 10.4645 25.6364 11.1221 26.2366 11.953C26.2557 11.9834 26.2677 12.0177 26.2718 12.0533C26.2759 12.089 26.2719 12.1251 26.2602 12.159C26.2485 12.1929 26.2293 12.2238 26.2041 12.2493C26.1788 12.2748 26.1482 12.2944 26.1144 12.3065L25.31 12.5945C25.6102 12.9224 25.8778 13.2788 26.1092 13.6584C26.1422 13.7129 26.1523 13.7782 26.1371 13.84C26.122 13.9019 26.0829 13.9552 26.0285 13.9882C25.9741 14.0212 25.9088 14.0313 25.8469 14.0162C25.7851 14.001 25.7318 13.962 25.6988 13.9075C25.4218 13.4543 25.0903 13.0368 24.7116 12.6643C24.6828 12.6358 24.6616 12.6004 24.6501 12.5615C24.6386 12.5226 24.6372 12.4814 24.646 12.4417C24.6548 12.4021 24.6734 12.3653 24.7003 12.3349C24.7271 12.3044 24.7613 12.2813 24.7995 12.2676L25.645 11.9645C25.0245 11.248 24.2422 10.6896 23.3628 10.3356C23.3253 10.32 23.2924 10.2952 23.2672 10.2634C23.2419 10.2316 23.2251 10.1939 23.2184 10.1539C23.2116 10.1138 23.2152 10.0727 23.2286 10.0344C23.2421 9.9961 23.2651 9.96184 23.2954 9.93483L23.9674 9.33651C23.1249 8.90522 22.1916 8.68133 21.2451 8.68347C21.2045 8.68308 21.1646 8.67239 21.1292 8.6524C21.0939 8.63241 21.0642 8.60377 21.0429 8.56916C21.0216 8.53455 21.0095 8.49511 21.0076 8.45453C21.0057 8.41395 21.0142 8.37356 21.0322 8.33715L21.4304 7.53051C20.4863 7.44564 19.5356 7.58741 18.6574 7.94403C18.6197 7.95882 18.5789 7.96384 18.5387 7.95861C18.4986 7.95339 18.4604 7.93808 18.4277 7.91413C18.3951 7.89017 18.369 7.85835 18.352 7.82161C18.3349 7.78488 18.3275 7.74443 18.3303 7.70403L18.3963 6.80667C17.4904 7.08138 16.6633 7.56878 15.984 8.22819C15.9546 8.25611 15.9185 8.2761 15.8792 8.2863C15.8399 8.29649 15.7987 8.29656 15.7594 8.28649C15.7201 8.27642 15.684 8.25655 15.6544 8.22872C15.6249 8.2009 15.6028 8.16603 15.5904 8.12739L15.3147 7.27203C14.5777 7.86662 13.9934 8.62875 13.6107 9.49491C13.5938 9.53187 13.5679 9.56394 13.5352 9.58813C13.5026 9.61232 13.4643 9.62782 13.4241 9.63319C13.3838 9.63857 13.3428 9.63363 13.305 9.61885C13.2671 9.60406 13.2337 9.57992 13.2077 9.54867L12.6317 8.85651C12.17 9.68391 11.913 10.6098 11.882 11.5567C11.8802 11.5974 11.8681 11.6369 11.8469 11.6715C11.8256 11.7062 11.796 11.7349 11.7606 11.7549C11.7252 11.775 11.6854 11.7857 11.6447 11.7862C11.6041 11.7866 11.564 11.7767 11.5282 11.7574L10.7252 11.3254C10.5914 12.1237 10.638 12.9419 10.8615 13.7199C10.8699 13.7503 10.8722 13.7821 10.8683 13.8134C10.8644 13.8447 10.8544 13.875 10.8388 13.9024C10.8232 13.9299 10.8023 13.954 10.7774 13.9734C10.7524 13.9927 10.7239 14.007 10.6935 14.0153C10.6733 14.02 10.6527 14.0221 10.632 14.0215Z" fill="#1E1E1E"/>
<path d="M33.3599 17.6399H2.6399C2.57625 17.6399 2.51521 17.6147 2.4702 17.5697C2.42519 17.5246 2.3999 17.4636 2.3999 17.3999V13.8431C2.3999 13.7795 2.42519 13.7185 2.4702 13.6734C2.51521 13.6284 2.57625 13.6031 2.6399 13.6031H33.3599C33.4236 13.6031 33.4846 13.6284 33.5296 13.6734C33.5746 13.7185 33.5999 13.7795 33.5999 13.8431V17.3999C33.5999 17.4636 33.5746 17.5246 33.5296 17.5697C33.4846 17.6147 33.4236 17.6399 33.3599 17.6399ZM2.8799 17.1599H33.1199V14.0831H2.8799V17.1599Z" fill="#1E1E1E"/>
<path d="M6.8096 29.7411H4.24952C4.18587 29.7411 4.12482 29.7158 4.07982 29.6708C4.03481 29.6258 4.00952 29.5647 4.00952 29.5011V17.4C4.00952 17.3364 4.03481 17.2753 4.07982 17.2303C4.12482 17.1853 4.18587 17.16 4.24952 17.16H6.8096C6.87325 17.16 6.9343 17.1853 6.97931 17.2303C7.02432 17.2753 7.0496 17.3364 7.0496 17.4V29.5011C7.0496 29.5647 7.02432 29.6258 6.97931 29.6708C6.9343 29.7158 6.87325 29.7411 6.8096 29.7411ZM4.48952 29.2611H6.5696V17.64H4.48952V29.2611Z" fill="#1E1E1E"/>
<path d="M31.7505 29.7411H29.1904C29.1268 29.7411 29.0657 29.7158 29.0207 29.6708C28.9757 29.6258 28.9504 29.5647 28.9504 29.5011V17.4C28.9504 17.3364 28.9757 17.2753 29.0207 17.2303C29.0657 17.1853 29.1268 17.16 29.1904 17.16H31.7505C31.8142 17.16 31.8752 17.1853 31.9202 17.2303C31.9652 17.2753 31.9905 17.3364 31.9905 17.4V29.5011C31.9905 29.5647 31.9652 29.6258 31.9202 29.6708C31.8752 29.7158 31.8142 29.7411 31.7505 29.7411ZM29.4304 29.2611H31.5105V17.64H29.4304V29.2611Z" fill="#1E1E1E"/>
<path d="M25.6665 25.368H23.1065C23.0428 25.368 22.9818 25.3427 22.9367 25.2977C22.8917 25.2527 22.8665 25.1917 22.8665 25.128V17.4C22.8665 17.3364 22.8917 17.2753 22.9367 17.2303C22.9818 17.1853 23.0428 17.16 23.1065 17.16H25.6665C25.7302 17.16 25.7912 17.1853 25.8362 17.2303C25.8812 17.2753 25.9065 17.3364 25.9065 17.4V25.128C25.9065 25.1917 25.8812 25.2527 25.8362 25.2977C25.7912 25.3427 25.7302 25.368 25.6665 25.368ZM23.3465 24.888H25.4265V17.64H23.3465V24.888Z" fill="#1E1E1E"/>
<path d="M12.8936 25.368H10.3335C10.2699 25.368 10.2088 25.3427 10.1638 25.2977C10.1188 25.2527 10.0935 25.1917 10.0935 25.128V17.4C10.0935 17.3364 10.1188 17.2753 10.1638 17.2303C10.2088 17.1853 10.2699 17.16 10.3335 17.16H12.8936C12.9572 17.16 13.0183 17.1853 13.0633 17.2303C13.1083 17.2753 13.1336 17.3364 13.1336 17.4V25.128C13.1336 25.1917 13.1083 25.2527 13.0633 25.2977C13.0183 25.3427 12.9572 25.368 12.8936 25.368ZM10.5735 24.888H12.6536V17.64H10.5735V24.888Z" fill="#1E1E1E"/>
<path d="M20.9088 14.0828C20.86 14.0827 20.8123 14.0678 20.7722 14.04C20.732 14.0122 20.7013 13.9727 20.6842 13.927C20.4809 13.3841 20.1166 12.9162 19.6402 12.5859C19.1638 12.2556 18.5979 12.0786 18.0181 12.0786C17.4384 12.0786 16.8725 12.2556 16.3961 12.5859C15.9197 12.9162 15.5554 13.3841 15.3521 13.927C15.3289 13.9853 15.2837 14.0322 15.2263 14.0576C15.169 14.083 15.1039 14.0849 15.0451 14.063C14.9864 14.041 14.9385 13.9969 14.9119 13.9401C14.8852 13.8832 14.8819 13.8182 14.9026 13.759C15.1403 13.1247 15.566 12.578 16.1227 12.1921C16.6794 11.8061 17.3407 11.5994 18.0181 11.5994C18.6956 11.5994 19.3568 11.8061 19.9136 12.1921C20.4703 12.578 20.896 13.1247 21.1337 13.759C21.1473 13.7953 21.1519 13.8344 21.1471 13.8729C21.1423 13.9114 21.1283 13.9481 21.1062 13.98C21.0841 14.0119 21.0546 14.0379 21.0202 14.0559C20.9858 14.0739 20.9476 14.0833 20.9088 14.0832V14.0828Z" fill="#1E1E1E"/>
<path d="M10.632 14.0215C10.5796 14.0215 10.5286 14.0043 10.4868 13.9725C10.4451 13.9407 10.4149 13.8962 10.4009 13.8456C10.1078 12.8843 10.0857 11.8607 10.3371 10.8876C10.3481 10.8543 10.3662 10.8238 10.3903 10.7982C10.4143 10.7727 10.4437 10.7527 10.4763 10.7397C10.5089 10.7267 10.544 10.7211 10.579 10.7231C10.614 10.7252 10.6482 10.7349 10.6791 10.7515L11.431 11.1571C11.6045 9.36675 12.3855 8.34915 12.421 8.30355C12.4431 8.27534 12.4711 8.25242 12.5032 8.23647C12.5353 8.22053 12.5705 8.21196 12.6063 8.21139C12.642 8.21173 12.6772 8.21963 12.7096 8.23456C12.7421 8.2495 12.771 8.27113 12.7944 8.29803L13.3404 8.95491C13.7891 8.03441 14.4737 7.24927 15.3245 6.67947C15.3555 6.66152 15.3902 6.65074 15.4259 6.64794C15.4617 6.64513 15.4976 6.65037 15.531 6.66326C15.5645 6.67615 15.5946 6.69637 15.6192 6.72243C15.6438 6.74849 15.6623 6.77974 15.6732 6.81387L15.9344 7.62747C16.6953 6.94182 17.6246 6.47041 18.6274 6.26139C18.6629 6.25638 18.6991 6.25938 18.7332 6.27018C18.7674 6.28098 18.7987 6.2993 18.8249 6.3238C18.8511 6.34829 18.8714 6.37833 18.8845 6.41172C18.8975 6.44511 18.9029 6.481 18.9003 6.51675L18.8374 7.36923C19.8001 7.01876 20.8383 6.92909 21.8468 7.10931C21.8816 7.11791 21.9141 7.13422 21.9418 7.15705C21.9696 7.17987 21.9918 7.20863 22.0069 7.24119C22.0221 7.27376 22.0297 7.30931 22.0293 7.34522C22.0288 7.38112 22.0203 7.41647 22.0044 7.44867L21.626 8.21667C22.6492 8.25266 23.6446 8.55905 24.511 9.10467C24.54 9.12573 24.564 9.15304 24.5811 9.18458C24.5982 9.21611 24.608 9.25108 24.6098 9.28691C24.6116 9.32273 24.6053 9.3585 24.5914 9.39159C24.5776 9.42468 24.5565 9.45424 24.5297 9.47811L23.8916 10.0467C24.8275 10.4645 25.6364 11.1221 26.2366 11.953C26.2557 11.9834 26.2677 12.0177 26.2718 12.0533C26.2759 12.089 26.2719 12.1251 26.2602 12.159C26.2485 12.1929 26.2293 12.2238 26.2041 12.2493C26.1788 12.2748 26.1482 12.2944 26.1144 12.3065L25.31 12.5945C25.6102 12.9224 25.8778 13.2788 26.1092 13.6584C26.1422 13.7129 26.1523 13.7782 26.1371 13.84C26.122 13.9019 26.0829 13.9552 26.0285 13.9882C25.9741 14.0212 25.9088 14.0313 25.8469 14.0162C25.7851 14.001 25.7318 13.962 25.6988 13.9075C25.4218 13.4543 25.0903 13.0368 24.7116 12.6643C24.6828 12.6358 24.6616 12.6004 24.6501 12.5615C24.6386 12.5226 24.6372 12.4814 24.646 12.4417C24.6548 12.4021 24.6734 12.3653 24.7003 12.3349C24.7271 12.3044 24.7613 12.2813 24.7995 12.2676L25.645 11.9645C25.0245 11.248 24.2422 10.6896 23.3628 10.3356C23.3253 10.32 23.2924 10.2952 23.2672 10.2634C23.2419 10.2316 23.2251 10.1939 23.2184 10.1539C23.2116 10.1138 23.2152 10.0727 23.2286 10.0344C23.2421 9.9961 23.2651 9.96184 23.2954 9.93483L23.9674 9.33651C23.1249 8.90522 22.1916 8.68133 21.2451 8.68347C21.2045 8.68308 21.1646 8.67239 21.1292 8.6524C21.0939 8.63241 21.0642 8.60377 21.0429 8.56916C21.0216 8.53455 21.0095 8.49511 21.0076 8.45453C21.0057 8.41395 21.0142 8.37356 21.0322 8.33715L21.4304 7.53051C20.4863 7.44564 19.5356 7.58741 18.6574 7.94403C18.6197 7.95882 18.5789 7.96384 18.5387 7.95861C18.4986 7.95339 18.4604 7.93808 18.4277 7.91413C18.3951 7.89017 18.369 7.85835 18.352 7.82161C18.3349 7.78488 18.3275 7.74443 18.3303 7.70403L18.3963 6.80667C17.4904 7.08138 16.6633 7.56878 15.984 8.22819C15.9546 8.25611 15.9185 8.2761 15.8792 8.2863C15.8399 8.29649 15.7987 8.29656 15.7594 8.28649C15.7201 8.27642 15.684 8.25655 15.6544 8.22872C15.6249 8.2009 15.6028 8.16603 15.5904 8.12739L15.3147 7.27203C14.5777 7.86662 13.9934 8.62875 13.6107 9.49491C13.5938 9.53187 13.5679 9.56394 13.5352 9.58813C13.5026 9.61232 13.4643 9.62782 13.4241 9.63319C13.3838 9.63857 13.3428 9.63363 13.305 9.61885C13.2671 9.60406 13.2337 9.57992 13.2077 9.54867L12.6317 8.85651C12.17 9.68391 11.913 10.6098 11.882 11.5567C11.8802 11.5974 11.8681 11.6369 11.8469 11.6715C11.8256 11.7062 11.796 11.7349 11.7606 11.7549C11.7252 11.775 11.6854 11.7857 11.6447 11.7862C11.6041 11.7866 11.564 11.7767 11.5282 11.7574L10.7252 11.3254C10.5914 12.1237 10.638 12.9419 10.8615 13.7199C10.8699 13.7503 10.8722 13.7821 10.8683 13.8134C10.8644 13.8447 10.8544 13.875 10.8388 13.9024C10.8232 13.9299 10.8023 13.954 10.7774 13.9734C10.7524 13.9927 10.7239 14.007 10.6935 14.0153C10.6733 14.02 10.6527 14.0221 10.632 14.0215Z" fill="#1E1E1E"/>
<path d="M33.3599 17.6399H2.6399C2.57625 17.6399 2.51521 17.6147 2.4702 17.5697C2.42519 17.5246 2.3999 17.4636 2.3999 17.3999V13.8431C2.3999 13.7795 2.42519 13.7185 2.4702 13.6734C2.51521 13.6284 2.57625 13.6031 2.6399 13.6031H33.3599C33.4236 13.6031 33.4846 13.6284 33.5296 13.6734C33.5746 13.7185 33.5999 13.7795 33.5999 13.8431V17.3999C33.5999 17.4636 33.5746 17.5246 33.5296 17.5697C33.4846 17.6147 33.4236 17.6399 33.3599 17.6399ZM2.8799 17.1599H33.1199V14.0831H2.8799V17.1599Z" fill="#1E1E1E"/>
<path d="M6.8096 29.7411H4.24952C4.18587 29.7411 4.12482 29.7158 4.07982 29.6708C4.03481 29.6258 4.00952 29.5647 4.00952 29.5011V17.4C4.00952 17.3364 4.03481 17.2753 4.07982 17.2303C4.12482 17.1853 4.18587 17.16 4.24952 17.16H6.8096C6.87325 17.16 6.9343 17.1853 6.97931 17.2303C7.02432 17.2753 7.0496 17.3364 7.0496 17.4V29.5011C7.0496 29.5647 7.02432 29.6258 6.97931 29.6708C6.9343 29.7158 6.87325 29.7411 6.8096 29.7411ZM4.48952 29.2611H6.5696V17.64H4.48952V29.2611Z" fill="#1E1E1E"/>
<path d="M31.7505 29.7411H29.1904C29.1268 29.7411 29.0657 29.7158 29.0207 29.6708C28.9757 29.6258 28.9504 29.5647 28.9504 29.5011V17.4C28.9504 17.3364 28.9757 17.2753 29.0207 17.2303C29.0657 17.1853 29.1268 17.16 29.1904 17.16H31.7505C31.8142 17.16 31.8752 17.1853 31.9202 17.2303C31.9652 17.2753 31.9905 17.3364 31.9905 17.4V29.5011C31.9905 29.5647 31.9652 29.6258 31.9202 29.6708C31.8752 29.7158 31.8142 29.7411 31.7505 29.7411ZM29.4304 29.2611H31.5105V17.64H29.4304V29.2611Z" fill="#1E1E1E"/>
<path d="M25.6665 25.368H23.1065C23.0428 25.368 22.9818 25.3427 22.9367 25.2977C22.8917 25.2527 22.8665 25.1917 22.8665 25.128V17.4C22.8665 17.3364 22.8917 17.2753 22.9367 17.2303C22.9818 17.1853 23.0428 17.16 23.1065 17.16H25.6665C25.7302 17.16 25.7912 17.1853 25.8362 17.2303C25.8812 17.2753 25.9065 17.3364 25.9065 17.4V25.128C25.9065 25.1917 25.8812 25.2527 25.8362 25.2977C25.7912 25.3427 25.7302 25.368 25.6665 25.368ZM23.3465 24.888H25.4265V17.64H23.3465V24.888Z" fill="#1E1E1E"/>
<path d="M12.8936 25.368H10.3335C10.2699 25.368 10.2088 25.3427 10.1638 25.2977C10.1188 25.2527 10.0935 25.1917 10.0935 25.128V17.4C10.0935 17.3364 10.1188 17.2753 10.1638 17.2303C10.2088 17.1853 10.2699 17.16 10.3335 17.16H12.8936C12.9572 17.16 13.0183 17.1853 13.0633 17.2303C13.1083 17.2753 13.1336 17.3364 13.1336 17.4V25.128C13.1336 25.1917 13.1083 25.2527 13.0633 25.2977C13.0183 25.3427 12.9572 25.368 12.8936 25.368ZM10.5735 24.888H12.6536V17.64H10.5735V24.888Z" fill="#1E1E1E"/>
</svg>
