<svg width="36" height="36" viewBox="0 0 36 36" fill="none" xmlns="http://www.w3.org/2000/svg">
<path d="M31.264 17.246C31.0732 17.2465 30.8883 17.1795 30.742 17.0568C29.5643 16.0812 28.558 14.9156 27.7648 13.608L20.5015 16.2692C20.4417 16.2911 20.3757 16.2883 20.3179 16.2615C20.2602 16.2348 20.2154 16.1861 20.1935 16.1264C20.1716 16.0666 20.1744 16.0006 20.2012 15.9428C20.228 15.8851 20.2766 15.8403 20.3363 15.8184L27.7898 13.0884C27.8433 13.0688 27.9021 13.0689 27.9555 13.0886C28.009 13.1084 28.0537 13.1465 28.0816 13.1962C28.8583 14.527 29.8641 15.7101 31.0526 16.6908C31.0977 16.7278 31.1517 16.7523 31.2092 16.7619C31.2667 16.7716 31.3257 16.766 31.3804 16.7458L32.4395 16.3584C32.4983 16.336 32.5497 16.2977 32.588 16.2478C32.6263 16.198 32.6501 16.1385 32.6567 16.076C33.0842 11.605 31.7671 7.93996 28.7421 5.18836C28.6977 5.14974 28.6438 5.12373 28.5859 5.11306C28.528 5.10238 28.4683 5.10741 28.4131 5.12764L27.3119 5.52628C27.2598 5.54595 27.2133 5.57811 27.1764 5.61996C27.1396 5.6618 27.1136 5.71205 27.1007 5.76628C26.7532 7.22934 26.7124 8.7485 26.9807 10.2281C26.9915 10.2839 26.9822 10.3417 26.9544 10.3912C26.9265 10.4407 26.8821 10.4788 26.8288 10.4986L19.3439 13.2785C19.2843 13.3008 19.2182 13.2985 19.1602 13.272C19.1023 13.2456 19.0572 13.1972 19.0349 13.1375C19.0127 13.0778 19.015 13.0118 19.0414 12.9538C19.0679 12.8959 19.1163 12.8508 19.1759 12.8285L26.4719 10.1196C26.2327 8.63709 26.2872 7.12195 26.6325 5.66044C26.663 5.52844 26.7257 5.40603 26.8149 5.30408C26.9041 5.20213 27.0172 5.12379 27.1439 5.07604L28.2479 4.67716C28.3855 4.62674 28.5341 4.61458 28.678 4.64196C28.822 4.66935 28.9557 4.73526 29.0651 4.83268C32.2091 7.693 33.5771 11.4922 33.1351 16.1254C33.1186 16.2772 33.0604 16.4215 32.9669 16.5423C32.8734 16.663 32.7483 16.7555 32.6054 16.8094L31.5448 17.197C31.4548 17.2295 31.3598 17.2461 31.264 17.246Z" fill="#1E1E1E"/>
<path d="M4.26582 22.1594C4.10369 22.1594 3.94551 22.1095 3.81274 22.0165C3.67998 21.9234 3.57908 21.7917 3.52374 21.6394L2.83134 19.7194C2.79561 19.6227 2.77939 19.5199 2.78362 19.417C2.78785 19.314 2.81244 19.2129 2.85598 19.1195C2.89953 19.0261 2.96115 18.9423 3.03729 18.8728C3.11343 18.8034 3.20257 18.7497 3.29958 18.715L14.6595 14.503C14.689 14.4919 14.7205 14.4868 14.752 14.4879C14.7835 14.4891 14.8145 14.4964 14.8432 14.5095C14.8719 14.5226 14.8977 14.5412 14.9192 14.5643C14.9407 14.5873 14.9575 14.6144 14.9685 14.644C14.9795 14.6735 14.9846 14.7049 14.9835 14.7365C14.9824 14.768 14.9751 14.799 14.962 14.8277C14.9489 14.8564 14.9303 14.8822 14.9072 14.9037C14.8841 14.9252 14.857 14.9419 14.8275 14.953L3.4647 19.1657C3.42681 19.1788 3.39195 19.1995 3.36218 19.2263C3.33242 19.2532 3.30835 19.2858 3.29142 19.3222C3.27457 19.3587 3.26513 19.3981 3.26365 19.4383C3.26217 19.4785 3.26867 19.5185 3.28278 19.5562L3.97494 21.4762C4.00298 21.5529 4.06028 21.6155 4.13431 21.6501C4.20834 21.6847 4.29308 21.6886 4.36998 21.661L15.716 17.5075C15.7456 17.4967 15.777 17.4918 15.8085 17.4931C15.84 17.4944 15.8709 17.5019 15.8995 17.5151C15.9281 17.5284 15.9538 17.5472 15.9751 17.5704C15.9965 17.5936 16.0131 17.6207 16.0239 17.6503C16.0347 17.6799 16.0396 17.7114 16.0383 17.7428C16.037 17.7743 16.0295 17.8053 16.0163 17.8339C16.003 17.8625 15.9842 17.8882 15.9611 17.9095C15.9379 17.9308 15.9107 17.9474 15.8811 17.9582L4.53414 22.1122C4.4481 22.1433 4.35732 22.1593 4.26582 22.1594Z" fill="#1E1E1E"/>
<path d="M17.5711 18.576C16.9475 18.5755 16.338 18.3902 15.8196 18.0434C15.3013 17.6966 14.8974 17.2039 14.659 16.6276C14.4206 16.0514 14.3584 15.4173 14.4802 14.8057C14.602 14.1941 14.9025 13.6323 15.3435 13.1914C15.7845 12.7504 16.3464 12.4502 16.958 12.3285C17.5697 12.2068 18.2037 12.2691 18.7799 12.5077C19.3561 12.7462 19.8487 13.1502 20.1954 13.6686C20.5421 14.187 20.7273 14.7966 20.7276 15.4202C20.7265 16.257 20.3935 17.0591 19.8018 17.6507C19.21 18.2423 18.4078 18.575 17.5711 18.576ZM17.5711 12.7478C17.0423 12.7483 16.5254 12.9056 16.086 13.1998C15.6465 13.494 15.3041 13.9119 15.1021 14.4006C14.9002 14.8894 14.8476 15.4271 14.9512 15.9457C15.0548 16.4643 15.3099 16.9405 15.6841 17.3142C16.0583 17.6879 16.535 17.9422 17.0537 18.045C17.5725 18.1478 18.1101 18.0944 18.5986 17.8917C19.087 17.689 19.5044 17.346 19.7979 16.9061C20.0914 16.4662 20.2479 15.9491 20.2476 15.4202C20.2462 14.7112 19.9636 14.0318 19.4618 13.5309C18.9601 13.03 18.2801 12.7487 17.5711 12.7485V12.7478Z" fill="#1E1E1E"/>
<path d="M17.5714 17.1039C17.2391 17.1034 16.9143 17.0045 16.6382 16.8196C16.3621 16.6348 16.1469 16.3722 16.0199 16.0651C15.8929 15.758 15.8598 15.4201 15.9247 15.0942C15.9896 14.7683 16.1497 14.469 16.3847 14.234C16.6196 13.999 16.919 13.8389 17.2449 13.7739C17.5708 13.7089 17.9086 13.742 18.2157 13.8689C18.5229 13.9959 18.7855 14.211 18.9704 14.4871C19.1553 14.7632 19.2543 15.0879 19.2547 15.4203C19.2542 15.8666 19.0766 16.2944 18.7611 16.61C18.4455 16.9256 18.0177 17.1032 17.5714 17.1039ZM17.5714 14.2215C17.3338 14.2219 17.1018 14.2927 16.9045 14.425C16.7072 14.5573 16.5536 14.7451 16.463 14.9647C16.3725 15.1843 16.3491 15.4259 16.3958 15.6588C16.4425 15.8917 16.5571 16.1055 16.7253 16.2732C16.8935 16.4409 17.1077 16.555 17.3407 16.6011C17.5737 16.6471 17.8152 16.623 18.0345 16.5319C18.2539 16.4407 18.4413 16.2866 18.573 16.0889C18.7048 15.8913 18.775 15.659 18.7747 15.4215C18.774 15.1028 18.6469 14.7975 18.4213 14.5725C18.1957 14.3475 17.89 14.2213 17.5714 14.2215Z" fill="#1E1E1E"/>
<path d="M31.4617 27.6309C31.398 27.6309 31.337 27.6056 31.292 27.5606C31.247 27.5156 31.2217 27.4546 31.2217 27.3909V16.9716C31.2217 16.9079 31.247 16.8469 31.292 16.8019C31.337 16.7569 31.398 16.7316 31.4617 16.7316C31.5253 16.7316 31.5864 16.7569 31.6314 16.8019C31.6764 16.8469 31.7017 16.9079 31.7017 16.9716V27.3909C31.7017 27.4546 31.6764 27.5156 31.6314 27.5606C31.5864 27.6056 31.5253 27.6309 31.4617 27.6309Z" fill="#1E1E1E"/>
<path d="M31.9636 31.3724H30.7043C30.65 31.3724 30.5972 31.354 30.5547 31.3201C30.5122 31.2863 30.4825 31.2391 30.4703 31.1861L29.6123 27.4448C29.6042 27.4096 29.6042 27.3731 29.6121 27.3379C29.6201 27.3027 29.6359 27.2698 29.6584 27.2416C29.6809 27.2133 29.7094 27.1905 29.7419 27.1749C29.7744 27.1592 29.81 27.151 29.8461 27.151H32.8221C32.8581 27.151 32.8937 27.1592 32.9262 27.1749C32.9587 27.1905 32.9873 27.2133 33.0097 27.2416C33.0322 27.2698 33.048 27.3027 33.056 27.3379C33.064 27.3731 33.0639 27.4096 33.0558 27.4448L32.1978 31.1861C32.1856 31.2391 32.1558 31.2864 32.1133 31.3202C32.0707 31.3541 32.0179 31.3724 31.9636 31.3724ZM30.8953 30.8924H31.7723L32.5204 27.631H30.1473L30.8953 30.8924Z" fill="#1E1E1E"/>
<path d="M6.17115 27.5974C6.1075 27.5974 6.04646 27.5721 6.00145 27.5271C5.95644 27.4821 5.93115 27.4211 5.93115 27.3574V21.2571C5.93115 21.1934 5.95644 21.1324 6.00145 21.0874C6.04646 21.0424 6.1075 21.0171 6.17115 21.0171C6.2348 21.0171 6.29585 21.0424 6.34086 21.0874C6.38587 21.1324 6.41115 21.1934 6.41115 21.2571V27.3574C6.41115 27.4211 6.38587 27.4821 6.34086 27.5271C6.29585 27.5721 6.2348 27.5974 6.17115 27.5974Z" fill="#1E1E1E"/>
<path d="M25.4567 31.3723C25.4118 31.3725 25.3678 31.36 25.3296 31.3363C25.2914 31.3126 25.2606 31.2787 25.2407 31.2384L18.7651 18.079C18.7512 18.0506 18.743 18.0198 18.741 17.9882C18.739 17.9567 18.7432 17.9251 18.7534 17.8952C18.7636 17.8653 18.7796 17.8377 18.8005 17.814C18.8214 17.7903 18.8467 17.7709 18.8751 17.757C18.9035 17.7431 18.9343 17.7349 18.9658 17.7329C18.9974 17.7309 19.029 17.7351 19.0589 17.7454C19.0888 17.7556 19.1164 17.7716 19.1401 17.7925C19.1638 17.8133 19.1832 17.8387 19.1971 17.8671L25.6732 31.0265C25.6912 31.0631 25.6996 31.1037 25.6975 31.1445C25.6954 31.1853 25.683 31.2248 25.6614 31.2595C25.6398 31.2941 25.6097 31.3226 25.5739 31.3424C25.5382 31.3621 25.498 31.3724 25.4572 31.3723H25.4567Z" fill="#1E1E1E"/>
<path d="M9.82583 31.3723C9.78989 31.3723 9.75442 31.3641 9.72215 31.3483C9.66481 31.3207 9.62078 31.2715 9.59971 31.2114C9.57865 31.1514 9.58229 31.0855 9.60983 31.0281L15.9439 17.8689C15.9732 17.8145 16.0224 17.7736 16.0811 17.7545C16.1398 17.7355 16.2037 17.7398 16.2593 17.7666C16.3149 17.7934 16.3581 17.8406 16.3798 17.8984C16.4015 17.9562 16.4001 18.0202 16.3759 18.077L10.0425 31.2364C10.0229 31.2772 9.99214 31.3116 9.95379 31.3356C9.91545 31.3596 9.87108 31.3724 9.82583 31.3723Z" fill="#1E1E1E"/>
<path d="M8.05724 31.3725H4.28468C4.22103 31.3725 4.15998 31.3472 4.11497 31.3022C4.06996 31.2572 4.04468 31.1962 4.04468 31.1325V27.3573C4.04468 27.2937 4.06996 27.2326 4.11497 27.1876C4.15998 27.1426 4.22103 27.1173 4.28468 27.1173H8.05724C8.12089 27.1173 8.18193 27.1426 8.22694 27.1876C8.27195 27.2326 8.29724 27.2937 8.29724 27.3573V31.1325C8.29724 31.1962 8.27195 31.2572 8.22694 31.3022C8.18193 31.3472 8.12089 31.3725 8.05724 31.3725ZM4.52468 30.8925H7.81724V27.5973H4.52468V30.8925Z" fill="#1E1E1E"/>
<path d="M32.8216 31.3726H3.02394C2.96028 31.3726 2.89924 31.3473 2.85423 31.3023C2.80922 31.2573 2.78394 31.1962 2.78394 31.1326C2.78394 31.0689 2.80922 31.0079 2.85423 30.9629C2.89924 30.9179 2.96028 30.8926 3.02394 30.8926H32.8216C32.8853 30.8926 32.9463 30.9179 32.9913 30.9629C33.0363 31.0079 33.0616 31.0689 33.0616 31.1326C33.0616 31.1962 33.0363 31.2573 32.9913 31.3023C32.9463 31.3473 32.8853 31.3726 32.8216 31.3726Z" fill="#1E1E1E"/>
<path d="M22.9171 26.2121H12.3091C12.2454 26.2121 12.1844 26.1868 12.1394 26.1418C12.0944 26.0968 12.0691 26.0357 12.0691 25.9721C12.0691 25.9084 12.0944 25.8474 12.1394 25.8023C12.1844 25.7573 12.2454 25.7321 12.3091 25.7321H22.9171C22.9807 25.7321 23.0418 25.7573 23.0868 25.8023C23.1318 25.8474 23.1571 25.9084 23.1571 25.9721C23.1571 26.0357 23.1318 26.0968 23.0868 26.1418C23.0418 26.1868 22.9807 26.2121 22.9171 26.2121Z" fill="#1E1E1E"/>
<path d="M21.456 23.2453H13.77C13.7064 23.2453 13.6453 23.22 13.6003 23.175C13.5553 23.13 13.53 23.0689 13.53 23.0053C13.53 22.9416 13.5553 22.8806 13.6003 22.8356C13.6453 22.7905 13.7064 22.7653 13.77 22.7653H21.456C21.5197 22.7653 21.5807 22.7905 21.6257 22.8356C21.6707 22.8806 21.696 22.9416 21.696 23.0053C21.696 23.0689 21.6707 23.13 21.6257 23.175C21.5807 23.22 21.5197 23.2453 21.456 23.2453Z" fill="#1E1E1E"/>
<path d="M31.264 17.246C31.0732 17.2465 30.8883 17.1795 30.742 17.0568C29.5643 16.0812 28.558 14.9156 27.7648 13.608L20.5015 16.2692C20.4417 16.2911 20.3757 16.2883 20.3179 16.2615C20.2602 16.2348 20.2154 16.1861 20.1935 16.1264C20.1716 16.0666 20.1744 16.0006 20.2012 15.9428C20.228 15.8851 20.2766 15.8403 20.3363 15.8184L27.7898 13.0884C27.8433 13.0688 27.9021 13.0689 27.9555 13.0886C28.009 13.1084 28.0537 13.1465 28.0816 13.1962C28.8583 14.527 29.8641 15.7101 31.0526 16.6908C31.0977 16.7278 31.1517 16.7523 31.2092 16.7619C31.2667 16.7716 31.3257 16.766 31.3804 16.7458L32.4395 16.3584C32.4983 16.336 32.5497 16.2977 32.588 16.2478C32.6263 16.198 32.6501 16.1385 32.6567 16.076C33.0842 11.605 31.7671 7.93996 28.7421 5.18836C28.6977 5.14974 28.6438 5.12373 28.5859 5.11306C28.528 5.10238 28.4683 5.10741 28.4131 5.12764L27.3119 5.52628C27.2598 5.54595 27.2133 5.57811 27.1764 5.61996C27.1396 5.6618 27.1136 5.71205 27.1007 5.76628C26.7532 7.22934 26.7124 8.7485 26.9807 10.2281C26.9915 10.2839 26.9822 10.3417 26.9544 10.3912C26.9265 10.4407 26.8821 10.4788 26.8288 10.4986L19.3439 13.2785C19.2843 13.3008 19.2182 13.2985 19.1602 13.272C19.1023 13.2456 19.0572 13.1972 19.0349 13.1375C19.0127 13.0778 19.015 13.0118 19.0414 12.9538C19.0679 12.8959 19.1163 12.8508 19.1759 12.8285L26.4719 10.1196C26.2327 8.63709 26.2872 7.12195 26.6325 5.66044C26.663 5.52844 26.7257 5.40603 26.8149 5.30408C26.9041 5.20213 27.0172 5.12379 27.1439 5.07604L28.2479 4.67716C28.3855 4.62674 28.5341 4.61458 28.678 4.64196C28.822 4.66935 28.9557 4.73526 29.0651 4.83268C32.2091 7.693 33.5771 11.4922 33.1351 16.1254C33.1186 16.2772 33.0604 16.4215 32.9669 16.5423C32.8734 16.663 32.7483 16.7555 32.6054 16.8094L31.5448 17.197C31.4548 17.2295 31.3598 17.2461 31.264 17.246Z" fill="#1E1E1E"/>
<path d="M4.26582 22.1594C4.10369 22.1594 3.94551 22.1095 3.81274 22.0165C3.67998 21.9234 3.57908 21.7917 3.52374 21.6394L2.83134 19.7194C2.79561 19.6227 2.77939 19.5199 2.78362 19.417C2.78785 19.314 2.81244 19.2129 2.85598 19.1195C2.89953 19.0261 2.96115 18.9423 3.03729 18.8728C3.11343 18.8034 3.20257 18.7497 3.29958 18.715L14.6595 14.503C14.689 14.4919 14.7205 14.4868 14.752 14.4879C14.7835 14.4891 14.8145 14.4964 14.8432 14.5095C14.8719 14.5226 14.8977 14.5412 14.9192 14.5643C14.9407 14.5873 14.9575 14.6144 14.9685 14.644C14.9795 14.6735 14.9846 14.7049 14.9835 14.7365C14.9824 14.768 14.9751 14.799 14.962 14.8277C14.9489 14.8564 14.9303 14.8822 14.9072 14.9037C14.8841 14.9252 14.857 14.9419 14.8275 14.953L3.4647 19.1657C3.42681 19.1788 3.39195 19.1995 3.36218 19.2263C3.33242 19.2532 3.30835 19.2858 3.29142 19.3222C3.27457 19.3587 3.26513 19.3981 3.26365 19.4383C3.26217 19.4785 3.26867 19.5185 3.28278 19.5562L3.97494 21.4762C4.00298 21.5529 4.06028 21.6155 4.13431 21.6501C4.20834 21.6847 4.29308 21.6886 4.36998 21.661L15.716 17.5075C15.7456 17.4967 15.777 17.4918 15.8085 17.4931C15.84 17.4944 15.8709 17.5019 15.8995 17.5151C15.9281 17.5284 15.9538 17.5472 15.9751 17.5704C15.9965 17.5936 16.0131 17.6207 16.0239 17.6503C16.0347 17.6799 16.0396 17.7114 16.0383 17.7428C16.037 17.7743 16.0295 17.8053 16.0163 17.8339C16.003 17.8625 15.9842 17.8882 15.9611 17.9095C15.9379 17.9308 15.9107 17.9474 15.8811 17.9582L4.53414 22.1122C4.4481 22.1433 4.35732 22.1593 4.26582 22.1594Z" fill="#1E1E1E"/>
<path d="M17.5711 18.576C16.9475 18.5755 16.338 18.3902 15.8196 18.0434C15.3013 17.6966 14.8974 17.2039 14.659 16.6276C14.4206 16.0514 14.3584 15.4173 14.4802 14.8057C14.602 14.1941 14.9025 13.6323 15.3435 13.1914C15.7845 12.7504 16.3464 12.4502 16.958 12.3285C17.5697 12.2068 18.2037 12.2691 18.7799 12.5077C19.3561 12.7462 19.8487 13.1502 20.1954 13.6686C20.5421 14.187 20.7273 14.7966 20.7276 15.4202C20.7265 16.257 20.3935 17.0591 19.8018 17.6507C19.21 18.2423 18.4078 18.575 17.5711 18.576ZM17.5711 12.7478C17.0423 12.7483 16.5254 12.9056 16.086 13.1998C15.6465 13.494 15.3041 13.9119 15.1021 14.4006C14.9002 14.8894 14.8476 15.4271 14.9512 15.9457C15.0548 16.4643 15.3099 16.9405 15.6841 17.3142C16.0583 17.6879 16.535 17.9422 17.0537 18.045C17.5725 18.1478 18.1101 18.0944 18.5986 17.8917C19.087 17.689 19.5044 17.346 19.7979 16.9061C20.0914 16.4662 20.2479 15.9491 20.2476 15.4202C20.2462 14.7112 19.9636 14.0318 19.4618 13.5309C18.9601 13.03 18.2801 12.7487 17.5711 12.7485V12.7478Z" fill="#1E1E1E"/>
<path d="M17.5714 17.1039C17.2391 17.1034 16.9143 17.0045 16.6382 16.8196C16.3621 16.6348 16.1469 16.3722 16.0199 16.0651C15.8929 15.758 15.8598 15.4201 15.9247 15.0942C15.9896 14.7683 16.1497 14.469 16.3847 14.234C16.6196 13.999 16.919 13.8389 17.2449 13.7739C17.5708 13.7089 17.9086 13.742 18.2157 13.8689C18.5229 13.9959 18.7855 14.211 18.9704 14.4871C19.1553 14.7632 19.2543 15.0879 19.2547 15.4203C19.2542 15.8666 19.0766 16.2944 18.7611 16.61C18.4455 16.9256 18.0177 17.1032 17.5714 17.1039ZM17.5714 14.2215C17.3338 14.2219 17.1018 14.2927 16.9045 14.425C16.7072 14.5573 16.5536 14.7451 16.463 14.9647C16.3725 15.1843 16.3491 15.4259 16.3958 15.6588C16.4425 15.8917 16.5571 16.1055 16.7253 16.2732C16.8935 16.4409 17.1077 16.555 17.3407 16.6011C17.5737 16.6471 17.8152 16.623 18.0345 16.5319C18.2539 16.4407 18.4413 16.2866 18.573 16.0889C18.7048 15.8913 18.775 15.659 18.7747 15.4215C18.774 15.1028 18.6469 14.7975 18.4213 14.5725C18.1957 14.3475 17.89 14.2213 17.5714 14.2215Z" fill="#1E1E1E"/>
<path d="M31.4617 27.6309C31.398 27.6309 31.337 27.6056 31.292 27.5606C31.247 27.5156 31.2217 27.4546 31.2217 27.3909V16.9716C31.2217 16.9079 31.247 16.8469 31.292 16.8019C31.337 16.7569 31.398 16.7316 31.4617 16.7316C31.5253 16.7316 31.5864 16.7569 31.6314 16.8019C31.6764 16.8469 31.7017 16.9079 31.7017 16.9716V27.3909C31.7017 27.4546 31.6764 27.5156 31.6314 27.5606C31.5864 27.6056 31.5253 27.6309 31.4617 27.6309Z" fill="#1E1E1E"/>
<path d="M31.9636 31.3724H30.7043C30.65 31.3724 30.5972 31.354 30.5547 31.3201C30.5122 31.2863 30.4825 31.2391 30.4703 31.1861L29.6123 27.4448C29.6042 27.4096 29.6042 27.3731 29.6121 27.3379C29.6201 27.3027 29.6359 27.2698 29.6584 27.2416C29.6809 27.2133 29.7094 27.1905 29.7419 27.1749C29.7744 27.1592 29.81 27.151 29.8461 27.151H32.8221C32.8581 27.151 32.8937 27.1592 32.9262 27.1749C32.9587 27.1905 32.9873 27.2133 33.0097 27.2416C33.0322 27.2698 33.048 27.3027 33.056 27.3379C33.064 27.3731 33.0639 27.4096 33.0558 27.4448L32.1978 31.1861C32.1856 31.2391 32.1558 31.2864 32.1133 31.3202C32.0707 31.3541 32.0179 31.3724 31.9636 31.3724ZM30.8953 30.8924H31.7723L32.5204 27.631H30.1473L30.8953 30.8924Z" fill="#1E1E1E"/>
<path d="M6.17115 27.5974C6.1075 27.5974 6.04646 27.5721 6.00145 27.5271C5.95644 27.4821 5.93115 27.4211 5.93115 27.3574V21.2571C5.93115 21.1934 5.95644 21.1324 6.00145 21.0874C6.04646 21.0424 6.1075 21.0171 6.17115 21.0171C6.2348 21.0171 6.29585 21.0424 6.34086 21.0874C6.38587 21.1324 6.41115 21.1934 6.41115 21.2571V27.3574C6.41115 27.4211 6.38587 27.4821 6.34086 27.5271C6.29585 27.5721 6.2348 27.5974 6.17115 27.5974Z" fill="#1E1E1E"/>
<path d="M25.4567 31.3723C25.4118 31.3725 25.3678 31.36 25.3296 31.3363C25.2914 31.3126 25.2606 31.2787 25.2407 31.2384L18.7651 18.079C18.7512 18.0506 18.743 18.0198 18.741 17.9882C18.739 17.9567 18.7432 17.9251 18.7534 17.8952C18.7636 17.8653 18.7796 17.8377 18.8005 17.814C18.8214 17.7903 18.8467 17.7709 18.8751 17.757C18.9035 17.7431 18.9343 17.7349 18.9658 17.7329C18.9974 17.7309 19.029 17.7351 19.0589 17.7454C19.0888 17.7556 19.1164 17.7716 19.1401 17.7925C19.1638 17.8133 19.1832 17.8387 19.1971 17.8671L25.6732 31.0265C25.6912 31.0631 25.6996 31.1037 25.6975 31.1445C25.6954 31.1853 25.683 31.2248 25.6614 31.2595C25.6398 31.2941 25.6097 31.3226 25.5739 31.3424C25.5382 31.3621 25.498 31.3724 25.4572 31.3723H25.4567Z" fill="#1E1E1E"/>
<path d="M9.82583 31.3723C9.78989 31.3723 9.75442 31.3641 9.72215 31.3483C9.66481 31.3207 9.62078 31.2715 9.59971 31.2114C9.57865 31.1514 9.58229 31.0855 9.60983 31.0281L15.9439 17.8689C15.9732 17.8145 16.0224 17.7736 16.0811 17.7545C16.1398 17.7355 16.2037 17.7398 16.2593 17.7666C16.3149 17.7934 16.3581 17.8406 16.3798 17.8984C16.4015 17.9562 16.4001 18.0202 16.3759 18.077L10.0425 31.2364C10.0229 31.2772 9.99214 31.3116 9.95379 31.3356C9.91545 31.3596 9.87108 31.3724 9.82583 31.3723Z" fill="#1E1E1E"/>
<path d="M8.05724 31.3725H4.28468C4.22103 31.3725 4.15998 31.3472 4.11497 31.3022C4.06996 31.2572 4.04468 31.1962 4.04468 31.1325V27.3573C4.04468 27.2937 4.06996 27.2326 4.11497 27.1876C4.15998 27.1426 4.22103 27.1173 4.28468 27.1173H8.05724C8.12089 27.1173 8.18193 27.1426 8.22694 27.1876C8.27195 27.2326 8.29724 27.2937 8.29724 27.3573V31.1325C8.29724 31.1962 8.27195 31.2572 8.22694 31.3022C8.18193 31.3472 8.12089 31.3725 8.05724 31.3725ZM4.52468 30.8925H7.81724V27.5973H4.52468V30.8925Z" fill="#1E1E1E"/>
<path d="M32.8216 31.3726H3.02394C2.96028 31.3726 2.89924 31.3473 2.85423 31.3023C2.80922 31.2573 2.78394 31.1962 2.78394 31.1326C2.78394 31.0689 2.80922 31.0079 2.85423 30.9629C2.89924 30.9179 2.96028 30.8926 3.02394 30.8926H32.8216C32.8853 30.8926 32.9463 30.9179 32.9913 30.9629C33.0363 31.0079 33.0616 31.0689 33.0616 31.1326C33.0616 31.1962 33.0363 31.2573 32.9913 31.3023C32.9463 31.3473 32.8853 31.3726 32.8216 31.3726Z" fill="#1E1E1E"/>
<path d="M22.9171 26.2121H12.3091C12.2454 26.2121 12.1844 26.1868 12.1394 26.1418C12.0944 26.0968 12.0691 26.0357 12.0691 25.9721C12.0691 25.9084 12.0944 25.8474 12.1394 25.8023C12.1844 25.7573 12.2454 25.7321 12.3091 25.7321H22.9171C22.9807 25.7321 23.0418 25.7573 23.0868 25.8023C23.1318 25.8474 23.1571 25.9084 23.1571 25.9721C23.1571 26.0357 23.1318 26.0968 23.0868 26.1418C23.0418 26.1868 22.9807 26.2121 22.9171 26.2121Z" fill="#1E1E1E"/>
<path d="M21.456 23.2453H13.77C13.7064 23.2453 13.6453 23.22 13.6003 23.175C13.5553 23.13 13.53 23.0689 13.53 23.0053C13.53 22.9416 13.5553 22.8806 13.6003 22.8356C13.6453 22.7905 13.7064 22.7653 13.77 22.7653H21.456C21.5197 22.7653 21.5807 22.7905 21.6257 22.8356C21.6707 22.8806 21.696 22.9416 21.696 23.0053C21.696 23.0689 21.6707 23.13 21.6257 23.175C21.5807 23.22 21.5197 23.2453 21.456 23.2453Z" fill="#1E1E1E"/>
</svg>
