<svg width="36" height="36" viewBox="0 0 36 36" fill="none" xmlns="http://www.w3.org/2000/svg">
<path d="M17.0726 16.1207H6.76271C6.69905 16.1207 6.63801 16.0955 6.593 16.0505C6.54799 16.0054 6.52271 15.9444 6.52271 15.8807C6.52271 15.8171 6.54799 15.756 6.593 15.711C6.63801 15.666 6.69905 15.6407 6.76271 15.6407H17.0726C17.1363 15.6407 17.1973 15.666 17.2423 15.711C17.2873 15.756 17.3126 15.8171 17.3126 15.8807C17.3126 15.9444 17.2873 16.0054 17.2423 16.0505C17.1973 16.0955 17.1363 16.1207 17.0726 16.1207Z" fill="#1E1E1E"/>
<path d="M7.63795 16.1209C7.5819 16.1208 7.52764 16.1011 7.48459 16.0652C7.44154 16.0293 7.41242 15.9794 7.40227 15.9243C7.35832 15.68 7.33687 15.4321 7.33819 15.1839C7.36273 13.9856 7.85599 12.8446 8.71213 12.0058C9.56827 11.1671 10.7191 10.6973 11.9176 10.6973C13.1162 10.6973 14.267 11.1671 15.1231 12.0058C15.9793 12.8446 16.4725 13.9856 16.4971 15.1839C16.4984 15.432 16.477 15.6798 16.4332 15.9241C16.4208 15.9857 16.3846 16.04 16.3326 16.0753C16.2805 16.1106 16.2166 16.124 16.1548 16.1127C16.0929 16.1013 16.0379 16.0662 16.0017 16.0147C15.9655 15.9633 15.951 15.8997 15.9612 15.8377C15.9997 15.6219 16.0184 15.4031 16.0171 15.1839C15.9939 14.112 15.5518 13.0919 14.7855 12.342C14.0192 11.5921 12.9898 11.1722 11.9176 11.1722C10.8455 11.1722 9.81602 11.5921 9.04975 12.342C8.28348 13.0919 7.84139 14.112 7.81819 15.1839C7.81676 15.403 7.83556 15.6218 7.87435 15.8374C7.88585 15.8999 7.8721 15.9644 7.83611 16.0168C7.80011 16.0692 7.74482 16.1051 7.68235 16.1168C7.66772 16.1196 7.65285 16.121 7.63795 16.1209Z" fill="#1E1E1E"/>
<path d="M11.9177 13.6488C11.8541 13.6488 11.793 13.6235 11.748 13.5785C11.703 13.5335 11.6777 13.4725 11.6777 13.4088V10.1688C11.6777 10.1052 11.703 10.0441 11.748 9.99913C11.793 9.95412 11.8541 9.92883 11.9177 9.92883C11.9814 9.92883 12.0424 9.95412 12.0874 9.99913C12.1324 10.0441 12.1577 10.1052 12.1577 10.1688V13.4088C12.1577 13.4725 12.1324 13.5335 12.0874 13.5785C12.0424 13.6235 11.9814 13.6488 11.9177 13.6488Z" fill="#1E1E1E"/>
<path d="M11.9176 22.5343C11.7433 22.5342 11.5698 22.5114 11.4014 22.4664C8.95629 21.8114 8.61117 19.9492 8.56797 19.2926C8.35389 19.2499 8.15667 19.1464 7.99997 18.9944C7.84327 18.8424 7.73375 18.6485 7.68453 18.4358L7.49541 17.6296C7.47113 17.5261 7.46886 17.4186 7.48873 17.3142C7.50861 17.2097 7.55019 17.1105 7.6108 17.0232C7.6714 16.9358 7.74967 16.8621 7.84055 16.8068C7.93143 16.7516 8.03289 16.7161 8.13837 16.7025L7.98981 15.9259C7.98324 15.8947 7.98296 15.8625 7.98898 15.8312C7.995 15.7999 8.00719 15.7701 8.02486 15.7435C8.04252 15.717 8.0653 15.6942 8.09186 15.6766C8.11841 15.6589 8.14822 15.6467 8.17954 15.6407C8.21086 15.6348 8.24305 15.6351 8.27425 15.6416C8.30545 15.6482 8.33502 15.661 8.36124 15.6791C8.38746 15.6973 8.4098 15.7204 8.42696 15.7473C8.44411 15.7742 8.45575 15.8042 8.46117 15.8356L8.66325 16.8916C8.6699 16.9264 8.66879 16.9621 8.66 16.9964C8.65122 17.0306 8.63498 17.0625 8.61244 17.0898C8.5899 17.117 8.56161 17.1389 8.52961 17.154C8.49761 17.169 8.46269 17.1768 8.42733 17.1768H8.23533C8.19311 17.1766 8.1514 17.186 8.11333 17.2043C8.07525 17.2225 8.0418 17.2491 8.01548 17.2822C7.98917 17.3152 7.97066 17.3537 7.96135 17.3949C7.95204 17.4361 7.95217 17.4788 7.96173 17.52L8.15085 18.3261C8.18446 18.4715 8.26642 18.6011 8.38332 18.6937C8.50022 18.7864 8.64512 18.8366 8.79429 18.8361C8.82766 18.8361 8.86069 18.8428 8.89142 18.8558C8.92214 18.8689 8.94992 18.8879 8.97309 18.912C8.99603 18.9357 9.01388 18.9639 9.02556 18.9948C9.03724 19.0258 9.0425 19.0587 9.04101 19.0917C9.03573 19.1812 8.94021 21.3103 11.5257 22.0027C11.7825 22.0713 12.0528 22.0713 12.3096 22.0027C14.8951 21.3103 14.7996 19.1812 14.7943 19.091C14.7923 19.0583 14.797 19.0254 14.8081 18.9946C14.8193 18.9637 14.8366 18.9355 14.8591 18.9116C14.8816 18.8877 14.9087 18.8687 14.9389 18.8557C14.969 18.8427 15.0015 18.8361 15.0343 18.8361C15.1846 18.8379 15.331 18.7883 15.4493 18.6956C15.5676 18.6028 15.6507 18.4725 15.6849 18.3261L15.8738 17.52C15.8834 17.4789 15.8836 17.4362 15.8743 17.3951C15.8651 17.354 15.8467 17.3154 15.8205 17.2824C15.7944 17.2494 15.7611 17.2227 15.7231 17.2043C15.6852 17.1859 15.6436 17.1763 15.6014 17.1763H15.4094C15.3741 17.1763 15.3392 17.1685 15.3072 17.1534C15.2752 17.1384 15.247 17.1164 15.2245 17.0892C15.202 17.062 15.1857 17.0301 15.177 16.9958C15.1682 16.9616 15.1671 16.9259 15.1737 16.8912L15.3756 15.8352C15.381 15.8037 15.3926 15.7737 15.4098 15.7468C15.4269 15.72 15.4493 15.6968 15.4755 15.6786C15.5017 15.6605 15.5313 15.6478 15.5625 15.6412C15.5937 15.6346 15.6259 15.6343 15.6572 15.6403C15.6885 15.6463 15.7183 15.6584 15.7449 15.6761C15.7714 15.6937 15.7942 15.7165 15.8119 15.743C15.8295 15.7696 15.8417 15.7994 15.8478 15.8307C15.8538 15.862 15.8535 15.8942 15.8469 15.9254L15.6984 16.702C15.8039 16.7156 15.9054 16.7511 15.9963 16.8063C16.0872 16.8615 16.1655 16.9352 16.2261 17.0226C16.2867 17.11 16.3283 17.2091 16.3482 17.3136C16.3681 17.4181 16.3658 17.5256 16.3416 17.6292L16.152 18.4358C16.1028 18.6486 15.9934 18.8427 15.8367 18.9949C15.68 19.147 15.4827 19.2507 15.2685 19.2936C15.2239 19.9507 14.8783 21.8116 12.4341 22.4664C12.2657 22.5114 12.092 22.5342 11.9176 22.5343Z" fill="#1E1E1E"/>
<path d="M20.8703 33.0818H3.3119C3.07002 33.0818 2.83805 32.9857 2.66702 32.8147C2.49599 32.6436 2.3999 32.4117 2.3999 32.1698V28.0922C2.40037 27.5923 2.53308 27.1013 2.78454 26.6693C3.03601 26.2372 3.3973 25.8793 3.83174 25.6319C4.82582 25.0703 6.48518 24.3021 7.69574 23.741C8.2547 23.482 8.73782 23.2586 9.00926 23.1227C9.07785 23.0882 9.15292 23.0683 9.22964 23.0645C9.30636 23.0607 9.38303 23.073 9.4547 23.1007C9.52956 23.13 9.59758 23.1745 9.65452 23.2312C9.71145 23.288 9.7561 23.3559 9.78566 23.4307C9.99092 23.8693 10.3169 24.2403 10.7255 24.5003C11.1341 24.7602 11.6084 24.8983 12.0926 24.8983C12.5769 24.8984 13.0512 24.7604 13.4598 24.5005C13.8684 24.2407 14.1946 23.8697 14.3999 23.4311C14.4289 23.3565 14.473 23.2888 14.5295 23.2321C14.5861 23.1754 14.6537 23.1311 14.7282 23.1019C14.7998 23.0737 14.8766 23.0611 14.9535 23.0648C15.0303 23.0685 15.1055 23.0884 15.1741 23.1232C15.4547 23.2627 15.9573 23.495 16.539 23.7638C16.851 23.9078 17.1899 24.0647 17.5372 24.2267C17.5939 24.2543 17.6374 24.303 17.6585 24.3624C17.6796 24.4218 17.6765 24.4871 17.6498 24.5442C17.6231 24.6013 17.5751 24.6456 17.516 24.6676C17.457 24.6895 17.3916 24.6874 17.3341 24.6616C16.9876 24.4999 16.6494 24.3436 16.3374 24.1996C15.7525 23.9291 15.2471 23.6956 14.9598 23.5528C14.9509 23.548 14.941 23.5452 14.9309 23.5446C14.9208 23.5441 14.9106 23.5458 14.9013 23.5497C14.8887 23.5549 14.8774 23.5627 14.868 23.5725C14.8586 23.5824 14.8514 23.594 14.8468 23.6068C14.6061 24.1349 14.2186 24.5826 13.7306 24.8966C13.2426 25.2106 12.6746 25.3777 12.0942 25.3779C11.5139 25.3781 10.9458 25.2114 10.4575 24.8977C9.96928 24.5841 9.58152 24.1366 9.34046 23.6087C9.33555 23.5955 9.32799 23.5835 9.31825 23.5733C9.30851 23.5631 9.2968 23.555 9.28382 23.5495C9.27412 23.5457 9.26371 23.544 9.25331 23.5447C9.24291 23.5453 9.23276 23.5481 9.22358 23.5531C8.94662 23.6915 8.46086 23.9164 7.8983 24.1771C6.69422 24.7348 5.04494 25.4971 4.06814 26.0491C3.70748 26.2546 3.40759 26.5518 3.19891 26.9106C2.99022 27.2695 2.88016 27.6771 2.8799 28.0922V32.17C2.8799 32.2846 2.92542 32.3945 3.00643 32.4755C3.08745 32.5565 3.19733 32.602 3.3119 32.602H20.8703C20.9849 32.602 21.0948 32.5565 21.1758 32.4755C21.2568 32.3945 21.3023 32.2846 21.3023 32.17V30.2066C21.3023 30.1429 21.3276 30.0819 21.3726 30.0369C21.4176 29.9919 21.4787 29.9666 21.5423 29.9666C21.606 29.9666 21.667 29.9919 21.712 30.0369C21.757 30.0819 21.7823 30.1429 21.7823 30.2066V32.17C21.7822 32.4119 21.6861 32.6438 21.5151 32.8148C21.3441 32.9857 21.1121 33.0818 20.8703 33.0818Z" fill="#1E1E1E"/>
<path d="M14.622 23.7601C14.5755 23.7602 14.5301 23.7467 14.4912 23.7213C14.3221 23.6116 14.1798 23.4655 14.0745 23.2936C13.9692 23.1218 13.9037 22.9286 13.8828 22.7281L13.7457 21.442C13.739 21.3787 13.7577 21.3153 13.7977 21.2658C13.8376 21.2162 13.8957 21.1846 13.959 21.1779C14.0223 21.1711 14.0857 21.1898 14.1352 21.2298C14.1847 21.2698 14.2164 21.3278 14.2231 21.3911L14.3599 22.6773C14.3734 22.8068 14.4158 22.9318 14.4838 23.0428C14.5519 23.1539 14.6439 23.2484 14.7533 23.3193C14.7965 23.3476 14.8295 23.389 14.8473 23.4376C14.8651 23.4861 14.8667 23.5391 14.8519 23.5886C14.8372 23.6382 14.8068 23.6816 14.7654 23.7125C14.724 23.7434 14.6737 23.7601 14.622 23.7601Z" fill="#1E1E1E"/>
<path d="M9.7018 23.7168L9.56404 23.52L9.44092 23.3138L9.45532 23.3052C9.56191 23.2412 9.65369 23.1554 9.72457 23.0532C9.79545 22.9511 9.8438 22.8351 9.86644 22.7129L10.0544 21.6965C10.0659 21.6339 10.1019 21.5784 10.1543 21.5423C10.2067 21.5062 10.2714 21.4924 10.334 21.504C10.3966 21.5155 10.452 21.5515 10.4881 21.6039C10.5242 21.6564 10.538 21.721 10.5264 21.7836L10.3385 22.8C10.3034 22.9892 10.2285 23.1688 10.1188 23.3269C10.009 23.4849 9.86685 23.6178 9.7018 23.7168Z" fill="#1E1E1E"/>
<path d="M26.1613 33.0818H24.6387C24.5829 33.0818 24.5289 33.0624 24.4859 33.0268C24.4429 32.9913 24.4136 32.9419 24.403 32.8872L24.0706 31.1568C23.2965 30.9961 22.56 30.6898 21.9003 30.2541L20.4406 31.248C20.3943 31.2794 20.3385 31.2937 20.2828 31.2883C20.2271 31.283 20.175 31.2583 20.1356 31.2187L19.0594 30.1387C19.0201 30.0992 18.9957 30.0472 18.9905 29.9918C18.9853 29.9363 18.9996 29.8807 19.0309 29.8346L20.0199 28.3783C19.5845 27.7175 19.2791 26.9798 19.1201 26.2046L17.3921 25.8763C17.3373 25.8658 17.2878 25.8366 17.2522 25.7936C17.2165 25.7505 17.197 25.6964 17.197 25.6406V24.1178C17.197 24.0619 17.2165 24.0077 17.2521 23.9647C17.2877 23.9216 17.3372 23.8923 17.3921 23.8819L19.1201 23.5538C19.2792 22.7785 19.5845 22.0407 20.0199 21.3799L19.0321 19.9224C19.0008 19.8762 18.9865 19.8207 18.9917 19.7652C18.9969 19.7097 19.0213 19.6578 19.0606 19.6183L20.1368 18.5383C20.1762 18.4986 20.2283 18.474 20.284 18.4686C20.3397 18.4633 20.3955 18.4775 20.4418 18.509L21.9015 19.5016C22.5612 19.0659 23.2977 18.7596 24.0718 18.599L24.4042 16.8686C24.4148 16.8138 24.4441 16.7644 24.4871 16.7289C24.5301 16.6934 24.5841 16.6739 24.6399 16.674H26.1625C26.2183 16.674 26.2724 16.6935 26.3154 16.7291C26.3584 16.7647 26.3877 16.8142 26.3981 16.8691L26.7265 18.5971C27.5017 18.7561 28.2395 19.0614 28.9004 19.4968L30.3565 18.5078C30.4027 18.4764 30.4585 18.4622 30.5141 18.4675C30.5698 18.4729 30.6218 18.4975 30.6613 18.5371L31.7377 19.6171C31.777 19.6566 31.8013 19.7085 31.8066 19.764C31.8118 19.8195 31.7975 19.875 31.7662 19.9212L30.7774 21.3768C31.2152 22.0373 31.5216 22.7759 31.6801 23.5524L33.4054 23.8804C33.4603 23.8909 33.5099 23.9202 33.5455 23.9632C33.5811 24.0063 33.6006 24.0605 33.6005 24.1164V25.6392C33.6005 25.695 33.581 25.7491 33.5454 25.7921C33.5098 25.8351 33.4603 25.8644 33.4054 25.8748L31.6801 26.2032C31.5214 26.9792 31.2147 27.7173 30.7767 28.3773L31.7655 29.8332C31.7968 29.8793 31.811 29.9348 31.8058 29.9903C31.8006 30.0458 31.7763 30.0977 31.7369 30.1372L30.6605 31.2172C30.6211 31.2568 30.5691 31.2814 30.5134 31.2868C30.4578 31.2921 30.402 31.2779 30.3557 31.2465L28.8997 30.2575C28.2388 30.6928 27.501 30.9982 26.7257 31.1572L26.3974 32.8852C26.3873 32.9404 26.3581 32.9903 26.3149 33.0263C26.2718 33.0622 26.2174 33.0818 26.1613 33.0818ZM24.8369 32.6018H25.9625L26.2841 30.9076C26.2931 30.8598 26.3165 30.8157 26.3511 30.7815C26.3857 30.7472 26.4299 30.7242 26.4778 30.7156C27.299 30.5697 28.0786 30.2472 28.7629 29.7703C28.8028 29.7428 28.8502 29.7281 28.8987 29.7281C28.9472 29.7281 28.9946 29.7428 29.0345 29.7703L30.4604 30.7387L31.2565 29.9397L30.2881 28.512C30.2608 28.4717 30.2464 28.4242 30.2467 28.3756C30.2471 28.327 30.2621 28.2796 30.29 28.2398C30.7695 27.5569 31.0934 26.7771 31.2389 25.9555C31.2475 25.9075 31.2705 25.8633 31.3048 25.8287C31.3391 25.7941 31.3831 25.7708 31.4309 25.7618L33.1201 25.44V24.3144L31.4297 23.993C31.3819 23.984 31.3379 23.9607 31.3036 23.9261C31.2693 23.8915 31.2463 23.8473 31.2377 23.7993C31.0922 22.9777 30.7683 22.1979 30.2888 21.515C30.2609 21.4751 30.2458 21.4277 30.2454 21.3791C30.2451 21.3304 30.2595 21.2828 30.2869 21.2426L31.2557 19.816L30.4597 19.0171L29.0338 19.9855C28.9937 20.0127 28.9463 20.0272 28.8978 20.027C28.8493 20.0268 28.802 20.0119 28.7621 19.9843C28.078 19.5073 27.2983 19.1847 26.4771 19.0389C26.4291 19.0303 26.3849 19.0074 26.3503 18.9731C26.3157 18.9388 26.2924 18.8948 26.2834 18.8469L25.9618 17.1528H24.8362L24.5108 18.8474C24.5019 18.895 24.4788 18.9389 24.4445 18.9732C24.4103 19.0074 24.3664 19.0305 24.3188 19.0394C23.4987 19.1873 22.7203 19.5111 22.0373 19.9886C21.9975 20.0164 21.9501 20.0315 21.9014 20.0318C21.8528 20.0321 21.8052 20.0176 21.7649 19.9903L20.3353 19.0176L19.5394 19.8165L20.5083 21.2431C20.5355 21.2832 20.55 21.3306 20.5497 21.3791C20.5495 21.4276 20.5345 21.4749 20.5069 21.5148C20.0299 22.1989 19.7072 22.9786 19.5613 23.7998C19.5527 23.8477 19.5297 23.892 19.4954 23.9266C19.4612 23.9611 19.4171 23.9845 19.3693 23.9935L17.6751 24.3151V25.44L19.3693 25.7618C19.4171 25.7708 19.4612 25.7941 19.4954 25.8287C19.5297 25.8633 19.5527 25.9075 19.5613 25.9555C19.7072 26.7766 20.0298 27.5562 20.5069 28.2403C20.5345 28.2801 20.5495 28.3274 20.5497 28.3759C20.55 28.4244 20.5355 28.4718 20.5083 28.512L19.5394 29.9388L20.3353 30.7377L21.7652 29.7652C21.8054 29.7379 21.853 29.7234 21.9016 29.7237C21.9503 29.724 21.9977 29.7391 22.0376 29.7669C22.7207 30.2444 23.4991 30.5682 24.3193 30.7161C24.3669 30.725 24.4108 30.7481 24.445 30.7824C24.4793 30.8166 24.5024 30.8605 24.5113 30.9081L24.8369 32.6018Z" fill="#1E1E1E"/>
<path d="M25.3955 28.7254C24.6345 28.7254 23.8906 28.4997 23.2579 28.0769C22.6251 27.6541 22.1319 27.0532 21.8407 26.3501C21.5495 25.647 21.4733 24.8734 21.6218 24.127C21.7703 23.3806 22.1368 22.695 22.6749 22.1569C23.213 21.6188 23.8986 21.2524 24.645 21.1039C25.3914 20.9555 26.1651 21.0317 26.8681 21.323C27.5712 21.6142 28.1721 22.1074 28.5949 22.7402C29.0176 23.373 29.2433 24.1169 29.2432 24.878C29.2426 25.8982 28.8371 26.8765 28.1156 27.598C27.3941 28.3194 26.4158 28.7249 25.3955 28.7254ZM25.3955 21.5103C24.7295 21.5103 24.0784 21.7078 23.5246 22.0778C22.9707 22.4479 22.5391 22.9738 22.2842 23.5892C22.0293 24.2046 21.9626 24.8817 22.0926 25.535C22.2225 26.1882 22.5432 26.7883 23.0142 27.2593C23.4852 27.7302 24.0853 28.051 24.7385 28.1809C25.3918 28.3109 26.0689 28.2442 26.6843 27.9893C27.2997 27.7344 27.8256 27.3027 28.1957 26.7489C28.5657 26.1951 28.7632 25.544 28.7632 24.878C28.7628 23.9849 28.4079 23.1285 27.7764 22.4971C27.1449 21.8656 26.2886 21.5107 25.3955 21.5103Z" fill="#1E1E1E"/>
<path d="M22.4373 14.9551C22.3736 14.9551 22.3126 14.9299 22.2676 14.885L20.0058 12.624C19.9608 12.579 19.9355 12.5179 19.9355 12.4543C19.9355 12.3906 19.9608 12.3296 20.0058 12.2846L29.2132 3.07724C29.359 2.95405 29.5475 2.89317 29.7378 2.90777C29.9282 2.92236 30.1052 3.01125 30.2305 3.15524L31.7368 4.66124C31.8808 4.78661 31.9697 4.96361 31.9842 5.15398C31.9988 5.34435 31.9378 5.53281 31.8145 5.6786L22.6079 14.885C22.5855 14.9074 22.5589 14.9251 22.5296 14.9371C22.5003 14.9491 22.4689 14.9552 22.4373 14.9551ZM20.5149 12.4533L22.4373 14.3757L31.4749 5.33804C31.5366 5.2766 31.5165 5.11868 31.3972 4.99964L29.8912 3.4934C29.7712 3.3734 29.614 3.3542 29.5525 3.41564L20.5149 12.4533Z" fill="#1E1E1E"/>
<path d="M19.0462 16.1208C19.0082 16.1208 18.9708 16.1118 18.937 16.0945C18.9032 16.0772 18.874 16.0522 18.8517 16.0214C18.8295 15.9907 18.8148 15.9551 18.809 15.9176C18.8032 15.8801 18.8063 15.8417 18.8182 15.8056L19.9477 12.3782C19.9676 12.3177 20.0107 12.2676 20.0675 12.239C20.1244 12.2103 20.1903 12.2054 20.2508 12.2253C20.3112 12.2452 20.3613 12.2884 20.39 12.3452C20.4187 12.4021 20.4236 12.468 20.4037 12.5284L19.4254 15.4965L22.3594 14.4885C22.3894 14.4775 22.4213 14.4726 22.4531 14.4741C22.485 14.4756 22.5163 14.4834 22.5451 14.4972C22.574 14.5109 22.5997 14.5302 22.621 14.554C22.6423 14.5778 22.6586 14.6057 22.6689 14.6358C22.6793 14.666 22.6836 14.698 22.6814 14.7298C22.6793 14.7617 22.6709 14.7928 22.6566 14.8214C22.6423 14.8499 22.6224 14.8753 22.5982 14.8961C22.5739 14.9169 22.5458 14.9326 22.5154 14.9424L19.1242 16.108C19.0991 16.1165 19.0727 16.1208 19.0462 16.1208Z" fill="#1E1E1E"/>
<path d="M30.453 6.93882C30.3893 6.93881 30.3283 6.91351 30.2833 6.8685L28.0218 4.60794C27.9988 4.5858 27.9805 4.55932 27.968 4.53004C27.9554 4.50076 27.9488 4.46927 27.9485 4.4374C27.9482 4.40553 27.9543 4.37393 27.9664 4.34443C27.9784 4.31494 27.9962 4.28814 28.0188 4.26561C28.0413 4.24307 28.0681 4.22525 28.0976 4.21318C28.1271 4.20112 28.1587 4.19504 28.1906 4.19532C28.2224 4.1956 28.2539 4.20222 28.2832 4.2148C28.3125 4.22738 28.339 4.24566 28.3611 4.26858L30.6226 6.52986C30.6562 6.56343 30.679 6.60619 30.6883 6.65273C30.6976 6.69928 30.6928 6.74753 30.6746 6.79138C30.6565 6.83523 30.6257 6.87271 30.5863 6.89908C30.5468 6.92545 30.5004 6.93953 30.453 6.93954V6.93882Z" fill="#1E1E1E"/>
<path d="M29.254 8.13766C29.2225 8.13775 29.1912 8.13158 29.1621 8.11951C29.133 8.10743 29.1065 8.0897 29.0843 8.06734L26.8228 5.80606C26.7999 5.78392 26.7816 5.75744 26.769 5.72816C26.7564 5.69888 26.7498 5.66739 26.7495 5.63552C26.7492 5.60365 26.7553 5.57205 26.7674 5.54255C26.7795 5.51306 26.7973 5.48626 26.8198 5.46373C26.8423 5.44119 26.8691 5.42337 26.8986 5.4113C26.9281 5.39924 26.9597 5.39316 26.9916 5.39344C27.0235 5.39372 27.055 5.40034 27.0842 5.41292C27.1135 5.4255 27.14 5.44378 27.1621 5.4667L29.4239 7.72798C29.4575 7.76155 29.4803 7.80431 29.4896 7.85085C29.4988 7.8974 29.4941 7.94565 29.4759 7.9895C29.4577 8.03335 29.427 8.07083 29.3875 8.0972C29.3481 8.12357 29.3014 8.13765 29.254 8.13766Z" fill="#1E1E1E"/>
<path d="M13.0656 33.0986H11.2944C11.2308 33.0986 11.1697 33.0733 11.1247 33.0283C11.0797 32.9833 11.0544 32.9223 11.0544 32.8586V25.0154C11.0544 24.9518 11.0797 24.8907 11.1247 24.8457C11.1697 24.8007 11.2308 24.7754 11.2944 24.7754C11.3581 24.7754 11.4191 24.8007 11.4641 24.8457C11.5092 24.8907 11.5344 24.9518 11.5344 25.0154V32.6186H12.8256V24.953C12.8256 24.8894 12.8509 24.8283 12.8959 24.7833C12.9409 24.7383 13.002 24.713 13.0656 24.713C13.1293 24.713 13.1903 24.7383 13.2353 24.7833C13.2804 24.8283 13.3056 24.8894 13.3056 24.953V32.8418C13.3062 32.9072 13.2817 32.9704 13.237 33.0182C13.1923 33.066 13.131 33.0948 13.0656 33.0986Z" fill="#1E1E1E"/>
<path d="M17.0726 16.1207H6.76271C6.69905 16.1207 6.63801 16.0955 6.593 16.0505C6.54799 16.0054 6.52271 15.9444 6.52271 15.8807C6.52271 15.8171 6.54799 15.756 6.593 15.711C6.63801 15.666 6.69905 15.6407 6.76271 15.6407H17.0726C17.1363 15.6407 17.1973 15.666 17.2423 15.711C17.2873 15.756 17.3126 15.8171 17.3126 15.8807C17.3126 15.9444 17.2873 16.0054 17.2423 16.0505C17.1973 16.0955 17.1363 16.1207 17.0726 16.1207Z" fill="#1E1E1E"/>
<path d="M7.63795 16.1209C7.5819 16.1208 7.52764 16.1011 7.48459 16.0652C7.44154 16.0293 7.41242 15.9794 7.40227 15.9243C7.35832 15.68 7.33687 15.4321 7.33819 15.1839C7.36273 13.9856 7.85599 12.8446 8.71213 12.0058C9.56827 11.1671 10.7191 10.6973 11.9176 10.6973C13.1162 10.6973 14.267 11.1671 15.1231 12.0058C15.9793 12.8446 16.4725 13.9856 16.4971 15.1839C16.4984 15.432 16.477 15.6798 16.4332 15.9241C16.4208 15.9857 16.3846 16.04 16.3326 16.0753C16.2805 16.1106 16.2166 16.124 16.1548 16.1127C16.0929 16.1013 16.0379 16.0662 16.0017 16.0147C15.9655 15.9633 15.951 15.8997 15.9612 15.8377C15.9997 15.6219 16.0184 15.4031 16.0171 15.1839C15.9939 14.112 15.5518 13.0919 14.7855 12.342C14.0192 11.5921 12.9898 11.1722 11.9176 11.1722C10.8455 11.1722 9.81602 11.5921 9.04975 12.342C8.28348 13.0919 7.84139 14.112 7.81819 15.1839C7.81676 15.403 7.83556 15.6218 7.87435 15.8374C7.88585 15.8999 7.8721 15.9644 7.83611 16.0168C7.80011 16.0692 7.74482 16.1051 7.68235 16.1168C7.66772 16.1196 7.65285 16.121 7.63795 16.1209Z" fill="#1E1E1E"/>
<path d="M11.9177 13.6488C11.8541 13.6488 11.793 13.6235 11.748 13.5785C11.703 13.5335 11.6777 13.4725 11.6777 13.4088V10.1688C11.6777 10.1052 11.703 10.0441 11.748 9.99913C11.793 9.95412 11.8541 9.92883 11.9177 9.92883C11.9814 9.92883 12.0424 9.95412 12.0874 9.99913C12.1324 10.0441 12.1577 10.1052 12.1577 10.1688V13.4088C12.1577 13.4725 12.1324 13.5335 12.0874 13.5785C12.0424 13.6235 11.9814 13.6488 11.9177 13.6488Z" fill="#1E1E1E"/>
<path d="M11.9176 22.5343C11.7433 22.5342 11.5698 22.5114 11.4014 22.4664C8.95629 21.8114 8.61117 19.9492 8.56797 19.2926C8.35389 19.2499 8.15667 19.1464 7.99997 18.9944C7.84327 18.8424 7.73375 18.6485 7.68453 18.4358L7.49541 17.6296C7.47113 17.5261 7.46886 17.4186 7.48873 17.3142C7.50861 17.2097 7.55019 17.1105 7.6108 17.0232C7.6714 16.9358 7.74967 16.8621 7.84055 16.8068C7.93143 16.7516 8.03289 16.7161 8.13837 16.7025L7.98981 15.9259C7.98324 15.8947 7.98296 15.8625 7.98898 15.8312C7.995 15.7999 8.00719 15.7701 8.02486 15.7435C8.04252 15.717 8.0653 15.6942 8.09186 15.6766C8.11841 15.6589 8.14822 15.6467 8.17954 15.6407C8.21086 15.6348 8.24305 15.6351 8.27425 15.6416C8.30545 15.6482 8.33502 15.661 8.36124 15.6791C8.38746 15.6973 8.4098 15.7204 8.42696 15.7473C8.44411 15.7742 8.45575 15.8042 8.46117 15.8356L8.66325 16.8916C8.6699 16.9264 8.66879 16.9621 8.66 16.9964C8.65122 17.0306 8.63498 17.0625 8.61244 17.0898C8.5899 17.117 8.56161 17.1389 8.52961 17.154C8.49761 17.169 8.46269 17.1768 8.42733 17.1768H8.23533C8.19311 17.1766 8.1514 17.186 8.11333 17.2043C8.07525 17.2225 8.0418 17.2491 8.01548 17.2822C7.98917 17.3152 7.97066 17.3537 7.96135 17.3949C7.95204 17.4361 7.95217 17.4788 7.96173 17.52L8.15085 18.3261C8.18446 18.4715 8.26642 18.6011 8.38332 18.6937C8.50022 18.7864 8.64512 18.8366 8.79429 18.8361C8.82766 18.8361 8.86069 18.8428 8.89142 18.8558C8.92214 18.8689 8.94992 18.8879 8.97309 18.912C8.99603 18.9357 9.01388 18.9639 9.02556 18.9948C9.03724 19.0258 9.0425 19.0587 9.04101 19.0917C9.03573 19.1812 8.94021 21.3103 11.5257 22.0027C11.7825 22.0713 12.0528 22.0713 12.3096 22.0027C14.8951 21.3103 14.7996 19.1812 14.7943 19.091C14.7923 19.0583 14.797 19.0254 14.8081 18.9946C14.8193 18.9637 14.8366 18.9355 14.8591 18.9116C14.8816 18.8877 14.9087 18.8687 14.9389 18.8557C14.969 18.8427 15.0015 18.8361 15.0343 18.8361C15.1846 18.8379 15.331 18.7883 15.4493 18.6956C15.5676 18.6028 15.6507 18.4725 15.6849 18.3261L15.8738 17.52C15.8834 17.4789 15.8836 17.4362 15.8743 17.3951C15.8651 17.354 15.8467 17.3154 15.8205 17.2824C15.7944 17.2494 15.7611 17.2227 15.7231 17.2043C15.6852 17.1859 15.6436 17.1763 15.6014 17.1763H15.4094C15.3741 17.1763 15.3392 17.1685 15.3072 17.1534C15.2752 17.1384 15.247 17.1164 15.2245 17.0892C15.202 17.062 15.1857 17.0301 15.177 16.9958C15.1682 16.9616 15.1671 16.9259 15.1737 16.8912L15.3756 15.8352C15.381 15.8037 15.3926 15.7737 15.4098 15.7468C15.4269 15.72 15.4493 15.6968 15.4755 15.6786C15.5017 15.6605 15.5313 15.6478 15.5625 15.6412C15.5937 15.6346 15.6259 15.6343 15.6572 15.6403C15.6885 15.6463 15.7183 15.6584 15.7449 15.6761C15.7714 15.6937 15.7942 15.7165 15.8119 15.743C15.8295 15.7696 15.8417 15.7994 15.8478 15.8307C15.8538 15.862 15.8535 15.8942 15.8469 15.9254L15.6984 16.702C15.8039 16.7156 15.9054 16.7511 15.9963 16.8063C16.0872 16.8615 16.1655 16.9352 16.2261 17.0226C16.2867 17.11 16.3283 17.2091 16.3482 17.3136C16.3681 17.4181 16.3658 17.5256 16.3416 17.6292L16.152 18.4358C16.1028 18.6486 15.9934 18.8427 15.8367 18.9949C15.68 19.147 15.4827 19.2507 15.2685 19.2936C15.2239 19.9507 14.8783 21.8116 12.4341 22.4664C12.2657 22.5114 12.092 22.5342 11.9176 22.5343Z" fill="#1E1E1E"/>
<path d="M20.8703 33.0818H3.3119C3.07002 33.0818 2.83805 32.9857 2.66702 32.8147C2.49599 32.6436 2.3999 32.4117 2.3999 32.1698V28.0922C2.40037 27.5923 2.53308 27.1013 2.78454 26.6693C3.03601 26.2372 3.3973 25.8793 3.83174 25.6319C4.82582 25.0703 6.48518 24.3021 7.69574 23.741C8.2547 23.482 8.73782 23.2586 9.00926 23.1227C9.07785 23.0882 9.15292 23.0683 9.22964 23.0645C9.30636 23.0607 9.38303 23.073 9.4547 23.1007C9.52956 23.13 9.59758 23.1745 9.65452 23.2312C9.71145 23.288 9.7561 23.3559 9.78566 23.4307C9.99092 23.8693 10.3169 24.2403 10.7255 24.5003C11.1341 24.7602 11.6084 24.8983 12.0926 24.8983C12.5769 24.8984 13.0512 24.7604 13.4598 24.5005C13.8684 24.2407 14.1946 23.8697 14.3999 23.4311C14.4289 23.3565 14.473 23.2888 14.5295 23.2321C14.5861 23.1754 14.6537 23.1311 14.7282 23.1019C14.7998 23.0737 14.8766 23.0611 14.9535 23.0648C15.0303 23.0685 15.1055 23.0884 15.1741 23.1232C15.4547 23.2627 15.9573 23.495 16.539 23.7638C16.851 23.9078 17.1899 24.0647 17.5372 24.2267C17.5939 24.2543 17.6374 24.303 17.6585 24.3624C17.6796 24.4218 17.6765 24.4871 17.6498 24.5442C17.6231 24.6013 17.5751 24.6456 17.516 24.6676C17.457 24.6895 17.3916 24.6874 17.3341 24.6616C16.9876 24.4999 16.6494 24.3436 16.3374 24.1996C15.7525 23.9291 15.2471 23.6956 14.9598 23.5528C14.9509 23.548 14.941 23.5452 14.9309 23.5446C14.9208 23.5441 14.9106 23.5458 14.9013 23.5497C14.8887 23.5549 14.8774 23.5627 14.868 23.5725C14.8586 23.5824 14.8514 23.594 14.8468 23.6068C14.6061 24.1349 14.2186 24.5826 13.7306 24.8966C13.2426 25.2106 12.6746 25.3777 12.0942 25.3779C11.5139 25.3781 10.9458 25.2114 10.4575 24.8977C9.96928 24.5841 9.58152 24.1366 9.34046 23.6087C9.33555 23.5955 9.32799 23.5835 9.31825 23.5733C9.30851 23.5631 9.2968 23.555 9.28382 23.5495C9.27412 23.5457 9.26371 23.544 9.25331 23.5447C9.24291 23.5453 9.23276 23.5481 9.22358 23.5531C8.94662 23.6915 8.46086 23.9164 7.8983 24.1771C6.69422 24.7348 5.04494 25.4971 4.06814 26.0491C3.70748 26.2546 3.40759 26.5518 3.19891 26.9106C2.99022 27.2695 2.88016 27.6771 2.8799 28.0922V32.17C2.8799 32.2846 2.92542 32.3945 3.00643 32.4755C3.08745 32.5565 3.19733 32.602 3.3119 32.602H20.8703C20.9849 32.602 21.0948 32.5565 21.1758 32.4755C21.2568 32.3945 21.3023 32.2846 21.3023 32.17V30.2066C21.3023 30.1429 21.3276 30.0819 21.3726 30.0369C21.4176 29.9919 21.4787 29.9666 21.5423 29.9666C21.606 29.9666 21.667 29.9919 21.712 30.0369C21.757 30.0819 21.7823 30.1429 21.7823 30.2066V32.17C21.7822 32.4119 21.6861 32.6438 21.5151 32.8148C21.3441 32.9857 21.1121 33.0818 20.8703 33.0818Z" fill="#1E1E1E"/>
<path d="M14.622 23.7601C14.5755 23.7602 14.5301 23.7467 14.4912 23.7213C14.3221 23.6116 14.1798 23.4655 14.0745 23.2936C13.9692 23.1218 13.9037 22.9286 13.8828 22.7281L13.7457 21.442C13.739 21.3787 13.7577 21.3153 13.7977 21.2658C13.8376 21.2162 13.8957 21.1846 13.959 21.1779C14.0223 21.1711 14.0857 21.1898 14.1352 21.2298C14.1847 21.2698 14.2164 21.3278 14.2231 21.3911L14.3599 22.6773C14.3734 22.8068 14.4158 22.9318 14.4838 23.0428C14.5519 23.1539 14.6439 23.2484 14.7533 23.3193C14.7965 23.3476 14.8295 23.389 14.8473 23.4376C14.8651 23.4861 14.8667 23.5391 14.8519 23.5886C14.8372 23.6382 14.8068 23.6816 14.7654 23.7125C14.724 23.7434 14.6737 23.7601 14.622 23.7601Z" fill="#1E1E1E"/>
<path d="M9.7018 23.7168L9.56404 23.52L9.44092 23.3138L9.45532 23.3052C9.56191 23.2412 9.65369 23.1554 9.72457 23.0532C9.79545 22.9511 9.8438 22.8351 9.86644 22.7129L10.0544 21.6965C10.0659 21.6339 10.1019 21.5784 10.1543 21.5423C10.2067 21.5062 10.2714 21.4924 10.334 21.504C10.3966 21.5155 10.452 21.5515 10.4881 21.6039C10.5242 21.6564 10.538 21.721 10.5264 21.7836L10.3385 22.8C10.3034 22.9892 10.2285 23.1688 10.1188 23.3269C10.009 23.4849 9.86685 23.6178 9.7018 23.7168Z" fill="#1E1E1E"/>
<path d="M26.1613 33.0818H24.6387C24.5829 33.0818 24.5289 33.0624 24.4859 33.0268C24.4429 32.9913 24.4136 32.9419 24.403 32.8872L24.0706 31.1568C23.2965 30.9961 22.56 30.6898 21.9003 30.2541L20.4406 31.248C20.3943 31.2794 20.3385 31.2937 20.2828 31.2883C20.2271 31.283 20.175 31.2583 20.1356 31.2187L19.0594 30.1387C19.0201 30.0992 18.9957 30.0472 18.9905 29.9918C18.9853 29.9363 18.9996 29.8807 19.0309 29.8346L20.0199 28.3783C19.5845 27.7175 19.2791 26.9798 19.1201 26.2046L17.3921 25.8763C17.3373 25.8658 17.2878 25.8366 17.2522 25.7936C17.2165 25.7505 17.197 25.6964 17.197 25.6406V24.1178C17.197 24.0619 17.2165 24.0077 17.2521 23.9647C17.2877 23.9216 17.3372 23.8923 17.3921 23.8819L19.1201 23.5538C19.2792 22.7785 19.5845 22.0407 20.0199 21.3799L19.0321 19.9224C19.0008 19.8762 18.9865 19.8207 18.9917 19.7652C18.9969 19.7097 19.0213 19.6578 19.0606 19.6183L20.1368 18.5383C20.1762 18.4986 20.2283 18.474 20.284 18.4686C20.3397 18.4633 20.3955 18.4775 20.4418 18.509L21.9015 19.5016C22.5612 19.0659 23.2977 18.7596 24.0718 18.599L24.4042 16.8686C24.4148 16.8138 24.4441 16.7644 24.4871 16.7289C24.5301 16.6934 24.5841 16.6739 24.6399 16.674H26.1625C26.2183 16.674 26.2724 16.6935 26.3154 16.7291C26.3584 16.7647 26.3877 16.8142 26.3981 16.8691L26.7265 18.5971C27.5017 18.7561 28.2395 19.0614 28.9004 19.4968L30.3565 18.5078C30.4027 18.4764 30.4585 18.4622 30.5141 18.4675C30.5698 18.4729 30.6218 18.4975 30.6613 18.5371L31.7377 19.6171C31.777 19.6566 31.8013 19.7085 31.8066 19.764C31.8118 19.8195 31.7975 19.875 31.7662 19.9212L30.7774 21.3768C31.2152 22.0373 31.5216 22.7759 31.6801 23.5524L33.4054 23.8804C33.4603 23.8909 33.5099 23.9202 33.5455 23.9632C33.5811 24.0063 33.6006 24.0605 33.6005 24.1164V25.6392C33.6005 25.695 33.581 25.7491 33.5454 25.7921C33.5098 25.8351 33.4603 25.8644 33.4054 25.8748L31.6801 26.2032C31.5214 26.9792 31.2147 27.7173 30.7767 28.3773L31.7655 29.8332C31.7968 29.8793 31.811 29.9348 31.8058 29.9903C31.8006 30.0458 31.7763 30.0977 31.7369 30.1372L30.6605 31.2172C30.6211 31.2568 30.5691 31.2814 30.5134 31.2868C30.4578 31.2921 30.402 31.2779 30.3557 31.2465L28.8997 30.2575C28.2388 30.6928 27.501 30.9982 26.7257 31.1572L26.3974 32.8852C26.3873 32.9404 26.3581 32.9903 26.3149 33.0263C26.2718 33.0622 26.2174 33.0818 26.1613 33.0818ZM24.8369 32.6018H25.9625L26.2841 30.9076C26.2931 30.8598 26.3165 30.8157 26.3511 30.7815C26.3857 30.7472 26.4299 30.7242 26.4778 30.7156C27.299 30.5697 28.0786 30.2472 28.7629 29.7703C28.8028 29.7428 28.8502 29.7281 28.8987 29.7281C28.9472 29.7281 28.9946 29.7428 29.0345 29.7703L30.4604 30.7387L31.2565 29.9397L30.2881 28.512C30.2608 28.4717 30.2464 28.4242 30.2467 28.3756C30.2471 28.327 30.2621 28.2796 30.29 28.2398C30.7695 27.5569 31.0934 26.7771 31.2389 25.9555C31.2475 25.9075 31.2705 25.8633 31.3048 25.8287C31.3391 25.7941 31.3831 25.7708 31.4309 25.7618L33.1201 25.44V24.3144L31.4297 23.993C31.3819 23.984 31.3379 23.9607 31.3036 23.9261C31.2693 23.8915 31.2463 23.8473 31.2377 23.7993C31.0922 22.9777 30.7683 22.1979 30.2888 21.515C30.2609 21.4751 30.2458 21.4277 30.2454 21.3791C30.2451 21.3304 30.2595 21.2828 30.2869 21.2426L31.2557 19.816L30.4597 19.0171L29.0338 19.9855C28.9937 20.0127 28.9463 20.0272 28.8978 20.027C28.8493 20.0268 28.802 20.0119 28.7621 19.9843C28.078 19.5073 27.2983 19.1847 26.4771 19.0389C26.4291 19.0303 26.3849 19.0074 26.3503 18.9731C26.3157 18.9388 26.2924 18.8948 26.2834 18.8469L25.9618 17.1528H24.8362L24.5108 18.8474C24.5019 18.895 24.4788 18.9389 24.4445 18.9732C24.4103 19.0074 24.3664 19.0305 24.3188 19.0394C23.4987 19.1873 22.7203 19.5111 22.0373 19.9886C21.9975 20.0164 21.9501 20.0315 21.9014 20.0318C21.8528 20.0321 21.8052 20.0176 21.7649 19.9903L20.3353 19.0176L19.5394 19.8165L20.5083 21.2431C20.5355 21.2832 20.55 21.3306 20.5497 21.3791C20.5495 21.4276 20.5345 21.4749 20.5069 21.5148C20.0299 22.1989 19.7072 22.9786 19.5613 23.7998C19.5527 23.8477 19.5297 23.892 19.4954 23.9266C19.4612 23.9611 19.4171 23.9845 19.3693 23.9935L17.6751 24.3151V25.44L19.3693 25.7618C19.4171 25.7708 19.4612 25.7941 19.4954 25.8287C19.5297 25.8633 19.5527 25.9075 19.5613 25.9555C19.7072 26.7766 20.0298 27.5562 20.5069 28.2403C20.5345 28.2801 20.5495 28.3274 20.5497 28.3759C20.55 28.4244 20.5355 28.4718 20.5083 28.512L19.5394 29.9388L20.3353 30.7377L21.7652 29.7652C21.8054 29.7379 21.853 29.7234 21.9016 29.7237C21.9503 29.724 21.9977 29.7391 22.0376 29.7669C22.7207 30.2444 23.4991 30.5682 24.3193 30.7161C24.3669 30.725 24.4108 30.7481 24.445 30.7824C24.4793 30.8166 24.5024 30.8605 24.5113 30.9081L24.8369 32.6018Z" fill="#1E1E1E"/>
<path d="M25.3955 28.7254C24.6345 28.7254 23.8906 28.4997 23.2579 28.0769C22.6251 27.6541 22.1319 27.0532 21.8407 26.3501C21.5495 25.647 21.4733 24.8734 21.6218 24.127C21.7703 23.3806 22.1368 22.695 22.6749 22.1569C23.213 21.6188 23.8986 21.2524 24.645 21.1039C25.3914 20.9555 26.1651 21.0317 26.8681 21.323C27.5712 21.6142 28.1721 22.1074 28.5949 22.7402C29.0176 23.373 29.2433 24.1169 29.2432 24.878C29.2426 25.8982 28.8371 26.8765 28.1156 27.598C27.3941 28.3194 26.4158 28.7249 25.3955 28.7254ZM25.3955 21.5103C24.7295 21.5103 24.0784 21.7078 23.5246 22.0778C22.9707 22.4479 22.5391 22.9738 22.2842 23.5892C22.0293 24.2046 21.9626 24.8817 22.0926 25.535C22.2225 26.1882 22.5432 26.7883 23.0142 27.2593C23.4852 27.7302 24.0853 28.051 24.7385 28.1809C25.3918 28.3109 26.0689 28.2442 26.6843 27.9893C27.2997 27.7344 27.8256 27.3027 28.1957 26.7489C28.5657 26.1951 28.7632 25.544 28.7632 24.878C28.7628 23.9849 28.4079 23.1285 27.7764 22.4971C27.1449 21.8656 26.2886 21.5107 25.3955 21.5103Z" fill="#1E1E1E"/>
<path d="M22.4373 14.9551C22.3736 14.9551 22.3126 14.9299 22.2676 14.885L20.0058 12.624C19.9608 12.579 19.9355 12.5179 19.9355 12.4543C19.9355 12.3906 19.9608 12.3296 20.0058 12.2846L29.2132 3.07724C29.359 2.95405 29.5475 2.89317 29.7378 2.90777C29.9282 2.92236 30.1052 3.01125 30.2305 3.15524L31.7368 4.66124C31.8808 4.78661 31.9697 4.96361 31.9842 5.15398C31.9988 5.34435 31.9378 5.53281 31.8145 5.6786L22.6079 14.885C22.5855 14.9074 22.5589 14.9251 22.5296 14.9371C22.5003 14.9491 22.4689 14.9552 22.4373 14.9551ZM20.5149 12.4533L22.4373 14.3757L31.4749 5.33804C31.5366 5.2766 31.5165 5.11868 31.3972 4.99964L29.8912 3.4934C29.7712 3.3734 29.614 3.3542 29.5525 3.41564L20.5149 12.4533Z" fill="#1E1E1E"/>
<path d="M19.0462 16.1208C19.0082 16.1208 18.9708 16.1118 18.937 16.0945C18.9032 16.0772 18.874 16.0522 18.8517 16.0214C18.8295 15.9907 18.8148 15.9551 18.809 15.9176C18.8032 15.8801 18.8063 15.8417 18.8182 15.8056L19.9477 12.3782C19.9676 12.3177 20.0107 12.2676 20.0675 12.239C20.1244 12.2103 20.1903 12.2054 20.2508 12.2253C20.3112 12.2452 20.3613 12.2884 20.39 12.3452C20.4187 12.4021 20.4236 12.468 20.4037 12.5284L19.4254 15.4965L22.3594 14.4885C22.3894 14.4775 22.4213 14.4726 22.4531 14.4741C22.485 14.4756 22.5163 14.4834 22.5451 14.4972C22.574 14.5109 22.5997 14.5302 22.621 14.554C22.6423 14.5778 22.6586 14.6057 22.6689 14.6358C22.6793 14.666 22.6836 14.698 22.6814 14.7298C22.6793 14.7617 22.6709 14.7928 22.6566 14.8214C22.6423 14.8499 22.6224 14.8753 22.5982 14.8961C22.5739 14.9169 22.5458 14.9326 22.5154 14.9424L19.1242 16.108C19.0991 16.1165 19.0727 16.1208 19.0462 16.1208Z" fill="#1E1E1E"/>
<path d="M30.453 6.93882C30.3893 6.93881 30.3283 6.91351 30.2833 6.8685L28.0218 4.60794C27.9988 4.5858 27.9805 4.55932 27.968 4.53004C27.9554 4.50076 27.9488 4.46927 27.9485 4.4374C27.9482 4.40553 27.9543 4.37393 27.9664 4.34443C27.9784 4.31494 27.9962 4.28814 28.0188 4.26561C28.0413 4.24307 28.0681 4.22525 28.0976 4.21318C28.1271 4.20112 28.1587 4.19504 28.1906 4.19532C28.2224 4.1956 28.2539 4.20222 28.2832 4.2148C28.3125 4.22738 28.339 4.24566 28.3611 4.26858L30.6226 6.52986C30.6562 6.56343 30.679 6.60619 30.6883 6.65273C30.6976 6.69928 30.6928 6.74753 30.6746 6.79138C30.6565 6.83523 30.6257 6.87271 30.5863 6.89908C30.5468 6.92545 30.5004 6.93953 30.453 6.93954V6.93882Z" fill="#1E1E1E"/>
<path d="M29.254 8.13766C29.2225 8.13775 29.1912 8.13158 29.1621 8.11951C29.133 8.10743 29.1065 8.0897 29.0843 8.06734L26.8228 5.80606C26.7999 5.78392 26.7816 5.75744 26.769 5.72816C26.7564 5.69888 26.7498 5.66739 26.7495 5.63552C26.7492 5.60365 26.7553 5.57205 26.7674 5.54255C26.7795 5.51306 26.7973 5.48626 26.8198 5.46373C26.8423 5.44119 26.8691 5.42337 26.8986 5.4113C26.9281 5.39924 26.9597 5.39316 26.9916 5.39344C27.0235 5.39372 27.055 5.40034 27.0842 5.41292C27.1135 5.4255 27.14 5.44378 27.1621 5.4667L29.4239 7.72798C29.4575 7.76155 29.4803 7.80431 29.4896 7.85085C29.4988 7.8974 29.4941 7.94565 29.4759 7.9895C29.4577 8.03335 29.427 8.07083 29.3875 8.0972C29.3481 8.12357 29.3014 8.13765 29.254 8.13766Z" fill="#1E1E1E"/>
<path d="M13.0656 33.0986H11.2944C11.2308 33.0986 11.1697 33.0733 11.1247 33.0283C11.0797 32.9833 11.0544 32.9223 11.0544 32.8586V25.0154C11.0544 24.9518 11.0797 24.8907 11.1247 24.8457C11.1697 24.8007 11.2308 24.7754 11.2944 24.7754C11.3581 24.7754 11.4191 24.8007 11.4641 24.8457C11.5092 24.8907 11.5344 24.9518 11.5344 25.0154V32.6186H12.8256V24.953C12.8256 24.8894 12.8509 24.8283 12.8959 24.7833C12.9409 24.7383 13.002 24.713 13.0656 24.713C13.1293 24.713 13.1903 24.7383 13.2353 24.7833C13.2804 24.8283 13.3056 24.8894 13.3056 24.953V32.8418C13.3062 32.9072 13.2817 32.9704 13.237 33.0182C13.1923 33.066 13.131 33.0948 13.0656 33.0986Z" fill="#1E1E1E"/>
</svg>
