<svg xmlns="http://www.w3.org/2000/svg" viewBox="0 0 153.72 40"><defs><style>.a{fill:#d62829;}.b{fill:#fff;}</style></defs><path class="a" d="M146,.5H126a10,10,0,0,0-10,10v20a10,10,0,0,0,10,10h20a10,10,0,0,0,10-10v-20A10,10,0,0,0,146,.5Z" transform="translate(-2.28 -0.5)"/><path class="b" d="M147,7.5H125a2,2,0,0,0-2,2v22a2,2,0,0,0,2,2h8.16a2,2,0,0,0,2-2V14.6a1.92,1.92,0,0,0-.14-.68h5.92a2,2,0,0,1,2,2V31.5a2,2,0,0,0,2,2H147a2,2,0,0,0,2-2V9.5A2,2,0,0,0,147,7.5Zm-16,7v2.06a2,2,0,1,1-3.92,0v-.66a2,2,0,0,1,2-2h2A1.93,1.93,0,0,0,131,14.52Z" transform="translate(-2.28 -0.5)"/><path class="b" d="M9.38,13.62h0a2.22,2.22,0,0,0,2.2-2.21v0A2.09,2.09,0,0,0,11,9.82a2.12,2.12,0,0,0-1.55-.65h0a2.12,2.12,0,0,0-1.55.65,2.09,2.09,0,0,0-.65,1.56v0a2.22,2.22,0,0,0,2.2,2.21Z" transform="translate(-2.28 -0.5)"/><path class="b" d="M49.47,13.6h0a2.22,2.22,0,0,0,2.21-2.21v0A2.22,2.22,0,0,0,49.5,9.15h0a2.22,2.22,0,0,0-2.21,2.21v0A2.13,2.13,0,0,0,47.91,13,2.16,2.16,0,0,0,49.47,13.6Z" transform="translate(-2.28 -0.5)"/><path class="b" d="M46.37,23.54H44.56V20.63a5,5,0,0,0-.68-2.58A5.23,5.23,0,0,0,42,16.21a4.93,4.93,0,0,0-2.57-.7H27.13a5,5,0,0,0,1.26-2.29,5.32,5.32,0,0,0,0-2.57,5.08,5.08,0,0,0-1.31-2.27l-.77-.79-8,8v6.19h20v1.82H16.5v-8H10.29v12H8.49v-12H2.28V28.65A4.91,4.91,0,0,0,3,31.21a5,5,0,0,0,1.85,1.85,4.91,4.91,0,0,0,2.56.69h4a4.94,4.94,0,0,0,3.22-1.14,5,5,0,0,0,1.76-2.87H39.47a1.82,1.82,0,0,0,1.09-.35,1.91,1.91,0,0,0,.7-.91h.39a1.93,1.93,0,0,0,.71.91,1.79,1.79,0,0,0,1.09.35h4a4.92,4.92,0,0,0,2.57-.68,5.21,5.21,0,0,0,1.85-1.85,4.91,4.91,0,0,0,.69-2.56V15.53H46.37Z" transform="translate(-2.28 -0.5)"/><path class="b" d="M56.77,16.22A5.46,5.46,0,0,0,55,18.05a5,5,0,0,0-.68,2.51v4.16A4.83,4.83,0,0,0,55,27.25a5.15,5.15,0,0,0,1.86,1.82,5,5,0,0,0,2.55.67h2.9v4h1.12A4.92,4.92,0,0,0,66,33.07a5.21,5.21,0,0,0,1.84-1.86,5,5,0,0,0,.68-2.56V15.53H59.24A4.6,4.6,0,0,0,56.77,16.22Zm3.75,5.5h1.81v1.82H60.52Z" transform="translate(-2.28 -0.5)"/><path class="b" d="M83.23,31.54h0a1.71,1.71,0,0,0-1.73,1.73v0A1.72,1.72,0,0,0,83.2,35h0a1.68,1.68,0,0,0,1.23-.51A1.65,1.65,0,0,0,85,33.3v0A1.69,1.69,0,0,0,84.46,32,1.71,1.71,0,0,0,83.23,31.54Z" transform="translate(-2.28 -0.5)"/><path class="b" d="M79.54,31.54h0a1.71,1.71,0,0,0-1.72,1.73v0a1.63,1.63,0,0,0,.5,1.22A1.65,1.65,0,0,0,79.5,35h0a1.68,1.68,0,0,0,1.23-.51,1.64,1.64,0,0,0,.51-1.22v0A1.68,1.68,0,0,0,80.77,32,1.71,1.71,0,0,0,79.54,31.54Z" transform="translate(-2.28 -0.5)"/><path class="b" d="M81.94,29.06a5.21,5.21,0,0,0,1.85-1.85,4.91,4.91,0,0,0,.69-2.56V15.53H78.25v8H76.44v-8H70.23V33.76h1.1a4.94,4.94,0,0,0,3.22-1.14,5,5,0,0,0,1.77-2.88h3.05A4.92,4.92,0,0,0,81.94,29.06Z" transform="translate(-2.28 -0.5)"/><path class="b" d="M88.74,12.21a5.21,5.21,0,0,0-1.86,1.84,4.93,4.93,0,0,0-.69,2.58V29.74H92.4V11.53H91.3A5,5,0,0,0,88.74,12.21Z" transform="translate(-2.28 -0.5)"/><path class="b" d="M85.33,6v6.4h.09a3.1,3.1,0,0,0,1.86-.59,3.13,3.13,0,0,0,1.15-1.52h2a3.08,3.08,0,0,0,2.25-.93,3,3,0,0,0,.95-2.25V6Z" transform="translate(-2.28 -0.5)"/></svg>