<svg xmlns="http://www.w3.org/2000/svg" viewBox="0 0 153.72 40"><defs><style>.a{fill:#d62829;}.b{fill:#fff;}.c{fill:#002f49;}</style></defs><path class="a" d="M144.74,0h-20a10,10,0,0,0-10,10V30a10,10,0,0,0,10,10h20a10,10,0,0,0,10-10V10A10,10,0,0,0,144.74,0Z" transform="translate(-1.03)"/><path class="b" d="M145.74,7h-22a2,2,0,0,0-2,2V31a2,2,0,0,0,2,2h8.16a2,2,0,0,0,2-2V14.1a1.91,1.91,0,0,0-.13-.68h5.92a2,2,0,0,1,2,2V31a2,2,0,0,0,2,2h2.06a2,2,0,0,0,2-2V9A2,2,0,0,0,145.74,7Zm-16,7v2.06a2,2,0,0,1-3.92,0v-.66a2,2,0,0,1,2-2h2A1.93,1.93,0,0,0,129.78,14Z" transform="translate(-1.03)"/><path class="c" d="M8.13,13.12h0a2.22,2.22,0,0,0,2.21-2.21v0a2.13,2.13,0,0,0-.65-1.56,2.16,2.16,0,0,0-1.56-.65h0a2.22,2.22,0,0,0-2.21,2.21v0a2.16,2.16,0,0,0,.65,1.56A2.13,2.13,0,0,0,8.13,13.12Z" transform="translate(-1.03)"/><path class="c" d="M48.21,13.1h0a2.12,2.12,0,0,0,1.55-.65,2.09,2.09,0,0,0,.65-1.56v0a2.22,2.22,0,0,0-2.2-2.21h0A2.22,2.22,0,0,0,46,10.86v0a2.09,2.09,0,0,0,.65,1.56A2.12,2.12,0,0,0,48.21,13.1Z" transform="translate(-1.03)"/><path class="c" d="M45.12,23H43.31V20.13a4.93,4.93,0,0,0-.69-2.58,5.15,5.15,0,0,0-1.84-1.84,4.91,4.91,0,0,0-2.57-.7H25.88a5,5,0,0,0,1.26-2.29,5.45,5.45,0,0,0,0-2.57,5,5,0,0,0-1.31-2.27L25,7.08l-7.95,8v6.19h20V23H15.24V15H9V27H7.24V15H1V28.15a5.07,5.07,0,0,0,2.53,4.41,4.91,4.91,0,0,0,2.56.69h4a4.92,4.92,0,0,0,3.22-1.14,5,5,0,0,0,1.76-2.87H38.21a1.79,1.79,0,0,0,1.09-.35A1.93,1.93,0,0,0,40,28h.39a1.91,1.91,0,0,0,.7.91,1.82,1.82,0,0,0,1.09.35h4a4.89,4.89,0,0,0,2.57-.68,5.21,5.21,0,0,0,1.85-1.85,4.91,4.91,0,0,0,.69-2.56V15H45.12Z" transform="translate(-1.03)"/><path class="c" d="M55.52,15.72a5.37,5.37,0,0,0-1.78,1.83,5.06,5.06,0,0,0-.69,2.51v4.16a4.84,4.84,0,0,0,.7,2.53,5.2,5.2,0,0,0,1.85,1.82,5,5,0,0,0,2.55.67h2.91v4h1.11a4.9,4.9,0,0,0,2.57-.69,5.13,5.13,0,0,0,1.84-1.86,4.91,4.91,0,0,0,.69-2.56V15H58A4.57,4.57,0,0,0,55.52,15.72Zm3.74,5.5h1.82V23H59.26Z" transform="translate(-1.03)"/><path class="c" d="M82,31h0a1.72,1.72,0,0,0-1.73,1.73v0a1.74,1.74,0,0,0,1.73,1.73h0A1.71,1.71,0,0,0,83.21,34a1.64,1.64,0,0,0,.51-1.22v0a1.68,1.68,0,0,0-.51-1.23A1.75,1.75,0,0,0,82,31Z" transform="translate(-1.03)"/><path class="c" d="M78.28,31h0a1.71,1.71,0,0,0-1.73,1.73v0a1.72,1.72,0,0,0,1.73,1.73h0A1.68,1.68,0,0,0,79.51,34,1.65,1.65,0,0,0,80,32.8v0a1.69,1.69,0,0,0-.52-1.23A1.71,1.71,0,0,0,78.28,31Z" transform="translate(-1.03)"/><path class="c" d="M80.68,28.56a5.21,5.21,0,0,0,1.85-1.85,4.91,4.91,0,0,0,.69-2.56V15H77v8H75.19V15H69V33.26h1.09a5,5,0,0,0,3.23-1.14,5.11,5.11,0,0,0,1.77-2.88h3A4.89,4.89,0,0,0,80.68,28.56Z" transform="translate(-1.03)"/><path class="c" d="M87.48,11.71a5.26,5.26,0,0,0-1.85,1.84,4.85,4.85,0,0,0-.7,2.58V29.24h6.21V11H90.05A5,5,0,0,0,87.48,11.71Z" transform="translate(-1.03)"/><path class="c" d="M84.08,5.47v6.4h.08A3.15,3.15,0,0,0,86,11.28a3.05,3.05,0,0,0,1.14-1.52h2a3.1,3.1,0,0,0,2.26-.93,3,3,0,0,0,.94-2.25V5.47Z" transform="translate(-1.03)"/></svg>